<svg clip-rule="evenodd" fill-rule="evenodd" image-rendering="optimizeQuality" shape-rendering="geometricPrecision" text-rendering="geometricPrecision" version="1.1" viewBox="0 0 500 500" xmlns="http://www.w3.org/2000/svg">
 <path d="m215.96 121.24c-2.619.268-5.119-.065-7.5-1-.499-4.655-.666-9.321-.5-14-.166-7.3409 0-14.674.5-22 1.011-.8366 2.178-1.17 3.5-1-.295-6.7257.038-13.392 1-20 6.765-4.4645 13.599-8.7979 20.5-13 1.261.2591 2.261.9258 3 2 .5 10.328.666 20.661.5 31h4c-.166-6.675 0-13.342.5-20 6.245-4.5409 12.745-8.7075 19.5-12.5 2.445-.9098 3.778-.0764 4 2.5v30h5v-47c.111-.6174.444-1.1174 1-1.5 6-.6667 12-.6667 18 0l1.5 1.5c.5 15.663.667 31.33.5 47 1.322-.17 2.489.1634 3.5 1 .821 12.242.654 24.409-.5 36.5-25.998.5-51.998.667-78 .5z" fill="#443777"/>
 <path d="m184.96 56.239c-.515 2.3945-1.181 4.7278-2 7-2 1.3333-3.667 3-5 5-.667 0-1 .3333-1 1-2.667 1-5.333 2-8 3 5-5.6667 10.333-11 16-16z" fill="#434340" opacity=".022"/>
 <path d="m250.96 15.239c-30.431 10.794-46.431 32.461-48 65-.038 9.1242 1.629 17.791 5 26-.166 4.679.001 9.345.5 14 2.381.935 4.881 1.268 7.5 1 9.065 12.027 20.731 20.361 35 25-31.295-2.796-51.795-19.129-61.5-49-6.181-40.453 9.986-67.286 48.5-80.5 4.27-1.0754 8.603-1.5754 13-1.5z" fill="#f03174"/>
 <path d="m179.96 74.239c1.795 5.5835 2.629 11.584 2.5 18 1.038 5.1547 2.538 10.155 4.5 15-25.216 12.048-46.049 29.381-62.5 52-5.361 8.685-10.695 17.351-16 26-10.461-3.883-21.295-5.883-32.5-6 21.324-48.324 55.991-83.324 104-105z" fill="#62b9e4"/>
 <path d="m213.96 89.239h75v26h-75z" fill="#f5ad23"/>
 <path d="m250.96 15.239c35.071 1.5795 57.238 19.246 66.5 53 4.06 34.393-9.44 58.893-40.5 73.5-8.429 2.905-17.096 4.405-26 4.5-14.269-4.639-25.935-12.973-35-25 26.002.167 52.002 0 78-.5 1.154-12.091 1.321-24.258.5-36.5-1.011-.8366-2.178-1.17-3.5-1 .167-15.67 0-31.337-.5-47l-1.5-1.5c-6-.6667-12-.6667-18 0-.556.3826-.889.8826-1 1.5-.996 15.158-1.33 30.491-1 46h-3c.327-9.8478-.006-19.514-1-29-.222-2.5764-1.555-3.4098-4-2.5-6.755 3.7925-13.255 7.9591-19.5 12.5-.5 6.6583-.666 13.325-.5 20h-4c.166-10.339 0-20.672-.5-31-.739-1.0742-1.739-1.7409-3-2-6.901 4.2021-13.735 8.5355-20.5 13-.962 6.6077-1.295 13.274-1 20-1.322-.17-2.489.1634-3.5 1-.5 7.3258-.666 14.659-.5 22-3.371-8.2092-5.038-16.876-5-26 1.569-32.539 17.569-54.206 48-65z" fill="#f16174"/>
 <path d="m228.96 60.239c.06-.5431.393-.8764 1-1 .998 7.9723 1.331 15.972 1 24h-13c-.322-5.858.011-11.525 1-17v16h11c.325-7.5191-.008-14.852-1-22z" fill="#c38c3b"/>
 <path d="m257.96 59.239c.992 7.8159 1.326 15.816 1 24h-12c-.166-5.6764.001-11.343.5-17 3.651-2.2327 7.151-4.566 10.5-7z" fill="#f2ab26"/>
 <path d="m269.96 36.239v47h-5v-30c.994 9.4856 1.327 19.152 1 29h3c-.33-15.509.004-30.842 1-46z" fill="#bc5475"/>
 <path d="m228.96 60.239c.992 7.1476 1.325 14.481 1 22h-11v-16c3.333-2 6.667-4 10-6z" fill="#f5ad24"/>
 <path d="m275.96 40.239v42h8v-42c.996 14.157 1.329 28.49 1 43h-10c-.329-14.51.004-28.843 1-43z" fill="#9d734c"/>
 <path d="m275.96 40.239h8v42h-8z" fill="#f6ae23"/>
 <path d="m323.96 74.239c49.23 20.896 84.563 55.896 106 105-11.249-.11-22.082 1.89-32.5 6-8.087-14.504-17.42-28.171-28-41-14.728-15.231-31.561-27.564-50.5-37 4.423-10.528 6.09-21.528 5-33z" fill="#62bae4"/>
 <path d="m73.955 167.24c-1.0014 2.672-2.0014 5.338-3 8-.6667 0-1 .333-1 1-1.6667 1-3 2.333-4 4-.6667 0-1 .333-1 1-2 .333-4 .667-6 1 4.6667-5.333 9.6667-10.333 15-15z" fill="#444440" opacity=".022"/>
 <path d="m241.96 179.24h25c5.287-1.362 7.954.638 8 6v5c-.164 2.687.003 5.354.5 8l10.5-10.5c2.098-.678 4.098-.511 6 .5.667 1.333 1.667 2.333 3 3 2 2.667 4.333 5 7 7 .667 1.333 1.667 2.333 3 3 2 2.667 4.333 5 7 7 .667 1.333 1.667 2.333 3 3 1.695 1.713 2.528 3.713 2.5 6l-11.5 11.5c1.973.495 3.973.662 6 .5h5c5.06-.832 7.727 1.168 8 6v25c.165 3.682-.001 7.348-.5 11-3.94 1.65-8.107 2.483-12.5 2.5l-3 3c2.536 2.705 5.203 5.205 8 7.5.057 1.109.39 2.109 1 3-9.333 10-19 19.667-29 29-1.109-.057-2.109-.39-3-1-2.295-2.797-4.795-5.464-7.5-8l-3 3c-.333 3.667-.667 7.333-1 11l-1.5 1.5c-3.652.499-7.318.665-11 .5h-25c-4.832-.273-6.832-2.94-6-8v-5c.162-2.027-.005-4.027-.5-6l-11.5 11.5c-2.287.028-4.287-.805-6-2.5-.667-1.333-1.667-2.333-3-3-2-2.667-4.333-5-7-7-.667-1.333-1.667-2.333-3-3-2-2.667-4.333-5-7-7-.667-1.333-1.667-2.333-3-3-.528-1.221-1.195-2.387-2-3.5 3.632-4.634 7.632-8.967 12-13-2.646-.497-5.313-.664-8-.5h-5c-5.362-.046-7.362-2.713-6-8v-25c-1.986-9.189 1.681-12.856 11-11h5c3.353.155 3.686-.512 1-2-.333-1-1-1.667-2-2-2.333-2.667-4.667-5.333-7-8-.157-1.373.01-2.707.5-4l25.5-25.5c1.293-.49 2.627-.657 4-.5 2.667 2.333 5.333 4.667 8 7 .333 1 1 1.667 2 2 1.488 2.686 2.155 2.353 2-1v-5c-1.856-9.319 1.811-12.986 11-11zm-11 16c.155 3.353-.512 3.686-2 1 .667-.333 1.333-.667 2-1z" fill="#403778" opacity=".966"/>
 <path d="m252.96 186.24c.166 5.011-.001 10.011-.5 15-1.085.793-2.252 1.46-3.5 2-3.687-3.355-7.353-6.689-11-10v-7z" fill="#707070"/>
 <path d="m230.96 190.24v5c-.667.333-1.333.667-2 1-1-.333-1.667-1-2-2 1-1.667 2.333-3 4-4z" fill="#43443f" opacity=".022"/>
 <path d="m224.96 202.24c-5.408 3.9-10.408 8.4-15 13.5l12.5 12.5c.315 1.408-.018 2.741-1 4-4.737.969-9.57 1.303-14.5 1 .514-2.012.68-4.012.5-6l-11.5-11.5 21.5-21.5c2.705 2.536 5.205 5.203 7.5 8z" fill="#6f6e70"/>
 <path d="m477.96 245.24c1.877 1.159 2.377 2.826 1.5 5-1.011.837-2.178 1.17-3.5 1h-17c.332 11.353-.001 22.686-1 34-1.725.515-3.392 1.182-5 2-5.122 8.431-11.789 9.931-20 4.5-1.874-4.985-5.541-6.818-11-5.5-2.667.333-5.333.667-8 1-4.584 7.805-10.917 9.638-19 5.5-1.782-3.455-4.448-5.788-8-7l-1.5-1.5c-.827-24.906-.661-49.739.5-74.5 14-.667 28-.667 42 0 2.655 11.413 4.989 22.913 7 34.5 5.963.996 11.963 1.329 18 1-.166-6.009.001-12.009.5-18 1.396-2.027 3.062-2.36 5-1 .5 6.325.666 12.658.5 19z" fill="#453977"/>
 <path d="m195.96 225.24c1 .333 1.667 1 2 2-.333.667-.667 1.333-1 2h-5c1-1.667 2.333-3 4-4z" fill="#43443f" opacity=".022"/>
 <path d="m202.96 236.24v30h-15v-30z" fill="#707070"/>
 <path d="m429.96 186.24c26.211 10.554 41.211 29.887 45 58 1.291-.237 2.291.096 3 1h-19c.166-6.342 0-12.675-.5-19-1.938-1.36-3.604-1.027-5 1-.499 5.991-.666 11.991-.5 18-6.037.329-12.037-.004-18-1-2.011-11.587-4.345-23.087-7-34.5-14-.667-28-.667-42 0-1.161 24.761-1.327 49.594-.5 74.5l1.5 1.5c3.552 1.212 6.218 3.545 8 7 8.083 4.138 14.416 2.305 19-5.5 2.667-.333 5.333-.667 8-1 5.459-1.318 9.126.515 11 5.5 8.211 5.431 14.878 3.931 20-4.5 1.608-.818 3.275-1.485 5-2 .999-11.314 1.332-22.647 1-34h17c-1.848 31.408-17.181 53.075-46 65-29.695 1.075-51.195-11.592-64.5-38-12.21-33.693-4.043-61.193 24.5-82.5 12.214-7.887 25.548-11.054 40-9.5z" fill="#f4ac24"/>
 <path d="m427.96 241.24v3h-37v-29h33c1.24 8.68 2.573 17.347 4 26z" fill="#f6ad23"/>
 <path d="m427.96 241.24c.934 1.068 1.268 2.401 1 4-12.844.329-25.511-.005-38-1h37z" fill="#b18143"/>
 <path d="m75.955 186.24c30.418-.548 52.251 12.785 65.5 40 9.496 28.514 3.662 53.347-17.5 74.5-14.215 11.682-30.548 16.848-49 15.5-35.328-16.654-49.495-44.321-42.5-83 6.7726-22.92 21.273-38.587 43.5-47z" fill="#70c476"/>
 <g fill="#403878">
  <path d="m111.96 242.24c1.478-.262 2.811.071 4 1 2.56 6.121 5.394 12.121 8.5 18-2.476 8.803-5.976 17.303-10.5 25.5-6.325.5-12.658.666-19 .5.2778 1.846-.3888 3.18-2 4-3.5814-4.828-6.9148-9.828-10-15 3.3333-4.333 6.6667-8.667 10-13 .825-.886 1.825-1.219 3-1v4c3.072.317 6.072-.016 9-1-2.605-4.211-4.938-8.544-7-13 .51-1.588 1.51-2.755 3-3.5 4.06-1.689 7.727-3.856 11-6.5z"/>
  <path d="m43.955 242.24c6.0368-.329 12.037.004 18 1l6 15c-.3333 1-1 1.667-2 2-1.391-1.145-2.7243-1.145-4 0l-3 6c5.5522.688 11.052 1.354 16.5 2 .8087 6.249.642 12.416-.5 18.5-7.6667.667-15.333.667-23 0-5.1667-7.167-10.333-14.333-15.5-21.5 2.3025-6.264 5.4692-12.264 9.5-18-2.6932-1.032-3.3598-2.698-2-5z"/>
  <path d="m67.955 211.24c9.2506-.318 18.417.015 27.5 1 2.394 5.787 5.06 11.454 8 17 1.494-1.247 2.994-1.247 4.5 0-3.125 4.749-6.125 9.583-9 14.5-5.6918-.502-11.358-1.502-17-3-1.1469-2.085-.4803-3.585 2-4.5-1.0014-2.673-2.5014-5.007-4.5-7-2.8825 4.467-6.2158 8.467-10 12-5.2355-2.733-10.069-6.066-14.5-10-1.0827-.865-1.2494-1.865-.5-3 5.1182-5.273 9.6182-10.939 13.5-17z"/>
 </g>
 <path d="m390.96 251.24h62c.166 8.673 0 17.34-.5 26-4.549-6.037-10.382-7.537-17.5-4.5-2.241 1.739-3.908 3.906-5 6.5-5.292.995-10.625 1.328-16 1-2.819-8.077-8.486-10.91-17-8.5-2.5 1.167-4.333 3-5.5 5.5-.5-8.66-.666-17.327-.5-26z" fill="#9c9c9c"/>
 <path d="m429.96 186.24c26.854 2.519 45.687 16.186 56.5 41 9.945 33.501.778 60.334-27.5 80.5-8.996 5.165-18.663 7.999-29 8.5 28.819-11.925 44.152-33.592 46-65 1.322.17 2.489-.163 3.5-1 .877-2.174.377-3.841-1.5-5-.709-.904-1.709-1.237-3-1-3.789-28.113-18.789-47.446-45-58z" fill="#f3cf25"/>
 <path d="m252.96 186.24h15c-.166 5.676.001 11.343.5 17 2.493 2.172 5.326 3.006 8.5 2.5l11.5-11.5 21.5 21.5-11.5 11.5c-.18 2.809.487 5.476 2 8 5.741.975 11.575 1.308 17.5 1v30c-5.676-.166-11.343.001-17 .5-2.172 2.493-3.006 5.326-2.5 8.5l11.5 11.5-21.5 21.5-11.5-11.5c-2.919-.552-5.586.115-8 2-.975 5.741-1.308 11.575-1 17.5h-15c.166-5.011-.001-10.011-.5-15-1.085-.793-2.252-1.46-3.5-2-3.687 3.355-7.353 6.689-11 10 .289-3.606-.044-7.106-1-10.5-2.088-1.03-4.255-1.863-6.5-2.5-2.317 1.485-4.484 3.152-6.5 5-4.463-4.965-9.13-9.798-14-14.5l12.5-12.5c.315-1.408-.018-2.741-1-4-4.737-.969-9.57-1.303-14.5-1-.736-1.729-2.07-2.729-4-3v-30c1.93-.271 3.264-1.271 4-3 4.93.303 9.763-.031 14.5-1 .982-1.259 1.315-2.592 1-4l-12.5-12.5c4.592-5.1 9.592-9.6 15-13.5 1.686 1.516 3.519 2.85 5.5 4 2.245-.637 4.412-1.47 6.5-2.5.956-3.394 1.289-6.894 1-10.5 3.647 3.311 7.313 6.645 11 10 1.248-.54 2.415-1.207 3.5-2 .499-4.989.666-9.989.5-15z" fill="#9c9c9d"/>
 <path d="m246.96 225.24c15.801-1.524 26.301 5.143 31.5 20 2.022 15.792-4.478 26.292-19.5 31.5-16.349 2.079-26.849-4.754-31.5-20.5-1.593-15.49 4.907-25.824 19.5-31z" fill="#41397a"/>
 <path d="m246.96 231.24c18.01-1.156 26.51 7.177 25.5 25-6.435 14.702-16.935 18.536-31.5 11.5-10.191-10.41-10.524-21.077-1-32 2.398-1.524 4.731-3.024 7-4.5z" fill="#62b9e4"/>
 <path d="m206.96 269.24c4.93-.303 9.763.031 14.5 1 .982 1.259 1.315 2.592 1 4l-12.5 12.5c4.87 4.702 9.537 9.535 14 14.5-1.961 2.463-4.128 4.797-6.5 7l-21.5-21.5 11.5-11.5c.49-2.045.323-4.045-.5-6z" fill="#6f6f70"/>
 <path d="m75.955 186.24c-22.227 8.413-36.727 24.08-43.5 47-6.995 38.679 7.1717 66.346 42.5 83-29.279-3.771-48.446-19.771-57.5-48-6.6738-31.149 3.1595-55.649 29.5-73.5 9.0073-5.17 18.674-8.003 29-8.5z" fill="#51a757"/>
 <path d="m400.96 276.24c8.809 1.903 10.142 6.07 4 12.5-6.167.5-9-2.333-8.5-8.5 1.397-1.57 2.897-2.904 4.5-4z" fill="#97969a"/>
 <path d="m439.96 276.24c8.809 1.903 10.142 6.07 4 12.5-5.682.648-8.516-1.852-8.5-7.5 1.025-2.187 2.525-3.854 4.5-5z" fill="#97979a"/>
 <path d="m252.96 316.24h-15v-7c3.647-3.311 7.313-6.645 11-10 1.248.54 2.415 1.207 3.5 2 .499 4.989.666 9.989.5 15z" fill="#707070"/>
 <path d="m443.96 321.24c-3 3.667-6.333 7-10 10 .44-2.88 1.44-5.546 3-8 .667 0 1-.333 1-1 1.935-.65 3.935-.983 6-1z" fill="#434340" opacity=".022"/>
 <path d="m395.96 317.24c10.926 4.057 22.26 6.057 34 6-21.333 48.667-56.333 83.667-105 105-.831-6.642-1.331-13.309-1.5-20-1.347-4.388-2.847-8.721-4.5-13 35.101-16.767 60.767-42.767 77-78z" fill="#62bae5"/>
 <path d="m106.96 317.24c1.175-.219 2.175.114 3 1 16.305 34.139 41.472 59.472 75.5 76-.661 4.656-1.661 9.322-3 14-.169 6.691-.669 13.358-1.5 20-48.667-21.333-83.667-56.333-105-105 7.3462-.751 14.68-1.584 22-2.5 3.302-.661 6.302-1.828 9-3.5z" fill="#62bae5"/>
 <path d="m248.96 356.24c-24.802 10.066-40.136 28.233-46 54.5.028 1.07.361 1.903 1 2.5-.958 1.462-2.124 2.795-3.5 4-.667 9.333-.667 18.667 0 28 2.041.923 4.208 1.256 6.5 1 8.091 19.758 22.091 33.425 42 41h-6c-22.692-4.517-39.192-17.184-49.5-38-8.22-20.835-7.22-41.168 3-61 12.207-19.194 29.707-29.86 52.5-32z" fill="#6e6e70"/>
 <path d="m248.96 356.24c36.14.656 58.974 18.323 68.5 53 3.294 41.808-15.206 67.808-55.5 78h-13c-19.909-7.575-33.909-21.242-42-41 1.788-.285 3.455.048 5 1 4.728 8.409 11.394 10.243 20 5.5 1.456-1.745 2.789-3.578 4-5.5 11.319-1.166 22.652-1.332 34-.5 4.459 8.882 11.126 10.882 20 6 1.914-1.413 3.247-3.247 4-5.5 3.877-.697 7.71-1.364 11.5-2 .824-16.241.658-32.407-.5-48.5-19.33-.5-38.664-.667-58-.5.256-2.292-.077-4.459-1-6.5-7.667-.667-15.333-.667-23 0-6.546 7.708-12.88 15.541-19 23.5-.639-.597-.972-1.43-1-2.5 5.864-26.267 21.198-44.434 46-54.5z" fill="#9c9c9c"/>
 <path d="m206.96 446.24c-2.292.256-4.459-.077-6.5-1-.667-9.333-.667-18.667 0-28 1.376-1.205 2.542-2.538 3.5-4 6.12-7.959 12.454-15.792 19-23.5 7.667-.667 15.333-.667 23 0 .923 2.041 1.256 4.208 1 6.5 19.336-.167 38.67 0 58 .5 1.158 16.093 1.324 32.259.5 48.5-3.79.636-7.623 1.303-11.5 2-.753 2.253-2.086 4.087-4 5.5-8.874 4.882-15.541 2.882-20-6-11.348-.832-22.681-.666-34 .5-1.211 1.922-2.544 3.755-4 5.5-8.606 4.743-15.272 2.909-20-5.5-1.545-.952-3.212-1.285-5-1z" fill="#453a77"/>
 <path d="m225.96 395.24c4.805-.987 9.805-1.321 15-1v46c-1.915.284-3.581-.049-5-1h4v-44z" fill="#8f6954"/>
 <path d="m246.96 402.24h53v38c-2.104.299-4.104-.034-6-1-4.12-8.651-10.454-10.818-19-6.5-2.241 1.739-3.908 3.906-5 6.5-7.638.997-15.304 1.331-23 1z" fill="#f6ad23"/>
 <path d="m225.96 395.24h14v44h-4c-3.83-7.749-9.83-10.249-18-7.5-2.57 2.067-4.57 4.567-6 7.5-1.896.966-3.896 1.299-6 1-.166-7.008 0-14.008.5-21 6.743-7.899 13.243-15.899 19.5-24z" fill="#f5ad24"/>
 <path d="m332.96 432.24c-3.333 4-7 7.667-11 11 .333-2 .667-4 1-6 .667 0 1-.333 1-1 .667 0 1-.333 1-1 2.454-1.56 5.12-2.56 8-3z" fill="#434340" opacity=".022"/>
 <path d="m220.96 436.24c7.38-.457 10.213 2.876 8.5 10-4.306 4.175-8.306 3.842-12-1-.519-3.632.647-6.632 3.5-9z" fill="#9a9a9c"/>
 <path d="m278.96 436.24c5.455-.612 8.788 1.722 10 7-2.811 6.608-6.977 7.608-12.5 3-1.139-3.921-.305-7.254 2.5-10z" fill="#99989b"/>
</svg>
