<svg xmlns="http://www.w3.org/2000/svg" width="34.594" height="34.594" viewBox="0 0 34.594 34.594"><path d="M87.891,1485.827a17.3,17.3,0,1,0,17.3,17.3h0A17.306,17.306,0,0,0,87.891,1485.827Zm2.421,12.765c1.211,0,2.491-.034,3.7.035-.035,1.28,0,2.629-.035,3.909H90.313v12.108h-5.19v-12.108c-1.072-.034-2.214,0-3.321-.034v-3.944h3.287c.034-1.038,0-1.972.067-2.8a4.515,4.515,0,0,1,.727-2.11,4.651,4.651,0,0,1,3.706-2.073c1.384-.068,2.94.034,4.428.034,0,1.315.035,2.665-.034,3.944-.727.035-1.487-.067-2.111,0a1.612,1.612,0,0,0-1.352.934,4.6,4.6,0,0,0-.207,2.107Z" transform="translate(-70.594 -1485.827)" fill="#555c67"/></svg>