<svg xmlns="http://www.w3.org/2000/svg" width="34.594" height="34.594" viewBox="0 0 34.594 34.594">
  <path id="Path_541" data-name="Path 541" d="M178.478,1532.031a17.3,17.3,0,1,0,17.3,17.3A17.3,17.3,0,0,0,178.478,1532.031Zm-5.689,27.071q-1.76-.02-3.518,0c-.225,0-.278-.057-.278-.28q.011-6.246,0-12.492c0-.228.048-.3.292-.3q1.744.021,3.488,0c.248,0,.288.08.287.3-.007,2.077,0,4.154,0,6.231s0,4.174.005,6.26C173.062,1559.039,173.018,1559.1,172.789,1559.1Zm-1.745-14.853a2.349,2.349,0,0,1-.019-4.7,2.349,2.349,0,1,1,.019,4.7ZM187.98,1559.1q-1.744-.02-3.489,0c-.242,0-.289-.071-.289-.3q.008-3.457-.007-6.916a4.22,4.22,0,0,0-.226-1.343,1.691,1.691,0,0,0-1.459-1.224,2.84,2.84,0,0,0-1.408.133,2.149,2.149,0,0,0-1.317,1.77,7.648,7.648,0,0,0-.122,1.511c0,2.027,0,4.055.007,6.082,0,.238-.066.29-.293.287q-1.744-.018-3.488,0c-.244,0-.286-.074-.285-.3q.009-6.231,0-12.463c0-.235.037-.322.3-.318q1.654.026,3.309,0c.244,0,.3.073.29.3-.017.484-.005.969-.005,1.454a10.389,10.389,0,0,1,.831-.933,5.461,5.461,0,0,1,5.907-.472,4.067,4.067,0,0,1,1.776,2.736,12.426,12.426,0,0,1,.254,2.9q0,3.4.005,6.8C188.271,1559.043,188.214,1559.1,187.98,1559.1Z" transform="translate(-161.182 -1532.031)" fill="#555c67"/>
</svg>
