<svg xmlns="http://www.w3.org/2000/svg" width="34.594" height="34.594" viewBox="0 0 34.594 34.594"><path d="M41.493,1485.827a17.3,17.3,0,1,0,17.3,17.3h0A17.306,17.306,0,0,0,41.493,1485.827Zm9.236,12.592a13.765,13.765,0,0,1-1.971,7.646,13.18,13.18,0,0,1-11.867,6.469,13.234,13.234,0,0,1-6.679-1.938,1.048,1.048,0,0,1-.312-.242,9.432,9.432,0,0,0,7.023-1.937,4.461,4.461,0,0,1-2.839-1.038,4.8,4.8,0,0,1-1.591-2.283,4.649,4.649,0,0,0,2.076-.068,4.7,4.7,0,0,1-2.624-1.625,4.463,4.463,0,0,1-1.107-3.114c.034-.068.135.035.207.068a5.138,5.138,0,0,0,1.9.484,4.725,4.725,0,0,1-2.007-4.671,4.935,4.935,0,0,1,.588-1.7c.312.312.589.657.9.969a13.49,13.49,0,0,0,8.923,4.013,4.648,4.648,0,0,1,2.284-5.189,4.836,4.836,0,0,1,5.777.9,9.74,9.74,0,0,0,3.009-1.142,4.6,4.6,0,0,1-2.076,2.594,9.406,9.406,0,0,0,2.7-.726A9.483,9.483,0,0,1,50.729,1498.419Z" transform="translate(-24.196 -1485.827)" fill="#555c67"/></svg>