<svg xmlns="http://www.w3.org/2000/svg" width="34.594" height="34.594" viewBox="0 0 34.594 34.594"><g transform="translate(-116.992 -1485.827)"><path d="M133.044,1498.143a2.624,2.624,0,0,0,.067.934.536.536,0,0,0,.758.032.524.524,0,0,0,.107-.136,2.791,2.791,0,0,0,.034-.934V1496.1a2.62,2.62,0,0,0-.034-.934.512.512,0,0,0-.554-.208c-.484.068-.38.693-.38,1.211Z" fill="#555c67"/><path d="M130.276,1505.025v-1.313h-3.909c-.035,0,0,.035,0,.035v1.245c.449,0,.934-.035,1.315,0v7.092h1.28c0-2.352-.034-4.774,0-7.126A8.372,8.372,0,0,0,130.276,1505.025Z" fill="#555c67"/><path d="M132.387,1509.939a3.393,3.393,0,0,1,0,.588.935.935,0,0,1-.727.484c-.346-.034-.242-.726-.242-1.107v-4.047h-1.109c-.035,0,0,.035,0,.035v4.6a2.553,2.553,0,0,0,.173,1.352c.415.623,1.383.1,1.7-.207.068-.068.135-.173.242-.208v.657h1.142v-6.229h-1.14C132.387,1507.172,132.387,1508.659,132.387,1509.939Z" fill="#555c67"/><path d="M134.289,1485.827a17.3,17.3,0,1,0,17.3,17.3h0A17.306,17.306,0,0,0,134.289,1485.827Zm1.868,11.382v-3.183a6.4,6.4,0,0,1,1.142,0v2.387c0,.83-.068,1.7,0,2.421.068.415.38.381.657.173a.9.9,0,0,0,.312-.311,3.4,3.4,0,0,0,0-.588v-4.047a6.206,6.206,0,0,1,1.141,0v6.123a6.384,6.384,0,0,1-1.141,0v-.623c-.277.312-1.177,1.107-1.8.588C135.987,1499.7,136.157,1498.108,136.157,1497.209Zm-2.839-3.356a1.622,1.622,0,0,1,1.66.727,6.149,6.149,0,0,1,.208,2.456,8.052,8.052,0,0,1-.173,2.491,1.776,1.776,0,0,1-2.387.554,1.569,1.569,0,0,1-.727-1.245,16.5,16.5,0,0,1,0-1.834,6.191,6.191,0,0,1,.173-2.386,1.552,1.552,0,0,1,1.248-.763Zm-5.706-2.01c.381-.034.865,0,1.28,0,.277.969.52,1.972.762,2.941a.722.722,0,0,0,.135.38c.1-.1.1-.276.135-.38.242-.969.484-2.006.727-2.941h1.28c-.381,1.384-.865,2.84-1.28,4.256a2.073,2.073,0,0,0-.173.622,6.94,6.94,0,0,0,0,.865v2.594c-.415,0-.865.035-1.281,0v-1.622a12.607,12.607,0,0,0,0-1.626c-.034-.207-.135-.415-.173-.622-.519-1.523-.934-3.042-1.419-4.462Zm16.017,19.549a3.026,3.026,0,0,1-3.012,3.042H127.958a3.027,3.027,0,0,1-3.042-3.012v-6.568a3.027,3.027,0,0,1,3.012-3.042h12.656a3.026,3.026,0,0,1,3.041,3.012v.03Z" fill="#555c67"/><path d="M137.921,1509.144c0-.727.035-1.453,0-1.938a1.608,1.608,0,0,0-.449-1.176,1.144,1.144,0,0,0-1.315,0,3.073,3.073,0,0,1-.38.312v-2.63h-1.142c-.035,0,0,.035,0,.035v8.372h1.142v-.45a1.407,1.407,0,0,0,1.591.415,1.224,1.224,0,0,0,.553-1C137.956,1510.527,137.921,1509.835,137.921,1509.144Zm-1.351,2.076c-.277.173-.589-.068-.762-.242v-2.839a4.3,4.3,0,0,1,0-.935.527.527,0,0,1,.713-.215l.014.008c.381.207.208,1.522.208,2.11v1.176c0,.349.037.8-.171.937Z" fill="#555c67"/><path d="M142.142,1509.835h-1.177c-.034.45.105,1.108-.207,1.315a.6.6,0,0,1-.554.035c-.484-.208-.173-1.352-.276-1.972h2.179a17.443,17.443,0,0,0-.067-2.387,1.5,1.5,0,0,0-1.659-1.107,1.64,1.64,0,0,0-1.592,1.352,24.46,24.46,0,0,0-.034,2.8c0,1.038.1,1.73.692,2.145a2,2,0,0,0,1.972.035C142.038,1511.7,142.176,1510.943,142.142,1509.835Zm-2.076-2.767a.57.57,0,0,1,.726-.068c.277.208.173.761.208,1.176h-1a1.9,1.9,0,0,1,.069-1.108Z" fill="#555c67"/></g></svg>