<svg version="1.0" viewBox="0 0 125.36 127.96" xmlns="http://www.w3.org/2000/svg" xmlns:xlink="http://www.w3.org/1999/xlink">
 <defs>
  <linearGradient id="a" x1="372.25" x2="372.25" y1="69.038" gradientTransform="matrix(1.0272 0 0 1 571.72 145.72)" gradientUnits="userSpaceOnUse">
   <stop stop-color="#729fcf" offset="0"/>
   <stop stop-color="#3465a4" offset=".5"/>
   <stop stop-color="#204ab7" offset="1"/>
  </linearGradient>
 </defs>
 <g transform="translate(-580.18 -151.24)">
  <path d="m588.19 214.75h115.75c-.92285-4.0336-54.419-59.353-57.375-59.281-2.0191.0492-54.736 53.631-58.375 59.281z" fill="url(#a)"/>
  <g transform="translate(754.85 325.08)">
   <path d="m-143.51-75.428c-14.973-15.149-27.662-28.233-28.197-29.074-2.928-4.6058-.63253-7.6649 27.996-37.309 23.753-24.596 29.631-30.037 32.452-30.037 2.8065 0 8.6838 5.3539 31.697 28.874 19.862 20.299 28.252 29.726 28.252 31.744 0 4.1958-57.897 63.346-62.004 63.346-2.1765 0-10.258-7.3718-30.196-27.544z" fill="#fce94f" stroke="#fce94f" stroke-width="4"/>
   <path d="m-118.75-74.851c-.4686-.4686-.852-11.108-.852-23.643v-22.791h-5.2486c-6.3566 0-6.377.08892 3.579-15.616 4.5008-7.0997 7.8908-11.192 9.0773-10.957 1.8473.3653 16.874 22.949 16.874 25.36 0 .66746-2.3184 1.2136-5.152 1.2136-3.373 0-5.403.65405-5.8788 1.8941-1.2068 3.1449 2.9002 13.062 9.0565 21.869 6.3081 9.0238 6.8344 10.856 3.8344 13.346-1.6668 1.3833-2.7232.90654-6.7899-3.0645-2.6488-2.5865-5.2111-4.3076-5.694-3.8247-.4829.4829-.87798 4.5202-.87798 8.9718v8.0939h-5.5379c-3.0458 0-5.9213-.3834-6.3899-.85198z" fill="#c4a000" stroke="#c4a000"/>
   <path d="m-120.75-76.851c-.4686-.4686-.852-11.108-.852-23.643v-22.791h-5.2486c-6.3566 0-6.377.08892 3.579-15.616 4.5008-7.0997 7.8908-11.192 9.0773-10.957 1.8473.3653 16.874 22.949 16.874 25.36 0 .66746-2.3184 1.2136-5.152 1.2136-3.373 0-5.403.65405-5.8788 1.8941-1.2068 3.1449 2.9002 13.062 9.0565 21.869 6.3081 9.0238 6.8344 10.856 3.8344 13.346-1.6668 1.3833-2.7232.90654-6.7899-3.0645-2.6488-2.5865-5.2111-4.3076-5.694-3.8247-.4829.4829-.87798 4.5202-.87798 8.9718v8.0939h-5.5379c-3.0458 0-5.9213-.3834-6.3899-.85198z" fill="#555753" stroke="#2e3436"/>
   <path d="m-143.51-75.428c-14.973-15.149-27.662-28.233-28.197-29.074-2.928-4.6058-.63253-7.6649 27.996-37.309 23.753-24.596 29.631-30.037 32.452-30.037 2.8065 0 8.6838 5.3539 31.697 28.874 19.862 20.299 28.252 29.726 28.252 31.744 0 4.1958-57.897 63.346-62.004 63.346-2.1765 0-10.258-7.3718-30.196-27.544zm60.78-3.3808c19.451-19.978 28.864-30.541 28.864-32.389 0-3.1596-54.417-59.489-57.399-59.416-2.0445.04982-56.129 55.002-58.547 59.486-2.0052 3.7191-.71601 5.3656 24.57 31.381 27.584 28.379 29.882 30.585 31.862 30.585.98177 0 14.774-13.341 30.649-29.647z" fill="#555753" stroke="#2e3436" stroke-width="2"/>
  </g>
 </g>
</svg>
