<svg version="1.0" viewBox="0 0 514 514" xmlns="http://www.w3.org/2000/svg">
 <style type="text/css">.st0{fill:#E24329;}
	.st1{fill:#FC6D26;}
	.st2{fill:#FCA326;}</style>
 <g id="a" transform="matrix(1.6889 0 0 1.6889 -174.61 -83.396)">
  <path class="st0" d="m397.5 170.8-.4-1-39.6-103.3c-.8-2-2.2-3.7-4.1-4.9-3.8-2.3-8.6-2.1-12.1.7-1.7 1.4-2.9 3.2-3.5 5.3l-26.7 81.7h-108.1l-26.7-81.7c-.6-2.1-1.8-4-3.5-5.3-3.5-2.7-8.3-3-12.1-.7-1.8 1.2-3.3 2.9-4.1 4.9l-39.6 103.2-.4 1c-11.7 30.6-1.8 65.2 24.4 84.9l.1.1.4.3 60.3 45.1 29.8 22.6 18.2 13.7c4.4 3.3 10.4 3.3 14.8 0l18.2-13.7 29.8-22.6 60.6-45.4.2-.1c25.8-19.7 35.8-54.2 24.1-84.8z"/>
  <path class="st1" d="m397.5 170.8-.4-1c-19.3 4-37.4 12.1-53.2 23.9l-86.9 65.7c29.6 22.4 55.3 41.8 55.3 41.8l60.6-45.4.2-.1c26.1-19.7 36.1-54.3 24.4-84.9z"/>
  <path class="st2" d="m201.7 301.2 29.8 22.6 18.2 13.7c4.4 3.3 10.4 3.3 14.8 0l18.2-13.7 29.8-22.6s-25.8-19.5-55.4-41.8c-29.7 22.3-55.4 41.8-55.4 41.8z"/>
  <path class="st1" d="m170.1 193.7c-15.7-11.8-33.9-20-53.2-24l-.4 1c-11.7 30.6-1.8 65.2 24.4 84.9l.1.1.4.3 60.3 45.1s25.7-19.4 55.3-41.8z"/>
 </g>
</svg>
