<svg width="800" height="800" preserveAspectRatio="xMidYMid" version="1.1" viewBox="-38.4 -81.966 221.87 491.8" xmlns="http://www.w3.org/2000/svg">
 <path d="m-110.86 332.12c6.1214-2.6988 12.625-4.0461 18.873-4.0461 5.9928 0 9.8183 1.4703 11.986 4.538 4.5904-3.0664 10.839-4.538 15.684-4.538 14.539 0 15.048 5.8853 15.048 23.175v38.252c0 1.7162.25447 1.7162-7.0121 1.7162v-40.707c0-12.506-.25588-16.309-8.5403-16.309-3.6983 0-7.5238.85672-11.607 3.5555v52.599c-.12724.49055-.38171.61355-1.2724.73513-.13007 0-.25447.12159-.38454.12159h-5.358v-40.704c0-12.015 0-16.43-8.6675-16.43-3.6983 0-7.3952.73513-11.734 2.8204v52.6c0 1.7177.2573 1.7177-7.0121 1.7177v-59.098m95.864-4.0475c-10.838 0-22.822 3.065-22.822 35.804 0 25.259 8.7948 29.181 20.912 29.181 9.3037 0 17.339-3.065 17.339-4.538 0-1.8378-.25588-4.6582-.89206-6.2529-3.9542 2.6974-9.5666 4.1676-15.811 4.1676-8.5431 0-14.28-2.4514-14.411-21.456 5.6125 0 19.895-.12157 30.478-2.2082.89064-4.0461 1.2724-9.9314 1.2724-15.08 0-12.261-4.9735-19.617-16.064-19.617m-.639 6.1299c7.6511 0 9.6896 5.0258 9.8183 14.836 0 2.573-.12723 5.6393-.51177 8.5813-7.1393 1.7177-19.255 1.7177-24.357 1.7177.89772-22.313 8.546-25.133 15.05-25.133m27.799-.73514c5.9899-3.9245 11.478-5.3948 17.086-5.3948 6.2486 0 9.1821 1.7162 9.1821 3.8029 0 1.2257-.38594 3.3109-1.0221 4.538-1.7869-.98254-3.8227-1.8407-7.1435-1.8407-4.0786 0-7.9027 1.1027-10.962 3.8001v51.13c0 1.7162.12724 1.7162-7.1407 1.7162v-57.753m64.375-1.3473c0-1.5947-5.3538-4.0461-10.71-4.0461-10.333 0-22.955 3.5555-22.955 33.84 0 28.689 7.6539 31.266 21.04 31.266 6.6289 0 12.625-3.5555 12.625-5.5163 0-1.1041-.25304-2.8218-.89488-4.2935-2.6776 1.9608-6.7576 3.8029-11.091 3.8029-9.1793 0-14.536-2.5744-14.536-24.891 0-24.645 8.7962-28.079 16.447-28.079 4.3345 0 6.7576 1.2257 9.1793 2.8204.64184-1.4703.89488-3.5555.89488-4.9028m48.844 57.015c-5.6111 2.8204-13.003 3.9245-19.382 3.9245-16.321 0-18.746-6.8636-18.746-23.172v-38.377c0-1.5918-.12298-1.5918 7.145-1.5918v40.707c0 12.261 1.7827 16.43 11.347 16.43 3.6969 0 8.799-.73513 12.625-2.9434v-52.6c0-1.5918-.25588-1.5918 7.0121-1.5918v59.214m14.542-55.667c5.9899-3.9245 11.474-5.3948 17.083-5.3948 6.2486 0 9.1821 1.7177 9.1821 3.8029 0 1.2257-.38312 3.3124-1.0193 4.5381-1.7869-.98253-3.8255-1.8378-7.1435-1.8378-4.0786 0-7.9027 1.0999-10.966 3.7987v51.13c0 1.7162.13149 1.7162-7.1364 1.7162v-57.753m42.638-3.5555c-5.6125 0-7.2679 0-7.2679 3.3109v57.994c7.1393 0 7.2665 0 7.2665-1.7163v-59.588m-7.5224-21.578c0 4.0475 1.2752 5.5163 3.8227 5.6393 2.9335 0 4.3373-2.0838 4.3373-5.7637.12724-3.8001-.89488-5.5163-3.8255-5.5163-2.8034 0-4.2072 2.0852-4.3345 5.6407m19.62 25.133c0-1.3473.25446-2.0852.76624-2.4514 2.4231-1.3487 11.734-2.9434 22.316-2.9434 8.0356 0 13.133 3.8029 13.133 14.836v7.9691c0 21.825-.63617 38.134-.63617 38.134-2.9335 1.5918-8.4159 4.0461-17.345 4.0461-9.1793.12158-18.359-.73514-18.359-18.882 0-17.287 9.4352-19.986 18.87-19.986 3.5696 0 7.7797.36898 10.586 1.4731v-11.404c0-7.9692-4.0786-9.6854-8.9276-9.6854-6.5003 0-15.551 1.2257-19.507 3.065-.76624-1.3487-.89772-3.4339-.89772-4.1691m29.328 27.223c-2.4217-.85956-5.8641-1.2257-8.2872-1.2257-7.2679 0-13.9 1.4703-13.9 14.957 0 12.627 5.4852 12.752 11.986 12.752 4.0814 0 8.1628-1.1027 9.5624-2.573.002-.002.63901-14.717.63901-23.91m27.059 28.812c0 1.7163.12724 1.7163-7.0149 1.7163v-86.808c0-3.3109 1.4038-3.3109 7.0149-3.3109v88.403" fill="#010101" stroke-width="1.4137"/>
 <g transform="matrix(1.4137 0 0 1.4137 -110.86 -70.324)" fill="#1b1a1b">
  <path d="m239.15 190.79c45.729-76.034-9.658-199.35-110.93-186.82-91.503 11.312-92.978 107.62-12.335 130.5 69.786 19.817 14.417 64.082 16.035 93.558 1.625 29.472 60.669 40.165 107.23-37.239z"/>
  <path d="m81.333 238.73c21.074-5.542 33.686-27.198 28.169-48.37-5.517-21.171-27.073-33.841-48.148-28.299s-33.686 27.198-28.169 48.37c5.517 21.171 27.073 33.841 48.148 28.299zm-57.552-147.94c-14.189 1.38-24.576 14.042-23.202 28.297 1.376 14.265 13.98 24.707 28.172 23.327 14.187-1.398 24.583-14.057 23.203-28.313-1.379-14.245-13.981-24.691-28.173-23.311z"/>
 </g>
 <g stroke-width="1.4137">
  <path d="m227.5 194.58c64.242-107.3-13.563-281.33-155.83-263.66-128.54 15.964-130.61 151.89-17.329 184.18 98.033 27.968 20.253 90.436 22.526 132.04 2.2846 41.589 85.223 56.676 150.63-52.562z" fill="#bfbfbf"/>
  <path d="m93.348 263.56c-3.8934-6.3434 2.0598-13.391 8.1798-12.855 9.7406.85814 30.949-.11304 47.683-9.643 41.808-23.81 106.15-138.38 73.788-210.63-14.486-32.346-21.541-41.607-36.46-57.43-3.0438-3.2275-1.2964-3.0522.76341-1.9594 8.0681 4.2539 22.246 20.729 36.788 47.546 24.57 45.308 23.295 99.17 14.157 132.96-6.366 23.505-28.29 76.679-60.397 99.667-32.181 23.044-69.835 36.262-84.502 12.347zm-29.123-148.67c-21.904-6.5314-50.14-15.629-66.473-37.09-12.041-15.824-18.152-33.095-19.713-42.888-.55559-3.4947-1.0264-6.4098-.0255-7.2142.46371-.37322 8.9913 18.989 21.739 35.217 12.746 16.232 30.559 25.726 45.399 29.175 13.2 3.0664 40.541 9.8013 49.791 17.718 9.5101 8.1388 10.305 25.721 7.1039 27.706-3.2275 1.9948-9.7716-14.264-37.821-22.625z"/>
  <path d="m109.38 266.67c-.4227 5.0371 5.3354 6.0239 13.087 4.8576 9.9342-1.4986 18.336-2.621 29.772-8.3791 15.499-7.8023 31.182-18.964 42.67-34.023 34.273-44.921 46.41-98.07 44.541-105.72-.62486 6.3151-8.898 39.458-27.822 69.339-24.302 38.383-41.924 58.825-82.567 68.735-11.31 2.761-19.128-1.442-19.68 5.1884zm-90.139-174.68c4.6285 3.9443 14.113 9.2005 32.776 15.349 22.54 7.4235 33.514 13.863 38.11 16.948 4.8703 3.277 7.9564 10.587 8.2618 4.0941.31808-6.5003-3.67-12.09-12.568-15.056-6.0225-2.0075-16.15-6.7901-25.857-8.7142-6.2388-1.237-16.389-3.6926-25.094-6.3702-4.7699-1.4731-9.6303-4.0531-15.63-6.2501z" fill="#fff"/>
  <path d="m4.1043 262.82c29.675-7.8348 47.433-38.45 39.665-68.382-7.7684-29.93-38.122-47.842-67.798-40.007-29.675 7.8348-47.433 38.45-39.665 68.382 7.7684 29.93 38.122 47.842 67.798 40.007z" fill="#bfbfbf"/>
  <path d="m-43.028 249.45c43.202 40.377 108.23-15.086 79.595-64.074-3.2148-5.4994-7.3895-9.6868-6.0168-5.4739 9.151 28.168.69413 50.452-15.084 61.932-15.469 11.26-36.733 13.145-53.755 4.2412-4.9989-2.6126-7.0728 1.196-4.7374 3.3746z"/>
  <path d="m-9.1295 257.75c5.4994-1.1663 37.492-9.5228 45.007-36.063 2.3411-8.2745 2.761-6.612 2.0994-2.1291-3.376 22.884-24.822 39.765-43.072 40.39-3.704.38453-8.5615-1.2441-4.0348-2.1984z" fill="#fff"/>
  <path d="m-76.936 53.676c-19.98 1.9509-34.605 19.851-32.671 40.004 1.9368 20.162 19.685 34.929 39.665 32.978 19.98-1.9764 34.618-19.877 32.673-40.031-1.9382-20.14-19.682-34.903-39.666-32.952z" fill="#bfbfbf"/>
  <path d="m-93.426 118.04c.22195 2.5899 3.7393 5.9178 9.2641 7.4446 4.7473 1.3134 16.984 4.6681 32.705-5.3396 15.721-10.009 17.533-36.777 10.388-44.65-2.2125-3.9881-5.0894-6.8919-2.8006-.52732 5.7807 16.071-5.4513 31.103-15.141 38.064-9.684 6.9612-21.965 3.6672-26.981 2.1248-5.0159-1.5424-7.6595.20783-7.4362 2.884z"/>
  <path d="m-73.139 121.64c1.442-1.3077 8.7354-.77331 15.321-4.3458 6.5823-3.5711 14.406-11.4 15.803-22.525.82279-6.5314 1.0688-4.8915 1.3968-1.3346-1.0221 18.494-17.884 28.71-27.528 30.057-2.6012.36474-7.1817.14137-4.9904-1.852z" fill="#fff"/>
  <path d="m215.32 124.87c27.244-79.201-29.766-198.81-145.1-184.42-104.21 12.995-105.89 123.62-14.05 149.91 104.03 15.883 41.387 95.035 32.5 134.95-7.9663 35.78 84.07 41.668 126.65-100.44z" fill="#999"/>
  <path d="m144.04 186.74c-28.183-3.5174-68.738 60.659-30.498 53.142 38.234-7.5097-38.24 7.5154 0 0 18.38-2.7497 33.606-9.2938 47.237-24.986 17.773-20.457 44.323-64.644 52.001-93.195 6.4678-24.073 3.2176-61.368-3.4509-26.326-6.8382 35.962-37.107 94.883-65.29 91.366z" fill="#f3f3f3"/>
  <path d="m-45.267 238.07c6.5243.11024 10.471 1.0377 17.078 5.7128 13.061 5.4739 37.068 2.0061 48.154-12.715 11.086-14.72 11.451-35.001 7.2255-47.256-10.333-29.994-54.229-29.462-73.839-4.5621-21.216 27.808-5.1445 58.712 1.3798 58.821zm-58.269-138.98c1.3006 4.1309 4.6229 10.158 11.641 11.163 9.3702 1.3416 11.287 5.6125 22.351 3.3958 11.065-2.2153 19.453-11.361 22.808-21.477 3.8425-13.997-1.9099-21.226-10.569-27.678-8.659-6.4522-27.706-5.7581-39.072 4.6936-8.078 7.422-10.324 19.847-7.1577 29.903z" fill="#999"/>
  <path d="m-66.737 108.33c8.5021-2.245 19.747-13.929 14.164-22.851-6.8877-10.992-26.075-1.5834-26.724 10.655-.65032 12.243 3.5484 14.575 12.56 12.196zm63.839 131.89c7.2538-1.9156 29.478-11.037 25.303-43.622-2.1121-16.505-11.038 20.485-27.568 26.018-25.041 8.3819-22.228 24.071 2.2634 17.604z" fill="#f3f3f3"/>
 </g>
</svg>
