<?xml version="1.0" encoding="UTF-8" standalone="no"?>
<svg
   height="800"
   width="800"
   preserveAspectRatio="xMidYMid"
   viewBox="-38.39985 -81.966 221.8658 491.796"
   version="1.1"
   id="svg36"
   sodipodi:docname="Mercurial-Logo.wine.svg"
   inkscape:version="1.2.2 (b0a8486541, 2022-12-01)"
   xmlns:inkscape="http://www.inkscape.org/namespaces/inkscape"
   xmlns:sodipodi="http://sodipodi.sourceforge.net/DTD/sodipodi-0.dtd"
   xmlns="http://www.w3.org/2000/svg"
   xmlns:svg="http://www.w3.org/2000/svg">
  <defs
     id="defs40" />
  <sodipodi:namedview
     id="namedview38"
     pagecolor="#ffffff"
     bordercolor="#666666"
     borderopacity="1.0"
     inkscape:showpageshadow="2"
     inkscape:pageopacity="0.0"
     inkscape:pagecheckerboard="0"
     inkscape:deskcolor="#d1d1d1"
     showgrid="false"
     inkscape:zoom="0.65672542"
     inkscape:cx="574.82167"
     inkscape:cy="404.27855"
     inkscape:window-width="1920"
     inkscape:window-height="1040"
     inkscape:window-x="1920"
     inkscape:window-y="0"
     inkscape:window-maximized="1"
     inkscape:current-layer="svg36" />
  <path
     fill="#010101"
     d="m -110.86378,332.12417 c 6.12142,-2.6988 12.62454,-4.04607 18.8732,-4.04607 5.99276,0 9.81829,1.47027 11.98553,4.53804 4.59036,-3.06636 10.83901,-4.53804 15.68383,-4.53804 14.53872,0 15.04766,5.88532 15.04766,23.17514 v 38.25249 c 0,1.71625 0.25447,1.71625 -7.01206,1.71625 v -40.7067 c 0,-12.5058 -0.25588,-16.30871 -8.54029,-16.30871 -3.6983,0 -7.52383,0.85672 -11.60666,3.55552 v 52.59895 c -0.12724,0.49055 -0.38171,0.61355 -1.27235,0.73513 -0.13007,0 -0.25447,0.12159 -0.38454,0.12159 h -5.358 v -40.7039 c 0,-12.01522 0,-16.43027 -8.66753,-16.43027 -3.6983,0 -7.39518,0.73513 -11.7339,2.82037 v 52.60036 c 0,1.71766 0.2573,1.71766 -7.01206,1.71766 v -59.09781 m 95.8645,-4.0475 c -10.83759,0 -22.82172,3.06495 -22.82172,35.80394 0,25.25897 8.79477,29.18064 20.91178,29.18064 9.3037097,0 17.33929967,-3.06496 17.33929967,-4.53805 0,-1.83784 -0.25588,-4.65823 -0.89206,-6.25289 -3.95417997,2.69737 -9.56664967,4.16764 -15.81105967,4.16764 -8.54313,0 -14.28001,-2.45138 -14.41149,-21.45606 5.61248,0 19.89531,-0.12157 30.47843967,-2.20823 0.89064,-4.04607 1.27235003,-9.9314 1.27235003,-15.08017 0,-12.26121 -4.97348,-19.61682 -16.0641297,-19.61682 m -0.639,6.1299 c 7.6510597,0 9.6896497,5.0258 9.8182997,14.8356 0,2.57299 -0.12723,5.63934 -0.51177,8.5813 -7.1392897,1.71767 -19.2548897,1.71767 -24.3570197,1.71767 0.89772,-22.31277 8.54595,-25.13314 15.05049,-25.13314 m 27.79943,-0.73514 c 5.989937,-3.92449 11.478007,-5.39476 17.086252,-5.39476 6.248647,0 9.182118,1.71625 9.182118,3.80291 0,1.22569 -0.38594,3.31093 -1.022118,4.53804 -1.786942,-0.98254 -3.822695,-1.84066 -7.143545,-1.84066 -4.078585,0 -7.902696,1.1027 -10.961994,3.80009 v 51.13009 c 0,1.71624 0.127242,1.71624 -7.140713,1.71624 v -57.75337 m 64.37525,-1.34727 c 0,-1.59468 -5.35376,-4.04607 -10.71036,-4.04607 -10.33289,0 -22.954612,3.5555 -22.954612,33.84026 0,28.68866 7.653912,31.26587 21.040442,31.26587 6.62893,0 12.62453,-3.5555 12.62453,-5.51633 0,-1.10412 -0.25304,-2.82179 -0.89488,-4.29348 -2.67759,1.96084 -6.7576,3.80291 -11.09066,3.80291 -9.17928,0 -14.53587,-2.57438 -14.53587,-24.8914 0,-24.64542 8.79616,-28.07936 16.44723,-28.07936 4.33447,0 6.75759,1.22571 9.1793,2.82038 0.64184,-1.47027 0.89488,-3.55551 0.89488,-4.90278 m 48.8441,57.01541 c -5.61107,2.82038 -13.00341,3.92449 -19.38213,3.92449 -16.32142,0 -18.74596,-6.86361 -18.74596,-23.17232 v -38.3769 c 0,-1.59184 -0.12298,-1.59184 7.14495,-1.59184 v 40.7067 c 0,12.26122 1.78271,16.43028 11.34653,16.43028 3.69689,0 8.79901,-0.73513 12.62454,-2.94336 v -52.60037 c 0,-1.59185 -0.25588,-1.59185 7.01207,-1.59185 v 59.21375 m 14.54155,-55.66672 c 5.98994,-3.9245 11.47376,-5.39477 17.08341,-5.39477 6.24865,0 9.18213,1.71768 9.18213,3.80291 0,1.22571 -0.38312,3.31236 -1.0193,4.53806 -1.78694,-0.98253 -3.82554,-1.83784 -7.14353,-1.83784 -4.0786,0 -7.90271,1.09987 -10.96626,3.79868 v 51.13009 c 0,1.71624 0.13149,1.71624 -7.13645,1.71624 v -57.75337 m 42.63785,-3.55551 c -5.61248,0 -7.26794,0 -7.26794,3.31094 v 57.99371 c 7.1393,0 7.26654,0 7.26654,-1.71626 v -59.58839 m -7.52243,-21.57764 c 0,4.04749 1.27519,5.51634 3.82271,5.63934 2.93347,0 4.33729,-2.08383 4.33729,-5.76374 0.12724,-3.80009 -0.89488,-5.51634 -3.82553,-5.51634 -2.80341,0 -4.20723,2.08523 -4.33447,5.64074 m 19.61964,25.13315 c 0,-1.34727 0.25446,-2.08524 0.76624,-2.45139 2.42312,-1.3487 11.73389,-2.94338 22.3156,-2.94338 8.0356,0 13.13347,3.80291 13.13347,14.83561 v 7.96914 c 0,21.82505 -0.63617,38.13376 -0.63617,38.13376 -2.93347,1.59184 -8.41588,4.04607 -17.34495,4.04607 -9.17929,0.12158 -18.3586,-0.73514 -18.3586,-18.88168 0,-17.28698 9.43518,-19.98579 18.87036,-19.98579 3.56965,0 7.77972,0.36898 10.58595,1.4731 v -11.40449 c 0,-7.96916 -4.07858,-9.68542 -8.92765,-9.68542 -6.50029,0 -15.55093,1.22571 -19.50653,3.06495 -0.76624,-1.34869 -0.89772,-3.43392 -0.89772,-4.16906 m 29.32767,27.22264 c -2.42171,-0.85956 -5.86413,-1.22571 -8.28725,-1.22571 -7.26794,0 -13.89971,1.47028 -13.89971,14.95718 0,12.62736 5.48524,12.75178 11.98553,12.75178 4.08143,0 8.16284,-1.1027 9.56242,-2.57297 0.002,-0.002 0.63901,-14.71685 0.63901,-23.91028 m 27.05863,28.81164 c 0,1.71627 0.12724,1.71627 -7.01488,1.71627 v -86.8082 c 0,-3.31094 1.40383,-3.31094 7.01488,-3.31094 v 88.40287"
     id="path2"
     style="stroke-width:1.41372" />
  <g
     fill="#1b1a1b"
     id="g8"
     transform="matrix(1.4137221,0,0,1.4137221,-110.86378,-70.324341)">
    <path
       d="m 239.15,190.793 c 45.729,-76.034 -9.658,-199.35 -110.93,-186.82 -91.503,11.312 -92.978,107.62 -12.335,130.5 69.786,19.817 14.417,64.082 16.035,93.558 1.625,29.472 60.669,40.165 107.23,-37.239 z"
       id="path4" />
    <path
       d="m 81.333,238.733 c 21.074,-5.542 33.686,-27.198 28.169,-48.37 -5.517,-21.171 -27.073,-33.841 -48.148,-28.299 -21.075,5.542 -33.686,27.198 -28.169,48.37 5.517,21.171 27.073,33.841 48.148,28.299 z M 23.781,90.792 c -14.189,1.38 -24.576,14.042 -23.202,28.297 1.376,14.265 13.98,24.707 28.172,23.327 14.187,-1.398 24.583,-14.057 23.203,-28.313 C 50.575,99.858 37.973,89.412 23.781,90.792 Z"
       id="path6" />
  </g>
  <path
     fill="#bfbfbf"
     d="M 227.49647,194.58313 C 291.73883,87.278814 213.93323,-86.747552 71.66189,-69.076025 -56.87797,-53.112275 -58.9519,82.814277 54.33249,115.10369 c 98.03313,27.96766 20.25298,90.4358 22.52623,132.03881 2.28458,41.58888 85.22341,56.67612 150.6321,-52.56219 z"
     id="path10"
     style="stroke-width:1.41372" />
  <path
     d="m 93.34838,263.55864 c -3.8934,-6.34337 2.05979,-13.39078 8.1798,-12.85498 9.74055,0.85814 30.9492,-0.11304 47.68343,-9.64299 41.80801,-23.80991 106.14791,-138.37512 73.78781,-210.630449 -14.48641,-32.3459628 -21.54088,-41.607257 -36.45989,-57.429634 -3.04375,-3.227529 -1.29638,-3.052226 0.76341,-1.959419 8.0681,4.253889 22.24633,20.7294073 36.78787,47.546302 24.5705,45.308378 23.29532,99.16978 14.15702,132.95772 -6.36599,23.50455 -28.29,76.67889 -60.39705,99.66742 -32.18054,23.04366 -69.83503,36.26197 -84.5024,12.34744 z M 64.22571,114.89163 C 42.321498,108.36023 14.08523,99.262935 -2.2475103,77.801223 -14.28818,61.977439 -20.3997,44.705991 -21.96045,34.913134 c -0.55559,-3.494722 -1.02636,-6.409817 -0.0255,-7.214226 0.46371,-0.373221 8.99128,18.989119 21.73880967,35.217225 C 12.49899,79.148497 30.311875,88.641649 45.15172,92.091123 c 13.199928,3.066365 40.541298,9.801337 49.791288,17.718177 9.510112,8.13879 10.304622,25.72125 7.103942,27.70612 -3.227512,1.99475 -9.771642,-14.26446 -37.821292,-22.6252 z"
     id="path12"
     style="stroke-width:1.41372" />
  <path
     fill="#ffffff"
     d="m 109.37999,266.66883 c -0.4227,5.03709 5.33538,6.02387 13.08684,4.85756 9.93421,-1.49856 18.33595,-2.62105 29.77156,-8.37914 15.49863,-7.80233 31.18247,-18.96367 42.67037,-34.02264 34.27287,-44.92102 46.40968,-98.0699 44.54073,-105.71814 -0.62486,6.3151 -8.89796,39.4584 -27.82205,69.33884 -24.30188,38.38255 -41.92393,58.82497 -82.56703,68.73516 -11.30976,2.76099 -19.12765,-1.442 -19.68042,5.18836 z M 19.241061,91.98934 c 4.628541,3.944275 14.113198,9.2005 32.775739,15.34877 22.54039,7.42346 33.51369,13.86296 38.10971,16.94771 4.87027,3.27699 7.95642,10.58735 8.26179,4.09413 0.31808,-6.5003 -3.67001,-12.09016 -12.56799,-15.05615 -6.02246,-2.00747 -16.15035,-6.79009 -25.85697,-8.71417 -6.23875,-1.237 -16.389283,-3.69264 -25.093577,-6.370225 -4.769895,-1.4731 -9.63027,-4.053149 -15.630107,-6.250065 z"
     id="path14"
     style="stroke-width:1.41372" />
  <path
     fill="#bfbfbf"
     d="M 4.1043497,262.8235 C 33.779782,254.98865 51.53756,224.37309 43.769151,194.44177 36.000753,164.51185 5.6467197,146.59999 -24.02872,154.43485 c -29.67544,7.83484 -47.43321,38.45042 -39.6648,68.38174 7.7684,29.92991 38.12243,47.84176 67.7978697,40.00691 z"
     id="path16"
     style="stroke-width:1.41372" />
  <path
     d="m -43.02773,249.4497 c 43.20192967,40.37732 108.23033,-15.08583 79.595382,-64.07413 -3.214808,-5.49939 -7.389535,-9.68683 -6.016802,-5.47394 9.151019,28.16842 0.694131,50.45151 -15.084419,61.93235 -15.46894133,11.26028 -36.732741,13.14479 -53.755371,4.24116 -4.99892,-2.61256 -7.07285,1.196 -4.73738,3.37456 z"
     id="path18"
     style="stroke-width:1.41372" />
  <path
     fill="#ffffff"
     d="m -9.1295003,257.74824 c 5.49938,-1.16631 37.4919063,-9.52283 45.0072463,-36.06263 2.341135,-8.27452 2.761006,-6.61198 2.09938,-2.12907 -3.375971,22.88393 -24.822126,39.76517 -43.0718663,40.39005 -3.70395,0.38453 -8.5614997,-1.24408 -4.03476,-2.19835 z"
     id="path20"
     style="stroke-width:1.41372" />
  <path
     fill="#bfbfbf"
     d="m -76.93586,53.67605 c -19.98013,1.950936 -34.60509,19.851484 -32.67112,40.004101 1.9368,20.162499 19.68467,34.928829 39.66481,32.977879 19.98013,-1.97638 34.61781,-19.87692 32.67253,-40.030944 C -39.20786,66.487209 -56.95148,51.72371 -76.93586,53.674635 Z"
     id="path22"
     style="stroke-width:1.41372" />
  <path
     d="m -93.42551,118.04423 c 0.22195,2.58994 3.73929,5.91783 9.26412,7.44465 4.74728,1.31336 16.98446,4.66811 32.70505,-5.33962 15.72059,-10.00915 17.53298,-36.776566 10.38803,-44.649578 -2.21248,-3.988105 -5.0894,-6.891892 -2.80059,-0.527316 5.78071,16.07119 -5.45131,31.103294 -15.14096,38.064464 -9.684,6.96117 -21.965,3.66719 -26.98089,2.12481 -5.01589,-1.54236 -7.65954,0.20783 -7.43618,2.88401 z"
     id="path24"
     style="stroke-width:1.41372" />
  <path
     fill="#ffffff"
     d="m -73.1386,121.63508 c 1.442,-1.30769 8.73539,-0.77331 15.32051,-4.34578 6.58229,-3.57106 14.40582,-11.40025 15.80258,-22.524831 0.82279,-6.531389 1.06878,-4.891474 1.39676,-1.334555 -1.02212,18.494316 -17.88359,28.709866 -27.528,30.057146 -2.60125,0.36474 -7.18171,0.14137 -4.99044,-1.85198 z"
     id="path26"
     style="stroke-width:1.41372" />
  <path
     fill="#999999"
     d="M 215.32433,124.8725 C 242.56816,45.671549 185.5584,-73.939229 70.21989,-59.547538 -33.98981,-46.552604 -35.67072,64.075392 56.17033,90.36356 c 104.02873,15.88316 41.3867,95.03462 32.50004,134.94825 -7.96632,35.77989 84.06982,41.66804 126.64688,-100.43648 z"
     id="path28"
     style="stroke-width:1.41372" />
  <path
     fill="#f3f3f3"
     d="m 144.04446,186.73699 c -28.18256,-3.51735 -68.73799,60.65856 -30.49823,53.14181 38.23412,-7.50969 -38.23976,7.51535 0,0 18.3798,-2.7497 33.60559,-9.29382 47.23669,-24.98613 17.77332,-20.45656 44.32302,-64.64385 52.00094,-93.19539 6.46779,-24.072845 3.21764,-61.36825 -3.45089,-26.326317 -6.83817,35.962247 -37.10737,94.883357 -65.28993,91.366027 z"
     id="path30"
     style="stroke-width:1.41372" />
  <path
     fill="#999999"
     d="m -45.26707,238.06924 c 6.52433,0.11024 10.47144,1.03766 17.07776,5.71284 13.06138,5.47394 37.0677997,2.00607 48.154208,-12.71501 11.086405,-14.71968 11.451144,-35.00094 7.225531,-47.25649 -10.332895,-29.99353 -54.228969,-29.46197 -73.838709,-4.56209 -21.21572,27.80793 -5.14453,58.71189 1.3798,58.82075 z M -103.53645,99.086215 c 1.30062,4.130895 4.62287,10.157605 11.64058,11.162745 9.37015,1.34163 11.28716,5.61249 22.35095,3.39576 11.0652,-2.21529 19.45282,-11.36067 22.80758,-21.477263 3.8425,-13.997248 -1.90994,-21.225622 -10.56899,-27.677845 -8.65904,-6.452224 -27.70612,-5.758082 -39.07245,4.693561 -8.07801,7.422029 -10.32441,19.847236 -7.15767,29.903042 z"
     id="path32"
     style="stroke-width:1.41372" />
  <path
     fill="#f3f3f3"
     d="m -66.73727,108.33195 c 8.50213,-2.24498 19.74687,-13.929388 14.16409,-22.851393 -6.88766,-10.99169 -26.0747,-1.583366 -26.72359,10.655219 -0.65032,12.242834 3.54844,14.575474 12.5595,12.196174 z M -2.8978203,240.2181 c 7.25381,-1.9156 29.4775203,-11.03694 25.3028043,-43.62182 -2.112099,-16.50521 -11.038344,20.48484 -27.5675843,26.01815 -25.0412597,8.38194 -22.2279497,24.07144 2.26337,17.60367 z"
     id="path34"
     style="stroke-width:1.41372" />
</svg>
