<svg width="100mm" height="101mm" version="1.1" viewBox="0 0 100 101" xmlns="http://www.w3.org/2000/svg">
 <path d="m3.1048 85.997v-11.391h22.781v22.781h-22.781zm19.527 0v-8.1361h-16.272v16.272h16.272zm-13.018 0v-4.8817h9.7634v9.7634h-9.7634zm19.527 8.1361v-3.2544h3.2545v6.5089h-3.2545zm6.5089-1.6272v-4.8817h-6.5089v-6.5089h3.2545v3.2544h3.2544v-6.5089h3.2544v6.5089h-3.2544v3.2544h3.2544v3.2545h3.2544v3.2544h6.5089v3.2544h-6.5089v-3.2544h-3.2544v3.2544h-3.2544zm16.272 3.2545v-1.6272h6.5089v3.2544h-6.5089zm13.018 0v-1.6272h-3.2545v-3.2544h6.5089v3.2544h3.2544v-6.5089h3.2545v6.5089h3.2544v-9.7634h-9.7634v3.2544h-9.7634v3.2545h-6.5089v-3.2545h-3.2544v3.2545h-6.5089v-9.7634h3.2545v6.5089h3.2544v-3.2544h6.5089v3.2544h3.2544v-3.2544h6.5089v-3.2544h-6.5089v-3.2545h6.5089v-3.2544h3.2545v-6.5089h-3.2545v6.5089h-6.5089v-6.5089h3.2544v-3.2545h-3.2544v-3.2544h3.2544v-3.2545h3.2545v-3.2544h6.5089v3.2544h3.2545v3.2545h6.5089v-3.2545h3.2545v3.2545h3.2544v3.2544h3.2544v3.2545h3.2545v3.2544h-6.5089v6.5089h-3.2544v3.2545h3.2544v3.2544h-6.5089v3.2544h3.2545v3.2545h-3.2545v3.2544h3.2545v-3.2544h3.2544v-3.2545h6.5089v-3.2544h3.2544v9.7634h-3.2544v-3.2544h-3.2545v3.2544h-3.2544v3.2544h-22.781zm16.272-19.527v-4.8817h-9.7634v9.7634h9.7634zm-6.5089 0v-1.6272h3.2544v3.2544h-3.2544zm3.2544-9.7634v-1.6272h-3.2544v-3.2544h-6.5089v3.2544h3.2544v3.2545h6.5089zm-22.781 16.272v-1.6272h-6.5089v-3.2545h-6.5089v-3.2544h3.2545v-3.2544h-3.2545v-6.5089h9.7634v3.2545h3.2545v-3.2545h-3.2545v-13.018h-3.2544v-3.2545h-3.2544v3.2545h-3.2545v3.2544h-3.2544v-3.2544h-3.2544v-3.2545h-3.2544v-9.7634h3.2544v-3.2544h6.5089v3.2544h3.2545v6.5089h-6.5089v-3.2544h-3.2544v6.5089h9.7634v-3.2544h6.5089v-3.2544h6.5089v6.5089h-3.2544v3.2545h3.2544v6.5089h-3.2544v6.5089h3.2544v3.2545h-3.2544v6.5089h3.2544v3.2544h-3.2544v3.2545h3.2544v3.2544h-3.2544zm-3.2545-8.1361v-3.2544h-3.2544v6.5089h3.2544zm42.308 4.8817v-1.6272h3.2544v3.2545h-3.2544zm-65.089-6.5089v-1.6272h-6.5089v-3.2544h-6.5089v3.2544h-13.018v-19.527h6.5089v3.2544h-3.2544v3.2544h3.2544v-3.2544h3.2545v3.2544h3.2544v-3.2544h-3.2544v-3.2544h6.5089v-3.2545h6.5089v-3.2544h-3.2544v-3.2544h3.2544v-3.2545h-3.2544v3.2545h-3.2545v6.5089h-6.5089v3.2545h-3.2545v-3.2545h-6.5089v-3.2544h3.2544v-3.2544h3.2544v-3.2545h-3.2544v-3.2544h3.2544v3.2544h3.2545v-3.2544h3.2544v-3.2544h-3.2544v-3.2545h6.5089v6.5089h-3.2544v3.2544h-3.2544v6.5089h3.2544v-3.2544h3.2544v-3.2545h3.2545v-3.2544h3.2544v-3.2544h-3.2544v-3.2545h3.2544v3.2545h3.2544v16.272h-3.2544v3.2545h-3.2544v3.2544h3.2544v3.2544h3.2544v3.2545h3.2545v-3.2545h3.2544v3.2545h3.2544v-3.2545h6.5089v-3.2544h3.2544v6.5089h-6.5089v3.2544h-3.2544v3.2545h-3.2544v3.2544h-3.2544v3.2544h-3.2545zm3.2545-3.2544v-1.6272h3.2544v-6.5089h-3.2544v6.5089h-3.2545v3.2544h3.2545zm-16.272-4.8817v-3.2544h-3.2544v3.2544h-3.2545v3.2545h6.5089zm9.7634 1.6272v-1.6272h-3.2544v-3.2544h3.2544v-3.2545h-3.2544v-3.2544h-3.2545v9.7634h3.2545v3.2545h3.2544zm68.343-3.2544v-1.6272h-6.5089v-3.2545h-3.2544v-3.2544h-13.018v-6.5089h3.2545v3.2545h3.2544v-3.2545h-3.2544v-6.5089h6.5089v3.2544h13.018v-6.5089h3.2544v16.272h-3.2544v-6.5089h-3.2545v6.5089h-3.2544v3.2544h6.5089v3.2545h3.2544v3.2544h-3.2544zm-6.5089-11.391v-3.2545h-3.2544v6.5089h3.2544zm-58.58 1.6272v-1.6272h3.2545v3.2544h-3.2545zm29.29-3.2544v-1.6272h3.2544v-3.2544h3.2545v3.2544h3.2545v3.2545h-9.7634zm9.7634-6.5089v-1.6272h-3.2545v-3.2545h3.2545v-3.2544h-6.5089v6.5089h-3.2544v-3.2545h-6.5089v3.2545h-3.2544v-6.5089h-6.5089v-3.2544h-6.5089v3.2544h-3.2544v-6.5089h-3.2545v-6.5089h3.2545v6.5089h3.2544v-9.7634h-3.2544v-3.2544h3.2544v3.2544h3.2544v-3.2544h3.2544v-6.5089h9.7634v3.2545h-3.2544v3.2544h-6.5089v3.2544h6.5089v3.2545h3.2544v3.2544h3.2545v-9.7634h3.2544v-3.2544h-3.2544v-9.7634h6.5089v3.2544h6.5089v3.2544h3.2544v3.2545h-6.5089v-3.2545h-6.5089v3.2545h3.2544v9.7634h-3.2544v3.2544h-3.2544v9.7634h6.5089v-3.2544h-3.2544v-3.2545h3.2544v-6.5089h3.2545v3.2544h3.2545v-6.5089h-3.2545v-3.2544h3.2545v3.2544h3.2544v9.7634h-9.7633v3.2545h6.5089v3.2544h3.2544v3.2544h3.2545v3.2545h-3.2545v3.2544h-3.2544zm-19.527-13.018v-1.6272h3.2544v-3.2544h-3.2544v-3.2544h-3.2544v3.2544h-3.2545v-6.5089h-3.2544v6.5089h3.2544v6.5089h6.5089zm-3.2544-3.2544v-1.6272h3.2544v3.2544h-3.2544zm35.799 13.018v-1.6272h-3.2544v-6.5089h-3.2544v-3.2545h3.2544v3.2545h6.5089v6.5089h3.2544v-6.5089h6.5089v-3.2545h3.2544v3.2545h-3.2544v3.2544h-3.2545v3.2544h-3.2544v3.2545h-6.5089zm-78.107-9.7634v-1.6272h6.5089v3.2545h-6.5089zm0-16.272v-11.391h22.781v22.781h-22.781zm19.527 0v-8.1361h-16.272v16.272h16.272zm-13.018 0v-4.8817h9.7634v9.7634h-9.7634zm65.089 0v-11.391h22.781v22.781h-22.781zm19.527 0v-8.1361h-16.272v16.272h16.272zm-13.018 0v-4.8817h9.7634v9.7634h-9.7634zm-45.562-3.2544v-1.6272h-3.2544v-3.2544h-3.2545v-3.2544h3.2545v3.2544h6.5089v-3.2544h6.5089v3.2544h-6.5089v6.5089h-3.2544zm13.018-6.5089v-1.6272h3.2544v3.2544h-3.2544z" stroke-width="1.0848"/>
</svg>
