<svg data-name="Layer 1" version="1.1" viewBox="0 0 1480 800" xmlns="http://www.w3.org/2000/svg">
 <title>final</title>
 <g fill="#36393a">
  <path d="m249.7 602.5h-166.6a8.2 8.2 0 00-8.1 8.1v132.3a8.2 8.2 0 008.1 8.1h166.6a8.2 8.2 0 008.1-8.1v-132.3a8.2 8.2 0 00-8.1-8.1zm-.2 140.2-166.2.2-.2-99.6h166.4zm-106-117a5.8 5.8 0 11-11.5 0 5.8 5.8 0 0111.5 0zm-17 0a5.8 5.8 0 11-11.5 0 5.8 5.8 0 0111.5 0zm-17 0a5.8 5.8 0 11-11.5 0 5.8 5.8 0 0111.5 0zm-.7 81.9a2.5 2.5 0 012.5-2.5h45.5a2.5 2.5 0 110 5h-45.5a2.5 2.5 0 01-2.5-2.5zm0-40.5a2.5 2.5 0 012.5-2.5h74.3a2.5 2.5 0 110 4.9h-74.3a2.5 2.5 0 01-2.5-2.4zm0 20.1a2.5 2.5 0 012.5-2.5h74.3a2.5 2.5 0 110 5h-74.3a2.5 2.5 0 01-2.5-2.5z"/>
  <path d="m1395.8 70.9h-206.2a7.3 7.3 0 00-7.3 7.3v70.5a7.3 7.3 0 007.3 7.3h206.2a7.3 7.3 0 007.2-7.3v-70.5a7.3 7.3 0 00-7.2-7.3zm-1.1 76.8h-204.1v-68.5h204.1zm-104.5-21v-26.6a2.5 2.5 0 012.5-2.4 2.5 2.5 0 012.5 2.4v26.6a2.5 2.5 0 01-2.5 2.5 2.5 2.5 0 01-2.5-2.5zm18.5 0v-26.6a2.5 2.5 0 015 0v26.6a2.5 2.5 0 11-5 0zm18.5 0v-26.6a2.5 2.5 0 015 0v26.6a2.5 2.5 0 11-5 0zm18.5 0v-26.6a2.5 2.5 0 015 0v26.6a2.5 2.5 0 11-5 0zm-129.6 0v-26.6a2.5 2.5 0 015 0v26.6a2.5 2.5 0 11-5 0zm18.5 0v-26.6a2.5 2.5 0 012.5-2.4 2.5 2.5 0 012.5 2.4v26.6a2.5 2.5 0 01-2.5 2.5 2.5 2.5 0 01-2.5-2.5zm18.6 0v-26.6a2.5 2.5 0 014.9 0v26.6a2.5 2.5 0 11-4.9 0zm18.5 0v-26.6a2.5 2.5 0 014.9 0v26.6a2.5 2.5 0 11-4.9 0zm92.5 0v-26.6a2.5 2.5 0 015 0v26.6a2.5 2.5 0 11-5 0zm5.5 40.9a4.1 4.1 0 01-4.1 4.1h-145.8a4.1 4.1 0 110-8.2h145.8a4.1 4.1 0 014.1 4.1z"/>
  <path d="M258.5,173.8V63.7a8.7,8.7,0,0,0-8.7-8.7H83.9a8.7,8.7,0,0,0-8.7,8.7V173.8H63.6c1,7.8,6.5,13.9,13,13.9H256.1c6.6,0,12-6.1,13.1-13.9ZM85.1,64.9H248.5V173.8H85.1Z"/>
  <path d="m510.4 50.2-1.4 8.5h-3.8l2.2-8.5zm6.6 0-1.3 8.5h-3.8l2.1-8.5z"/>
  <path d="M528.8,72.8H525l-6.1-22.6h4.2L527,67.3h.2l4.5-17.1h3.5l4.6,17.1h.1l3.9-17.1H548l-6,22.6h-3.8l-4.7-16.4h-.1Z"/>
  <path d="m550.4 50.2h3.8v8.8h.1a5.3 5.3 0 015.2-3.1c3.7 0 5.8 2.4 5.8 6.2v10.7h-3.9v-9.9c0-2.3-1.1-3.7-3.4-3.7s-3.7 1.6-3.7 4v9.6h-3.9z"/>
  <path d="m567.8 68c0-2.9 2.2-4.7 6.3-4.9l4.4-.3v-1.2c0-1.7-1.2-2.7-3.1-2.7s-3.1.9-3.3 2.3h-3.6c.2-3.1 2.8-5.3 7-5.3s6.8 2.1 6.8 5.5v11.4h-3.8v-2.7a6 6 0 01-5.2 2.9c-3.2 0-5.5-2-5.5-5zm10.7-1.4v-1.2l-3.9.2c-1.8.1-2.9 1-2.9 2.3s1.1 2.2 2.8 2.2a3.7 3.7 0 004-3.5z"/>
  <path d="m590.4 52.3v3.9h3.1v3h-3.1v8.6c0 1.4.6 2 2 2h1.1v3h-2c-3.6 0-5-1.2-5-4.4v-9.2h-2.4v-3h2.4v-3.9z"/>
  <path d="m596.1 58.7 1.4-8.5h3.8l-2.2 8.5z"/>
  <path d="m609 55.9c4 0 6.5 2.1 6.6 5.3h-3.6a2.7 2.7 0 00-3-2.5c-1.8 0-2.9.8-2.9 2s.7 1.7 2.4 2l2.8.7c3.4.7 4.7 2 4.7 4.5s-2.8 5.2-6.9 5.2-6.9-2.1-7.2-5.3h3.8c.3 1.6 1.4 2.4 3.4 2.4s3.1-.7 3.1-2-.6-1.5-2.4-1.9l-2.7-.6q-4.8-1-4.8-4.8c0-3 2.7-5 6.7-5z"/>
  <path d="m629.9 52.3v3.9h3.1v3h-3.1v8.6c0 1.4.6 2 2 2h1.1v3h-2c-3.6 0-5-1.2-5-4.4v-9.2h-2.4v-3h2.4v-3.9z"/>
  <path d="m635.8 50.2h3.8v8.8h.1a5.3 5.3 0 015.2-3.1c3.7 0 5.8 2.4 5.8 6.2v10.7h-3.9v-9.9c0-2.3-1.1-3.7-3.4-3.7a3.7 3.7 0 00-3.8 4v9.6h-3.8z"/>
  <path d="m668.4 67.8c-.5 3.1-3.4 5.3-7.3 5.3s-8-3.3-8-8.6 3.1-8.6 7.8-8.6 7.7 3.2 7.7 8.3v1.2h-11.6v.3a4 4 0 004.2 4.4 3.5 3.5 0 003.6-2.3zm-11.4-4.9h7.8c-.1-2.4-1.6-4-3.8-4a4 4 0 00-4 4z"/>
  <path d="M677.9,72.8V50.2h4V72.8Z"/>
  <path d="m694.6 50.2a7.2 7.2 0 017.6 7.6c0 4.5-3.2 7.5-7.7 7.5h-4.6v7.5h-4v-22.6zm-4.7 11.9h3.7c2.9 0 4.5-1.6 4.5-4.3s-1.6-4.3-4.5-4.3h-3.7z"/>
  <path d="m712.3 59.2h-2.3v-3h2.3v-1.4c0-3.2 1.5-4.8 5.1-4.8l2.1.2v2.7h-1.3a1.9 1.9 0 00-2.1 2.1v1.3h3.3v3h-3.2v13.5h-3.9z"/>
  <path d="m720.7 64.5c0-5.4 3.2-8.6 8-8.6s8 3.2 8 8.6-3.1 8.6-8 8.6-8-3.2-8-8.6zm12.1 0c0-3.5-1.6-5.6-4.1-5.6s-4 2.1-4 5.6 1.5 5.5 4 5.5 4.1-2 4.1-5.5z"/>
  <path d="m739.2 56.2h3.8v2.9a4.1 4.1 0 014-3.2l1.2.2v3.5l-1.5-.2a3.4 3.4 0 00-3.6 3.7v9.7h-3.9z"/>
  <path d="m771.2 67.8c-.4 3.1-3.4 5.3-7.3 5.3s-7.9-3.3-7.9-8.6 3-8.6 7.8-8.6 7.6 3.2 7.6 8.3v1.2h-11.6v.3a4.1 4.1 0 004.2 4.4 3.5 3.5 0 003.6-2.3zm-11.3-4.9h7.7c-.1-2.4-1.6-4-3.8-4a3.9 3.9 0 00-3.9 4z"/>
  <path d="m780 66.8-3.4 6h-4.1l5.3-8.3-5.3-8.3h4.4l3.3 5.8h.1l3.3-5.8h4.3l-5.4 8.2 5.3 8.4h-4.3l-3.4-6z"/>
  <path d="m788.9 68c0-2.9 2.3-4.7 6.3-4.9l4.4-.3v-1.2c0-1.7-1.2-2.7-3.1-2.7a3.1 3.1 0 00-3.3 2.3h-3.6c.2-3.1 2.8-5.3 7.1-5.3s6.7 2.1 6.7 5.5v11.4h-3.7v-2.7h-.1a5.7 5.7 0 01-5.1 2.9c-3.3 0-5.6-2-5.6-5zm10.7-1.4v-1.2l-3.8.2c-1.9.1-3 1-3 2.3s1.1 2.2 2.8 2.2a3.7 3.7 0 004-3.5z"/>
  <path d="m806.6 56.2h3.7v2.9h.1a4.8 4.8 0 014.7-3.2 4.5 4.5 0 014.6 3.3h.1a5.4 5.4 0 015.2-3.3 5.2 5.2 0 015.4 5.5v11.4h-3.9v-10.4c0-2.1-1.1-3.2-3-3.2a3 3 0 00-3.1 3.3v10.3h-3.8v-10.6a2.7 2.7 0 00-3-3 3.1 3.1 0 00-3.1 3.4v10.2h-3.9z"/>
  <path d="m849.5 64.5c0 5.3-2.7 8.5-6.9 8.5a5.3 5.3 0 01-5.1-3h-.1v8.2h-3.9v-22h3.8v2.9h.1a5.5 5.5 0 015.2-3.2c4.2 0 6.9 3.3 6.9 8.6zm-4 0c0-3.3-1.6-5.4-4.1-5.4s-4 2.2-4.1 5.4 1.7 5.3 4.1 5.3 4.1-2 4.1-5.3z"/>
  <path d="m852.1 50.2h3.9v22.6h-3.9z"/>
  <path d="m873.9 67.8c-.5 3.1-3.4 5.3-7.4 5.3s-7.9-3.3-7.9-8.6 3-8.6 7.8-8.6 7.6 3.2 7.6 8.3v1.2h-11.5v.3c0 2.6 1.6 4.4 4.1 4.4a3.5 3.5 0 003.6-2.3zm-11.4-4.9h7.7c-.1-2.4-1.6-4-3.8-4a3.9 3.9 0 00-3.9 4z"/>
  <path d="m877 70.7a2.3 2.3 0 112.2 2.2 2.2 2.2 0 01-2.2-2.2z"/>
  <path d="m895.3 62.1a3.5 3.5 0 00-3.6-3.1c-2.5 0-4.1 2.1-4.1 5.5s1.6 5.4 4.1 5.4a3.4 3.4 0 003.6-3h3.7c-.3 3.8-3.2 6.2-7.4 6.2s-7.9-3.2-7.9-8.6 3.1-8.6 7.9-8.6 7.1 2.7 7.4 6.2z"/>
  <path d="m900.6 64.5c0-5.4 3.2-8.6 8-8.6s8 3.2 8 8.6-3.1 8.6-8 8.6-8-3.2-8-8.6zm12.1 0c0-3.5-1.6-5.6-4.1-5.6s-4.1 2.1-4.1 5.6 1.6 5.5 4.1 5.5 4.1-2 4.1-5.5z"/>
  <path d="m919.1 56.2h3.8v2.9a5 5 0 014.8-3.2 4.5 4.5 0 014.6 3.3h.1a5.3 5.3 0 015.1-3.3 5.1 5.1 0 015.4 5.5v11.4h-3.9v-10.4c0-2.1-1-3.2-2.9-3.2a3.1 3.1 0 00-3.2 3.3v10.3h-3.8v-10.6a2.7 2.7 0 00-2.9-3 3.2 3.2 0 00-3.2 3.4v10.2h-3.9z"/>
  <path d="m952.6 50c4.3 0 7.2 2.5 7.2 5.9s-1.2 4.1-3.4 5.4-2.6 2-2.6 3.5v.9h-3.6v-1.1c-.2-2.3.7-3.7 2.9-5s2.6-2 2.6-3.5-1.3-2.9-3.3-2.9a3.2 3.2 0 00-3.4 3.2h-3.7c.1-3.7 2.7-6.4 7.3-6.4zm-2.8 20.9a2.2 2.2 0 012.2-2.2 2.2 2.2 0 012.3 2.2 2.2 2.2 0 01-2.3 2.2 2.2 2.2 0 01-2.2-2.2z"/>
  <path d="m963 58.7 1.3-8.5h3.8l-2.1 8.5zm6.6 0 1.4-8.5h3.8l-2.2 8.5z"/>
  <path d="m87.9 529.8c-.5 3.1-3.4 5.3-7.3 5.3s-8-3.3-8-8.6 3-8.6 7.8-8.6 7.6 3.2 7.6 8.3v1.2h-11.5v.3c0 2.6 1.6 4.4 4.1 4.4a3.5 3.5 0 003.6-2.3zm-11.4-4.9h7.7a3.7 3.7 0 00-3.8-4c-2.2 0-3.7 1.6-3.9 4z"/>
  <path d="m96.7 528.8-3.5 6h-4.1l5.3-8.3-5.3-8.3h4.4l3.4 5.8 3.3-5.8h4.3l-5.3 8.2 5.2 8.4h-4.2l-3.5-6z"/>
  <path d="m105.6 530c0-2.9 2.2-4.7 6.3-4.9l4.3-.3v-1.2c0-1.7-1.1-2.7-3.1-2.7s-3 .9-3.2 2.3h-3.6c.1-3.1 2.8-5.3 7-5.3s6.8 2.1 6.8 5.5v11.4h-3.8v-2.7h-.1a5.7 5.7 0 01-5.1 2.9c-3.2 0-5.5-2-5.5-5zm10.6-1.4v-1.2l-3.8.2c-1.9.1-3 1-3 2.3s1.2 2.2 2.9 2.2a3.6 3.6 0 003.9-3.5z"/>
  <path d="m123.2 518.2h3.7v2.9h.1a4.9 4.9 0 014.7-3.2 4.6 4.6 0 014.7 3.3 5.4 5.4 0 015.2-3.3 5.1 5.1 0 015.4 5.5v11.4h-3.9v-10.4c0-2.1-1-3.2-2.9-3.2a3.1 3.1 0 00-3.2 3.3v10.3h-3.8v-10.6a2.7 2.7 0 00-2.9-3 3.2 3.2 0 00-3.2 3.4v10.2h-3.9z"/>
  <path d="m166.1 526.5c0 5.3-2.7 8.5-6.8 8.5a5.5 5.5 0 01-5.2-3h-.1v8.2h-3.9v-22h3.8v2.9h.1a5.5 5.5 0 015.2-3.2c4.2 0 6.9 3.3 6.9 8.6zm-4 0c0-3.3-1.6-5.4-4.1-5.4s-4 2.2-4 5.4 1.6 5.3 4 5.3 4.1-2 4.1-5.3z"/>
  <path d="m168.7 512.2h3.9v22.6h-3.9z"/>
  <path d="m190.5 529.8c-.5 3.1-3.4 5.3-7.3 5.3s-8-3.3-8-8.6 3-8.6 7.8-8.6 7.7 3.2 7.7 8.3v1.2h-11.6v.3a4 4 0 004.2 4.4 3.6 3.6 0 003.6-2.3zm-11.4-4.9h7.8a3.8 3.8 0 00-3.9-4c-2.1 0-3.7 1.6-3.9 4z"/>
  <path d="m193.6 532.7a2.3 2.3 0 114.5 0 2.2 2.2 0 01-2.2 2.2 2.2 2.2 0 01-2.3-2.2z"/>
  <path d="m211.9 524.1a3.4 3.4 0 00-3.6-3.1c-2.5 0-4 2.1-4 5.5s1.6 5.4 4 5.4a3.4 3.4 0 003.6-3h3.7c-.3 3.8-3.2 6.2-7.3 6.2s-8-3.2-8-8.6 3.1-8.6 7.9-8.6 7.1 2.7 7.4 6.2z"/>
  <path d="m217.2 526.5c0-5.4 3.2-8.6 8-8.6s8.1 3.2 8.1 8.6-3.2 8.6-8.1 8.6-8-3.2-8-8.6zm12.1 0c0-3.5-1.6-5.6-4.1-5.6s-4 2.1-4 5.6 1.6 5.5 4 5.5 4.1-2 4.1-5.5z"/>
  <path d="m235.8 518.2h3.7v2.9h.1a4.8 4.8 0 014.7-3.2 4.5 4.5 0 014.6 3.3h.1a5.4 5.4 0 015.2-3.3 5.2 5.2 0 015.4 5.5v11.4h-3.9v-10.4c0-2.1-1.1-3.2-3-3.2a3 3 0 00-3.1 3.3v10.3h-3.8v-10.6a2.7 2.7 0 00-3-3 3.1 3.1 0 00-3.1 3.4v10.2h-3.9z"/>
  <path d="m11.5 573.2v-22.6h4v22.6z"/>
  <path d="m28.3 550.6a7.2 7.2 0 017.5 7.6c0 4.5-3.2 7.5-7.7 7.5h-4.6v7.5h-4v-22.6zm-4.8 11.9h3.7c2.9 0 4.6-1.6 4.6-4.3s-1.7-4.3-4.6-4.3h-3.7z"/>
  <path d="m44.1 568.4c0-2.9 2.3-4.7 6.3-4.9l4.4-.3v-1.2c0-1.7-1.2-2.7-3.1-2.7s-3 .9-3.2 2.3h-3.7c.2-3.1 2.9-5.3 7.1-5.3s6.8 2.1 6.8 5.5v11.4h-3.8v-2.7h-.1a5.7 5.7 0 01-5.1 2.9c-3.2 0-5.6-2-5.6-5zm10.7-1.4v-1.2l-3.8.2c-1.9.1-3 1-3 2.3s1.2 2.2 2.8 2.2a3.7 3.7 0 004-3.5z"/>
  <path d="m61.1 564.9c0-5.3 2.7-8.6 6.9-8.6a5.7 5.7 0 015.1 3.1h.1v-8.8h3.9v22.6h-3.8v-2.9h-.1a5.5 5.5 0 01-5.2 3.1c-4.2 0-6.9-3.3-6.9-8.5zm4 0c0 3.3 1.5 5.3 4 5.3s4.1-2 4.1-5.3-1.6-5.4-4.1-5.4-4 2.1-4 5.4z"/>
  <path d="m79.7 564.9c0-5.3 2.7-8.6 6.8-8.6a5.7 5.7 0 015.2 3.1h.1v-8.8h3.8v22.6h-3.8v-2.9a5.6 5.6 0 01-5.3 3.1c-4.1 0-6.8-3.3-6.8-8.5zm3.9 0c0 3.3 1.6 5.3 4.1 5.3s4.1-2 4.1-5.3-1.6-5.4-4.1-5.4-4.1 2.1-4.1 5.4z"/>
  <path d="m98.9 556.6h3.7v2.9h.1a4 4 0 014-3.2l1.2.2v3.5l-1.6-.2c-2.2 0-3.5 1.4-3.5 3.7v9.7h-3.9z"/>
  <path d="m123.9 568.2c-.5 3.1-3.4 5.3-7.3 5.3s-8-3.3-8-8.6 3-8.6 7.8-8.6 7.6 3.2 7.6 8.3v1.2h-11.5v.3c0 2.6 1.6 4.4 4.1 4.4a3.6 3.6 0 003.7-2.3zm-11.4-4.9h7.7a3.7 3.7 0 00-3.8-4c-2.2 0-3.7 1.6-3.9 4z"/>
  <path d="m132.9 556.3c4 0 6.6 2.1 6.7 5.3h-3.6a2.8 2.8 0 00-3.1-2.5c-1.7 0-2.9.8-2.9 2s.7 1.7 2.5 2l2.7.7c3.4.7 4.8 2 4.8 4.5s-2.9 5.2-7 5.2-6.9-2.1-7.2-5.3h3.9q.5 2.4 3.3 2.4c1.9 0 3.1-.7 3.1-2s-.6-1.5-2.3-1.9l-2.8-.6c-3.2-.7-4.7-2.3-4.7-4.8s2.6-5 6.6-5z"/>
  <path d="m148.8 556.3c4 0 6.6 2.1 6.7 5.3h-3.7a2.7 2.7 0 00-3-2.5c-1.7 0-2.9.8-2.9 2s.7 1.7 2.4 2l2.8.7c3.4.7 4.8 2 4.8 4.5s-2.9 5.2-7 5.2-6.9-2.1-7.2-5.3h3.8c.3 1.6 1.5 2.4 3.4 2.4s3.1-.7 3.1-2-.6-1.5-2.3-1.9l-2.8-.6q-4.8-1.1-4.8-4.8c0-3 2.7-5 6.7-5z"/>
  <path d="m158.8 559.4a2.2 2.2 0 012.2-2.2 2.3 2.3 0 11-2.2 2.2zm0 11.7a2.3 2.3 0 112.2 2.2 2.2 2.2 0 01-2.2-2.2z"/>
  <path d="m179.1 554.5h-.1l-5.8 4v-3.7l5.9-4.2h4v22.6h-4z"/>
  <path d="m188.1 567.6h4c.6 1.8 2.1 2.7 4.2 2.7s5.2-3.3 5.2-8.5c-.9 2.2-3.2 3.6-6.2 3.6a7.1 7.1 0 01-7.4-7.4c0-4.6 3.5-7.9 8.4-7.9s9.1 3.2 9.1 11.5-3.4 12-9.2 12c-4.2 0-7.5-2.4-8.1-6zm12.7-9.6a4.5 4.5 0 00-9-.1 4.5 4.5 0 009 .1z"/>
  <path d="m216 550.2c4.6 0 7.7 2.8 7.7 6.4s-1.3 4.4-5.2 8.3l-5 4.9h10.5v3.3h-15.8v-2.8l8-7.8c2.9-2.9 3.6-4 3.6-5.7a3.5 3.5 0 00-3.8-3.5 4 4 0 00-4.2 3.9h-3.8c0-4.1 3.3-7 8-7z"/>
  <path d="m227.4 571.1a2.3 2.3 0 114.5 0 2.2 2.2 0 01-2.2 2.2 2.2 2.2 0 01-2.3-2.2z"/>
  <path d="m235 561.9c0-7.2 3.4-11.7 8.9-11.7s8.9 4.4 8.9 11.6-3.3 11.8-8.9 11.8-8.9-4.5-8.9-11.7zm13.7 0c0-5.3-1.8-8.4-4.8-8.4s-4.8 3.1-4.8 8.3 1.7 8.5 4.8 8.5 4.8-3.1 4.8-8.4z"/>
  <path d="m255.4 571.1a2.3 2.3 0 114.5 0 2.2 2.2 0 01-2.2 2.2 2.2 2.2 0 01-2.3-2.2z"/>
  <path d="m263 561.9c0-7.2 3.4-11.7 8.9-11.7s8.9 4.4 8.9 11.6-3.3 11.8-8.9 11.8-8.9-4.5-8.9-11.7zm13.7 0c0-5.3-1.8-8.4-4.8-8.4s-4.8 3.1-4.8 8.3 1.7 8.5 4.8 8.5 4.8-3.1 4.8-8.4z"/>
  <path d="m283.4 571.1a2.3 2.3 0 114.5 0 2.2 2.2 0 01-2.2 2.2 2.2 2.2 0 01-2.3-2.2z"/>
  <path d="m295.6 554.5h-.1l-5.8 4v-3.7l5.9-4.2h4v22.6h-4z"/>
  <path d="m304.5 562.1c0-7.5 3.5-12 9.2-12s7.4 2.5 8.1 6.1h-4a4 4 0 00-4.1-2.8c-3.5 0-5.3 3.3-5.3 8.6h.1a6.4 6.4 0 016.2-3.7 7.2 7.2 0 017.4 7.4c0 4.6-3.6 7.9-8.5 7.9s-9.1-3.5-9.1-11.5zm13.6 3.8a4.5 4.5 0 00-9-.1 4.5 4.5 0 004.5 4.5 4.4 4.4 0 004.5-4.4z"/>
 </g>
 <g fill="#398557">
  <path d="m585.8 140.2-1.4 8.5h-3.8l2.2-8.5zm6.6 0-1.3 8.5h-3.8l2.1-8.5z"/>
  <path d="m601.8 144.1h-.1l-5.8 4v-3.7l5.8-4.2h4v22.6h-3.9z"/>
  <path d="m610.8 157.2h4c.5 1.8 2.1 2.7 4.1 2.7 3.6 0 5.3-3.3 5.3-8.5h-.1c-.9 2.2-3.2 3.6-6.1 3.6a7.2 7.2 0 01-7.5-7.4c0-4.6 3.6-7.9 8.4-7.9s9.2 3.2 9.2 11.5-3.5 12-9.2 12c-4.2 0-7.5-2.4-8.1-6zm12.7-9.6a4.5 4.5 0 00-9-.1 4.5 4.5 0 009 .1z"/>
  <path d="m638.7 139.8c4.6 0 7.7 2.8 7.7 6.4s-1.3 4.4-5.3 8.3l-4.9 4.9h10.5v3.3h-15.8v-2.7l7.9-7.8c3-2.9 3.6-4 3.6-5.7a3.5 3.5 0 00-3.7-3.5 4.1 4.1 0 00-4.3 3.9h-3.8c0-4.2 3.4-7.1 8.1-7.1z"/>
  <path d="m650.1 160.7a2.3 2.3 0 114.5 0 2.2 2.2 0 01-2.2 2.2 2.2 2.2 0 01-2.3-2.2z"/>
  <path d="m657.7 151.5c0-7.2 3.3-11.7 8.9-11.7s8.8 4.4 8.8 11.6-3.3 11.8-8.8 11.8-8.9-4.5-8.9-11.7zm13.7 0c0-5.3-1.8-8.4-4.8-8.4s-4.8 3.1-4.8 8.3 1.7 8.5 4.8 8.5 4.8-3.1 4.8-8.4z"/>
  <path d="m678.1 160.7a2.3 2.3 0 114.5 0 2.2 2.2 0 01-2.2 2.2 2.2 2.2 0 01-2.3-2.2z"/>
  <path d="m685.7 151.5c0-7.2 3.3-11.7 8.9-11.7s8.8 4.4 8.8 11.6-3.3 11.8-8.8 11.8-8.9-4.5-8.9-11.7zm13.7 0c0-5.3-1.8-8.4-4.8-8.4s-4.8 3.1-4.8 8.3 1.7 8.5 4.8 8.5 4.8-3.1 4.8-8.4z"/>
  <path d="m706.1 160.7a2.3 2.3 0 114.5 0 2.2 2.2 0 01-2.2 2.2 2.2 2.2 0 01-2.3-2.2z"/>
  <path d="m718.3 144.1h-.1l-5.8 4v-3.7l5.9-4.2h3.9v22.6h-3.9z"/>
  <path d="m727.2 151.7c0-7.5 3.4-12 9.2-12 4.2 0 7.4 2.5 8 6.1h-4a3.8 3.8 0 00-4-2.8c-3.5 0-5.3 3.3-5.3 8.6a6.5 6.5 0 016.2-3.7 7.1 7.1 0 017.4 7.4c0 4.6-3.5 7.9-8.4 7.9s-9.1-3.5-9.1-11.5zm13.6 3.8a4.3 4.3 0 00-4.5-4.4 4.3 4.3 0 00-4.6 4.3 4.5 4.5 0 004.5 4.5 4.4 4.4 0 004.6-4.4z"/>
  <path d="m747.8 148.7 1.3-8.5h3.8l-2.1 8.5zm6.6 0 1.4-8.5h3.8l-2.2 8.5z"/>
  <path d="m775.4 140.2h3.5c-2.2 2.7-4 8.5-4 13.7s1.8 11 4 13.7h-3.5c-3.1-3.8-4.5-8.2-4.5-13.7s1.4-9.9 4.5-13.7z"/>
  <path d="m780.7 151.5c0-7.2 4.1-11.7 10.5-11.7s9.2 3.3 9.7 8.1h-3.9a5.7 5.7 0 00-5.8-4.6c-3.8 0-6.3 3.1-6.3 8.2s2.4 8.2 6.3 8.2 5.2-1.6 5.8-4.3h3.9c-.7 4.8-4.3 7.7-9.7 7.7s-10.5-4.4-10.5-11.6z"/>
  <path d="m802.9 158c0-2.9 2.3-4.7 6.3-4.9l4.4-.3v-1.2c0-1.7-1.2-2.7-3.1-2.7s-3 .9-3.3 2.3h-3.6c.2-3.1 2.8-5.3 7-5.3s6.8 2.1 6.8 5.5v11.4h-3.7v-2.7h-.1a5.9 5.9 0 01-5.2 2.9c-3.2 0-5.5-2-5.5-5zm10.7-1.4v-1.2l-3.9.2c-1.8.1-2.9 1-2.9 2.3s1.1 2.2 2.8 2.2a3.7 3.7 0 004-3.5z"/>
  <path d="m831.5 152.1a3.6 3.6 0 00-3.7-3.1c-2.4 0-4 2.1-4 5.5s1.6 5.4 4.1 5.4a3.5 3.5 0 003.6-3h3.6c-.3 3.8-3.1 6.2-7.3 6.2s-7.9-3.2-7.9-8.6 3.1-8.6 7.9-8.6 7.1 2.7 7.3 6.2z"/>
  <path d="m837.6 140.2h3.8v8.8h.1a5.3 5.3 0 015.2-3.1c3.7 0 5.8 2.4 5.8 6.2v10.7h-3.9v-9.9c0-2.3-1.1-3.7-3.4-3.7s-3.7 1.6-3.7 4v9.6h-3.9z"/>
  <path d="m870.2 157.8c-.5 3.1-3.4 5.3-7.3 5.3s-8-3.3-8-8.6 3.1-8.6 7.9-8.6 7.6 3.2 7.6 8.3v1.2h-11.6v.3a4 4 0 004.2 4.4 3.5 3.5 0 003.6-2.3zm-11.3-4.9h7.7c-.1-2.4-1.6-4-3.8-4a3.9 3.9 0 00-3.9 4z"/>
  <path d="m872.2 154.5c0-5.3 2.7-8.6 6.9-8.6a5.6 5.6 0 015.1 3.1h.1v-8.8h3.9v22.6h-3.8v-2.9h-.1a5.5 5.5 0 01-5.2 3.1c-4.2 0-6.9-3.3-6.9-8.5zm4 0c0 3.3 1.5 5.3 4.1 5.3s4-2 4-5.3-1.6-5.4-4-5.4-4.1 2.1-4.1 5.4z"/>
  <path d="m893.9 167.6h-3.5c2.3-2.7 4.1-8.5 4.1-13.7s-1.8-11-4.1-13.7h3.5c3.2 3.8 4.6 8.2 4.6 13.7s-1.4 9.9-4.6 13.7z"/>
 </g>
 <g fill="#36393a">
  <path d="m1223.2 210.2c6.8 0 10.7 4.1 10.7 11.2s-3.9 11.4-10.7 11.4h-8.2v-22.6zm-4.2 19.2h3.8c4.5 0 7-2.8 7-8s-2.5-7.8-7-7.8h-3.8z"/>
  <path d="m1237.2 232.8v-22.6h3.5l11.1 15.8h.2v-15.8h3.9v22.6h-3.5l-11.2-15.9h-.2v15.9z"/>
  <path d="m1262.8 226.5c.3 2 2.3 3.3 5.1 3.3s4.6-1.4 4.6-3.2-1.1-2.7-4.1-3.3l-2.4-.5c-4.5-.9-6.6-3-6.6-6.3s3.5-6.7 8.4-6.7 8.3 2.8 8.4 6.8h-3.9c-.2-2.1-2-3.4-4.6-3.4s-4.2 1.2-4.2 3.1 1.1 2.5 3.9 3.1l2.4.5c4.8 1 6.8 2.9 6.8 6.2s-3.4 7-8.8 7-8.7-2.5-8.9-6.6z"/>
  <path d="m1291.9 215.9c4.1 0 6.6 2.1 6.7 5.3h-3.6c-.1-1.5-1.3-2.5-3.1-2.5s-2.8.8-2.8 2 .7 1.7 2.4 2l2.8.7c3.4.7 4.7 2 4.7 4.5s-2.8 5.2-6.9 5.2-6.9-2.1-7.2-5.3h3.8c.3 1.6 1.4 2.4 3.4 2.4s3.1-.7 3.1-2-.6-1.5-2.4-1.9l-2.7-.6q-4.8-1-4.8-4.8c0-3 2.6-5 6.6-5z"/>
  <path d="m1316.1 227.8c-.5 3.1-3.4 5.3-7.3 5.3s-8-3.3-8-8.6 3-8.6 7.8-8.6 7.7 3.2 7.7 8.3v1.2h-11.6v.3a4 4 0 004.2 4.4 3.6 3.6 0 003.6-2.3zm-11.4-4.9h7.7a3.7 3.7 0 00-3.8-4c-2.2 0-3.7 1.6-3.9 4z"/>
  <path d="m1318.8 216.2h3.7v2.9h.1a3.9 3.9 0 013.9-3.2l1.3.2v3.5l-1.6-.2c-2.2 0-3.5 1.4-3.5 3.7v9.7h-3.9z"/>
  <path d="m1338.5 232.8h-4.3l-5.8-16.6h4.1l3.9 13 3.9-13h4z"/>
  <path d="m1360.3 227.8c-.5 3.1-3.4 5.3-7.4 5.3s-7.9-3.3-7.9-8.6 3-8.6 7.8-8.6 7.6 3.2 7.6 8.3v1.2h-11.6v.3a4.1 4.1 0 004.2 4.4 3.5 3.5 0 003.6-2.3zm-11.4-4.9h7.7c-.1-2.4-1.6-4-3.8-4a3.9 3.9 0 00-3.9 4z"/>
  <path d="m1362.9 216.2h3.8v2.9a4 4 0 014-3.2l1.2.2v3.5l-1.6-.2c-2.2 0-3.5 1.4-3.5 3.7v9.7h-3.9z"/>
  <path d="m111.7 209.8c4.6 0 7.7 2.8 7.7 6.4s-1.3 4.4-5.2 8.3l-5 4.9h10.5v3.3h-15.8v-2.7l7.9-7.8c3-2.9 3.6-4 3.6-5.7a3.4 3.4 0 00-3.7-3.5 4.1 4.1 0 00-4.3 3.9h-3.7c0-4.2 3.3-7.1 8-7.1z"/>
  <path d="m122.7 216.2h3.7v2.8h.1a5.3 5.3 0 015.2-3.1c3.6 0 5.7 2.3 5.7 6.2v10.7h-3.9v-10c0-2.3-1.1-3.6-3.3-3.6s-3.7 1.6-3.7 4v9.6h-3.8z"/>
  <path d="m139.8 224.5c0-5.3 2.7-8.6 6.9-8.6a5.4 5.4 0 015.1 3.1h.1v-8.8h3.9v22.6h-3.8v-2.9h-.1a5.5 5.5 0 01-5.2 3.1c-4.2 0-6.9-3.3-6.9-8.5zm4 0c0 3.3 1.6 5.3 4.1 5.3s4-2 4-5.3-1.6-5.4-4-5.4-4.1 2.1-4.1 5.4z"/>
  <path d="m169.9 224.4a4.8 4.8 0 005.2 5.2c3.4 0 5.3-2.1 5.3-5.2v-14.2h4v14.6c0 4.9-3.5 8.3-9.3 8.3s-9.2-3.4-9.2-8.3v-14.6h4z"/>
  <path d="m194.3 215.9c4.1 0 6.6 2.1 6.7 5.3h-3.6c-.1-1.5-1.3-2.5-3.1-2.5s-2.8.8-2.8 2 .7 1.7 2.4 2l2.8.7c3.4.7 4.7 2 4.7 4.5s-2.9 5.2-6.9 5.2-6.9-2.1-7.2-5.3h3.8c.3 1.6 1.4 2.4 3.4 2.4s3-.7 3-2-.5-1.5-2.3-1.9l-2.7-.6q-4.8-1-4.8-4.8c0-3 2.6-5 6.6-5z"/>
  <path d="m218.5 227.8c-.5 3.1-3.4 5.3-7.3 5.3s-8-3.3-8-8.6 3-8.6 7.8-8.6 7.7 3.2 7.7 8.3v1.2h-11.6v.3a4 4 0 004.2 4.4 3.6 3.6 0 003.6-2.3zm-11.4-4.9h7.7a3.7 3.7 0 00-3.8-4c-2.2 0-3.7 1.6-3.9 4z"/>
  <path d="m221.2 216.2h3.7v2.9h.1a3.9 3.9 0 013.9-3.2l1.3.2v3.5l-1.6-.2a3.4 3.4 0 00-3.6 3.7v9.7h-3.8z"/>
 </g>
 <line x1="292" x2="1153.6" y1="87" y2="87" fill="none" stroke="#404242" stroke-miterlimit="10" stroke-width="5px"/>
 <polygon points="1137 107.4 1133.6 103.8 1151.7 87 1133.6 70.2 1137 66.6 1159 87" fill="#404242"/>
 <line x1="1159" x2="297.4" y1="176.5" y2="176.5" fill="none" stroke="#398557" stroke-miterlimit="10" stroke-width="5px"/>
 <polygon points="314 156.1 317.4 159.7 299.3 176.5 317.4 193.3 314 196.9 292 176.5" fill="#398557"/>
 <line x1="166.4" x2="166.5" y1="257.5" y2="472.1" fill="none" stroke="#398557" stroke-miterlimit="10" stroke-width="5px"/>
 <polygon points="146 455.5 149.7 452.1 166.5 470.2 183.3 452.1 186.9 455.5 166.5 477.5" fill="#398557"/>
</svg>
