<svg data-name="Layer 1" version="1.1" viewBox="0 0 1480 800" xmlns="http://www.w3.org/2000/svg">
 <title>final</title>
 <g fill="#36393a">
  <path d="m1387.8 70.9h-206.2a7.3 7.3 0 00-7.3 7.3v70.5a7.3 7.3 0 007.3 7.3h206.2a7.3 7.3 0 007.2-7.3v-70.5a7.3 7.3 0 00-7.2-7.3zm-1.1 76.8h-204.1v-68.5h204.1zm-104.5-21v-26.6a2.5 2.5 0 012.5-2.4 2.5 2.5 0 012.5 2.4v26.6a2.5 2.5 0 01-2.5 2.5 2.5 2.5 0 01-2.5-2.5zm18.5 0v-26.6a2.5 2.5 0 015 0v26.6a2.5 2.5 0 11-5 0zm18.5 0v-26.6a2.5 2.5 0 015 0v26.6a2.5 2.5 0 11-5 0zm18.5 0v-26.6a2.5 2.5 0 015 0v26.6a2.5 2.5 0 11-5 0zm-129.6 0v-26.6a2.5 2.5 0 015 0v26.6a2.5 2.5 0 11-5 0zm18.5 0v-26.6a2.5 2.5 0 012.5-2.4 2.5 2.5 0 012.5 2.4v26.6a2.5 2.5 0 01-2.5 2.5 2.5 2.5 0 01-2.5-2.5zm18.6 0v-26.6a2.5 2.5 0 014.9 0v26.6a2.5 2.5 0 11-4.9 0zm18.5 0v-26.6a2.5 2.5 0 014.9 0v26.6a2.5 2.5 0 11-4.9 0zm92.5 0v-26.6a2.5 2.5 0 015 0v26.6a2.5 2.5 0 01-5 0zm5.5 40.9a4.1 4.1 0 01-4.1 4.1h-145.8a4.1 4.1 0 110-8.2h145.8a4.1 4.1 0 014.1 4.1z"/>
  <path d="m1208.3 226.9h-8.3l-1.9 5.9h-4.2l8-22.6h4.5l8 22.6h-4.2zm-7.4-3.1h6.4l-3.1-9.6h-.1z"/>
  <path d="m1230.6 232.8h-3.7v-2.9h-.1a5.1 5.1 0 01-5.1 3.2c-3.5 0-5.8-2.4-5.8-6.2v-10.7h3.9v9.9c0 2.4 1.1 3.7 3.3 3.7s3.6-1.6 3.6-4v-9.6h3.9z"/>
  <path d="m1238.8 212.3v3.9h3.1v3h-3.1v8.6c0 1.4.6 2 2 2h1.1v3h-2c-3.6 0-5-1.2-5-4.4v-9.2h-2.4v-3h2.4v-3.9z"/>
  <path d="m1244.7 210.2h3.8v8.8h.1a5.3 5.3 0 015.2-3.1c3.7 0 5.8 2.4 5.8 6.2v10.7h-3.9v-9.9c0-2.3-1.1-3.7-3.4-3.7a3.7 3.7 0 00-3.8 4v9.6h-3.8z"/>
  <path d="m1262 224.5c0-5.4 3.2-8.6 8-8.6s8.1 3.2 8.1 8.6-3.2 8.6-8.1 8.6-8-3.2-8-8.6zm12.1 0c0-3.5-1.6-5.6-4.1-5.6s-4 2.1-4 5.6 1.6 5.5 4 5.5 4.1-2 4.1-5.5z"/>
  <path d="m1280.6 216.2h3.7v2.9h.1a3.9 3.9 0 013.9-3.2l1.3.2v3.5l-1.6-.2a3.4 3.4 0 00-3.6 3.7v9.7h-3.8z"/>
  <path d="m1291.4 211.6a2.1 2.1 0 012.2-2.1 2.1 2.1 0 012.1 2.1 2.1 2.1 0 01-2.1 2.1 2.2 2.2 0 01-2.2-2.1zm.3 4.6h3.8v16.6h-3.8z"/>
  <path d="m1303.8 212.3v3.9h3.1v3h-3.1v8.6c0 1.4.6 2 2 2h1.1v3h-2c-3.6 0-5-1.2-5-4.4v-9.2h-2.4v-3h2.4v-3.9z"/>
  <path d="m1308.7 228c0-2.9 2.2-4.7 6.3-4.9l4.3-.3v-1.2c0-1.7-1.1-2.7-3.1-2.7s-3 .9-3.2 2.3h-3.6c.1-3.1 2.8-5.3 7-5.3s6.8 2.1 6.8 5.5v11.4h-3.8v-2.7a6 6 0 01-5.2 2.9c-3.2 0-5.5-2-5.5-5zm10.6-1.4v-1.2l-3.8.2c-1.9.1-2.9 1-2.9 2.3s1.1 2.2 2.8 2.2a3.6 3.6 0 003.9-3.5z"/>
  <path d="m1331.3 212.3v3.9h3.1v3h-3.1v8.6c0 1.4.6 2 2 2h1.1v3h-2c-3.6 0-5-1.2-5-4.4v-9.2h-2.4v-3h2.4v-3.9z"/>
  <path d="m1336.9 211.6a2.1 2.1 0 012.2-2.1 2.1 2.1 0 012.1 2.1 2.1 2.1 0 01-2.1 2.1 2.2 2.2 0 01-2.2-2.1zm.2 4.6h3.9v16.6h-3.9z"/>
  <path d="m1353 232.8h-4.2l-5.9-16.6h4.1l3.9 13h.1l3.8-13h4.1z"/>
  <path d="m1374.8 227.8c-.5 3.1-3.4 5.3-7.3 5.3s-8-3.3-8-8.6 3-8.6 7.8-8.6 7.6 3.2 7.6 8.3v1.2h-11.5v.3c0 2.6 1.6 4.4 4.1 4.4a3.6 3.6 0 003.7-2.3zm-11.4-4.9h7.7a3.7 3.7 0 00-3.8-4c-2.2 0-3.7 1.6-3.9 4z"/>
  <path d="m1202.6 254.6h3.7v2.8h.1a5.4 5.4 0 015.2-3.1c3.7 0 5.7 2.3 5.7 6.2v10.7h-3.9v-10c0-2.3-1-3.6-3.3-3.6s-3.6 1.6-3.6 4v9.6h-3.9z"/>
  <path d="m1219.8 266.4c0-2.9 2.3-4.7 6.3-4.9l4.4-.3v-1.2c0-1.7-1.2-2.7-3.1-2.7s-3 .9-3.3 2.3h-3.6c.2-3.1 2.8-5.3 7-5.3s6.8 2.1 6.8 5.5v11.4h-3.7v-2.7h-.1a6 6 0 01-5.2 2.9c-3.2 0-5.5-2-5.5-5zm10.7-1.4v-1.2l-3.9.2c-1.8.1-2.9 1-2.9 2.3s1.1 2.2 2.8 2.2a3.7 3.7 0 004-3.5z"/>
  <path d="m1237.4 254.6h3.8v2.9a5 5 0 014.8-3.2 4.5 4.5 0 014.6 3.3h.1a5.3 5.3 0 015.1-3.3 5.1 5.1 0 015.4 5.5v11.4h-3.8v-10.4c0-2.1-1.1-3.2-3-3.2a3.1 3.1 0 00-3.2 3.3v10.3h-3.8v-10.6a2.7 2.7 0 00-2.9-3 3.2 3.2 0 00-3.2 3.4v10.2h-3.9z"/>
  <path d="m1279 266.2c-.5 3.1-3.4 5.3-7.4 5.3s-7.9-3.3-7.9-8.6 3-8.6 7.8-8.6 7.6 3.2 7.6 8.3v1.2h-11.6v.3a4.1 4.1 0 004.2 4.4 3.5 3.5 0 003.6-2.3zm-11.4-4.9h7.7c-.1-2.4-1.6-4-3.8-4a3.9 3.9 0 00-3.9 4z"/>
  <path d="m1288 254.3c4 0 6.6 2.1 6.7 5.3h-3.7a2.7 2.7 0 00-3-2.5c-1.8 0-2.9.8-2.9 2s.7 1.7 2.4 2l2.8.7c3.4.7 4.7 2 4.7 4.5s-2.8 5.2-6.9 5.2-6.9-2.1-7.2-5.3h3.8c.3 1.6 1.4 2.4 3.4 2.4s3.1-.7 3.1-2-.6-1.5-2.4-1.9l-2.7-.6q-4.8-1.1-4.8-4.8c0-3 2.7-5 6.7-5z"/>
  <path d="m1312.1 266.2c-.5 3.1-3.4 5.3-7.3 5.3s-8-3.3-8-8.6 3.1-8.6 7.8-8.6 7.7 3.2 7.7 8.3v1.2h-11.6v.3a4 4 0 004.2 4.4 3.5 3.5 0 003.6-2.3zm-11.4-4.9h7.8c-.1-2.4-1.6-4-3.8-4a4 4 0 00-4 4z"/>
  <path d="m1314.8 254.6h3.7v2.9h.1a4 4 0 014-3.2l1.2.2v3.5l-1.6-.2c-2.2 0-3.5 1.4-3.5 3.7v9.7h-3.9z"/>
  <path d="m1334.5 271.2h-4.3l-5.8-16.6h4.1l3.9 13 3.9-13h4.1z"/>
  <path d="m1356.3 266.2c-.5 3.1-3.4 5.3-7.4 5.3s-7.9-3.3-7.9-8.6 3-8.6 7.8-8.6 7.6 3.2 7.6 8.3v1.2h-11.5v.3c0 2.6 1.6 4.4 4.1 4.4a3.5 3.5 0 003.6-2.3zm-11.4-4.9h7.7c-.1-2.4-1.6-4-3.8-4a3.9 3.9 0 00-3.9 4z"/>
  <path d="m1358.9 254.6h3.8v2.9a4.1 4.1 0 014-3.2l1.2.2v3.5l-1.5-.2a3.4 3.4 0 00-3.6 3.7v9.7h-3.9z"/>
  <path d="m632.8 111.9h-206.2a7.3 7.3 0 00-7.3 7.3v70.5a7.3 7.3 0 007.3 7.3h206.2a7.3 7.3 0 007.2-7.3v-70.5a7.3 7.3 0 00-7.2-7.3zm-1.1 76.8h-204.1v-68.5h204.1zm-104.5-21v-26.6a2.5 2.5 0 012.5-2.4 2.5 2.5 0 012.5 2.4v26.6a2.5 2.5 0 01-2.5 2.5 2.5 2.5 0 01-2.5-2.5zm18.5 0v-26.6a2.5 2.5 0 015 0v26.6a2.5 2.5 0 11-5 0zm18.5 0v-26.6a2.5 2.5 0 015 0v26.6a2.5 2.5 0 11-5 0zm18.5 0v-26.6a2.5 2.5 0 015 0v26.6a2.5 2.5 0 11-5 0zm-129.6 0v-26.6a2.5 2.5 0 015 0v26.6a2.5 2.5 0 01-5 0zm18.5 0v-26.6a2.5 2.5 0 012.5-2.4 2.5 2.5 0 012.5 2.4v26.6a2.5 2.5 0 01-2.5 2.5 2.5 2.5 0 01-2.5-2.5zm18.6 0v-26.6a2.5 2.5 0 014.9 0v26.6a2.5 2.5 0 11-4.9 0zm18.5 0v-26.6a2.5 2.5 0 014.9 0v26.6a2.5 2.5 0 11-4.9 0zm92.5 0v-26.6a2.5 2.5 0 015 0v26.6a2.5 2.5 0 11-5 0zm5.5 40.9a4.1 4.1 0 01-4.1 4.1h-145.8a4.1 4.1 0 110-8.2h145.8a4.1 4.1 0 014.1 4.1z"/>
  <path d="M460.2,251.2c6.8,0,10.7,4.1,10.7,11.2s-3.9,11.4-10.7,11.4H452V251.2ZM456,270.4h3.8c4.5,0,7-2.8,7-8s-2.5-7.8-7-7.8H456Z"/>
  <path d="m474.2 273.8v-22.6h3.5l11.1 15.8h.2v-15.8h3.9v22.6h-3.5l-11.2-15.9h-.2v15.9z"/>
  <path d="m499.8 267.5c.3 2 2.3 3.3 5.1 3.3s4.6-1.4 4.6-3.2-1.1-2.7-4.1-3.3l-2.4-.5c-4.5-.9-6.6-3-6.6-6.3s3.5-6.7 8.4-6.7 8.3 2.8 8.4 6.8h-3.9c-.2-2.1-2-3.4-4.6-3.4s-4.2 1.2-4.2 3.1 1.1 2.5 3.9 3.1l2.4.5c4.8 1 6.8 2.9 6.8 6.2s-3.4 7-8.8 7-8.7-2.5-8.9-6.6z"/>
  <path d="m528.9 256.9c4.1 0 6.6 2.1 6.7 5.3h-3.6c-.1-1.5-1.3-2.5-3.1-2.5s-2.8.8-2.8 2 .7 1.7 2.4 2l2.8.7c3.4.7 4.7 2 4.7 4.5s-2.8 5.2-6.9 5.2-6.9-2.1-7.2-5.3h3.8c.3 1.6 1.4 2.4 3.4 2.4s3.1-.7 3.1-2-.6-1.5-2.4-1.9l-2.7-.6q-4.8-1.1-4.8-4.8c0-3 2.6-5 6.6-5z"/>
  <path d="m553.1 268.8c-.5 3.1-3.4 5.3-7.3 5.3s-8-3.3-8-8.6 3-8.6 7.8-8.6 7.7 3.2 7.7 8.3v1.2h-11.6v.3a4 4 0 004.2 4.4 3.6 3.6 0 003.6-2.3zm-11.4-4.9h7.7a3.7 3.7 0 00-3.8-4c-2.2 0-3.7 1.6-3.9 4z"/>
  <path d="m555.8 257.2h3.7v2.9h.1a3.9 3.9 0 013.9-3.2l1.3.2v3.5l-1.6-.2c-2.2 0-3.5 1.4-3.5 3.7v9.7h-3.9z"/>
  <path d="m575.5 273.8h-4.3l-5.8-16.6h4.1l3.9 13 3.9-13h4z"/>
  <path d="m597.3 268.8c-.5 3.1-3.4 5.3-7.4 5.3s-7.9-3.3-7.9-8.6 3-8.6 7.8-8.6 7.6 3.2 7.6 8.3v1.2h-11.6v.3a4.1 4.1 0 004.2 4.4 3.5 3.5 0 003.6-2.3zm-11.4-4.9h7.7c-.1-2.4-1.6-4-3.8-4a3.9 3.9 0 00-3.9 4z"/>
  <path d="m599.9 257.2h3.8v2.9a4 4 0 014-3.2l1.2.2v3.5l-1.6-.2c-2.2 0-3.5 1.4-3.5 3.7v9.7h-3.9z"/>
  <path d="m472.6 767.9h-8.3l-1.9 5.9h-4.1l8-22.6h4.5l8 22.6h-4.2zm-7.3-3.1h6.4l-3.1-9.6h-.2z"/>
  <path d="m484.8 753.3v3.9h3.1v3h-3.1v8.6c0 1.4.6 2 2 2h1.1v3h-2c-3.6 0-5-1.2-5-4.4v-9.2h-2.3v-3h2.3v-3.9z"/>
  <path d="m495.6 753.3v3.9h3.1v3h-3.1v8.6c0 1.4.6 2 2 2h1.1v3h-2.1c-3.5 0-4.9-1.2-4.9-4.4v-9.2h-2.4v-3h2.4v-3.9z"/>
  <path d="m500.4 769c0-2.9 2.3-4.7 6.3-4.9l4.4-.3v-1.2c0-1.7-1.2-2.7-3.1-2.7s-3 .9-3.2 2.3h-3.7c.2-3.1 2.9-5.3 7.1-5.3s6.8 2.1 6.8 5.5v11.4h-3.8v-2.7h-.1a5.7 5.7 0 01-5.1 2.9c-3.2 0-5.6-2-5.6-5zm10.7-1.4v-1.2l-3.8.2c-1.9.1-3 1-3 2.3s1.2 2.2 2.8 2.2a3.7 3.7 0 004-3.5z"/>
  <path d="m529 763.1a3.4 3.4 0 00-3.6-3.1c-2.5 0-4.1 2.1-4.1 5.5s1.6 5.4 4.1 5.4a3.4 3.4 0 003.6-3h3.7c-.3 3.8-3.2 6.2-7.3 6.2s-8-3.2-8-8.6 3.1-8.6 7.9-8.6 7.1 2.7 7.4 6.2z"/>
  <path d="m545.3 757.2h4.5l-6.7 7.1 7 9.5h-4.5l-5.3-7.1-1.3 1.3v5.8h-3.9v-22.6h3.9v12.9h.1z"/>
  <path d="m565.4 768.8c-.5 3.1-3.4 5.3-7.3 5.3s-8-3.3-8-8.6 3.1-8.6 7.8-8.6 7.7 3.2 7.7 8.3v1.2h-11.6v.3a4 4 0 004.2 4.4 3.5 3.5 0 003.6-2.3zm-11.4-4.9h7.8c-.1-2.4-1.6-4-3.8-4a4 4 0 00-4 4z"/>
  <path d="m568.1 757.2h3.7v2.9h.1a4 4 0 014-3.2l1.2.2v3.5l-1.6-.2c-2.2 0-3.5 1.4-3.5 3.7v9.7h-3.9z"/>
  <path d="m73.2 394.7-1.5 8.5h-3.8l2.3-8.5zm6.5 0-1.3 8.5h-3.8l2.1-8.5z"/>
  <path d="M91.5,417.3H87.7l-6-22.6h4.2l3.9,17.1h.1l4.5-17.1H98l4.5,17.1h.2l3.9-17.1h4.2l-6.1,22.6h-3.8L96.3,401h-.1Z"/>
  <path d="m113.1 394.7h3.9v8.9h.1a5.3 5.3 0 015.2-3.2c3.6 0 5.8 2.4 5.8 6.2v10.7h-3.9v-9.9c0-2.3-1.2-3.7-3.4-3.7s-3.8 1.6-3.8 4.1v9.5h-3.9z"/>
  <path d="m130.5 412.6c0-3 2.3-4.8 6.3-5l4.4-.3v-1.1c0-1.8-1.2-2.8-3.1-2.8s-3 .9-3.2 2.3h-3.7c.2-3.1 2.9-5.3 7.1-5.3s6.8 2.2 6.8 5.5v11.4h-3.8v-2.7h-.1a5.8 5.8 0 01-5.1 3c-3.2 0-5.6-2.1-5.6-5zm10.7-1.5v-1.2l-3.8.2c-1.9.1-3 1-3 2.3s1.2 2.2 2.8 2.2a3.7 3.7 0 004-3.5z"/>
  <path d="m153.2 396.8v3.9h3.1v3h-3.1v8.6c0 1.4.6 2 2 2h1.1v3l-2.1.2c-3.5 0-4.9-1.3-4.9-4.5v-9.2h-2.4v-3h2.4v-3.9z"/>
  <path d="m158.9 403.2 1.4-8.5h3.8l-2.2 8.5z"/>
  <path d="m171.7 400.4c4 0 6.6 2.2 6.7 5.3h-3.6a2.8 2.8 0 00-3.1-2.5c-1.7 0-2.8.9-2.8 2.1s.6 1.6 2.4 2l2.7.6c3.5.7 4.8 2.1 4.8 4.5s-2.9 5.2-6.9 5.2-6.9-2-7.2-5.3h3.8c.3 1.7 1.4 2.5 3.4 2.5s3-.8 3-2-.6-1.6-2.3-2l-2.8-.6c-3.1-.7-4.7-2.3-4.7-4.7s2.6-5.1 6.6-5.1z"/>
  <path d="m192.6 396.8v3.9h3.2v3h-3.2v8.6a1.8 1.8 0 002 2h1.1v3l-2 .2c-3.5 0-5-1.3-5-4.5v-9.2h-2.3v-3h2.3v-3.9z"/>
  <path d="m198.5 394.7h3.9v8.9a5.5 5.5 0 015.3-3.2c3.6 0 5.8 2.4 5.8 6.2v10.7h-3.9v-9.9c0-2.3-1.2-3.7-3.4-3.7s-3.8 1.6-3.8 4.1v9.5h-3.9z"/>
  <path d="m231.2 412.3c-.5 3.2-3.4 5.3-7.3 5.3s-8-3.3-8-8.5 3-8.7 7.8-8.7 7.6 3.2 7.6 8.3v1.2h-11.5v.3c0 2.6 1.6 4.4 4.1 4.4a3.5 3.5 0 003.6-2.3zm-11.4-4.9h7.7c-.1-2.4-1.6-4-3.8-4a3.9 3.9 0 00-3.9 4z"/>
  <path d="m240.6 417.3v-22.6h4.1v22.6z"/>
  <path d="m257.4 394.7a7.2 7.2 0 017.6 7.6c0 4.5-3.2 7.5-7.8 7.5h-4.5v7.5h-4.1v-22.6zm-4.7 11.9h3.6c2.9 0 4.6-1.6 4.6-4.3s-1.7-4.3-4.6-4.3h-3.6z"/>
  <path d="M275,403.7h-2.2v-2.9H275v-1.5c0-3.2,1.6-4.7,5.2-4.7h2v2.8H281c-1.5,0-2.1.7-2.1,2v1.4h3.3v2.9h-3.3v13.6H275Z"/>
  <path d="m283.5 409c0-5.3 3.2-8.6 8-8.6s8 3.2 8 8.6-3.2 8.6-8 8.6-8-3.2-8-8.6zm12 0c0-3.5-1.6-5.5-4-5.5s-4.1 2-4.1 5.5 1.6 5.5 4.1 5.5 4-2 4-5.5z"/>
  <path d="m302 400.7h3.7v2.9h.1a4 4 0 014-3.2l1.2.2v3.5l-1.6-.2c-2.2 0-3.5 1.4-3.5 3.7v9.7h-3.9z"/>
  <path d="m94 450.7c-.5 3.2-3.4 5.3-7.3 5.3s-8-3.3-8-8.5 3-8.7 7.8-8.7 7.6 3.2 7.6 8.3v1.2h-11.5v.3c0 2.6 1.6 4.4 4.1 4.4a3.5 3.5 0 003.6-2.3zm-11.4-4.9h7.7c-.1-2.4-1.6-4-3.8-4a3.9 3.9 0 00-3.9 4z"/>
  <path d="m102.8 449.7-3.5 6h-4.1l5.3-8.3-5.3-8.3h4.4l3.3 5.8h.1l3.3-5.8h4.3l-5.3 8.2 5.2 8.4h-4.2l-3.5-6z"/>
  <path d="m111.7 451c0-3 2.2-4.8 6.2-5l4.4-.3v-1.1c0-1.8-1.1-2.8-3.1-2.8s-3 .9-3.2 2.3h-3.6c.1-3.1 2.8-5.3 7-5.3s6.8 2.2 6.8 5.5v11.4h-3.8v-2.7h-.1a5.8 5.8 0 01-5.1 3c-3.2 0-5.5-2.1-5.5-5zm10.6-1.5v-1.2l-3.8.2c-1.9.1-3 1-3 2.3s1.2 2.2 2.9 2.2a3.6 3.6 0 003.9-3.5z"/>
  <path d="m129.3 439.1h3.7v2.9h.1a4.9 4.9 0 014.7-3.2 4.4 4.4 0 014.6 3.3h.1a5.4 5.4 0 015.2-3.3 5.1 5.1 0 015.4 5.5v11.4h-3.9v-10.4c0-2.1-1-3.2-3-3.2a3.1 3.1 0 00-3.1 3.4v10.2h-3.8v-10.6a2.7 2.7 0 00-2.9-3 3.2 3.2 0 00-3.2 3.4v10.2h-3.9z"/>
  <path d="m172.2 447.4c0 5.3-2.7 8.6-6.8 8.6a5.5 5.5 0 01-5.2-3.1h-.1v8.2h-3.9v-22h3.8v2.9h.1a5.6 5.6 0 015.2-3.2c4.2 0 6.9 3.3 6.9 8.6zm-4 0c0-3.3-1.6-5.4-4.1-5.4s-4 2.2-4 5.4 1.6 5.4 4 5.4 4.1-2.1 4.1-5.4z"/>
  <path d="m174.8 433.1h3.9v22.6h-3.9z"/>
  <path d="m196.6 450.7c-.5 3.2-3.4 5.3-7.3 5.3s-8-3.3-8-8.5 3-8.7 7.8-8.7 7.7 3.2 7.7 8.3v1.2h-11.6v.3a4 4 0 004.2 4.4 3.6 3.6 0 003.6-2.3zm-11.4-4.9h7.7a3.7 3.7 0 00-3.8-4c-2.2 0-3.7 1.7-3.9 4z"/>
  <path d="m199.7 453.6a2.2 2.2 0 012.3-2.2 2.2 2.2 0 012.2 2.2 2.3 2.3 0 11-4.5 0z"/>
  <path d="m218 445a3.5 3.5 0 00-3.6-3.1c-2.5 0-4 2.1-4 5.5s1.5 5.5 4 5.5a3.4 3.4 0 003.6-3h3.7c-.3 3.7-3.2 6.1-7.3 6.1s-8-3.2-8-8.6 3.1-8.6 7.9-8.6 7.1 2.7 7.4 6.2z"/>
  <path d="m223.3 447.4c0-5.3 3.2-8.6 8-8.6s8.1 3.2 8.1 8.6-3.2 8.6-8.1 8.6-8-3.2-8-8.6zm12.1 0c0-3.5-1.6-5.5-4.1-5.5s-4 2-4 5.5 1.6 5.5 4 5.5 4.1-2 4.1-5.5z"/>
  <path d="m241.9 439.1h3.7v2.9h.1a4.8 4.8 0 014.7-3.2 4.5 4.5 0 014.6 3.3h.1a5.4 5.4 0 015.2-3.3 5.2 5.2 0 015.4 5.5v11.4h-3.9v-10.4c0-2.1-1.1-3.2-3-3.2a3.1 3.1 0 00-3.1 3.4v10.2h-3.8v-10.6a2.8 2.8 0 00-3-3 3.2 3.2 0 00-3.2 3.4v10.2h-3.8z"/>
  <path d="m275.3 433c4.3 0 7.2 2.4 7.2 5.9s-1.2 4-3.3 5.3-2.7 2-2.7 3.5v1h-3.6v-1.2c-.1-2.3.8-3.7 2.9-4.9s2.6-2.1 2.6-3.6-1.3-2.9-3.3-2.9a3.2 3.2 0 00-3.4 3.2h-3.7c.2-3.7 2.7-6.3 7.3-6.3zm-2.8 20.8a2.2 2.2 0 012.3-2.2 2.2 2.2 0 012.2 2.2 2.2 2.2 0 01-2.2 2.2 2.2 2.2 0 01-2.3-2.2z"/>
  <path d="m285.8 441.6 1.3-8.5h3.8l-2.2 8.5zm6.6 0 1.3-8.5h3.9l-2.3 8.5z"/>
  <path d="m771.3 337.1-1.4 8.5h-3.8l2.2-8.5zm6.6 0-1.3 8.5h-3.9l2.2-8.5z"/>
  <path d="m796.8 359.7v-9.8h-10.9v9.8h-4.1v-22.6h4.1v9.4h10.9v-9.4h4.1v22.6z"/>
  <path d="m819 354.7c-.5 3.2-3.4 5.3-7.3 5.3s-8-3.3-8-8.5 3.1-8.7 7.9-8.7 7.6 3.2 7.6 8.3v1.2h-11.6v.3a4 4 0 004.2 4.4 3.5 3.5 0 003.6-2.3zm-11.3-4.9h7.7c-.1-2.4-1.6-4-3.8-4a3.9 3.9 0 00-3.9 4z"/>
  <path d="m821.9 365.8v-3.1h1.1a2.6 2.6 0 002.9-2.2l.2-.9-5.9-16.6h4.2l3.9 13.3h.1l3.9-13.3h4.1l-6 17.2c-1.4 4.2-3.2 5.5-7 5.5z"/>
  <path d="m835.9 364.5 1.3-8.5h3.8l-2.1 8.5z"/>
  <path d="m849.7 359.7v-22.6h4v22.6z"/>
  <path d="m863.1 355c0-3 2.2-4.8 6.3-5l4.3-.3v-1.1c0-1.8-1.1-2.8-3-2.8s-3.1.9-3.3 2.3h-3.6c.1-3.1 2.8-5.3 7-5.3s6.8 2.2 6.8 5.5v11.4h-3.8v-2.7a6.1 6.1 0 01-5.2 3c-3.2 0-5.5-2.1-5.5-5zm10.6-1.5v-1.2l-3.8.2c-1.9.1-2.9 1-2.9 2.3s1.1 2.2 2.8 2.2a3.6 3.6 0 003.9-3.5z"/>
  <path d="m880.7 343.1h3.7v2.9h.1a4.9 4.9 0 014.7-3.2 4.5 4.5 0 014.7 3.3h.1a5.3 5.3 0 015.1-3.3 5.1 5.1 0 015.4 5.5v11.4h-3.9v-10.4c0-2.1-1-3.2-2.9-3.2a3.2 3.2 0 00-3.2 3.4v10.2h-3.8v-10.6a2.7 2.7 0 00-2.9-3 3.2 3.2 0 00-3.2 3.4v10.2h-3.9z"/>
  <path d="m913.4 355c0-3 2.3-4.8 6.3-5l4.4-.3v-1.1c0-1.8-1.2-2.8-3.1-2.8s-3.1.9-3.3 2.3h-3.6c.2-3.1 2.8-5.3 7-5.3s6.8 2.2 6.8 5.5v11.4h-3.7v-2.7h-.1a6.1 6.1 0 01-5.2 3c-3.2 0-5.5-2.1-5.5-5zm10.7-1.5v-1.2l-3.9.2c-1.8.1-2.9 1-2.9 2.3s1.1 2.2 2.8 2.2a3.7 3.7 0 004-3.5z"/>
  <path d="m931 343.1h3.8v2.9a5.4 5.4 0 015.2-3.2c3.7 0 5.8 2.4 5.8 6.2v10.7h-3.9v-9.9c0-2.4-1.1-3.7-3.3-3.7s-3.7 1.6-3.7 4v9.6h-3.9z"/>
  <path d="m767.4 393.4c0-3 2.2-4.8 6.3-5l4.3-.3v-1.1c0-1.8-1.1-2.8-3.1-2.8s-3 .9-3.2 2.3h-3.6c.1-3.1 2.8-5.3 7-5.3s6.8 2.2 6.8 5.5v11.4h-3.8v-2.7a6.1 6.1 0 01-5.2 3c-3.2 0-5.5-2.1-5.5-5zm10.6-1.5v-1.2l-3.8.2c-1.9.1-2.9 1-2.9 2.3s1.1 2.2 2.8 2.2a3.6 3.6 0 003.9-3.5z"/>
  <path d="m799.7 398.1h-3.8v-2.9a5.2 5.2 0 01-5.1 3.2c-3.6 0-5.9-2.3-5.9-6.2v-10.7h3.9v9.9c0 2.4 1.2 3.7 3.4 3.7s3.6-1.6 3.6-4v-9.6h3.9z"/>
  <path d="m807.8 377.6v3.9h3.2v3h-3.2v8.6a1.8 1.8 0 002 2h1.1v3l-2 .2c-3.6 0-5-1.3-5-4.5v-9.2h-2.3v-3h2.3v-3.9z"/>
  <path d="m813.7 375.5h3.9v8.9a5.4 5.4 0 015.3-3.2c3.6 0 5.8 2.4 5.8 6.2v10.7h-3.9v-9.9c0-2.3-1.2-3.7-3.4-3.7s-3.8 1.6-3.8 4.1v9.5h-3.9z"/>
  <path d="m831.1 389.8c0-5.3 3.2-8.6 8-8.6s8 3.2 8 8.6-3.1 8.6-8 8.6-8-3.2-8-8.6zm12.1 0c0-3.5-1.6-5.5-4.1-5.5s-4.1 2-4.1 5.5 1.6 5.5 4.1 5.5 4.1-2 4.1-5.5z"/>
  <path d="m849.6 381.5h3.7v2.9h.1a4 4 0 014-3.2l1.2.2v3.5l-1.6-.2c-2.2 0-3.5 1.4-3.5 3.7v9.7h-3.9z"/>
  <path d="m860.5 376.9a2.1 2.1 0 012.1-2.1 2.1 2.1 0 110 4.2 2.1 2.1 0 01-2.1-2.1zm.2 4.6h3.9v16.6h-3.9z"/>
  <path d="m872.8 377.6v3.9h3.2v3h-3.2v8.6a1.8 1.8 0 002 2h1.1v3l-2 .2c-3.6 0-5-1.3-5-4.5v-9.2h-2.3v-3h2.3v-3.9z"/>
  <path d="m877.7 393.4c0-3 2.3-4.8 6.3-5l4.4-.3v-1.1c0-1.8-1.2-2.8-3.1-2.8a3.1 3.1 0 00-3.3 2.3h-3.6c.2-3.1 2.8-5.3 7.1-5.3s6.7 2.2 6.7 5.5v11.4h-3.7v-2.7h-.1a5.8 5.8 0 01-5.1 3c-3.2 0-5.6-2.1-5.6-5zm10.7-1.5v-1.2l-3.8.2c-1.9.1-3 1-3 2.3s1.1 2.2 2.8 2.2a3.7 3.7 0 004-3.5z"/>
  <path d="m900.3 377.6v3.9h3.2v3h-3.2v8.6a1.8 1.8 0 002 2h1.1v3l-2 .2c-3.6 0-5-1.3-5-4.5v-9.2h-2.3v-3h2.3v-3.9z"/>
  <path d="m906 376.9a2.1 2.1 0 012.1-2.1 2.1 2.1 0 110 4.2 2.1 2.1 0 01-2.1-2.1zm.2 4.6h3.9v16.6h-3.9z"/>
  <path d="m922.1 398.1h-4.3l-5.9-16.6h4.2l3.8 13h.1l3.9-13h4z"/>
  <path d="m943.8 393.1c-.5 3.2-3.4 5.3-7.3 5.3s-7.9-3.3-7.9-8.5 3-8.7 7.8-8.7 7.6 3.2 7.6 8.3v1.2h-11.6v.3a4.1 4.1 0 004.2 4.4 3.5 3.5 0 003.6-2.3zm-11.3-4.9h7.7c-.1-2.4-1.6-4-3.8-4a3.9 3.9 0 00-3.9 4z"/>
  <path d="m771 419.9h3.7v2.9h.1a5.4 5.4 0 015.2-3.2c3.7 0 5.7 2.4 5.7 6.2v10.7h-3.8v-9.9c0-2.4-1.1-3.7-3.4-3.7s-3.6 1.6-3.6 4v9.6h-3.9z"/>
  <path d="m788.2 431.8c0-3 2.3-4.8 6.3-5l4.4-.3v-1.1c0-1.8-1.2-2.8-3.1-2.8s-3 .9-3.3 2.3h-3.6c.2-3.1 2.8-5.3 7-5.3s6.8 2.2 6.8 5.5v11.4h-3.7v-2.7h-.1a6 6 0 01-5.2 3c-3.2 0-5.5-2.1-5.5-5zm10.7-1.5v-1.2l-3.9.2c-1.8.1-2.9 1-2.9 2.3s1.1 2.2 2.8 2.2a3.7 3.7 0 004-3.5z"/>
  <path d="m805.8 419.9h3.8v2.9h.1a4.8 4.8 0 014.7-3.2 4.5 4.5 0 014.6 3.3h.1a5.4 5.4 0 015.1-3.3 5.2 5.2 0 015.5 5.5v11.4h-3.9v-10.4c0-2.1-1.1-3.2-3-3.2a3.2 3.2 0 00-3.2 3.4v10.2h-3.7v-10.6a2.8 2.8 0 00-3-3 3.2 3.2 0 00-3.2 3.4v10.2h-3.9z"/>
  <path d="m847.4 431.5c-.5 3.2-3.4 5.3-7.4 5.3s-7.9-3.3-7.9-8.5 3-8.7 7.8-8.7 7.6 3.2 7.6 8.3v1.2h-11.6v.3a4.1 4.1 0 004.2 4.4 3.5 3.5 0 003.6-2.3zm-11.4-4.9h7.7c-.1-2.4-1.6-4-3.8-4a3.9 3.9 0 00-3.9 4z"/>
  <path d="m856.4 419.6c4 0 6.6 2.2 6.7 5.3h-3.7a2.7 2.7 0 00-3-2.5c-1.7 0-2.9.9-2.9 2.1s.7 1.6 2.4 2l2.8.6c3.4.7 4.7 2.1 4.7 4.5s-2.8 5.2-6.9 5.2-6.9-2-7.2-5.3h3.8c.3 1.7 1.4 2.5 3.4 2.5s3.1-.8 3.1-2-.6-1.6-2.4-2l-2.7-.6c-3.2-.7-4.8-2.3-4.8-4.7s2.7-5.1 6.7-5.1z"/>
  <path d="m880.5 431.5c-.5 3.2-3.4 5.3-7.3 5.3s-8-3.3-8-8.5 3.1-8.7 7.8-8.7 7.7 3.2 7.7 8.3v1.2h-11.6v.3a4 4 0 004.2 4.4 3.5 3.5 0 003.6-2.3zm-11.4-4.9h7.8c-.1-2.4-1.6-4-3.8-4a4.1 4.1 0 00-4 4z"/>
  <path d="m883.2 419.9h3.7v2.9h.1a4 4 0 014-3.2l1.2.2v3.5l-1.6-.2c-2.2 0-3.5 1.4-3.5 3.7v9.7h-3.9z"/>
  <path d="m902.9 436.5h-4.2l-5.9-16.6h4.1l3.9 13h.1l3.8-13h4.1z"/>
  <path d="m924.7 431.5c-.5 3.2-3.4 5.3-7.3 5.3s-8-3.3-8-8.5 3-8.7 7.8-8.7 7.6 3.2 7.6 8.3v1.2h-11.5v.3c0 2.6 1.6 4.4 4.1 4.4a3.5 3.5 0 003.6-2.3zm-11.4-4.9h7.7c-.1-2.4-1.6-4-3.8-4a3.9 3.9 0 00-3.9 4z"/>
  <path d="m927.3 419.9h3.8v2.9h.1a3.9 3.9 0 013.9-3.2l1.2.2v3.5l-1.5-.2a3.4 3.4 0 00-3.6 3.7v9.7h-3.9z"/>
  <path d="m937.2 434.4a2.2 2.2 0 014.4 0 2.2 2.2 0 11-4.4 0z"/>
  <path d="m769.3 474.9v-22.6h4v22.6z"/>
  <path d="m786 452.3a7.2 7.2 0 017.6 7.6c0 4.5-3.2 7.5-7.7 7.5h-4.6v7.5h-4v-22.6zm-4.7 11.9h3.6c2.9 0 4.6-1.6 4.6-4.3s-1.6-4.3-4.5-4.3h-3.7z"/>
  <path d="m801.9 470.2c0-3 2.3-4.8 6.3-5l4.4-.3v-1.1c0-1.8-1.2-2.8-3.1-2.8a3.1 3.1 0 00-3.3 2.3h-3.6c.2-3.1 2.8-5.3 7.1-5.3s6.7 2.2 6.7 5.5v11.4h-3.7v-2.7h-.1a5.8 5.8 0 01-5.2 3c-3.2 0-5.5-2.1-5.5-5zm10.7-1.5v-1.2l-3.8.2c-1.9.1-3 1-3 2.3s1.1 2.2 2.8 2.2a3.7 3.7 0 004-3.5z"/>
  <path d="m818.9 466.6c0-5.2 2.7-8.6 6.8-8.6a5.7 5.7 0 015.2 3.1h.1v-8.8h3.9v22.6h-3.9v-2.8a5.7 5.7 0 01-5.3 3.1c-4.1 0-6.8-3.3-6.8-8.6zm4 0c0 3.3 1.5 5.4 4 5.4s4.1-2.1 4.1-5.4-1.6-5.4-4.1-5.4-4 2.1-4 5.4z"/>
  <path d="m837.4 466.6c0-5.2 2.7-8.6 6.9-8.6a5.4 5.4 0 015.1 3.1h.1v-8.8h3.9v22.6h-3.8v-2.8h-.1a5.7 5.7 0 01-5.2 3.1c-4.2 0-6.9-3.3-6.9-8.6zm4 0c0 3.3 1.6 5.4 4.1 5.4s4-2.1 4-5.4-1.6-5.4-4-5.4-4.1 2.1-4.1 5.4z"/>
  <path d="m856.7 458.3h3.7v2.9h.1a4 4 0 014-3.2l1.2.2v3.5l-1.6-.2c-2.2 0-3.5 1.4-3.5 3.7v9.7h-3.9z"/>
  <path d="m881.7 469.9c-.5 3.2-3.4 5.3-7.4 5.3s-7.9-3.3-7.9-8.5 3-8.7 7.8-8.7 7.6 3.2 7.6 8.3v1.2h-11.6v.3a4.1 4.1 0 004.2 4.4 3.5 3.5 0 003.6-2.3zm-11.4-4.9h7.7c-.1-2.4-1.6-4-3.8-4a3.9 3.9 0 00-3.9 4z"/>
  <path d="m890.7 458c4 0 6.6 2.2 6.7 5.3h-3.7a2.7 2.7 0 00-3-2.5c-1.8 0-2.9.9-2.9 2.1s.7 1.6 2.4 2l2.8.6c3.4.7 4.7 2.1 4.7 4.5s-2.8 5.2-6.9 5.2-6.9-2-7.2-5.3h3.8c.3 1.7 1.4 2.5 3.4 2.5s3.1-.8 3.1-2-.6-1.6-2.4-2l-2.7-.6c-3.2-.7-4.8-2.3-4.8-4.7s2.7-5.1 6.7-5.1z"/>
  <path d="m906.6 458c4 0 6.6 2.2 6.6 5.3h-3.6a2.7 2.7 0 00-3-2.5c-1.8 0-2.9.9-2.9 2.1s.7 1.6 2.4 2l2.8.6c3.4.7 4.7 2.1 4.7 4.5s-2.8 5.2-6.9 5.2-6.9-2-7.2-5.3h3.8c.3 1.7 1.4 2.5 3.4 2.5s3.1-.8 3.1-2-.6-1.6-2.4-2l-2.7-.6c-3.2-.7-4.8-2.3-4.8-4.7s2.7-5.1 6.7-5.1z"/>
  <path d="m922.4 453.7a2.1 2.1 0 012.1-2.1 2.1 2.1 0 110 4.2 2.1 2.1 0 01-2.1-2.1zm.2 4.6h3.9v16.6h-3.9z"/>
  <path d="m936.1 458c4 0 6.6 2.2 6.7 5.3h-3.6a2.8 2.8 0 00-3.1-2.5c-1.7 0-2.9.9-2.9 2.1s.7 1.6 2.5 2l2.7.6c3.5.7 4.8 2.1 4.8 4.5s-2.9 5.2-7 5.2-6.8-2-7.2-5.3h3.9c.3 1.7 1.4 2.5 3.3 2.5s3.1-.8 3.1-2-.6-1.6-2.3-2l-2.8-.6c-3.1-.7-4.7-2.3-4.7-4.7s2.6-5.1 6.6-5.1z"/>
  <path d="m780.4 494.6h-.1l-5.8 4v-3.7l5.9-4.2h3.9v22.6h-3.9z"/>
  <path d="m789.4 507.8h4a4 4 0 004.1 2.7c3.6 0 5.3-3.4 5.3-8.6h-.1c-.8 2.2-3.2 3.7-6.1 3.7a7.3 7.3 0 01-7.5-7.4c0-4.6 3.6-7.9 8.5-7.9s9.1 3.1 9.1 11.5-3.5 11.9-9.2 11.9c-4.2 0-7.5-2.4-8.1-5.9zm12.7-9.7a4.5 4.5 0 00-9-.1 4.5 4.5 0 009 .1z"/>
  <path d="m817.3 490.3c4.6 0 7.7 2.8 7.7 6.4s-1.3 4.5-5.2 8.3l-5 4.9h10.5v3.3h-15.8v-2.8l7.9-7.8c3-2.9 3.6-4 3.6-5.7a3.5 3.5 0 00-3.7-3.5 4.1 4.1 0 00-4.3 4h-3.8c0-4.1 3.4-7.1 8.1-7.1z"/>
  <path d="m828.7 511.2a2.2 2.2 0 012.3-2.2 2.2 2.2 0 012.2 2.2 2.3 2.3 0 11-4.5 0z"/>
  <path d="m836.3 502c0-7.2 3.4-11.7 8.9-11.7s8.8 4.5 8.8 11.7-3.3 11.7-8.8 11.7-8.9-4.5-8.9-11.7zm13.7 0c0-5.3-1.8-8.4-4.8-8.4s-4.8 3.1-4.8 8.4 1.7 8.4 4.8 8.4 4.8-3.1 4.8-8.4z"/>
  <path d="m856.7 511.2a2.2 2.2 0 012.3-2.2 2.2 2.2 0 012.2 2.2 2.3 2.3 0 11-4.5 0z"/>
  <path d="m864.3 502c0-7.2 3.4-11.7 8.9-11.7s8.8 4.5 8.8 11.7-3.3 11.7-8.8 11.7-8.9-4.5-8.9-11.7zm13.7 0c0-5.3-1.8-8.4-4.8-8.4s-4.8 3.1-4.8 8.4 1.7 8.4 4.8 8.4 4.8-3.1 4.8-8.4z"/>
  <path d="m884.7 511.2a2.2 2.2 0 012.3-2.2 2.2 2.2 0 012.2 2.2 2.3 2.3 0 11-4.5 0z"/>
  <path d="m896.9 494.6h-.1l-5.8 4v-3.7l5.9-4.2h4v22.6h-4z"/>
  <path d="m917.3 494.1h-11.8v-3.3h15.7v3.4l-9.6 19.2h-4.2z"/>
  <path d="m924.5 499.2 1.3-8.5h3.8l-2.1 8.5zm6.6 0 1.4-8.5h3.8l-2.2 8.5z"/>
  <path d="m788.5 12.2-1.4 8.5h-3.8l2.2-8.5zm6.6 0-1.3 8.5h-3.8l2.1-8.5z"/>
  <path d="M806.9,34.8h-3.8L797,12.2h4.2l3.9,17.1h.1l4.6-17.1h3.5l4.6,17.1h.1l3.9-17.1h4.2L820,34.8h-3.8l-4.6-16.4h-.1Z"/>
  <path d="m828.5 12.2h3.8v8.8h.1a5.3 5.3 0 015.2-3.1c3.7 0 5.8 2.4 5.8 6.2v10.7h-3.9v-9.9c0-2.3-1.1-3.7-3.4-3.7s-3.7 1.6-3.7 4v9.6h-3.9z"/>
  <path d="m845.9 30c0-2.9 2.2-4.7 6.3-4.9l4.3-.3v-1.2c0-1.7-1.1-2.7-3-2.7s-3.1.9-3.3 2.3h-3.6c.2-3.1 2.8-5.3 7-5.3s6.8 2.1 6.8 5.5v11.4h-3.8v-2.7a6 6 0 01-5.2 2.9c-3.2 0-5.5-2-5.5-5zm10.6-1.4v-1.2l-3.8.2c-1.9.1-2.9 1-2.9 2.3s1.1 2.2 2.8 2.2a3.6 3.6 0 003.9-3.5z"/>
  <path d="m868.5 14.3v3.9h3.1v3h-3.1v8.6c0 1.4.6 2 2 2h1.1v3h-2c-3.6 0-5-1.2-5-4.4v-9.2h-2.4v-3h2.4v-3.9z"/>
  <path d="m874.2 20.7 1.4-8.5h3.8l-2.2 8.5z"/>
  <path d="m887 17.9c4.1 0 6.6 2.1 6.7 5.3h-3.6c-.1-1.5-1.3-2.5-3.1-2.5s-2.8.8-2.8 2 .7 1.7 2.4 2l2.8.7c3.4.7 4.7 2 4.7 4.5s-2.9 5.2-6.9 5.2-6.9-2.1-7.2-5.3h3.8c.3 1.6 1.4 2.4 3.4 2.4s3-.7 3-2-.5-1.5-2.3-1.9l-2.7-.6q-4.8-1.1-4.8-4.8c0-3 2.6-5 6.6-5z"/>
  <path d="M908,14.3v3.9h3.1v3H908v8.6c0,1.4.6,2,2,2h1.1v3h-2c-3.6,0-5-1.2-5-4.4V21.2h-2.4v-3h2.4V14.3Z"/>
  <path d="m913.8 12.2h3.9v8.8h.1a5.3 5.3 0 015.2-3.1c3.7 0 5.8 2.4 5.8 6.2v10.7h-3.9v-9.9c0-2.3-1.1-3.7-3.4-3.7a3.7 3.7 0 00-3.8 4v9.6h-3.9z"/>
  <path d="m946.5 29.8c-.5 3.1-3.4 5.3-7.3 5.3s-8-3.3-8-8.6 3-8.6 7.8-8.6 7.7 3.2 7.7 8.3v1.2h-11.6v.3a4 4 0 004.2 4.4 3.5 3.5 0 003.6-2.3zm-11.4-4.9h7.8a3.8 3.8 0 00-3.9-4c-2.1 0-3.7 1.6-3.9 4z"/>
  <path d="M956,34.8V12.2h4V34.8Z"/>
  <path d="M972.7,12.2a7.2,7.2,0,0,1,7.6,7.6c0,4.5-3.2,7.5-7.7,7.5H968v7.5h-4V12.2ZM968,24.1h3.7c2.8,0,4.5-1.6,4.5-4.3s-1.6-4.3-4.5-4.3H968Z"/>
  <path d="m990.4 21.2h-2.3v-3h2.3v-1.4c0-3.2 1.5-4.8 5.1-4.8l2.1.2v2.7h-1.3a1.9 1.9 0 00-2.1 2.1v1.3h3.3v3h-3.3v13.5h-3.8z"/>
  <path d="m998.8 26.5c0-5.4 3.2-8.6 8-8.6s8 3.2 8 8.6-3.1 8.6-8 8.6-8-3.2-8-8.6zm12.1 0c0-3.5-1.6-5.6-4.1-5.6s-4 2.1-4 5.6 1.5 5.5 4 5.5 4.1-2 4.1-5.5z"/>
  <path d="m1017.3 18.2h3.8v2.9a4.1 4.1 0 014-3.2l1.2.2v3.5l-1.5-.2a3.3 3.3 0 00-3.6 3.7v9.7h-3.9z"/>
  <path d="m809.3 68.2c-.5 3.1-3.4 5.3-7.3 5.3s-8-3.3-8-8.6 3-8.6 7.8-8.6 7.7 3.2 7.7 8.3v1.2h-11.6v.3a4 4 0 004.2 4.4 3.6 3.6 0 003.6-2.3zm-11.4-4.9h7.8a3.8 3.8 0 00-3.9-4c-2.1 0-3.7 1.6-3.9 4z"/>
  <path d="m818.1 67.2-3.4 6h-4.2l5.4-8.3-5.3-8.3h4.3l3.4 5.8h.1l3.3-5.8h4.2l-5.3 8.2 5.3 8.4h-4.3l-3.4-6z"/>
  <path d="m827 68.4c0-2.9 2.2-4.7 6.3-4.9l4.4-.3v-1.2c0-1.7-1.2-2.7-3.1-2.7s-3.1.9-3.3 2.3h-3.6c.2-3.1 2.8-5.3 7-5.3s6.8 2.1 6.8 5.5v11.4h-3.7v-2.7h-.1a6 6 0 01-5.2 2.9c-3.2 0-5.5-2-5.5-5zm10.7-1.4v-1.2l-3.9.2c-1.8.1-2.9 1-2.9 2.3s1.1 2.2 2.8 2.2a3.7 3.7 0 004-3.5z"/>
  <path d="m844.6 56.6h3.8v2.9a5 5 0 014.8-3.2 4.5 4.5 0 014.6 3.3h.1a5.3 5.3 0 015.1-3.3 5.1 5.1 0 015.4 5.5v11.4h-3.9v-10.4c0-2.1-1-3.2-2.9-3.2a3.1 3.1 0 00-3.2 3.3v10.3h-3.8v-10.6a2.7 2.7 0 00-2.9-3 3.2 3.2 0 00-3.2 3.4v10.2h-3.9z"/>
  <path d="m887.5 64.9c0 5.3-2.6 8.5-6.8 8.5a5.5 5.5 0 01-5.2-3h-.1v8.2h-3.9v-22h3.8v2.9h.1a5.6 5.6 0 015.2-3.2c4.2 0 6.9 3.3 6.9 8.6zm-4 0c0-3.3-1.5-5.4-4-5.4s-4.1 2.2-4.1 5.4 1.6 5.3 4.1 5.3 4-2 4-5.3z"/>
  <path d="m890.1 50.6h3.9v22.6h-3.9z"/>
  <path d="m911.9 68.2c-.5 3.1-3.4 5.3-7.3 5.3s-8-3.3-8-8.6 3.1-8.6 7.9-8.6 7.6 3.2 7.6 8.3v1.2h-11.6v.3a4 4 0 004.2 4.4 3.5 3.5 0 003.6-2.3zm-11.4-4.9h7.8c-.1-2.4-1.6-4-3.8-4a4 4 0 00-4 4z"/>
  <path d="m915.1 71.1a2.2 2.2 0 114.4 0 2.2 2.2 0 01-4.4 0z"/>
  <path d="m933.3 62.5a3.4 3.4 0 00-3.6-3.1c-2.4 0-4 2.1-4 5.5s1.6 5.4 4.1 5.4a3.5 3.5 0 003.6-3h3.6c-.3 3.8-3.1 6.2-7.3 6.2s-8-3.2-8-8.6 3.2-8.6 8-8.6 7.1 2.7 7.3 6.2z"/>
  <path d="m938.7 64.9c0-5.4 3.1-8.6 8-8.6s8 3.2 8 8.6-3.2 8.6-8 8.6-8-3.2-8-8.6zm12 0c0-3.5-1.6-5.6-4-5.6s-4.1 2.1-4.1 5.6 1.6 5.5 4.1 5.5 4-2 4-5.5z"/>
  <path d="m957.2 56.6h3.7v2.9h.1a4.9 4.9 0 014.7-3.2 4.4 4.4 0 014.6 3.3h.1a5.4 5.4 0 015.2-3.3 5.1 5.1 0 015.4 5.5v11.4h-3.9v-10.4c0-2.1-1.1-3.2-3-3.2a3 3 0 00-3.1 3.3v10.3h-3.8v-10.6a2.7 2.7 0 00-2.9-3 3.2 3.2 0 00-3.2 3.4v10.2h-3.9z"/>
  <path d="m990.7 50.4c4.3 0 7.1 2.5 7.1 5.9a6.1 6.1 0 01-3.3 5.4c-2 1.1-2.6 2-2.6 3.5v.9h-3.7v-1.1c-.1-2.3.8-3.7 3-5s2.6-2 2.6-3.5a3 3 0 00-3.3-2.9 3.3 3.3 0 00-3.5 3.2h-3.6c.1-3.7 2.6-6.4 7.3-6.4zm-2.9 20.9a2.3 2.3 0 014.6 0 2.3 2.3 0 01-4.6 0z"/>
  <path d="m1001.1 59.1 1.3-8.5h3.8l-2.1 8.5zm6.6 0 1.4-8.5h3.8l-2.2 8.5z"/>
  <path d="m819.7 145.2-1.4 8.5h-3.8l2.2-8.5zm6.6 0-1.3 8.5h-3.8l2.1-8.5z"/>
  <path d="m835.7 149.1h-.1l-5.8 4v-3.7l5.8-4.2h4v22.6h-3.9z"/>
  <path d="m844.7 162.2h4c.5 1.8 2.1 2.7 4.1 2.7 3.6 0 5.3-3.3 5.3-8.5h-.1c-.9 2.2-3.2 3.6-6.1 3.6a7.2 7.2 0 01-7.5-7.4c0-4.6 3.6-7.9 8.5-7.9s9.1 3.2 9.1 11.5-3.5 12-9.2 12c-4.2 0-7.5-2.4-8.1-6zm12.7-9.6a4.5 4.5 0 00-9-.1 4.5 4.5 0 009 .1z"/>
  <path d="m872.6 144.8c4.6 0 7.7 2.8 7.7 6.4s-1.3 4.4-5.2 8.3l-5 4.9h10.5v3.3h-15.8v-2.7l7.9-7.8c3-2.9 3.6-4 3.6-5.7a3.5 3.5 0 00-3.7-3.5 4.1 4.1 0 00-4.3 3.9h-3.8c0-4.2 3.4-7.1 8.1-7.1z"/>
  <path d="m884 165.7a2.3 2.3 0 114.5 0 2.2 2.2 0 01-2.2 2.2 2.2 2.2 0 01-2.3-2.2z"/>
  <path d="m891.6 156.5c0-7.2 3.3-11.7 8.9-11.7s8.8 4.4 8.8 11.6-3.3 11.8-8.8 11.8-8.9-4.5-8.9-11.7zm13.7 0c0-5.3-1.8-8.4-4.8-8.4s-4.8 3.1-4.8 8.3 1.7 8.5 4.8 8.5 4.8-3.1 4.8-8.4z"/>
  <path d="m912 165.7a2.3 2.3 0 114.5 0 2.2 2.2 0 01-2.2 2.2 2.2 2.2 0 01-2.3-2.2z"/>
  <path d="m919.6 156.5c0-7.2 3.3-11.7 8.9-11.7s8.8 4.4 8.8 11.6-3.3 11.8-8.8 11.8-8.9-4.5-8.9-11.7zm13.7 0c0-5.3-1.8-8.4-4.8-8.4s-4.8 3.1-4.8 8.3 1.7 8.5 4.8 8.5 4.8-3.1 4.8-8.4z"/>
  <path d="m940 165.7a2.3 2.3 0 114.5 0 2.2 2.2 0 01-2.2 2.2 2.2 2.2 0 01-2.3-2.2z"/>
  <path d="m952.2 149.1h-.1l-5.8 4v-3.7l5.9-4.2h3.9v22.6h-3.9z"/>
  <path d="m961.1 156.7c0-7.5 3.4-12 9.2-12 4.2 0 7.4 2.5 8 6.1h-4a3.8 3.8 0 00-4-2.8c-3.5 0-5.3 3.3-5.3 8.6a6.5 6.5 0 016.2-3.7 7.1 7.1 0 017.4 7.4c0 4.6-3.5 7.9-8.4 7.9s-9.1-3.5-9.1-11.5zm13.6 3.8a4.3 4.3 0 00-4.5-4.4 4.3 4.3 0 00-4.6 4.3 4.5 4.5 0 004.5 4.5 4.4 4.4 0 004.6-4.4z"/>
  <path d="m981.7 153.7 1.3-8.5h3.8l-2.1 8.5zm6.6 0 1.4-8.5h3.8l-2.2 8.5z"/>
 </g>
 <line x1="669" x2="1132.2" y1="87" y2="87" fill="none" stroke="#404242" stroke-miterlimit="10" stroke-width="6.3111px"/>
 <polygon points="1111.2 112.8 1106.9 108.2 1129.7 87 1106.9 65.8 1111.2 61.2 1139 87" fill="#404242"/>
 <line x1="1139" x2="770.8" y1="176.5" y2="176" fill="none" stroke="#404242" stroke-miterlimit="10" stroke-width="6.3111px"/>
 <polygon points="791.8 150.2 796.1 154.9 773.3 176 796 197.2 791.7 201.8 764 176" fill="#404242"/>
 <g fill="#bf223c">
  <path d="m594.2 741h-153.1a36.3 36.3 0 01-34.5-47.7l17.5-56.2a65.8 65.8 0 0134.4-37.7h118.7a66.1 66.1 0 0133.9 37.6l17.7 56.3a36.4 36.4 0 01-34.6 47.7z"/>
  <path d="m595.6 575.6h-78.4l-78.3-.2 48.6-73.4c7.1-10.2 17.6-16.6 29.7-16.5h.9c12.2.2 23.1 6.3 30.4 17z"/>
  <path d="m597.9 579.9c0 4.7-2.1 11.6-11.3 18.3-.1 0-.1 0-.1.2l-63.4 47.3a8.4 8.4 0 01-4.6 1.5h-.8a7.6 7.6 0 01-3.5-1.4l-31.7-23-32.9-23.9h-.2v-.2c-9.8-6.7-11.8-13.7-11.8-18.6a18.9 18.9 0 014.3-11.8c7.8-9.8 23.2-15.5 39.4-18.8v18.3l36.5-.2h36.4v-18c16.5 3.3 32.1 9.2 39.7 19.1a19.9 19.9 0 014 11.2z"/>
 </g>
 <path d="m560.4 553.5v22.3c1.3 16.3-19.6 49.4-42.6 49.4s-42.7-31.6-42.7-49.1v-22.6a205.2 205.2 0 0142.6-4.7 208.2 208.2 0 0142.7 4.7z" fill="#fff"/>
 <g fill="#bf223c">
  <path d="m480.6 570.2c-3.4 1.1-5.3 3.5-5.7 6.1a14.9 14.9 0 000 3l11.9-10a34.7 34.7 0 00-6.2.9z"/>
  <path d="m480.6 570.2c-3.4 1.1-5.3 3.5-5.7 6.1a14.9 14.9 0 000 3l11.9-10a34.7 34.7 0 00-6.2.9z" opacity=".73" style="isolation:isolate"/>
  <path d="m504.5 570.8a24.3 24.3 0 00-5-1l-21.4 17.9.8.9a12 12 0 005 3.1 19 19 0 004.7 1.1h3.5s7.1-.2 11.7-3.8 5.8-9.3 5.7-12.5c0-1.5-1.7-4.5-5-5.7z"/>
  <path d="m504.5 570.8a24.3 24.3 0 00-5-1l-21.4 17.9.8.9a12 12 0 005 3.1 19 19 0 004.7 1.1h3.5s7.1-.2 11.7-3.8 5.8-9.3 5.7-12.5c0-1.5-1.7-4.5-5-5.7z" opacity=".73" style="isolation:isolate"/>
  <path d="m492.1 569.2-16.4 13.9a8.5 8.5 0 00.6 1.7l18.5-15.5z"/>
  <path d="m492.1 569.2-16.4 13.9a8.5 8.5 0 00.6 1.7l18.5-15.5z" opacity=".73" style="isolation:isolate"/>
  <path d="m530.9 570.8c-3.2 1.2-4.9 4.2-4.9 5.7a15.7 15.7 0 001 5.5l15.1-12.7c-4.4.1-8.8.6-11.2 1.5z"/>
  <path d="m530.9 570.8c-3.2 1.2-4.9 4.2-4.9 5.7a15.7 15.7 0 001 5.5l15.1-12.7c-4.4.1-8.8.6-11.2 1.5z" opacity=".73" style="isolation:isolate"/>
  <path d="m547.3 569.3-18.9 15.9 1 1.5 20.5-17.3z"/>
  <path d="m547.3 569.3-18.9 15.9 1 1.5 20.5-17.3z" opacity=".73" style="isolation:isolate"/>
  <path d="m560.6 576.3c-.4-2.6-2.4-5-5.7-6.1h-.5l-22.6 19c4 3 9.8 3.6 11.2 3.7h3.9a19 19 0 004.7-1.1 12.7 12.7 0 005-3.1c3.6-3.5 4.4-9.6 4-12.4z"/>
  <path d="m560.6 576.3c-.4-2.6-2.4-5-5.7-6.1h-.5l-22.6 19c4 3 9.8 3.6 11.2 3.7h3.9a19 19 0 004.7-1.1 12.7 12.7 0 005-3.1c3.6-3.5 4.4-9.6 4-12.4z" opacity=".73" style="isolation:isolate"/>
  <path d="m486.8 569.3-11.9 10a18.4 18.4 0 00.8 3.8l16.4-13.9z"/>
  <path d="m494.8 569.3-18.5 15.5a11.9 11.9 0 001.8 2.9l21.4-17.9z"/>
  <path d="m542.1 569.3-15.1 12.7a28.4 28.4 0 001.4 3.2l18.9-15.9z"/>
  <path d="m549.9 569.4-20.5 17.3a12.5 12.5 0 002.3 2.3.1.1 0 00.1.1l22.6-19a33.1 33.1 0 00-4.5-.7z"/>
  <path d="m472.7 571.5c1.3-.1 2.6-.5 2.5-.9s-1.4-.5-2.8-.4-2.6.5-2.5.8 1.3.6 2.8.5z"/>
  <path d="m562.9 570.2c-1.4-.1-2.6.1-2.6.5s1.2.7 2.6.8 2.7-.2 2.7-.5-1.2-.7-2.7-.8z"/>
  <path d="m539.9 567.1c-9.3.3-17.5 3.8-22.4 3.9s-10.3-3.1-22.4-3.9a119.7 119.7 0 00-27.4 1.4l.5 4.8a4.4 4.4 0 013.2 3c1 3.4.7 9.4 4.2 12.9s8.4 5.1 12.8 5.3 13.6-.3 18.9-5.3a21.7 21.7 0 004.7-6.9c1.3-2.8 2.1-5.8 3.5-6.7a4.1 4.1 0 012-.2 3.5 3.5 0 012.7.7c1.7 1.5 2.5 4.8 4 7.9a19.8 19.8 0 004.5 5.6c4.7 4.3 15.2 5.1 18.9 4.9s8.8-1.5 11.7-4.6a14.8 14.8 0 003-5.5c.9-2.8 1.2-5.8 1.8-7.9a3.8 3.8 0 013-3l.7-5a148.1 148.1 0 00-27.9-1.4zm-36.1 21.9c-4.6 3.6-11.7 3.8-11.7 3.8h-3.5a19 19 0 01-4.7-1.1 12 12 0 01-5-3.1l-.8-.9a11.9 11.9 0 01-1.8-2.9 8.5 8.5 0 01-.6-1.7 18.4 18.4 0 01-.8-3.8 14.9 14.9 0 010-3c.4-2.6 2.3-5 5.7-6.1a34.7 34.7 0 016.2-.9h8l4.7.5a24.3 24.3 0 015 1c3.3 1.2 5 4.2 5 5.7.1 3.2-1.7 9.4-5.7 12.5zm-33.9-18c-.1-.3 1.1-.7 2.5-.8s2.6.1 2.8.4-1.2.8-2.5.9-2.7-.1-2.8-.5zm93 .5c-1.4-.1-2.5-.4-2.6-.8s1.2-.6 2.6-.5 2.6.4 2.7.8-1.3.5-2.7.5zm-11.3 20.2a19 19 0 01-4.7 1.1h-3.9c-1.4-.1-7.2-.7-11.2-3.7a.1.1 0 01-.1-.1 12.5 12.5 0 01-2.3-2.3l-1-1.5a28.4 28.4 0 01-1.4-3.2 15.7 15.7 0 01-1-5.5c0-1.5 1.7-4.5 4.9-5.7s6.8-1.4 11.2-1.5h7.8a33.1 33.1 0 014.5.7h.5c3.3 1.1 5.3 3.5 5.7 6.1s-.4 8.9-4 12.3a12.7 12.7 0 01-5 3.3z"/>
 </g>
 <path d="m574.8 644.4h-114.3a5.9 5.9 0 00-6.1 5.8v83.3h126.6v-83.3a6 6 0 00-6.2-5.8z" fill="#fff"/>
 <path d="m844.2 540.2c-36.8 73.9-111.7 125.6-199 129.1" fill="none" stroke="#bf223c" stroke-miterlimit="10" stroke-width="5px"/>
 <path d="m652.8 194.9c83.7 4.7 155.5 53.6 192.7 123.6" fill="none" stroke="#bf223c" stroke-miterlimit="10" stroke-width="5px"/>
 <polygon points="667.9 216.7 671.5 213.3 654.7 195.2 674 179.8 670.9 175.9 647.4 194.7" fill="#bf223c"/>
 <path d="m183.1 381c21-103.6 110.7-182.2 219.5-186.3" fill="none" stroke="#bf223c" stroke-miterlimit="10" stroke-width="5px"/>
 <polygon points="387.2 216.2 383.6 212.7 400.7 194.9 381.7 179.2 384.9 175.3 408 194.5" fill="#bf223c"/>
 <path d="m407.5 669.5c-110.7 0-203.4-77.3-227.1-180.8" fill="none" stroke="#bf223c" stroke-miterlimit="10" stroke-width="5px"/>
</svg>
