<?xml version="1.0" encoding="UTF-8" standalone="no"?>
<svg
   id="export-svg"
   width="100%"
   style="max-width: 1239px;"
   viewBox="-50 -10 1239 1205.9998779296875"
   role="graphics-document document"
   aria-roledescription="sequence"
   version="1.1"
   sodipodi:docname="get-course-list.svg"
   inkscape:version="1.4.3 (0d15f75042, 2025-12-25)"
   xmlns:inkscape="http://www.inkscape.org/namespaces/inkscape"
   xmlns:sodipodi="http://sodipodi.sourceforge.net/DTD/sodipodi-0.dtd"
   xmlns="http://www.w3.org/2000/svg"
   xmlns:svg="http://www.w3.org/2000/svg"
   xmlns:xhtml="http://www.w3.org/1999/xhtml">
  <sodipodi:namedview
     id="namedview69"
     pagecolor="#ffffff"
     bordercolor="#666666"
     borderopacity="1.0"
     inkscape:showpageshadow="2"
     inkscape:pageopacity="0.0"
     inkscape:pagecheckerboard="0"
     inkscape:deskcolor="#d1d1d1"
     inkscape:zoom="0.34742955"
     inkscape:cx="568.46056"
     inkscape:cy="771.3794"
     inkscape:window-width="1920"
     inkscape:window-height="1040"
     inkscape:window-x="0"
     inkscape:window-y="0"
     inkscape:window-maximized="1"
     inkscape:current-layer="export-svg" />
  <xhtml:style>p {margin: 0;}</xhtml:style>
  <g
     id="g1">
    <rect
       x="989"
       y="1085"
       fill="#eaeaea"
       stroke="#666"
       width="150"
       height="65"
       name="VilniusTech_API"
       rx="6"
       ry="6"
       class="actor actor-bottom"
       data-look="neo"
       filter="url(#drop-shadow)"
       id="rect1" />
    <text
       x="1064"
       y="1117.5"
       style="text-anchor: middle; font-size: 16px; font-weight: 400;"
       dominant-baseline="central"
       alignment-baseline="central"
       class="actor actor-box"
       id="text1"><tspan
         x="1064"
         dy="0"
         id="tspan1">VilniusTech_API</tspan></text>
  </g>
  <g
     id="g3">
    <g
       class="actor actor-bottom"
       filter="url(#drop-shadow)"
       transform="translate(50, 7.142857142857143)"
       id="g2">
      <path
         d="M 789,1092.142857142857&#10;  a 25,7.142857142857143 0 0 0 50,0&#10;  a 25,7.142857142857143 0 0 0 -50,0&#10;  l 0,35.714285714285715&#10;  a 25,7.142857142857143 0 0 0 50,0&#10;  l 0,-35.714285714285715"
         id="path1" />
    </g>
    <text
       x="864"
       y="1155"
       style="text-anchor: middle; font-size: 16px; font-weight: 400;"
       dominant-baseline="central"
       alignment-baseline="central"
       class="actor actor-box"
       id="text2"><tspan
         x="864"
         dy="0"
         id="tspan2">Cache storage</tspan></text>
  </g>
  <g
     id="g4">
    <rect
       x="494"
       y="1085"
       fill="#eaeaea"
       stroke="#666"
       width="150"
       height="65"
       name="CourseProvider"
       rx="6"
       ry="6"
       class="actor actor-bottom"
       data-look="neo"
       filter="url(#drop-shadow)"
       id="rect3" />
    <text
       x="569"
       y="1117.5"
       style="text-anchor: middle; font-size: 16px; font-weight: 400;"
       dominant-baseline="central"
       alignment-baseline="central"
       class="actor actor-box"
       id="text3"><tspan
         x="569"
         dy="0"
         id="tspan3">Course provider</tspan></text>
  </g>
  <g
     id="g5">
    <rect
       x="249"
       y="1085"
       fill="#eaeaea"
       stroke="#666"
       width="150"
       height="65"
       name="Ui"
       rx="6"
       ry="6"
       class="actor actor-bottom"
       data-look="neo"
       filter="url(#drop-shadow)"
       id="rect4" />
    <text
       x="324"
       y="1117.5"
       style="text-anchor: middle; font-size: 16px; font-weight: 400;"
       dominant-baseline="central"
       alignment-baseline="central"
       class="actor actor-box"
       id="text4"><tspan
         x="324"
         dy="0"
         id="tspan4">Ui</tspan></text>
  </g>
  <g
     id="g6" />
  <g
     id="g7">
    <line
       id="actor1218"
       x1="1064"
       y1="65"
       x2="1064"
       y2="1085"
       class="actor-line 200"
       stroke-width="0.5px"
       stroke="#999"
       name="VilniusTech_API"
       data-et="life-line"
       data-id="VilniusTech_API" />
    <g
       id="root-1218"
       data-look="neo"
       data-et="participant"
       data-type="participant"
       data-id="VilniusTech_API">
      <rect
         x="989"
         y="0"
         fill="#eaeaea"
         stroke="#666"
         width="150"
         height="65"
         name="VilniusTech_API"
         rx="6"
         ry="6"
         class="actor actor-top"
         data-look="neo"
         filter="url(#drop-shadow)"
         id="rect6" />
      <text
         x="1064"
         y="32.5"
         style="text-anchor: middle; font-size: 16px; font-weight: 400;"
         dominant-baseline="central"
         alignment-baseline="central"
         class="actor actor-box"
         id="text6"><tspan
           x="1064"
           dy="0"
           id="tspan6">VilniusTech_API</tspan></text>
    </g>
  </g>
  <g
     id="g9">
    <line
       id="actor1217"
       x1="864"
       y1="75"
       x2="864"
       y2="1085"
       class="actor-line 200"
       stroke-width="0.5px"
       stroke="#999"
       name="CacheStorage"
       data-et="life-line"
       data-id="CacheStorage" />
    <g
       id="root-1217"
       data-look="neo"
       data-et="participant"
       data-type="database"
       data-id="CacheStorage">
      <g
         class="actor actor-top"
         filter="url(#drop-shadow)"
         transform="translate(50, 7.142857142857143)"
         id="g8">
        <path
           d="M 789,7.142857142857143&#10;  a 25,7.142857142857143 0 0 0 50,0&#10;  a 25,7.142857142857143 0 0 0 -50,0&#10;  l 0,35.714285714285715&#10;  a 25,7.142857142857143 0 0 0 50,0&#10;  l 0,-35.714285714285715"
           id="path7" />
      </g>
      <text
         x="864"
         y="67.5"
         style="text-anchor: middle; font-size: 16px; font-weight: 400;"
         dominant-baseline="central"
         alignment-baseline="central"
         class="actor actor-box"
         id="text8"><tspan
           x="864"
           dy="0"
           id="tspan8">Cache storage</tspan></text>
    </g>
  </g>
  <g
     id="g10">
    <line
       id="actor1216"
       x1="569"
       y1="65"
       x2="569"
       y2="1085"
       class="actor-line 200"
       stroke-width="0.5px"
       stroke="#999"
       name="CourseProvider"
       data-et="life-line"
       data-id="CourseProvider" />
    <g
       id="root-1216"
       data-look="neo"
       data-et="participant"
       data-type="participant"
       data-id="CourseProvider">
      <rect
         x="494"
         y="0"
         fill="#eaeaea"
         stroke="#666"
         width="150"
         height="65"
         name="CourseProvider"
         rx="6"
         ry="6"
         class="actor actor-top"
         data-look="neo"
         filter="url(#drop-shadow)"
         id="rect9" />
      <text
         x="569"
         y="32.5"
         style="text-anchor: middle; font-size: 16px; font-weight: 400;"
         dominant-baseline="central"
         alignment-baseline="central"
         class="actor actor-box"
         id="text9"><tspan
           x="569"
           dy="0"
           id="tspan9">Course provider</tspan></text>
    </g>
  </g>
  <g
     id="g11">
    <line
       id="actor1215"
       x1="324"
       y1="65"
       x2="324"
       y2="1085"
       class="actor-line 200"
       stroke-width="0.5px"
       stroke="#999"
       name="Ui"
       data-et="life-line"
       data-id="Ui" />
    <g
       id="root-1215"
       data-look="neo"
       data-et="participant"
       data-type="participant"
       data-id="Ui">
      <rect
         x="249"
         y="0"
         fill="#eaeaea"
         stroke="#666"
         width="150"
         height="65"
         name="Ui"
         rx="6"
         ry="6"
         class="actor actor-top"
         data-look="neo"
         filter="url(#drop-shadow)"
         id="rect10" />
      <text
         x="324"
         y="32.5"
         style="text-anchor: middle; font-size: 16px; font-weight: 400;"
         dominant-baseline="central"
         alignment-baseline="central"
         class="actor actor-box"
         id="text10"><tspan
           x="324"
           dy="0"
           id="tspan10">Ui</tspan></text>
    </g>
  </g>
  <g
     id="g12">
    <line
       id="actor1214"
       x1="75"
       y1="80"
       x2="75"
       y2="1085"
       class="actor-line 200"
       stroke-width="0.5px"
       stroke="#999"
       name="User"
       data-et="life-line"
       data-id="User" />
  </g>
  <style
     id="style12">#export-svg{font-family:arial,sans-serif;font-size:14px;fill:#000000;}@keyframes edge-animation-frame{from{stroke-dashoffset:0;}}@keyframes dash{to{stroke-dashoffset:0;}}#export-svg .edge-animation-slow{stroke-dasharray:9,5!important;stroke-dashoffset:900;animation:dash 50s linear infinite;stroke-linecap:round;}#export-svg .edge-animation-fast{stroke-dasharray:9,5!important;stroke-dashoffset:900;animation:dash 20s linear infinite;stroke-linecap:round;}#export-svg .error-icon{fill:#552222;}#export-svg .error-text{fill:#552222;stroke:#552222;}#export-svg .edge-thickness-normal{stroke-width:1px;}#export-svg .edge-thickness-thick{stroke-width:3.5px;}#export-svg .edge-pattern-solid{stroke-dasharray:0;}#export-svg .edge-thickness-invisible{stroke-width:0;fill:none;}#export-svg .edge-pattern-dashed{stroke-dasharray:3;}#export-svg .edge-pattern-dotted{stroke-dasharray:2;}#export-svg .marker{fill:#000000;stroke:#000000;}#export-svg .marker.cross{stroke:#000000;}#export-svg svg{font-family:arial,sans-serif;font-size:14px;}#export-svg p{margin:0;}#export-svg .actor{stroke:hsl(78.1578947368, 58.4615384615%, 54.5098039216%);fill:#cde498;stroke-width:1;}#export-svg rect.actor.outer-path[data-look=&quot;neo&quot;]{filter:drop-shadow( 1px 2px 2px rgba(185,185,185,0.5));}#export-svg rect.note[data-look=&quot;neo&quot;]{stroke:#6eaa49;fill:#fff5ad;filter:drop-shadow( 1px 2px 2px rgba(185,185,185,0.5));stroke-width:1;}#export-svg text.actor&gt;tspan{fill:black;stroke:none;}#export-svg .actor-line{stroke:hsl(78.1578947368, 58.4615384615%, 54.5098039216%);}#export-svg .innerArc{stroke-width:1.5;stroke-dasharray:none;}#export-svg .messageLine0{stroke-width:1;stroke-dasharray:none;stroke:#333;}#export-svg .messageLine1{stroke-width:1;stroke-dasharray:2,2;stroke:#333;}#export-svg #arrowhead path{fill:#333;stroke:#333;}#export-svg .sequenceNumber{fill:white;}#export-svg #sequencenumber{fill:#333;}#export-svg #crosshead path{fill:#333;stroke:#333;}#export-svg .messageText{fill:#333;stroke:none;}#export-svg .labelBox{stroke:#326932;fill:#cde498;filter:drop-shadow( 1px 2px 2px rgba(185,185,185,0.5));}#export-svg .labelText,#export-svg .labelText&gt;tspan{fill:black;stroke:none;}#export-svg .loopText,#export-svg .loopText&gt;tspan{fill:black;stroke:none;}#export-svg .loopLine{stroke-width:2px;stroke-dasharray:2,2;stroke:#326932;fill:#326932;}#export-svg .note{stroke:#6eaa49;fill:#fff5ad;}#export-svg .noteText,#export-svg .noteText&gt;tspan{fill:black;stroke:none;font-weight:normal;}#export-svg .activation0{fill:#f4f4f4;stroke:#666;}#export-svg .activation1{fill:#f4f4f4;stroke:#666;}#export-svg .activation2{fill:#f4f4f4;stroke:#666;}#export-svg .actorPopupMenu{position:absolute;}#export-svg .actorPopupMenuPanel{position:absolute;fill:#cde498;box-shadow:0px 8px 16px 0px rgba(0,0,0,0.2);filter:drop-shadow(3px 5px 2px rgb(0 0 0 / 0.4));}#export-svg .actor-man circle,#export-svg line{fill:#cde498;stroke-width:2px;}#export-svg g rect.rect{filter:drop-shadow( 1px 2px 2px rgba(185,185,185,0.5));stroke:#13540c;stroke-width:1;}#export-svg .node .neo-node{stroke:#13540c;}#export-svg [data-look=&quot;neo&quot;].node rect,#export-svg [data-look=&quot;neo&quot;].cluster rect,#export-svg [data-look=&quot;neo&quot;].node polygon{stroke:url(#export-svg-gradient);filter:drop-shadow( 1px 2px 2px rgba(185,185,185,0.5));}#export-svg [data-look=&quot;neo&quot;].node path{stroke:url(#export-svg-gradient);stroke-width:1;}#export-svg [data-look=&quot;neo&quot;].node .outer-path{filter:drop-shadow( 1px 2px 2px rgba(185,185,185,0.5));}#export-svg [data-look=&quot;neo&quot;].node .neo-line path{stroke:#13540c;filter:none;}#export-svg [data-look=&quot;neo&quot;].node circle{stroke:url(#export-svg-gradient);filter:drop-shadow( 1px 2px 2px rgba(185,185,185,0.5));}#export-svg [data-look=&quot;neo&quot;].node circle .state-start{fill:#000000;}#export-svg [data-look=&quot;neo&quot;].statediagram-cluster rect{fill:#cde498;stroke:url(#export-svg-gradient);stroke-width:1;}#export-svg [data-look=&quot;neo&quot;].icon-shape .icon{fill:url(#export-svg-gradient);filter:drop-shadow( 1px 2px 2px rgba(185,185,185,0.5));}#export-svg [data-look=&quot;neo&quot;].icon-shape .icon-neo path{stroke:url(#export-svg-gradient);filter:drop-shadow( 1px 2px 2px rgba(185,185,185,0.5));}#export-svg :root{--mermaid-font-family:&quot;trebuchet ms&quot;,verdana,arial,sans-serif;}</style>
  <g
     id="g13" />
  <defs
     id="defs13">
    <symbol
       id="computer"
       width="24"
       height="24">
      <path
         transform="scale(.5)"
         d="M2 2v13h20v-13h-20zm18 11h-16v-9h16v9zm-10.228 6l.466-1h3.524l.467 1h-4.457zm14.228 3h-24l2-6h2.104l-1.33 4h18.45l-1.297-4h2.073l2 6zm-5-10h-14v-7h14v7z"
         id="path13" />
    </symbol>
  </defs>
  <defs
     id="defs14">
    <symbol
       id="database"
       fill-rule="evenodd"
       clip-rule="evenodd">
      <path
         transform="scale(.5)"
         d="M12.258.001l.256.004.255.005.253.008.251.01.249.012.247.015.246.016.242.019.241.02.239.023.236.024.233.027.231.028.229.031.225.032.223.034.22.036.217.038.214.04.211.041.208.043.205.045.201.046.198.048.194.05.191.051.187.053.183.054.18.056.175.057.172.059.168.06.163.061.16.063.155.064.15.066.074.033.073.033.071.034.07.034.069.035.068.035.067.035.066.035.064.036.064.036.062.036.06.036.06.037.058.037.058.037.055.038.055.038.053.038.052.038.051.039.05.039.048.039.047.039.045.04.044.04.043.04.041.04.04.041.039.041.037.041.036.041.034.041.033.042.032.042.03.042.029.042.027.042.026.043.024.043.023.043.021.043.02.043.018.044.017.043.015.044.013.044.012.044.011.045.009.044.007.045.006.045.004.045.002.045.001.045v17l-.001.045-.002.045-.004.045-.006.045-.007.045-.009.044-.011.045-.012.044-.013.044-.015.044-.017.043-.018.044-.02.043-.021.043-.023.043-.024.043-.026.043-.027.042-.029.042-.03.042-.032.042-.033.042-.034.041-.036.041-.037.041-.039.041-.04.041-.041.04-.043.04-.044.04-.045.04-.047.039-.048.039-.05.039-.051.039-.052.038-.053.038-.055.038-.055.038-.058.037-.058.037-.06.037-.06.036-.062.036-.064.036-.064.036-.066.035-.067.035-.068.035-.069.035-.07.034-.071.034-.073.033-.074.033-.15.066-.155.064-.16.063-.163.061-.168.06-.172.059-.175.057-.18.056-.183.054-.187.053-.191.051-.194.05-.198.048-.201.046-.205.045-.208.043-.211.041-.214.04-.217.038-.22.036-.223.034-.225.032-.229.031-.231.028-.233.027-.236.024-.239.023-.241.02-.242.019-.246.016-.247.015-.249.012-.251.01-.253.008-.255.005-.256.004-.258.001-.258-.001-.256-.004-.255-.005-.253-.008-.251-.01-.249-.012-.247-.015-.245-.016-.243-.019-.241-.02-.238-.023-.236-.024-.234-.027-.231-.028-.228-.031-.226-.032-.223-.034-.22-.036-.217-.038-.214-.04-.211-.041-.208-.043-.204-.045-.201-.046-.198-.048-.195-.05-.19-.051-.187-.053-.184-.054-.179-.056-.176-.057-.172-.059-.167-.06-.164-.061-.159-.063-.155-.064-.151-.066-.074-.033-.072-.033-.072-.034-.07-.034-.069-.035-.068-.035-.067-.035-.066-.035-.064-.036-.063-.036-.062-.036-.061-.036-.06-.037-.058-.037-.057-.037-.056-.038-.055-.038-.053-.038-.052-.038-.051-.039-.049-.039-.049-.039-.046-.039-.046-.04-.044-.04-.043-.04-.041-.04-.04-.041-.039-.041-.037-.041-.036-.041-.034-.041-.033-.042-.032-.042-.03-.042-.029-.042-.027-.042-.026-.043-.024-.043-.023-.043-.021-.043-.02-.043-.018-.044-.017-.043-.015-.044-.013-.044-.012-.044-.011-.045-.009-.044-.007-.045-.006-.045-.004-.045-.002-.045-.001-.045v-17l.001-.045.002-.045.004-.045.006-.045.007-.045.009-.044.011-.045.012-.044.013-.044.015-.044.017-.043.018-.044.02-.043.021-.043.023-.043.024-.043.026-.043.027-.042.029-.042.03-.042.032-.042.033-.042.034-.041.036-.041.037-.041.039-.041.04-.041.041-.04.043-.04.044-.04.046-.04.046-.039.049-.039.049-.039.051-.039.052-.038.053-.038.055-.038.056-.038.057-.037.058-.037.06-.037.061-.036.062-.036.063-.036.064-.036.066-.035.067-.035.068-.035.069-.035.07-.034.072-.034.072-.033.074-.033.151-.066.155-.064.159-.063.164-.061.167-.06.172-.059.176-.057.179-.056.184-.054.187-.053.19-.051.195-.05.198-.048.201-.046.204-.045.208-.043.211-.041.214-.04.217-.038.22-.036.223-.034.226-.032.228-.031.231-.028.234-.027.236-.024.238-.023.241-.02.243-.019.245-.016.247-.015.249-.012.251-.01.253-.008.255-.005.256-.004.258-.001.258.001zm-9.258 20.499v.01l.001.021.003.021.004.022.005.021.006.022.007.022.009.023.01.022.011.023.012.023.013.023.015.023.016.024.017.023.018.024.019.024.021.024.022.025.023.024.024.025.052.049.056.05.061.051.066.051.07.051.075.051.079.052.084.052.088.052.092.052.097.052.102.051.105.052.11.052.114.051.119.051.123.051.127.05.131.05.135.05.139.048.144.049.147.047.152.047.155.047.16.045.163.045.167.043.171.043.176.041.178.041.183.039.187.039.19.037.194.035.197.035.202.033.204.031.209.03.212.029.216.027.219.025.222.024.226.021.23.02.233.018.236.016.24.015.243.012.246.01.249.008.253.005.256.004.259.001.26-.001.257-.004.254-.005.25-.008.247-.011.244-.012.241-.014.237-.016.233-.018.231-.021.226-.021.224-.024.22-.026.216-.027.212-.028.21-.031.205-.031.202-.034.198-.034.194-.036.191-.037.187-.039.183-.04.179-.04.175-.042.172-.043.168-.044.163-.045.16-.046.155-.046.152-.047.148-.048.143-.049.139-.049.136-.05.131-.05.126-.05.123-.051.118-.052.114-.051.11-.052.106-.052.101-.052.096-.052.092-.052.088-.053.083-.051.079-.052.074-.052.07-.051.065-.051.06-.051.056-.05.051-.05.023-.024.023-.025.021-.024.02-.024.019-.024.018-.024.017-.024.015-.023.014-.024.013-.023.012-.023.01-.023.01-.022.008-.022.006-.022.006-.022.004-.022.004-.021.001-.021.001-.021v-4.127l-.077.055-.08.053-.083.054-.085.053-.087.052-.09.052-.093.051-.095.05-.097.05-.1.049-.102.049-.105.048-.106.047-.109.047-.111.046-.114.045-.115.045-.118.044-.12.043-.122.042-.124.042-.126.041-.128.04-.13.04-.132.038-.134.038-.135.037-.138.037-.139.035-.142.035-.143.034-.144.033-.147.032-.148.031-.15.03-.151.03-.153.029-.154.027-.156.027-.158.026-.159.025-.161.024-.162.023-.163.022-.165.021-.166.02-.167.019-.169.018-.169.017-.171.016-.173.015-.173.014-.175.013-.175.012-.177.011-.178.01-.179.008-.179.008-.181.006-.182.005-.182.004-.184.003-.184.002h-.37l-.184-.002-.184-.003-.182-.004-.182-.005-.181-.006-.179-.008-.179-.008-.178-.01-.176-.011-.176-.012-.175-.013-.173-.014-.172-.015-.171-.016-.17-.017-.169-.018-.167-.019-.166-.02-.165-.021-.163-.022-.162-.023-.161-.024-.159-.025-.157-.026-.156-.027-.155-.027-.153-.029-.151-.03-.15-.03-.148-.031-.146-.032-.145-.033-.143-.034-.141-.035-.14-.035-.137-.037-.136-.037-.134-.038-.132-.038-.13-.04-.128-.04-.126-.041-.124-.042-.122-.042-.12-.044-.117-.043-.116-.045-.113-.045-.112-.046-.109-.047-.106-.047-.105-.048-.102-.049-.1-.049-.097-.05-.095-.05-.093-.052-.09-.051-.087-.052-.085-.053-.083-.054-.08-.054-.077-.054v4.127zm0-5.654v.011l.001.021.003.021.004.021.005.022.006.022.007.022.009.022.01.022.011.023.012.023.013.023.015.024.016.023.017.024.018.024.019.024.021.024.022.024.023.025.024.024.052.05.056.05.061.05.066.051.07.051.075.052.079.051.084.052.088.052.092.052.097.052.102.052.105.052.11.051.114.051.119.052.123.05.127.051.131.05.135.049.139.049.144.048.147.048.152.047.155.046.16.045.163.045.167.044.171.042.176.042.178.04.183.04.187.038.19.037.194.036.197.034.202.033.204.032.209.03.212.028.216.027.219.025.222.024.226.022.23.02.233.018.236.016.24.014.243.012.246.01.249.008.253.006.256.003.259.001.26-.001.257-.003.254-.006.25-.008.247-.01.244-.012.241-.015.237-.016.233-.018.231-.02.226-.022.224-.024.22-.025.216-.027.212-.029.21-.03.205-.032.202-.033.198-.035.194-.036.191-.037.187-.039.183-.039.179-.041.175-.042.172-.043.168-.044.163-.045.16-.045.155-.047.152-.047.148-.048.143-.048.139-.05.136-.049.131-.05.126-.051.123-.051.118-.051.114-.052.11-.052.106-.052.101-.052.096-.052.092-.052.088-.052.083-.052.079-.052.074-.051.07-.052.065-.051.06-.05.056-.051.051-.049.023-.025.023-.024.021-.025.02-.024.019-.024.018-.024.017-.024.015-.023.014-.023.013-.024.012-.022.01-.023.01-.023.008-.022.006-.022.006-.022.004-.021.004-.022.001-.021.001-.021v-4.139l-.077.054-.08.054-.083.054-.085.052-.087.053-.09.051-.093.051-.095.051-.097.05-.1.049-.102.049-.105.048-.106.047-.109.047-.111.046-.114.045-.115.044-.118.044-.12.044-.122.042-.124.042-.126.041-.128.04-.13.039-.132.039-.134.038-.135.037-.138.036-.139.036-.142.035-.143.033-.144.033-.147.033-.148.031-.15.03-.151.03-.153.028-.154.028-.156.027-.158.026-.159.025-.161.024-.162.023-.163.022-.165.021-.166.02-.167.019-.169.018-.169.017-.171.016-.173.015-.173.014-.175.013-.175.012-.177.011-.178.009-.179.009-.179.007-.181.007-.182.005-.182.004-.184.003-.184.002h-.37l-.184-.002-.184-.003-.182-.004-.182-.005-.181-.007-.179-.007-.179-.009-.178-.009-.176-.011-.176-.012-.175-.013-.173-.014-.172-.015-.171-.016-.17-.017-.169-.018-.167-.019-.166-.02-.165-.021-.163-.022-.162-.023-.161-.024-.159-.025-.157-.026-.156-.027-.155-.028-.153-.028-.151-.03-.15-.03-.148-.031-.146-.033-.145-.033-.143-.033-.141-.035-.14-.036-.137-.036-.136-.037-.134-.038-.132-.039-.13-.039-.128-.04-.126-.041-.124-.042-.122-.043-.12-.043-.117-.044-.116-.044-.113-.046-.112-.046-.109-.046-.106-.047-.105-.048-.102-.049-.1-.049-.097-.05-.095-.051-.093-.051-.09-.051-.087-.053-.085-.052-.083-.054-.08-.054-.077-.054v4.139zm0-5.666v.011l.001.02.003.022.004.021.005.022.006.021.007.022.009.023.01.022.011.023.012.023.013.023.015.023.016.024.017.024.018.023.019.024.021.025.022.024.023.024.024.025.052.05.056.05.061.05.066.051.07.051.075.052.079.051.084.052.088.052.092.052.097.052.102.052.105.051.11.052.114.051.119.051.123.051.127.05.131.05.135.05.139.049.144.048.147.048.152.047.155.046.16.045.163.045.167.043.171.043.176.042.178.04.183.04.187.038.19.037.194.036.197.034.202.033.204.032.209.03.212.028.216.027.219.025.222.024.226.021.23.02.233.018.236.017.24.014.243.012.246.01.249.008.253.006.256.003.259.001.26-.001.257-.003.254-.006.25-.008.247-.01.244-.013.241-.014.237-.016.233-.018.231-.02.226-.022.224-.024.22-.025.216-.027.212-.029.21-.03.205-.032.202-.033.198-.035.194-.036.191-.037.187-.039.183-.039.179-.041.175-.042.172-.043.168-.044.163-.045.16-.045.155-.047.152-.047.148-.048.143-.049.139-.049.136-.049.131-.051.126-.05.123-.051.118-.052.114-.051.11-.052.106-.052.101-.052.096-.052.092-.052.088-.052.083-.052.079-.052.074-.052.07-.051.065-.051.06-.051.056-.05.051-.049.023-.025.023-.025.021-.024.02-.024.019-.024.018-.024.017-.024.015-.023.014-.024.013-.023.012-.023.01-.022.01-.023.008-.022.006-.022.006-.022.004-.022.004-.021.001-.021.001-.021v-4.153l-.077.054-.08.054-.083.053-.085.053-.087.053-.09.051-.093.051-.095.051-.097.05-.1.049-.102.048-.105.048-.106.048-.109.046-.111.046-.114.046-.115.044-.118.044-.12.043-.122.043-.124.042-.126.041-.128.04-.13.039-.132.039-.134.038-.135.037-.138.036-.139.036-.142.034-.143.034-.144.033-.147.032-.148.032-.15.03-.151.03-.153.028-.154.028-.156.027-.158.026-.159.024-.161.024-.162.023-.163.023-.165.021-.166.02-.167.019-.169.018-.169.017-.171.016-.173.015-.173.014-.175.013-.175.012-.177.01-.178.01-.179.009-.179.007-.181.006-.182.006-.182.004-.184.003-.184.001-.185.001-.185-.001-.184-.001-.184-.003-.182-.004-.182-.006-.181-.006-.179-.007-.179-.009-.178-.01-.176-.01-.176-.012-.175-.013-.173-.014-.172-.015-.171-.016-.17-.017-.169-.018-.167-.019-.166-.02-.165-.021-.163-.023-.162-.023-.161-.024-.159-.024-.157-.026-.156-.027-.155-.028-.153-.028-.151-.03-.15-.03-.148-.032-.146-.032-.145-.033-.143-.034-.141-.034-.14-.036-.137-.036-.136-.037-.134-.038-.132-.039-.13-.039-.128-.041-.126-.041-.124-.041-.122-.043-.12-.043-.117-.044-.116-.044-.113-.046-.112-.046-.109-.046-.106-.048-.105-.048-.102-.048-.1-.05-.097-.049-.095-.051-.093-.051-.09-.052-.087-.052-.085-.053-.083-.053-.08-.054-.077-.054v4.153zm8.74-8.179l-.257.004-.254.005-.25.008-.247.011-.244.012-.241.014-.237.016-.233.018-.231.021-.226.022-.224.023-.22.026-.216.027-.212.028-.21.031-.205.032-.202.033-.198.034-.194.036-.191.038-.187.038-.183.04-.179.041-.175.042-.172.043-.168.043-.163.045-.16.046-.155.046-.152.048-.148.048-.143.048-.139.049-.136.05-.131.05-.126.051-.123.051-.118.051-.114.052-.11.052-.106.052-.101.052-.096.052-.092.052-.088.052-.083.052-.079.052-.074.051-.07.052-.065.051-.06.05-.056.05-.051.05-.023.025-.023.024-.021.024-.02.025-.019.024-.018.024-.017.023-.015.024-.014.023-.013.023-.012.023-.01.023-.01.022-.008.022-.006.023-.006.021-.004.022-.004.021-.001.021-.001.021.001.021.001.021.004.021.004.022.006.021.006.023.008.022.01.022.01.023.012.023.013.023.014.023.015.024.017.023.018.024.019.024.02.025.021.024.023.024.023.025.051.05.056.05.06.05.065.051.07.052.074.051.079.052.083.052.088.052.092.052.096.052.101.052.106.052.11.052.114.052.118.051.123.051.126.051.131.05.136.05.139.049.143.048.148.048.152.048.155.046.16.046.163.045.168.043.172.043.175.042.179.041.183.04.187.038.191.038.194.036.198.034.202.033.205.032.21.031.212.028.216.027.22.026.224.023.226.022.231.021.233.018.237.016.241.014.244.012.247.011.25.008.254.005.257.004.26.001.26-.001.257-.004.254-.005.25-.008.247-.011.244-.012.241-.014.237-.016.233-.018.231-.021.226-.022.224-.023.22-.026.216-.027.212-.028.21-.031.205-.032.202-.033.198-.034.194-.036.191-.038.187-.038.183-.04.179-.041.175-.042.172-.043.168-.043.163-.045.16-.046.155-.046.152-.048.148-.048.143-.048.139-.049.136-.05.131-.05.126-.051.123-.051.118-.051.114-.052.11-.052.106-.052.101-.052.096-.052.092-.052.088-.052.083-.052.079-.052.074-.051.07-.052.065-.051.06-.05.056-.05.051-.05.023-.025.023-.024.021-.024.02-.025.019-.024.018-.024.017-.023.015-.024.014-.023.013-.023.012-.023.01-.023.01-.022.008-.022.006-.023.006-.021.004-.022.004-.021.001-.021.001-.021-.001-.021-.001-.021-.004-.021-.004-.022-.006-.021-.006-.023-.008-.022-.01-.022-.01-.023-.012-.023-.013-.023-.014-.023-.015-.024-.017-.023-.018-.024-.019-.024-.02-.025-.021-.024-.023-.024-.023-.025-.051-.05-.056-.05-.06-.05-.065-.051-.07-.052-.074-.051-.079-.052-.083-.052-.088-.052-.092-.052-.096-.052-.101-.052-.106-.052-.11-.052-.114-.052-.118-.051-.123-.051-.126-.051-.131-.05-.136-.05-.139-.049-.143-.048-.148-.048-.152-.048-.155-.046-.16-.046-.163-.045-.168-.043-.172-.043-.175-.042-.179-.041-.183-.04-.187-.038-.191-.038-.194-.036-.198-.034-.202-.033-.205-.032-.21-.031-.212-.028-.216-.027-.22-.026-.224-.023-.226-.022-.231-.021-.233-.018-.237-.016-.241-.014-.244-.012-.247-.011-.25-.008-.254-.005-.257-.004-.26-.001-.26.001z"
         id="path14" />
    </symbol>
  </defs>
  <defs
     id="defs15">
    <symbol
       id="clock"
       width="24"
       height="24">
      <path
         transform="scale(.5)"
         d="M12 2c5.514 0 10 4.486 10 10s-4.486 10-10 10-10-4.486-10-10 4.486-10 10-10zm0-2c-6.627 0-12 5.373-12 12s5.373 12 12 12 12-5.373 12-12-5.373-12-12-12zm5.848 12.459c.202.038.202.333.001.372-1.907.361-6.045 1.111-6.547 1.111-.719 0-1.301-.582-1.301-1.301 0-.512.77-5.447 1.125-7.445.034-.192.312-.181.343.014l.985 6.238 5.394 1.011z"
         id="path15" />
    </symbol>
  </defs>
  <defs
     id="defs16">
    <marker
       id="arrowhead"
       refX="7.9"
       refY="5"
       markerUnits="userSpaceOnUse"
       markerWidth="12"
       markerHeight="12"
       orient="auto-start-reverse">
      <path
         d="M -1 0 L 10 5 L 0 10 z"
         id="path16" />
    </marker>
  </defs>
  <defs
     id="defs17">
    <marker
       id="crosshead"
       markerWidth="15"
       markerHeight="8"
       orient="auto"
       refX="4"
       refY="4.5">
      <path
         fill="none"
         stroke="#000000"
         style="stroke-dasharray: 0px, 0px;"
         stroke-width="1pt"
         d="M 1,2 L 6,7 M 6,2 L 1,7"
         id="path17" />
    </marker>
  </defs>
  <defs
     id="defs18">
    <marker
       id="filled-head"
       refX="15.5"
       refY="7"
       markerWidth="20"
       markerHeight="28"
       orient="auto">
      <path
         d="M 18,7 L9,13 L14,7 L9,1 Z"
         id="path18" />
    </marker>
  </defs>
  <defs
     id="defs19">
    <marker
       id="sequencenumber"
       refX="15"
       refY="15"
       markerWidth="60"
       markerHeight="40"
       orient="auto"
       markerUnits="userSpaceOnUse">
      <circle
         cx="15"
         cy="15"
         r="10"
         id="circle18" />
    </marker>
  </defs>
  <defs
     id="defs20">
    <filter
       id="drop-shadow"
       height="1.0199999"
       width="1.02"
       x="-0.01"
       y="-0.009999938">
      <feDropShadow
         dx="4"
         dy="4"
         stdDeviation="0"
         flood-opacity="0.06"
         flood-color="#FFFFFF" />
    </filter>
  </defs>
  <defs
     id="defs21">
    <marker
       id="solidTopArrowHead"
       refX="7.9"
       refY="7.25"
       markerUnits="userSpaceOnUse"
       markerWidth="12"
       markerHeight="12"
       orient="auto-start-reverse">
      <path
         d="M 0 0 L 10 8 L 0 8 z"
         id="path20" />
    </marker>
  </defs>
  <defs
     id="defs22">
    <marker
       id="solidBottomArrowHead"
       refX="7.9"
       refY="0.75"
       markerUnits="userSpaceOnUse"
       markerWidth="12"
       markerHeight="12"
       orient="auto-start-reverse">
      <path
         d="M 0 0 L 10 0 L 0 8 z"
         id="path21" />
    </marker>
  </defs>
  <defs
     id="defs23">
    <marker
       id="stickTopArrowHead"
       refX="7.5"
       refY="7"
       markerUnits="userSpaceOnUse"
       markerWidth="12"
       markerHeight="12"
       orient="auto-start-reverse">
      <path
         d="M 0 0 L 7 7"
         stroke="black"
         stroke-width="1.5"
         fill="none"
         id="path22" />
    </marker>
  </defs>
  <defs
     id="defs24">
    <marker
       id="stickBottomArrowHead"
       refX="7.5"
       refY="0"
       markerUnits="userSpaceOnUse"
       markerWidth="12"
       markerHeight="12"
       orient="auto-start-reverse">
      <path
         d="M 0 7 L 7 0"
         stroke="black"
         stroke-width="1.5"
         fill="none"
         id="path23" />
    </marker>
  </defs>
  <g
     data-et="control-structure"
     data-id="i13"
     id="g29">
    <line
       x1="313"
       y1="451"
       x2="875"
       y2="451"
       class="loopLine"
       id="line24" />
    <line
       x1="875"
       y1="451"
       x2="875"
       y2="692"
       class="loopLine"
       id="line25" />
    <line
       x1="313"
       y1="692"
       x2="875"
       y2="692"
       class="loopLine"
       id="line26" />
    <line
       x1="313"
       y1="451"
       x2="313"
       y2="692"
       class="loopLine"
       id="line27" />
    <line
       x1="313"
       y1="616"
       x2="875"
       y2="616"
       class="loopLine"
       style="stroke-dasharray: 3px, 3px;"
       id="line28" />
    <polygon
       points="313,451 363,451 363,479 354.6,486 313,486"
       class="labelBox"
       id="polygon28" />
    <text
       x="338"
       y="471"
       text-anchor="middle"
       dominant-baseline="middle"
       alignment-baseline="middle"
       style="font-size: 16px; font-weight: 400;"
       class="labelText"
       id="text28">alt</text>
    <text
       x="419.48828"
       y="471.34375"
       text-anchor="middle"
       style="font-weight:400;font-size:16px"
       class="loopText"
       id="text29"><tspan
         x="419.48828"
         id="tspan28">[Cache exists]</tspan></text>
  </g>
  <g
     data-et="control-structure"
     data-id="i21"
     id="g34">
    <line
       x1="313"
       y1="702"
       x2="1075"
       y2="702"
       class="loopLine"
       id="line29" />
    <line
       x1="1075"
       y1="702"
       x2="1075"
       y2="1055"
       class="loopLine"
       id="line30" />
    <line
       x1="313"
       y1="1055"
       x2="1075"
       y2="1055"
       class="loopLine"
       id="line31" />
    <line
       x1="313"
       y1="702"
       x2="313"
       y2="1055"
       class="loopLine"
       id="line32" />
    <line
       x1="313"
       y1="979"
       x2="1075"
       y2="979"
       class="loopLine"
       style="stroke-dasharray: 3px, 3px;"
       id="line33" />
    <polygon
       points="313,702 363,702 363,730 354.6,737 313,737"
       class="labelBox"
       id="polygon33" />
    <text
       x="338"
       y="722"
       text-anchor="middle"
       dominant-baseline="middle"
       alignment-baseline="middle"
       style="font-size: 16px; font-weight: 400;"
       class="labelText"
       id="text33">alt</text>
    <text
       x="432.62109"
       y="722.14844"
       text-anchor="middle"
       style="font-weight:400;font-size:16px"
       class="loopText"
       id="text34"><tspan
         x="432.62109"
         id="tspan33">[Internet available]</tspan></text>
  </g>
  <g
     data-et="control-structure"
     data-id="i22"
     id="g40">
    <line
       x1="303"
       y1="243"
       x2="1085"
       y2="243"
       class="loopLine"
       id="line34" />
    <line
       x1="1085"
       y1="243"
       x2="1085"
       y2="1065"
       class="loopLine"
       id="line35" />
    <line
       x1="303"
       y1="1065"
       x2="1085"
       y2="1065"
       class="loopLine"
       id="line36" />
    <line
       x1="303"
       y1="243"
       x2="303"
       y2="1065"
       class="loopLine"
       id="line37" />
    <line
       x1="303"
       y1="408"
       x2="1085"
       y2="408"
       class="loopLine"
       style="stroke-dasharray: 3px, 3px;"
       id="line38" />
    <polygon
       points="303,243 353,243 353,271 344.6,278 303,278"
       class="labelBox"
       id="polygon38" />
    <text
       x="328"
       y="263"
       text-anchor="middle"
       dominant-baseline="middle"
       alignment-baseline="middle"
       style="font-size: 16px; font-weight: 400;"
       class="labelText"
       id="text38">alt</text>
    <text
       x="413.49219"
       y="263.34375"
       text-anchor="middle"
       style="font-weight:400;font-size:16px"
       class="loopText"
       id="text39"><tspan
         x="413.49219"
         id="tspan38">[Cache is valid]</tspan></text>
    <text
       x="466.85547"
       y="427.97656"
       text-anchor="middle"
       style="font-weight:400;font-size:16px"
       class="loopText"
       id="text40">[No cache or cache is expired]</text>
  </g>
  <g
     class="actor-man actor-top"
     name="User"
     data-et="participant"
     data-type="actor"
     data-id="User"
     style="stroke: rgb(166, 207, 71);"
     id="g41">
    <line
       id="actor-man-torso1214"
       x1="75"
       y1="27.5"
       x2="75"
       y2="37.5" />
    <line
       id="actor-man-arms1214"
       x1="66"
       y1="31.5"
       x2="84"
       y2="31.5" />
    <line
       x1="66"
       y1="45"
       x2="75"
       y2="37.5"
       id="line40" />
    <line
       x1="75"
       y1="37.5"
       x2="83"
       y2="45"
       id="line41" />
    <circle
       cx="75"
       cy="20"
       r="7.5"
       width="75"
       height="32.5"
       id="circle41" />
    <text
       x="75"
       y="55"
       style="text-anchor: middle; font-size: 16px; font-weight: 400;"
       dominant-baseline="central"
       alignment-baseline="central"
       class="actor actor-man"
       id="text41"><tspan
         x="75"
         dy="0"
         id="tspan41">User</tspan></text>
  </g>
  <text
     x="197"
     y="80"
     text-anchor="middle"
     dominant-baseline="middle"
     alignment-baseline="middle"
     style="font-size: 16px; font-weight: 400;"
     class="messageText"
     dy="1em"
     id="text42">Select course list in menu</text>
  <line
     x1="76"
     y1="121"
     x2="317"
     y2="121"
     class="messageLine0"
     data-et="message"
     data-id="i1"
     data-from="User"
     data-to="Ui"
     stroke-width="2"
     stroke="none"
     style="fill: none;"
     marker-end="url(#arrowhead)"
     id="line42" />
  <line
     x1="76"
     y1="121"
     x2="76"
     y2="121"
     stroke-width="0"
     marker-start="url(#sequencenumber)"
     id="line43" />
  <text
     x="76"
     y="125"
     font-family="sans-serif"
     font-size="12px"
     text-anchor="middle"
     class="sequenceNumber"
     id="text43">1</text>
  <text
     x="444"
     y="136"
     text-anchor="middle"
     dominant-baseline="middle"
     alignment-baseline="middle"
     style="font-size: 16px; font-weight: 400;"
     class="messageText"
     dy="1em"
     id="text44">Request course list</text>
  <line
     x1="325"
     y1="177"
     x2="562"
     y2="177"
     class="messageLine0"
     data-et="message"
     data-id="i2"
     data-from="Ui"
     data-to="CourseProvider"
     stroke-width="2"
     stroke="none"
     style="fill: none;"
     marker-end="url(#arrowhead)"
     id="line44" />
  <line
     x1="325"
     y1="177"
     x2="325"
     y2="177"
     stroke-width="0"
     marker-start="url(#sequencenumber)"
     id="line45" />
  <text
     x="325"
     y="181"
     font-family="sans-serif"
     font-size="12px"
     text-anchor="middle"
     class="sequenceNumber"
     id="text45">2</text>
  <text
     x="714"
     y="192"
     text-anchor="middle"
     dominant-baseline="middle"
     alignment-baseline="middle"
     style="font-size: 16px; font-weight: 400;"
     class="messageText"
     dy="1em"
     id="text46">Try to get course list from cache</text>
  <line
     x1="570"
     y1="233"
     x2="857"
     y2="233"
     class="messageLine0"
     data-et="message"
     data-id="i3"
     data-from="CourseProvider"
     data-to="CacheStorage"
     stroke-width="2"
     stroke="none"
     style="fill: none;"
     marker-end="url(#arrowhead)"
     id="line46" />
  <line
     x1="570"
     y1="233"
     x2="570"
     y2="233"
     stroke-width="0"
     marker-start="url(#sequencenumber)"
     id="line47" />
  <text
     x="570"
     y="237"
     font-family="sans-serif"
     font-size="12px"
     text-anchor="middle"
     class="sequenceNumber"
     id="text47">3</text>
  <text
     x="720"
     y="296"
     text-anchor="middle"
     dominant-baseline="middle"
     alignment-baseline="middle"
     style="font-size: 16px; font-weight: 400;"
     class="messageText"
     dy="1em"
     id="text48">Return course list</text>
  <line
     x1="863"
     y1="337"
     x2="576"
     y2="337"
     style="stroke-dasharray: 3px, 3px; fill: none;"
     class="messageLine1"
     data-et="message"
     data-id="i5"
     data-from="CacheStorage"
     data-to="CourseProvider"
     stroke-width="2"
     stroke="none"
     marker-end="url(#arrowhead)"
     id="line48" />
  <line
     x1="863"
     y1="337"
     x2="863"
     y2="337"
     stroke-width="0"
     marker-start="url(#sequencenumber)"
     id="line49" />
  <text
     x="863"
     y="341"
     font-family="sans-serif"
     font-size="12px"
     text-anchor="middle"
     class="sequenceNumber"
     id="text49">4</text>
  <text
     x="450"
     y="352"
     text-anchor="middle"
     dominant-baseline="middle"
     alignment-baseline="middle"
     style="font-size: 16px; font-weight: 400;"
     class="messageText"
     dy="1em"
     id="text50">Show course list</text>
  <line
     x1="568"
     y1="393"
     x2="331"
     y2="393"
     style="stroke-dasharray: 3px, 3px; fill: none;"
     class="messageLine1"
     data-et="message"
     data-id="i6"
     data-from="CourseProvider"
     data-to="Ui"
     stroke-width="2"
     stroke="none"
     marker-end="url(#arrowhead)"
     id="line50" />
  <line
     x1="568"
     y1="393"
     x2="568"
     y2="393"
     stroke-width="0"
     marker-start="url(#sequencenumber)"
     id="line51" />
  <text
     x="568"
     y="397"
     font-family="sans-serif"
     font-size="12px"
     text-anchor="middle"
     class="sequenceNumber"
     id="text51">5</text>
  <text
     x="720"
     y="504"
     text-anchor="middle"
     dominant-baseline="middle"
     alignment-baseline="middle"
     style="font-size: 16px; font-weight: 400;"
     class="messageText"
     dy="1em"
     id="text52">Return course list</text>
  <line
     x1="863"
     y1="545"
     x2="576"
     y2="545"
     style="stroke-dasharray: 3px, 3px; fill: none;"
     class="messageLine1"
     data-et="message"
     data-id="i9"
     data-from="CacheStorage"
     data-to="CourseProvider"
     stroke-width="2"
     stroke="none"
     marker-end="url(#arrowhead)"
     id="line52" />
  <line
     x1="863"
     y1="545"
     x2="863"
     y2="545"
     stroke-width="0"
     marker-start="url(#sequencenumber)"
     id="line53" />
  <text
     x="863"
     y="549"
     font-family="sans-serif"
     font-size="12px"
     text-anchor="middle"
     class="sequenceNumber"
     id="text53">6</text>
  <text
     x="450"
     y="560"
     text-anchor="middle"
     dominant-baseline="middle"
     alignment-baseline="middle"
     style="font-size: 16px; font-weight: 400;"
     class="messageText"
     dy="1em"
     id="text54">Show course list</text>
  <line
     x1="568"
     y1="601"
     x2="331"
     y2="601"
     style="stroke-dasharray: 3px, 3px; fill: none;"
     class="messageLine1"
     data-et="message"
     data-id="i10"
     data-from="CourseProvider"
     data-to="Ui"
     stroke-width="2"
     stroke="none"
     marker-end="url(#arrowhead)"
     id="line54" />
  <line
     x1="568"
     y1="601"
     x2="568"
     y2="601"
     stroke-width="0"
     marker-start="url(#sequencenumber)"
     id="line55" />
  <text
     x="568"
     y="605"
     font-family="sans-serif"
     font-size="12px"
     text-anchor="middle"
     class="sequenceNumber"
     id="text55">7</text>
  <text
     x="450"
     y="641"
     text-anchor="middle"
     dominant-baseline="middle"
     alignment-baseline="middle"
     style="font-size: 16px; font-weight: 400;"
     class="messageText"
     dy="1em"
     id="text56">Show a loading indicator</text>
  <line
     x1="568"
     y1="682"
     x2="331"
     y2="682"
     style="stroke-dasharray: 3px, 3px; fill: none;"
     class="messageLine1"
     data-et="message"
     data-id="i12"
     data-from="CourseProvider"
     data-to="Ui"
     stroke-width="2"
     stroke="none"
     marker-end="url(#arrowhead)"
     id="line56" />
  <line
     x1="568"
     y1="682"
     x2="568"
     y2="682"
     stroke-width="0"
     marker-start="url(#sequencenumber)"
     id="line57" />
  <text
     x="568"
     y="686"
     font-family="sans-serif"
     font-size="12px"
     text-anchor="middle"
     class="sequenceNumber"
     id="text57">8</text>
  <text
     x="814"
     y="755"
     text-anchor="middle"
     dominant-baseline="middle"
     alignment-baseline="middle"
     style="font-size: 16px; font-weight: 400;"
     class="messageText"
     dy="1em"
     id="text58">Request course list in the background</text>
  <line
     x1="570"
     y1="796"
     x2="1057"
     y2="796"
     class="messageLine0"
     data-et="message"
     data-id="i15"
     data-from="CourseProvider"
     data-to="VilniusTech_API"
     stroke-width="2"
     stroke="none"
     style="fill: none;"
     marker-end="url(#arrowhead)"
     id="line58" />
  <line
     x1="570"
     y1="796"
     x2="570"
     y2="796"
     stroke-width="0"
     marker-start="url(#sequencenumber)"
     id="line59" />
  <text
     x="570"
     y="800"
     font-family="sans-serif"
     font-size="12px"
     text-anchor="middle"
     class="sequenceNumber"
     id="text59">9</text>
  <text
     x="820"
     y="811"
     text-anchor="middle"
     dominant-baseline="middle"
     alignment-baseline="middle"
     style="font-size: 16px; font-weight: 400;"
     class="messageText"
     dy="1em"
     id="text60">Return course list</text>
  <line
     x1="1063"
     y1="852"
     x2="576"
     y2="852"
     style="stroke-dasharray: 3px, 3px; fill: none;"
     class="messageLine1"
     data-et="message"
     data-id="i16"
     data-from="VilniusTech_API"
     data-to="CourseProvider"
     stroke-width="2"
     stroke="none"
     marker-end="url(#arrowhead)"
     id="line60" />
  <line
     x1="1063"
     y1="852"
     x2="1063"
     y2="852"
     stroke-width="0"
     marker-start="url(#sequencenumber)"
     id="line61" />
  <text
     x="1063"
     y="856"
     font-family="sans-serif"
     font-size="12px"
     text-anchor="middle"
     class="sequenceNumber"
     id="text61">10</text>
  <text
     x="714"
     y="867"
     text-anchor="middle"
     dominant-baseline="middle"
     alignment-baseline="middle"
     style="font-size: 16px; font-weight: 400;"
     class="messageText"
     dy="1em"
     id="text62">Update cache</text>
  <line
     x1="570"
     y1="908"
     x2="857"
     y2="908"
     class="messageLine0"
     data-et="message"
     data-id="i17"
     data-from="CourseProvider"
     data-to="CacheStorage"
     stroke-width="2"
     stroke="none"
     style="fill: none;"
     marker-end="url(#arrowhead)"
     id="line62" />
  <line
     x1="570"
     y1="908"
     x2="570"
     y2="908"
     stroke-width="0"
     marker-start="url(#sequencenumber)"
     id="line63" />
  <text
     x="570"
     y="912"
     font-family="sans-serif"
     font-size="12px"
     text-anchor="middle"
     class="sequenceNumber"
     id="text63">11</text>
  <text
     x="450"
     y="923"
     text-anchor="middle"
     dominant-baseline="middle"
     alignment-baseline="middle"
     style="font-size: 16px; font-weight: 400;"
     class="messageText"
     dy="1em"
     id="text64">Update course list</text>
  <line
     x1="568"
     y1="964"
     x2="331"
     y2="964"
     style="stroke-dasharray: 3px, 3px; fill: none;"
     class="messageLine1"
     data-et="message"
     data-id="i18"
     data-from="CourseProvider"
     data-to="Ui"
     stroke-width="2"
     stroke="none"
     marker-end="url(#arrowhead)"
     id="line64" />
  <line
     x1="568"
     y1="964"
     x2="568"
     y2="964"
     stroke-width="0"
     marker-start="url(#sequencenumber)"
     id="line65" />
  <text
     x="568"
     y="968"
     font-family="sans-serif"
     font-size="12px"
     text-anchor="middle"
     class="sequenceNumber"
     id="text65">12</text>
  <text
     x="450"
     y="1004"
     text-anchor="middle"
     dominant-baseline="middle"
     alignment-baseline="middle"
     style="font-size: 16px; font-weight: 400;"
     class="messageText"
     dy="1em"
     id="text66">Show a warning</text>
  <line
     x1="568"
     y1="1045"
     x2="331"
     y2="1045"
     style="stroke-dasharray: 3px, 3px; fill: none;"
     class="messageLine1"
     data-et="message"
     data-id="i20"
     data-from="CourseProvider"
     data-to="Ui"
     stroke-width="2"
     stroke="none"
     marker-end="url(#arrowhead)"
     id="line66" />
  <line
     x1="568"
     y1="1045"
     x2="568"
     y2="1045"
     stroke-width="0"
     marker-start="url(#sequencenumber)"
     id="line67" />
  <text
     x="568"
     y="1049"
     font-family="sans-serif"
     font-size="12px"
     text-anchor="middle"
     class="sequenceNumber"
     id="text67">13</text>
  <g
     class="actor-man actor-bottom"
     name="User"
     style="stroke: rgb(166, 207, 71);"
     id="g69">
    <line
       id="actor-man-torso1218"
       x1="75"
       y1="1112.5"
       x2="75"
       y2="1122.5" />
    <line
       id="actor-man-arms1218"
       x1="66"
       y1="1116.5"
       x2="84"
       y2="1116.5" />
    <line
       x1="66"
       y1="1130"
       x2="75"
       y2="1122.5"
       id="line68" />
    <line
       x1="75"
       y1="1122.5"
       x2="83"
       y2="1130"
       id="line69" />
    <circle
       cx="75"
       cy="1105"
       r="7.5"
       width="75"
       height="16.25"
       id="circle69" />
    <text
       x="75"
       y="1140"
       style="text-anchor: middle; font-size: 16px; font-weight: 400;"
       dominant-baseline="central"
       alignment-baseline="central"
       class="actor actor-man"
       id="text69"><tspan
         x="75"
         dy="0"
         id="tspan69">User</tspan></text>
  </g>
</svg>
