<?xml version="1.0" standalone="no"?>
<!DOCTYPE svg PUBLIC "-//W3C//DTD SVG 20010904//EN"
 "http://www.w3.org/TR/2001/REC-SVG-20010904/DTD/svg10.dtd">
<svg version="1.0" xmlns="http://www.w3.org/2000/svg"
 width="722.000000pt" height="722.000000pt" viewBox="0 0 722.000000 722.000000"
 preserveAspectRatio="xMidYMid meet">
<metadata>
Created by potrace 1.14, written by Peter Selinger 2001-2017
</metadata>
<g transform="translate(0.000000,722.000000) scale(0.100000,-0.100000)"
fill="#000000" stroke="none">
<path d="M3336 7198 c-9 -5 -20 -6 -26 -3 -5 3 -23 -1 -40 -10 -34 -17 -40
-18 -57 -3 -9 7 -13 7 -13 -1 0 -7 -5 -9 -12 -5 -22 14 -48 11 -48 -5 0 -14
-2 -14 -10 -1 -5 8 -10 10 -10 5 0 -6 -17 -12 -37 -13 -21 -2 -46 -5 -55 -8
-11 -3 -18 0 -18 8 0 10 -3 9 -10 -2 -5 -8 -12 -11 -16 -8 -3 4 -15 -2 -27
-12 -16 -15 -24 -17 -40 -9 -14 8 -18 8 -13 0 5 -7 -5 -11 -26 -11 -19 0 -40
-6 -47 -12 -8 -7 -11 -8 -8 -2 3 6 0 11 -8 11 -8 0 -12 -4 -10 -8 3 -4 -2 -10
-11 -13 -8 -3 -13 -2 -10 3 3 4 -6 6 -19 3 -14 -2 -25 -9 -25 -14 0 -5 5 -6
12 -2 7 4 8 3 4 -5 -6 -9 -11 -9 -21 -1 -10 8 -22 7 -45 -5 -18 -9 -29 -12
-26 -7 8 14 -21 9 -35 -5 -6 -6 -18 -9 -25 -6 -8 3 -14 0 -14 -7 0 -9 -4 -9
-17 1 -9 8 -14 9 -10 3 4 -7 0 -14 -8 -18 -8 -3 -15 0 -16 7 0 7 -4 3 -9 -8
-5 -12 -9 -14 -9 -6 -1 11 -5 10 -16 -5 -9 -12 -14 -14 -15 -6 0 10 -3 10 -15
-1 -8 -9 -26 -14 -40 -13 -13 2 -22 -1 -19 -5 3 -5 -6 -9 -20 -9 -14 0 -26 -4
-26 -10 0 -5 -9 -10 -21 -10 -24 0 -51 -24 -41 -35 4 -5 1 -5 -6 -1 -7 4 -10
11 -7 16 3 5 0 12 -7 16 -7 4 -10 3 -5 -1 4 -5 0 -16 -9 -26 -13 -14 -21 -16
-35 -8 -15 7 -19 7 -17 -3 2 -7 -4 -13 -12 -13 -8 0 -23 -8 -32 -17 -10 -10
-24 -15 -33 -12 -9 4 -17 -1 -21 -11 -5 -13 -9 -14 -15 -3 -7 10 -9 11 -9 0 0
-7 -4 -11 -9 -7 -6 3 -13 0 -18 -7 -4 -7 -15 -13 -23 -13 -8 0 -14 -6 -12 -14
3 -12 0 -12 -12 -2 -12 10 -16 8 -21 -8 -3 -12 -11 -21 -16 -21 -6 0 -7 5 -3
11 4 8 0 8 -15 0 -11 -7 -21 -17 -21 -23 0 -6 -6 -5 -17 3 -11 10 -14 10 -9 2
4 -8 2 -13 -4 -13 -6 0 -9 -4 -5 -9 3 -6 -5 -8 -19 -5 -14 2 -27 0 -31 -6 -4
-6 1 -7 11 -3 12 4 15 3 10 -5 -4 -7 -16 -12 -27 -12 -12 0 -17 -4 -13 -11 4
-8 -1 -9 -16 -4 -15 5 -20 3 -16 -3 3 -6 -4 -12 -16 -14 -13 -2 -22 -9 -20
-17 3 -12 0 -12 -12 -1 -9 7 -17 10 -17 6 -1 -3 -3 -10 -4 -16 -1 -5 -3 -14
-4 -20 0 -5 -8 -6 -18 -3 -11 5 -14 3 -8 -6 6 -10 3 -11 -15 -1 -15 8 -20 8
-16 1 4 -6 2 -11 -4 -11 -6 0 -8 -5 -4 -12 5 -8 2 -9 -10 -5 -14 6 -17 3 -12
-8 5 -13 2 -14 -15 -4 -14 7 -19 7 -15 0 7 -11 -28 -34 -38 -24 -4 4 -9 -3
-13 -15 -3 -12 -12 -22 -19 -22 -8 0 -14 -7 -14 -16 0 -13 -3 -14 -13 -5 -17
13 -28 5 -20 -15 4 -10 0 -12 -13 -7 -17 6 -18 5 -4 -12 14 -17 14 -18 -9 -6
-15 8 -21 9 -17 2 4 -6 -4 -15 -19 -21 -15 -6 -30 -20 -33 -32 -5 -21 -6 -21
-13 -2 -7 16 -8 17 -8 2 -1 -10 -7 -18 -15 -18 -8 0 -18 -5 -22 -12 -5 -8 -2
-9 10 -5 11 4 15 3 10 -4 -3 -6 -15 -9 -25 -6 -10 3 -23 -1 -30 -9 -6 -8 -15
-12 -19 -9 -5 3 -6 -4 -3 -15 4 -15 2 -19 -10 -14 -8 3 -18 0 -22 -5 -3 -6
-11 -8 -17 -5 -6 4 -6 -2 1 -15 10 -18 9 -20 -6 -14 -13 5 -15 3 -10 -11 4
-10 3 -15 -3 -11 -6 3 -10 1 -10 -5 0 -6 -4 -8 -10 -5 -5 3 -10 -1 -10 -10 0
-9 -4 -14 -9 -10 -14 8 -82 -65 -74 -79 4 -6 -1 -5 -10 2 -14 12 -16 11 -12
-6 2 -12 -7 -29 -23 -43 -21 -19 -23 -20 -12 -4 8 11 20 23 25 27 6 4 6 8 2 8
-5 0 -23 -14 -40 -32 -18 -18 -25 -28 -17 -23 12 7 13 6 3 -7 -7 -8 -9 -19 -5
-24 4 -4 -1 -2 -10 5 -16 12 -22 9 -19 -12 1 -4 -10 -12 -23 -17 -13 -5 -27
-14 -32 -21 -4 -8 -3 -10 4 -5 7 4 12 3 12 -2 0 -5 -10 -12 -21 -15 -15 -4
-20 -11 -15 -23 5 -12 2 -15 -9 -10 -9 3 -13 2 -10 -4 3 -6 0 -10 -7 -10 -9 0
-9 -3 2 -10 11 -7 11 -10 2 -10 -7 0 -10 -5 -6 -11 5 -8 1 -8 -14 0 -16 9 -19
7 -18 -7 0 -9 -5 -17 -11 -18 -7 -1 -16 -2 -19 -3 -4 0 0 -9 7 -18 10 -11 10
-14 1 -9 -7 4 -12 2 -12 -4 0 -6 -5 -8 -10 -5 -6 3 -10 -3 -10 -15 0 -14 -4
-19 -12 -14 -8 5 -9 2 -5 -10 5 -12 3 -16 -5 -14 -17 6 -52 -28 -43 -41 3 -6
1 -11 -5 -11 -6 0 -9 -4 -6 -9 3 -5 -1 -12 -10 -15 -9 -4 -14 -13 -10 -21 4
-12 2 -13 -13 -5 -16 8 -18 7 -13 -12 4 -15 2 -19 -7 -14 -8 6 -11 2 -9 -10 2
-11 -2 -18 -9 -17 -7 2 -10 -6 -8 -17 2 -12 1 -19 -3 -17 -4 2 -15 -4 -24 -15
-12 -12 -14 -18 -5 -18 7 -1 5 -6 -6 -14 -10 -8 -19 -23 -20 -34 0 -11 -4 -20
-7 -20 -19 2 -30 -3 -25 -12 3 -5 -2 -10 -12 -10 -17 -1 -17 -1 0 -14 18 -14
17 -14 -2 -21 -12 -3 -21 -13 -21 -21 0 -18 -25 -46 -33 -38 -3 3 -4 -6 -3
-20 2 -18 -2 -27 -16 -32 -16 -5 -17 -8 -6 -22 11 -13 10 -15 -8 -10 -19 5
-21 2 -17 -25 4 -24 2 -29 -11 -24 -14 5 -15 3 -6 -13 8 -15 8 -18 -3 -14 -8
3 -17 -2 -21 -11 -3 -9 -2 -13 4 -10 19 12 10 -11 -10 -25 -14 -10 -16 -16 -7
-22 9 -6 9 -8 -1 -8 -8 0 -10 -5 -6 -12 5 -7 2 -9 -7 -6 -10 4 -15 -1 -16 -14
-1 -11 -10 -26 -19 -32 -12 -9 -14 -15 -6 -20 9 -5 7 -15 -6 -34 -9 -14 -12
-23 -5 -19 6 4 15 3 18 -3 4 -6 3 -10 -2 -9 -18 3 -47 -3 -36 -8 10 -3 9 -8
-2 -20 -8 -8 -15 -23 -15 -32 0 -10 -7 -24 -15 -31 -10 -8 -12 -17 -6 -24 12
-14 -3 -41 -17 -32 -7 4 -9 -1 -7 -15 2 -11 0 -29 -5 -40 -6 -10 -14 -27 -19
-38 -6 -12 -6 -22 2 -30 9 -9 8 -11 -6 -5 -13 5 -16 2 -11 -10 4 -11 -1 -23
-12 -32 -11 -9 -13 -13 -6 -9 6 3 12 1 12 -4 0 -6 -4 -11 -8 -11 -8 0 -9 -8
-14 -65 -2 -16 -9 -34 -16 -38 -9 -6 -9 -13 -2 -28 8 -14 7 -19 -2 -19 -8 0
-14 -14 -15 -33 -2 -17 -11 -38 -20 -46 -17 -13 -17 -13 -1 -8 21 8 20 -12 -2
-30 -12 -10 -12 -12 -1 -13 9 0 10 -4 4 -12 -6 -7 -9 -21 -8 -30 2 -9 -2 -15
-8 -12 -15 5 -16 -68 -2 -78 5 -4 2 -10 -8 -14 -15 -5 -15 -9 -5 -22 9 -11 9
-13 1 -9 -6 4 -14 3 -18 -3 -3 -5 -3 -10 2 -10 4 0 8 -13 8 -30 0 -16 -3 -30
-7 -30 -4 0 -3 -11 2 -25 7 -19 6 -23 -5 -18 -10 3 -15 -1 -15 -12 0 -10 5
-14 13 -9 10 6 10 4 0 -7 -7 -7 -13 -22 -13 -33 -1 -12 -7 -38 -14 -58 -8 -21
-10 -38 -5 -38 8 0 5 -33 -6 -49 -3 -5 -1 -12 4 -16 7 -3 7 -15 1 -30 -6 -15
-6 -27 0 -30 6 -3 6 -15 0 -30 -6 -15 -6 -25 0 -25 5 0 5 -12 0 -30 -6 -21 -5
-30 3 -30 8 0 7 -3 -2 -9 -7 -5 -9 -11 -4 -14 11 -7 11 -37 -1 -55 -4 -7 -3
-19 4 -27 8 -9 8 -15 0 -20 -6 -4 -7 -12 -3 -18 10 -15 10 -38 -1 -55 -4 -7
-3 -19 4 -27 8 -9 8 -15 0 -20 -6 -4 -7 -12 -3 -18 10 -15 10 -38 -1 -55 -4
-7 -3 -19 4 -27 8 -9 8 -15 0 -20 -6 -4 -7 -12 -2 -18 4 -7 7 -22 6 -34 0 -13
4 -23 10 -23 6 0 4 -5 -4 -10 -9 -6 -10 -10 -3 -10 6 0 12 -8 12 -17 0 -32 8
-68 20 -91 8 -15 8 -22 1 -22 -7 0 -8 -6 0 -19 7 -14 7 -20 -1 -23 -8 -3 -6
-10 5 -20 19 -20 21 -32 4 -23 -7 4 -5 0 4 -8 10 -8 15 -17 11 -21 -11 -11 -9
-55 3 -60 7 -3 10 -14 7 -25 -3 -12 0 -28 7 -36 10 -12 10 -15 -1 -15 -11 0
-11 -2 1 -10 8 -5 12 -10 8 -10 -4 0 -2 -15 3 -32 6 -18 12 -46 14 -62 2 -15
10 -34 16 -42 9 -11 8 -14 -1 -14 -9 0 -7 -7 5 -20 14 -15 15 -20 4 -20 -8 0
-10 -3 -4 -8 10 -7 14 -20 20 -62 2 -14 4 -27 5 -30 2 -3 2 -9 1 -13 -1 -5 3
-6 8 -3 5 3 11 -1 15 -9 3 -8 1 -15 -5 -15 -6 0 -3 -7 5 -16 17 -17 21 -28 7
-20 -5 4 -4 -5 2 -19 7 -14 15 -25 19 -25 4 0 5 -7 2 -15 -4 -8 -1 -15 5 -15
6 0 11 -5 11 -11 0 -5 -6 -7 -12 -3 -9 5 -9 3 1 -9 7 -9 17 -15 21 -12 5 3 6
-5 2 -17 -4 -16 -2 -19 8 -13 9 5 11 4 6 -3 -12 -20 -16 -53 -5 -47 5 4 6 11
3 17 -4 7 -2 8 4 4 6 -4 9 -13 6 -20 -3 -8 0 -17 7 -22 8 -5 10 -3 4 6 -5 8
-4 11 3 7 5 -4 8 -17 4 -29 -3 -13 -1 -19 5 -15 7 5 9 -1 5 -15 -3 -13 -1 -19
5 -15 6 4 9 -6 8 -23 -1 -16 2 -27 7 -24 4 3 8 0 8 -6 0 -6 5 -8 13 -4 7 5 7
2 -2 -10 -8 -9 -10 -16 -5 -15 21 4 28 -2 14 -11 -10 -6 -11 -10 -2 -10 6 0
12 -7 12 -16 0 -8 4 -13 9 -9 6 3 8 -4 6 -15 -2 -11 0 -20 5 -20 4 0 13 -13
19 -30 5 -16 15 -30 22 -30 9 0 9 -3 0 -14 -9 -11 -6 -18 16 -36 15 -12 22
-19 16 -15 -7 3 -13 1 -13 -4 0 -6 8 -11 18 -11 14 0 15 -2 2 -10 -12 -8 -11
-10 8 -10 12 0 22 -5 22 -11 0 -5 -4 -8 -9 -4 -5 3 -13 0 -17 -6 -4 -7 -3 -9
3 -6 10 7 43 -27 43 -45 0 -6 8 -17 18 -25 9 -8 11 -12 5 -8 -7 3 -13 1 -13
-4 0 -6 9 -11 20 -11 11 0 20 -5 20 -11 0 -5 -6 -7 -12 -4 -7 4 -3 -2 10 -14
13 -12 18 -22 12 -26 -13 -8 -3 -25 13 -25 7 0 6 4 -3 11 -13 9 -13 10 0 6 8
-2 14 -14 14 -26 -1 -16 2 -19 11 -11 10 8 15 8 21 -1 4 -8 3 -9 -4 -5 -7 4
-12 1 -12 -9 0 -8 6 -18 14 -21 9 -3 12 -12 9 -21 -4 -11 -2 -14 5 -9 7 4 12
1 12 -9 0 -9 5 -13 10 -10 9 6 12 0 14 -35 1 -8 10 -15 21 -15 15 0 20 -6 19
-23 -1 -16 3 -22 13 -18 8 3 12 2 8 -3 -3 -5 -1 -20 4 -33 l10 -23 1 25 c2 23
3 22 11 -7 5 -17 23 -43 39 -56 20 -17 26 -27 17 -31 -6 -4 -3 -5 9 -2 12 2
21 -2 21 -10 0 -7 -5 -10 -10 -7 -6 4 -7 1 -2 -6 4 -7 15 -11 24 -8 12 3 17
-3 19 -17 0 -11 6 -22 12 -24 5 -2 7 -9 3 -14 -4 -7 1 -9 15 -6 19 5 20 3 12
-12 -8 -15 -6 -20 10 -25 11 -3 20 -13 20 -21 0 -8 3 -13 7 -11 10 5 53 -39
47 -47 -2 -3 -1 -4 2 -1 4 2 15 0 26 -6 16 -8 17 -13 7 -25 -10 -12 -9 -13 6
-8 13 5 16 4 11 -4 -5 -8 -1 -10 10 -5 14 5 16 3 11 -11 -4 -10 -3 -15 3 -11
9 6 14 -8 11 -27 0 -5 5 -8 12 -8 7 0 22 -7 33 -15 19 -15 19 -15 -1 -8 -21 7
-21 5 9 -17 11 -8 17 -10 13 -3 -4 6 -3 14 3 18 6 4 10 -5 10 -22 0 -23 2 -25
11 -13 8 12 10 10 5 -10 -5 -24 -4 -24 10 -5 14 19 14 19 12 -5 -2 -19 1 -24
15 -22 9 2 20 -4 23 -12 3 -8 13 -17 21 -20 14 -6 14 -4 2 11 -13 16 -12 17 4
4 19 -15 24 -47 5 -35 -7 4 -8 3 -4 -5 6 -9 11 -9 21 -1 10 8 13 6 11 -7 -1
-13 5 -17 19 -15 11 2 17 1 13 -4 -11 -10 30 -37 44 -28 7 5 9 2 5 -9 -4 -12
-2 -14 11 -10 15 6 15 4 4 -9 -11 -14 -10 -16 6 -11 12 3 22 -1 25 -11 4 -9
19 -16 34 -17 l28 -1 -25 -8 c-19 -6 -20 -8 -6 -9 10 -1 25 -9 33 -19 10 -11
12 -12 8 -2 -4 9 0 7 9 -4 9 -11 20 -15 28 -10 10 6 11 5 1 -7 -10 -12 -8 -15
10 -16 11 -1 29 -12 38 -24 11 -14 22 -20 33 -16 9 4 15 3 12 -2 -3 -5 2 -15
11 -22 12 -10 14 -10 9 -1 -10 18 -4 15 34 -13 19 -14 30 -25 26 -25 -5 0 -3
-7 4 -15 7 -8 18 -15 24 -14 7 0 6 2 -1 6 -7 2 -13 10 -13 16 1 7 9 2 19 -10
11 -13 26 -23 34 -23 9 0 17 -5 19 -10 2 -6 13 -12 26 -13 14 -1 21 -6 17 -14
-3 -11 0 -11 16 -2 17 9 21 7 26 -10 3 -13 10 -18 21 -14 10 4 13 2 8 -5 -4
-7 -1 -12 9 -12 9 0 13 -4 10 -10 -6 -10 3 -13 38 -13 9 0 17 -4 17 -8 0 -5 3
-8 8 -8 22 4 31 -3 25 -18 -5 -15 -3 -14 11 2 9 11 15 16 14 10 -2 -5 1 -10 5
-10 5 0 13 -7 18 -17 5 -10 17 -14 29 -11 11 3 20 0 20 -6 0 -6 7 -11 16 -11
9 0 12 -5 8 -12 -5 -9 -2 -9 9 1 9 7 17 9 17 3 0 -5 7 -13 16 -16 10 -4 13 -2
9 7 -4 6 -1 5 7 -4 7 -9 21 -15 31 -13 11 1 16 0 13 -3 -9 -9 46 -34 61 -29 7
3 13 2 13 -2 0 -4 15 -13 33 -20 17 -7 40 -17 49 -22 11 -6 18 -5 21 3 3 7 6
3 6 -8 1 -17 3 -17 11 -5 7 11 10 11 10 2 0 -7 4 -11 9 -8 5 4 11 1 13 -6 2
-6 12 -12 21 -14 9 -1 15 1 12 5 -2 4 2 8 10 8 8 0 13 -5 12 -10 -2 -10 63
-28 110 -31 11 0 19 -5 15 -10 -3 -5 5 -7 16 -4 12 4 22 3 22 -2 0 -4 7 -11
16 -14 10 -4 13 -2 8 7 -6 9 -4 9 7 1 8 -6 26 -11 41 -10 14 1 24 -2 22 -6 -2
-3 0 -9 6 -13 5 -3 10 0 10 7 1 8 4 7 10 -4 8 -12 17 -14 38 -9 19 6 30 3 39
-8 9 -12 12 -12 13 -3 0 7 5 10 10 7 6 -4 8 -10 5 -14 -2 -5 13 -5 35 -1 22 4
40 4 40 1 0 -6 17 -10 58 -13 6 -1 12 -5 12 -9 0 -4 13 -4 30 1 18 5 32 5 36
-1 3 -5 10 -7 15 -4 5 4 9 1 9 -6 0 -7 7 -4 15 7 15 18 15 18 8 0 -4 -13 -3
-17 5 -12 6 3 13 2 17 -4 4 -6 12 -7 23 -1 9 5 26 5 39 0 13 -5 23 -5 23 -1 0
11 142 -3 168 -17 15 -8 22 -8 22 -1 0 7 6 8 19 0 11 -5 22 -6 25 -2 6 10 36
9 53 -1 6 -4 14 -1 16 5 3 7 6 8 6 3 1 -11 74 -11 91 0 6 3 10 1 10 -6 0 -7 5
-8 13 -3 6 5 26 9 44 9 27 -1 30 2 20 14 -7 8 -7 12 -1 8 20 -12 221 -8 254 5
30 12 69 15 73 5 1 -5 10 -2 19 7 12 12 18 13 21 3 4 -9 6 -9 6 0 1 7 7 10 15
7 8 -3 17 -1 20 4 3 6 20 7 41 2 24 -5 33 -4 28 3 -4 6 2 8 15 5 13 -4 20 -1
19 5 -2 13 29 16 60 5 17 -5 21 -4 16 8 -4 10 0 12 11 8 10 -4 16 -1 16 7 0 9
3 10 8 4 9 -13 42 -15 42 -3 0 6 9 8 20 5 11 -3 20 -2 20 3 0 7 35 20 65 25
24 3 72 17 92 27 11 6 26 8 31 4 5 -3 13 2 16 11 6 15 8 15 16 3 7 -12 10 -11
16 4 5 14 9 15 15 4 7 -10 9 -8 9 6 0 15 3 16 15 6 12 -10 16 -9 21 4 3 9 10
16 16 16 5 0 6 -4 3 -10 -3 -6 1 -7 9 -4 9 3 16 10 16 15 0 5 11 9 24 9 14 0
31 6 38 13 7 6 19 12 26 13 29 2 33 5 26 15 -4 7 1 7 16 -1 15 -8 20 -8 16 -1
-4 6 -2 11 4 11 6 0 8 4 5 10 -3 6 1 7 10 4 9 -4 24 1 35 11 10 9 23 14 29 11
5 -4 16 0 23 7 7 8 21 12 32 9 15 -4 18 -1 13 12 -4 10 -3 15 4 11 5 -4 16 -1
24 5 8 6 20 8 26 4 7 -4 9 -3 6 3 -9 15 18 24 31 11 6 -6 12 -6 17 3 5 8 4 10
-3 5 -7 -4 -12 -2 -12 3 0 6 7 11 16 11 9 0 12 5 8 13 -5 7 0 6 11 -3 10 -8
16 -10 12 -4 -7 13 19 28 33 19 5 -3 11 4 15 15 5 16 10 18 25 10 16 -8 18 -7
15 9 -3 15 0 18 12 14 12 -5 14 -3 8 7 -6 10 -3 12 11 8 13 -3 27 5 43 23 13
15 30 25 37 22 8 -3 17 2 20 11 5 13 9 14 21 5 8 -7 13 -8 12 -3 -3 19 1 34
12 34 5 0 8 -4 5 -9 -4 -5 4 -7 16 -3 12 3 17 7 10 10 -6 2 -12 8 -12 13 0 4
6 6 14 3 9 -3 19 4 26 17 10 17 14 19 21 8 7 -11 9 -11 9 -1 0 7 4 10 10 7 6
-3 7 1 4 10 -5 11 -2 14 10 9 12 -5 19 0 23 15 3 11 10 21 15 21 5 0 6 -6 2
-12 -5 -9 -2 -8 10 1 13 11 14 16 4 22 -9 6 -8 9 7 10 11 1 24 1 29 0 5 -1 6
5 3 14 -4 8 -2 15 3 15 6 0 10 -5 10 -11 0 -5 5 -7 10 -4 6 4 8 10 5 15 -3 4
2 13 10 20 13 11 15 10 10 -6 -4 -14 -3 -13 6 3 6 12 20 24 31 26 11 3 17 10
14 16 -4 5 -2 12 4 16 5 3 10 1 10 -4 0 -6 4 -11 9 -11 4 0 7 11 6 25 -2 14 2
23 8 22 7 -1 11 4 9 11 -1 8 2 11 8 7 8 -5 7 -12 -2 -24 -7 -9 -1 -4 13 11 14
15 34 28 43 28 16 0 17 2 5 17 -13 15 -12 15 11 3 22 -12 24 -12 12 2 -10 13
-9 16 9 21 13 4 18 10 13 18 -5 9 -2 11 8 6 22 -8 30 3 15 21 -10 13 -8 14 12
7 16 -5 21 -4 17 4 -7 10 6 16 27 12 5 -1 6 3 2 9 -3 6 -11 7 -17 4 -7 -4 -8
-2 -4 4 4 7 15 12 26 12 18 0 34 25 25 39 -2 5 7 7 20 5 14 -1 25 2 25 7 0 5
-5 9 -11 9 -6 0 -4 7 5 15 18 18 30 20 20 3 -5 -9 -2 -8 9 1 14 11 15 16 5 29
-11 13 -10 14 2 10 8 -2 21 1 28 9 8 7 18 10 24 7 7 -4 8 -2 4 5 -4 6 -12 9
-17 6 -5 -4 -9 -3 -9 0 0 3 14 11 30 16 17 6 30 18 30 26 0 8 5 11 10 8 6 -4
9 -1 8 7 -2 7 5 12 15 12 14 -2 15 1 6 12 -7 8 -7 14 -1 14 5 0 12 9 15 20 3
11 16 24 30 29 13 5 27 18 31 28 6 17 5 17 -8 0 -7 -9 -17 -17 -21 -17 -5 0 0
9 10 20 15 16 21 18 34 8 9 -7 13 -8 9 -4 -4 5 -2 16 5 24 9 13 9 14 0 8 -7
-4 -13 -2 -13 3 0 6 10 11 21 11 17 0 19 3 10 14 -10 12 -6 18 18 32 17 10 27
23 24 31 -3 7 2 13 11 13 9 0 16 5 16 11 0 5 5 7 11 3 7 -4 7 1 -1 16 -6 12
-9 24 -6 28 3 3 6 0 6 -7 0 -7 5 -9 10 -6 6 4 8 11 5 16 -4 5 -1 9 5 9 6 0 9
4 6 9 -6 8 27 44 35 38 2 -2 13 5 23 16 14 14 15 19 4 15 -9 -4 -15 0 -15 8 0
8 7 14 15 14 9 0 12 6 8 15 -4 11 0 15 11 13 9 -2 18 4 20 12 4 12 3 12 -5 1
-7 -9 -12 -10 -16 -2 -4 6 -4 11 1 11 4 0 19 10 33 21 14 11 20 18 13 15 -6
-4 -15 -2 -18 4 -4 6 -3 10 2 9 22 -4 32 2 27 16 -4 8 -1 15 5 15 6 0 11 -5
11 -12 0 -6 3 -8 6 -5 4 4 1 13 -6 22 -8 10 -9 15 -2 15 6 0 16 10 23 21 7 13
7 19 1 15 -6 -3 -14 -2 -17 4 -4 6 -3 10 2 9 4 -1 17 -1 28 0 14 1 16 4 8 9
-9 6 -8 11 6 22 11 7 17 19 14 27 -3 7 0 13 7 13 6 0 9 4 6 9 -3 5 1 11 9 15
8 3 15 14 15 25 0 11 5 21 11 23 6 2 13 15 14 28 4 41 4 41 18 34 9 -6 9 -4
-1 8 -10 13 -10 17 3 22 9 3 13 10 10 16 -3 5 0 10 7 10 9 0 9 3 -2 10 -12 8
-10 10 8 10 13 0 20 4 17 10 -4 6 -12 7 -18 4 -7 -3 0 5 15 18 15 14 24 29 20
34 -4 5 -5 8 -3 7 6 -4 31 47 31 63 0 8 4 14 9 14 5 0 7 9 4 20 -3 12 0 20 6
20 7 0 9 5 6 10 -3 6 -1 10 6 10 8 0 7 5 -2 17 -10 11 -10 14 -1 9 7 -4 12 -1
12 8 0 9 5 16 11 16 5 0 7 4 4 10 -3 5 0 10 7 10 9 0 9 3 -2 10 -8 5 -10 10
-4 10 7 0 15 16 18 35 4 19 12 35 18 35 6 0 5 7 -3 17 -10 11 -10 14 -1 9 8
-5 12 0 12 14 0 12 5 31 11 42 8 15 8 19 0 14 -6 -4 -11 -2 -11 3 0 6 4 11 9
11 5 0 12 7 15 16 3 9 2 12 -5 8 -7 -4 -7 0 0 12 15 30 23 57 26 90 2 17 8 42
15 55 13 23 23 80 22 126 0 14 4 20 11 16 6 -3 7 -1 3 6 -4 6 -2 18 4 26 9 10
9 15 1 15 -7 0 -8 8 -2 23 5 14 5 30 0 40 -7 12 -6 17 4 17 9 0 13 9 12 25 -2
14 1 25 7 25 7 0 7 4 0 13 -6 7 -7 18 -3 25 4 8 6 24 3 38 -3 16 1 26 12 30
15 6 15 8 -1 20 -13 10 -14 13 -4 14 8 0 11 3 8 7 -4 3 -2 12 4 20 9 9 8 17 0
27 -9 10 -9 16 -1 21 6 4 7 12 3 18 -10 15 -10 38 1 55 4 7 3 19 -3 26 -7 9
-7 16 0 23 8 8 8 13 0 17 -7 4 -7 15 -1 31 5 13 5 27 1 29 -5 3 -5 23 -1 45 4
22 3 45 -1 52 -4 8 -3 19 2 25 7 8 6 14 -1 19 -8 5 -8 10 0 20 6 7 7 16 2 19
-10 6 -9 36 2 54 4 7 3 19 -4 27 -8 9 -8 15 0 20 6 3 7 12 3 18 -10 17 -11 47
-1 53 5 3 2 17 -7 31 -10 14 -12 22 -6 19 7 -5 9 -1 5 8 -3 9 -9 16 -13 16 -3
0 -6 18 -6 40 0 22 4 40 8 40 5 0 6 4 2 9 -3 5 -7 22 -9 38 -6 41 -14 72 -21
83 -3 6 -1 10 6 10 7 0 8 4 2 13 -5 6 -10 26 -12 42 -2 17 -6 32 -10 35 -4 3
-8 21 -9 40 -3 52 -5 60 -14 60 -5 0 -4 9 2 20 8 15 8 20 -1 18 -6 -2 -14 3
-17 11 -3 10 0 11 9 5 11 -6 12 -5 3 7 -7 8 -15 34 -18 58 -3 24 -10 49 -16
56 -6 8 -5 16 3 24 9 10 9 11 -4 6 -13 -5 -15 1 -14 30 0 19 -3 35 -8 35 -5 0
-6 7 -3 15 3 9 -1 18 -9 21 -7 3 -11 12 -8 20 3 8 0 14 -6 14 -6 0 -11 4 -11
10 0 5 8 7 18 4 9 -2 7 1 -5 7 -14 7 -23 21 -23 34 0 13 -7 26 -15 29 -13 5
-14 10 -4 27 8 15 8 19 0 15 -6 -4 -11 -1 -11 7 0 8 -6 20 -14 27 -8 6 -12 18
-9 26 3 8 -1 14 -8 14 -11 0 -11 3 1 10 12 7 12 10 1 10 -7 0 -11 6 -7 15 3 8
1 15 -5 15 -6 0 -9 7 -6 15 4 8 1 17 -5 21 -7 5 -8 2 -3 -6 6 -9 4 -11 -4 -5
-7 4 -11 18 -8 31 2 14 0 27 -6 31 -6 4 -7 1 -2 -8 7 -11 5 -11 -9 1 -12 9
-14 16 -7 18 8 3 6 9 -6 19 -10 8 -12 11 -5 8 11 -6 11 -3 0 16 -7 13 -17 27
-22 30 -5 4 -5 12 -2 18 5 7 2 10 -6 9 -7 -2 -12 5 -12 15 1 10 -5 17 -15 17
-14 0 -14 2 -1 10 10 6 11 10 3 10 -7 0 -12 3 -11 8 5 15 -25 71 -35 65 -6 -4
-8 0 -4 10 4 12 1 17 -11 17 -15 0 -15 2 -2 10 13 8 12 10 -3 10 -10 0 -15 5
-12 11 4 6 -1 17 -11 25 -11 9 -13 13 -6 9 18 -9 15 10 -5 26 -14 12 -16 12
-8 0 5 -10 4 -12 -4 -7 -8 6 -9 12 -2 20 12 14 -4 36 -27 36 -7 0 -10 5 -7 10
3 6 -1 10 -9 10 -9 0 -16 5 -16 11 0 5 4 8 9 4 5 -3 13 0 17 6 4 7 3 9 -3 6
-10 -7 -43 27 -43 45 0 6 -8 17 -17 25 -12 10 -13 12 -3 8 9 -4 7 0 -4 9 -10
8 -15 19 -11 25 4 7 -1 8 -12 4 -16 -6 -16 -5 -4 11 12 14 12 17 1 14 -8 -2
-14 2 -15 9 0 6 -4 15 -9 20 -5 5 -6 3 -2 -4 4 -7 3 -13 -2 -13 -6 0 -13 7
-16 16 -9 23 -8 26 7 18 7 -4 8 -3 4 2 -5 5 -16 9 -25 9 -13 0 -16 8 -15 29 2
27 2 28 -12 10 -9 -10 -15 -14 -14 -9 4 23 -56 105 -71 96 -2 -1 -6 3 -8 11
-2 9 0 8 7 -2 6 -8 11 -10 11 -5 0 6 10 -1 21 -15 14 -17 17 -19 10 -5 -12 26
-42 50 -61 50 -8 0 -16 10 -18 23 -2 12 -7 22 -12 22 -4 0 -11 11 -14 25 -4
14 -18 31 -31 37 -13 6 -22 15 -19 19 3 5 -4 9 -16 9 -12 0 -18 5 -15 10 3 6
1 10 -5 10 -6 0 -9 4 -6 9 3 5 -2 15 -11 22 -11 10 -14 10 -9 2 5 -9 2 -11 -8
-7 -8 3 -13 11 -10 18 2 6 -9 20 -26 30 -17 10 -36 29 -42 42 -7 15 -14 20
-18 13 -5 -6 -12 2 -19 21 -7 22 -16 30 -25 27 -8 -3 -17 1 -20 9 -4 10 -1 13
7 9 6 -4 1 3 -12 14 -12 12 -28 18 -35 14 -6 -3 -8 -3 -4 1 8 9 -36 56 -52 56
-6 0 -8 5 -5 10 6 10 5 11 -33 15 -12 1 -26 6 -30 10 -4 5 1 5 11 2 9 -4 17
-2 17 3 0 9 -14 14 -32 11 -4 0 -5 6 -2 14 4 11 2 13 -9 9 -8 -3 -18 0 -23 7
-4 8 -3 10 4 5 8 -4 10 -2 6 8 -3 8 -12 12 -20 9 -10 -4 -17 2 -21 16 -3 11
-9 18 -14 15 -5 -3 -6 -11 -2 -17 4 -7 -1 -6 -11 2 -10 8 -15 23 -12 33 4 16
2 17 -10 7 -11 -9 -14 -9 -14 0 0 7 -5 9 -12 5 -7 -5 -9 -2 -5 9 4 10 2 14 -6
11 -7 -2 -21 3 -32 12 -11 8 -15 13 -8 10 6 -4 15 -2 18 4 4 6 3 10 -2 9 -24
-4 -43 2 -37 13 4 6 3 8 -4 4 -6 -3 -15 2 -21 11 -6 11 -11 13 -11 5 0 -7 -16
4 -37 25 -20 21 -30 30 -23 20 11 -15 11 -17 -4 -11 -9 3 -16 10 -16 16 0 5
-5 6 -12 2 -7 -5 -9 0 -6 14 4 15 2 19 -8 15 -8 -3 -11 -10 -8 -17 3 -6 -1 -3
-9 7 -8 9 -20 17 -26 17 -7 0 -9 4 -6 10 3 5 0 7 -8 4 -8 -3 -17 2 -21 11 -4
10 -12 15 -21 11 -9 -3 -18 1 -22 10 -3 8 -12 13 -19 10 -7 -3 -23 8 -35 25
-12 17 -23 28 -26 25 -6 -6 -99 39 -128 62 -12 10 -15 11 -7 2 6 -8 12 -19 12
-25 0 -5 -9 3 -19 18 -11 17 -20 24 -23 17 -2 -8 -8 -6 -18 6 -12 14 -12 16
-1 9 9 -5 12 -4 7 3 -5 8 -15 8 -33 1 -23 -9 -25 -8 -13 6 7 9 9 15 4 14 -25
-4 -42 3 -53 24 -6 12 -9 14 -7 4 5 -16 3 -16 -25 -2 -16 9 -34 13 -39 10 -6
-3 -10 -1 -10 5 0 6 -4 8 -10 5 -5 -3 -10 0 -10 8 0 10 -7 13 -20 10 -11 -3
-20 0 -20 6 0 6 -11 11 -24 11 -13 0 -29 7 -36 15 -9 11 -17 12 -31 4 -15 -7
-21 -6 -25 5 -3 8 -13 13 -22 11 -9 -1 -27 4 -40 12 -13 8 -30 12 -38 9 -8 -3
-17 1 -20 9 -4 8 -9 13 -13 10 -4 -2 -20 2 -35 10 -18 10 -24 10 -19 2 5 -9 3
-9 -9 0 -8 7 -18 10 -21 6 -4 -3 -7 -1 -7 5 0 7 -5 12 -11 12 -5 0 -7 -6 -4
-12 4 -7 0 -5 -8 4 -8 10 -17 15 -21 11 -10 -10 -46 -11 -40 -1 5 7 -10 12
-28 9 -5 0 -8 4 -8 9 0 7 -7 7 -21 -1 -17 -9 -20 -8 -14 2 6 9 2 11 -14 6 -13
-3 -24 0 -27 6 -2 7 -22 12 -44 11 -22 0 -40 3 -40 7 0 4 -18 6 -40 5 -22 0
-40 2 -40 5 0 4 -7 10 -16 13 -10 4 -13 2 -8 -7 6 -9 5 -9 -7 0 -8 6 -40 11
-72 11 -31 -1 -61 3 -65 7 -4 5 -1 5 7 0 10 -5 12 -4 7 4 -4 6 -11 9 -16 6 -5
-3 -11 -1 -14 4 -3 5 -21 5 -41 1 -20 -4 -35 -4 -35 1 0 5 -11 9 -24 9 -14 0
-35 4 -49 9 -13 5 -30 5 -37 1 -9 -5 -20 -4 -27 2 -9 7 -13 7 -13 0 0 -6 -13
-7 -34 -2 -19 4 -40 4 -47 -1 -7 -4 -19 -3 -26 3 -9 7 -13 7 -13 0 0 -6 -13
-7 -34 -2 -19 4 -40 4 -47 -1 -7 -4 -19 -3 -26 3 -9 7 -13 7 -13 0 0 -6 -13
-7 -34 -2 -19 4 -40 4 -47 -1 -7 -4 -19 -3 -26 3 -9 7 -13 7 -13 0 0 -6 -13
-7 -34 -2 -18 4 -41 3 -50 -2z m-1999 -821 c0 -8 -6 -14 -14 -14 -9 0 -10 4
-2 14 6 7 12 13 14 13 1 0 2 -6 2 -13z m-157 -140 c0 -2 -12 -14 -27 -28 -20
-18 -24 -19 -13 -4 18 24 40 42 40 32z m4877 -39 c-3 -8 -6 -5 -6 6 -1 11 2
17 5 13 3 -3 4 -12 1 -19z m228 -216 c-3 -3 -11 0 -18 7 -9 10 -8 11 6 5 10
-3 15 -9 12 -12z m-5511 -197 c-4 -8 -11 -12 -16 -9 -6 4 -5 10 3 15 19 12 19
11 13 -6z m6133 -3480 c0 -8 -4 -12 -9 -9 -5 3 -6 10 -3 15 9 13 12 11 12 -6z
m-6447 -345 c0 -5 -2 -10 -4 -10 -3 0 -8 5 -11 10 -3 6 -1 10 4 10 6 0 11 -4
11 -10z m357 -535 c0 -8 -4 -12 -9 -9 -5 3 -6 10 -3 15 9 13 12 11 12 -6z
m338 -373 c-3 -3 -11 0 -18 7 -9 10 -8 11 6 5 10 -3 15 -9 12 -12z"/>
<path d="M4710 7026 c0 -2 7 -7 16 -10 8 -3 12 -2 9 4 -6 10 -25 14 -25 6z"/>
<path d="M575 5549 c-4 -6 -5 -12 -2 -15 2 -3 7 2 10 11 7 17 1 20 -8 4z"/>
<path d="M6925 4920 c3 -5 8 -10 11 -10 2 0 4 5 4 10 0 6 -5 10 -11 10 -5 0
-7 -4 -4 -10z"/>
<path d="M6545 1621 c-3 -5 0 -13 6 -17 7 -4 9 -3 5 4 -3 5 0 13 6 15 9 4 10
6 1 6 -6 1 -14 -3 -18 -8z"/>
<path d="M6336 1333 c-6 -14 -5 -15 5 -6 7 7 10 15 7 18 -3 3 -9 -2 -12 -12z"/>
<path d="M1690 616 c0 -2 8 -10 18 -17 15 -13 16 -12 3 4 -13 16 -21 21 -21
13z"/>
</g>
</svg>
