<svg version="1.1" xmlns="http://www.w3.org/2000/svg" viewBox="0 0 10020 660" width="10020" height="660">
  <!-- svg-source:excalidraw -->
  
  <defs>
    <style>
      @font-face {
        font-family: "Virgil";
        src: url("https://excalidraw.com/Virgil.woff2");
      }
      @font-face {
        font-family: "Cascadia";
        src: url("https://excalidraw.com/Cascadia.woff2");
      }
    </style>
  </defs>
  <rect x="0" y="0" width="10020" height="660" fill="#fff0"></rect><g stroke-linecap="round" transform="translate(10 10) rotate(0 5000 0.5)"><path d="M-0.52 -0.26 C3022.65 -30.2, 6044.59 -29.2, 9999.32 0.22 M0.38 -0.31 C3948.03 -0.44, 7895.41 0.2, 9999.95 0.08 M10000.08 -0.06 C10000.09 0.27, 10000.05 0.48, 10000.09 0.92 M9999.97 0.01 C9999.95 0.33, 9999.98 0.72, 10000 0.99 M10000.22 1.51 C7095.77 35.76, 4193.15 34.95, -0.25 0.75 M10000.01 1.13 C7827.97 2.74, 5656.23 3.35, -0.33 0.84 M-0.04 1.01 C0 0.63, -0.06 0.15, 0.05 -0.03 M-0.04 0.95 C-0.04 0.73, -0.03 0.59, -0.05 -0.02" stroke="transparent" stroke-width="1" fill="none"></path></g><g stroke-linecap="round" transform="translate(530 590) rotate(0 30 30)"><path d="M30.05 -0.44 C36.39 -0.9, 45.7 2.14, 50.64 6.62 C55.59 11.11, 58.95 20.02, 59.73 26.45 C60.52 32.88, 58.57 39.94, 55.33 45.19 C52.1 50.44, 46.3 55.78, 40.33 57.96 C34.36 60.14, 25.56 60.61, 19.5 58.27 C13.45 55.93, 7.12 49.65, 3.98 43.91 C0.83 38.18, -0.49 30.12, 0.62 23.86 C1.74 17.6, 4.98 10.36, 10.67 6.37 C16.37 2.39, 30.14 0.84, 34.8 -0.05 C39.46 -0.95, 38.75 0.37, 38.64 1 M38.93 1.65 C45.05 2.96, 50.19 7.88, 53.92 12.78 C57.66 17.68, 62 24.78, 61.35 31.07 C60.7 37.36, 54.76 45.88, 50.02 50.51 C45.28 55.14, 38.93 58.33, 32.88 58.85 C26.83 59.38, 19.25 57.12, 13.72 53.65 C8.18 50.19, 1.71 44.24, -0.32 38.06 C-2.35 31.88, -1.46 22.37, 1.54 16.59 C4.54 10.81, 11.93 6.21, 17.7 3.38 C23.46 0.55, 32.89 0.15, 36.11 -0.39 C39.34 -0.93, 36.87 -0.74, 37.05 0.14" stroke="#000000" stroke-width="1" fill="none"></path></g></svg>