<svg width="240" height="140" version="1.1" viewBox="0 0 240 140" xmlns="http://www.w3.org/2000/svg" xmlns:xlink="http://www.w3.org/1999/xlink">
 <defs>
  <g id="h">
   <path d="m1.5781-4.3125h-1.1094v6.0625h1.1094v-2.2656c.28125.48438.65625.70312 1.2031.70312 1.0469 0 1.8125-.96875 1.8125-2.2812 0-.60938-.17188-1.2188-.46875-1.625-.28125-.40625-.82812-.67188-1.3438-.67188-.54688 0-.92188.23438-1.2031.70312zm.95312.85938c.5625 0 .9375.54688.9375 1.375 0 .79688-.375 1.3281-.9375 1.3281-.57812 0-.95312-.53125-.95312-1.3438s.375-1.3594.95312-1.3594z"/>
  </g>
  <g id="e">
   <path d="m.5-4.3125v4.3125h1.125v-2.2969c0-.65625.32812-.98438.98438-.98438.125 0 .20312.015625.34375.03125v-1.1406h-.125c-.51562 0-.95312.32812-1.2031.92188v-.84375z"/>
  </g>
  <g id="d">
   <path d="m2.4062-4.3906c-1.3125 0-2.125.875-2.125 2.2812 0 1.4219.8125 2.2969 2.1406 2.2969 1.3125 0 2.125-.875 2.125-2.2656 0-1.4531-.78125-2.3125-2.1406-2.3125zm.015625.90625c.60938 0 1.0156.54688 1.0156 1.3906 0 .8125-.42188 1.375-1.0156 1.375-.60938 0-1.0156-.54688-1.0156-1.3906 0-.82812.40625-1.375 1.0156-1.375z"/>
  </g>
  <g id="a">
   <path d="m4.1719-2.7031c-.078125-1.0625-.76562-1.6875-1.8594-1.6875-1.2969 0-2.0469.84375-2.0469 2.3125 0 1.4375.75 2.2656 2.0312 2.2656 1.0469 0 1.7812-.65625 1.875-1.6875h-1.0625c-.14062.5625-.35938.78125-.8125.78125-.5625 0-.90625-.5-.90625-1.3594 0-.40625.078125-.78125.21875-1.0469.125-.23438.375-.35938.6875-.35938.46875 0 .67188.21875.8125.78125z"/>
  </g>
  <g id="c">
   <path d="m4.1875-1.8125c.015625-.09375.015625-.125.015625-.1875 0-.4375-.0625-.82812-.17188-1.1406-.28125-.78125-.98438-1.25-1.8594-1.25-1.2344 0-2 .89062-2 2.3438 0 1.3906.75 2.2344 1.9844 2.2344.96875 0 1.75-.54688 2-1.4062h-1.1094c-.14062.34375-.45312.54688-.85938.54688-.3125 0-.57812-.14062-.73438-.375-.09375-.15625-.14062-.35938-.15625-.76562zm-2.875-.73438c.078125-.67188.34375-.98438.84375-.98438.51562 0 .8125.34375.875.98438z"/>
  </g>
  <g id="b">
   <path d="m4.0469-2.9219c-.015625-.92188-.73438-1.4688-1.8906-1.4688-1.0938 0-1.7656.54688-1.7656 1.4375 0 .29688.078125.53125.23438.70312.15625.15625.28125.21875.70312.35938l1.3281.42188c.28125.078125.39062.17188.39062.34375 0 .26562-.3125.42188-.84375.42188-.29688 0-.51562-.046875-.65625-.14062-.125-.09375-.17188-.1875-.21875-.40625h-1.0938c.03125.95312.71875 1.4375 2.0312 1.4375.60938 0 1.0625-.125 1.375-.39062.32812-.25.51562-.65625.51562-1.0781 0-.5625-.28125-.92188-.84375-1.0938l-1.4219-.40625c-.3125-.09375-.39062-.15625-.39062-.32812 0-.25.26562-.40625.65625-.40625.53125 0 .79688.20312.79688.59375z"/>
  </g>
  <g id="j">
   <path d="m1.9062-3.9062v3.9062h1.125v-5.6719h-.75c-.17188.67188-.76562 1.0156-1.7344 1.0156v.75z"/>
  </g>
  <g id="i">
   <path d="m4.0938-1h-2.4062c.15625-.29688.32812-.46875 1.1562-1.0781.98438-.71875 1.2812-1.1406 1.2812-1.9062 0-1.1094-.76562-1.8125-1.9531-1.8125-1.1719 0-1.8594.70312-1.8594 1.9062v.1875h1.0781v-.17188c0-.64062.29688-1 .8125-1 .5 0 .79688.34375.79688.90625 0 .625-.1875.85938-1.4531 1.7656-.96875.65625-1.2656 1.1406-1.3125 2.2031h3.8594z"/>
  </g>
  <g id="f">
   <path d="m4.1875-.14062c-.1875-.17188-.25-.3125-.25-.51562v-2.4062c0-.875-.59375-1.3281-1.7656-1.3281s-1.7812.5-1.8594 1.5h1.0938c.046875-.45312.23438-.59375.78125-.59375.4375 0 .65625.14062.65625.42188 0 .15625-.078125.26562-.20312.34375-.14062.078125-.14062.078125-.70312.17188l-.4375.078125c-.85938.14062-1.2812.57812-1.2812 1.3594 0 .76562.53125 1.2969 1.3125 1.2969.48438 0 .92188-.20312 1.3125-.625 0 .23438.03125.3125.125.4375h1.2188zm-1.3438-1.5938c0 .64062-.32812 1.0156-.89062 1.0156-.375 0-.60938-.20312-.60938-.51562 0-.34375.17188-.5.64062-.59375l.39062-.078125c.28125-.046875.34375-.0625.46875-.14062z"/>
  </g>
  <g id="g">
   <path d="m.53125-5.8281v5.8281h1.125v-2.5938c0-.5.35938-.84375.85938-.84375.25 0 .4375.078125.5625.26562.10938.14062.125.26562.125.53125v2.6406h1.125v-2.8906c0-.54688-.14062-.92188-.4375-1.1719-.25-.20312-.60938-.32812-.96875-.32812-.54688 0-.95312.21875-1.2656.6875v-2.125z"/>
  </g>
  <g id="l">
   <path d="m3.1562-4.3125-.90625 3.1406-.95312-3.1406h-1.2188l1.6094 4.4844c0 .45312-.28125.75-.70312.75-.09375 0-.15625-.015625-.29688-.046875v.84375c.17188.03125.26562.03125.40625.03125.28125 0 .60938-.046875.79688-.14062.3125-.125.45312-.29688.64062-.8125l1.7656-5.1094z"/>
  </g>
  <g id="n">
   <path d="m1.6562-4.3125h-1.125v4.3125h1.125zm0-1.5156h-1.125v1h1.125z"/>
  </g>
  <g id="m">
   <path d="m1.6562-5.8281h-1.125v5.8281h1.125z"/>
  </g>
  <g id="k">
   <path d="m.48438-4.3125v4.3125h1.1094v-2.5938c0-.53125.29688-.84375.78125-.84375.375 0 .59375.21875.59375.5625v2.875h1.125v-2.5938c0-.53125.29688-.84375.76562-.84375.375 0 .60938.21875.60938.5625v2.875h1.125v-3.0625c0-.82812-.51562-1.3281-1.375-1.3281-.5625 0-.9375.1875-1.2656.64062-.20312-.40625-.64062-.64062-1.1719-.64062-.5 0-.82812.15625-1.1875.60938v-.53125z"/>
  </g>
 </defs>
 <g fill="none" stroke="#000" stroke-linecap="round" stroke-miterlimit="10" stroke-width=".66667">
  <path d="m38.621 50.528v-43.199"/>
  <path d="m38.621 7.3288h50.398"/>
  <path d="m89.019 7.3288v43.199"/>
  <path d="m89.019 50.528h-50.398"/>
 </g>
 <g transform="translate(-168.38 -58.671)" fill="#00ffff">
  <use x="212.8" y="83.199997" xlink:href="#h"/>
  <use x="217.688" y="83.199997" xlink:href="#e"/>
  <use x="220.8" y="83.199997" xlink:href="#d"/>
  <use x="225.688" y="83.199997" xlink:href="#a"/>
  <use x="230.136" y="83.199997" xlink:href="#c"/>
  <use x="234.584" y="83.199997" xlink:href="#b"/>
  <use x="239.032" y="83.199997" xlink:href="#b"/>
  <use x="243.48" y="83.199997" xlink:href="#d"/>
  <use x="248.368" y="83.199997" xlink:href="#e"/>
  <use x="230" y="95.199997" xlink:href="#j"/>
 </g>
 <g fill="none" stroke="#000" stroke-linecap="round" stroke-miterlimit="10" stroke-width=".66667">
  <path d="m150.22 50.528v-43.199"/>
  <path d="m150.22 7.3288h50.398"/>
  <path d="m200.62 7.3288v43.199"/>
  <path d="m200.62 50.528h-50.398"/>
 </g>
 <g transform="translate(-168.38 -58.671)" fill="#007fff">
  <use x="324.39999" y="83.199997" xlink:href="#h"/>
  <use x="329.28799" y="83.199997" xlink:href="#e"/>
  <use x="332.39999" y="83.199997" xlink:href="#d"/>
  <use x="337.28799" y="83.199997" xlink:href="#a"/>
  <use x="341.73599" y="83.199997" xlink:href="#c"/>
  <use x="346.18399" y="83.199997" xlink:href="#b"/>
  <use x="350.63199" y="83.199997" xlink:href="#b"/>
  <use x="355.07999" y="83.199997" xlink:href="#d"/>
  <use x="359.96799" y="83.199997" xlink:href="#e"/>
  <use x="341.60001" y="95.199997" xlink:href="#i"/>
 </g>
 <g fill="none" stroke="#000" stroke-linecap="round" stroke-miterlimit="10" stroke-width=".66667">
  <path d="m38.621 85.028v-14.398"/>
  <path d="m38.621 70.63h50.398"/>
  <path d="m89.019 70.63v14.398"/>
  <path d="m89.019 85.028h-50.398"/>
 </g>
 <g transform="translate(-168.38 -58.671)" fill="#ff6600">
  <use x="217.39999" y="138.10001" xlink:href="#a"/>
  <use x="221.84801" y="138.10001" xlink:href="#f"/>
  <use x="226.29601" y="138.10001" xlink:href="#a"/>
  <use x="230.744" y="138.10001" xlink:href="#g"/>
  <use x="235.632" y="138.10001" xlink:href="#c"/>
  <use x="242.49998" y="138.10001" xlink:href="#j"/>
 </g>
 <g fill="none" stroke="#000" stroke-linecap="round" stroke-miterlimit="10" stroke-width=".66667">
  <path d="m150.22 85.028v-14.398"/>
  <path d="m150.22 70.63h50.398"/>
  <path d="m200.62 70.63v14.398"/>
  <path d="m200.62 85.028h-50.398"/>
 </g>
 <g transform="translate(-168.38 -58.671)" fill="#ff00ff">
  <use x="329" y="138.10001" xlink:href="#a"/>
  <use x="333.448" y="138.10001" xlink:href="#f"/>
  <use x="337.896" y="138.10001" xlink:href="#a"/>
  <use x="342.34399" y="138.10001" xlink:href="#g"/>
  <use x="347.23199" y="138.10001" xlink:href="#c"/>
  <use x="354.10001" y="138.10001" xlink:href="#i"/>
 </g>
 <g fill="none" stroke="#000" stroke-linecap="round" stroke-miterlimit="10" stroke-width=".66667">
  <path d="m4.4214 134.03v-28.801"/>
  <path d="m4.4214 105.23h230.4"/>
  <path d="m234.82 105.23v28.801"/>
  <path d="m234.82 134.03h-230.4"/>
 </g>
 <g transform="translate(-168.38 -58.671)" fill="#00ff00">
  <use x="255.2" y="179.89999" xlink:href="#h"/>
  <use x="260.08801" y="179.89999" xlink:href="#g"/>
  <use x="264.97601" y="179.89999" xlink:href="#l"/>
  <use x="269.42401" y="179.89999" xlink:href="#b"/>
  <use x="273.87201" y="179.89999" xlink:href="#n"/>
  <use x="276.09601" y="179.89999" xlink:href="#a"/>
  <use x="280.54401" y="179.89999" xlink:href="#f"/>
  <use x="284.992" y="179.89999" xlink:href="#m"/>
  <use x="289.60001" y="179.89999" xlink:href="#k"/>
  <use x="296.71201" y="179.89999" xlink:href="#c"/>
  <use x="301.16" y="179.89999" xlink:href="#k"/>
  <use x="308.272" y="179.89999" xlink:href="#d"/>
  <use x="313.16" y="179.89999" xlink:href="#e"/>
  <use x="316.272" y="179.89999" xlink:href="#l"/>
 </g>
 <g fill="none" stroke="#000" stroke-linecap="round" stroke-miterlimit="10" stroke-width=".66667">
  <path d="m65.621 57.727-1.8008-7.1992"/>
  <path d="m65.019 57.829-1.1992-7.3008"/>
  <path d="m64.32 57.93-.5-7.4023"/>
  <path d="m63.82 57.93v-7.4023"/>
  <path d="m63.222 57.93.5-7.4023"/>
  <path d="m62.519 57.829 1.2031-7.3008"/>
  <path d="m62.019 57.727 1.8008-7.1992"/>
  <path d="m63.82 50.528v20.102"/>
  <path d="m62.019 63.43 1.8008 7.1992"/>
  <path d="m62.519 63.329 1.2031 7.3008"/>
  <path d="m63.222 63.227.5 7.4023"/>
  <path d="m63.82 63.227v7.4023"/>
  <path d="m64.32 63.227-.5 7.4023"/>
  <path d="m65.019 63.329-1.1992 7.3008"/>
  <path d="m65.621 63.43-1.8008 7.1992"/>
  <path d="m177.22 57.727-1.8008-7.1992"/>
  <path d="m176.62 57.829-1.1992-7.3008"/>
  <path d="m175.92 57.93-.5-7.4023"/>
  <path d="m175.42 57.93v-7.4023"/>
  <path d="m174.82 57.93.5-7.4023"/>
  <path d="m174.12 57.829 1.1992-7.3008"/>
  <path d="m173.62 57.727 1.8008-7.1992"/>
  <path d="m175.42 50.528v20.102"/>
  <path d="m173.62 63.43 1.8008 7.1992"/>
  <path d="m174.12 63.329 1.1992 7.3008"/>
  <path d="m174.82 63.227.5 7.4023"/>
  <path d="m175.42 63.227v7.4023"/>
  <path d="m175.92 63.227-.5 7.4023"/>
  <path d="m176.62 63.329-1.1992 7.3008"/>
  <path d="m177.22 63.43-1.8008 7.1992"/>
  <path d="m65.621 92.227-1.8008-7.1992"/>
  <path d="m65.019 92.43-1.1992-7.3008"/>
  <path d="m64.32 92.43-.5-7.4023"/>
  <path d="m63.82 92.43v-7.4023"/>
  <path d="m63.222 92.43.5-7.4023"/>
  <path d="m62.519 92.43 1.2031-7.3008"/>
  <path d="m62.019 92.227 1.8008-7.1992"/>
  <path d="m63.82 85.028v20.102"/>
  <path d="m62.019 98.028 1.8008 7.1992"/>
  <path d="m62.519 97.829 1.2031 7.3008"/>
  <path d="m63.222 97.829.5 7.3984"/>
  <path d="m63.82 97.829v7.3984"/>
  <path d="m64.32 97.829-.5 7.3984"/>
  <path d="m65.019 97.829-1.1992 7.3008"/>
  <path d="m65.621 98.028-1.8008 7.1992"/>
  <path d="m177.22 92.227-1.8008-7.1992"/>
  <path d="m176.62 92.43-1.1992-7.3008"/>
  <path d="m175.92 92.43-.5-7.4023"/>
  <path d="m175.42 92.43v-7.4023"/>
  <path d="m174.82 92.43.5-7.4023"/>
  <path d="m174.12 92.43 1.1992-7.3008"/>
  <path d="m173.62 92.227 1.8008-7.1992"/>
  <path d="m175.42 85.028v20.102"/>
  <path d="m173.62 98.028 1.8008 7.1992"/>
  <path d="m174.12 97.829 1.1992 7.3008"/>
  <path d="m174.82 97.829.5 7.3984"/>
  <path d="m175.42 97.829v7.3984"/>
  <path d="m175.92 97.829-.5 7.3984"/>
  <path d="m176.62 97.829-1.1992 7.3008"/>
  <path d="m177.22 98.028-1.8008 7.1992"/>
 </g>
</svg>
