<svg width="230" height="80" version="1.1" viewBox="0 0 230 80" xmlns="http://www.w3.org/2000/svg" xmlns:xlink="http://www.w3.org/1999/xlink">
 <defs>
  <g id="q">
   <path d="m1.9062-3.9062v3.9062h1.125v-5.6719h-.75c-.17188.67188-.76562 1.0156-1.7344 1.0156v.75z"/>
  </g>
  <g id="c">
   <path d="m2.1875-5.7969c-.60938 0-1.125.26562-1.4688.73438-.32812.4375-.48438 1.1562-.48438 2.2656 0 1 .125 1.7031.39062 2.1406.34375.54688.89062.84375 1.5625.84375.60938 0 1.1094-.25 1.4688-.71875.3125-.4375.48438-1.1719.48438-2.2344 0-1.0469-.125-1.75-.40625-2.1875-.32812-.54688-.89062-.84375-1.5469-.84375zm0 .90625c.28125 0 .51562.15625.65625.45312.10938.25.17188.85938.17188 1.6406 0 .64062-.0625 1.2656-.14062 1.5-.125.34375-.375.51562-.6875.51562-.29688 0-.53125-.14062-.65625-.4375-.10938-.23438-.17188-.82812-.17188-1.5938 0-.67188.046875-1.3125.14062-1.5469.10938-.34375.35938-.53125.6875-.53125z"/>
  </g>
  <g id="i">
   <path d="m1.7188-1.1719h-1.2031v1.1719h1.2031z"/>
  </g>
  <g id="p">
   <path d="m-.0625 0h2.25c1.2656 0 2.125-.64062 2.125-1.5938 0-.59375-.25-.89062-1.0156-1.2188.57812-.125.8125-.23438 1.0625-.45312.21875-.1875.34375-.46875.34375-.78125 0-.76562-.5625-1.1719-1.5938-1.1719h-2.0625v.125c.5.03125.60938.09375.60938.32812 0 .125-.03125.3125-.09375.51562l-.98438 3.5312c-.14062.46875-.1875.51562-.64062.59375zm1.9688-2.6406c.51562 0 .85938.03125 1.0156.09375.32812.125.53125.46875.53125.92188 0 .85938-.59375 1.3906-1.5781 1.3906-.32812 0-.5-.125-.5-.34375 0-.10938.09375-.48438.26562-1.125.10938-.34375.17188-.57812.26562-.9375zm.59375-2.125c.046875-.17188.14062-.21875.45312-.21875.65625 0 .9375.26562.9375.85938 0 .46875-.1875.82812-.53125 1.0156-.26562.15625-.65625.21875-1.375.20312z"/>
  </g>
  <g id="r">
   <path d="m.125-3.2031c.09375-.015625.15625-.03125.25-.03125.32812 0 .46875.125.64062.5625.20312.59375.625 2.2969.625 2.6094 0 .125-.0625.25-.17188.40625-.21875.29688-.40625.51562-.5.625-.17188.17188-.25.23438-.35938.23438-.0625 0-.10938-.015625-.1875-.078125-.125-.09375-.20312-.14062-.29688-.14062-.1875 0-.3125.14062-.3125.3125 0 .20312.15625.34375.40625.34375.51562 0 1.5469-1.1875 2.4219-2.7812.54688-.98438.76562-1.5625.76562-1.9531 0-.23438-.20312-.4375-.4375-.4375-.1875 0-.3125.125-.3125.29688 0 .125.0625.20312.21875.3125.15625.09375.21875.15625.21875.28125 0 .3125-.29688.92188-.98438 2.0625l-.15625-.92188c-.125-.71875-.5625-2.0312-.6875-2.0312h-.03125c-.015625.015625-.046875.015625-.078125.015625-.0625 0-.35938.046875-.78125.125-.03125.015625-.14062.03125-.25.046875z"/>
  </g>
  <g id="k">
   <path d="m2.375-3.4219h-.64062l.21875-.82812v-.046875c0-.046875-.015625-.078125-.0625-.078125s-.0625.015625-.10938.078125c-.3125.40625-.8125.8125-1.0625.875-.20312.0625-.26562.125-.26562.20312 0 .015625 0 .03125.015625.046875h.59375l-.57812 2.2031c-.015625.078125-.03125.10938-.046875.17188-.078125.26562-.14062.51562-.14062.59375 0 .15625.17188.29688.39062.29688.35938 0 .625-.23438 1.125-.96875l-.09375-.0625c-.40625.5-.53125.64062-.65625.64062-.078125 0-.125-.0625-.125-.17188l.015625-.03125.70312-2.6719h.67188z"/>
  </g>
  <g id="d">
   <path d="m2.8594-.875c-.57812.46875-.8125.60938-1.1719.60938-.45312 0-.75-.29688-.75-.73438 0-.125.015625-.23438.09375-.48438l.21875-.03125c1.2031-.17188 2.0469-.78125 2.0469-1.4688 0-.32812-.23438-.54688-.64062-.54688-1.1562 0-2.4062 1.3125-2.4062 2.5156 0 .65625.4375 1.1094 1.0469 1.1094.57812 0 1.1875-.32812 1.6562-.875zm-1.6406-1.1406c.26562-.71875.85938-1.3281 1.2656-1.3281.17188 0 .28125.125.28125.3125 0 .25-.15625.53125-.39062.78125-.29688.28125-.60938.42188-1.2969.59375z"/>
  </g>
  <g id="j">
   <path d="m4.5156-.125c-.45312-.046875-.5-.10938-.60938-.6875l-.75-4.5312h-.21875l-2.3125 4c-.64062 1.0625-.71875 1.1562-1.0312 1.2188v.125h1.5v-.125c-.40625-.046875-.48438-.078125-.48438-.28125 0-.15625.03125-.21875.17188-.5l.45312-.90625h1.75l.17188 1.0469c0 .078125.015625.15625.015625.21875 0 .29688-.10938.375-.625.42188v.125h1.9688zm-3.1094-1.9688 1.1875-2.0781.35938 2.0781z"/>
  </g>
  <g id="b">
   <path d="m3.7031-.89062c-.4375.5-.51562.57812-.65625.57812-.078125 0-.14062-.078125-.14062-.17188 0-.125.25-1.0625.51562-1.9688.1875-.64062.34375-1.2188.79688-2.9688l-.046875-.046875c-.40625.09375-.70312.14062-1.2188.1875v.14062c.4375.015625.5.03125.5.20312 0 .10938-.015625.14062-.125.5625l-.35938 1.3125c-.0625-.34375-.20312-.46875-.51562-.46875-1.0312 0-2.3281 1.5-2.3281 2.7031 0 .57812.3125.92188.82812.92188.54688 0 .90625-.26562 1.4531-1.0625-.09375.40625-.10938.53125-.10938.71875 0 .20312.14062.35938.32812.35938.34375 0 .76562-.32812 1.1719-.92188zm-1.2188-2.4531c.25.015625.35938.17188.35938.45312 0 1.2188-.82812 2.5938-1.5625 2.5938-.28125 0-.46875-.20312-.46875-.53125 0-.65625.40625-1.5938.9375-2.1406.21875-.23438.51562-.39062.73438-.375z"/>
  </g>
  <g id="f">
   <path d="m.96875 0c.42188-1.375.54688-1.7031.92188-2.3125.26562-.45312.48438-.70312.625-.70312.046875 0 .078125.046875.125.125.0625.125.125.17188.28125.17188.25 0 .375-.14062.375-.40625 0-.23438-.15625-.40625-.375-.40625-.1875 0-.40625.125-.60938.34375-.32812.34375-.65625.79688-.78125 1.125l-.10938.28125.42188-1.7344-.015625-.015625c-.59375.10938-.65625.125-1.25.21875v.14062c.1875-.03125.21875-.046875.28125-.046875.17188 0 .28125.078125.28125.23438 0 .10938 0 .10938-.125.64062l-.65625 2.3438z"/>
  </g>
  <g id="a">
   <path d="m.28125-1.1719-.15625 1.2812h.125c.078125-.14062.10938-.17188.20312-.17188.078125 0 .23438.03125.39062.078125.1875.046875.29688.078125.4375.078125.67188 0 1.1562-.4375 1.1562-1.0469 0-.3125-.17188-.65625-.54688-1.125-.3125-.375-.4375-.625-.4375-.84375 0-.26562.17188-.42188.45312-.42188.40625 0 .65625.29688.73438.92188h.125l.15625-1.1094h-.10938c-.0625.10938-.10938.14062-.23438.14062-.0625 0-.14062-.015625-.29688-.0625-.1875-.0625-.3125-.078125-.4375-.078125-.59375 0-.96875.34375-.96875.89062 0 .25.17188.59375.5 1.0312.3125.40625.45312.6875.45312.90625 0 .375-.25.625-.59375.625-.45312 0-.6875-.32812-.8125-1.0938z"/>
  </g>
  <g id="e">
   <path d="m.046875 1.0312c.67188-.375 1.0312-.82812 1.0312-1.2656 0-.32812-.20312-.57812-.46875-.57812-.21875 0-.40625.17188-.40625.375 0 .15625.046875.23438.20312.35938.125.125.15625.1875.15625.26562 0 .21875-.17188.42188-.59375.70312z"/>
  </g>
  <g id="h">
   <path d="m1.2656 1.4062c-.29688-.82812-.375-1.3125-.375-2.0938 0-.95312.21875-2.1094.59375-3 .26562-.625.51562-1 1.0312-1.5469l-.09375-.125c-1.0469.95312-1.4531 1.4844-1.7969 2.3125-.20312.5-.28125.98438-.28125 1.6094 0 .60938.09375 1.2188.26562 1.7656.10938.32812.23438.59375.51562 1.125z"/>
  </g>
  <g id="o">
   <path d="m.39062 0h2.2344v-.125h-.14062c-.39062 0-.54688-.0625-.54688-.25 0-.078125.015625-.1875.09375-.42188.015625-.046875.03125-.09375.046875-.17188l1.1406-4.1562c.046875-.14062.046875-.1875.046875-.23438 0-.03125-.015625-.046875-.03125-.046875 0 0-.21875.03125-.65625.125l-.71875.14062c-.015625.015625-.078125.015625-.17188.03125v.125l.45312-.015625c.1875-.015625.3125.09375.3125.25 0 .046875-.015625.10938-.0625.26562l-1.1094 3.9375c-.09375.29688-.25.375-.89062.4375z"/>
  </g>
  <g id="u">
   <path d="m4.2969-5.25-.046875-.078125h-3l-.65625 1.0938.125.0625c.35938-.4375.57812-.5625 1.0625-.57812h1.7656l.015625.03125-2.9375 4.7812h.5625z"/>
  </g>
  <g id="g">
   <path d="m.23438 1.4375c.98438-.85938 1.3906-1.375 1.75-2.25.23438-.53125.32812-1.0312.32812-1.625 0-.45312-.0625-.96875-.17188-1.4375-.14062-.54688-.26562-.84375-.625-1.4844l-.14062.046875c.26562.65625.39062 1.2969.39062 2.0938 0 1.0156-.28125 2.3125-.67188 3.1719-.23438.51562-.48438.85938-.96875 1.3594z"/>
  </g>
  <g id="n">
   <path d="m7.25-5.2188h-1.4844v.125c.4375.03125.51562.09375.51562.3125 0 .14062-.046875.32812-.15625.54688l-1.5 2.9375-.32812-3.2188v-.10938c0-.32812.10938-.4375.54688-.46875v-.125h-1.9062v.125c.46875.015625.54688.0625.59375.46875l.078125.54688-1.375 2.7812-.35938-3.25v-.10938c0-.3125.09375-.39062.57812-.4375v-.125h-1.8906v.125c.26562.03125.34375.046875.40625.125.10938.09375.14062.23438.23438.98438l.5 4.125h.14062l1.7812-3.625h.03125l.40625 3.625h.15625l2.4219-4.6562c.21875-.40625.29688-.48438.60938-.57812z"/>
  </g>
  <g id="t">
   <path d="m2.5938-3.5312c-.34375 0-.65625.09375-.98438.26562-.8125.46875-1.3906 1.3906-1.3906 2.2344 0 .6875.4375 1.125 1.1719 1.125.53125 0 1.0469-.23438 1.5-.70312.53125-.51562.85938-1.1875.85938-1.7969 0-.67188-.46875-1.125-1.1562-1.125zm-.09375.17188c.34375 0 .57812.29688.57812.75 0 .59375-.26562 1.3906-.625 1.9062-.29688.42188-.59375.625-.9375.625-.375 0-.625-.29688-.625-.73438 0-.59375.23438-1.2969.625-1.8594.3125-.45312.64062-.6875.98438-.6875z"/>
  </g>
  <g id="s">
   <path d="m3.625-1.9219h-.76562l.96875-3.4844h-.32812l-3.3281 3.4531-.15625.53125h2.0938l-.39062 1.4219h.625l.375-1.4062h.79688zm-1.4062 0h-1.7031v-.03125l2.4375-2.5469h.03125z"/>
  </g>
  <g id="m">
   <path d="m3.7969-5.3281c-.67188 0-1.3906.3125-2.0312.90625-.8125.73438-1.2812 1.7188-1.2812 2.6562 0 1.125.71875 1.9062 1.7344 1.9062 1.6719 0 3.2812-1.6719 3.375-3.4844.046875-1.125-.71875-1.9844-1.7969-1.9844zm-.078125.26562c.64062 0 1.0312.46875 1.0312 1.2188 0 .85938-.375 2.0312-.89062 2.7812-.4375.625-.9375.9375-1.5.9375-.67188 0-1.0469-.46875-1.0469-1.3438 0-.76562.40625-1.9531.89062-2.6406.4375-.65625.9375-.95312 1.5156-.95312z"/>
  </g>
  <g id="l">
   <path d="m.28125-3.1719h.71875l-.70312 3.3594c-.17188.85938-.4375 1.2969-.78125 1.2969-.09375 0-.15625-.046875-.15625-.125 0-.03125.015625-.046875.03125-.09375.03125-.046875.046875-.078125.046875-.125 0-.17188-.15625-.29688-.3125-.29688-.17188 0-.29688.14062-.29688.32812 0 .28125.26562.48438.625.48438.71875 0 1.2656-.78125 1.6094-2.2656l.5625-2.5625h.875l.046875-.25h-.85938c.23438-1.2656.53125-1.8281.96875-1.8281.125 0 .1875.046875.1875.10938 0 .015625-.015625.03125-.03125.0625-.046875.0625-.046875.10938-.046875.17188 0 .1875.10938.32812.29688.32812.17188 0 .32812-.15625.32812-.32812 0-.29688-.29688-.51562-.6875-.51562s-.70312.17188-.98438.54688c-.25.3125-.40625.6875-.64062 1.4531h-.73438z"/>
  </g>
 </defs>
 <g fill="none" stroke="#000" stroke-linecap="round" stroke-miterlimit="10">
  <g stroke-width=".66667">
   <path d="m7.3464 47.582v-18"/>
   <path d="m7.3464 29.582h216"/>
   <path d="m223.35 29.582v18"/>
   <path d="m223.35 47.582h-216"/>
  </g>
  <path d="m180.15 29.582v18" stroke-width=".58333"/>
 </g>
 <g transform="translate(-172.65 -54.418)" fill="#00ff00">
  <use x="383" y="96.400002" xlink:href="#q"/>
  <use x="361.39999" y="96.400002" xlink:href="#c"/>
 </g>
 <g transform="translate(-172.65 -54.418)" fill="#ff6600">
  <use x="339.79999" y="96.400002" xlink:href="#c"/>
  <use x="318.20001" y="96.400002" xlink:href="#c"/>
  <use x="296.60001" y="96.400002" xlink:href="#q"/>
  <use x="275" y="96.400002" xlink:href="#c"/>
  <use x="188.60001" y="96.400002" xlink:href="#c"/>
  <use x="232.89999" y="96.400002" xlink:href="#i"/>
  <use x="243.7" y="96.400002" xlink:href="#i"/>
  <use x="222.10001" y="96.400002" xlink:href="#i"/>
 </g>
 <g fill="none" stroke="#000" stroke-linecap="round" stroke-miterlimit="10" stroke-width=".66667">
  <path d="m12.745 20.582c-2.9805 0-5.3984 2.418-5.3984 5.3984"/>
  <path d="m12.745 20.582h97.203"/>
  <path d="m109.95 20.582c2.9805 0 5.3984-2.418 5.3984-5.3984"/>
  <path d="m115.35 15.183c0 2.9805 2.418 5.3984 5.3984 5.3984"/>
  <path d="m120.74 20.582h97.203"/>
  <path d="m223.35 25.98c0-2.9805-2.418-5.3984-5.3984-5.3984"/>
  <path d="m7.3464 51.183c0 2.9805 2.418 5.3984 5.3984 5.3984"/>
  <path d="m12.745 56.582h97.203"/>
  <path d="m115.35 61.98c0-2.9805-2.418-5.3984-5.3984-5.3984"/>
  <path d="m120.74 56.582c-2.9805 0-5.3984 2.418-5.3984 5.3984"/>
  <path d="m120.74 56.582h54"/>
  <path d="m174.74 56.582c2.9844 0 5.4023-2.418 5.4023-5.3984"/>
  <path d="m180.15 51.183c0 2.9805 2.418 5.3984 5.3984 5.3984"/>
  <path d="m185.55 56.582h10.801"/>
  <path d="m201.74 61.98c0-2.9805-2.418-5.3984-5.3984-5.3984"/>
  <path d="m207.15 56.582c-2.9844 0-5.4023 2.418-5.4023 5.3984"/>
  <path d="m207.15 56.582h10.801"/>
  <path d="m217.95 56.582c2.9805 0 5.3984-2.418 5.3984-5.3984"/>
 </g>
 <g transform="translate(-172.65 -54.418)">
  <use x="254.5" y="67.599998" xlink:href="#p"/>
  <use x="259.388" y="67.599998" xlink:href="#r"/>
  <use x="262.94" y="67.599998" xlink:href="#k"/>
  <use x="265.164" y="67.599998" xlink:href="#d"/>
  <use x="271" y="67.599998" xlink:href="#j"/>
  <use x="275.888" y="67.599998" xlink:href="#b"/>
  <use x="279.888" y="67.599998" xlink:href="#b"/>
  <use x="283.888" y="67.599998" xlink:href="#f"/>
  <use x="287" y="67.599998" xlink:href="#d"/>
  <use x="290.552" y="67.599998" xlink:href="#a"/>
  <use x="293.664" y="67.599998" xlink:href="#a"/>
  <use x="296.776" y="67.599998" xlink:href="#e"/>
  <use x="301.10001" y="67.599998" xlink:href="#p"/>
  <use x="308.40002" y="67.599998" xlink:href="#h"/>
  <use x="311.06403" y="67.599998" xlink:href="#o"/>
  <use x="315.06403" y="67.599998" xlink:href="#u"/>
  <use x="319.06403" y="67.599998" xlink:href="#g"/>
  <use x="253.8" y="126.6" xlink:href="#n"/>
  <use x="260.46399" y="126.6" xlink:href="#t"/>
  <use x="264.46399" y="126.6" xlink:href="#f"/>
  <use x="267.57599" y="126.6" xlink:href="#b"/>
  <use x="273.89999" y="126.6" xlink:href="#j"/>
  <use x="278.78799" y="126.6" xlink:href="#b"/>
  <use x="282.78799" y="126.6" xlink:href="#b"/>
  <use x="286.78799" y="126.6" xlink:href="#f"/>
  <use x="289.89999" y="126.6" xlink:href="#d"/>
  <use x="293.452" y="126.6" xlink:href="#a"/>
  <use x="296.564" y="126.6" xlink:href="#a"/>
  <use x="299.67599" y="126.6" xlink:href="#e"/>
  <use x="304" y="126.6" xlink:href="#n"/>
  <use x="313" y="126.6" xlink:href="#h"/>
  <use x="315.664" y="126.6" xlink:href="#s"/>
  <use x="319.664" y="126.6" xlink:href="#g"/>
  <use x="354" y="126.6" xlink:href="#m"/>
  <use x="359.776" y="126.6" xlink:href="#l"/>
  <use x="362" y="126.6" xlink:href="#l"/>
  <use x="364.224" y="126.6" xlink:href="#a"/>
  <use x="367.336" y="126.6" xlink:href="#d"/>
  <use x="370.888" y="126.6" xlink:href="#k"/>
  <use x="373.112" y="126.6" xlink:href="#e"/>
  <use x="377.39999" y="126.6" xlink:href="#m"/>
  <use x="385.60001" y="126.6" xlink:href="#h"/>
  <use x="388.26401" y="126.6" xlink:href="#o"/>
  <use x="392.26401" y="126.6" xlink:href="#g"/>
 </g>
</svg>
