<svg width="335" height="30" version="1.1" viewBox="0 0 335 30" xmlns="http://www.w3.org/2000/svg" xmlns:xlink="http://www.w3.org/1999/xlink">
 <defs>
  <g id="c">
   <path d="m.5-4.3125v4.3125h1.125v-2.2969c0-.65625.32812-.98438.98438-.98438.125 0 .20312.015625.34375.03125v-1.1406h-.125c-.51562 0-.95312.32812-1.2031.92188v-.84375z"/>
  </g>
  <g id="b">
   <path d="m2.4062-4.3906c-1.3125 0-2.125.875-2.125 2.2812 0 1.4219.8125 2.2969 2.1406 2.2969 1.3125 0 2.125-.875 2.125-2.2656 0-1.4531-.78125-2.3125-2.1406-2.3125zm.015625.90625c.60938 0 1.0156.54688 1.0156 1.3906 0 .8125-.42188 1.375-1.0156 1.375-.60938 0-1.0156-.54688-1.0156-1.3906 0-.82812.40625-1.375 1.0156-1.375z"/>
  </g>
  <g id="a">
   <path d="m4.9062 0 1.2188-4.3125h-1.1562l-.65625 3.0156-.65625-3.0156h-1.1094l-.65625 3.0156-.6875-3.0156h-1.1562l1.2031 4.3125h1.1562l.6875-3.0469.65625 3.0469z"/>
  </g>
  <g id="j">
   <path d="m2.1875-5.7969c-.60938 0-1.125.26562-1.4688.73438-.32812.4375-.48438 1.1562-.48438 2.2656 0 1 .125 1.7031.39062 2.1406.34375.54688.89062.84375 1.5625.84375.60938 0 1.1094-.25 1.4688-.71875.3125-.4375.48438-1.1719.48438-2.2344 0-1.0469-.125-1.75-.40625-2.1875-.32812-.54688-.89062-.84375-1.5469-.84375zm0 .90625c.28125 0 .51562.15625.65625.45312.10938.25.17188.85938.17188 1.6406 0 .64062-.0625 1.2656-.14062 1.5-.125.34375-.375.51562-.6875.51562-.29688 0-.53125-.14062-.65625-.4375-.10938-.23438-.17188-.82812-.17188-1.5938 0-.67188.046875-1.3125.14062-1.5469.10938-.34375.35938-.53125.6875-.53125z"/>
  </g>
  <g id="i">
   <path d="m1.9062-3.9062v3.9062h1.125v-5.6719h-.75c-.17188.67188-.76562 1.0156-1.7344 1.0156v.75z"/>
  </g>
  <g id="h">
   <path d="m4.0938-1h-2.4062c.15625-.29688.32812-.46875 1.1562-1.0781.98438-.71875 1.2812-1.1406 1.2812-1.9062 0-1.1094-.76562-1.8125-1.9531-1.8125-1.1719 0-1.8594.70312-1.8594 1.9062v.1875h1.0781v-.17188c0-.64062.29688-1 .8125-1 .5 0 .79688.34375.79688.90625 0 .625-.1875.85938-1.4531 1.7656-.96875.65625-1.2656 1.1406-1.3125 2.2031h3.8594z"/>
  </g>
  <g id="g">
   <path d="m1.7344-2.5312c.4375 0 .45312 0 .65625.046875.375.10938.625.4375.625.85938 0 .5-.35938.84375-.84375.84375-.53125 0-.8125-.29688-.85938-.875h-1.0781c0 1.125.73438 1.8438 1.9062 1.8438 1.2188 0 1.9844-.71875 1.9844-1.8125 0-.67188-.28125-1.1094-.92188-1.4219.51562-.32812.73438-.6875.73438-1.2031 0-.9375-.70312-1.5469-1.7969-1.5469-.82812 0-1.4531.35938-1.7031.98438-.09375.26562-.14062.45312-.14062.92188h1.0469c.015625-.29688.03125-.45312.09375-.59375.09375-.25.35938-.40625.6875-.40625.4375 0 .70312.28125.70312.75 0 .57812-.32812.85938-1 .85938h-.09375z"/>
  </g>
  <g id="f">
   <path d="m4.1719-2.1875h-.59375v-3.4844h-1.3125l-2.0781 3.4688v.95312h2.2812v1.25h1.1094v-1.25h.59375zm-1.7031 0h-1.4844l1.4844-2.4219z"/>
  </g>
  <g id="e">
   <path d="m3.9062-5.6719h-3.0312l-.5 3.1562h1.0156c.10938-.28125.375-.42188.71875-.42188.5625 0 .90625.40625.90625 1.0938 0 .65625-.34375 1.0625-.90625 1.0625-.5 0-.76562-.25-.79688-.70312h-1.0938c.015625 1 .76562 1.6719 1.875 1.6719 1.2031 0 2.0469-.82812 2.0469-2.0625 0-1.1719-.71875-1.9531-1.7656-1.9531-.39062 0-.65625.09375-.98438.34375l.17188-1.1875h2.3438z"/>
  </g>
  <g id="k">
   <path d="m4.0938 0h1.1875v-5.8281h-1.1875v3.9688l-2.3125-3.9688h-1.2344v5.8281h1.2031v-4.0312z"/>
  </g>
  <g id="d">
   <path d="m2.1406-1.4531h-1.5v1.4531h1.5z"/>
  </g>
 </defs>
 <g stroke="#000" stroke-linecap="round" stroke-miterlimit="10" stroke-width=".66667">
  <path d="m5.5597 26.063v-10.801"/>
  <path d="m5.5597 15.262h40.398"/>
  <path d="m45.958 15.262v10.801"/>
  <path d="m45.958 26.063h-40.398"/>
 </g>
 <g transform="translate(-120.44 -57.937)" fill="#ff6600">
  <use x="135.8" y="67.599998" xlink:href="#c"/>
  <use x="138.912" y="67.599998" xlink:href="#b"/>
  <use x="143.8" y="67.599998" xlink:href="#a"/>
  <use x="152.2" y="67.599998" xlink:href="#j"/>
 </g>
 <g stroke="#000" stroke-linecap="round" stroke-miterlimit="10" stroke-width=".66667">
  <path d="m45.958 26.063v-10.801"/>
  <path d="m45.958 15.262h40.402"/>
  <path d="m86.56 15.262v10.801"/>
  <path d="m86.56 26.063h-40.398"/>
 </g>
 <g transform="translate(-120.44 -57.937)" fill="#ff6600">
  <use x="176.3" y="67.599998" xlink:href="#c"/>
  <use x="179.412" y="67.599998" xlink:href="#b"/>
  <use x="184.3" y="67.599998" xlink:href="#a"/>
  <use x="192.7" y="67.599998" xlink:href="#i"/>
 </g>
 <g stroke="#000" stroke-linecap="round" stroke-miterlimit="10" stroke-width=".66667">
  <path d="m86.56 26.063v-10.801"/>
  <path d="m86.56 15.262h40.398"/>
  <path d="m127.06 15.262v10.801"/>
  <path d="m127.06 26.063h-40.398"/>
 </g>
 <g transform="translate(-120.44 -57.937)" fill="#ff6600">
  <use x="216.8" y="67.599998" xlink:href="#c"/>
  <use x="219.912" y="67.599998" xlink:href="#b"/>
  <use x="224.8" y="67.599998" xlink:href="#a"/>
  <use x="233.2" y="67.599998" xlink:href="#h"/>
 </g>
 <g stroke="#000" stroke-linecap="round" stroke-miterlimit="10" stroke-width=".66667">
  <path d="m127.06 26.063v-10.801"/>
  <path d="m127.06 15.262h40.398"/>
  <path d="m167.56 15.262v10.801"/>
  <path d="m167.56 26.063h-40.398"/>
 </g>
 <g transform="translate(-120.44 -57.937)" fill="#ff6600">
  <use x="257.29999" y="67.599998" xlink:href="#c"/>
  <use x="260.41199" y="67.599998" xlink:href="#b"/>
  <use x="265.29999" y="67.599998" xlink:href="#a"/>
  <use x="273.70001" y="67.599998" xlink:href="#g"/>
 </g>
 <g stroke="#000" stroke-linecap="round" stroke-miterlimit="10" stroke-width=".66667">
  <path d="m167.56 26.063v-10.801"/>
  <path d="m167.56 15.262h40.398"/>
  <path d="m207.96 15.262v10.801"/>
  <path d="m207.96 26.063h-40.398"/>
 </g>
 <g transform="translate(-120.44 -57.937)" fill="#ff6600">
  <use x="297.79999" y="67.599998" xlink:href="#c"/>
  <use x="300.91199" y="67.599998" xlink:href="#b"/>
  <use x="305.79999" y="67.599998" xlink:href="#a"/>
  <use x="314.20001" y="67.599998" xlink:href="#f"/>
 </g>
 <g stroke="#000" stroke-linecap="round" stroke-miterlimit="10" stroke-width=".66667">
  <path d="m207.96 26.063v-10.801"/>
  <path d="m207.96 15.262h40.402"/>
  <path d="m248.56 15.262v10.801"/>
  <path d="m248.56 26.063h-40.398"/>
 </g>
 <g transform="translate(-120.44 -57.937)" fill="#ff6600">
  <use x="338.29999" y="67.599998" xlink:href="#c"/>
  <use x="341.41199" y="67.599998" xlink:href="#b"/>
  <use x="346.29999" y="67.599998" xlink:href="#a"/>
  <use x="354.70001" y="67.599998" xlink:href="#e"/>
 </g>
 <g stroke="#000" stroke-linecap="round" stroke-miterlimit="10" stroke-width=".66667">
  <path d="m207.96 15.262h4.8008"/>
  <path d="m207.96 26.063h4.8008"/>
  <path d="m248.56 15.262h-4.8008"/>
  <path d="m248.56 26.063h-4.8008"/>
  <path d="m289.06 26.063v-10.801"/>
  <path d="m289.06 15.262h40.398"/>
  <path d="m329.56 15.262v10.801"/>
  <path d="m329.56 26.063h-40.398"/>
 </g>
 <g transform="translate(-120.44 -57.937)" fill="#ff6600">
  <use x="418.60001" y="67.599998" xlink:href="#c"/>
  <use x="421.71201" y="67.599998" xlink:href="#b"/>
  <use x="426.60001" y="67.599998" xlink:href="#a"/>
  <use x="434.99997" y="67.599998" xlink:href="#k"/>
 </g>
 <g transform="translate(-120.44 -57.937)" fill="#000000">
  <use x="382.20001" y="80.199997" xlink:href="#d"/>
  <use x="384.98001" y="80.199997" xlink:href="#glyph-1-2"/>
  <use x="387.76001" y="80.199997" xlink:href="#d"/>
  <use x="390.54001" y="80.199997" xlink:href="#glyph-1-2"/>
  <use x="393.32001" y="80.199997" xlink:href="#d"/>
 </g>
</svg>
