<svg width="140" height="190" version="1.1" viewBox="0 0 140 190" xmlns="http://www.w3.org/2000/svg" xmlns:xlink="http://www.w3.org/1999/xlink">
 <defs>
  <g id="p">
   <path d="m1.7812-4.8594h-1.2656v6.8281h1.2656v-2.5469c.3125.54688.73438.79688 1.3438.79688 1.1719 0 2.0469-1.0938 2.0469-2.5781 0-.6875-.20312-1.3594-.53125-1.8125-.32812-.46875-.92188-.76562-1.5156-.76562-.60938 0-1.0312.25-1.3438.79688zm1.0625.96875c.64062 0 1.0625.60938 1.0625 1.5469 0 .89062-.4375 1.5-1.0625 1.5-.64062 0-1.0625-.60938-1.0625-1.5156 0-.92188.42188-1.5312 1.0625-1.5312z"/>
  </g>
  <g id="s">
   <path d="m.60938-6.5625v6.5625h1.25v-2.9219c0-.54688.40625-.95312.96875-.95312.28125 0 .5.10938.64062.29688.10938.17188.14062.29688.14062.60938v2.9688h1.2656v-3.2656c0-.59375-.17188-1.0312-.5-1.3125-.28125-.23438-.6875-.35938-1.0938-.35938-.625 0-1.0625.23438-1.4219.78125v-2.4062z"/>
  </g>
  <g id="i">
   <path d="m3.5469-4.8594-1.0156 3.5312-1.0625-3.5312h-1.3906l1.8125 5.0625c0 .5-.3125.84375-.78125.84375-.09375 0-.1875-.015625-.32812-.0625v.95312c.1875.03125.29688.03125.4375.03125.32812 0 .6875-.0625.92188-.15625.34375-.14062.5-.34375.70312-.92188l2-5.75z"/>
  </g>
  <g id="c">
   <path d="m4.5469-3.2969c-.015625-1.0156-.8125-1.6406-2.1094-1.6406-1.2344 0-2 .625-2 1.6094 0 .32812.09375.60938.26562.79688.17188.17188.32812.25.79688.40625l1.5.46875c.3125.09375.42188.20312.42188.39062 0 .29688-.35938.48438-.9375.48438-.32812 0-.57812-.0625-.75-.17188-.125-.09375-.1875-.20312-.23438-.45312h-1.2344c.03125 1.0625.8125 1.6094 2.2969 1.6094.67188 0 1.1875-.14062 1.5469-.42188.35938-.29688.57812-.75.57812-1.2188 0-.625-.32812-1.0312-.96875-1.2188l-1.5781-.46875c-.35938-.10938-.45312-.17188-.45312-.375 0-.26562.29688-.45312.73438-.45312.60938 0 .90625.21875.90625.65625z"/>
  </g>
  <g id="h">
   <path d="m1.8594-4.8594h-1.25v4.8594h1.25zm0-1.7031h-1.25v1.125h1.25z"/>
  </g>
  <g id="g">
   <path d="m4.7031-3.0469c-.09375-1.1875-.875-1.8906-2.1094-1.8906-1.4531 0-2.2812.95312-2.2812 2.6094 0 1.5938.82812 2.5312 2.2656 2.5312 1.1875 0 2-.71875 2.125-1.8906h-1.2188c-.14062.64062-.39062.875-.90625.875-.64062 0-1.0156-.5625-1.0156-1.5156 0-.46875.09375-.89062.25-1.1875.14062-.26562.42188-.40625.78125-.40625.51562 0 .75.23438.89062.875z"/>
  </g>
  <g id="b">
   <path d="m4.7188-.15625c-.21875-.20312-.29688-.34375-.29688-.59375v-2.7031c0-.98438-.67188-1.4844-1.9844-1.4844s-2 .54688-2.0781 1.6719h1.2188c.0625-.5.26562-.65625.89062-.65625.48438 0 .71875.15625.71875.48438 0 .15625-.078125.29688-.20312.375-.17188.09375-.17188.09375-.79688.1875l-.5.09375c-.96875.15625-1.4375.65625-1.4375 1.5312s.59375 1.4531 1.4844 1.4531c.53125 0 1.0156-.21875 1.4688-.6875 0 .25.03125.34375.14062.48438h1.375zm-1.5312-1.7969c0 .73438-.35938 1.1406-.98438 1.1406-.4375 0-.6875-.21875-.6875-.57812 0-.375.1875-.5625.71875-.67188l.42188-.078125c.34375-.0625.39062-.078125.53125-.15625z"/>
  </g>
  <g id="f">
   <path d="m1.8594-6.5625h-1.25v6.5625h1.25z"/>
  </g>
  <g id="e">
   <path d="m.54688-4.8594v4.8594h1.25v-2.9219c0-.59375.32812-.95312.85938-.95312.4375 0 .6875.25.6875.64062v3.2344h1.2656v-2.9219c0-.59375.32812-.95312.85938-.95312.42188 0 .6875.25.6875.64062v3.2344h1.2656v-3.4375c0-.95312-.57812-1.5-1.5469-1.5-.625 0-1.0469.21875-1.4219.71875-.23438-.46875-.73438-.71875-1.3281-.71875-.5625 0-.92188.17188-1.3281.6875v-.60938z"/>
  </g>
  <g id="d">
   <path d="m4.7188-2.0312v-.21875c0-.48438-.0625-.9375-.1875-1.2812-.3125-.875-1.1094-1.4062-2.0781-1.4062-1.4062 0-2.25 1-2.25 2.6406 0 1.5469.84375 2.5 2.2188 2.5 1.0938 0 1.9688-.60938 2.25-1.5781h-1.25c-.14062.39062-.5.625-.95312.625-.35938 0-.65625-.15625-.82812-.42188-.125-.1875-.17188-.40625-.1875-.85938zm-3.25-.84375c.09375-.75.40625-1.1094.96875-1.1094s.90625.39062.96875 1.1094z"/>
  </g>
  <g id="o">
   <path d="m2.7031-4.9375c-1.4844 0-2.3906.98438-2.3906 2.5781s.90625 2.5625 2.4062 2.5625c1.4844 0 2.4062-.96875 2.4062-2.5312 0-1.6562-.89062-2.6094-2.4219-2.6094zm.015625 1.0156c.6875 0 1.1406.625 1.1406 1.5781 0 .90625-.46875 1.5312-1.1406 1.5312-.6875 0-1.1406-.625-1.1406-1.5469 0-.9375.45312-1.5625 1.1406-1.5625z"/>
  </g>
  <g id="n">
   <path d="m.5625-4.8594v4.8594h1.2656v-2.5781c0-.75.375-1.1094 1.1094-1.1094.125 0 .21875 0 .39062.03125v-1.2812h-.15625c-.57812 0-1.0625.375-1.3438 1.0312v-.95312z"/>
  </g>
  <g id="v">
   <path d="m4.5938 0h1.3594v-6.5625h-1.3594v4.4688l-2.5938-4.4688h-1.3906v6.5625h1.3594v-4.5312z"/>
  </g>
  <g id="m">
   <path d="m2.4531-6.5156c-.6875 0-1.2656.28125-1.6562.8125-.35938.5-.53125 1.3125-.53125 2.5469 0 1.1406.14062 1.9375.45312 2.4219.375.60938.98438.9375 1.7344.9375.70312 0 1.2656-.28125 1.6562-.8125.35938-.48438.54688-1.3125.54688-2.5 0-1.1719-.14062-1.9688-.45312-2.4688-.375-.60938-1-.9375-1.75-.9375zm0 1.0156c.32812 0 .59375.1875.73438.51562.14062.26562.20312.96875.20312 1.8438 0 .71875-.0625 1.4219-.15625 1.6875-.14062.375-.42188.57812-.78125.57812-.32812 0-.57812-.17188-.73438-.5-.125-.26562-.20312-.92188-.20312-1.7812 0-.76562.0625-1.4844.17188-1.7344.125-.39062.40625-.60938.76562-.60938z"/>
  </g>
  <g id="u">
   <path d="m3.1562 0 1.6719-4.8594h-1.3438l-.96875 3.5469-1.0625-3.5469h-1.3281l1.7031 4.8594z"/>
  </g>
  <g id="t">
   <path d="m2.7031-4.7656h-.70312v-1.2969h-1.25v1.2969h-.625v.84375h.625v2.9844c0 .76562.40625 1.1406 1.2344 1.1406.28125 0 .48438-.015625.71875-.09375v-.89062c-.125.03125-.1875.03125-.28125.03125-.32812 0-.42188-.09375-.42188-.53125v-2.6406h.70312z"/>
  </g>
  <g id="l">
   <path d="m4.875 0v-4.8594h-1.2656v3.0469c0 .57812-.39062.95312-1.0156.95312-.54688 0-.8125-.29688-.8125-.875v-3.125h-1.2656v3.3906c0 1.0781.59375 1.6719 1.6406 1.6719.65625 0 1.0938-.23438 1.4531-.78125v.57812z"/>
  </g>
  <g id="k">
   <path d="m1.9375-5.1094 1.1875 5.1094h1.3438l1.1719-5.1094v5.1094h1.3438v-6.5625h-2.0312l-1.1562 5.2188-1.1875-5.2188h-2.0156v6.5625h1.3438z"/>
  </g>
  <g id="j">
   <path d="m.53125-6.5625v6.5625h1.2656v-.5c.29688.48438.71875.70312 1.3281.70312 1.1719 0 2.0469-1.1094 2.0469-2.5625 0-.67188-.1875-1.3281-.51562-1.7969-.34375-.48438-.9375-.78125-1.5312-.78125-.60938 0-1.0312.21875-1.3281.70312v-2.3281zm2.3281 2.6719c.60938 0 1.0625.625 1.0625 1.5312 0 .89062-.4375 1.5156-1.0625 1.5156-.64062 0-1.0625-.60938-1.0625-1.5469 0-.89062.42188-1.5 1.0625-1.5z"/>
  </g>
  <g id="r">
   <path d="m.5625-4.8594v4.8594h1.2656v-2.9219c0-.5625.39062-.95312 1.0156-.95312.54688 0 .8125.29688.8125.875v3h1.25v-3.2656c0-1.0781-.57812-1.6719-1.625-1.6719-.65625 0-1.0938.23438-1.4531.78125v-.70312z"/>
  </g>
  <g id="q">
   <path d="m3.6406 0h1.2656v-6.5625h-1.2656v2.3281c-.3125-.48438-.71875-.70312-1.3438-.70312-1.1562 0-2.0312 1.1094-2.0312 2.5781 0 .65625.1875 1.3281.51562 1.7969s.92188.76562 1.5156.76562c.625 0 1.0312-.21875 1.3438-.70312zm-1.0625-3.8906c.64062 0 1.0625.60938 1.0625 1.5469 0 .89062-.42188 1.5-1.0625 1.5-.625 0-1.0625-.625-1.0625-1.5156 0-.90625.4375-1.5312 1.0625-1.5312z"/>
  </g>
  <g id="a">
   <path d="m.75-.59375c-.1875 0-.32812.14062-.32812.32812s.14062.32812.32812.32812.34375-.14062.34375-.32812c0-.17188-.15625-.32812-.34375-.32812z"/>
  </g>
 </defs>
 <g stroke="#000" stroke-linecap="round" stroke-miterlimit="10" stroke-width=".75">
  <path d="m87.031 184.95v-162"/>
  <path d="m87.031 22.955h40.301"/>
  <path d="m127.33 22.955v162"/>
  <path d="m127.33 184.95h-40.301"/>
 </g>
 <g>
  <g transform="translate(-216.77 -50.045)" fill="#007fff">
   <use x="306" y="60.299999" xlink:href="#p"/>
   <use x="311.49899" y="60.299999" xlink:href="#s"/>
   <use x="316.99799" y="60.299999" xlink:href="#i"/>
   <use x="322.00201" y="60.299999" xlink:href="#c"/>
   <use x="327.00601" y="60.299999" xlink:href="#h"/>
   <use x="329.508" y="60.299999" xlink:href="#g"/>
   <use x="334.51199" y="60.299999" xlink:href="#b"/>
   <use x="339.51599" y="60.299999" xlink:href="#f"/>
   <use x="306.5" y="69.300003" xlink:href="#e"/>
   <use x="314.50101" y="69.300003" xlink:href="#d"/>
   <use x="319.505" y="69.300003" xlink:href="#e"/>
   <use x="327.50601" y="69.300003" xlink:href="#o"/>
   <use x="333.005" y="69.300003" xlink:href="#n"/>
   <use x="336.50601" y="69.300003" xlink:href="#i"/>
  </g>
  <g transform="translate(-216.77 -50.045)" fill="#000000">
   <use x="306.60001" y="117.8" xlink:href="#a"/>
   <use x="310.20001" y="117.8" xlink:href="#a"/>
   <use x="313.89999" y="117.8" xlink:href="#a"/>
   <use x="317.60001" y="117.8" xlink:href="#a"/>
   <use x="321.30002" y="117.8" xlink:href="#a"/>
   <use x="324.89999" y="117.8" xlink:href="#a"/>
   <use x="328.5" y="117.8" xlink:href="#a"/>
   <use x="332.20001" y="117.8" xlink:href="#a"/>
   <use x="335.90002" y="117.8" xlink:href="#a"/>
   <use x="339.5" y="117.8" xlink:href="#a"/>
   <use x="306.60001" y="158.3" xlink:href="#a"/>
   <use x="310.20001" y="158.3" xlink:href="#a"/>
   <use x="313.89999" y="158.3" xlink:href="#a"/>
   <use x="317.60001" y="158.3" xlink:href="#a"/>
   <use x="321.30002" y="158.3" xlink:href="#a"/>
   <use x="324.89999" y="158.3" xlink:href="#a"/>
   <use x="328.5" y="158.3" xlink:href="#a"/>
   <use x="332.20001" y="158.3" xlink:href="#a"/>
   <use x="335.90002" y="158.3" xlink:href="#a"/>
   <use x="339.5" y="158.3" xlink:href="#a"/>
  </g>
  <g transform="translate(-216.77 -50.045)" fill="#007fff">
   <use x="347.70001" y="81.300003" xlink:href="#v"/>
   <use x="347.70001" y="233.2" xlink:href="#m"/>
  </g>
 </g>
 <g fill="none" stroke="#000" stroke-linecap="round" stroke-miterlimit="10" stroke-width=".75">
  <path d="m15.031 108.06v-40.402"/>
  <path d="m15.031 67.556h36"/>
  <path d="m51.031 67.556v40.398"/>
  <path d="m51.031 108.06h-36"/>
 </g>
 <g>
  <g transform="translate(-216.77 -50.045)" fill="#ff6600">
   <use x="236.3" y="135.10001" xlink:href="#u"/>
   <use x="241.304" y="135.10001" xlink:href="#h"/>
   <use x="243.806" y="135.10001" xlink:href="#n"/>
   <use x="247.30701" y="135.10001" xlink:href="#t"/>
   <use x="250.304" y="135.10001" xlink:href="#l"/>
   <use x="255.80299" y="135.10001" xlink:href="#b"/>
   <use x="260.80701" y="135.10001" xlink:href="#f"/>
   <use x="237.10001" y="144.10001" xlink:href="#c"/>
   <use x="242.104" y="144.10001" xlink:href="#p"/>
   <use x="247.603" y="144.10001" xlink:href="#b"/>
   <use x="252.60699" y="144.10001" xlink:href="#g"/>
   <use x="257.61099" y="144.10001" xlink:href="#d"/>
  </g>
  <g transform="translate(-216.77 -50.045)" fill="#f00">
   <use x="220.7" y="125.9" fill="#ff0000" xlink:href="#k"/>
  </g>
  <g transform="translate(-216.77 -50.045)" fill="#007fff">
   <use x="223.2" y="156.3" xlink:href="#m"/>
  </g>
 </g>
 <g fill="none" stroke="#000" stroke-linecap="round" stroke-miterlimit="10">
  <g stroke-width=".66667">
   <path d="m54.628 67.556h29.5"/>
   <path d="m76.929 69.353 7.1992-1.7969"/>
   <path d="m76.831 68.755 7.2969-1.1992"/>
   <path d="m76.73 68.154 7.3984-.5"/>
   <path d="m76.73 67.556h7.3984"/>
   <path d="m76.73 66.955 7.3984.5"/>
   <path d="m76.831 66.353 7.2969 1.2031"/>
   <path d="m76.929 65.755 7.1992 1.8008"/>
   <path d="m54.628 108.06h29.5"/>
   <path d="m76.929 109.85 7.1992-1.7969"/>
   <path d="m76.831 109.26 7.2969-1.1992"/>
   <path d="m76.73 108.65 7.3984-.5"/>
   <path d="m76.73 108.06h7.3984"/>
   <path d="m76.73 107.45 7.3984.5"/>
   <path d="m76.831 106.76 7.2969 1.1992"/>
   <path d="m76.929 106.26 7.1992 1.8008"/>
  </g>
  <g stroke-width=".75">
   <path d="m36.628 141.15v-11.5"/>
   <path d="m36.628 129.65h28.801"/>
   <path d="m65.429 129.65v11.5"/>
   <path d="m65.429 141.15h-28.801"/>
   <path d="m51.031 135.35c0-.0547-.04687-.0977-.10156-.0977-.05469 0-.09766.043-.09766.0977s.04297.10156.09766.10156.10156-.0469.10156-.10156"/>
  </g>
  <path d="m52.429 135.35c0-.76953-.625-1.3984-1.3984-1.3984-.77344 0-1.4023.62891-1.4023 1.3984 0 .77344.62891 1.4023 1.4023 1.4023.77344 0 1.3984-.6289 1.3984-1.4023" stroke-width="1.0833"/>
  <g stroke-width=".75">
   <path d="m51.031 135.35 33.098-25.199"/>
   <path d="m79.531 116.06 4.5977-5.7031"/>
   <path d="m79.031 115.56 5.0977-5.4023"/>
   <path d="m78.628 115.15 5.5-4.8984"/>
   <path d="m78.23 114.76 5.8984-4.4023"/>
   <path d="m77.831 114.26 6.1992-3.9023"/>
   <path d="m77.628 113.76 6.5-3.4023"/>
   <path d="m77.331 113.15 6.7969-2.8984"/>
  </g>
 </g>
 <g transform="translate(-216.77 -50.045)" fill="#00ffff">
  <use x="257.60001" y="177.10001" xlink:href="#j"/>
  <use x="263.099" y="177.10001" xlink:href="#b"/>
  <use x="268.103" y="177.10001" xlink:href="#c"/>
  <use x="273.10699" y="177.10001" xlink:href="#d"/>
 </g>
 <g fill="none" stroke="#000" stroke-linecap="round" stroke-miterlimit="10" stroke-width=".75">
  <path d="m3.5306 141.15v-11.5"/>
  <path d="m3.5306 129.65h28.801"/>
  <path d="m32.331 129.65v11.5"/>
  <path d="m32.331 141.15h-28.801"/>
 </g>
 <g transform="translate(-216.77 -50.045)" fill="#f00">
  <use x="231" y="188.7" fill="#ff0000" xlink:href="#k"/>
 </g>
 <g transform="translate(-216.77 -50.045)" fill="#00ff00">
  <use x="221" y="177.10001" xlink:href="#j"/>
  <use x="226.49899" y="177.10001" xlink:href="#o"/>
  <use x="231.998" y="177.10001" xlink:href="#l"/>
  <use x="237.49699" y="177.10001" xlink:href="#r"/>
  <use x="242.996" y="177.10001" xlink:href="#q"/>
 </g>
</svg>
