<svg width="280" height="250" version="1.0" viewBox="0 0 280 250" xmlns="http://www.w3.org/2000/svg">
 <g transform="translate(0 -16.667)">
  <g fill="white">
   <path fill="yellow" d="m59.554 230.8v-29.804h30.011v29.804z"/>
   <path fill="yellow" d="m59.554 140.8v-29.804h30.011v29.804z"/>
   <path fill="yellow" d="m59.554 170.8v-29.804h30.011v29.804z"/>
   <path fill="yellow" d="m59.554 200.8v-29.804h30.011v29.804z"/>
  </g>
  <g fill="none" stroke="black">
   <path d="m59.822 231.26 29.486 0.17065" stroke-width=".51429"/>
   <path d="m59.933 96.317-0.0512 149.37" stroke-width=".63378"/>
   <path d="m89.933 96.317-0.0512 149.37" stroke-width=".63377"/>
   <g stroke-width=".51429">
    <path d="m59.822 201.26 29.486 0.17065"/>
    <path d="m59.822 170.57 29.486 0.17065"/>
    <path d="m59.822 141.26 29.486 0.17064"/>
    <path d="m59.822 111.26 29.486 0.17064"/>
   </g>
  </g>
  <text transform="rotate(90)" x="102.22559" y="-73.860001" fill="black" font-family="'Arial Black'" font-size="20px" text-align="center" text-anchor="middle" style="line-height:0%" xml:space="preserve"><tspan x="102.22559" y="-73.860001" font-family="'Times New Roman'" font-size="18px">...</tspan></text>
  <text transform="rotate(90)" x="240.47557" y="-73.860001" fill="black" font-family="'Arial Black'" font-size="20px" text-align="center" text-anchor="middle" style="line-height:0%" xml:space="preserve"><tspan x="240.47557" y="-73.860001" font-family="'Times New Roman'" font-size="18px">...</tspan></text>
  <g fill="none">
   <rect fill="none" x="19.565" y="206" width="40" height="25"/>
   <rect fill="none" x="19.565" y="176" width="40" height="25"/>
   <rect fill="none" x="19.565" y="146" width="40" height="25"/>
   <rect fill="none" x="19.565" y="116" width="40" height="25"/>
  </g>
  <path d="m130.7 90.111v-32.662h121.78v32.662z" fill="white" stroke="black" stroke-width=".89775"/>
  <g transform="translate(-27.75 15)" fill-rule="evenodd">
   <path d="m260.69 75.094 0.8125 124.5-137.5 0.90625v1l138-0.875 0.53125-0.0312v-0.5l-0.8125-125h-1.0312z"/>
   <path d="m134.3 200.93 4.0911-4.1451-14.386 4.2126 14.44 4.0236z" stroke="black" stroke-width=".82365pt"/>
   <path d="m232.69 75-0.71875 95.875-108.47 0.125v1l108.97-0.125h0.5v-0.5l0.71875-96.375z"/>
   <path d="m133.5 171.49 3.9958-4.0042-13.996 4.0148 14.004 3.9852z" stroke="black" stroke-width=".8pt"/>
   <path d="m201.62 75.375 0.5 64.688-78.125 0.9375v1l78.656-0.9375h0.46875v-0.5l-0.5-65.188z"/>
   <path d="m134 141.38 3.9524-4.0471-13.952 4.1655 14.046 3.834z" stroke="black" stroke-width=".8pt"/>
   <path d="m174.19 75-0.125 35.469-50.062 0.53125v1l50.562-0.53125 0.5-0.0312v-0.46875l0.125-35.969h-1z"/>
   <path d="m134 111.39 3.9569-4.0427-13.956 4.1499 14.042 3.8497z" stroke="black" stroke-width=".8pt"/>
  </g>
 </g>
 <g transform="translate(0 -16.667)">
  <g>
   <g aria-label="Memory">
    <path d="m51.797 81.594-4.0938-8.9141v7.0781q0 0.97656 0.21094 1.2188 0.28906 0.32812 0.91406 0.32812h0.375v0.28906h-3.6875v-0.28906h0.375q0.67188 0 0.95312-0.40625 0.17188-0.25 0.17188-1.1406v-6.9219q0-0.70312-0.15625-1.0156-0.10938-0.22656-0.40625-0.375-0.28906-0.15625-0.9375-0.15625v-0.28906h3l3.8438 8.2891 3.7812-8.2891h3v0.28906h-0.36719q-0.67969 0-0.96094 0.40625-0.17188 0.25-0.17188 1.1406v6.9219q0 0.97656 0.21875 1.2188 0.28906 0.32812 0.91406 0.32812h0.36719v0.28906h-4.5v-0.28906h0.375q0.67969 0 0.95312-0.40625 0.17188-0.25 0.17188-1.1406v-7.0781l-4.0859 8.9141z"/>
    <path d="m61.172 77.133q-0.0078 1.5938 0.77344 2.5 0.78125 0.90625 1.8359 0.90625 0.70312 0 1.2188-0.38281 0.52344-0.39062 0.875-1.3281l0.24219 0.15625q-0.16406 1.0703-0.95312 1.9531-0.78906 0.875-1.9766 0.875-1.2891 0-2.2109-1-0.91406-1.0078-0.91406-2.7031 0-1.8359 0.9375-2.8594 0.94531-1.0312 2.3672-1.0312 1.2031 0 1.9766 0.79688 0.77344 0.78906 0.77344 2.1172zm0-0.45312h3.3125q-0.03906-0.6875-0.16406-0.96875-0.19531-0.4375-0.58594-0.6875-0.38281-0.25-0.80469-0.25-0.64844 0-1.1641 0.50781-0.50781 0.5-0.59375 1.3984z"/>
    <path d="m69.188 75.75q0.78125-0.78125 0.92188-0.89844 0.35156-0.29688 0.75781-0.46094 0.40625-0.16406 0.80469-0.16406 0.67188 0 1.1562 0.39062t0.64844 1.1328q0.80469-0.9375 1.3594-1.2266 0.55469-0.29688 1.1406-0.29688 0.57031 0 1.0078 0.29688 0.44531 0.28906 0.70312 0.95312 0.17188 0.45312 0.17188 1.4219v3.0781q0 0.67188 0.10156 0.92188 0.07813 0.17188 0.28906 0.29688 0.21094 0.11719 0.6875 0.11719v0.28125h-3.5312v-0.28125h0.14844q0.46094 0 0.71875-0.17969 0.17969-0.125 0.25781-0.39844 0.03125-0.13281 0.03125-0.75781v-3.0781q0-0.875-0.21094-1.2344-0.30469-0.5-0.97656-0.5-0.41406 0-0.83594 0.21094-0.41406 0.20312-1.0078 0.76562l-0.01563 0.08594 0.01563 0.33594v3.4141q0 0.73438 0.07813 0.91406 0.08594 0.17969 0.3125 0.30469 0.22656 0.11719 0.77344 0.11719v0.28125h-3.6172v-0.28125q0.59375 0 0.8125-0.14062 0.22656-0.14062 0.3125-0.42188 0.03906-0.13281 0.03906-0.77344v-3.0781q0-0.875-0.25781-1.2578-0.34375-0.5-0.96094-0.5-0.42188 0-0.83594 0.22656-0.64844 0.34375-1 0.77344v3.8359q0 0.70312 0.09375 0.91406 0.10156 0.21094 0.28906 0.32031 0.19531 0.10156 0.78125 0.10156v0.28125h-3.5391v-0.28125q0.49219 0 0.6875-0.10156 0.19531-0.10938 0.29688-0.33594 0.10156-0.23438 0.10156-0.89844v-2.7344q0-1.1797-0.07031-1.5234-0.05469-0.25781-0.17188-0.35156-0.11719-0.10156-0.32031-0.10156-0.21875 0-0.52344 0.11719l-0.11719-0.28125 2.1562-0.875h0.33594z"/>
    <path d="m83 74.227q1.625 0 2.6094 1.2344 0.83594 1.0547 0.83594 2.4219 0 0.96094-0.46094 1.9453-0.46094 0.98438-1.2734 1.4844-0.80469 0.5-1.7969 0.5-1.6172 0-2.5703-1.2891-0.80469-1.0859-0.80469-2.4375 0-0.98438 0.48438-1.9531 0.49219-0.97656 1.2891-1.4375 0.79688-0.46875 1.6875-0.46875zm-0.24219 0.50781q-0.41406 0-0.83594 0.25-0.41406 0.24219-0.67188 0.85938-0.25781 0.61719-0.25781 1.5859 0 1.5625 0.61719 2.6953 0.625 1.1328 1.6406 1.1328 0.75781 0 1.25-0.625 0.49219-0.625 0.49219-2.1484 0-1.9062-0.82031-3-0.55469-0.75-1.4141-0.75z"/>
    <path d="m89.594 74.227v1.6094q0.89844-1.6094 1.8438-1.6094 0.42969 0 0.71094 0.26562 0.28125 0.25781 0.28125 0.60156 0 0.30469-0.20312 0.51562-0.20312 0.21094-0.48438 0.21094-0.27344 0-0.61719-0.26562-0.33594-0.27344-0.5-0.27344-0.14062 0-0.30469 0.15625-0.35156 0.32031-0.72656 1.0547v3.4297q0 0.59375 0.14844 0.89844 0.10156 0.21094 0.35938 0.35156 0.25781 0.14062 0.74219 0.14062v0.28125h-3.6641v-0.28125q0.54688 0 0.8125-0.17188 0.19531-0.125 0.27344-0.39844 0.03906-0.13281 0.03906-0.75781v-2.7734q0-1.25-0.05469-1.4844-0.04687-0.24219-0.1875-0.35156-0.13281-0.10938-0.33594-0.10938-0.24219 0-0.54688 0.11719l-0.07813-0.28125 2.1641-0.875z"/>
    <path d="m92.438 74.438h3.3359v0.28906h-0.16406q-0.35156 0-0.53125 0.15625-0.17188 0.14844-0.17188 0.375 0 0.30469 0.25781 0.84375l1.7422 3.6094 1.6016-3.9531q0.13281-0.32031 0.13281-0.63281 0-0.14062-0.05469-0.21094-0.0625-0.08594-0.19531-0.13281-0.13281-0.05469-0.46875-0.05469v-0.28906h2.3281v0.28906q-0.28906 0.03125-0.44531 0.125t-0.34375 0.35156q-0.07031 0.10938-0.26562 0.60156l-2.9141 7.1406q-0.42188 1.0391-1.1094 1.5703-0.67969 0.53125-1.3125 0.53125-0.46094 0-0.75781-0.26562t-0.29688-0.60938q0-0.32812 0.21094-0.53125 0.21875-0.19531 0.59375-0.19531 0.25781 0 0.70312 0.17188 0.3125 0.11719 0.39062 0.11719 0.23438 0 0.50781-0.24219 0.28125-0.24219 0.5625-0.9375l0.50781-1.2422-2.5703-5.3984q-0.11719-0.24219-0.375-0.60156-0.19531-0.27344-0.32031-0.36719-0.17969-0.125-0.57812-0.21875z"/>
   </g>
   <g aria-label="32-bit integer">
    <path d="m148.69 39.531q0.45312-1.0703 1.1406-1.6484 0.69531-0.58594 1.7266-0.58594 1.2734 0 1.9531 0.82812 0.51562 0.61719 0.51562 1.3203 0 1.1562-1.4531 2.3906 0.97656 0.38281 1.4766 1.0938 0.5 0.71094 0.5 1.6719 0 1.375-0.875 2.3828-1.1406 1.3125-3.3047 1.3125-1.0703 0-1.4609-0.26562-0.38282-0.26562-0.38282-0.57031 0-0.22656 0.17969-0.39844 0.1875-0.17188 0.44531-0.17188 0.19532 0 0.39844 0.0625 0.13281 0.03906 0.60156 0.28906 0.46875 0.24219 0.64844 0.28906 0.28906 0.08594 0.61719 0.08594 0.79687 0 1.3828-0.61719 0.59375-0.61719 0.59375-1.4609 0-0.61719-0.27344-1.2031-0.20312-0.4375-0.44531-0.66406-0.33594-0.3125-0.92187-0.5625-0.58594-0.25781-1.1953-0.25781h-0.25v-0.23438q0.61719-0.07813 1.2344-0.44531 0.625-0.36719 0.90625-0.88281t0.28125-1.1328q0-0.80469-0.50781-1.2969-0.5-0.5-1.25-0.5-1.2109 0-2.0234 1.2969z"/>
    <path d="m163.21 46.07-0.74218 2.0391h-6.25v-0.28906q2.7578-2.5156 3.8828-4.1094t1.125-2.9141q0-1.0078-0.61719-1.6562-0.61719-0.64844-1.4766-0.64844-0.78125 0-1.4062 0.46094-0.61719 0.45312-0.91406 1.3359h-0.28907q0.19532-1.4453 1-2.2188 0.8125-0.77344 2.0234-0.77344 1.2891 0 2.1484 0.82812 0.86719 0.82812 0.86719 1.9531 0 0.80469-0.375 1.6094-0.57813 1.2656-1.875 2.6797-1.9453 2.125-2.4297 2.5625h2.7656q0.84375 0 1.1797-0.0625 0.34375-0.0625 0.61719-0.25 0.27344-0.19531 0.47656-0.54688z"/>
    <path d="m164.52 43.93h4.0391v1.1797h-4.0391z"/>
    <path d="m171.68 42.188q1.0391-1.4453 2.2422-1.4453 1.1016 0 1.9219 0.94531 0.82031 0.9375 0.82031 2.5703 0 1.9062-1.2656 3.0703-1.0859 1-2.4219 1-0.625 0-1.2734-0.22656-0.64062-0.22656-1.3125-0.67969v-7.4141q0-1.2188-0.0625-1.5-0.0547-0.28125-0.17969-0.38281-0.125-0.10156-0.3125-0.10156-0.21875 0-0.54687 0.125l-0.10938-0.27344 2.1484-0.875h0.35156zm0 0.5v4.2812q0.39844 0.39062 0.82032 0.59375 0.42968 0.19531 0.875 0.19531 0.71093 0 1.3203-0.78125 0.61719-0.78125 0.61719-2.2734 0-1.375-0.61719-2.1094-0.60938-0.74219-1.3906-0.74219-0.41406 0-0.82812 0.21094-0.3125 0.15625-0.79688 0.625z"/>
    <path d="m179.54 37q0.32812 0 0.55469 0.23438 0.23437 0.22656 0.23437 0.55469t-0.23437 0.5625q-0.22657 0.23438-0.55469 0.23438-0.32813 0-0.5625-0.23438-0.23438-0.23438-0.23438-0.5625t0.22657-0.55469q0.23437-0.23438 0.57031-0.23438zm0.64844 3.7422v5.75q0 0.67188 0.0937 0.89844 0.10156 0.21875 0.28906 0.32812 0.19531 0.10938 0.70312 0.10938v0.28125h-3.4766v-0.28125q0.52344 0 0.70313-0.10156 0.17968-0.10156 0.28125-0.33594 0.10937-0.23438 0.10937-0.89844v-2.7578q0-1.1641-0.0703-1.5078-0.0547-0.25-0.17188-0.34375-0.11718-0.10156-0.32031-0.10156-0.21875 0-0.53125 0.11719l-0.10937-0.28125 2.1562-0.875z"/>
    <path d="m184.23 38.602v2.3516h1.6719v0.54688h-1.6719v4.6406q0 0.69531 0.19531 0.9375 0.20313 0.24219 0.51563 0.24219 0.25781 0 0.5-0.15625 0.24219-0.16406 0.375-0.47656h0.30469q-0.27344 0.76562-0.77344 1.1562-0.5 0.38281-1.0312 0.38281-0.35938 0-0.70313-0.19531-0.34375-0.20312-0.50781-0.57031-0.16406-0.375-0.16406-1.1484v-4.8125h-1.1328v-0.25781q0.42968-0.17188 0.875-0.57812 0.45312-0.41406 0.80468-0.97656 0.17969-0.29688 0.5-1.0859z"/>
    <path d="m192.41 37q0.32812 0 0.55469 0.23438 0.23437 0.22656 0.23437 0.55469t-0.23437 0.5625q-0.22657 0.23438-0.55469 0.23438-0.32813 0-0.5625-0.23438-0.23438-0.23438-0.23438-0.5625t0.22657-0.55469q0.23437-0.23438 0.57031-0.23438zm0.64844 3.7422v5.75q0 0.67188 0.0937 0.89844 0.10156 0.21875 0.28906 0.32812 0.19531 0.10938 0.70312 0.10938v0.28125h-3.4766v-0.28125q0.52344 0 0.70313-0.10156 0.17968-0.10156 0.28125-0.33594 0.10937-0.23438 0.10937-0.89844v-2.7578q0-1.1641-0.0703-1.5078-0.0547-0.25-0.17188-0.34375-0.11718-0.10156-0.32031-0.10156-0.21875 0-0.53125 0.11719l-0.10937-0.28125 2.1562-0.875z"/>
    <path d="m197.12 42.258q1.2578-1.5156 2.3984-1.5156 0.58594 0 1.0078 0.29688 0.42188 0.28906 0.67188 0.96094 0.17187 0.46875 0.17187 1.4375v3.0547q0 0.67969 0.10938 0.92188 0.0859 0.19531 0.27344 0.30469 0.19531 0.10938 0.71093 0.10938v0.28125h-3.5391v-0.28125h0.14844q0.5 0 0.69531-0.14844 0.20313-0.15625 0.28125-0.45312 0.0312-0.11719 0.0312-0.73438v-2.9297q0-0.97656-0.25781-1.4141-0.25-0.44531-0.85156-0.44531-0.92969 0-1.8516 1.0156v3.7734q0 0.72656 0.0859 0.89844 0.10938 0.22656 0.29688 0.33594 0.19531 0.10156 0.78125 0.10156v0.28125h-3.5391v-0.28125h0.15625q0.54688 0 0.73438-0.27344 0.19531-0.28125 0.19531-1.0625v-2.6562q0-1.2891-0.0625-1.5703-0.0547-0.28125-0.17969-0.38281-0.11718-0.10156-0.32031-0.10156-0.21875 0-0.52344 0.11719l-0.11718-0.28125 2.1562-0.875h0.33593z"/>
    <path d="m205.11 38.602v2.3516h1.6719v0.54688h-1.6719v4.6406q0 0.69531 0.19531 0.9375 0.20313 0.24219 0.51563 0.24219 0.25781 0 0.5-0.15625 0.24219-0.16406 0.375-0.47656h0.30469q-0.27344 0.76562-0.77344 1.1562-0.5 0.38281-1.0312 0.38281-0.35938 0-0.70313-0.19531-0.34375-0.20312-0.50781-0.57031-0.16406-0.375-0.16406-1.1484v-4.8125h-1.1328v-0.25781q0.42968-0.17188 0.875-0.57812 0.45312-0.41406 0.80468-0.97656 0.17969-0.29688 0.5-1.0859z"/>
    <path d="m208.67 43.648q-8e-3 1.5938 0.77344 2.5 0.78125 0.90625 1.8359 0.90625 0.70312 0 1.2188-0.38281 0.52343-0.39062 0.875-1.3281l0.24218 0.15625q-0.16406 1.0703-0.95312 1.9531-0.78906 0.875-1.9766 0.875-1.2891 0-2.2109-1-0.91406-1.0078-0.91406-2.7031 0-1.8359 0.9375-2.8594 0.94531-1.0312 2.3672-1.0312 1.2031 0 1.9766 0.79688 0.77343 0.78906 0.77343 2.1172zm0-0.45312h3.3125q-0.0391-0.6875-0.16406-0.96875-0.19531-0.4375-0.58594-0.6875-0.38281-0.25-0.80469-0.25-0.64843 0-1.1641 0.50781-0.50781 0.5-0.59375 1.3984z"/>
    <path d="m216.47 45.5q-0.65625-0.32031-1.0078-0.89062-0.35157-0.57812-0.35157-1.2734 0-1.0625 0.79688-1.8281 0.80469-0.76562 2.0547-0.76562 1.0234 0 1.7734 0.5h1.5156q0.33594 0 0.39062 0.02344 0.0547 0.01563 0.0781 0.0625 0.0469 0.07031 0.0469 0.25 0 0.20312-0.0391 0.28125-0.0234 0.03906-0.0859 0.0625-0.0547 0.02344-0.39062 0.02344h-0.92969q0.4375 0.5625 0.4375 1.4375 0 1-0.76562 1.7109-0.76563 0.71094-2.0547 0.71094-0.53125 0-1.0859-0.15625-0.34375 0.29688-0.46875 0.52344-0.11719 0.21875-0.11719 0.375 0 0.13281 0.125 0.25781 0.13282 0.125 0.50782 0.17969 0.21875 0.03125 1.0938 0.05469 1.6094 0.03906 2.0859 0.10938 0.72657 0.10156 1.1562 0.53906 0.4375 0.4375 0.4375 1.0781 0 0.88281-0.82812 1.6562-1.2188 1.1406-3.1797 1.1406-1.5078 0-2.5469-0.67969-0.58594-0.39062-0.58594-0.8125 0-0.1875 0.0859-0.375 0.13281-0.28906 0.54687-0.80469 0.0547-0.07031 0.79688-0.84375-0.40625-0.24219-0.57813-0.42969-0.16406-0.19531-0.16406-0.4375 0-0.27344 0.21875-0.64062 0.22656-0.36719 1.0312-1.0391zm1.3594-4.3828q-0.57812 0-0.96875 0.46094-0.39062 0.46094-0.39062 1.4141 0 1.2344 0.53125 1.9141 0.40625 0.51562 1.0312 0.51562 0.59375 0 0.97656-0.44531 0.38281-0.44531 0.38281-1.3984 0-1.2422-0.53906-1.9453-0.39844-0.51562-1.0234-0.51562zm-1.4375 6.9922q-0.36718 0.39844-0.55468 0.74219t-0.1875 0.63281q0 0.375 0.45312 0.65625 0.78125 0.48438 2.2578 0.48438 1.4062 0 2.0703-0.5 0.67187-0.49219 0.67187-1.0547 0-0.40625-0.39844-0.57812-0.40625-0.17188-1.6094-0.20312-1.7578-0.04687-2.7031-0.17969z"/>
    <path d="m223.76 43.648q-8e-3 1.5938 0.77344 2.5 0.78125 0.90625 1.8359 0.90625 0.70312 0 1.2188-0.38281 0.52343-0.39062 0.875-1.3281l0.24218 0.15625q-0.16406 1.0703-0.95312 1.9531-0.78906 0.875-1.9766 0.875-1.2891 0-2.2109-1-0.91406-1.0078-0.91406-2.7031 0-1.8359 0.9375-2.8594 0.94531-1.0312 2.3672-1.0312 1.2031 0 1.9766 0.79688 0.77343 0.78906 0.77343 2.1172zm0-0.45312h3.3125q-0.0391-0.6875-0.16406-0.96875-0.19531-0.4375-0.58594-0.6875-0.38281-0.25-0.80469-0.25-0.64843 0-1.1641 0.50781-0.50781 0.5-0.59375 1.3984z"/>
    <path d="m231.75 40.742v1.6094q0.89843-1.6094 1.8438-1.6094 0.42968 0 0.71093 0.26562 0.28125 0.25781 0.28125 0.60156 0 0.30469-0.20312 0.51562-0.20313 0.21094-0.48438 0.21094-0.27343 0-0.61718-0.26562-0.33594-0.27344-0.5-0.27344-0.14063 0-0.30469 0.15625-0.35156 0.32031-0.72656 1.0547v3.4297q0 0.59375 0.14843 0.89844 0.10157 0.21094 0.35938 0.35156t0.74219 0.14062v0.28125h-3.6641v-0.28125q0.54688 0 0.8125-0.17188 0.19532-0.125 0.27344-0.39844 0.0391-0.13281 0.0391-0.75781v-2.7734q0-1.25-0.0547-1.4844-0.0469-0.24219-0.1875-0.35156-0.13282-0.10938-0.33594-0.10938-0.24219 0-0.54688 0.11719l-0.0781-0.28125 2.1641-0.875z"/>
   </g>
   <g aria-label="Big-endian">
    <path d="m165.5 237.77q1.1016 0.23438 1.6484 0.75 0.75781 0.71875 0.75781 1.7578 0 0.78906-0.5 1.5156-0.5 0.71875-1.375 1.0547-0.86719 0.32812-2.6562 0.32812h-5v-0.28906h0.39844q0.66406 0 0.95312-0.42187 0.17969-0.27344 0.17969-1.1641v-6.8438q0-0.98437-0.22656-1.2422-0.30469-0.34375-0.90625-0.34375h-0.39844v-0.28907h4.5781q1.2812 0 2.0547 0.1875 1.1719 0.28125 1.7891 1 0.61719 0.71094 0.61719 1.6406 0 0.79687-0.48437 1.4297-0.48438 0.625-1.4297 0.92968zm-4.0938-0.42187q0.28906 0.0547 0.65625 0.0859 0.375 0.0234 0.82031 0.0234 1.1406 0 1.7109-0.24218 0.57812-0.25 0.88281-0.75782 0.30469-0.50781 0.30469-1.1094 0-0.92969-0.75781-1.5859-0.75782-0.65625-2.2109-0.65625-0.78125 0-1.4062 0.17188zm0 5.0625q0.90625 0.21094 1.7891 0.21094 1.4141 0 2.1562-0.63282 0.74219-0.64062 0.74219-1.5781 0-0.61719-0.33594-1.1875t-1.0938-0.89844q-0.75781-0.32812-1.875-0.32812-0.48437 0-0.82812 0.0156t-0.55469 0.0547z"/>
    <path d="m171.12 232.06q0.32812 0 0.55468 0.23437 0.23438 0.22657 0.23438 0.55469 0 0.32813-0.23438 0.5625-0.22656 0.23438-0.55468 0.23438-0.32813 0-0.5625-0.23438-0.23438-0.23437-0.23438-0.5625 0-0.32812 0.22656-0.55469 0.23438-0.23437 0.57032-0.23437zm0.64843 3.7422v5.75q0 0.67187 0.0937 0.89843 0.10157 0.21875 0.28907 0.32813 0.19531 0.10937 0.70312 0.10937v0.28125h-3.4765v-0.28125q0.52344 0 0.70312-0.10156 0.17969-0.10156 0.28125-0.33594 0.10938-0.23437 0.10938-0.89843v-2.7578q0-1.1641-0.0703-1.5078-0.0547-0.25-0.17188-0.34375-0.11719-0.10156-0.32031-0.10156-0.21875 0-0.53125 0.11719l-0.10938-0.28125 2.1562-0.875z"/>
    <path d="m175.65 240.56q-0.65625-0.32031-1.0078-0.89063-0.35156-0.57812-0.35156-1.2734 0-1.0625 0.79688-1.8281 0.80468-0.76562 2.0547-0.76562 1.0234 0 1.7734 0.5h1.5156q0.33593 0 0.39062 0.0234 0.0547 0.0156 0.0781 0.0625 0.0469 0.0703 0.0469 0.25 0 0.20313-0.0391 0.28125-0.0234 0.0391-0.0859 0.0625-0.0547 0.0234-0.39062 0.0234h-0.92969q0.4375 0.5625 0.4375 1.4375 0 1-0.76563 1.7109-0.76562 0.71094-2.0547 0.71094-0.53125 0-1.0859-0.15625-0.34375 0.29687-0.46875 0.52343-0.11719 0.21875-0.11719 0.375 0 0.13282 0.125 0.25782 0.13281 0.125 0.50781 0.17968 0.21875 0.0312 1.0938 0.0547 1.6094 0.0391 2.0859 0.10938 0.72656 0.10156 1.1562 0.53906 0.4375 0.4375 0.4375 1.0781 0 0.88282-0.82812 1.6562-1.2188 1.1406-3.1797 1.1406-1.5078 0-2.5469-0.67969-0.58593-0.39062-0.58593-0.8125 0-0.1875 0.0859-0.375 0.13282-0.28906 0.54688-0.80469 0.0547-0.0703 0.79687-0.84375-0.40625-0.24218-0.57812-0.42968-0.16406-0.19532-0.16406-0.4375 0-0.27344 0.21875-0.64063 0.22656-0.36719 1.0312-1.0391zm1.3594-4.3828q-0.57812 0-0.96875 0.46093-0.39062 0.46094-0.39062 1.4141 0 1.2344 0.53125 1.9141 0.40625 0.51562 1.0312 0.51562 0.59375 0 0.97656-0.44531t0.38281-1.3984q0-1.2422-0.53906-1.9453-0.39844-0.51562-1.0234-0.51562zm-1.4375 6.9922q-0.36719 0.39844-0.55469 0.74219t-0.1875 0.63281q0 0.375 0.45313 0.65625 0.78125 0.48438 2.2578 0.48438 1.4062 0 2.0703-0.5 0.67188-0.49219 0.67188-1.0547 0-0.40625-0.39844-0.57812-0.40625-0.17188-1.6094-0.20313-1.7578-0.0469-2.7031-0.17969z"/>
    <path d="m181.88 238.99h4.0391v1.1797h-4.0391z"/>
    <path d="m188.28 238.71q-8e-3 1.5938 0.77344 2.5 0.78125 0.90625 1.8359 0.90625 0.70313 0 1.2188-0.38282 0.52344-0.39062 0.875-1.3281l0.24219 0.15625q-0.16406 1.0703-0.95312 1.9531-0.78907 0.875-1.9766 0.875-1.2891 0-2.2109-1-0.91407-1.0078-0.91407-2.7031 0-1.8359 0.9375-2.8594 0.94532-1.0312 2.3672-1.0312 1.2031 0 1.9766 0.79688 0.77344 0.78906 0.77344 2.1172zm0-0.45313h3.3125q-0.0391-0.6875-0.16406-0.96875-0.19532-0.4375-0.58594-0.6875-0.38281-0.25-0.80469-0.25-0.64844 0-1.1641 0.50781-0.50781 0.5-0.59375 1.3984z"/>
    <path d="m196.26 237.32q1.2578-1.5156 2.3984-1.5156 0.58594 0 1.0078 0.29687 0.42188 0.28906 0.67188 0.96094 0.17187 0.46875 0.17187 1.4375v3.0547q0 0.67968 0.10938 0.92187 0.0859 0.19531 0.27343 0.30469 0.19532 0.10937 0.71094 0.10937v0.28125h-3.5391v-0.28125h0.14844q0.5 0 0.69531-0.14843 0.20312-0.15625 0.28125-0.45313 0.0312-0.11719 0.0312-0.73437v-2.9297q0-0.97656-0.25781-1.4141-0.25-0.44532-0.85157-0.44532-0.92968 0-1.8516 1.0156v3.7734q0 0.72656 0.0859 0.89843 0.10937 0.22657 0.29687 0.33594 0.19532 0.10156 0.78125 0.10156v0.28125h-3.5391v-0.28125h0.15625q0.54688 0 0.73438-0.27343 0.19531-0.28125 0.19531-1.0625v-2.6562q0-1.2891-0.0625-1.5703-0.0547-0.28125-0.17969-0.38281-0.11719-0.10156-0.32031-0.10156-0.21875 0-0.52344 0.11719l-0.11719-0.28125 2.1562-0.875h0.33594z"/>
    <path d="m207.23 242.37q-0.52344 0.54687-1.0234 0.78906-0.5 0.23437-1.0781 0.23437-1.1719 0-2.0469-0.97656-0.875-0.98437-0.875-2.5234 0-1.5391 0.96875-2.8125 0.96875-1.2812 2.4922-1.2812 0.94531 0 1.5625 0.60157v-1.3203q0-1.2266-0.0625-1.5078-0.0547-0.28125-0.17969-0.38281-0.125-0.10156-0.3125-0.10156-0.20312 0-0.53906 0.125l-0.10156-0.27344 2.1328-0.875h0.35156v8.2734q0 1.2578 0.0547 1.5391 0.0625 0.27344 0.1875 0.38281 0.13281 0.10938 0.30469 0.10938 0.21094 0 0.5625-0.13282l0.0859 0.27344-2.125 0.88281h-0.35938zm0-0.54688v-3.6875q-0.0469-0.53125-0.28125-0.96875-0.23437-0.4375-0.625-0.65625-0.38281-0.22656-0.75-0.22656-0.6875 0-1.2266 0.61719-0.71094 0.8125-0.71094 2.375 0 1.5781 0.6875 2.4219 0.6875 0.83594 1.5312 0.83594 0.71094 0 1.375-0.71094z"/>
    <path d="m211.99 232.06q0.32812 0 0.55468 0.23437 0.23438 0.22657 0.23438 0.55469 0 0.32813-0.23438 0.5625-0.22656 0.23438-0.55468 0.23438-0.32813 0-0.5625-0.23438-0.23438-0.23437-0.23438-0.5625 0-0.32812 0.22656-0.55469 0.23438-0.23437 0.57032-0.23437zm0.64843 3.7422v5.75q0 0.67187 0.0937 0.89843 0.10157 0.21875 0.28907 0.32813 0.19531 0.10937 0.70312 0.10937v0.28125h-3.4765v-0.28125q0.52344 0 0.70312-0.10156 0.17969-0.10156 0.28125-0.33594 0.10938-0.23437 0.10938-0.89843v-2.7578q0-1.1641-0.0703-1.5078-0.0547-0.25-0.17188-0.34375-0.11719-0.10156-0.32031-0.10156-0.21875 0-0.53125 0.11719l-0.10938-0.28125 2.1562-0.875z"/>
    <path d="m218.66 242.14q-1.1016 0.85157-1.3828 0.98438-0.42188 0.19531-0.89844 0.19531-0.74219 0-1.2266-0.50781-0.47656-0.50781-0.47656-1.3359 0-0.52344 0.23437-0.90625 0.32031-0.53125 1.1094-1 0.79687-0.46875 2.6406-1.1406v-0.28125q0-1.0703-0.34375-1.4688-0.33594-0.39844-0.98437-0.39844-0.49219 0-0.78125 0.26562-0.29688 0.26563-0.29688 0.60938l0.0156 0.45312q0 0.35938-0.1875 0.55469-0.17969 0.19531-0.47657 0.19531-0.28906 0-0.47656-0.20312-0.17969-0.20313-0.17969-0.55469 0-0.67187 0.6875-1.2344t1.9297-0.5625q0.95313 0 1.5625 0.32031 0.46094 0.24219 0.67969 0.75781 0.14062 0.33594 0.14062 1.375v2.4297q0 1.0234 0.0391 1.2578 0.0391 0.22656 0.125 0.30469 0.0937 0.0781 0.21093 0.0781 0.125 0 0.21875-0.0547 0.16407-0.10157 0.63282-0.57032v0.4375q-0.875 1.1719-1.6719 1.1719-0.38281 0-0.60937-0.26563-0.22657-0.26562-0.23438-0.90625zm0-0.50781v-2.7266q-1.1797 0.46875-1.5234 0.66406-0.61718 0.34375-0.88281 0.71875-0.26562 0.375-0.26562 0.82031 0 0.5625 0.33593 0.9375 0.33594 0.36719 0.77344 0.36719 0.59375 0 1.5625-0.78125z"/>
    <path d="m223.79 237.32q1.2578-1.5156 2.3984-1.5156 0.58594 0 1.0078 0.29687 0.42188 0.28906 0.67188 0.96094 0.17187 0.46875 0.17187 1.4375v3.0547q0 0.67968 0.10938 0.92187 0.0859 0.19531 0.27343 0.30469 0.19532 0.10937 0.71094 0.10937v0.28125h-3.5391v-0.28125h0.14844q0.5 0 0.69531-0.14843 0.20312-0.15625 0.28125-0.45313 0.0312-0.11719 0.0312-0.73437v-2.9297q0-0.97656-0.25781-1.4141-0.25-0.44532-0.85157-0.44532-0.92968 0-1.8516 1.0156v3.7734q0 0.72656 0.0859 0.89843 0.10937 0.22657 0.29687 0.33594 0.19532 0.10156 0.78125 0.10156v0.28125h-3.5391v-0.28125h0.15625q0.54688 0 0.73438-0.27343 0.19531-0.28125 0.19531-1.0625v-2.6562q0-1.2891-0.0625-1.5703-0.0547-0.28125-0.17969-0.38281-0.11719-0.10156-0.32031-0.10156-0.21875 0-0.52344 0.11719l-0.11719-0.28125 2.1562-0.875h0.33594z"/>
   </g>
   <g aria-label="0A0B0C0D">
    <path d="m145.91 66.405q2.0801 0 3.252 1.4844 1.3965 1.7578 1.3965 5.8301 0 4.0625-1.4062 5.8398-1.1621 1.4648-3.2422 1.4648-2.0898 0-3.3691-1.6016-1.2793-1.6113-1.2793-5.7324 0-4.043 1.4062-5.8203 1.1621-1.4648 3.2422-1.4648zm0 2.2754q-0.49805 0-0.88867 0.32227-0.39063 0.3125-0.60547 1.1328-0.2832 1.0645-0.2832 3.584t0.2539 3.4668q0.25391 0.9375 0.63477 1.25 0.39062 0.3125 0.88867 0.3125t0.88867-0.3125q0.39063-0.32227 0.60547-1.1426 0.2832-1.0547 0.2832-3.5742t-0.2539-3.457q-0.25391-0.94727-0.64453-1.2598-0.38086-0.32227-0.87891-0.32227z"/>
    <path d="m165.92 80.78h-3.1445l-1.25-3.252h-5.7227l-1.1816 3.252h-3.0664l5.5762-14.316h3.0566zm-5.3223-5.6641-1.9727-5.3125-1.9336 5.3125z"/>
    <path d="m171.49 66.405q2.0801 0 3.252 1.4844 1.3965 1.7578 1.3965 5.8301 0 4.0625-1.4062 5.8398-1.1621 1.4648-3.2422 1.4648-2.0898 0-3.3691-1.6016-1.2793-1.6113-1.2793-5.7324 0-4.043 1.4062-5.8203 1.1621-1.4648 3.2422-1.4648zm0 2.2754q-0.49805 0-0.88867 0.32227-0.39063 0.3125-0.60547 1.1328-0.28321 1.0645-0.28321 3.584t0.25391 3.4668q0.25391 0.9375 0.63477 1.25 0.39062 0.3125 0.88867 0.3125t0.88867-0.3125q0.39063-0.32227 0.60547-1.1426 0.2832-1.0547 0.2832-3.5742t-0.2539-3.457q-0.25391-0.94727-0.64454-1.2598-0.38085-0.32227-0.8789-0.32227z"/>
    <path d="m178.6 66.464h5.7227q1.6992 0 2.5293 0.14648 0.83984 0.13672 1.4941 0.58594 0.66406 0.44922 1.1035 1.2012 0.43946 0.74219 0.43946 1.6699 0 1.0059-0.54688 1.8457-0.53711 0.83984-1.4648 1.2598 1.3086 0.38086 2.0117 1.2988 0.70312 0.91797 0.70312 2.1582 0 0.97656-0.45898 1.9043-0.44922 0.91797-1.2402 1.4746-0.78125 0.54688-1.9336 0.67383-0.72266 0.07813-3.4863 0.09766h-4.873zm2.8906 2.3828v3.3105h1.8945q1.6894 0 2.0996-0.04883 0.74219-0.08789 1.1621-0.50781 0.42969-0.42969 0.42969-1.123 0-0.66406-0.3711-1.0742-0.36133-0.41992-1.084-0.50781-0.42969-0.04883-2.4707-0.04883zm0 5.6934v3.8281h2.6758q1.5625 0 1.9824-0.08789 0.64453-0.11719 1.0449-0.56641 0.41016-0.45898 0.41016-1.2207 0-0.64453-0.3125-1.0938-0.3125-0.44922-0.9082-0.6543-0.58594-0.20508-2.5586-0.20508z"/>
    <path d="m197.08 66.405q2.0801 0 3.252 1.4844 1.3965 1.7578 1.3965 5.8301 0 4.0625-1.4062 5.8398-1.1621 1.4648-3.2422 1.4648-2.0898 0-3.3691-1.6016-1.2793-1.6113-1.2793-5.7324 0-4.043 1.4062-5.8203 1.1621-1.4648 3.2422-1.4648zm0 2.2754q-0.49805 0-0.88868 0.32227-0.39062 0.3125-0.60546 1.1328-0.28321 1.0645-0.28321 3.584t0.25391 3.4668q0.2539 0.9375 0.63476 1.25 0.39063 0.3125 0.88868 0.3125 0.49804 0 0.88867-0.3125 0.39062-0.32227 0.60547-1.1426 0.2832-1.0547 0.2832-3.5742t-0.25391-3.457q-0.2539-0.94727-0.64453-1.2598-0.38086-0.32227-0.8789-0.32227z"/>
    <path d="m213.34 75.516 2.8027 0.88867q-0.64454 2.3438-2.1484 3.4863-1.4941 1.1328-3.7988 1.1328-2.8516 0-4.6875-1.9434-1.8359-1.9531-1.8359-5.332 0-3.5742 1.8457-5.5469 1.8457-1.9824 4.8535-1.9824 2.627 0 4.2676 1.5527 0.97656 0.91797 1.4648 2.6367l-2.8613 0.68359q-0.25391-1.1133-1.0645-1.7578-0.80078-0.64453-1.9531-0.64453-1.5918 0-2.5879 1.1426-0.98633 1.1426-0.98633 3.7012 0 2.7148 0.97656 3.8672 0.97656 1.1523 2.5391 1.1523 1.1524 0 1.9824-0.73242 0.83007-0.73242 1.1914-2.3047z"/>
    <path d="m222.66 66.405q2.0801 0 3.252 1.4844 1.3965 1.7578 1.3965 5.8301 0 4.0625-1.4062 5.8398-1.1621 1.4648-3.2422 1.4648-2.0898 0-3.3691-1.6016-1.2793-1.6113-1.2793-5.7324 0-4.043 1.4062-5.8203 1.1621-1.4648 3.2422-1.4648zm0 2.2754q-0.49804 0-0.88867 0.32227-0.39062 0.3125-0.60547 1.1328-0.2832 1.0645-0.2832 3.584t0.25391 3.4668q0.2539 0.9375 0.63476 1.25 0.39063 0.3125 0.88867 0.3125 0.49805 0 0.88868-0.3125 0.39062-0.32227 0.60546-1.1426 0.28321-1.0547 0.28321-3.5742t-0.25391-3.457q-0.25391-0.94727-0.64453-1.2598-0.38086-0.32227-0.87891-0.32227z"/>
    <path d="m229.75 66.464h5.2832q1.7871 0 2.7246 0.27344 1.2598 0.37109 2.1582 1.3184 0.89844 0.94727 1.3672 2.3242 0.46875 1.3672 0.46875 3.3789 0 1.7676-0.43945 3.0469-0.53711 1.5625-1.5332 2.5293-0.75195 0.73242-2.0312 1.1426-0.95703 0.30274-2.5586 0.30274h-5.4394zm2.8906 2.4219v9.4824h2.1582q1.2109 0 1.748-0.13672 0.70313-0.17578 1.1621-0.5957 0.46875-0.41992 0.76172-1.377 0.29297-0.9668 0.29297-2.627 0-1.6602-0.29297-2.5488t-0.82031-1.3867q-0.52735-0.49805-1.3379-0.67383-0.60547-0.13672-2.373-0.13672z"/>
   </g>
  </g>
  <g aria-label="0A">
   <path d="m68.483 119.45q1.8721 0 2.9268 1.3359 1.2568 1.582 1.2568 5.2471 0 3.6562-1.2656 5.2559-1.0459 1.3184-2.918 1.3184-1.8809 0-3.0322-1.4414-1.1514-1.4502-1.1514-5.1592 0-3.6387 1.2656-5.2383 1.0459-1.3184 2.918-1.3184zm0 2.0478q-0.44824 0-0.7998 0.29004-0.35156 0.28125-0.54492 1.0195-0.25488 0.95801-0.25488 3.2256t0.22852 3.1201q0.22852 0.84375 0.57129 1.125 0.35156 0.28125 0.7998 0.28125t0.7998-0.28125q0.35156-0.29004 0.54492-1.0283 0.25488-0.94922 0.25488-3.2168t-0.22852-3.1113q-0.22852-0.85254-0.58008-1.1338-0.34277-0.29004-0.79102-0.29004z"/>
   <path d="m86.492 132.39h-2.8301l-1.125-2.9268h-5.1504l-1.0635 2.9268h-2.7598l5.0186-12.885h2.751zm-4.79-5.0976-1.7754-4.7812-1.7402 4.7812z"/>
  </g>
  <g aria-label="0B">
   <path d="m68.483 149.45q1.8721 0 2.9268 1.3359 1.2568 1.582 1.2568 5.2471 0 3.6562-1.2656 5.2559-1.0459 1.3184-2.918 1.3184-1.8809 0-3.0322-1.4414-1.1514-1.4502-1.1514-5.1592 0-3.6387 1.2656-5.2383 1.0459-1.3184 2.918-1.3184zm0 2.0478q-0.44824 0-0.7998 0.29004-0.35156 0.28125-0.54492 1.0195-0.25488 0.95801-0.25488 3.2256 0 2.2676 0.22852 3.1201 0.22852 0.84375 0.57129 1.125 0.35156 0.28125 0.7998 0.28125t0.7998-0.28125q0.35156-0.29004 0.54492-1.0283 0.25488-0.94922 0.25488-3.2168 0-2.2676-0.22852-3.1113-0.22852-0.85254-0.58008-1.1338-0.34277-0.29004-0.79102-0.29004z"/>
   <path d="m74.881 149.5h5.1504q1.5293 0 2.2764 0.13184 0.75586 0.12304 1.3447 0.52734 0.59766 0.4043 0.99316 1.0811 0.39551 0.66796 0.39551 1.5029 0 0.90527-0.49219 1.6611-0.4834 0.75586-1.3184 1.1338 1.1777 0.34277 1.8105 1.1689 0.63281 0.82617 0.63281 1.9424 0 0.8789-0.41309 1.7139-0.4043 0.82617-1.1162 1.3272-0.70312 0.49219-1.7402 0.60645-0.65039 0.0703-3.1377 0.0879h-4.3857zm2.6016 2.1445v2.9795h1.7051q1.5205 0 1.8896-0.0439 0.66797-0.0791 1.0459-0.45703 0.38672-0.38672 0.38672-1.0107 0-0.59766-0.33398-0.9668-0.3252-0.37793-0.97559-0.45703-0.38672-0.0439-2.2236-0.0439zm0 5.124v3.4453h2.4082q1.4062 0 1.7842-0.0791 0.58008-0.10547 0.94043-0.50977 0.36914-0.41308 0.36914-1.0986 0-0.58008-0.28125-0.98438-0.28125-0.40429-0.81738-0.58886-0.52734-0.18457-2.3027-0.18457z"/>
  </g>
  <g aria-label="0C">
   <path d="m68.483 179.45q1.8721 0 2.9268 1.3359 1.2568 1.582 1.2568 5.2471 0 3.6562-1.2656 5.2559-1.0459 1.3184-2.918 1.3184-1.8809 0-3.0322-1.4414-1.1514-1.4502-1.1514-5.1592 0-3.6387 1.2656-5.2383 1.0459-1.3184 2.918-1.3184zm0 2.0478q-0.44824 0-0.7998 0.29004-0.35156 0.28125-0.54492 1.0195-0.25488 0.95801-0.25488 3.2256t0.22852 3.1201q0.22852 0.84375 0.57129 1.125 0.35156 0.28125 0.7998 0.28125t0.7998-0.28125q0.35156-0.29004 0.54492-1.0283 0.25488-0.94922 0.25488-3.2168t-0.22852-3.1113q-0.22852-0.85254-0.58008-1.1338-0.34277-0.29004-0.79102-0.29004z"/>
   <path d="m83.117 187.65 2.5225 0.7998q-0.58008 2.1094-1.9336 3.1377-1.3447 1.0195-3.4189 1.0195-2.5664 0-4.2188-1.749-1.6523-1.7578-1.6523-4.7988 0-3.2168 1.6611-4.9922 1.6611-1.7842 4.3682-1.7842 2.3643 0 3.8408 1.3975 0.87891 0.82617 1.3184 2.373l-2.5752 0.61523q-0.22852-1.002-0.95801-1.582-0.7207-0.58008-1.7578-0.58008-1.4326 0-2.3291 1.0283-0.8877 1.0283-0.8877 3.3311 0 2.4434 0.87891 3.4805t2.2852 1.0371q1.0371 0 1.7842-0.65918t1.0723-2.0742z"/>
  </g>
  <g aria-label="0D">
   <path d="m68.483 209.45q1.8721 0 2.9268 1.3359 1.2568 1.582 1.2568 5.2471 0 3.6562-1.2656 5.2559-1.0459 1.3184-2.918 1.3184-1.8809 0-3.0322-1.4414-1.1514-1.4502-1.1514-5.1592 0-3.6387 1.2656-5.2383 1.0459-1.3184 2.918-1.3184zm0 2.0478q-0.44824 0-0.7998 0.29004-0.35156 0.28125-0.54492 1.0195-0.25488 0.95801-0.25488 3.2256t0.22852 3.1201q0.22852 0.84375 0.57129 1.125 0.35156 0.28125 0.7998 0.28125t0.7998-0.28125q0.35156-0.29004 0.54492-1.0283 0.25488-0.94922 0.25488-3.2168t-0.22852-3.1113q-0.22852-0.85254-0.58008-1.1338-0.34277-0.29004-0.79102-0.29004z"/>
   <path d="m74.864 209.5h4.7549q1.6084 0 2.4521 0.24609 1.1338 0.33398 1.9424 1.1865t1.2305 2.0918q0.42188 1.2305 0.42188 3.041 0 1.5908-0.39551 2.7422-0.4834 1.4062-1.3799 2.2764-0.67676 0.65918-1.8281 1.0283-0.86133 0.27246-2.3027 0.27246h-4.8955zm2.6016 2.1797v8.5342h1.9424q1.0898 0 1.5732-0.12304 0.63281-0.15821 1.0459-0.53614 0.42188-0.37793 0.68555-1.2392 0.26367-0.87012 0.26367-2.3643t-0.26367-2.294q-0.26367-0.7998-0.73828-1.248-0.47461-0.44825-1.2041-0.60645-0.54492-0.12305-2.1357-0.12305z"/>
  </g>
  <g aria-label="a:">
   <path d="m51.5 123.05-1.7139 5.959-0.19336 0.7998q-0.02637 0.11426-0.02637 0.19336 0 0.14063 0.08789 0.2461 0.07031 0.0791 0.17578 0.0791 0.11426 0 0.29883-0.14063 0.34277-0.25488 0.91406-1.0547l0.29883 0.21093q-0.60644 0.91407-1.248 1.3975-0.6416 0.47461-1.1865 0.47461-0.37793 0-0.57129-0.19336-0.18457-0.18457-0.18457-0.54492 0-0.43066 0.19336-1.1338l0.18457-0.65918q-1.1514 1.5029-2.1182 2.1006-0.69434 0.43066-1.3623 0.43066-0.6416 0-1.1074-0.52734-0.46582-0.53613-0.46582-1.4678 0-1.3975 0.83496-2.9443 0.84375-1.5557 2.1357-2.4873 1.0107-0.73829 1.9072-0.73829 0.53613 0 0.8877 0.28125 0.36035 0.28125 0.54492 0.93165l0.31641-1.002zm-3.1289 0.45704q-0.5625 0-1.1953 0.52734-0.89648 0.74707-1.5996 2.2148-0.69434 1.4678-0.69434 2.6543 0 0.59766 0.29883 0.94922 0.29883 0.34277 0.68555 0.34277 0.95801 0 2.083-1.415 1.5029-1.8809 1.5029-3.8584 0-0.74708-0.29004-1.0811t-0.79102-0.33398z"/>
   <path d="m54.593 122.71q0.4043 0 0.68555 0.29004 0.29004 0.28125 0.29004 0.68555 0 0.40429-0.29004 0.69433-0.28125 0.28125-0.68555 0.28125-0.4043 0-0.69434-0.28125-0.28125-0.29004-0.28125-0.69433 0-0.4043 0.28125-0.68555 0.29004-0.29004 0.69434-0.29004zm-0.01758 6.583q0.41309 0 0.69434 0.29004 0.29004 0.29004 0.29004 0.69433 0 0.4043-0.29004 0.69434-0.29004 0.28125-0.69434 0.28125t-0.69434-0.28125q-0.28125-0.29004-0.28125-0.69434 0-0.40429 0.28125-0.69433 0.29004-0.29004 0.69434-0.29004z"/>
  </g>
  <g aria-label="a+1:">
   <path d="m32.339 153.05-1.7139 5.959-0.19336 0.7998q-0.02637 0.11426-0.02637 0.19336 0 0.14063 0.08789 0.2461 0.07031 0.0791 0.17578 0.0791 0.11426 0 0.29883-0.14063 0.34277-0.25488 0.91406-1.0547l0.29883 0.21093q-0.60644 0.91407-1.248 1.3975-0.6416 0.47461-1.1865 0.47461-0.37793 0-0.57129-0.19336-0.18457-0.18457-0.18457-0.54492 0-0.43066 0.19336-1.1338l0.18457-0.65918q-1.1514 1.5029-2.1182 2.1006-0.69434 0.43066-1.3623 0.43066-0.6416 0-1.1074-0.52734-0.46582-0.53613-0.46582-1.4678 0-1.3975 0.83496-2.9443 0.84375-1.5557 2.1357-2.4873 1.0107-0.73829 1.9072-0.73829 0.53613 0 0.8877 0.28125 0.36035 0.28125 0.54492 0.93165l0.31641-1.002zm-3.1289 0.45704q-0.5625 0-1.1953 0.52734-0.89648 0.74707-1.5996 2.2148-0.69434 1.4678-0.69434 2.6543 0 0.59766 0.29883 0.94922 0.29883 0.34277 0.68555 0.34277 0.95801 0 2.083-1.415 1.5029-1.8809 1.5029-3.8584 0-0.74707-0.29004-1.081-0.29004-0.33398-0.79102-0.33398z"/>
   <path d="m37.595 159.76v-4.3857h-4.377v-0.72071h4.377v-4.3682h0.70312v4.3682h4.3945v0.72071h-4.3945v4.3857z"/>
   <path d="m45.163 150.25 2.9004-1.415h0.29004v10.063q0 1.002 0.0791 1.248 0.08789 0.24609 0.35156 0.37793 0.26367 0.13183 1.0723 0.14941v0.3252h-4.4824v-0.3252q0.84375-0.0176 1.0898-0.14062 0.24609-0.13184 0.34277-0.34278 0.09668-0.21972 0.09668-1.292v-6.4336q0-1.3008-0.08789-1.6699-0.06152-0.28125-0.22852-0.41308-0.1582-0.13184-0.38672-0.13184-0.3252 0-0.90527 0.27246z"/>
   <path d="m54.593 152.71q0.4043 0 0.68555 0.29004 0.29004 0.28125 0.29004 0.68555 0 0.40429-0.29004 0.69433-0.28125 0.28125-0.68555 0.28125-0.4043 0-0.69434-0.28125-0.28125-0.29004-0.28125-0.69433 0-0.4043 0.28125-0.68555 0.29004-0.29004 0.69434-0.29004zm-0.01758 6.583q0.41309 0 0.69434 0.29004 0.29004 0.29004 0.29004 0.69433 0 0.4043-0.29004 0.69434-0.29004 0.28125-0.69434 0.28125t-0.69434-0.28125q-0.28125-0.29004-0.28125-0.69434 0-0.40429 0.28125-0.69433 0.29004-0.29004 0.69434-0.29004z"/>
  </g>
  <g aria-label="a+2:">
   <path d="m32.339 183.05-1.7139 5.959-0.19336 0.7998q-0.02637 0.11426-0.02637 0.19336 0 0.14063 0.08789 0.2461 0.07031 0.0791 0.17578 0.0791 0.11426 0 0.29883-0.14063 0.34277-0.25488 0.91406-1.0547l0.29883 0.21093q-0.60644 0.91407-1.248 1.3975-0.6416 0.47461-1.1865 0.47461-0.37793 0-0.57129-0.19336-0.18457-0.18457-0.18457-0.54492 0-0.43066 0.19336-1.1338l0.18457-0.65918q-1.1514 1.5029-2.1182 2.1006-0.69434 0.43066-1.3623 0.43066-0.6416 0-1.1074-0.52734-0.46582-0.53613-0.46582-1.4678 0-1.3975 0.83496-2.9443 0.84375-1.5557 2.1357-2.4873 1.0107-0.73829 1.9072-0.73829 0.53613 0 0.8877 0.28125 0.36035 0.28125 0.54492 0.93165l0.31641-1.002zm-3.1289 0.45704q-0.5625 0-1.1953 0.52734-0.89648 0.74707-1.5996 2.2148-0.69434 1.4678-0.69434 2.6543 0 0.59766 0.29883 0.94922 0.29883 0.34277 0.68555 0.34277 0.95801 0 2.083-1.415 1.5029-1.8809 1.5029-3.8584 0-0.74707-0.29004-1.081-0.29004-0.33398-0.79102-0.33398z"/>
   <path d="m37.595 189.76v-4.3857h-4.377v-0.72071h4.377v-4.3682h0.70312v4.3682h4.3945v0.72071h-4.3945v4.3857z"/>
   <path d="m51.306 188.71-0.83496 2.294h-7.0312v-0.3252q3.1025-2.8301 4.3682-4.623 1.2656-1.793 1.2656-3.2783 0-1.1338-0.69434-1.8633t-1.6611-0.72949q-0.87891 0-1.582 0.51855-0.69434 0.50977-1.0283 1.5029h-0.3252q0.21973-1.626 1.125-2.4961 0.91406-0.87012 2.2764-0.87012 1.4502 0 2.417 0.93164 0.97559 0.93164 0.97559 2.1973 0 0.90527-0.42188 1.8106-0.65039 1.4238-2.1094 3.0146-2.1885 2.3906-2.7334 2.8828h3.1113q0.94922 0 1.3271-0.0703 0.38672-0.0703 0.69434-0.28125 0.30762-0.21973 0.53613-0.61524z"/>
   <path d="m54.593 182.71q0.4043 0 0.68555 0.29004 0.29004 0.28125 0.29004 0.68555 0 0.40429-0.29004 0.69433-0.28125 0.28125-0.68555 0.28125-0.4043 0-0.69434-0.28125-0.28125-0.29004-0.28125-0.69433 0-0.4043 0.28125-0.68555 0.29004-0.29004 0.69434-0.29004zm-0.01758 6.583q0.41309 0 0.69434 0.29004 0.29004 0.29004 0.29004 0.69433 0 0.4043-0.29004 0.69434-0.29004 0.28125-0.69434 0.28125t-0.69434-0.28125q-0.28125-0.29004-0.28125-0.69434 0-0.40429 0.28125-0.69433 0.29004-0.29004 0.69434-0.29004z"/>
  </g>
  <g aria-label="a+3:">
   <path d="m32.339 213.05-1.7139 5.959-0.19336 0.7998q-0.02637 0.11426-0.02637 0.19336 0 0.14063 0.08789 0.2461 0.07031 0.0791 0.17578 0.0791 0.11426 0 0.29883-0.14063 0.34277-0.25488 0.91406-1.0547l0.29883 0.21093q-0.60644 0.91407-1.248 1.3975-0.6416 0.47461-1.1865 0.47461-0.37793 0-0.57129-0.19336-0.18457-0.18457-0.18457-0.54492 0-0.43066 0.19336-1.1338l0.18457-0.65918q-1.1514 1.5029-2.1182 2.1006-0.69434 0.43066-1.3623 0.43066-0.6416 0-1.1074-0.52734-0.46582-0.53613-0.46582-1.4678 0-1.3975 0.83496-2.9443 0.84375-1.5557 2.1357-2.4873 1.0107-0.73829 1.9072-0.73829 0.53613 0 0.8877 0.28125 0.36035 0.28125 0.54492 0.93165l0.31641-1.002zm-3.1289 0.45704q-0.5625 0-1.1953 0.52734-0.89648 0.74707-1.5996 2.2148-0.69434 1.4678-0.69434 2.6543 0 0.59766 0.29883 0.94922 0.29883 0.34277 0.68555 0.34277 0.95801 0 2.083-1.415 1.5029-1.8809 1.5029-3.8584 0-0.74707-0.29004-1.081-0.29004-0.33398-0.79102-0.33398z"/>
   <path d="m37.595 219.76v-4.3857h-4.377v-0.72071h4.377v-4.3682h0.70312v4.3682h4.3945v0.72071h-4.3945v4.3857z"/>
   <path d="m43.967 211.35q0.50976-1.2041 1.2832-1.8545 0.78223-0.65918 1.9424-0.65918 1.4326 0 2.1973 0.93164 0.58008 0.69434 0.58008 1.4854 0 1.3008-1.6348 2.6894 1.0986 0.43066 1.6611 1.2305 0.5625 0.7998 0.5625 1.8809 0 1.5469-0.98438 2.6807-1.2832 1.4766-3.7178 1.4766-1.2041 0-1.6436-0.29882-0.43066-0.29883-0.43066-0.64161 0-0.25488 0.20215-0.44824 0.21094-0.19336 0.50098-0.19336 0.21973 0 0.44824 0.0703 0.14941 0.0439 0.67676 0.3252 0.52734 0.27246 0.72949 0.3252 0.3252 0.0967 0.69434 0.0967 0.89648 0 1.5557-0.69434 0.66797-0.69434 0.66797-1.6436 0-0.69433-0.30762-1.3535-0.22852-0.49219-0.50098-0.74707-0.37793-0.35156-1.0371-0.63281-0.65918-0.29004-1.3447-0.29004h-0.28125v-0.26367q0.69434-0.0879 1.3887-0.50098 0.70312-0.41309 1.0195-0.99317 0.31641-0.58007 0.31641-1.2744 0-0.90527-0.57129-1.459-0.5625-0.5625-1.4062-0.5625-1.3623 0-2.2764 1.459z"/>
   <path d="m54.593 212.71q0.4043 0 0.68555 0.29004 0.29004 0.28125 0.29004 0.68555 0 0.40429-0.29004 0.69433-0.28125 0.28125-0.68555 0.28125-0.4043 0-0.69434-0.28125-0.28125-0.29004-0.28125-0.69433 0-0.4043 0.28125-0.68555 0.29004-0.29004 0.69434-0.29004zm-0.01758 6.583q0.41309 0 0.69434 0.29004 0.29004 0.29004 0.29004 0.69433 0 0.4043-0.29004 0.69434-0.29004 0.28125-0.69434 0.28125t-0.69434-0.28125q-0.28125-0.29004-0.28125-0.69434 0-0.40429 0.28125-0.69433 0.29004-0.29004 0.69434-0.29004z"/>
  </g>
 </g>
</svg>
