<svg width="330" height="30" version="1.1" viewBox="0 0 330 30" xmlns="http://www.w3.org/2000/svg" xmlns:xlink="http://www.w3.org/1999/xlink">
 <defs>
  <g id="b">
   <path d="m1.9062-3.9062v3.9062h1.125v-5.6719h-.75c-.17188.67188-.76562 1.0156-1.7344 1.0156v.75z"/>
  </g>
  <g id="a">
   <path d="m2.1875-5.7969c-.60938 0-1.125.26562-1.4688.73438-.32812.4375-.48438 1.1562-.48438 2.2656 0 1 .125 1.7031.39062 2.1406.34375.54688.89062.84375 1.5625.84375.60938 0 1.1094-.25 1.4688-.71875.3125-.4375.48438-1.1719.48438-2.2344 0-1.0469-.125-1.75-.40625-2.1875-.32812-.54688-.89062-.84375-1.5469-.84375zm0 .90625c.28125 0 .51562.15625.65625.45312.10938.25.17188.85938.17188 1.6406 0 .64062-.0625 1.2656-.14062 1.5-.125.34375-.375.51562-.6875.51562-.29688 0-.53125-.14062-.65625-.4375-.10938-.23438-.17188-.82812-.17188-1.5938 0-.67188.046875-1.3125.14062-1.5469.10938-.34375.35938-.53125.6875-.53125z"/>
  </g>
  <g id="g">
   <path d="m.60938 0h2.2812c.89062 0 1.4531-.20312 1.8594-.6875.45312-.53125.70312-1.3281.70312-2.2344s-.25-1.6875-.70312-2.2344c-.40625-.46875-.95312-.67188-1.8594-.67188h-2.2812zm1.2031-1v-3.8281h1.0781c.90625 0 1.3594.625 1.3594 1.9219 0 1.2812-.45312 1.9062-1.3594 1.9062z"/>
  </g>
  <g id="f">
   <path d="m1.8281-2.5156h2.7969v-1h-2.7969v-1.3125h3.0156v-1h-4.2188v5.8281h4.3594v-1h-3.1562z"/>
  </g>
  <g id="e">
   <path d="m5.4531-3.8594c-.03125-.5-.14062-.82812-.39062-1.1562-.45312-.57812-1.1719-.90625-2.0312-.90625-1.6562 0-2.6719 1.1719-2.6719 3.0625 0 1.875 1.0156 3.0469 2.625 3.0469 1.4688 0 2.4219-.84375 2.5-2.1719h-1.1719c-.078125.73438-.54688 1.1562-1.2812 1.1562-.9375 0-1.4844-.75-1.4844-2.0156 0-1.2969.57812-2.0625 1.5156-2.0625.70312 0 1.0938.34375 1.25 1.0469z"/>
  </g>
  <g id="c">
   <path d="m.29688-1.3125c.03125.85938.76562 1.5 1.75 1.5.71875 0 1.2656-.29688 1.6094-.875.29688-.5.46875-1.3594.46875-2.2656 0-.84375-.125-1.4844-.39062-1.9062-.35938-.60938-.92188-.9375-1.5938-.9375-1.1406 0-1.9219.82812-1.9219 2s.6875 1.9688 1.7031 1.9688c.28125 0 .5625-.078125.73438-.20312.10938-.078125.17188-.14062.35938-.35938 0 1.1094-.3125 1.625-.9375 1.625-.40625 0-.67188-.21875-.6875-.54688zm1.8125-3.5625c.53125 0 .875.40625.875 1.0781 0 .625-.34375 1.0469-.85938 1.0469s-.84375-.40625-.84375-1.0625.3125-1.0625.82812-1.0625z"/>
  </g>
  <g id="d">
   <path d="m4.1719-2.1875h-.59375v-3.4844h-1.3125l-2.0781 3.4688v.95312h2.2812v1.25h1.1094v-1.25h.59375zm-1.7031 0h-1.4844l1.4844-2.4219z"/>
  </g>
 </defs>
 <g transform="translate(-122.76 -58.859)" fill="#ffcc00">
  <use x="128.8" y="67.599998" xlink:href="#b"/>
  <use x="138.89999" y="67.599998" xlink:href="#b"/>
  <use x="149.10001" y="67.599998" xlink:href="#a"/>
  <use x="159.2" y="67.599998" xlink:href="#b"/>
  <use x="169.3" y="67.599998" xlink:href="#b"/>
  <use x="179.39999" y="67.599998" xlink:href="#b"/>
  <use x="189.60001" y="67.599998" xlink:href="#b"/>
  <use x="199.7" y="67.599998" xlink:href="#a"/>
  <use x="209.8" y="67.599998" xlink:href="#b"/>
  <use x="219.89999" y="67.599998" xlink:href="#b"/>
  <use x="230.10001" y="67.599998" xlink:href="#a"/>
  <use x="240.2" y="67.599998" xlink:href="#a"/>
  <use x="250.3" y="67.599998" xlink:href="#b"/>
  <use x="260.39999" y="67.599998" xlink:href="#a"/>
  <use x="270.60001" y="67.599998" xlink:href="#a"/>
  <use x="280.70001" y="67.599998" xlink:href="#b"/>
  <use x="290.79999" y="67.599998" xlink:href="#a"/>
  <use x="300.89999" y="67.599998" xlink:href="#a"/>
  <use x="311.10001" y="67.599998" xlink:href="#a"/>
  <use x="321.20001" y="67.599998" xlink:href="#a"/>
  <use x="331.29999" y="67.599998" xlink:href="#b"/>
  <use x="341.39999" y="67.599998" xlink:href="#a"/>
  <use x="351.60001" y="67.599998" xlink:href="#a"/>
  <use x="361.70001" y="67.599998" xlink:href="#b"/>
  <use x="371.79999" y="67.599998" xlink:href="#a"/>
  <use x="381.89999" y="67.599998" xlink:href="#b"/>
  <use x="392.10001" y="67.599998" xlink:href="#a"/>
  <use x="402.20001" y="67.599998" xlink:href="#a"/>
  <use x="412.29999" y="67.599998" xlink:href="#b"/>
  <use x="422.39999" y="67.599998" xlink:href="#a"/>
  <use x="432.60001" y="67.599998" xlink:href="#a"/>
  <use x="442.70001" y="67.599998" xlink:href="#b"/>
 </g>
 <g transform="translate(-122.76 -58.859)" fill="#ff6600">
  <use x="143.3" y="85.599998" xlink:href="#g"/>
  <use x="184" y="85.599998" xlink:href="#f"/>
  <use x="224.3" y="85.599998" xlink:href="#e"/>
  <use x="265.5" y="85.599998" xlink:href="#c"/>
  <use x="306" y="85.599998" xlink:href="#a"/>
  <use x="346.5" y="85.599998" xlink:href="#c"/>
  <use x="387" y="85.599998" xlink:href="#d"/>
  <use x="427.5" y="85.599998" xlink:href="#c"/>
 </g>
 <g fill="none" stroke="#000" stroke-linecap="round" stroke-miterlimit="10" stroke-width=".25">
  <path d="m4.2427 10.743c0 1.9883 1.6133 3.5977 3.6016 3.5977"/>
  <path d="m7.8442 14.34h11.898"/>
  <path d="m23.442 17.942c0-1.9883-1.6094-3.6016-3.5977-3.6016"/>
  <path d="m27.043 14.34c-1.9883 0-3.6016 1.6133-3.6016 3.6016"/>
  <path d="m27.043 14.34h11.898"/>
  <path d="m39.043 14.34c1.9883 0 3.5977-1.6094 3.5977-3.5977"/>
  <path d="m44.743 10.743c0 1.9883 1.6133 3.5977 3.6016 3.5977"/>
  <path d="m48.344 14.34h11.898"/>
  <path d="m63.942 17.942c0-1.9883-1.6094-3.6016-3.5977-3.6016"/>
  <path d="m67.543 14.34c-1.9883 0-3.6016 1.6133-3.6016 3.6016"/>
  <path d="m67.543 14.34h11.898"/>
  <path d="m79.543 14.34c1.9883 0 3.5977-1.6094 3.5977-3.5977"/>
  <path d="m85.243 10.743c0 1.9883 1.6133 3.5977 3.6016 3.5977"/>
  <path d="m88.844 14.34h11.898"/>
  <path d="m104.44 17.942c0-1.9883-1.6094-3.6016-3.5976-3.6016"/>
  <path d="m108.04 14.34c-1.9883 0-3.6016 1.6133-3.6016 3.6016"/>
  <path d="m108.04 14.34h11.898"/>
  <path d="m120.04 14.34c1.9883 0 3.5976-1.6094 3.5976-3.5977"/>
  <path d="m125.74 10.743c0 1.9883 1.6133 3.5977 3.6016 3.5977"/>
  <path d="m129.44 14.34h11.902"/>
  <path d="m144.94 17.942c0-1.9883-1.6094-3.6016-3.5976-3.6016"/>
  <path d="m148.54 14.34c-1.9883 0-3.6016 1.6133-3.6016 3.6016"/>
  <path d="m148.54 14.34h11.898"/>
  <path d="m160.54 14.34c1.9883 0 3.5976-1.6094 3.5976-3.5977"/>
  <path d="m166.24 10.743c0 1.9883 1.6133 3.5977 3.6016 3.5977"/>
  <path d="m169.84 14.34h11.898"/>
  <path d="m185.44 17.942c0-1.9883-1.6094-3.6016-3.5976-3.6016"/>
  <path d="m189.04 14.34c-1.9883 0-3.6016 1.6133-3.6016 3.6016"/>
  <path d="m189.04 14.34h11.898"/>
  <path d="m201.04 14.34c1.9883 0 3.5976-1.6094 3.5976-3.5977"/>
  <path d="m206.74 10.743c0 1.9883 1.6133 3.5977 3.6016 3.5977"/>
  <path d="m210.34 14.34h11.898"/>
  <path d="m225.94 17.942c0-1.9883-1.6094-3.6016-3.5976-3.6016"/>
  <path d="m229.54 14.34c-1.9883 0-3.6016 1.6133-3.6016 3.6016"/>
  <path d="m229.54 14.34h11.898"/>
  <path d="m241.54 14.34c1.9883 0 3.5976-1.6094 3.5976-3.5977"/>
  <path d="m247.24 10.743c0 1.9883 1.6133 3.5977 3.6016 3.5977"/>
  <path d="m250.84 14.34h11.898"/>
  <path d="m266.44 17.942c0-1.9883-1.6094-3.6016-3.5976-3.6016"/>
  <path d="m270.04 14.34c-1.9883 0-3.6016 1.6133-3.6016 3.6016"/>
  <path d="m270.04 14.34h11.898"/>
  <path d="m281.94 14.34c1.9883 0 3.6016-1.6094 3.6016-3.5977"/>
  <path d="m287.74 10.743c0 1.9883 1.6133 3.5977 3.6016 3.5977"/>
  <path d="m291.44 14.34h11.902"/>
  <path d="m306.94 17.942c0-1.9883-1.6094-3.6016-3.5976-3.6016"/>
  <path d="m310.54 14.34c-1.9883 0-3.6016 1.6133-3.6016 3.6016"/>
  <path d="m310.54 14.34h11.898"/>
  <path d="m322.54 14.34c1.9883 0 3.5976-1.6094 3.5976-3.5977"/>
 </g>
</svg>
