<svg width="120" height="300" version="1.1" viewBox="0 0 120 300" xmlns="http://www.w3.org/2000/svg" xmlns:xlink="http://www.w3.org/1999/xlink">
 <defs>
  <g id="a">
   <path d="m0.46875-5.8281v5.8281h1.125v-0.4375c0.26562 0.42188 0.64062 0.625 1.1875 0.625 1.0312 0 1.8125-0.98438 1.8125-2.2969 0-0.57812-0.17188-1.1719-0.45312-1.5938-0.29688-0.42188-0.82812-0.6875-1.3594-0.6875-0.54688 0-0.92188 0.20312-1.1875 0.625v-2.0625zm2.0625 2.375c0.5625 0 0.95312 0.5625 0.95312 1.3594s-0.39062 1.3438-0.95312 1.3438-0.9375-0.53125-0.9375-1.375c0-0.78125 0.375-1.3281 0.9375-1.3281z"/>
  </g>
  <g id="c">
   <path d="m4.3281 0v-4.3125h-1.125v2.7031c0 0.5-0.34375 0.84375-0.90625 0.84375-0.46875 0-0.71875-0.26562-0.71875-0.78125v-2.7656h-1.1094v3c0 0.95312 0.51562 1.5 1.4375 1.5 0.59375 0 0.98438-0.21875 1.2969-0.70312v0.51562z"/>
  </g>
  <g id="b">
   <path d="m4.0469-2.9219c-0.015625-0.92188-0.73438-1.4688-1.8906-1.4688-1.0938 0-1.7656 0.54688-1.7656 1.4375 0 0.29688 0.078125 0.53125 0.23438 0.70312 0.15625 0.15625 0.28125 0.21875 0.70312 0.35938l1.3281 0.42188c0.28125 0.078125 0.39062 0.17188 0.39062 0.34375 0 0.26562-0.3125 0.42188-0.84375 0.42188-0.29688 0-0.51562-0.046875-0.65625-0.14062-0.125-0.09375-0.17188-0.1875-0.21875-0.40625h-1.0938c0.03125 0.95312 0.71875 1.4375 2.0312 1.4375 0.60938 0 1.0625-0.125 1.375-0.39062 0.32812-0.25 0.51562-0.65625 0.51562-1.0781 0-0.5625-0.28125-0.92188-0.84375-1.0938l-1.4219-0.40625c-0.3125-0.09375-0.39062-0.15625-0.39062-0.32812 0-0.25 0.26562-0.40625 0.65625-0.40625 0.53125 0 0.79688 0.20312 0.79688 0.59375z"/>
  </g>
  <g id="i">
   <path d="m4.0938-1h-2.4062c0.15625-0.29688 0.32812-0.46875 1.1562-1.0781 0.98438-0.71875 1.2812-1.1406 1.2812-1.9062 0-1.1094-0.76562-1.8125-1.9531-1.8125-1.1719 0-1.8594 0.70312-1.8594 1.9062v0.1875h1.0781v-0.17188c0-0.64062 0.29688-1 0.8125-1 0.5 0 0.79688 0.34375 0.79688 0.90625 0 0.625-0.1875 0.85938-1.4531 1.7656-0.96875 0.65625-1.2656 1.1406-1.3125 2.2031h3.8594z"/>
  </g>
  <g id="h">
   <path d="m1.9062-3.9062v3.9062h1.125v-5.6719h-0.75c-0.17188 0.67188-0.76562 1.0156-1.7344 1.0156v0.75z"/>
  </g>
  <g id="g">
   <path d="m0.5-4.3125v4.3125h1.125v-2.2969c0-0.65625 0.32812-0.98438 0.98438-0.98438 0.125 0 0.20312 0.015625 0.34375 0.03125v-1.1406h-0.125c-0.51562 0-0.95312 0.32812-1.2031 0.92188v-0.84375z"/>
  </g>
  <g id="f">
   <path d="m1.6562-4.3125h-1.125v4.3125h1.125zm0-1.5156h-1.125v1h1.125z"/>
  </g>
  <g id="e">
   <path d="m3.2344 0h1.125v-5.8281h-1.125v2.0625c-0.28125-0.42188-0.64062-0.625-1.1875-0.625-1.0312 0-1.8125 0.98438-1.8125 2.2969 0 0.57812 0.17188 1.1719 0.46875 1.5938 0.28125 0.42188 0.8125 0.6875 1.3438 0.6875 0.54688 0 0.90625-0.20312 1.1875-0.625zm-0.9375-3.4531c0.5625 0 0.9375 0.54688 0.9375 1.375 0 0.78125-0.375 1.3281-0.9375 1.3281s-0.9375-0.54688-0.9375-1.3438c0-0.8125 0.375-1.3594 0.9375-1.3594z"/>
  </g>
  <g id="d">
   <path d="m3.2031-4.3125v0.65625c-0.3125-0.5-0.65625-0.73438-1.1094-0.73438-0.39062 0-0.8125 0.1875-1.1094 0.5-0.4375 0.45312-0.65625 1.0781-0.65625 1.8281 0 1.3281 0.70312 2.25 1.7344 2.25 0.46875 0 0.75-0.15625 1.1406-0.625v0.57812c0 0.51562-0.375 0.89062-0.90625 0.89062-0.39062 0-0.64062-0.1875-0.73438-0.51562h-1.1406c0 0.34375 0.125 0.57812 0.42188 0.8125 0.34375 0.28125 0.8125 0.42188 1.4219 0.42188 1.25 0 2-0.60938 2-1.6094v-4.4531zm-0.90625 0.85938c0.53125 0 0.92188 0.57812 0.92188 1.375s-0.375 1.3281-0.9375 1.3281c-0.48438 0-0.82812-0.53125-0.82812-1.3281 0-0.8125 0.34375-1.375 0.84375-1.375z"/>
  </g>
  <g id="j">
   <path d="m4.1875-1.8125c0.015625-0.09375 0.015625-0.125 0.015625-0.1875 0-0.4375-0.0625-0.82812-0.17188-1.1406-0.28125-0.78125-0.98438-1.25-1.8594-1.25-1.2344 0-2 0.89062-2 2.3438 0 1.3906 0.75 2.2344 1.9844 2.2344 0.96875 0 1.75-0.54688 2-1.4062h-1.1094c-0.14062 0.34375-0.45312 0.54688-0.85938 0.54688-0.3125 0-0.57812-0.14062-0.73438-0.375-0.09375-0.15625-0.14062-0.35938-0.15625-0.76562zm-2.875-0.73438c0.078125-0.67188 0.34375-0.98438 0.84375-0.98438 0.51562 0 0.8125 0.34375 0.875 0.98438z"/>
  </g>
 </defs>
 <g transform="rotate(-90 149.91 150.76)" stroke-linecap="round" stroke-miterlimit="10" stroke-width="2">
  <path d="m20.793 93.335h259.2" stroke="#000a15"/>
  <path d="m280 93.335v-7.1992" stroke="#000000"/>
  <path d="m280 86.136 14.398 14.402" stroke="#000a15"/>
  <path d="m294.39 100.54-14.398 14.398" stroke="#000a15"/>
  <path d="m280 114.94v-7.1992" stroke="#000000"/>
  <path d="m280 107.74h-259.2" stroke="#000a15"/>
  <path d="m20.793 107.74v7.1992" stroke="#000000"/>
  <path d="m20.793 114.94-14.398-14.398" stroke="#000a15"/>
  <path d="m6.395 100.54 14.398-14.402" stroke="#000a15"/>
  <path d="m20.793 86.136v7.1992" stroke="#000000"/>
  <path d="m20.793 14.136h259.2" stroke="#000a15"/>
  <path d="m280 14.136v-7.1992" stroke="#000000"/>
  <path d="m280 6.9368 14.398 14.398" stroke="#000a15"/>
  <path d="m294.39 21.335-14.398 14.402" stroke="#000a15"/>
  <path d="m280 35.738v-7.1992" stroke="#000000"/>
  <path d="m280 28.538h-259.2" stroke="#000a15"/>
  <path d="m20.793 28.538v7.1992" stroke="#000000"/>
  <path d="m20.793 35.738-14.398-14.402" stroke="#000a15"/>
  <path d="m6.395 21.335 14.398-14.398" stroke="#000a15"/>
  <path d="m20.793 6.9368v7.1992" stroke="#000000"/>
 </g>
 <g transform="translate(-227.78 30.047)">
  <use transform="translate(19.6 -82.394)" x="277.5" y="162.60001" xlink:href="#a"/>
  <use transform="translate(19.6 -82.394)" x="282.388" y="162.60001" xlink:href="#c"/>
  <use transform="translate(19.6 -82.394)" x="287.276" y="162.60001" xlink:href="#b"/>
  <use transform="translate(19.6 -82.394)" x="294" y="162.60001" xlink:href="#i"/>
  <use transform="translate(-20.157 -3.2534)" x="277.5" y="83.400002" xlink:href="#a"/>
  <use transform="translate(-20.157 -3.2534)" x="282.388" y="83.400002" xlink:href="#c"/>
  <use transform="translate(-20.157 -3.2534)" x="287.276" y="83.400002" xlink:href="#b"/>
  <use transform="translate(-20.157 -3.2534)" x="294" y="83.400002" xlink:href="#h"/>
 </g>
 <g transform="translate(-90.231 80.734)" stroke-linecap="round" stroke-miterlimit="10" stroke-width="2">
  <path stroke="#156ef7" d="m132.39 68.136v-14.398"/>
  <path stroke="#156ef7" d="m132.39 53.738h36"/>
  <path stroke="#156ef7" d="m168.39 53.738v14.398"/>
 </g>
 <g transform="translate(-227.02 20.574)">
  <use x="275.79999" y="123" xlink:href="#a"/>
  <use x="280.68799" y="123" xlink:href="#g"/>
  <use x="283.79999" y="123" xlink:href="#f"/>
  <use x="286.02399" y="123" xlink:href="#e"/>
  <use x="290.91199" y="123" xlink:href="#d"/>
  <use x="295.79999" y="123" xlink:href="#j"/>
 </g>
 <g transform="rotate(-90 149.85 150.7)" stroke-linecap="round" stroke-miterlimit="10" stroke-width="2">
  <path d="m151.26 79.129v-36" stroke="#156ef7"/>
  <path d="m148.59 46.538 1.8008 7.1992" stroke="#00ff00"/>
  <path d="m150.39 46.238v7.3984" stroke="#007fff"/>
 </g>
 <g transform="rotate(-90 149.91 150.76)" stroke-linecap="round" stroke-miterlimit="10" stroke-width="2">
  <path stroke="#00ff00" d="m152.2 46.538-1.8008 7.1992"/>
  <path stroke="#00ff00" d="m150.39 53.738v-25.199"/>
  <path stroke="#00ff00" d="m152.2 35.738-1.8008-7.1992"/>
  <path stroke="#00ff00" d="m148.59 35.738 1.8008-7.1992"/>
  <path stroke="#00ff00" d="m152.2 75.335-1.8008-7.1992"/>
  <path stroke="#00ff00" d="m148.59 75.335 1.8008-7.1992"/>
  <path stroke="#00ff00" d="m150.39 68.136v25.199"/>
  <path stroke="#00ff00" d="m148.59 86.136 1.8008 7.1992"/>
  <path stroke="#00ff00" d="m152.2 86.136-1.8008 7.1992"/>
 </g>
</svg>
