<svg width="262" height="242" version="1.1" viewBox="0 0 262 242" xmlns="http://www.w3.org/2000/svg" xmlns:xlink="http://www.w3.org/1999/xlink">
 <defs>
  <g id="a">
   <path d="m4.1875-0.14062c-0.1875-0.17188-0.25-0.3125-0.25-0.51562v-2.4062c0-0.875-0.59375-1.3281-1.7656-1.3281s-1.7812 0.5-1.8594 1.5h1.0938c0.046875-0.45312 0.23438-0.59375 0.78125-0.59375 0.4375 0 0.65625 0.14062 0.65625 0.42188 0 0.15625-0.078125 0.26562-0.20312 0.34375-0.14062 0.078125-0.14062 0.078125-0.70312 0.17188l-0.4375 0.078125c-0.85938 0.14062-1.2812 0.57812-1.2812 1.3594 0 0.76562 0.53125 1.2969 1.3125 1.2969 0.48438 0 0.92188-0.20312 1.3125-0.625 0 0.23438 0.03125 0.3125 0.125 0.4375h1.2188zm-1.3438-1.5938c0 0.64062-0.32812 1.0156-0.89062 1.0156-0.375 0-0.60938-0.20312-0.60938-0.51562 0-0.34375 0.17188-0.5 0.64062-0.59375l0.39062-0.078125c0.28125-0.046875 0.34375-0.0625 0.46875-0.14062z"/>
  </g>
  <g id="o">
   <path d="m2.7969 0 1.4844-4.3125h-1.1719l-0.875 3.1562-0.9375-3.1562h-1.1875l1.5156 4.3125z"/>
  </g>
  <g id="h">
   <path d="m1.6562-4.3125h-1.125v4.3125h1.125zm0-1.5156h-1.125v1h1.125z"/>
  </g>
  <g id="g">
   <path d="m1.6562-5.8281h-1.125v5.8281h1.125z"/>
  </g>
  <g id="k">
   <path d="m0.46875-5.8281v5.8281h1.125v-0.4375c0.26562 0.42188 0.64062 0.625 1.1875 0.625 1.0312 0 1.8125-0.98438 1.8125-2.2969 0-0.57812-0.17188-1.1719-0.45312-1.5938-0.29688-0.42188-0.82812-0.6875-1.3594-0.6875-0.54688 0-0.92188 0.20312-1.1875 0.625v-2.0625zm2.0625 2.375c0.5625 0 0.95312 0.5625 0.95312 1.3594s-0.39062 1.3438-0.95312 1.3438-0.9375-0.53125-0.9375-1.375c0-0.78125 0.375-1.3281 0.9375-1.3281z"/>
  </g>
  <g id="c">
   <path d="m4.1875-1.8125c0.015625-0.09375 0.015625-0.125 0.015625-0.1875 0-0.4375-0.0625-0.82812-0.17188-1.1406-0.28125-0.78125-0.98438-1.25-1.8594-1.25-1.2344 0-2 0.89062-2 2.3438 0 1.3906 0.75 2.2344 1.9844 2.2344 0.96875 0 1.75-0.54688 2-1.4062h-1.1094c-0.14062 0.34375-0.45312 0.54688-0.85938 0.54688-0.3125 0-0.57812-0.14062-0.73438-0.375-0.09375-0.15625-0.14062-0.35938-0.15625-0.76562zm-2.875-0.73438c0.078125-0.67188 0.34375-0.98438 0.84375-0.98438 0.51562 0 0.8125 0.34375 0.875 0.98438z"/>
  </g>
  <g id="j">
   <path d="m2.5-4.2344h-0.65625v-0.42188c0-0.21875 0.09375-0.32812 0.29688-0.32812 0.10938 0 0.21875 0 0.32812 0.015625v-0.84375c-0.25-0.015625-0.48438-0.015625-0.64062-0.015625-0.75 0-1.1094 0.34375-1.1094 1.0781v0.51562h-0.60938v0.75h0.60938v3.4844h1.125v-3.4844h0.65625z"/>
  </g>
  <g id="f">
   <path d="m2.4062-4.3906c-1.3125 0-2.125 0.875-2.125 2.2812 0 1.4219 0.8125 2.2969 2.1406 2.2969 1.3125 0 2.125-0.875 2.125-2.2656 0-1.4531-0.78125-2.3125-2.1406-2.3125zm0.015625 0.90625c0.60938 0 1.0156 0.54688 1.0156 1.3906 0 0.8125-0.42188 1.375-1.0156 1.375-0.60938 0-1.0156-0.54688-1.0156-1.3906 0-0.82812 0.40625-1.375 1.0156-1.375z"/>
  </g>
  <g id="e">
   <path d="m0.5-4.3125v4.3125h1.125v-2.2969c0-0.65625 0.32812-0.98438 0.98438-0.98438 0.125 0 0.20312 0.015625 0.34375 0.03125v-1.1406h-0.125c-0.51562 0-0.95312 0.32812-1.2031 0.92188v-0.84375z"/>
  </g>
  <g id="m">
   <path d="m0.48438-4.3125v4.3125h1.1094v-2.5938c0-0.53125 0.29688-0.84375 0.78125-0.84375 0.375 0 0.59375 0.21875 0.59375 0.5625v2.875h1.125v-2.5938c0-0.53125 0.29688-0.84375 0.76562-0.84375 0.375 0 0.60938 0.21875 0.60938 0.5625v2.875h1.125v-3.0625c0-0.82812-0.51562-1.3281-1.375-1.3281-0.5625 0-0.9375 0.1875-1.2656 0.64062-0.20312-0.40625-0.64062-0.64062-1.1719-0.64062-0.5 0-0.82812 0.15625-1.1875 0.60938v-0.53125z"/>
  </g>
  <g id="s">
   <path d="m3.1562-4.3125-0.90625 3.1406-0.95312-3.1406h-1.2188l1.6094 4.4844c0 0.45312-0.28125 0.75-0.70312 0.75-0.09375 0-0.15625-0.015625-0.29688-0.046875v0.84375c0.17188 0.03125 0.26562 0.03125 0.40625 0.03125 0.28125 0 0.60938-0.046875 0.79688-0.14062 0.3125-0.125 0.45312-0.29688 0.64062-0.8125l1.7656-5.1094z"/>
  </g>
  <g id="ab">
   <path d="m2.1875-5.7969c-0.60938 0-1.125 0.26562-1.4688 0.73438-0.32812 0.4375-0.48438 1.1562-0.48438 2.2656 0 1 0.125 1.7031 0.39062 2.1406 0.34375 0.54688 0.89062 0.84375 1.5625 0.84375 0.60938 0 1.1094-0.25 1.4688-0.71875 0.3125-0.4375 0.48438-1.1719 0.48438-2.2344 0-1.0469-0.125-1.75-0.40625-2.1875-0.32812-0.54688-0.89062-0.84375-1.5469-0.84375zm0 0.90625c0.28125 0 0.51562 0.15625 0.65625 0.45312 0.10938 0.25 0.17188 0.85938 0.17188 1.6406 0 0.64062-0.0625 1.2656-0.14062 1.5-0.125 0.34375-0.375 0.51562-0.6875 0.51562-0.29688 0-0.53125-0.14062-0.65625-0.4375-0.10938-0.23438-0.17188-0.82812-0.17188-1.5938 0-0.67188 0.046875-1.3125 0.14062-1.5469 0.10938-0.34375 0.35938-0.53125 0.6875-0.53125z"/>
  </g>
  <g id="l">
   <path d="m3.2344 0h1.125v-5.8281h-1.125v2.0625c-0.28125-0.42188-0.64062-0.625-1.1875-0.625-1.0312 0-1.8125 0.98438-1.8125 2.2969 0 0.57812 0.17188 1.1719 0.46875 1.5938 0.28125 0.42188 0.8125 0.6875 1.3438 0.6875 0.54688 0 0.90625-0.20312 1.1875-0.625zm-0.9375-3.4531c0.5625 0 0.9375 0.54688 0.9375 1.375 0 0.78125-0.375 1.3281-0.9375 1.3281s-0.9375-0.54688-0.9375-1.3438c0-0.8125 0.375-1.3594 0.9375-1.3594z"/>
  </g>
  <g id="r">
   <path d="m4.1719-2.7031c-0.078125-1.0625-0.76562-1.6875-1.8594-1.6875-1.2969 0-2.0469 0.84375-2.0469 2.3125 0 1.4375 0.75 2.2656 2.0312 2.2656 1.0469 0 1.7812-0.65625 1.875-1.6875h-1.0625c-0.14062 0.5625-0.35938 0.78125-0.8125 0.78125-0.5625 0-0.90625-0.5-0.90625-1.3594 0-0.40625 0.078125-0.78125 0.21875-1.0469 0.125-0.23438 0.375-0.35938 0.6875-0.35938 0.46875 0 0.67188 0.21875 0.8125 0.78125z"/>
  </g>
  <g id="d">
   <path d="m4.0469-2.9219c-0.015625-0.92188-0.73438-1.4688-1.8906-1.4688-1.0938 0-1.7656 0.54688-1.7656 1.4375 0 0.29688 0.078125 0.53125 0.23438 0.70312 0.15625 0.15625 0.28125 0.21875 0.70312 0.35938l1.3281 0.42188c0.28125 0.078125 0.39062 0.17188 0.39062 0.34375 0 0.26562-0.3125 0.42188-0.84375 0.42188-0.29688 0-0.51562-0.046875-0.65625-0.14062-0.125-0.09375-0.17188-0.1875-0.21875-0.40625h-1.0938c0.03125 0.95312 0.71875 1.4375 2.0312 1.4375 0.60938 0 1.0625-0.125 1.375-0.39062 0.32812-0.25 0.51562-0.65625 0.51562-1.0781 0-0.5625-0.28125-0.92188-0.84375-1.0938l-1.4219-0.40625c-0.3125-0.09375-0.39062-0.15625-0.39062-0.32812 0-0.25 0.26562-0.40625 0.65625-0.40625 0.53125 0 0.79688 0.20312 0.79688 0.59375z"/>
  </g>
  <g id="aa">
   <path d="m1.5781-4.3125h-1.1094v6.0625h1.1094v-2.2656c0.28125 0.48438 0.65625 0.70312 1.2031 0.70312 1.0469 0 1.8125-0.96875 1.8125-2.2812 0-0.60938-0.17188-1.2188-0.46875-1.625-0.28125-0.40625-0.82812-0.67188-1.3438-0.67188-0.54688 0-0.92188 0.23438-1.2031 0.70312zm0.95312 0.85938c0.5625 0 0.9375 0.54688 0.9375 1.375 0 0.79688-0.375 1.3281-0.9375 1.3281-0.57812 0-0.95312-0.53125-0.95312-1.3438s0.375-1.3594 0.95312-1.3594z"/>
  </g>
  <g id="aj">
   <path d="m0.5-4.3125v4.3125h1.125v-2.5938c0-0.51562 0.34375-0.84375 0.90625-0.84375 0.48438 0 0.71875 0.26562 0.71875 0.78125v2.6562h1.125v-2.8906c0-0.96875-0.53125-1.5-1.4531-1.5-0.57812 0-0.98438 0.20312-1.2969 0.6875v-0.60938z"/>
  </g>
  <g id="q">
   <path d="m4.3281 0v-4.3125h-1.125v2.7031c0 0.5-0.34375 0.84375-0.90625 0.84375-0.46875 0-0.71875-0.26562-0.71875-0.78125v-2.7656h-1.1094v3c0 0.95312 0.51562 1.5 1.4375 1.5 0.59375 0 0.98438-0.21875 1.2969-0.70312v0.51562z"/>
  </g>
  <g id="ai">
   <path d="m2.8438-2.1719 1.4062-2.1406h-1.3438l-0.70312 1.2969-0.70312-1.2969h-1.3438l1.4062 2.1406-1.4375 2.1719h1.3438l0.73438-1.3438 0.73438 1.3438h1.3438z"/>
  </g>
  <g id="b">
   <path d="m0.625-0.5c-0.15625 0-0.28125 0.125-0.28125 0.28125s0.125 0.28125 0.28125 0.28125 0.28125-0.125 0.28125-0.28125-0.125-0.28125-0.28125-0.28125z"/>
  </g>
  <g id="z">
   <path d="m3.6875-0.9375c-0.4375 0.54688-0.53125 0.64062-0.65625 0.64062-0.078125 0-0.14062-0.0625-0.14062-0.14062 0-0.0625 0.03125-0.20312 0.125-0.5l0.45312-1.6406c0.03125-0.17188 0.0625-0.34375 0.0625-0.46875 0-0.29688-0.21875-0.48438-0.51562-0.48438-0.51562 0-1.0312 0.48438-1.8438 1.7656l0.53125-1.75-0.015625-0.015625c-0.4375 0.09375-0.60938 0.125-1.2969 0.25v0.125c0.40625 0.015625 0.5 0.0625 0.5 0.21875 0 0.046875 0 0.09375-0.015625 0.14062l-0.76562 2.7969h0.60938c0.375-1.2656 0.4375-1.4375 0.79688-1.9844 0.46875-0.73438 0.89062-1.1406 1.1875-1.1406 0.10938 0 0.1875 0.09375 0.1875 0.23438 0 0.09375-0.046875 0.35938-0.10938 0.60938l-0.35938 1.3281c-0.10938 0.40625-0.125 0.51562-0.125 0.59375 0 0.29688 0.10938 0.4375 0.375 0.4375 0.35938 0 0.5625-0.17188 1.125-0.90625z"/>
  </g>
  <g id="ac">
   <path d="m2.5938-3.5312c-0.34375 0-0.65625 0.09375-0.98438 0.26562-0.8125 0.46875-1.3906 1.3906-1.3906 2.2344 0 0.6875 0.4375 1.125 1.1719 1.125 0.53125 0 1.0469-0.23438 1.5-0.70312 0.53125-0.51562 0.85938-1.1875 0.85938-1.7969 0-0.67188-0.46875-1.125-1.1562-1.125zm-0.09375 0.17188c0.34375 0 0.57812 0.29688 0.57812 0.75 0 0.59375-0.26562 1.3906-0.625 1.9062-0.29688 0.42188-0.59375 0.625-0.9375 0.625-0.375 0-0.625-0.29688-0.625-0.73438 0-0.59375 0.23438-1.2969 0.625-1.8594 0.3125-0.45312 0.64062-0.6875 0.98438-0.6875z"/>
  </g>
  <g id="w">
   <path d="m2.375-3.4219h-0.64062l0.21875-0.82812v-0.046875c0-0.046875-0.015625-0.078125-0.0625-0.078125s-0.0625 0.015625-0.10938 0.078125c-0.3125 0.40625-0.8125 0.8125-1.0625 0.875-0.20312 0.0625-0.26562 0.125-0.26562 0.20312 0 0.015625 0 0.03125 0.015625 0.046875h0.59375l-0.57812 2.2031c-0.015625 0.078125-0.03125 0.10938-0.046875 0.17188-0.078125 0.26562-0.14062 0.51562-0.14062 0.59375 0 0.15625 0.17188 0.29688 0.39062 0.29688 0.35938 0 0.625-0.23438 1.125-0.96875l-0.09375-0.0625c-0.40625 0.5-0.53125 0.64062-0.65625 0.64062-0.078125 0-0.125-0.0625-0.125-0.17188l0.015625-0.03125 0.70312-2.6719h0.67188z"/>
  </g>
  <g id="v">
   <path d="m5.5156-0.9375c-0.03125 0.046875-0.078125 0.078125-0.10938 0.125-0.14062 0.17188-0.20312 0.25-0.21875 0.26562-0.17188 0.1875-0.25 0.25-0.35938 0.25-0.0625 0-0.09375-0.046875-0.09375-0.14062 0-0.03125 0.03125-0.15625 0.078125-0.35938l0.54688-2c0-0.046875 0.015625-0.17188 0.015625-0.23438 0-0.28125-0.20312-0.5-0.46875-0.5-0.15625 0-0.3125 0.0625-0.5 0.17188-0.39062 0.26562-0.71875 0.64062-1.2812 1.5312 0.21875-0.625 0.32812-1.0625 0.32812-1.2188 0-0.29688-0.1875-0.48438-0.46875-0.48438-0.48438 0-1.0469 0.53125-1.7812 1.6875l0.46875-1.6719-0.03125-0.015625c-0.42188 0.09375-0.59375 0.125-1.2656 0.25v0.125c0.35938 0.015625 0.35938 0.015625 0.4375 0.046875 0.03125 0.015625 0.0625 0.078125 0.0625 0.14062 0 0.09375-0.1875 0.82812-0.46875 1.8281-0.17188 0.60938-0.20312 0.73438-0.3125 1.1406h0.60938c0.375-1.2656 0.5-1.5625 0.76562-1.9844 0.45312-0.6875 0.9375-1.125 1.2031-1.125 0.10938 0 0.15625 0.0625 0.15625 0.20312 0 0.09375-0.23438 1.0469-0.5625 2.1719-0.0625 0.23438-0.09375 0.34375-0.1875 0.73438h0.59375c0.3125-1.25 0.48438-1.6562 0.89062-2.2188 0.39062-0.54688 0.79688-0.89062 1.0156-0.89062 0.09375 0 0.17188 0.0625 0.17188 0.17188 0 0.03125-0.015625 0.10938-0.0625 0.28125l-0.46875 1.8281c-0.078125 0.3125-0.09375 0.45312-0.09375 0.53125 0 0.23438 0.10938 0.375 0.3125 0.375 0.375 0 0.73438-0.26562 1.1562-0.85938l0.03125-0.0625z"/>
  </g>
  <g id="u">
   <path d="m3.7188-0.875-0.23438 0.21875c-0.25 0.25-0.34375 0.32812-0.40625 0.32812s-0.125-0.046875-0.125-0.10938c0-0.15625 0.34375-1.5312 0.71875-2.9062 0.03125-0.078125 0.03125-0.09375 0.046875-0.15625l-0.0625-0.03125-0.48438 0.0625-0.015625 0.015625-0.09375 0.39062c-0.0625-0.29688-0.29688-0.46875-0.64062-0.46875-1.0625 0-2.2812 1.4531-2.2812 2.7344 0 0.5625 0.29688 0.89062 0.8125 0.89062 0.5625 0 0.90625-0.26562 1.6094-1.2656-0.17188 0.65625-0.1875 0.71875-0.1875 0.92188 0 0.23438 0.09375 0.32812 0.32812 0.32812 0.3125 0 0.5-0.15625 1.1094-0.875zm-1.25-2.4844c0.28125 0.015625 0.45312 0.21875 0.45312 0.5 0 0.67188-0.40625 1.6094-0.95312 2.2031-0.1875 0.21875-0.46875 0.35938-0.70312 0.35938-0.28125 0-0.45312-0.23438-0.45312-0.59375 0-0.45312 0.29688-1.2656 0.64062-1.7656 0.32812-0.46875 0.6875-0.71875 1.0156-0.70312z"/>
  </g>
  <g id="i">
   <path d="m0.45312-3.2188 0.17188-0.015625c0.1875 0 0.34375 0.09375 0.34375 0.21875 0 0.10938-0.28125 1.2188-0.5625 2.2656-0.1875 0.6875-0.34375 1.2812-0.46875 1.7969-0.078125 0.35938-0.1875 0.45312-0.53125 0.46875v0.125h1.6406v-0.125c-0.39062 0-0.51562-0.0625-0.51562-0.23438 0-0.10938 0.125-0.71875 0.29688-1.3281 0.20312 0.10938 0.34375 0.14062 0.53125 0.14062 1.1562 0 2.3906-1.3438 2.3906-2.625 0-0.625-0.34375-1-0.92188-1-0.51562 0-0.90625 0.26562-1.3594 0.92188l0.23438-0.8125c0-0.046875 0.015625-0.0625 0.015625-0.0625 0-0.03125-0.015625-0.046875-0.046875-0.046875h-0.015625l-1.2188 0.17188zm2.0781 0.03125c0.34375 0.015625 0.5 0.23438 0.5 0.6875 0 0.54688-0.23438 1.2188-0.57812 1.7188-0.32812 0.48438-0.71875 0.71875-1.1406 0.71875-0.21875 0-0.375-0.125-0.375-0.29688 0-0.26562 0.28125-1.3125 0.51562-1.9062 0.21875-0.54688 0.6875-0.9375 1.0781-0.92188z"/>
  </g>
  <g id="n">
   <path d="m2.8594-0.875c-0.57812 0.46875-0.8125 0.60938-1.1719 0.60938-0.45312 0-0.75-0.29688-0.75-0.73438 0-0.125 0.015625-0.23438 0.09375-0.48438l0.21875-0.03125c1.2031-0.17188 2.0469-0.78125 2.0469-1.4688 0-0.32812-0.23438-0.54688-0.64062-0.54688-1.1562 0-2.4062 1.3125-2.4062 2.5156 0 0.65625 0.4375 1.1094 1.0469 1.1094 0.57812 0 1.1875-0.32812 1.6562-0.875zm-1.6406-1.1406c0.26562-0.71875 0.85938-1.3281 1.2656-1.3281 0.17188 0 0.28125 0.125 0.28125 0.3125 0 0.25-0.15625 0.53125-0.39062 0.78125-0.29688 0.28125-0.60938 0.42188-1.2969 0.59375z"/>
  </g>
  <g id="t">
   <path d="m3.7031-0.89062c-0.4375 0.5-0.51562 0.57812-0.65625 0.57812-0.078125 0-0.14062-0.078125-0.14062-0.17188 0-0.125 0.25-1.0625 0.51562-1.9688 0.1875-0.64062 0.34375-1.2188 0.79688-2.9688l-0.046875-0.046875c-0.40625 0.09375-0.70312 0.14062-1.2188 0.1875v0.14062c0.4375 0.015625 0.5 0.03125 0.5 0.20312 0 0.10938-0.015625 0.14062-0.125 0.5625l-0.35938 1.3125c-0.0625-0.34375-0.20312-0.46875-0.51562-0.46875-1.0312 0-2.3281 1.5-2.3281 2.7031 0 0.57812 0.3125 0.92188 0.82812 0.92188 0.54688 0 0.90625-0.26562 1.4531-1.0625-0.09375 0.40625-0.10938 0.53125-0.10938 0.71875 0 0.20312 0.14062 0.35938 0.32812 0.35938 0.34375 0 0.76562-0.32812 1.1719-0.92188zm-1.2188-2.4531c0.25 0.015625 0.35938 0.17188 0.35938 0.45312 0 1.2188-0.82812 2.5938-1.5625 2.5938-0.28125 0-0.46875-0.20312-0.46875-0.53125 0-0.65625 0.40625-1.5938 0.9375-2.1406 0.21875-0.23438 0.51562-0.39062 0.73438-0.375z"/>
  </g>
  <g id="p">
   <path d="m1.7812-0.90625c-0.20312 0.26562-0.25 0.32812-0.32812 0.40625-0.14062 0.125-0.26562 0.21875-0.32812 0.21875s-0.14062-0.0625-0.14062-0.125c0-0.078125 0.03125-0.20312 0.09375-0.35938l0.03125-0.14062 0.015625-0.015625v-0.015625l0.70312-2.5781-0.03125-0.015625c-0.8125 0.15625-0.96875 0.17188-1.2812 0.20312v0.125c0.4375 0.015625 0.51562 0.03125 0.51562 0.1875 0 0.078125-0.03125 0.20312-0.078125 0.35938l-0.39062 1.4219c-0.125 0.46875-0.17188 0.70312-0.17188 0.85938 0 0.29688 0.125 0.46875 0.375 0.46875 0.375 0 0.65625-0.25 1.1094-0.92188zm-0.0625-4.3281c-0.21875 0-0.375 0.17188-0.375 0.42188 0 0.26562 0.14062 0.42188 0.375 0.42188 0.20312 0 0.39062-0.17188 0.39062-0.40625s-0.1875-0.4375-0.39062-0.4375z"/>
  </g>
  <g id="y">
   <path d="m3.7812-3.2344h-0.5c-0.015625 0-0.0625-0.015625-0.125-0.0625-0.21875-0.15625-0.46875-0.23438-0.78125-0.23438-0.89062 0-1.6094 0.625-1.6094 1.375 0 0.40625 0.17188 0.65625 0.64062 0.85938-0.48438 0.32812-0.625 0.48438-0.625 0.67188 0 0.10938 0.0625 0.20312 0.21875 0.3125-0.79688 0.51562-0.9375 0.6875-0.9375 1.0469 0 0.54688 0.53125 0.90625 1.3438 0.90625 1 0 1.6719-0.46875 1.6719-1.1562 0-0.51562-0.375-0.85938-1.1406-1.0625-0.35938-0.078125-0.5625-0.21875-0.5625-0.32812 0-0.125 0.1875-0.32812 0.28125-0.32812h0.0625c0.078125 0.015625 0.15625 0.03125 0.25 0.03125 0.73438 0 1.4844-0.65625 1.4844-1.2812 0-0.125-0.03125-0.26562-0.078125-0.4375h0.40625zm-2.5938 3.0156s0.015625 0 0.03125 0.015625c0.03125 0 0.10938 0.03125 0.23438 0.0625 0.85938 0.28125 1.1406 0.5 1.1406 0.85938 0 0.4375-0.45312 0.75-1.0781 0.75-0.64062 0-1.0156-0.29688-1.0156-0.8125 0-0.1875 0.046875-0.32812 0.1875-0.48438 0.10938-0.14062 0.4375-0.39062 0.5-0.39062zm1.1875-3.1406c0.28125 0 0.4375 0.20312 0.4375 0.57812 0 0.28125-0.09375 0.625-0.25 0.90625-0.17188 0.32812-0.42188 0.5-0.6875 0.5-0.3125 0-0.48438-0.21875-0.48438-0.59375 0-0.75 0.45312-1.3906 0.98438-1.3906z"/>
  </g>
  <g id="ah">
   <path d="m3.7188-0.9375c-0.4375 0.53125-0.53125 0.64062-0.65625 0.64062-0.078125 0-0.125-0.078125-0.125-0.15625s0.125-0.57812 0.26562-1c0.23438-0.73438 0.375-1.3438 0.375-1.5312 0-0.32812-0.20312-0.54688-0.51562-0.54688-0.53125 0-1.0938 0.51562-1.8438 1.6875l0.96875-3.5781-0.046875-0.046875c-0.48438 0.10938-0.78125 0.17188-1.25 0.21875v0.125h0.20312c0.1875-0.015625 0.32812 0.078125 0.32812 0.20312 0 0.10938-0.03125 0.29688-0.10938 0.53125-0.015625 0.015625-0.046875 0.125-0.078125 0.29688l-1.0781 4.0938h0.59375c0.32812-1.2344 0.42188-1.5 0.75-1.9844 0.40625-0.64062 0.95312-1.1406 1.2344-1.1406 0.125 0 0.21875 0.09375 0.21875 0.20312 0 0.03125-0.015625 0.14062-0.046875 0.26562l-0.4375 1.6562c-0.10938 0.39062-0.17188 0.64062-0.17188 0.73438 0 0.20312 0.14062 0.34375 0.35938 0.34375 0.40625 0 0.6875-0.21875 1.1719-0.92188z"/>
  </g>
  <g id="ag">
   <path d="m0.875-5.1406c0.48438 0.015625 0.53125 0.03125 0.53125 0.21875 0 0.0625-0.015625 0.15625-0.078125 0.34375l-0.046875 0.14062-0.015625 0.0625-1.0781 4v0.03125c0 0.1875 0.60938 0.4375 1.0625 0.4375 1.2031 0 2.5312-1.3906 2.5312-2.6562 0-0.5625-0.39062-0.96875-0.92188-0.96875-0.5625 0-0.98438 0.32812-1.5469 1.2188 0.40625-1.5 0.46875-1.7344 0.82812-3.1094l-0.03125-0.046875c-0.40625 0.078125-0.64062 0.10938-1.2344 0.1875zm1.6719 2c0.34375 0 0.5625 0.26562 0.5625 0.6875 0 0.53125-0.40625 1.3906-0.89062 1.8906-0.29688 0.29688-0.64062 0.46875-0.98438 0.46875-0.25 0-0.35938-0.09375-0.35938-0.28125 0-0.46875 0.23438-1.2344 0.57812-1.8438s0.70312-0.92188 1.0938-0.92188z"/>
  </g>
  <g id="af">
   <path d="m0.96875 0c0.42188-1.375 0.54688-1.7031 0.92188-2.3125 0.26562-0.45312 0.48438-0.70312 0.625-0.70312 0.046875 0 0.078125 0.046875 0.125 0.125 0.0625 0.125 0.125 0.17188 0.28125 0.17188 0.25 0 0.375-0.14062 0.375-0.40625 0-0.23438-0.15625-0.40625-0.375-0.40625-0.1875 0-0.40625 0.125-0.60938 0.34375-0.32812 0.34375-0.65625 0.79688-0.78125 1.125l-0.10938 0.28125 0.42188-1.7344-0.015625-0.015625c-0.59375 0.10938-0.65625 0.125-1.25 0.21875v0.14062c0.1875-0.03125 0.21875-0.046875 0.28125-0.046875 0.17188 0 0.28125 0.078125 0.28125 0.23438 0 0.10938 0 0.10938-0.125 0.64062l-0.65625 2.3438z"/>
  </g>
  <g id="x">
   <path d="m0.28125-1.1719-0.15625 1.2812h0.125c0.078125-0.14062 0.10938-0.17188 0.20312-0.17188 0.078125 0 0.23438 0.03125 0.39062 0.078125 0.1875 0.046875 0.29688 0.078125 0.4375 0.078125 0.67188 0 1.1562-0.4375 1.1562-1.0469 0-0.3125-0.17188-0.65625-0.54688-1.125-0.3125-0.375-0.4375-0.625-0.4375-0.84375 0-0.26562 0.17188-0.42188 0.45312-0.42188 0.40625 0 0.65625 0.29688 0.73438 0.92188h0.125l0.15625-1.1094h-0.10938c-0.0625 0.10938-0.10938 0.14062-0.23438 0.14062-0.0625 0-0.14062-0.015625-0.29688-0.0625-0.1875-0.0625-0.3125-0.078125-0.4375-0.078125-0.59375 0-0.96875 0.34375-0.96875 0.89062 0 0.25 0.17188 0.59375 0.5 1.0312 0.3125 0.40625 0.45312 0.6875 0.45312 0.90625 0 0.375-0.25 0.625-0.59375 0.625-0.45312 0-0.6875-0.32812-0.8125-1.0938z"/>
  </g>
  <g id="ae">
   <path d="m3.6875-0.9375c-0.42188 0.53125-0.53125 0.64062-0.65625 0.64062-0.0625 0-0.09375-0.0625-0.09375-0.14062 0-0.046875 0-0.046875 0.15625-0.625l0.625-2.3906h-0.59375c-0.42188 1.1875-0.51562 1.375-0.875 1.9531-0.48438 0.75-0.875 1.1562-1.125 1.1562-0.10938 0-0.17188-0.078125-0.17188-0.1875v-0.078125l0.73438-2.9062-0.03125-0.015625c-0.45312 0.10938-0.75 0.15625-1.1875 0.21875v0.10938c0.3125 0.015625 0.3125 0.015625 0.39062 0.046875 0.046875 0.015625 0.078125 0.09375 0.078125 0.14062 0 0.078125-0.03125 0.26562-0.10938 0.54688l-0.29688 1.125c-0.14062 0.59375-0.1875 0.84375-0.1875 0.98438 0 0.29688 0.14062 0.45312 0.42188 0.45312 0.5625 0 0.98438-0.4375 1.9062-1.9844-0.23438 0.85938-0.35938 1.4062-0.35938 1.5781 0 0.25 0.14062 0.39062 0.39062 0.39062 0.375 0 0.54688-0.15625 1.0938-0.9375z"/>
  </g>
  <g id="ad">
   <path d="m1.8281-0.98438c-0.53125 0.67188-0.59375 0.73438-0.76562 0.73438-0.078125 0-0.125-0.046875-0.125-0.15625 0-0.0625 0.03125-0.15625 0.078125-0.3125 0-0.03125 0.015625-0.046875 0.015625-0.0625v-0.015625l1.2031-4.625-0.046875-0.046875c-0.46875 0.10938-0.78125 0.17188-1.25 0.21875v0.125c0.39062 0 0.54688 0.046875 0.54688 0.1875 0 0.03125 0 0.078125-0.015625 0.14062l-1.1094 4.2344c-0.015625 0.078125-0.03125 0.14062-0.03125 0.20312 0 0.29688 0.14062 0.45312 0.39062 0.45312 0.42188 0 0.6875-0.23438 1.2031-1z"/>
  </g>
 </defs>
 <g>
  <g stroke-linecap="round" stroke-miterlimit="10" stroke-width=".66667">
   <path stroke="#000000" d="m15.145 234.07v-51.203"/>
   <path stroke="#000000" d="m15.145 182.76h46.801"/>
   <path stroke="#000000" d="m61.946 182.76v51.199"/>
   <path stroke="#000000" d="m61.946 234.07h-46.801"/>
  </g>
  <g transform="translate(-157.66 -47.036)" >
   <use fill="#000000" x="179.2" y="248.10001" xlink:href="#a"/>
   <use fill="#000000" x="183.64799" y="248.10001" xlink:href="#o"/>
   <use fill="#000000" x="188.09599" y="248.10001" xlink:href="#a"/>
   <use fill="#000000" x="192.54401" y="248.10001" xlink:href="#h"/>
   <use fill="#000000" x="194.76801" y="248.10001" xlink:href="#g"/>
   <use fill="#000000" x="196.992" y="248.10001" xlink:href="#a"/>
   <use fill="#000000" x="201.44" y="248.10001" xlink:href="#k"/>
   <use fill="#000000" x="206.328" y="248.10001" xlink:href="#g"/>
   <use fill="#000000" x="208.552" y="248.10001" xlink:href="#c"/>
   <use fill="#000000" x="190.89999" y="257.10001" xlink:href="#j"/>
   <use fill="#000000" x="193.564" y="257.10001" xlink:href="#f"/>
   <use fill="#000000" x="198.452" y="257.10001" xlink:href="#e"/>
   <use fill="#000000" x="180.60001" y="266.10001" xlink:href="#m"/>
   <use fill="#000000" x="187.71201" y="266.10001" xlink:href="#c"/>
   <use fill="#000000" x="192.16" y="266.10001" xlink:href="#m"/>
   <use fill="#000000" x="199.272" y="266.10001" xlink:href="#f"/>
   <use fill="#000000" x="204.16" y="266.10001" xlink:href="#e"/>
   <use fill="#000000" x="207.272" y="266.10001" xlink:href="#s"/>
   <use fill="#000000" x="166.3" y="280.60001" xlink:href="#ab"/>
  </g>
  <g stroke-linecap="round" stroke-miterlimit="10">
   <g stroke-width=".66667">
    <path stroke="#000000" d="m15.145 182.76v-51.199"/>
    <path stroke="#000000" d="m15.145 131.46h46.801"/>
    <path stroke="#000000" d="m61.946 131.46v51.199"/>
    <path stroke="#000000" d="m61.946 182.76h-46.801"/>
   </g>
   <g stroke-width=".41667">
    <path stroke="#000000" d="m61.946 157.07-15.602 25.598"/>
    <path stroke="#000000" d="m15.145 157.07 15.598-25.602"/>
    <path stroke="#000000" d="m15.145 182.76 31.098-51.199"/>
    <path stroke="#000000" d="m30.743 182.76 31.102-51.199"/>
   </g>
   <g stroke-width=".66667">
    <path stroke="#000000" d="m15.145 131.46v-51.199"/>
    <path stroke="#000000" d="m15.145 80.163h46.801"/>
    <path stroke="#000000" d="m61.946 80.163v51.199"/>
    <path stroke="#000000" d="m61.946 131.46h-46.801"/>
   </g>
  </g>
  <g transform="translate(-157.66 -47.036)">
   <use fill="#000000" x="179.2" y="145.5" xlink:href="#a"/>
   <use fill="#000000" x="183.64799" y="145.5" xlink:href="#o"/>
   <use fill="#000000" x="188.09599" y="145.5" xlink:href="#a"/>
   <use fill="#000000" x="192.54401" y="145.5" xlink:href="#h"/>
   <use fill="#000000" x="194.76801" y="145.5" xlink:href="#g"/>
   <use fill="#000000" x="196.992" y="145.5" xlink:href="#a"/>
   <use fill="#000000" x="201.44" y="145.5" xlink:href="#k"/>
   <use fill="#000000" x="206.328" y="145.5" xlink:href="#g"/>
   <use fill="#000000" x="208.552" y="145.5" xlink:href="#c"/>
   <use fill="#000000" x="190.89999" y="154.5" xlink:href="#j"/>
   <use fill="#000000" x="193.564" y="154.5" xlink:href="#f"/>
   <use fill="#000000" x="198.452" y="154.5" xlink:href="#e"/>
   <use fill="#000000" x="180.60001" y="163.5" xlink:href="#m"/>
   <use fill="#000000" x="187.71201" y="163.5" xlink:href="#c"/>
   <use fill="#000000" x="192.16" y="163.5" xlink:href="#m"/>
   <use fill="#000000" x="199.272" y="163.5" xlink:href="#f"/>
   <use fill="#000000" x="204.16" y="163.5" xlink:href="#e"/>
   <use fill="#000000" x="207.272" y="163.5" xlink:href="#s"/>
  </g>
  <g stroke-linecap="round" stroke-miterlimit="10">
   <g stroke-width=".66667">
    <path stroke="#000000" d="m15.145 80.163v-25.598"/>
    <path stroke="#000000" d="m15.145 54.464h46.801"/>
    <path stroke="#000000" d="m61.946 54.464v25.602"/>
    <path stroke="#000000" d="m61.946 80.163h-46.801"/>
   </g>
   <g stroke-width=".41667">
    <path stroke="#000000" d="m61.946 67.362-11.703 12.801"/>
    <path stroke="#000000" d="m15.145 67.362 11.598-12.797"/>
    <path stroke="#000000" d="m15.145 80.163 23.398-25.598"/>
    <path stroke="#000000" d="m26.743 80.163 23.402-25.598"/>
    <path stroke="#000000" d="m38.543 80.163 23.402-25.598"/>
   </g>
   <g stroke-width=".66667">
    <path stroke="#000000" d="m15.145 54.464v-25.602"/>
    <path stroke="#000000" d="m15.145 28.862h46.801"/>
    <path stroke="#000000" d="m61.946 28.862v25.602"/>
    <path stroke="#000000" d="m61.946 54.464h-46.801"/>
   </g>
  </g>
  <g transform="translate(-157.66 -47.036)">
   <use fill="#000000" x="179.2" y="83.699997" xlink:href="#a"/>
   <use fill="#000000" x="183.64799" y="83.699997" xlink:href="#o"/>
   <use fill="#000000" x="188.09599" y="83.699997" xlink:href="#a"/>
   <use fill="#000000" x="192.54401" y="83.699997" xlink:href="#h"/>
   <use fill="#000000" x="194.76801" y="83.699997" xlink:href="#g"/>
   <use fill="#000000" x="196.992" y="83.699997" xlink:href="#a"/>
   <use fill="#000000" x="201.44" y="83.699997" xlink:href="#k"/>
   <use fill="#000000" x="206.328" y="83.699997" xlink:href="#g"/>
   <use fill="#000000" x="208.552" y="83.699997" xlink:href="#c"/>
   <use fill="#000000" x="175" y="92.699997" xlink:href="#j"/>
   <use fill="#000000" x="177.664" y="92.699997" xlink:href="#f"/>
   <use fill="#000000" x="182.552" y="92.699997" xlink:href="#e"/>
   <use fill="#000000" x="187.8" y="92.699997" xlink:href="#l"/>
   <use fill="#000000" x="192.688" y="92.699997" xlink:href="#c"/>
   <use fill="#000000" x="197.136" y="92.699997" xlink:href="#o"/>
   <use fill="#000000" x="201.584" y="92.699997" xlink:href="#h"/>
   <use fill="#000000" x="203.808" y="92.699997" xlink:href="#r"/>
   <use fill="#000000" x="208.256" y="92.699997" xlink:href="#c"/>
   <use fill="#000000" x="212.70399" y="92.699997" xlink:href="#d"/>
   <use fill="#000000" x="172" y="94.5" xlink:href="#b"/>
   <use fill="#000000" x="175.60001" y="94.5" xlink:href="#b"/>
   <use fill="#000000" x="179.2" y="94.5" xlink:href="#b"/>
   <use fill="#000000" x="182.8" y="94.5" xlink:href="#b"/>
   <use fill="#000000" x="186.39999" y="94.5" xlink:href="#b"/>
   <use fill="#000000" x="190" y="94.5" xlink:href="#b"/>
   <use fill="#000000" x="193.60001" y="94.5" xlink:href="#b"/>
   <use fill="#000000" x="197.2" y="94.5" xlink:href="#b"/>
   <use fill="#000000" x="200.8" y="94.5" xlink:href="#b"/>
   <use fill="#000000" x="204.39999" y="94.5" xlink:href="#b"/>
   <use fill="#000000" x="208" y="94.5" xlink:href="#b"/>
   <use fill="#000000" x="211.60001" y="94.5" xlink:href="#b"/>
   <use fill="#000000" x="215.2" y="94.5" xlink:href="#b"/>
   <use fill="#000000" x="218.8" y="94.5" xlink:href="#b"/>
  </g>
 </g>
 <g transform="translate(-157.66 -47.036)">
  <use fill="#ef6d00" x="168.2" y="60.099998" xlink:href="#a"/>
  <use fill="#ef6d00" x="172.64799" y="60.099998" xlink:href="#l"/>
  <use fill="#ef6d00" x="177.536" y="60.099998" xlink:href="#l"/>
  <use fill="#ef6d00" x="182.424" y="60.099998" xlink:href="#e"/>
  <use fill="#ef6d00" x="185.536" y="60.099998" xlink:href="#c"/>
  <use fill="#ef6d00" x="189.98399" y="60.099998" xlink:href="#d"/>
  <use fill="#ef6d00" x="194.43201" y="60.099998" xlink:href="#d"/>
  <use fill="#ef6d00" x="201.29999" y="60.099998" xlink:href="#d"/>
  <use fill="#ef6d00" x="205.74799" y="60.099998" xlink:href="#aa"/>
  <use fill="#ef6d00" x="210.63599" y="60.099998" xlink:href="#a"/>
  <use fill="#ef6d00" x="215.08398" y="60.099998" xlink:href="#r"/>
  <use fill="#ef6d00" x="219.532" y="60.099998" xlink:href="#c"/>
  <use fill="#ef6d00" x="173.8" y="69.099998" xlink:href="#f"/>
  <use fill="#ef6d00" x="178.688" y="69.099998" xlink:href="#j"/>
  <use fill="#ef6d00" x="183.5" y="69.099998" xlink:href="#m"/>
  <use fill="#ef6d00" x="190.612" y="69.099998" xlink:href="#a"/>
  <use fill="#ef6d00" x="195.06" y="69.099998" xlink:href="#h"/>
  <use fill="#ef6d00" x="197.284" y="69.099998" xlink:href="#aj"/>
  <use fill="#ef6d00" x="204.39999" y="69.099998" xlink:href="#k"/>
  <use fill="#ef6d00" x="209.28799" y="69.099998" xlink:href="#q"/>
  <use fill="#ef6d00" x="214.17599" y="69.099998" xlink:href="#d"/>
 </g>
 <g>
  <g stroke-linecap="round" stroke-miterlimit="10" stroke-width=".66667">
   <path stroke="#000000" d="m155.54 165.36v-108"/>
   <path stroke="#000000" d="m155.54 57.362h46.801"/>
   <path stroke="#000000" d="m202.34 57.362v108"/>
   <path stroke="#000000" d="m202.34 165.36h-46.801"/>
  </g>
  <g transform="translate(-157.66 -47.036)">
   <use x="306.70001" y="211.8" fill="#000000" xlink:href="#ab"/>
  </g>
  <g stroke-linecap="round" stroke-miterlimit="10">
   <g stroke-width=".66667">
    <path stroke="#000000" d="m155.54 106.26v-7.1992"/>
    <path stroke="#000000" d="m155.54 99.065h46.801"/>
    <path stroke="#000000" d="m202.34 99.065v7.1992"/>
    <path stroke="#000000" d="m202.34 106.26h-46.801"/>
   </g>
   <g stroke-width=".41667">
    <path stroke="#000000" d="m202.34 78.163-15.602 20.801"/>
    <path stroke="#000000" d="m155.54 78.163 15.602-20.801"/>
    <path stroke="#000000" d="m155.54 99.065 31.102-41.703"/>
    <path stroke="#000000" d="m171.14 99.065 31.098-41.703"/>
    <path stroke="#000000" d="m202.34 135.76-15.602 29.5"/>
    <path stroke="#000000" d="m155.54 135.76 15.602-29.5"/>
    <path stroke="#000000" d="m155.54 165.36 31.102-59"/>
    <path stroke="#000000" d="m171.14 165.36 31.098-59"/>
   </g>
  </g>
 </g>
 <g transform="translate(-157.66 -47.036)">
  <use fill="#4aef00" x="308.60001" y="88.5" xlink:href="#a"/>
  <use fill="#4aef00" x="313.048" y="88.5" xlink:href="#l"/>
  <use fill="#4aef00" x="317.936" y="88.5" xlink:href="#l"/>
  <use fill="#4aef00" x="322.82401" y="88.5" xlink:href="#e"/>
  <use fill="#4aef00" x="325.936" y="88.5" xlink:href="#c"/>
  <use fill="#4aef00" x="330.384" y="88.5" xlink:href="#d"/>
  <use fill="#4aef00" x="334.832" y="88.5" xlink:href="#d"/>
  <use fill="#4aef00" x="341.69998" y="88.5" xlink:href="#d"/>
  <use fill="#4aef00" x="346.14798" y="88.5" xlink:href="#aa"/>
  <use fill="#4aef00" x="351.03598" y="88.5" xlink:href="#a"/>
  <use fill="#4aef00" x="355.48398" y="88.5" xlink:href="#r"/>
  <use fill="#4aef00" x="359.93201" y="88.5" xlink:href="#c"/>
  <use fill="#4aef00" x="307.20001" y="97.5" xlink:href="#f"/>
  <use fill="#4aef00" x="312.08801" y="97.5" xlink:href="#j"/>
  <use fill="#4aef00" x="316.89999" y="97.5" xlink:href="#a"/>
  <use fill="#4aef00" x="321.34799" y="97.5" xlink:href="#q"/>
  <use fill="#4aef00" x="326.23599" y="97.5" xlink:href="#ai"/>
  <use fill="#4aef00" x="330.68399" y="97.5" xlink:href="#h"/>
  <use fill="#4aef00" x="332.90799" y="97.5" xlink:href="#g"/>
  <use fill="#4aef00" x="335.13199" y="97.5" xlink:href="#h"/>
  <use fill="#4aef00" x="337.35599" y="97.5" xlink:href="#a"/>
  <use fill="#4aef00" x="341.80399" y="97.5" xlink:href="#e"/>
  <use fill="#4aef00" x="344.91599" y="97.5" xlink:href="#s"/>
  <use fill="#4aef00" x="351.70001" y="97.5" xlink:href="#k"/>
  <use fill="#4aef00" x="356.58801" y="97.5" xlink:href="#q"/>
  <use fill="#4aef00" x="361.47601" y="97.5" xlink:href="#d"/>
 </g>
 <g stroke-linecap="round" stroke-miterlimit="10" stroke-width=".66667">
  <g>
   <path stroke="#0404e8" d="m146.45 99.764 7.1992 1.8984"/>
   <path stroke="#0404e8" d="m146.64 99.163 6.8984 2.5"/>
   <path stroke="#0404e8" d="m146.84 98.565 6.6992 3"/>
   <path stroke="#0404e8" d="m147.14 98.065 6.3984 3.5977"/>
   <path stroke="#0404e8" d="m147.45 97.464 6.0977 4.1016"/>
   <path stroke="#0404e8" d="m147.74 97.065 5.8008 4.5977"/>
   <path stroke="#0404e8" d="m148.14 96.565 5.3984 5"/>
  </g>
  <path d="m153.64 101.57-89.699-49.602" stroke="#1800d2"/>
  <g>
   <path stroke="#1a00eb" d="m70.946 53.862-7.2031-1.8984"/>
   <path stroke="#1a00eb" d="m70.743 54.464-6.8984-2.5"/>
   <path stroke="#1a00eb" d="m70.543 54.964-6.6992-3"/>
   <path stroke="#1a00eb" d="m70.243 55.565-6.3984-3.6016"/>
   <path stroke="#1a00eb" d="m69.946 56.065-6.1016-4.1016"/>
   <path stroke="#1a00eb" d="m69.645 56.565-5.8008-4.6016"/>
   <path stroke="#1a00eb" d="m69.243 57.065-5.3984-5"/>
  </g>
 </g>
 <g stroke-linecap="round" stroke-miterlimit="10" stroke-width=".25">
  <path fill="#1b0be0" stroke="#1800e8" d="m226.24 105.26-20.297-27"/>
  <path fill="#1b0be0" stroke="#1800e8" d="m211.64 82.862-5.6992-4.5977"/>
  <path fill="#1b0be0" stroke="#1800e8" d="m211.24 83.264-5.2969-5.1016"/>
  <path fill="#1b0be0" stroke="#1800e8" d="m210.74 83.764-4.7969-5.5"/>
  <path fill="#1b0be0" stroke="#1800e8" d="m210.34 84.065-4.3984-5.9023"/>
  <path fill="#1b0be0" stroke="#1800e8" d="m209.84 84.464-3.8984-6.1992"/>
  <path fill="#1b0be0" stroke="#1800e8" d="m209.34 84.764-3.3984-6.5"/>
  <path fill="#1b0be0" stroke="#1800e8" d="m208.74 85.065-2.7969-6.8008"/>
  <path fill="#1b0be0" stroke="#1800e8" d="m226.24 108.76-20.297 27"/>
  <path fill="#1b0be0" stroke="#1800e8" d="m208.74 128.96-2.7969 6.8008"/>
  <path fill="#1b0be0" stroke="#1800e8" d="m209.34 129.26-3.3984 6.5"/>
  <path fill="#1b0be0" stroke="#1800e8" d="m209.84 129.57-3.8984 6.1992"/>
  <path fill="#1b0be0" stroke="#1800e8" d="m210.34 129.86-4.3984 5.9023"/>
  <path fill="#1b0be0" stroke="#1800e8" d="m210.74 130.26-4.7969 5.5"/>
  <path fill="#1b0be0" stroke="#1800e8" d="m211.24 130.66-5.2969 5.1016"/>
  <path fill="#1b0be0" stroke="#1800e8" d="m211.64 131.16-5.6992 4.6016"/>
 </g>
 <g stroke-linecap="round" stroke-miterlimit="10" stroke-width=".25">
  <path fill="#1b0be0" stroke="#1800e8" d="m108.74 102.07v-21.602"/>
  <path fill="#1b0be0" stroke="#1800e8" d="m110.54 87.663-1.8008-7.1992"/>
  <path fill="#1b0be0" stroke="#1800e8" d="m109.95 87.663-1.2031-7.3008"/>
  <path fill="#1b0be0" stroke="#1800e8" d="m109.24 87.764-0.5-7.4023"/>
  <path fill="#1b0be0" stroke="#1800e8" d="m108.74 87.862v-7.3984"/>
 </g>
 <g>
  <g stroke-linecap="round" stroke-miterlimit="10" stroke-width=".25">
   <path fill="#1b0be0" stroke="#1800e8" d="m108.14 87.764 0.5-7.4023"/>
   <path fill="#1b0be0" stroke="#1800e8" d="m107.45 87.663 1.1992-7.3008"/>
   <path fill="#1b0be0" stroke="#1800e8" d="m106.95 87.663 1.7969-7.1992"/>
  </g>
  <g transform="translate(-157.66 -47.036)" >
   <use fill="#1b0be0" x="387.29999" y="151.10001" xlink:href="#z"/>
   <use fill="#1b0be0" x="391.29999" y="151.10001" xlink:href="#ac"/>
   <use fill="#1b0be0" x="395.29999" y="151.10001" xlink:href="#w"/>
   <use fill="#1b0be0" x="387.29999" y="160.10001" xlink:href="#v"/>
   <use fill="#1b0be0" x="393.07599" y="160.10001" xlink:href="#u"/>
   <use fill="#1b0be0" x="397.07599" y="160.10001" xlink:href="#i"/>
   <use fill="#1b0be0" x="401.07599" y="160.10001" xlink:href="#i"/>
   <use fill="#1b0be0" x="405.07599" y="160.10001" xlink:href="#n"/>
   <use fill="#1b0be0" x="408.62799" y="160.10001" xlink:href="#t"/>
  </g>
  <g transform="translate(-157.66 -47.036)">
   <use fill="#1b0be0" x="246.39999" y="159.10001" xlink:href="#v"/>
   <use fill="#1b0be0" x="252.17599" y="159.10001" xlink:href="#u"/>
   <use fill="#1b0be0" x="256.17599" y="159.10001" xlink:href="#i"/>
   <use fill="#1b0be0" x="260.17599" y="159.10001" xlink:href="#i"/>
   <use fill="#1b0be0" x="264.17599" y="159.10001" xlink:href="#p"/>
   <use fill="#1b0be0" x="266.39999" y="159.10001" xlink:href="#z"/>
   <use fill="#1b0be0" x="270.39999" y="159.10001" xlink:href="#y"/>
   <use fill="#1b0be0" x="276.79999" y="159.10001" xlink:href="#w"/>
   <use fill="#1b0be0" x="279.02399" y="159.10001" xlink:href="#ah"/>
   <use fill="#1b0be0" x="283.02399" y="159.10001" xlink:href="#n"/>
   <use fill="#1b0be0" x="241.8" y="168.10001" xlink:href="#ag"/>
   <use fill="#1b0be0" x="245.8" y="168.10001" xlink:href="#af"/>
   <use fill="#1b0be0" x="248.912" y="168.10001" xlink:href="#p"/>
   <use fill="#1b0be0" x="251.136" y="168.10001" xlink:href="#t"/>
   <use fill="#1b0be0" x="255.136" y="168.10001" xlink:href="#y"/>
   <use fill="#1b0be0" x="259.13599" y="168.10001" xlink:href="#n"/>
   <use fill="#1b0be0" x="265" y="168.10001" xlink:href="#x"/>
   <use fill="#1b0be0" x="268.112" y="168.10001" xlink:href="#ae"/>
   <use fill="#1b0be0" x="272.112" y="168.10001" xlink:href="#i"/>
   <use fill="#1b0be0" x="276.112" y="168.10001" xlink:href="#i"/>
   <use fill="#1b0be0" x="280.112" y="168.10001" xlink:href="#ad"/>
   <use fill="#1b0be0" x="282.336" y="168.10001" xlink:href="#p"/>
   <use fill="#1b0be0" x="284.56" y="168.10001" xlink:href="#n"/>
   <use fill="#1b0be0" x="288.112" y="168.10001" xlink:href="#x"/>
  </g>
 </g>
</svg>
