<svg width="120" height="300" version="1.1" viewBox="0 0 120 300" xmlns="http://www.w3.org/2000/svg" xmlns:xlink="http://www.w3.org/1999/xlink">
 <defs>
  <g id="a">
   <path d="m.46875-5.8281v5.8281h1.125v-.4375c.26562.42188.64062.625 1.1875.625 1.0312 0 1.8125-.98438 1.8125-2.2969 0-.57812-.17188-1.1719-.45312-1.5938-.29688-.42188-.82812-.6875-1.3594-.6875-.54688 0-.92188.20312-1.1875.625v-2.0625zm2.0625 2.375c.5625 0 .95312.5625.95312 1.3594s-.39062 1.3438-.95312 1.3438-.9375-.53125-.9375-1.375c0-.78125.375-1.3281.9375-1.3281z"/>
  </g>
  <g id="c">
   <path d="m4.3281 0v-4.3125h-1.125v2.7031c0 .5-.34375.84375-.90625.84375-.46875 0-.71875-.26562-.71875-.78125v-2.7656h-1.1094v3c0 .95312.51562 1.5 1.4375 1.5.59375 0 .98438-.21875 1.2969-.70312v.51562z"/>
  </g>
  <g id="b">
   <path d="m4.0469-2.9219c-.015625-.92188-.73438-1.4688-1.8906-1.4688-1.0938 0-1.7656.54688-1.7656 1.4375 0 .29688.078125.53125.23438.70312.15625.15625.28125.21875.70312.35938l1.3281.42188c.28125.078125.39062.17188.39062.34375 0 .26562-.3125.42188-.84375.42188-.29688 0-.51562-.046875-.65625-.14062-.125-.09375-.17188-.1875-.21875-.40625h-1.0938c.03125.95312.71875 1.4375 2.0312 1.4375.60938 0 1.0625-.125 1.375-.39062.32812-.25.51562-.65625.51562-1.0781 0-.5625-.28125-.92188-.84375-1.0938l-1.4219-.40625c-.3125-.09375-.39062-.15625-.39062-.32812 0-.25.26562-.40625.65625-.40625.53125 0 .79688.20312.79688.59375z"/>
  </g>
  <g id="i">
   <path d="m4.0938-1h-2.4062c.15625-.29688.32812-.46875 1.1562-1.0781.98438-.71875 1.2812-1.1406 1.2812-1.9062 0-1.1094-.76562-1.8125-1.9531-1.8125-1.1719 0-1.8594.70312-1.8594 1.9062v.1875h1.0781v-.17188c0-.64062.29688-1 .8125-1 .5 0 .79688.34375.79688.90625 0 .625-.1875.85938-1.4531 1.7656-.96875.65625-1.2656 1.1406-1.3125 2.2031h3.8594z"/>
  </g>
  <g id="h">
   <path d="m1.9062-3.9062v3.9062h1.125v-5.6719h-.75c-.17188.67188-.76562 1.0156-1.7344 1.0156v.75z"/>
  </g>
  <g id="g">
   <path d="m.5-4.3125v4.3125h1.125v-2.2969c0-.65625.32812-.98438.98438-.98438.125 0 .20312.015625.34375.03125v-1.1406h-.125c-.51562 0-.95312.32812-1.2031.92188v-.84375z"/>
  </g>
  <g id="f">
   <path d="m1.6562-4.3125h-1.125v4.3125h1.125zm0-1.5156h-1.125v1h1.125z"/>
  </g>
  <g id="e">
   <path d="m3.2344 0h1.125v-5.8281h-1.125v2.0625c-.28125-.42188-.64062-.625-1.1875-.625-1.0312 0-1.8125.98438-1.8125 2.2969 0 .57812.17188 1.1719.46875 1.5938.28125.42188.8125.6875 1.3438.6875.54688 0 .90625-.20312 1.1875-.625zm-.9375-3.4531c.5625 0 .9375.54688.9375 1.375 0 .78125-.375 1.3281-.9375 1.3281s-.9375-.54688-.9375-1.3438c0-.8125.375-1.3594.9375-1.3594z"/>
  </g>
  <g id="d">
   <path d="m3.2031-4.3125v.65625c-.3125-.5-.65625-.73438-1.1094-.73438-.39062 0-.8125.1875-1.1094.5-.4375.45312-.65625 1.0781-.65625 1.8281 0 1.3281.70312 2.25 1.7344 2.25.46875 0 .75-.15625 1.1406-.625v.57812c0 .51562-.375.89062-.90625.89062-.39062 0-.64062-.1875-.73438-.51562h-1.1406c0 .34375.125.57812.42188.8125.34375.28125.8125.42188 1.4219.42188 1.25 0 2-.60938 2-1.6094v-4.4531zm-.90625.85938c.53125 0 .92188.57812.92188 1.375s-.375 1.3281-.9375 1.3281c-.48438 0-.82812-.53125-.82812-1.3281 0-.8125.34375-1.375.84375-1.375z"/>
  </g>
  <g id="j">
   <path d="m4.1875-1.8125c.015625-.09375.015625-.125.015625-.1875 0-.4375-.0625-.82812-.17188-1.1406-.28125-.78125-.98438-1.25-1.8594-1.25-1.2344 0-2 .89062-2 2.3438 0 1.3906.75 2.2344 1.9844 2.2344.96875 0 1.75-.54688 2-1.4062h-1.1094c-.14062.34375-.45312.54688-.85938.54688-.3125 0-.57812-.14062-.73438-.375-.09375-.15625-.14062-.35938-.15625-.76562zm-2.875-.73438c.078125-.67188.34375-.98438.84375-.98438.51562 0 .8125.34375.875.98438z"/>
  </g>
 </defs>
 <g transform="rotate(-90 149.91 150.76)" stroke-linecap="round" stroke-miterlimit="10" stroke-width="2">
  <path d="m20.793 93.335h259.2" stroke="#000a15"/>
  <path d="m280 93.335v-7.1992" stroke="#000"/>
  <path d="m280 86.136 14.398 14.402" stroke="#000a15"/>
  <path d="m294.39 100.54-14.398 14.398" stroke="#000a15"/>
  <path d="m280 114.94v-7.1992" stroke="#000"/>
  <path d="m280 107.74h-259.2" stroke="#000a15"/>
  <path d="m20.793 107.74v7.1992" stroke="#000"/>
  <path d="m20.793 114.94-14.398-14.398" stroke="#000a15"/>
  <path d="m6.395 100.54 14.398-14.402" stroke="#000a15"/>
  <path d="m20.793 86.136v7.1992" stroke="#000"/>
  <path d="m20.793 14.136h259.2" stroke="#000a15"/>
  <path d="m280 14.136v-7.1992" stroke="#000"/>
  <path d="m280 6.9368 14.398 14.398" stroke="#000a15"/>
  <path d="m294.39 21.335-14.398 14.402" stroke="#000a15"/>
  <path d="m280 35.738v-7.1992" stroke="#000"/>
  <path d="m280 28.538h-259.2" stroke="#000a15"/>
  <path d="m20.793 28.538v7.1992" stroke="#000"/>
  <path d="m20.793 35.738-14.398-14.402" stroke="#000a15"/>
  <path d="m6.395 21.335 14.398-14.398" stroke="#000a15"/>
  <path d="m20.793 6.9368v7.1992" stroke="#000"/>
 </g>
 <g transform="translate(-227.78 30.047)">
  <use transform="translate(19.6 -82.394)" x="277.5" y="162.60001" xlink:href="#a"/>
  <use transform="translate(19.6 -82.394)" x="282.388" y="162.60001" xlink:href="#c"/>
  <use transform="translate(19.6 -82.394)" x="287.276" y="162.60001" xlink:href="#b"/>
  <use transform="translate(19.6 -82.394)" x="294" y="162.60001" xlink:href="#i"/>
  <use transform="translate(-20.157 -3.2534)" x="277.5" y="83.400002" xlink:href="#a"/>
  <use transform="translate(-20.157 -3.2534)" x="282.388" y="83.400002" xlink:href="#c"/>
  <use transform="translate(-20.157 -3.2534)" x="287.276" y="83.400002" xlink:href="#b"/>
  <use transform="translate(-20.157 -3.2534)" x="294" y="83.400002" xlink:href="#h"/>
 </g>
 <g transform="translate(-90.231 80.734)" stroke="#156ef7" stroke-linecap="round" stroke-miterlimit="10" stroke-width="2">
  <path d="m132.39 68.136v-14.398"/>
  <path d="m132.39 53.738h36"/>
  <path d="m168.39 53.738v14.398"/>
 </g>
 <g transform="translate(-227.02 20.574)">
  <use x="275.79999" y="123" xlink:href="#a"/>
  <use x="280.68799" y="123" xlink:href="#g"/>
  <use x="283.79999" y="123" xlink:href="#f"/>
  <use x="286.02399" y="123" xlink:href="#e"/>
  <use x="290.91199" y="123" xlink:href="#d"/>
  <use x="295.79999" y="123" xlink:href="#j"/>
 </g>
 <g transform="rotate(-90 149.85 150.7)" stroke-linecap="round" stroke-miterlimit="10" stroke-width="2">
  <path d="m151.26 79.129v-36" stroke="#156ef7"/>
  <path d="m148.59 46.538 1.8008 7.1992" stroke="#0f0"/>
  <path d="m150.39 46.238v7.3984" stroke="#007fff"/>
 </g>
 <g transform="rotate(-90 149.91 150.76)" stroke="#0f0" stroke-linecap="round" stroke-miterlimit="10" stroke-width="2">
  <path d="m152.2 46.538-1.8008 7.1992"/>
  <path d="m150.39 53.738v-25.199"/>
  <path d="m152.2 35.738-1.8008-7.1992"/>
  <path d="m148.59 35.738 1.8008-7.1992"/>
  <path d="m152.2 75.335-1.8008-7.1992"/>
  <path d="m148.59 75.335 1.8008-7.1992"/>
  <path d="m150.39 68.136v25.199"/>
  <path d="m148.59 86.136 1.8008 7.1992"/>
  <path d="m152.2 86.136-1.8008 7.1992"/>
 </g>
</svg>
