<svg width="380" height="100" version="1.1" viewBox="0 0 380 100" xmlns="http://www.w3.org/2000/svg" xmlns:xlink="http://www.w3.org/1999/xlink">
 <defs>
  <g id="k">
   <path d="m3.2344 0h1.125v-5.8281h-1.125v2.0625c-0.28125-0.42188-0.64062-0.625-1.1875-0.625-1.0312 0-1.8125 0.98438-1.8125 2.2969 0 0.57812 0.17188 1.1719 0.46875 1.5938 0.28125 0.42188 0.8125 0.6875 1.3438 0.6875 0.54688 0 0.90625-0.20312 1.1875-0.625zm-0.9375-3.4531c0.5625 0 0.9375 0.54688 0.9375 1.375 0 0.78125-0.375 1.3281-0.9375 1.3281s-0.9375-0.54688-0.9375-1.3438c0-0.8125 0.375-1.3594 0.9375-1.3594z"/>
  </g>
  <g id="b">
   <path d="m4.1875-0.14062c-0.1875-0.17188-0.25-0.3125-0.25-0.51562v-2.4062c0-0.875-0.59375-1.3281-1.7656-1.3281s-1.7812 0.5-1.8594 1.5h1.0938c0.046875-0.45312 0.23438-0.59375 0.78125-0.59375 0.4375 0 0.65625 0.14062 0.65625 0.42188 0 0.15625-0.078125 0.26562-0.20312 0.34375-0.14062 0.078125-0.14062 0.078125-0.70312 0.17188l-0.4375 0.078125c-0.85938 0.14062-1.2812 0.57812-1.2812 1.3594 0 0.76562 0.53125 1.2969 1.3125 1.2969 0.48438 0 0.92188-0.20312 1.3125-0.625 0 0.23438 0.03125 0.3125 0.125 0.4375h1.2188zm-1.3438-1.5938c0 0.64062-0.32812 1.0156-0.89062 1.0156-0.375 0-0.60938-0.20312-0.60938-0.51562 0-0.34375 0.17188-0.5 0.64062-0.59375l0.39062-0.078125c0.28125-0.046875 0.34375-0.0625 0.46875-0.14062z"/>
  </g>
  <g id="j">
   <path d="m2.4062-4.2344h-0.625v-1.1562h-1.125v1.1562h-0.54688v0.75h0.54688v2.6562c0 0.67188 0.375 1.0156 1.1094 1.0156 0.25 0 0.4375-0.03125 0.64062-0.09375v-0.78125c-0.10938 0.015625-0.17188 0.03125-0.25 0.03125-0.29688 0-0.375-0.09375-0.375-0.48438v-2.3438h0.625z"/>
  </g>
  <g id="i">
   <path d="m0.46875-5.8281v5.8281h1.125v-0.4375c0.26562 0.42188 0.64062 0.625 1.1875 0.625 1.0312 0 1.8125-0.98438 1.8125-2.2969 0-0.57812-0.17188-1.1719-0.45312-1.5938-0.29688-0.42188-0.82812-0.6875-1.3594-0.6875-0.54688 0-0.92188 0.20312-1.1875 0.625v-2.0625zm2.0625 2.375c0.5625 0 0.95312 0.5625 0.95312 1.3594s-0.39062 1.3438-0.95312 1.3438-0.9375-0.53125-0.9375-1.375c0-0.78125 0.375-1.3281 0.9375-1.3281z"/>
  </g>
  <g id="h">
   <path d="m4.3281 0v-4.3125h-1.125v2.7031c0 0.5-0.34375 0.84375-0.90625 0.84375-0.46875 0-0.71875-0.26562-0.71875-0.78125v-2.7656h-1.1094v3c0 0.95312 0.51562 1.5 1.4375 1.5 0.59375 0 0.98438-0.21875 1.2969-0.70312v0.51562z"/>
  </g>
  <g id="a">
   <path d="m2.5-4.2344h-0.65625v-0.42188c0-0.21875 0.09375-0.32812 0.29688-0.32812 0.10938 0 0.21875 0 0.32812 0.015625v-0.84375c-0.25-0.015625-0.48438-0.015625-0.64062-0.015625-0.75 0-1.1094 0.34375-1.1094 1.0781v0.51562h-0.60938v0.75h0.60938v3.4844h1.125v-3.4844h0.65625z"/>
  </g>
  <g id="g">
   <path d="m4.1875-1.8125c0.015625-0.09375 0.015625-0.125 0.015625-0.1875 0-0.4375-0.0625-0.82812-0.17188-1.1406-0.28125-0.78125-0.98438-1.25-1.8594-1.25-1.2344 0-2 0.89062-2 2.3438 0 1.3906 0.75 2.2344 1.9844 2.2344 0.96875 0 1.75-0.54688 2-1.4062h-1.1094c-0.14062 0.34375-0.45312 0.54688-0.85938 0.54688-0.3125 0-0.57812-0.14062-0.73438-0.375-0.09375-0.15625-0.14062-0.35938-0.15625-0.76562zm-2.875-0.73438c0.078125-0.67188 0.34375-0.98438 0.84375-0.98438 0.51562 0 0.8125 0.34375 0.875 0.98438z"/>
  </g>
  <g id="f">
   <path d="m0.5-4.3125v4.3125h1.125v-2.2969c0-0.65625 0.32812-0.98438 0.98438-0.98438 0.125 0 0.20312 0.015625 0.34375 0.03125v-1.1406h-0.125c-0.51562 0-0.95312 0.32812-1.2031 0.92188v-0.84375z"/>
  </g>
  <g id="t">
   <path d="m1.9062-3.9062v3.9062h1.125v-5.6719h-0.75c-0.17188 0.67188-0.76562 1.0156-1.7344 1.0156v0.75z"/>
  </g>
  <g id="v">
   <path d="m4.0938-1h-2.4062c0.15625-0.29688 0.32812-0.46875 1.1562-1.0781 0.98438-0.71875 1.2812-1.1406 1.2812-1.9062 0-1.1094-0.76562-1.8125-1.9531-1.8125-1.1719 0-1.8594 0.70312-1.8594 1.9062v0.1875h1.0781v-0.17188c0-0.64062 0.29688-1 0.8125-1 0.5 0 0.79688 0.34375 0.79688 0.90625 0 0.625-0.1875 0.85938-1.4531 1.7656-0.96875 0.65625-1.2656 1.1406-1.3125 2.2031h3.8594z"/>
  </g>
  <g id="u">
   <path d="m1.7344-2.5312c0.4375 0 0.45312 0 0.65625 0.046875 0.375 0.10938 0.625 0.4375 0.625 0.85938 0 0.5-0.35938 0.84375-0.84375 0.84375-0.53125 0-0.8125-0.29688-0.85938-0.875h-1.0781c0 1.125 0.73438 1.8438 1.9062 1.8438 1.2188 0 1.9844-0.71875 1.9844-1.8125 0-0.67188-0.28125-1.1094-0.92188-1.4219 0.51562-0.32812 0.73438-0.6875 0.73438-1.2031 0-0.9375-0.70312-1.5469-1.7969-1.5469-0.82812 0-1.4531 0.35938-1.7031 0.98438-0.09375 0.26562-0.14062 0.45312-0.14062 0.92188h1.0469c0.015625-0.29688 0.03125-0.45312 0.09375-0.59375 0.09375-0.25 0.35938-0.40625 0.6875-0.40625 0.4375 0 0.70312 0.28125 0.70312 0.75 0 0.57812-0.32812 0.85938-1 0.85938h-0.09375z"/>
  </g>
  <g id="l">
   <path d="m3.7188-0.875-0.23438 0.21875c-0.25 0.25-0.34375 0.32812-0.40625 0.32812s-0.125-0.046875-0.125-0.10938c0-0.15625 0.34375-1.5312 0.71875-2.9062 0.03125-0.078125 0.03125-0.09375 0.046875-0.15625l-0.0625-0.03125-0.48438 0.0625-0.015625 0.015625-0.09375 0.39062c-0.0625-0.29688-0.29688-0.46875-0.64062-0.46875-1.0625 0-2.2812 1.4531-2.2812 2.7344 0 0.5625 0.29688 0.89062 0.8125 0.89062 0.5625 0 0.90625-0.26562 1.6094-1.2656-0.17188 0.65625-0.1875 0.71875-0.1875 0.92188 0 0.23438 0.09375 0.32812 0.32812 0.32812 0.3125 0 0.5-0.15625 1.1094-0.875zm-1.25-2.4844c0.28125 0.015625 0.45312 0.21875 0.45312 0.5 0 0.67188-0.40625 1.6094-0.95312 2.2031-0.1875 0.21875-0.46875 0.35938-0.70312 0.35938-0.28125 0-0.45312-0.23438-0.45312-0.59375 0-0.45312 0.29688-1.2656 0.64062-1.7656 0.32812-0.46875 0.6875-0.71875 1.0156-0.70312z"/>
  </g>
  <g id="e">
   <path d="m3.7031-0.89062c-0.4375 0.5-0.51562 0.57812-0.65625 0.57812-0.078125 0-0.14062-0.078125-0.14062-0.17188 0-0.125 0.25-1.0625 0.51562-1.9688 0.1875-0.64062 0.34375-1.2188 0.79688-2.9688l-0.046875-0.046875c-0.40625 0.09375-0.70312 0.14062-1.2188 0.1875v0.14062c0.4375 0.015625 0.5 0.03125 0.5 0.20312 0 0.10938-0.015625 0.14062-0.125 0.5625l-0.35938 1.3125c-0.0625-0.34375-0.20312-0.46875-0.51562-0.46875-1.0312 0-2.3281 1.5-2.3281 2.7031 0 0.57812 0.3125 0.92188 0.82812 0.92188 0.54688 0 0.90625-0.26562 1.4531-1.0625-0.09375 0.40625-0.10938 0.53125-0.10938 0.71875 0 0.20312 0.14062 0.35938 0.32812 0.35938 0.34375 0 0.76562-0.32812 1.1719-0.92188zm-1.2188-2.4531c0.25 0.015625 0.35938 0.17188 0.35938 0.45312 0 1.2188-0.82812 2.5938-1.5625 2.5938-0.28125 0-0.46875-0.20312-0.46875-0.53125 0-0.65625 0.40625-1.5938 0.9375-2.1406 0.21875-0.23438 0.51562-0.39062 0.73438-0.375z"/>
  </g>
  <g id="q">
   <path d="m0.96875 0c0.42188-1.375 0.54688-1.7031 0.92188-2.3125 0.26562-0.45312 0.48438-0.70312 0.625-0.70312 0.046875 0 0.078125 0.046875 0.125 0.125 0.0625 0.125 0.125 0.17188 0.28125 0.17188 0.25 0 0.375-0.14062 0.375-0.40625 0-0.23438-0.15625-0.40625-0.375-0.40625-0.1875 0-0.40625 0.125-0.60938 0.34375-0.32812 0.34375-0.65625 0.79688-0.78125 1.125l-0.10938 0.28125 0.42188-1.7344-0.015625-0.015625c-0.59375 0.10938-0.65625 0.125-1.25 0.21875v0.14062c0.1875-0.03125 0.21875-0.046875 0.28125-0.046875 0.17188 0 0.28125 0.078125 0.28125 0.23438 0 0.10938 0 0.10938-0.125 0.64062l-0.65625 2.3438z"/>
  </g>
  <g id="d">
   <path d="m2.8594-0.875c-0.57812 0.46875-0.8125 0.60938-1.1719 0.60938-0.45312 0-0.75-0.29688-0.75-0.73438 0-0.125 0.015625-0.23438 0.09375-0.48438l0.21875-0.03125c1.2031-0.17188 2.0469-0.78125 2.0469-1.4688 0-0.32812-0.23438-0.54688-0.64062-0.54688-1.1562 0-2.4062 1.3125-2.4062 2.5156 0 0.65625 0.4375 1.1094 1.0469 1.1094 0.57812 0 1.1875-0.32812 1.6562-0.875zm-1.6406-1.1406c0.26562-0.71875 0.85938-1.3281 1.2656-1.3281 0.17188 0 0.28125 0.125 0.28125 0.3125 0 0.25-0.15625 0.53125-0.39062 0.78125-0.29688 0.28125-0.60938 0.42188-1.2969 0.59375z"/>
  </g>
  <g id="c">
   <path d="m0.28125-1.1719-0.15625 1.2812h0.125c0.078125-0.14062 0.10938-0.17188 0.20312-0.17188 0.078125 0 0.23438 0.03125 0.39062 0.078125 0.1875 0.046875 0.29688 0.078125 0.4375 0.078125 0.67188 0 1.1562-0.4375 1.1562-1.0469 0-0.3125-0.17188-0.65625-0.54688-1.125-0.3125-0.375-0.4375-0.625-0.4375-0.84375 0-0.26562 0.17188-0.42188 0.45312-0.42188 0.40625 0 0.65625 0.29688 0.73438 0.92188h0.125l0.15625-1.1094h-0.10938c-0.0625 0.10938-0.10938 0.14062-0.23438 0.14062-0.0625 0-0.14062-0.015625-0.29688-0.0625-0.1875-0.0625-0.3125-0.078125-0.4375-0.078125-0.59375 0-0.96875 0.34375-0.96875 0.89062 0 0.25 0.17188 0.59375 0.5 1.0312 0.3125 0.40625 0.45312 0.6875 0.45312 0.90625 0 0.375-0.25 0.625-0.59375 0.625-0.45312 0-0.6875-0.32812-0.8125-1.0938z"/>
  </g>
  <g id="p">
   <path d="m0.45312-3.2188 0.17188-0.015625c0.1875 0 0.34375 0.09375 0.34375 0.21875 0 0.10938-0.28125 1.2188-0.5625 2.2656-0.1875 0.6875-0.34375 1.2812-0.46875 1.7969-0.078125 0.35938-0.1875 0.45312-0.53125 0.46875v0.125h1.6406v-0.125c-0.39062 0-0.51562-0.0625-0.51562-0.23438 0-0.10938 0.125-0.71875 0.29688-1.3281 0.20312 0.10938 0.34375 0.14062 0.53125 0.14062 1.1562 0 2.3906-1.3438 2.3906-2.625 0-0.625-0.34375-1-0.92188-1-0.51562 0-0.90625 0.26562-1.3594 0.92188l0.23438-0.8125c0-0.046875 0.015625-0.0625 0.015625-0.0625 0-0.03125-0.015625-0.046875-0.046875-0.046875h-0.015625l-1.2188 0.17188zm2.0781 0.03125c0.34375 0.015625 0.5 0.23438 0.5 0.6875 0 0.54688-0.23438 1.2188-0.57812 1.7188-0.32812 0.48438-0.71875 0.71875-1.1406 0.71875-0.21875 0-0.375-0.125-0.375-0.29688 0-0.26562 0.28125-1.3125 0.51562-1.9062 0.21875-0.54688 0.6875-0.9375 1.0781-0.92188z"/>
  </g>
  <g id="o">
   <path d="m2.375-3.4219h-0.64062l0.21875-0.82812v-0.046875c0-0.046875-0.015625-0.078125-0.0625-0.078125s-0.0625 0.015625-0.10938 0.078125c-0.3125 0.40625-0.8125 0.8125-1.0625 0.875-0.20312 0.0625-0.26562 0.125-0.26562 0.20312 0 0.015625 0 0.03125 0.015625 0.046875h0.59375l-0.57812 2.2031c-0.015625 0.078125-0.03125 0.10938-0.046875 0.17188-0.078125 0.26562-0.14062 0.51562-0.14062 0.59375 0 0.15625 0.17188 0.29688 0.39062 0.29688 0.35938 0 0.625-0.23438 1.125-0.96875l-0.09375-0.0625c-0.40625 0.5-0.53125 0.64062-0.65625 0.64062-0.078125 0-0.125-0.0625-0.125-0.17188l0.015625-0.03125 0.70312-2.6719h0.67188z"/>
  </g>
  <g id="n">
   <path d="m2.5938-3.5312c-0.34375 0-0.65625 0.09375-0.98438 0.26562-0.8125 0.46875-1.3906 1.3906-1.3906 2.2344 0 0.6875 0.4375 1.125 1.1719 1.125 0.53125 0 1.0469-0.23438 1.5-0.70312 0.53125-0.51562 0.85938-1.1875 0.85938-1.7969 0-0.67188-0.46875-1.125-1.1562-1.125zm-0.09375 0.17188c0.34375 0 0.57812 0.29688 0.57812 0.75 0 0.59375-0.26562 1.3906-0.625 1.9062-0.29688 0.42188-0.59375 0.625-0.9375 0.625-0.375 0-0.625-0.29688-0.625-0.73438 0-0.59375 0.23438-1.2969 0.625-1.8594 0.3125-0.45312 0.64062-0.6875 0.98438-0.6875z"/>
  </g>
  <g id="m">
   <path d="m0.17188-3.2188c0.078125-0.015625 0.14062-0.015625 0.23438-0.015625 0.3125 0 0.39062 0.14062 0.5 0.875 0.09375 0.5625 0.1875 1.7344 0.1875 2.2188 0 0.23438 0 0.28125 0.0625 0.28125 0.20312 0 0.9375-0.8125 1.7656-1.9844 0.28125-0.39062 0.48438-0.90625 0.48438-1.2188 0-0.25-0.20312-0.46875-0.45312-0.46875-0.17188 0-0.29688 0.10938-0.29688 0.28125 0 0.125 0.0625 0.21875 0.20312 0.34375 0.09375 0.09375 0.14062 0.15625 0.14062 0.25 0 0.375-0.51562 1.25-1.0938 1.8438l-0.25 0.25c-0.0625-1.125-0.10938-1.5469-0.20312-2.1406-0.17188-0.8125-0.17188-0.82812-0.23438-0.82812-0.046875 0-0.09375 0.015625-0.15625 0.03125-0.14062 0.03125-0.625 0.125-0.89062 0.17188z"/>
  </g>
  <g id="s">
   <path d="m1.7812-0.90625c-0.20312 0.26562-0.25 0.32812-0.32812 0.40625-0.14062 0.125-0.26562 0.21875-0.32812 0.21875s-0.14062-0.0625-0.14062-0.125c0-0.078125 0.03125-0.20312 0.09375-0.35938l0.03125-0.14062 0.015625-0.015625v-0.015625l0.70312-2.5781-0.03125-0.015625c-0.8125 0.15625-0.96875 0.17188-1.2812 0.20312v0.125c0.4375 0.015625 0.51562 0.03125 0.51562 0.1875 0 0.078125-0.03125 0.20312-0.078125 0.35938l-0.39062 1.4219c-0.125 0.46875-0.17188 0.70312-0.17188 0.85938 0 0.29688 0.125 0.46875 0.375 0.46875 0.375 0 0.65625-0.25 1.1094-0.92188zm-0.0625-4.3281c-0.21875 0-0.375 0.17188-0.375 0.42188 0 0.26562 0.14062 0.42188 0.375 0.42188 0.20312 0 0.39062-0.17188 0.39062-0.40625s-0.1875-0.4375-0.39062-0.4375z"/>
  </g>
  <g id="r">
   <path d="m2.7969-0.84375c-0.4375 0.46875-0.75 0.64062-1.1406 0.64062-0.45312 0-0.73438-0.32812-0.73438-0.90625 0-0.6875 0.28125-1.4062 0.73438-1.8594 0.23438-0.25 0.54688-0.39062 0.875-0.39062 0.1875 0 0.29688 0.0625 0.29688 0.15625 0 0.046875-0.015625 0.078125-0.046875 0.15625-0.0625 0.10938-0.078125 0.15625-0.078125 0.23438 0 0.1875 0.125 0.29688 0.3125 0.29688 0.21875 0 0.39062-0.14062 0.39062-0.35938 0-0.375-0.35938-0.65625-0.84375-0.65625-1.2031 0-2.3281 1.1719-2.3281 2.4219 0 0.75 0.4375 1.2031 1.1875 1.2031 0.59375 0 1.0156-0.25 1.5-0.85938z"/>
  </g>
 </defs>
 <path d="m10.663 91.549v-28.801" fill="none" stroke="#000000" stroke-linecap="round" stroke-miterlimit="10" stroke-width=".66667"/>
 <path d="m10.663 62.748h108" fill="none" stroke="#000000" stroke-linecap="round" stroke-miterlimit="10" stroke-width=".66667"/>
 <path d="m118.66 62.748v28.801" fill="none" stroke="#000000" stroke-linecap="round" stroke-miterlimit="10" stroke-width=".66667"/>
 <path d="m118.66 91.549h-108" fill="none" stroke="#000000" stroke-linecap="round" stroke-miterlimit="10" stroke-width=".66667"/>
 <g transform="translate(-97.337 -46.552)" fill="#ff6600">
  <use x="138" y="126.8" xlink:href="#k"/>
  <use x="142.888" y="126.8" xlink:href="#b"/>
  <use x="147.336" y="126.8" xlink:href="#j"/>
  <use x="150" y="126.8" xlink:href="#b"/>
  <use x="156.7" y="126.8" xlink:href="#i"/>
  <use x="161.588" y="126.8" xlink:href="#h"/>
  <use x="166.476" y="126.8" xlink:href="#a"/>
  <use x="169.14" y="126.8" xlink:href="#a"/>
  <use x="171.804" y="126.8" xlink:href="#g"/>
  <use x="176.252" y="126.8" xlink:href="#f"/>
  <use x="181.5" y="126.8" xlink:href="#t"/>
 </g>
 <path d="m136.66 91.549v-28.801" fill="none" stroke="#000000" stroke-linecap="round" stroke-miterlimit="10" stroke-width=".66667"/>
 <path d="m136.66 62.748h108" fill="none" stroke="#000000" stroke-linecap="round" stroke-miterlimit="10" stroke-width=".66667"/>
 <path d="m244.66 62.748v28.801" fill="none" stroke="#000000" stroke-linecap="round" stroke-miterlimit="10" stroke-width=".66667"/>
 <path d="m244.66 91.549h-108" fill="none" stroke="#000000" stroke-linecap="round" stroke-miterlimit="10" stroke-width=".66667"/>
 <g transform="translate(-97.337 -46.552)" fill="#ff6600">
  <use x="264" y="126.8" xlink:href="#k"/>
  <use x="268.888" y="126.8" xlink:href="#b"/>
  <use x="273.336" y="126.8" xlink:href="#j"/>
  <use x="276" y="126.8" xlink:href="#b"/>
  <use x="282.70001" y="126.8" xlink:href="#i"/>
  <use x="287.58801" y="126.8" xlink:href="#h"/>
  <use x="292.47601" y="126.8" xlink:href="#a"/>
  <use x="295.14001" y="126.8" xlink:href="#a"/>
  <use x="297.80399" y="126.8" xlink:href="#g"/>
  <use x="302.25201" y="126.8" xlink:href="#f"/>
  <use x="307.5" y="126.8" xlink:href="#v"/>
 </g>
 <path d="m262.66 91.549v-28.801" fill="none" stroke="#000000" stroke-linecap="round" stroke-miterlimit="10" stroke-width=".66667"/>
 <path d="m262.66 62.748h108" fill="none" stroke="#000000" stroke-linecap="round" stroke-miterlimit="10" stroke-width=".66667"/>
 <path d="m370.66 62.748v28.801" fill="none" stroke="#000000" stroke-linecap="round" stroke-miterlimit="10" stroke-width=".66667"/>
 <path d="m370.66 91.549h-108" fill="none" stroke="#000000" stroke-linecap="round" stroke-miterlimit="10" stroke-width=".66667"/>
 <g transform="translate(-97.337 -46.552)" fill="#ff6600">
  <use x="390" y="126.8" xlink:href="#k"/>
  <use x="394.888" y="126.8" xlink:href="#b"/>
  <use x="399.336" y="126.8" xlink:href="#j"/>
  <use x="402" y="126.8" xlink:href="#b"/>
  <use x="408.70001" y="126.8" xlink:href="#i"/>
  <use x="413.58801" y="126.8" xlink:href="#h"/>
  <use x="418.47601" y="126.8" xlink:href="#a"/>
  <use x="421.14001" y="126.8" xlink:href="#a"/>
  <use x="423.80399" y="126.8" xlink:href="#g"/>
  <use x="428.25201" y="126.8" xlink:href="#f"/>
  <use x="433.49997" y="126.8" xlink:href="#u"/>
 </g>
 <path d="m176.26 26.748v-9.3008" fill="none" stroke="#000000" stroke-linecap="round" stroke-miterlimit="10" stroke-width=".66667"/>
 <path d="m176.26 17.448h28.797" fill="none" stroke="#000000" stroke-linecap="round" stroke-miterlimit="10" stroke-width=".66667"/>
 <path d="m205.06 17.448v9.3008" fill="none" stroke="#000000" stroke-linecap="round" stroke-miterlimit="10" stroke-width=".66667"/>
 <path d="m205.06 26.748h-28.797" fill="none" stroke="#000000" stroke-linecap="round" stroke-miterlimit="10" stroke-width=".66667"/>
 <path d="m115.76 26.748v-9.3008" fill="none" stroke="#000000" stroke-linecap="round" stroke-miterlimit="10" stroke-width=".66667"/>
 <path d="m115.76 17.448h28.797" fill="none" stroke="#000000" stroke-linecap="round" stroke-miterlimit="10" stroke-width=".66667"/>
 <path d="m144.56 17.448v9.3008" fill="none" stroke="#000000" stroke-linecap="round" stroke-miterlimit="10" stroke-width=".66667"/>
 <path d="m144.56 26.748h-28.797" fill="none" stroke="#000000" stroke-linecap="round" stroke-miterlimit="10" stroke-width=".66667"/>
 <path d="m236.66 26.748v-9.3008" fill="none" stroke="#000000" stroke-linecap="round" stroke-miterlimit="10" stroke-width=".66667"/>
 <path d="m236.66 17.448h28.801" fill="none" stroke="#000000" stroke-linecap="round" stroke-miterlimit="10" stroke-width=".66667"/>
 <path d="m265.46 17.448v9.3008" fill="none" stroke="#000000" stroke-linecap="round" stroke-miterlimit="10" stroke-width=".66667"/>
 <path d="m265.46 26.748h-28.801" fill="none" stroke="#000000" stroke-linecap="round" stroke-miterlimit="10" stroke-width=".66667"/>
 <path d="m130.16 17.448v9.3008" fill="none" stroke="#000000" stroke-linecap="round" stroke-miterlimit="10" stroke-width=".41667"/>
 <path d="m190.66 17.448v9.3008" fill="none" stroke="#000000" stroke-linecap="round" stroke-miterlimit="10" stroke-width=".41667"/>
 <path d="m251.06 17.448v9.3008" fill="none" stroke="#000000" stroke-linecap="round" stroke-miterlimit="10" stroke-width=".41667"/>
 <path d="m256.16 24.448 2.1016-4.6016" fill="none" stroke="#000000" stroke-linecap="round" stroke-miterlimit="10" stroke-width=".83333"/>
 <path d="m258.26 19.748 2.0977 4.5977" fill="none" stroke="#000000" stroke-linecap="round" stroke-miterlimit="10" stroke-width=".83333"/>
 <path d="m122.96 22.049c0-0.05469-0.0469-0.10156-0.10156-0.10156-0.0547 0-0.0977 0.04687-0.0977 0.10156 0 0.05469 0.043 0.09766 0.0977 0.09766s0.10156-0.04297 0.10156-0.09766" fill="none" stroke="#000000" stroke-linecap="round" stroke-miterlimit="10" stroke-width=".66667"/>
 <path d="m124.26 22.049c0-0.77344-0.62891-1.4023-1.4023-1.4023-0.77344 0-1.3984 0.62891-1.3984 1.4023 0 0.76953 0.625 1.3984 1.3984 1.3984 0.77343 0 1.4023-0.62891 1.4023-1.3984" fill="none" stroke="#000000" stroke-linecap="round" stroke-miterlimit="10"/>
 <path d="m137.36 22.049c0-0.05469-0.043-0.10156-0.0977-0.10156s-0.10156 0.04687-0.10156 0.10156c0 0.05469 0.0469 0.09766 0.10156 0.09766 0.0547 0 0.0977-0.04297 0.0977-0.09766" fill="none" stroke="#000000" stroke-linecap="round" stroke-miterlimit="10" stroke-width=".66667"/>
 <path d="m138.66 22.049c0-0.77344-0.62891-1.4023-1.3984-1.4023-0.77344 0-1.4023 0.62891-1.4023 1.4023 0 0.76953 0.6289 1.3984 1.4023 1.3984 0.76953 0 1.3984-0.62891 1.3984-1.3984" fill="none" stroke="#000000" stroke-linecap="round" stroke-miterlimit="10"/>
 <path d="m183.46 22.049c0-0.05469-0.0469-0.10156-0.10156-0.10156-0.0547 0-0.0977 0.04687-0.0977 0.10156 0 0.05469 0.043 0.09766 0.0977 0.09766s0.10156-0.04297 0.10156-0.09766" fill="none" stroke="#000000" stroke-linecap="round" stroke-miterlimit="10" stroke-width=".66667"/>
 <path d="m184.76 22.049c0-0.77344-0.62891-1.4023-1.4023-1.4023-0.77344 0-1.3984 0.62891-1.3984 1.4023 0 0.76953 0.625 1.3984 1.3984 1.3984 0.77343 0 1.4023-0.62891 1.4023-1.3984" fill="none" stroke="#000000" stroke-linecap="round" stroke-miterlimit="10"/>
 <path d="m197.86 22.049c0-0.05469-0.043-0.10156-0.0977-0.10156s-0.10156 0.04687-0.10156 0.10156c0 0.05469 0.0469 0.09766 0.10156 0.09766 0.0547 0 0.0977-0.04297 0.0977-0.09766" fill="none" stroke="#000000" stroke-linecap="round" stroke-miterlimit="10" stroke-width=".66667"/>
 <path d="m199.16 22.049c0-0.77344-0.62891-1.4023-1.3984-1.4023-0.77344 0-1.4023 0.62891-1.4023 1.4023 0 0.76953 0.6289 1.3984 1.4023 1.3984 0.76953 0 1.3984-0.62891 1.3984-1.3984" fill="none" stroke="#000000" stroke-linecap="round" stroke-miterlimit="10"/>
 <path d="m243.96 22.049c0-0.05469-0.0469-0.10156-0.10156-0.10156-0.0547 0-0.0977 0.04687-0.0977 0.10156 0 0.05469 0.043 0.09766 0.0977 0.09766s0.10156-0.04297 0.10156-0.09766" fill="none" stroke="#000000" stroke-linecap="round" stroke-miterlimit="10" stroke-width=".66667"/>
 <path d="m245.26 22.049c0-0.77344-0.62891-1.4023-1.4023-1.4023-0.77344 0-1.3984 0.62891-1.3984 1.4023 0 0.76953 0.625 1.3984 1.3984 1.3984 0.77343 0 1.4023-0.62891 1.4023-1.3984" fill="none" stroke="#000000" stroke-linecap="round" stroke-miterlimit="10"/>
 <path d="m137.36 22.049h38.801" fill="none" stroke="#000000" stroke-linecap="round" stroke-miterlimit="10" stroke-width=".66667"/>
 <path d="m169.06 23.846 7.2031-1.7969" fill="none" stroke="#000000" stroke-linecap="round" stroke-miterlimit="10" stroke-width=".66667"/>
 <path d="m168.86 23.346 7.3008-1.1992" fill="none" stroke="#000000" stroke-linecap="round" stroke-miterlimit="10" stroke-width=".66667"/>
 <path d="m168.76 22.647 7.3984-0.5" fill="none" stroke="#000000" stroke-linecap="round" stroke-miterlimit="10" stroke-width=".66667"/>
 <path d="m168.76 22.049h7.3984" fill="none" stroke="#000000" stroke-linecap="round" stroke-miterlimit="10" stroke-width=".66667"/>
 <path d="m168.76 21.549 7.3984 0.5" fill="none" stroke="#000000" stroke-linecap="round" stroke-miterlimit="10" stroke-width=".66667"/>
 <path d="m168.86 20.846 7.3008 1.2031" fill="none" stroke="#000000" stroke-linecap="round" stroke-miterlimit="10" stroke-width=".66667"/>
 <path d="m169.06 20.248 7.2031 1.8008" fill="none" stroke="#000000" stroke-linecap="round" stroke-miterlimit="10" stroke-width=".66667"/>
 <path d="m197.86 22.049h38.801" fill="none" stroke="#000000" stroke-linecap="round" stroke-miterlimit="10" stroke-width=".66667"/>
 <path d="m229.46 23.846 7.1992-1.7969" fill="none" stroke="#000000" stroke-linecap="round" stroke-miterlimit="10" stroke-width=".66667"/>
 <path d="m229.36 23.346 7.3008-1.1992" fill="none" stroke="#000000" stroke-linecap="round" stroke-miterlimit="10" stroke-width=".66667"/>
 <path d="m229.26 22.647 7.3984-0.5" fill="none" stroke="#000000" stroke-linecap="round" stroke-miterlimit="10" stroke-width=".66667"/>
 <path d="m229.26 22.049h7.3984" fill="none" stroke="#000000" stroke-linecap="round" stroke-miterlimit="10" stroke-width=".66667"/>
 <path d="m229.26 21.549 7.3984 0.5" fill="none" stroke="#000000" stroke-linecap="round" stroke-miterlimit="10" stroke-width=".66667"/>
 <path d="m229.36 20.846 7.3008 1.2031" fill="none" stroke="#000000" stroke-linecap="round" stroke-miterlimit="10" stroke-width=".66667"/>
 <path d="m229.46 20.248 7.1992 1.8008" fill="none" stroke="#000000" stroke-linecap="round" stroke-miterlimit="10" stroke-width=".66667"/>
 <path d="m122.96 22.049v17.199" fill="none" stroke="#000000" stroke-linecap="round" stroke-miterlimit="10" stroke-width=".66667"/>
 <path d="m117.56 44.748c2.9844 0 5.4023-2.418 5.4023-5.4023" fill="none" stroke="#000000" stroke-linecap="round" stroke-miterlimit="10" stroke-width=".66667"/>
 <path d="m117.56 44.748h-90.699" fill="none" stroke="#000000" stroke-linecap="round" stroke-miterlimit="10" stroke-width=".66667"/>
 <path d="m26.863 44.748c-2.9805 0-5.3984 2.418-5.3984 5.3984" fill="none" stroke="#000000" stroke-linecap="round" stroke-miterlimit="10" stroke-width=".66667"/>
 <path d="m21.464 50.147v12.602" fill="none" stroke="#000000" stroke-linecap="round" stroke-miterlimit="10" stroke-width=".66667"/>
 <path d="m19.663 55.549 1.8008 7.1992" fill="none" stroke="#000000" stroke-linecap="round" stroke-miterlimit="10" stroke-width=".66667"/>
 <path d="m20.163 55.448 1.1992 7.3008" fill="none" stroke="#000000" stroke-linecap="round" stroke-miterlimit="10" stroke-width=".66667"/>
 <path d="m20.863 55.346 0.5 7.4023" fill="none" stroke="#000000" stroke-linecap="round" stroke-miterlimit="10" stroke-width=".66667"/>
 <path d="m21.464 55.346v7.4023" fill="none" stroke="#000000" stroke-linecap="round" stroke-miterlimit="10" stroke-width=".66667"/>
 <path d="m21.964 55.346-0.5 7.4023" fill="none" stroke="#000000" stroke-linecap="round" stroke-miterlimit="10" stroke-width=".66667"/>
 <path d="m22.663 55.448-1.1992 7.3008" fill="none" stroke="#000000" stroke-linecap="round" stroke-miterlimit="10" stroke-width=".66667"/>
 <path d="m23.265 55.549-1.8008 7.1992" fill="none" stroke="#000000" stroke-linecap="round" stroke-miterlimit="10" stroke-width=".66667"/>
 <path d="m183.46 22.049v17.199" fill="none" stroke="#000000" stroke-linecap="round" stroke-miterlimit="10" stroke-width=".66667"/>
 <path d="m178.06 44.748c2.9844 0 5.4023-2.418 5.4023-5.4023" fill="none" stroke="#000000" stroke-linecap="round" stroke-miterlimit="10" stroke-width=".66667"/>
 <path d="m178.06 44.748h-25.199" fill="none" stroke="#000000" stroke-linecap="round" stroke-miterlimit="10" stroke-width=".66667"/>
 <path d="m152.86 44.748c-2.9805 0-5.3984 2.418-5.3984 5.3984" fill="none" stroke="#000000" stroke-linecap="round" stroke-miterlimit="10" stroke-width=".66667"/>
 <path d="m147.46 50.147v12.602" fill="none" stroke="#000000" stroke-linecap="round" stroke-miterlimit="10" stroke-width=".66667"/>
 <path d="m145.66 55.549 1.8008 7.1992" fill="none" stroke="#000000" stroke-linecap="round" stroke-miterlimit="10" stroke-width=".66667"/>
 <path d="m146.16 55.448 1.1992 7.3008" fill="none" stroke="#000000" stroke-linecap="round" stroke-miterlimit="10" stroke-width=".66667"/>
 <path d="m146.86 55.346 0.5 7.4023" fill="none" stroke="#000000" stroke-linecap="round" stroke-miterlimit="10" stroke-width=".66667"/>
 <path d="m147.46 55.346v7.4023" fill="none" stroke="#000000" stroke-linecap="round" stroke-miterlimit="10" stroke-width=".66667"/>
 <path d="m147.96 55.346-0.5 7.4023" fill="none" stroke="#000000" stroke-linecap="round" stroke-miterlimit="10" stroke-width=".66667"/>
 <path d="m148.66 55.448-1.1992 7.3008" fill="none" stroke="#000000" stroke-linecap="round" stroke-miterlimit="10" stroke-width=".66667"/>
 <path d="m149.26 55.549-1.8008 7.1992" fill="none" stroke="#000000" stroke-linecap="round" stroke-miterlimit="10" stroke-width=".66667"/>
 <path d="m243.86 22.049v17.199" fill="none" stroke="#000000" stroke-linecap="round" stroke-miterlimit="10" stroke-width=".66667"/>
 <path d="m243.86 39.346c0 2.9844 2.418 5.4023 5.4023 5.4023" fill="none" stroke="#000000" stroke-linecap="round" stroke-miterlimit="10" stroke-width=".66667"/>
 <path d="m249.26 44.748h18.699" fill="none" stroke="#000000" stroke-linecap="round" stroke-miterlimit="10" stroke-width=".66667"/>
 <path d="m273.46 50.147c0-2.9805-2.418-5.3984-5.4023-5.3984" fill="none" stroke="#000000" stroke-linecap="round" stroke-miterlimit="10" stroke-width=".66667"/>
 <path d="m273.46 50.147v12.602" fill="none" stroke="#000000" stroke-linecap="round" stroke-miterlimit="10" stroke-width=".66667"/>
 <path d="m271.66 55.549 1.8008 7.1992" fill="none" stroke="#000000" stroke-linecap="round" stroke-miterlimit="10" stroke-width=".66667"/>
 <path d="m272.16 55.448 1.1992 7.3008" fill="none" stroke="#000000" stroke-linecap="round" stroke-miterlimit="10" stroke-width=".66667"/>
 <path d="m272.86 55.346 0.5 7.4023" fill="none" stroke="#000000" stroke-linecap="round" stroke-miterlimit="10" stroke-width=".66667"/>
 <path d="m273.46 55.346v7.4023" fill="none" stroke="#000000" stroke-linecap="round" stroke-miterlimit="10" stroke-width=".66667"/>
 <path d="m273.96 55.346-0.5 7.4023" fill="none" stroke="#000000" stroke-linecap="round" stroke-miterlimit="10" stroke-width=".66667"/>
 <path d="m274.66 55.448-1.1992 7.3008" fill="none" stroke="#000000" stroke-linecap="round" stroke-miterlimit="10" stroke-width=".66667"/>
 <path d="m275.26 55.549-1.8008 7.1992" fill="none" stroke="#000000" stroke-linecap="round" stroke-miterlimit="10" stroke-width=".66667"/>
 <path d="m86.964 22.049h25.199" fill="none" stroke="#000000" stroke-linecap="round" stroke-miterlimit="10" stroke-width=".25"/>
 <path d="m104.96 23.846 7.1992-1.7969" fill="none" stroke="#000000" stroke-linecap="round" stroke-miterlimit="10" stroke-width=".25"/>
 <path d="m104.76 23.346 7.2969-1.1992" fill="none" stroke="#000000" stroke-linecap="round" stroke-miterlimit="10" stroke-width=".25"/>
 <path d="m104.76 22.647 7.3984-0.5" fill="none" stroke="#000000" stroke-linecap="round" stroke-miterlimit="10" stroke-width=".25"/>
 <path d="m104.76 22.049h7.3984" fill="none" stroke="#000000" stroke-linecap="round" stroke-miterlimit="10" stroke-width=".25"/>
 <path d="m104.76 21.549 7.3984 0.5" fill="none" stroke="#000000" stroke-linecap="round" stroke-miterlimit="10" stroke-width=".25"/>
 <path d="m104.76 20.846 7.2969 1.2031" fill="none" stroke="#000000" stroke-linecap="round" stroke-miterlimit="10" stroke-width=".25"/>
 <path d="m104.96 20.248 7.1992 1.8008" fill="none" stroke="#000000" stroke-linecap="round" stroke-miterlimit="10" stroke-width=".25"/>
 <g transform="translate(-97.337 -46.552)" fill="#000000">
  <use x="130" y="65.199997" xlink:href="#l"/>
  <use x="134" y="65.199997" xlink:href="#e"/>
  <use x="138" y="65.199997" xlink:href="#e"/>
  <use x="142" y="65.199997" xlink:href="#q"/>
  <use x="145.112" y="65.199997" xlink:href="#d"/>
  <use x="148.664" y="65.199997" xlink:href="#c"/>
  <use x="151.776" y="65.199997" xlink:href="#c"/>
  <use x="157.2" y="65.199997" xlink:href="#p"/>
  <use x="161.2" y="65.199997" xlink:href="#l"/>
  <use x="165.2" y="65.199997" xlink:href="#c"/>
  <use x="168.312" y="65.199997" xlink:href="#c"/>
  <use x="171.424" y="65.199997" xlink:href="#d"/>
  <use x="174.976" y="65.199997" xlink:href="#e"/>
  <use x="150.10001" y="75.199997" xlink:href="#o"/>
  <use x="152.32401" y="75.199997" xlink:href="#n"/>
  <use x="158.7" y="75.199997" xlink:href="#e"/>
  <use x="162.7" y="75.199997" xlink:href="#d"/>
  <use x="166.252" y="75.199997" xlink:href="#m"/>
  <use x="169.804" y="75.199997" xlink:href="#s"/>
  <use x="172.028" y="75.199997" xlink:href="#r"/>
  <use x="175.58" y="75.199997" xlink:href="#d"/>
 </g>
</svg>
