<svg width="340" height="120" version="1.1" viewBox="0 0 340 120" xmlns="http://www.w3.org/2000/svg" xmlns:xlink="http://www.w3.org/1999/xlink">
 <defs>
  <g id="o">
   <path d="m.46875-5.8281v5.8281h1.125v-.4375c.26562.42188.64062.625 1.1875.625 1.0312 0 1.8125-.98438 1.8125-2.2969 0-.57812-.17188-1.1719-.45312-1.5938-.29688-.42188-.82812-.6875-1.3594-.6875-.54688 0-.92188.20312-1.1875.625v-2.0625zm2.0625 2.375c.5625 0 .95312.5625.95312 1.3594s-.39062 1.3438-.95312 1.3438-.9375-.53125-.9375-1.375c0-.78125.375-1.3281.9375-1.3281z"/>
  </g>
  <g id="n">
   <path d="m4.3281 0v-4.3125h-1.125v2.7031c0 .5-.34375.84375-.90625.84375-.46875 0-.71875-.26562-.71875-.78125v-2.7656h-1.1094v3c0 .95312.51562 1.5 1.4375 1.5.59375 0 .98438-.21875 1.2969-.70312v.51562z"/>
  </g>
  <g id="f">
   <path d="m4.0469-2.9219c-.015625-.92188-.73438-1.4688-1.8906-1.4688-1.0938 0-1.7656.54688-1.7656 1.4375 0 .29688.078125.53125.23438.70312.15625.15625.28125.21875.70312.35938l1.3281.42188c.28125.078125.39062.17188.39062.34375 0 .26562-.3125.42188-.84375.42188-.29688 0-.51562-.046875-.65625-.14062-.125-.09375-.17188-.1875-.21875-.40625h-1.0938c.03125.95312.71875 1.4375 2.0312 1.4375.60938 0 1.0625-.125 1.375-.39062.32812-.25.51562-.65625.51562-1.0781 0-.5625-.28125-.92188-.84375-1.0938l-1.4219-.40625c-.3125-.09375-.39062-.15625-.39062-.32812 0-.25.26562-.40625.65625-.40625.53125 0 .79688.20312.79688.59375z"/>
  </g>
  <g id="m">
   <path d="m1.5781-4.3125h-1.1094v6.0625h1.1094v-2.2656c.28125.48438.65625.70312 1.2031.70312 1.0469 0 1.8125-.96875 1.8125-2.2812 0-.60938-.17188-1.2188-.46875-1.625-.28125-.40625-.82812-.67188-1.3438-.67188-.54688 0-.92188.23438-1.2031.70312zm.95312.85938c.5625 0 .9375.54688.9375 1.375 0 .79688-.375 1.3281-.9375 1.3281-.57812 0-.95312-.53125-.95312-1.3438s.375-1.3594.95312-1.3594z"/>
  </g>
  <g id="d">
   <path d="m.5-4.3125v4.3125h1.125v-2.2969c0-.65625.32812-.98438.98438-.98438.125 0 .20312.015625.34375.03125v-1.1406h-.125c-.51562 0-.95312.32812-1.2031.92188v-.84375z"/>
  </g>
  <g id="c">
   <path d="m2.4062-4.3906c-1.3125 0-2.125.875-2.125 2.2812 0 1.4219.8125 2.2969 2.1406 2.2969 1.3125 0 2.125-.875 2.125-2.2656 0-1.4531-.78125-2.3125-2.1406-2.3125zm.015625.90625c.60938 0 1.0156.54688 1.0156 1.3906 0 .8125-.42188 1.375-1.0156 1.375-.60938 0-1.0156-.54688-1.0156-1.3906 0-.82812.40625-1.375 1.0156-1.375z"/>
  </g>
  <g id="e">
   <path d="m4.1719-2.7031c-.078125-1.0625-.76562-1.6875-1.8594-1.6875-1.2969 0-2.0469.84375-2.0469 2.3125 0 1.4375.75 2.2656 2.0312 2.2656 1.0469 0 1.7812-.65625 1.875-1.6875h-1.0625c-.14062.5625-.35938.78125-.8125.78125-.5625 0-.90625-.5-.90625-1.3594 0-.40625.078125-.78125.21875-1.0469.125-.23438.375-.35938.6875-.35938.46875 0 .67188.21875.8125.78125z"/>
  </g>
  <g id="a">
   <path d="m4.1875-1.8125c.015625-.09375.015625-.125.015625-.1875 0-.4375-.0625-.82812-.17188-1.1406-.28125-.78125-.98438-1.25-1.8594-1.25-1.2344 0-2 .89062-2 2.3438 0 1.3906.75 2.2344 1.9844 2.2344.96875 0 1.75-.54688 2-1.4062h-1.1094c-.14062.34375-.45312.54688-.85938.54688-.3125 0-.57812-.14062-.73438-.375-.09375-.15625-.14062-.35938-.15625-.76562zm-2.875-.73438c.078125-.67188.34375-.98438.84375-.98438.51562 0 .8125.34375.875.98438z"/>
  </g>
  <g id="b">
   <path d="m.48438-4.3125v4.3125h1.1094v-2.5938c0-.53125.29688-.84375.78125-.84375.375 0 .59375.21875.59375.5625v2.875h1.125v-2.5938c0-.53125.29688-.84375.76562-.84375.375 0 .60938.21875.60938.5625v2.875h1.125v-3.0625c0-.82812-.51562-1.3281-1.375-1.3281-.5625 0-.9375.1875-1.2656.64062-.20312-.40625-.64062-.64062-1.1719-.64062-.5 0-.82812.15625-1.1875.60938v-.53125z"/>
  </g>
  <g id="l">
   <path d="m3.1562-4.3125-.90625 3.1406-.95312-3.1406h-1.2188l1.6094 4.4844c0 .45312-.28125.75-.70312.75-.09375 0-.15625-.015625-.29688-.046875v.84375c.17188.03125.26562.03125.40625.03125.28125 0 .60938-.046875.79688-.14062.3125-.125.45312-.29688.64062-.8125l1.7656-5.1094z"/>
  </g>
  <g id="k">
   <path d="m1.9062-3.9062v3.9062h1.125v-5.6719h-.75c-.17188.67188-.76562 1.0156-1.7344 1.0156v.75z"/>
  </g>
  <g id="j">
   <path d="m4.0938-1h-2.4062c.15625-.29688.32812-.46875 1.1562-1.0781.98438-.71875 1.2812-1.1406 1.2812-1.9062 0-1.1094-.76562-1.8125-1.9531-1.8125-1.1719 0-1.8594.70312-1.8594 1.9062v.1875h1.0781v-.17188c0-.64062.29688-1 .8125-1 .5 0 .79688.34375.79688.90625 0 .625-.1875.85938-1.4531 1.7656-.96875.65625-1.2656 1.1406-1.3125 2.2031h3.8594z"/>
  </g>
  <g id="i">
   <path d="m3.2344 0h1.125v-5.8281h-1.125v2.0625c-.28125-.42188-.64062-.625-1.1875-.625-1.0312 0-1.8125.98438-1.8125 2.2969 0 .57812.17188 1.1719.46875 1.5938.28125.42188.8125.6875 1.3438.6875.54688 0 .90625-.20312 1.1875-.625zm-.9375-3.4531c.5625 0 .9375.54688.9375 1.375 0 .78125-.375 1.3281-.9375 1.3281s-.9375-.54688-.9375-1.3438c0-.8125.375-1.3594.9375-1.3594z"/>
  </g>
  <g id="h">
   <path d="m2.7969 0 1.4844-4.3125h-1.1719l-.875 3.1562-.9375-3.1562h-1.1875l1.5156 4.3125z"/>
  </g>
  <g id="g">
   <path d="m1.6562-4.3125h-1.125v4.3125h1.125zm0-1.5156h-1.125v1h1.125z"/>
  </g>
 </defs>
 <g fill="none" stroke="#000" stroke-linecap="round" stroke-miterlimit="10" stroke-width=".66667">
  <path d="m22.998 89.206h295.2"/>
  <path d="m318.2 89.206v-7.1992"/>
  <path d="m318.2 82.007 14.398 14.398"/>
  <path d="m332.6 96.406-14.398 14.402"/>
  <path d="m318.2 110.81v-7.1992"/>
  <path d="m318.2 103.61h-295.2"/>
  <path d="m22.998 103.61v7.1992"/>
  <path d="m22.998 110.81-14.398-14.402"/>
  <path d="m8.5994 96.406 14.398-14.398"/>
  <path d="m22.998 82.007v7.1992"/>
 </g>
 <g transform="translate(-117.4 -55.993)" fill="#f60">
  <use x="280.89999" y="155.8" xlink:href="#o"/>
  <use x="285.78799" y="155.8" xlink:href="#n"/>
  <use x="290.67599" y="155.8" xlink:href="#f"/>
 </g>
 <g fill="none" stroke="#000" stroke-linecap="round" stroke-miterlimit="10" stroke-width=".66667">
  <path d="m39.701 60.406v-50.398"/>
  <path d="m39.701 10.007h50.398"/>
  <path d="m90.099 10.007v50.398"/>
  <path d="m90.099 60.406h-50.398"/>
 </g>
 <g transform="translate(-117.4 -55.993)" fill="#e302ff">
  <use x="162.89999" y="92.800003" xlink:href="#m"/>
  <use x="167.78799" y="92.800003" xlink:href="#d"/>
  <use x="170.89999" y="92.800003" xlink:href="#c"/>
  <use x="175.78799" y="92.800003" xlink:href="#e"/>
  <use x="180.23599" y="92.800003" xlink:href="#a"/>
  <use x="184.68401" y="92.800003" xlink:href="#f"/>
  <use x="189.132" y="92.800003" xlink:href="#f"/>
  <use x="193.58" y="92.800003" xlink:href="#c"/>
  <use x="198.468" y="92.800003" xlink:href="#d"/>
 </g>
 <g fill="none" stroke="#000" stroke-linecap="round" stroke-miterlimit="10" stroke-width=".66667">
  <path d="m107 60.406v-36"/>
  <path d="m107 24.406h36"/>
  <path d="m143 24.406v36"/>
  <path d="m143 60.406h-36"/>
 </g>
 <g transform="translate(-117.4 -55.993)" fill="#0ff">
  <use x="226.8" y="94" xlink:href="#b"/>
  <use x="233.912" y="94" xlink:href="#a"/>
  <use x="238.36" y="94" xlink:href="#b"/>
  <use x="245.472" y="94" xlink:href="#c"/>
  <use x="250.36" y="94" xlink:href="#d"/>
  <use x="253.472" y="94" xlink:href="#l"/>
  <use x="240.2" y="106" xlink:href="#k"/>
 </g>
 <g fill="none" stroke="#000" stroke-linecap="round" stroke-miterlimit="10" stroke-width=".66667">
  <path d="m159.8 60.406v-36"/>
  <path d="m159.8 24.406h36"/>
  <path d="m195.8 24.406v36"/>
  <path d="m195.8 60.406h-36"/>
 </g>
 <g transform="translate(-117.4 -55.993)" fill="#0ff">
  <use x="279.60001" y="94" xlink:href="#b"/>
  <use x="286.71201" y="94" xlink:href="#a"/>
  <use x="291.16" y="94" xlink:href="#b"/>
  <use x="298.272" y="94" xlink:href="#c"/>
  <use x="303.16" y="94" xlink:href="#d"/>
  <use x="306.272" y="94" xlink:href="#l"/>
  <use x="293" y="106" xlink:href="#j"/>
 </g>
 <g fill="none" stroke="#000" stroke-linecap="round" stroke-miterlimit="10" stroke-width=".66667">
  <path d="m212.5 60.406v-36"/>
  <path d="m212.5 24.406h36"/>
  <path d="m248.5 24.406v36"/>
  <path d="m248.5 60.406h-36"/>
 </g>
 <g transform="translate(-117.4 -55.993)" fill="#0f0">
  <use x="335.39999" y="94" xlink:href="#i"/>
  <use x="340.28799" y="94" xlink:href="#a"/>
  <use x="344.73599" y="94" xlink:href="#h"/>
  <use x="349.18399" y="94" xlink:href="#g"/>
  <use x="351.40799" y="94" xlink:href="#e"/>
  <use x="355.85599" y="94" xlink:href="#a"/>
  <use x="345.70001" y="106" xlink:href="#k"/>
 </g>
 <g fill="none" stroke="#000" stroke-linecap="round" stroke-miterlimit="10" stroke-width=".66667">
  <path d="m265.4 60.406v-36"/>
  <path d="m265.4 24.406h36"/>
  <path d="m301.4 24.406v36"/>
  <path d="m301.4 60.406h-36"/>
 </g>
 <g transform="translate(-117.4 -55.993)" fill="#0f0">
  <use x="388.29999" y="94" xlink:href="#i"/>
  <use x="393.18799" y="94" xlink:href="#a"/>
  <use x="397.63599" y="94" xlink:href="#h"/>
  <use x="402.08401" y="94" xlink:href="#g"/>
  <use x="404.30801" y="94" xlink:href="#e"/>
  <use x="408.75601" y="94" xlink:href="#a"/>
  <use x="398.60001" y="106" xlink:href="#j"/>
 </g>
 <g fill="none" stroke="#000" stroke-linecap="round" stroke-miterlimit="10" stroke-width=".66667">
  <path d="m66.701 67.609-1.8008-7.2031"/>
  <path d="m66.201 67.706-1.2031-7.3008"/>
  <path d="m65.599 67.808-.5-7.4023"/>
  <path d="m64.9 67.808v-7.4023"/>
  <path d="m64.4 67.808.5-7.4023"/>
  <path d="m63.799 67.706 1.1992-7.3008"/>
  <path d="m63.099 67.609 1.8008-7.2031"/>
  <path d="m64.9 60.406v28.801"/>
  <path d="m63.099 82.007 1.8008 7.1992"/>
  <path d="m63.799 81.808 1.1992 7.3008"/>
  <path d="m64.4 81.706.5 7.4023"/>
  <path d="m64.9 81.706v7.4023"/>
  <path d="m65.599 81.706-.5 7.4023"/>
  <path d="m66.201 81.808-1.2031 7.3008"/>
  <path d="m66.701 82.007-1.8008 7.1992"/>
  <path d="m126.8 67.609-1.8008-7.2031"/>
  <path d="m126.1 67.706-1.1992-7.3008"/>
  <path d="m125.6 67.808-.5-7.4023"/>
  <path d="m125 67.808v-7.4023"/>
  <path d="m124.3 67.808.5-7.4023"/>
  <path d="m123.8 67.706 1.1992-7.3008"/>
  <path d="m123.2 67.609 1.7969-7.2031"/>
  <path d="m125 60.406v28.801"/>
  <path d="m123.2 82.007 1.7969 7.1992"/>
  <path d="m123.8 81.808 1.1992 7.3008"/>
  <path d="m124.3 81.706.5 7.4023"/>
  <path d="m125 81.706v7.4023"/>
  <path d="m125.6 81.706-.5 7.4023"/>
  <path d="m126.1 81.808-1.1992 7.3008"/>
  <path d="m126.8 82.007-1.8008 7.1992"/>
  <path d="m179.6 67.609-1.8008-7.2031"/>
  <path d="m179 67.706-1.1992-7.3008"/>
  <path d="m178.3 67.808-.5-7.4023"/>
  <path d="m177.8 67.808v-7.4023"/>
  <path d="m177.2 67.808.5-7.4023"/>
  <path d="m176.5 67.706 1.2031-7.3008"/>
  <path d="m176 67.609 1.8008-7.2031"/>
  <path d="m177.8 60.406v28.801"/>
  <path d="m176 82.007 1.8008 7.1992"/>
  <path d="m176.5 81.808 1.2031 7.3008"/>
  <path d="m177.2 81.706.5 7.4023"/>
  <path d="m177.8 81.706v7.4023"/>
  <path d="m178.3 81.706-.5 7.4023"/>
  <path d="m179 81.808-1.1992 7.3008"/>
  <path d="m179.6 82.007-1.8008 7.1992"/>
  <path d="m232.3 67.609-1.8008-7.2031"/>
  <path d="m231.8 67.706-1.1992-7.3008"/>
  <path d="m231.2 67.808-.5-7.4023"/>
  <path d="m230.5 67.808v-7.4023"/>
  <path d="m230 67.808.5-7.4023"/>
  <path d="m229.4 67.706 1.1992-7.3008"/>
  <path d="m228.7 67.609 1.7969-7.2031"/>
  <path d="m230.5 60.406v28.801"/>
  <path d="m228.7 82.007 1.7969 7.1992"/>
  <path d="m229.4 81.808 1.1992 7.3008"/>
  <path d="m230 81.706.5 7.4023"/>
  <path d="m230.5 81.706v7.4023"/>
  <path d="m231.2 81.706-.5 7.4023"/>
  <path d="m231.8 81.808-1.1992 7.3008"/>
  <path d="m232.3 82.007-1.8008 7.1992"/>
  <path d="m285.2 67.609-1.8008-7.2031"/>
  <path d="m284.5 67.706-1.1992-7.3008"/>
  <path d="m284 67.808-.5-7.4023"/>
  <path d="m283.4 67.808v-7.4023"/>
  <path d="m282.7 67.808.5-7.4023"/>
  <path d="m282.2 67.706 1.1992-7.3008"/>
  <path d="m281.6 67.609 1.8008-7.2031"/>
  <path d="m283.4 60.406v28.801"/>
  <path d="m281.6 82.007 1.8008 7.1992"/>
  <path d="m282.2 81.808 1.1992 7.3008"/>
  <path d="m282.7 81.706.5 7.4023"/>
  <path d="m283.4 81.706v7.4023"/>
  <path d="m284 81.706-.5 7.4023"/>
  <path d="m284.5 81.808-1.1992 7.3008"/>
  <path d="m285.2 82.007-1.8008 7.1992"/>
 </g>
</svg>
