<svg width="260" height="140" version="1.1" viewBox="0 0 260 140" xmlns="http://www.w3.org/2000/svg" xmlns:xlink="http://www.w3.org/1999/xlink">
 <defs>
  <g id="i">
   <path d="m2.1875-5.7969c-.60938 0-1.125.26562-1.4688.73438-.32812.4375-.48438 1.1562-.48438 2.2656 0 1 .125 1.7031.39062 2.1406.34375.54688.89062.84375 1.5625.84375.60938 0 1.1094-.25 1.4688-.71875.3125-.4375.48438-1.1719.48438-2.2344 0-1.0469-.125-1.75-.40625-2.1875-.32812-.54688-.89062-.84375-1.5469-.84375zm0 .90625c.28125 0 .51562.15625.65625.45312.10938.25.17188.85938.17188 1.6406 0 .64062-.0625 1.2656-.14062 1.5-.125.34375-.375.51562-.6875.51562-.29688 0-.53125-.14062-.65625-.4375-.10938-.23438-.17188-.82812-.17188-1.5938 0-.67188.046875-1.3125.14062-1.5469.10938-.34375.35938-.53125.6875-.53125z"/>
  </g>
  <g id="a">
   <path d="m1.9062-3.9062v3.9062h1.125v-5.6719h-.75c-.17188.67188-.76562 1.0156-1.7344 1.0156v.75z"/>
  </g>
  <g id="b">
   <path d="m4.0938-1h-2.4062c.15625-.29688.32812-.46875 1.1562-1.0781.98438-.71875 1.2812-1.1406 1.2812-1.9062 0-1.1094-.76562-1.8125-1.9531-1.8125-1.1719 0-1.8594.70312-1.8594 1.9062v.1875h1.0781v-.17188c0-.64062.29688-1 .8125-1 .5 0 .79688.34375.79688.90625 0 .625-.1875.85938-1.4531 1.7656-.96875.65625-1.2656 1.1406-1.3125 2.2031h3.8594z"/>
  </g>
  <g id="h">
   <path d="m1.7344-2.5312c.4375 0 .45312 0 .65625.046875.375.10938.625.4375.625.85938 0 .5-.35938.84375-.84375.84375-.53125 0-.8125-.29688-.85938-.875h-1.0781c0 1.125.73438 1.8438 1.9062 1.8438 1.2188 0 1.9844-.71875 1.9844-1.8125 0-.67188-.28125-1.1094-.92188-1.4219.51562-.32812.73438-.6875.73438-1.2031 0-.9375-.70312-1.5469-1.7969-1.5469-.82812 0-1.4531.35938-1.7031.98438-.09375.26562-.14062.45312-.14062.92188h1.0469c.015625-.29688.03125-.45312.09375-.59375.09375-.25.35938-.40625.6875-.40625.4375 0 .70312.28125.70312.75 0 .57812-.32812.85938-1 .85938h-.09375z"/>
  </g>
  <g id="n">
   <path d="m4.1719-2.1875h-.59375v-3.4844h-1.3125l-2.0781 3.4688v.95312h2.2812v1.25h1.1094v-1.25h.59375zm-1.7031 0h-1.4844l1.4844-2.4219z"/>
  </g>
  <g id="m">
   <path d="m3.9062-5.6719h-3.0312l-.5 3.1562h1.0156c.10938-.28125.375-.42188.71875-.42188.5625 0 .90625.40625.90625 1.0938 0 .65625-.34375 1.0625-.90625 1.0625-.5 0-.76562-.25-.79688-.70312h-1.0938c.015625 1 .76562 1.6719 1.875 1.6719 1.2031 0 2.0469-.82812 2.0469-2.0625 0-1.1719-.71875-1.9531-1.7656-1.9531-.39062 0-.65625.09375-.98438.34375l.17188-1.1875h2.3438z"/>
  </g>
  <g id="w">
   <path d="m4.0625-4.3906c-.0625-.35938-.14062-.54688-.28125-.75-.29688-.40625-.8125-.65625-1.4219-.65625-.71875 0-1.2812.3125-1.625.89062-.34375.54688-.48438 1.1719-.48438 2.2031 0 .98438.125 1.5938.40625 2.0469.32812.53125.92188.84375 1.5938.84375 1.1406 0 1.9062-.84375 1.9062-2.0781 0-1.0938-.67188-1.8438-1.6562-1.8438-.45312 0-.76562.14062-1.125.5l.015625-.125c.015625-.51562.03125-.6875.10938-.90625.15625-.42188.42188-.625.8125-.625.375 0 .5625.14062.70312.5zm-1.8438 1.5469c.53125 0 .875.39062.875 1.0312 0 .59375-.375 1.0312-.875 1.0312s-.85938-.40625-.85938-1.0156c0-.625.35938-1.0469.85938-1.0469z"/>
  </g>
  <g id="v">
   <path d="m4.2188-5.6719h-3.9844v1h2.8281c-.34375.375-1.0312 1.4062-1.25 1.8906-.39062.82812-.59375 1.5781-.75 2.7812h1.125c.10938-1.7969.6875-3.1719 2.0312-4.7969z"/>
  </g>
  <g id="u">
   <path d="m3.2656-3.0938c.20312-.09375.28125-.15625.375-.23438.23438-.21875.375-.5625.375-.92188 0-.89062-.78125-1.5469-1.8281-1.5469s-1.8125.65625-1.8125 1.5469c0 .54688.21875.89062.73438 1.1562-.65625.35938-.9375.79688-.9375 1.4688 0 1.0625.82812 1.8125 2.0156 1.8125s2.0156-.75 2.0156-1.8125c0-.67188-.28125-1.1094-.9375-1.4688zm-1.0625-1.7969c.5 0 .84375.3125.84375.75 0 .42188-.35938.73438-.84375.73438-.5 0-.84375-.29688-.84375-.75 0-.42188.34375-.73438.84375-.73438zm-.015625 2.25c.54688 0 .89062.375.89062.95312 0 .54688-.34375.90625-.89062.90625s-.89062-.35938-.89062-.92188.34375-.9375.89062-.9375z"/>
  </g>
  <g id="z">
   <path d="m.29688-1.3125c.03125.85938.76562 1.5 1.75 1.5.71875 0 1.2656-.29688 1.6094-.875.29688-.5.46875-1.3594.46875-2.2656 0-.84375-.125-1.4844-.39062-1.9062-.35938-.60938-.92188-.9375-1.5938-.9375-1.1406 0-1.9219.82812-1.9219 2s.6875 1.9688 1.7031 1.9688c.28125 0 .5625-.078125.73438-.20312.10938-.078125.17188-.14062.35938-.35938 0 1.1094-.3125 1.625-.9375 1.625-.40625 0-.67188-.21875-.6875-.54688zm1.8125-3.5625c.53125 0 .875.40625.875 1.0781 0 .625-.34375 1.0469-.85938 1.0469s-.84375-.40625-.84375-1.0625.3125-1.0625.82812-1.0625z"/>
  </g>
  <g id="an">
   <path d="m1.5781-4.3125h-1.1094v6.0625h1.1094v-2.2656c.28125.48438.65625.70312 1.2031.70312 1.0469 0 1.8125-.96875 1.8125-2.2812 0-.60938-.17188-1.2188-.46875-1.625-.28125-.40625-.82812-.67188-1.3438-.67188-.54688 0-.92188.23438-1.2031.70312zm.95312.85938c.5625 0 .9375.54688.9375 1.375 0 .79688-.375 1.3281-.9375 1.3281-.57812 0-.95312-.53125-.95312-1.3438s.375-1.3594.95312-1.3594z"/>
  </g>
  <g id="am">
   <path d="m.53125-5.8281v5.8281h1.125v-2.5938c0-.5.35938-.84375.85938-.84375.25 0 .4375.078125.5625.26562.10938.14062.125.26562.125.53125v2.6406h1.125v-2.8906c0-.54688-.14062-.92188-.4375-1.1719-.25-.20312-.60938-.32812-.96875-.32812-.54688 0-.95312.21875-1.2656.6875v-2.125z"/>
  </g>
  <g id="al">
   <path d="m3.1562-4.3125-.90625 3.1406-.95312-3.1406h-1.2188l1.6094 4.4844c0 .45312-.28125.75-.70312.75-.09375 0-.15625-.015625-.29688-.046875v.84375c.17188.03125.26562.03125.40625.03125.28125 0 .60938-.046875.79688-.14062.3125-.125.45312-.29688.64062-.8125l1.7656-5.1094z"/>
  </g>
  <g id="o">
   <path d="m4.0469-2.9219c-.015625-.92188-.73438-1.4688-1.8906-1.4688-1.0938 0-1.7656.54688-1.7656 1.4375 0 .29688.078125.53125.23438.70312.15625.15625.28125.21875.70312.35938l1.3281.42188c.28125.078125.39062.17188.39062.34375 0 .26562-.3125.42188-.84375.42188-.29688 0-.51562-.046875-.65625-.14062-.125-.09375-.17188-.1875-.21875-.40625h-1.0938c.03125.95312.71875 1.4375 2.0312 1.4375.60938 0 1.0625-.125 1.375-.39062.32812-.25.51562-.65625.51562-1.0781 0-.5625-.28125-.92188-.84375-1.0938l-1.4219-.40625c-.3125-.09375-.39062-.15625-.39062-.32812 0-.25.26562-.40625.65625-.40625.53125 0 .79688.20312.79688.59375z"/>
  </g>
  <g id="ak">
   <path d="m1.6562-4.3125h-1.125v4.3125h1.125zm0-1.5156h-1.125v1h1.125z"/>
  </g>
  <g id="aj">
   <path d="m4.1719-2.7031c-.078125-1.0625-.76562-1.6875-1.8594-1.6875-1.2969 0-2.0469.84375-2.0469 2.3125 0 1.4375.75 2.2656 2.0312 2.2656 1.0469 0 1.7812-.65625 1.875-1.6875h-1.0625c-.14062.5625-.35938.78125-.8125.78125-.5625 0-.90625-.5-.90625-1.3594 0-.40625.078125-.78125.21875-1.0469.125-.23438.375-.35938.6875-.35938.46875 0 .67188.21875.8125.78125z"/>
  </g>
  <g id="y">
   <path d="m4.1875-.14062c-.1875-.17188-.25-.3125-.25-.51562v-2.4062c0-.875-.59375-1.3281-1.7656-1.3281s-1.7812.5-1.8594 1.5h1.0938c.046875-.45312.23438-.59375.78125-.59375.4375 0 .65625.14062.65625.42188 0 .15625-.078125.26562-.20312.34375-.14062.078125-.14062.078125-.70312.17188l-.4375.078125c-.85938.14062-1.2812.57812-1.2812 1.3594 0 .76562.53125 1.2969 1.3125 1.2969.48438 0 .92188-.20312 1.3125-.625 0 .23438.03125.3125.125.4375h1.2188zm-1.3438-1.5938c0 .64062-.32812 1.0156-.89062 1.0156-.375 0-.60938-.20312-.60938-.51562 0-.34375.17188-.5.64062-.59375l.39062-.078125c.28125-.046875.34375-.0625.46875-.14062z"/>
  </g>
  <g id="ai">
   <path d="m1.6562-5.8281h-1.125v5.8281h1.125z"/>
  </g>
  <g id="x">
   <path d="m3.2344 0h1.125v-5.8281h-1.125v2.0625c-.28125-.42188-.64062-.625-1.1875-.625-1.0312 0-1.8125.98438-1.8125 2.2969 0 .57812.17188 1.1719.46875 1.5938.28125.42188.8125.6875 1.3438.6875.54688 0 .90625-.20312 1.1875-.625zm-.9375-3.4531c.5625 0 .9375.54688.9375 1.375 0 .78125-.375 1.3281-.9375 1.3281s-.9375-.54688-.9375-1.3438c0-.8125.375-1.3594.9375-1.3594z"/>
  </g>
  <g id="ah">
   <path d="m.5-4.3125v4.3125h1.125v-2.2969c0-.65625.32812-.98438.98438-.98438.125 0 .20312.015625.34375.03125v-1.1406h-.125c-.51562 0-.95312.32812-1.2031.92188v-.84375z"/>
  </g>
  <g id="ag">
   <path d="m4.1875-1.8125c.015625-.09375.015625-.125.015625-.1875 0-.4375-.0625-.82812-.17188-1.1406-.28125-.78125-.98438-1.25-1.8594-1.25-1.2344 0-2 .89062-2 2.3438 0 1.3906.75 2.2344 1.9844 2.2344.96875 0 1.75-.54688 2-1.4062h-1.1094c-.14062.34375-.45312.54688-.85938.54688-.3125 0-.57812-.14062-.73438-.375-.09375-.15625-.14062-.35938-.15625-.76562zm-2.875-.73438c.078125-.67188.34375-.98438.84375-.98438.51562 0 .8125.34375.875.98438z"/>
  </g>
  <g id="l">
   <path d="m1.9219-1.3125h-1.3438v1.3125h1.3438z"/>
  </g>
  <g id="af">
   <path d="m1.4219-4.5312c.28125-.375.54688-.54688.89062-.54688.4375 0 .71875.29688.71875.73438 0 .32812-.17188.625-.51562.85938s-.6875.34375-1.4062.46875l.015625.125c.4375 0 .51562.015625.73438.078125.48438.1875.73438.625.73438 1.2656 0 .28125-.0625.5625-.17188.75-.1875.32812-.54688.54688-.875.54688-.14062 0-.32812-.078125-.5625-.25s-.35938-.23438-.51562-.23438c-.21875 0-.34375.125-.34375.3125 0 .3125.3125.48438.89062.48438.45312 0 .85938-.10938 1.1875-.29688.64062-.375 1.0312-1.0469 1.0312-1.75 0-.59375-.21875-.95312-.75-1.2031v-.015625c.95312-.375 1.2344-.64062 1.2344-1.1875 0-.57812-.46875-1.0156-1.125-1.0156-.54688 0-1.0469.3125-1.2969.82812z"/>
  </g>
  <g id="aa">
   <path d="m3.2031-1.1094c-.1875.39062-.34375.48438-.79688.5h-1.5156v-.03125l1.5312-1.5469c.9375-.9375 1.1875-1.3281 1.1875-1.875 0-.75-.5625-1.3438-1.2969-1.3438-.28125 0-.57812.078125-.8125.20312-.40625.23438-.625.5-.85938 1.0781l.17188.046875c.29688-.51562.64062-.75 1.1094-.75.57812 0 1 .42188 1 .98438 0 .15625-.015625.3125-.0625.42188-.20312.4375-.5625.9375-1.0781 1.5l-1.6875 1.7812v.14062h2.8438l.40625-1.0625z"/>
  </g>
  <g id="j">
   <path d="m.875-5.1406c.48438.015625.53125.03125.53125.21875 0 .0625-.015625.15625-.078125.34375l-.046875.14062-.015625.0625-1.0781 4v.03125c0 .1875.60938.4375 1.0625.4375 1.2031 0 2.5312-1.3906 2.5312-2.6562 0-.5625-.39062-.96875-.92188-.96875-.5625 0-.98438.32812-1.5469 1.2188.40625-1.5.46875-1.7344.82812-3.1094l-.03125-.046875c-.40625.078125-.64062.10938-1.2344.1875zm1.6719 2c.34375 0 .5625.26562.5625.6875 0 .53125-.40625 1.3906-.89062 1.8906-.29688.29688-.64062.46875-.98438.46875-.25 0-.35938-.09375-.35938-.28125 0-.46875.23438-1.2344.57812-1.8438s.70312-.92188 1.0938-.92188z"/>
  </g>
  <g id="q">
   <path d="m1.7812-.90625c-.20312.26562-.25.32812-.32812.40625-.14062.125-.26562.21875-.32812.21875s-.14062-.0625-.14062-.125c0-.078125.03125-.20312.09375-.35938l.03125-.14062.015625-.015625v-.015625l.70312-2.5781-.03125-.015625c-.8125.15625-.96875.17188-1.2812.20312v.125c.4375.015625.51562.03125.51562.1875 0 .078125-.03125.20312-.078125.35938l-.39062 1.4219c-.125.46875-.17188.70312-.17188.85938 0 .29688.125.46875.375.46875.375 0 .65625-.25 1.1094-.92188zm-.0625-4.3281c-.21875 0-.375.17188-.375.42188 0 .26562.14062.42188.375.42188.20312 0 .39062-.17188.39062-.40625s-.1875-.4375-.39062-.4375z"/>
  </g>
  <g id="f">
   <path d="m2.375-3.4219h-.64062l.21875-.82812v-.046875c0-.046875-.015625-.078125-.0625-.078125s-.0625.015625-.10938.078125c-.3125.40625-.8125.8125-1.0625.875-.20312.0625-.26562.125-.26562.20312 0 .015625 0 .03125.015625.046875h.59375l-.57812 2.2031c-.015625.078125-.03125.10938-.046875.17188-.078125.26562-.14062.51562-.14062.59375 0 .15625.17188.29688.39062.29688.35938 0 .625-.23438 1.125-.96875l-.09375-.0625c-.40625.5-.53125.64062-.65625.64062-.078125 0-.125-.0625-.125-.17188l.015625-.03125.70312-2.6719h.67188z"/>
  </g>
  <g id="e">
   <path d="m.28125-1.1719-.15625 1.2812h.125c.078125-.14062.10938-.17188.20312-.17188.078125 0 .23438.03125.39062.078125.1875.046875.29688.078125.4375.078125.67188 0 1.1562-.4375 1.1562-1.0469 0-.3125-.17188-.65625-.54688-1.125-.3125-.375-.4375-.625-.4375-.84375 0-.26562.17188-.42188.45312-.42188.40625 0 .65625.29688.73438.92188h.125l.15625-1.1094h-.10938c-.0625.10938-.10938.14062-.23438.14062-.0625 0-.14062-.015625-.29688-.0625-.1875-.0625-.3125-.078125-.4375-.078125-.59375 0-.96875.34375-.96875.89062 0 .25.17188.59375.5 1.0312.3125.40625.45312.6875.45312.90625 0 .375-.25.625-.59375.625-.45312 0-.6875-.32812-.8125-1.0938z"/>
  </g>
  <g id="d">
   <path d="m3.7188-.875-.23438.21875c-.25.25-.34375.32812-.40625.32812s-.125-.046875-.125-.10938c0-.15625.34375-1.5312.71875-2.9062.03125-.078125.03125-.09375.046875-.15625l-.0625-.03125-.48438.0625-.015625.015625-.09375.39062c-.0625-.29688-.29688-.46875-.64062-.46875-1.0625 0-2.2812 1.4531-2.2812 2.7344 0 .5625.29688.89062.8125.89062.5625 0 .90625-.26562 1.6094-1.2656-.17188.65625-.1875.71875-.1875.92188 0 .23438.09375.32812.32812.32812.3125 0 .5-.15625 1.1094-.875zm-1.25-2.4844c.28125.015625.45312.21875.45312.5 0 .67188-.40625 1.6094-.95312 2.2031-.1875.21875-.46875.35938-.70312.35938-.28125 0-.45312-.23438-.45312-.59375 0-.45312.29688-1.2656.64062-1.7656.32812-.46875.6875-.71875 1.0156-.70312z"/>
  </g>
  <g id="p">
   <path d="m.125-3.2031c.09375-.015625.15625-.03125.25-.03125.32812 0 .46875.125.64062.5625.20312.59375.625 2.2969.625 2.6094 0 .125-.0625.25-.17188.40625-.21875.29688-.40625.51562-.5.625-.17188.17188-.25.23438-.35938.23438-.0625 0-.10938-.015625-.1875-.078125-.125-.09375-.20312-.14062-.29688-.14062-.1875 0-.3125.14062-.3125.3125 0 .20312.15625.34375.40625.34375.51562 0 1.5469-1.1875 2.4219-2.7812.54688-.98438.76562-1.5625.76562-1.9531 0-.23438-.20312-.4375-.4375-.4375-.1875 0-.3125.125-.3125.29688 0 .125.0625.20312.21875.3125.15625.09375.21875.15625.21875.28125 0 .3125-.29688.92188-.98438 2.0625l-.15625-.92188c-.125-.71875-.5625-2.0312-.6875-2.0312h-.03125c-.015625.015625-.046875.015625-.078125.015625-.0625 0-.35938.046875-.78125.125-.03125.015625-.14062.03125-.25.046875z"/>
  </g>
  <g id="c">
   <path d="m2.8594-.875c-.57812.46875-.8125.60938-1.1719.60938-.45312 0-.75-.29688-.75-.73438 0-.125.015625-.23438.09375-.48438l.21875-.03125c1.2031-.17188 2.0469-.78125 2.0469-1.4688 0-.32812-.23438-.54688-.64062-.54688-1.1562 0-2.4062 1.3125-2.4062 2.5156 0 .65625.4375 1.1094 1.0469 1.1094.57812 0 1.1875-.32812 1.6562-.875zm-1.6406-1.1406c.26562-.71875.85938-1.3281 1.2656-1.3281.17188 0 .28125.125.28125.3125 0 .25-.15625.53125-.39062.78125-.29688.28125-.60938.42188-1.2969.59375z"/>
  </g>
  <g id="g">
   <path d="m3.7031-.89062c-.4375.5-.51562.57812-.65625.57812-.078125 0-.14062-.078125-.14062-.17188 0-.125.25-1.0625.51562-1.9688.1875-.64062.34375-1.2188.79688-2.9688l-.046875-.046875c-.40625.09375-.70312.14062-1.2188.1875v.14062c.4375.015625.5.03125.5.20312 0 .10938-.015625.14062-.125.5625l-.35938 1.3125c-.0625-.34375-.20312-.46875-.51562-.46875-1.0312 0-2.3281 1.5-2.3281 2.7031 0 .57812.3125.92188.82812.92188.54688 0 .90625-.26562 1.4531-1.0625-.09375.40625-.10938.53125-.10938.71875 0 .20312.14062.35938.32812.35938.34375 0 .76562-.32812 1.1719-.92188zm-1.2188-2.4531c.25.015625.35938.17188.35938.45312 0 1.2188-.82812 2.5938-1.5625 2.5938-.28125 0-.46875-.20312-.46875-.53125 0-.65625.40625-1.5938.9375-2.1406.21875-.23438.51562-.39062.73438-.375z"/>
  </g>
  <g id="t">
   <path d="m.96875 0c.42188-1.375.54688-1.7031.92188-2.3125.26562-.45312.48438-.70312.625-.70312.046875 0 .078125.046875.125.125.0625.125.125.17188.28125.17188.25 0 .375-.14062.375-.40625 0-.23438-.15625-.40625-.375-.40625-.1875 0-.40625.125-.60938.34375-.32812.34375-.65625.79688-.78125 1.125l-.10938.28125.42188-1.7344-.015625-.015625c-.59375.10938-.65625.125-1.25.21875v.14062c.1875-.03125.21875-.046875.28125-.046875.17188 0 .28125.078125.28125.23438 0 .10938 0 .10938-.125.64062l-.65625 2.3438z"/>
  </g>
  <g id="ae">
   <path d="m3.7812-3.2344h-.5c-.015625 0-.0625-.015625-.125-.0625-.21875-.15625-.46875-.23438-.78125-.23438-.89062 0-1.6094.625-1.6094 1.375 0 .40625.17188.65625.64062.85938-.48438.32812-.625.48438-.625.67188 0 .10938.0625.20312.21875.3125-.79688.51562-.9375.6875-.9375 1.0469 0 .54688.53125.90625 1.3438.90625 1 0 1.6719-.46875 1.6719-1.1562 0-.51562-.375-.85938-1.1406-1.0625-.35938-.078125-.5625-.21875-.5625-.32812 0-.125.1875-.32812.28125-.32812h.0625c.078125.015625.15625.03125.25.03125.73438 0 1.4844-.65625 1.4844-1.2812 0-.125-.03125-.26562-.078125-.4375h.40625zm-2.5938 3.0156s.015625 0 .03125.015625c.03125 0 .10938.03125.23438.0625.85938.28125 1.1406.5 1.1406.85938 0 .4375-.45312.75-1.0781.75-.64062 0-1.0156-.29688-1.0156-.8125 0-.1875.046875-.32812.1875-.48438.10938-.14062.4375-.39062.5-.39062zm1.1875-3.1406c.28125 0 .4375.20312.4375.57812 0 .28125-.09375.625-.25.90625-.17188.32812-.42188.5-.6875.5-.3125 0-.48438-.21875-.48438-.59375 0-.75.45312-1.3906.98438-1.3906z"/>
  </g>
  <g id="ad">
   <path d="m3.6875-.9375c-.4375.54688-.53125.64062-.65625.64062-.078125 0-.14062-.0625-.14062-.14062 0-.0625.03125-.20312.125-.5l.45312-1.6406c.03125-.17188.0625-.34375.0625-.46875 0-.29688-.21875-.48438-.51562-.48438-.51562 0-1.0312.48438-1.8438 1.7656l.53125-1.75-.015625-.015625c-.4375.09375-.60938.125-1.2969.25v.125c.40625.015625.5.0625.5.21875 0 .046875 0 .09375-.015625.14062l-.76562 2.7969h.60938c.375-1.2656.4375-1.4375.79688-1.9844.46875-.73438.89062-1.1406 1.1875-1.1406.10938 0 .1875.09375.1875.23438 0 .09375-.046875.35938-.10938.60938l-.35938 1.3281c-.10938.40625-.125.51562-.125.59375 0 .29688.10938.4375.375.4375.35938 0 .5625-.17188 1.125-.90625z"/>
  </g>
  <g id="k">
   <path d="m2.5938-3.5312c-.34375 0-.65625.09375-.98438.26562-.8125.46875-1.3906 1.3906-1.3906 2.2344 0 .6875.4375 1.125 1.1719 1.125.53125 0 1.0469-.23438 1.5-.70312.53125-.51562.85938-1.1875.85938-1.7969 0-.67188-.46875-1.125-1.1562-1.125zm-.09375.17188c.34375 0 .57812.29688.57812.75 0 .59375-.26562 1.3906-.625 1.9062-.29688.42188-.59375.625-.9375.625-.375 0-.625-.29688-.625-.73438 0-.59375.23438-1.2969.625-1.8594.3125-.45312.64062-.6875.98438-.6875z"/>
  </g>
  <g id="s">
   <path d="m2.7969-.84375c-.4375.46875-.75.64062-1.1406.64062-.45312 0-.73438-.32812-.73438-.90625 0-.6875.28125-1.4062.73438-1.8594.23438-.25.54688-.39062.875-.39062.1875 0 .29688.0625.29688.15625 0 .046875-.015625.078125-.046875.15625-.0625.10938-.078125.15625-.078125.23438 0 .1875.125.29688.3125.29688.21875 0 .39062-.14062.39062-.35938 0-.375-.35938-.65625-.84375-.65625-1.2031 0-2.3281 1.1719-2.3281 2.4219 0 .75.4375 1.2031 1.1875 1.2031.59375 0 1.0156-.25 1.5-.85938z"/>
  </g>
  <g id="r">
   <path d="m3.7188-.9375c-.4375.53125-.53125.64062-.65625.64062-.078125 0-.125-.078125-.125-.15625s.125-.57812.26562-1c.23438-.73438.375-1.3438.375-1.5312 0-.32812-.20312-.54688-.51562-.54688-.53125 0-1.0938.51562-1.8438 1.6875l.96875-3.5781-.046875-.046875c-.48438.10938-.78125.17188-1.25.21875v.125h.20312c.1875-.015625.32812.078125.32812.20312 0 .10938-.03125.29688-.10938.53125-.015625.015625-.046875.125-.078125.29688l-1.0781 4.0938h.59375c.32812-1.2344.42188-1.5.75-1.9844.40625-.64062.95312-1.1406 1.2344-1.1406.125 0 .21875.09375.21875.20312 0 .03125-.015625.14062-.046875.26562l-.4375 1.6562c-.10938.39062-.17188.64062-.17188.73438 0 .20312.14062.34375.35938.34375.40625 0 .6875-.21875 1.1719-.92188z"/>
  </g>
  <g id="ac">
   <path d="m.28125-3.1719h.71875l-.70312 3.3594c-.17188.85938-.4375 1.2969-.78125 1.2969-.09375 0-.15625-.046875-.15625-.125 0-.03125.015625-.046875.03125-.09375.03125-.046875.046875-.078125.046875-.125 0-.17188-.15625-.29688-.3125-.29688-.17188 0-.29688.14062-.29688.32812 0 .28125.26562.48438.625.48438.71875 0 1.2656-.78125 1.6094-2.2656l.5625-2.5625h.875l.046875-.25h-.85938c.23438-1.2656.53125-1.8281.96875-1.8281.125 0 .1875.046875.1875.10938 0 .015625-.015625.03125-.03125.0625-.046875.0625-.046875.10938-.046875.17188 0 .1875.10938.32812.29688.32812.17188 0 .32812-.15625.32812-.32812 0-.29688-.29688-.51562-.6875-.51562s-.70312.17188-.98438.54688c-.25.3125-.40625.6875-.64062 1.4531h-.73438z"/>
  </g>
  <g id="ab">
   <path d="m.125-3.2188.15625-.015625c.28125.015625.32812.03125.39062.1875.09375.26562.23438 1.3594.26562 2.1094l.03125.70312c.015625.3125.03125.375.10938.375s.21875-.20312.5-.75c.046875-.09375.20312-.35938.45312-.79688l.70312-1.2344.23438 2.5469c.015625.21875.03125.23438.09375.23438s.14062-.0625.35938-.34375c0 0 .03125-.046875.0625-.078125 1.0938-1.3125 1.7031-2.3125 1.7031-2.8281 0-.25-.17188-.42188-.42188-.42188-.20312 0-.3125.10938-.3125.28125 0 .09375.046875.17188.17188.28125.125.125.17188.20312.17188.3125 0 .34375-.26562.76562-1.3125 2.0625l-.26562-2.8125c0-.09375-.015625-.10938-.0625-.10938-.03125 0-.0625.015625-.09375.078125l-1.5469 2.4219c-.015625-.54688-.10938-1.3906-.20312-1.9375-.078125-.51562-.09375-.57812-.1875-.57812-.046875 0-.14062.03125-.25.0625 0 0-.28125.0625-.53125.09375-.046875 0-.125.015625-.21875.03125z"/>
  </g>
 </defs>
 <g fill="none" stroke="#000" stroke-linecap="round" stroke-miterlimit="10">
  <g stroke-width=".66667">
   <path d="m56.846 115.52v-14.402"/>
   <path d="m56.846 101.12h97.902"/>
   <path d="m154.75 101.12v14.402"/>
   <path d="m154.75 115.52h-97.902"/>
   <path d="m56.846 101.12v-14.398"/>
   <path d="m56.846 86.724h97.902"/>
   <path d="m154.75 86.724v14.398"/>
   <path d="m154.75 101.12h-97.902"/>
   <path d="m56.846 86.724v-14.398"/>
   <path d="m56.846 72.325h97.902"/>
   <path d="m154.75 72.325v14.398"/>
   <path d="m154.75 86.724h-97.902"/>
   <path d="m56.846 72.325v-14.402"/>
   <path d="m56.846 57.923h97.902"/>
   <path d="m154.75 57.923v14.402"/>
   <path d="m154.75 72.325h-97.902"/>
   <path d="m56.846 57.923v-14.398"/>
   <path d="m56.846 43.525h97.902"/>
   <path d="m154.75 43.525v14.398"/>
   <path d="m154.75 57.923h-97.902"/>
   <path d="m56.846 43.525v-14.402"/>
   <path d="m56.846 29.122h97.902"/>
   <path d="m154.75 29.122v14.402"/>
   <path d="m154.75 43.525h-97.902"/>
  </g>
  <g stroke-width=".58333">
   <path d="m81.346 115.52v-86.402"/>
   <path d="m105.85 115.52v-86.402"/>
   <path d="m130.25 115.52v-86.402"/>
  </g>
 </g>
 <g>
  <g transform="translate(-162.35 -49.276)" fill="#ff6600">
   <use x="229.2" y="159.89999" xlink:href="#i"/>
   <use x="253.7" y="159.89999" xlink:href="#a"/>
   <use x="278.20001" y="159.89999" xlink:href="#b"/>
   <use x="302.70001" y="159.89999" xlink:href="#h"/>
  </g>
  <g transform="translate(-162.35 -49.276)" fill="#007fff">
   <use x="229.2" y="145.5" fill="#ff6600" xlink:href="#n"/>
  </g>
  <g transform="translate(-162.35 -49.276)" fill="#ff6600">
   <use x="253.7" y="145.5" xlink:href="#m"/>
   <use x="278.20001" y="145.5" xlink:href="#w"/>
   <use x="302.70001" y="145.5" xlink:href="#v"/>
   <use x="229.2" y="131.10001" xlink:href="#u"/>
   <use x="253.7" y="131.10001" xlink:href="#z"/>
   <use x="275.89999" y="131.10001" xlink:href="#a"/>
   <use x="280.34799" y="131.10001" xlink:href="#i"/>
   <use x="300.39999" y="131.10001" xlink:href="#a"/>
   <use x="304.84799" y="131.10001" xlink:href="#a"/>
   <use x="226.89999" y="116.7" xlink:href="#a"/>
   <use x="231.34801" y="116.7" xlink:href="#b"/>
   <use x="251.39999" y="116.7" xlink:href="#a"/>
   <use x="255.84801" y="116.7" xlink:href="#h"/>
   <use x="275.89999" y="116.7" xlink:href="#a"/>
   <use x="280.34799" y="116.7" xlink:href="#n"/>
   <use x="300.39999" y="116.7" xlink:href="#a"/>
   <use x="304.84799" y="116.7" xlink:href="#m"/>
   <use x="226.89999" y="102.3" xlink:href="#a"/>
   <use x="231.34801" y="102.3" xlink:href="#w"/>
   <use x="251.39999" y="102.3" xlink:href="#a"/>
   <use x="255.84801" y="102.3" xlink:href="#v"/>
   <use x="275.89999" y="102.3" xlink:href="#a"/>
   <use x="280.34799" y="102.3" xlink:href="#u"/>
   <use x="300.39999" y="102.3" xlink:href="#a"/>
   <use x="304.84799" y="102.3" xlink:href="#z"/>
   <use x="226.89999" y="87.900002" xlink:href="#b"/>
   <use x="231.34801" y="87.900002" xlink:href="#i"/>
   <use x="251.39999" y="87.900002" xlink:href="#b"/>
   <use x="255.84801" y="87.900002" xlink:href="#a"/>
   <use x="275.89999" y="87.900002" xlink:href="#b"/>
   <use x="280.34799" y="87.900002" xlink:href="#b"/>
   <use x="300.39999" y="87.900002" xlink:href="#b"/>
   <use x="304.84799" y="87.900002" xlink:href="#h"/>
  </g>
  <g transform="translate(-162.35 -49.276)" fill="#000000">
   <use x="267" y="75.300003" xlink:href="#l"/>
   <use x="267" y="70.599998" xlink:href="#l"/>
   <use x="267" y="65.800003" xlink:href="#l"/>
   <use x="167.10001" y="60.599998" xlink:href="#an"/>
   <use x="171.98801" y="60.599998" xlink:href="#am"/>
   <use x="176.87601" y="60.599998" xlink:href="#al"/>
   <use x="181.32401" y="60.599998" xlink:href="#o"/>
   <use x="185.772" y="60.599998" xlink:href="#ak"/>
   <use x="187.996" y="60.599998" xlink:href="#aj"/>
   <use x="192.444" y="60.599998" xlink:href="#y"/>
   <use x="196.892" y="60.599998" xlink:href="#ai"/>
   <use x="167.8" y="70.599998" xlink:href="#y"/>
   <use x="172.248" y="70.599998" xlink:href="#x"/>
   <use x="177.136" y="70.599998" xlink:href="#x"/>
   <use x="182.024" y="70.599998" xlink:href="#ah"/>
   <use x="185.136" y="70.599998" xlink:href="#ag"/>
   <use x="189.584" y="70.599998" xlink:href="#o"/>
   <use x="194.032" y="70.599998" xlink:href="#o"/>
  </g>
  <g transform="translate(-162.35 -49.276)" fill="#007fff">
   <use x="178.7" y="159.2" xlink:href="#i"/>
   <use x="178.7" y="144.8" xlink:href="#a"/>
   <use x="178.7" y="130.39999" xlink:href="#b"/>
   <use x="178.7" y="116" xlink:href="#h"/>
   <use x="178.7" y="101.6" xlink:href="#n"/>
   <use x="178.7" y="87.199997" xlink:href="#m"/>
  </g>
 </g>
 <g fill="none" stroke="#000" stroke-linecap="round" stroke-miterlimit="10">
  <g stroke-width=".25">
   <path d="m56.846 119.12v17.203"/>
   <path d="m154.75 119.12v17.203"/>
   <path d="m87.846 127.72h-28.801"/>
  </g>
  <g stroke-width=".85">
   <path d="m66.248 125.92-7.2031 1.8008"/>
   <path d="m66.346 126.52-7.3008 1.1992"/>
   <path d="m66.447 127.12-7.4023.5"/>
   <path d="m66.447 127.72h-7.4023"/>
   <path d="m66.447 128.33-7.4023-.5"/>
   <path d="m66.346 128.92-7.3008-1.1992"/>
   <path d="m66.248 129.52-7.2031-1.8008"/>
  </g>
  <path d="m123.85 127.72h28.801" stroke-width=".25"/>
  <g stroke-width=".85">
   <path d="m145.45 129.52 7.1992-1.8008"/>
   <path d="m145.25 128.92 7.2969-1.1992"/>
   <path d="m145.15 128.33 7.3984-.5"/>
   <path d="m145.15 127.72h7.3984"/>
   <path d="m145.15 127.12 7.3984.5"/>
   <path d="m145.25 126.52 7.2969 1.1992"/>
   <path d="m145.45 125.92 7.1992 1.8008"/>
  </g>
  <path d="m194.35 86.724-36.398 19.801" stroke-width=".25"/>
  <g stroke-width=".85">
   <path d="m163.45 101.52-5.4024 5"/>
   <path d="m163.75 102.02-5.8008 4.5"/>
   <path d="m164.15 102.42-6.1016 4.1016"/>
   <path d="m164.45 103.02-6.4024 3.5"/>
   <path d="m164.65 103.52-6.6992 3"/>
   <path d="m164.95 104.12-6.9024 2.4023"/>
   <path d="m165.15 104.72-7.1992 1.8008"/>
  </g>
  <path d="m194.35 86.724-36 6.5" stroke-width=".25"/>
  <g stroke-width=".85">
   <path d="m165.04 90.224-6.6992 3"/>
   <path d="m165.25 90.724-6.9024 2.5"/>
   <path d="m165.45 91.325-7.1992 1.8984"/>
   <path d="m165.65 91.923-7.1992 1.1992"/>
   <path d="m165.75 92.525-7.4024.69922"/>
   <path d="m165.75 93.122-7.4024.10156"/>
   <path d="m165.75 93.724-7.4024-.5"/>
  </g>
  <path d="m194.35 86.724-36-6.5" stroke-width=".25"/>
  <g stroke-width=".85">
   <path d="m165.75 79.622-7.4024.5"/>
   <path d="m165.75 80.224-7.4024-.10156"/>
   <path d="m165.75 80.825-7.4024-.70312"/>
   <path d="m165.65 81.423-7.1992-1.1992"/>
   <path d="m165.45 82.025-7.1992-1.9023"/>
   <path d="m165.25 82.622-6.9024-2.5"/>
   <path d="m165.04 83.122-6.6992-3"/>
  </g>
  <path d="m194.35 86.724-36.398-19.801" stroke-width=".25"/>
  <g stroke-width=".85">
   <path d="m165.15 68.724-7.1992-1.8008"/>
   <path d="m164.95 69.224-6.9024-2.3984"/>
   <path d="m164.65 69.825-6.6992-3"/>
   <path d="m164.45 70.325-6.4024-3.5"/>
   <path d="m164.15 70.923-6.1016-4.0977"/>
   <path d="m163.75 71.325-5.8008-4.5"/>
   <path d="m163.45 71.825-5.4024-5"/>
  </g>
  <path d="m194.35 86.724-36.898-33.5" stroke-width=".25"/>
  <g stroke-width=".85">
   <path d="m163.95 56.622-6.5-3.5"/>
   <path d="m163.65 57.122-6.1992-4"/>
   <path d="m163.35 57.622-5.8984-4.5"/>
   <path d="m162.85 58.122-5.3984-4.8984"/>
   <path d="m162.45 58.525-5-5.4023"/>
   <path d="m162.04 58.923-4.5976-5.8008"/>
   <path d="m161.54 59.224-4.0976-6.1016"/>
  </g>
  <path d="m194.35 86.724-37.301-47.5" stroke-width=".25"/>
  <g stroke-width=".85">
   <path d="m162.85 43.724-5.8008-4.5"/>
   <path d="m162.45 44.122-5.4024-5"/>
   <path d="m162.04 44.525-5-5.4023"/>
   <path d="m161.65 44.923-4.6016-5.8008"/>
   <path d="m161.04 45.325-4.0976-6.1016"/>
   <path d="m160.54 45.622-3.5976-6.3984"/>
   <path d="m160.04 45.825-3-6.7031"/>
  </g>
 </g>
 <g>
  <g transform="translate(-162.35 -49.276)">
   <use x="257.29999" y="180" xlink:href="#af"/>
   <use x="261.29999" y="180" xlink:href="#aa"/>
   <use x="267.70001" y="180" xlink:href="#j"/>
   <use x="271.70001" y="180" xlink:href="#q"/>
   <use x="273.92401" y="180" xlink:href="#f"/>
   <use x="276.14801" y="180" xlink:href="#e"/>
   <use x="360.29999" y="127.6" xlink:href="#d"/>
  </g>
  <g transform="translate(-162.35 -49.276)" fill="#00ff00">
   <use x="366.70001" y="127.6" xlink:href="#j"/>
   <use x="370.70001" y="127.6" xlink:href="#p"/>
   <use x="374.25201" y="127.6" xlink:href="#f"/>
   <use x="376.47601" y="127.6" xlink:href="#c"/>
  </g>
  <g transform="translate(-162.35 -49.276)">
   <use x="382.29999" y="127.6" xlink:href="#d"/>
   <use x="386.29999" y="127.6" xlink:href="#g"/>
   <use x="390.29999" y="127.6" xlink:href="#g"/>
   <use x="394.29999" y="127.6" xlink:href="#t"/>
   <use x="397.41199" y="127.6" xlink:href="#c"/>
   <use x="400.96399" y="127.6" xlink:href="#e"/>
   <use x="404.07599" y="127.6" xlink:href="#e"/>
   <use x="360.29999" y="137.60001" xlink:href="#d"/>
   <use x="364.29999" y="137.60001" xlink:href="#e"/>
   <use x="367.41199" y="137.60001" xlink:href="#e"/>
   <use x="370.52399" y="137.60001" xlink:href="#q"/>
   <use x="372.74799" y="137.60001" xlink:href="#ae"/>
   <use x="376.74799" y="137.60001" xlink:href="#ad"/>
   <use x="380.74799" y="137.60001" xlink:href="#c"/>
   <use x="384.29999" y="137.60001" xlink:href="#g"/>
   <use x="390.60001" y="137.60001" xlink:href="#f"/>
   <use x="392.82401" y="137.60001" xlink:href="#k"/>
   <use x="399.20001" y="137.60001" xlink:href="#c"/>
   <use x="402.75201" y="137.60001" xlink:href="#d"/>
   <use x="406.75201" y="137.60001" xlink:href="#s"/>
   <use x="410.30399" y="137.60001" xlink:href="#r"/>
  </g>
  <g transform="translate(-162.35 -49.276)" fill="#00ff00">
   <use x="360.29999" y="147.60001" xlink:href="#j"/>
   <use x="364.29999" y="147.60001" xlink:href="#p"/>
   <use x="367.85199" y="147.60001" xlink:href="#f"/>
   <use x="370.07599" y="147.60001" xlink:href="#c"/>
  </g>
  <g transform="translate(-162.35 -49.276)" fill="#ff6600">
   <use x="375.89999" y="147.60001" xlink:href="#k"/>
   <use x="379.89999" y="147.60001" xlink:href="#ac"/>
   <use x="384.5" y="147.60001" xlink:href="#c"/>
   <use x="388.052" y="147.60001" xlink:href="#d"/>
   <use x="392.052" y="147.60001" xlink:href="#s"/>
   <use x="395.604" y="147.60001" xlink:href="#r"/>
  </g>
  <g transform="translate(-162.35 -49.276)" fill="#00ff00">
   <use x="401.89999" y="147.60001" xlink:href="#ab"/>
   <use x="407.23599" y="147.60001" xlink:href="#k"/>
   <use x="411.23599" y="147.60001" xlink:href="#t"/>
   <use x="414.34799" y="147.60001" xlink:href="#g"/>
  </g>
 </g>
</svg>
