<svg width="300" height="90" version="1.1" viewBox="0 0 300 90" xmlns="http://www.w3.org/2000/svg" xmlns:xlink="http://www.w3.org/1999/xlink">
 <defs>
  <g id="m">
   <path d="m1.6562-5.8281h-1.125v5.8281h1.125z"/>
  </g>
  <g id="b">
   <path d="m4.1875-.14062c-.1875-.17188-.25-.3125-.25-.51562v-2.4062c0-.875-.59375-1.3281-1.7656-1.3281s-1.7812.5-1.8594 1.5h1.0938c.046875-.45312.23438-.59375.78125-.59375.4375 0 .65625.14062.65625.42188 0 .15625-.078125.26562-.20312.34375-.14062.078125-.14062.078125-.70312.17188l-.4375.078125c-.85938.14062-1.2812.57812-1.2812 1.3594 0 .76562.53125 1.2969 1.3125 1.2969.48438 0 .92188-.20312 1.3125-.625 0 .23438.03125.3125.125.4375h1.2188zm-1.3438-1.5938c0 .64062-.32812 1.0156-.89062 1.0156-.375 0-.60938-.20312-.60938-.51562 0-.34375.17188-.5.64062-.59375l.39062-.078125c.28125-.046875.34375-.0625.46875-.14062z"/>
  </g>
  <g id="c">
   <path d="m.5-4.3125v4.3125h1.125v-2.2969c0-.65625.32812-.98438.98438-.98438.125 0 .20312.015625.34375.03125v-1.1406h-.125c-.51562 0-.95312.32812-1.2031.92188v-.84375z"/>
  </g>
  <g id="f">
   <path d="m3.2031-4.3125v.65625c-.3125-.5-.65625-.73438-1.1094-.73438-.39062 0-.8125.1875-1.1094.5-.4375.45312-.65625 1.0781-.65625 1.8281 0 1.3281.70312 2.25 1.7344 2.25.46875 0 .75-.15625 1.1406-.625v.57812c0 .51562-.375.89062-.90625.89062-.39062 0-.64062-.1875-.73438-.51562h-1.1406c0 .34375.125.57812.42188.8125.34375.28125.8125.42188 1.4219.42188 1.25 0 2-.60938 2-1.6094v-4.4531zm-.90625.85938c.53125 0 .92188.57812.92188 1.375s-.375 1.3281-.9375 1.3281c-.48438 0-.82812-.53125-.82812-1.3281 0-.8125.34375-1.375.84375-1.375z"/>
  </g>
  <g id="a">
   <path d="m4.1875-1.8125c.015625-.09375.015625-.125.015625-.1875 0-.4375-.0625-.82812-.17188-1.1406-.28125-.78125-.98438-1.25-1.8594-1.25-1.2344 0-2 .89062-2 2.3438 0 1.3906.75 2.2344 1.9844 2.2344.96875 0 1.75-.54688 2-1.4062h-1.1094c-.14062.34375-.45312.54688-.85938.54688-.3125 0-.57812-.14062-.73438-.375-.09375-.15625-.14062-.35938-.15625-.76562zm-2.875-.73438c.078125-.67188.34375-.98438.84375-.98438.51562 0 .8125.34375.875.98438z"/>
  </g>
  <g id="i">
   <path d="m3.2344 0h1.125v-5.8281h-1.125v2.0625c-.28125-.42188-.64062-.625-1.1875-.625-1.0312 0-1.8125.98438-1.8125 2.2969 0 .57812.17188 1.1719.46875 1.5938.28125.42188.8125.6875 1.3438.6875.54688 0 .90625-.20312 1.1875-.625zm-.9375-3.4531c.5625 0 .9375.54688.9375 1.375 0 .78125-.375 1.3281-.9375 1.3281s-.9375-.54688-.9375-1.3438c0-.8125.375-1.3594.9375-1.3594z"/>
  </g>
  <g id="d">
   <path d="m2.4062-4.2344h-.625v-1.1562h-1.125v1.1562h-.54688v.75h.54688v2.6562c0 .67188.375 1.0156 1.1094 1.0156.25 0 .4375-.03125.64062-.09375v-.78125c-.10938.015625-.17188.03125-.25.03125-.29688 0-.375-.09375-.375-.48438v-2.3438h.625z"/>
  </g>
  <g id="e">
   <path d="m4.0469-2.9219c-.015625-.92188-.73438-1.4688-1.8906-1.4688-1.0938 0-1.7656.54688-1.7656 1.4375 0 .29688.078125.53125.23438.70312.15625.15625.28125.21875.70312.35938l1.3281.42188c.28125.078125.39062.17188.39062.34375 0 .26562-.3125.42188-.84375.42188-.29688 0-.51562-.046875-.65625-.14062-.125-.09375-.17188-.1875-.21875-.40625h-1.0938c.03125.95312.71875 1.4375 2.0312 1.4375.60938 0 1.0625-.125 1.375-.39062.32812-.25.51562-.65625.51562-1.0781 0-.5625-.28125-.92188-.84375-1.0938l-1.4219-.40625c-.3125-.09375-.39062-.15625-.39062-.32812 0-.25.26562-.40625.65625-.40625.53125 0 .79688.20312.79688.59375z"/>
  </g>
  <g id="h">
   <path d="m2.4062-4.3906c-1.3125 0-2.125.875-2.125 2.2812 0 1.4219.8125 2.2969 2.1406 2.2969 1.3125 0 2.125-.875 2.125-2.2656 0-1.4531-.78125-2.3125-2.1406-2.3125zm.015625.90625c.60938 0 1.0156.54688 1.0156 1.3906 0 .8125-.42188 1.375-1.0156 1.375-.60938 0-1.0156-.54688-1.0156-1.3906 0-.82812.40625-1.375 1.0156-1.375z"/>
  </g>
  <g id="l">
   <path d="m3.2344-4.3125v.625c-.26562-.46875-.67188-.70312-1.2031-.70312-1.0469 0-1.8125.96875-1.8125 2.2969 0 .60938.1875 1.2188.46875 1.6094.28125.40625.82812.67188 1.3438.67188.53125 0 .9375-.23438 1.2031-.70312v2.2656h1.125v-6.0625zm-.95312.85938c.57812 0 .95312.54688.95312 1.375 0 .79688-.39062 1.3281-.95312 1.3281-.54688 0-.9375-.53125-.9375-1.3438s.39062-1.3594.9375-1.3594z"/>
  </g>
  <g id="k">
   <path d="m4.3281 0v-4.3125h-1.125v2.7031c0 .5-.34375.84375-.90625.84375-.46875 0-.71875-.26562-.71875-.78125v-2.7656h-1.1094v3c0 .95312.51562 1.5 1.4375 1.5.59375 0 .98438-.21875 1.2969-.70312v.51562z"/>
  </g>
  <g id="g">
   <path d="m4.1719-2.7031c-.078125-1.0625-.76562-1.6875-1.8594-1.6875-1.2969 0-2.0469.84375-2.0469 2.3125 0 1.4375.75 2.2656 2.0312 2.2656 1.0469 0 1.7812-.65625 1.875-1.6875h-1.0625c-.14062.5625-.35938.78125-.8125.78125-.5625 0-.90625-.5-.90625-1.3594 0-.40625.078125-.78125.21875-1.0469.125-.23438.375-.35938.6875-.35938.46875 0 .67188.21875.8125.78125z"/>
  </g>
  <g id="j">
   <path d="m.53125-5.8281v5.8281h1.125v-2.5938c0-.5.35938-.84375.85938-.84375.25 0 .4375.078125.5625.26562.10938.14062.125.26562.125.53125v2.6406h1.125v-2.8906c0-.54688-.14062-.92188-.4375-1.1719-.25-.20312-.60938-.32812-.96875-.32812-.54688 0-.95312.21875-1.2656.6875v-2.125z"/>
  </g>
 </defs>
 <g fill="none" stroke="#000" stroke-linecap="round" stroke-miterlimit="10" stroke-width=".66667">
  <path d="m230.32 82.659v-64.801"/>
  <path d="m230.32 17.859h64.801"/>
  <path d="m295.12 17.859v64.801"/>
  <path d="m295.12 82.659h-64.801"/>
 </g>
 <g transform="translate(-136.88 -55.341)" fill="#007fff">
  <use x="365.10001" y="67.599998" xlink:href="#m"/>
  <use x="367.32401" y="67.599998" xlink:href="#b"/>
  <use x="371.772" y="67.599998" xlink:href="#c"/>
  <use x="374.884" y="67.599998" xlink:href="#f"/>
  <use x="379.772" y="67.599998" xlink:href="#a"/>
  <use x="386.5" y="67.599998" xlink:href="#i"/>
  <use x="391.388" y="67.599998" xlink:href="#b"/>
  <use x="395.836" y="67.599998" xlink:href="#d"/>
  <use x="398.5" y="67.599998" xlink:href="#b"/>
  <use x="405.20001" y="67.599998" xlink:href="#e"/>
  <use x="409.64801" y="67.599998" xlink:href="#d"/>
  <use x="412.31201" y="67.599998" xlink:href="#h"/>
  <use x="417.20001" y="67.599998" xlink:href="#c"/>
  <use x="420.31201" y="67.599998" xlink:href="#b"/>
  <use x="424.76001" y="67.599998" xlink:href="#f"/>
  <use x="429.64801" y="67.599998" xlink:href="#a"/>
 </g>
 <g fill="none" stroke="#000" stroke-linecap="round" stroke-miterlimit="10" stroke-width=".66667">
  <path d="m7.1183 64.659v-28.801"/>
  <path d="m7.1183 35.859h28.801"/>
  <path d="m35.919 35.859v28.801"/>
  <path d="m35.919 64.659h-28.801"/>
 </g>
 <g transform="translate(-136.88 -55.341)" fill="#00ff00">
  <use x="140.10001" y="85.599998" xlink:href="#c"/>
  <use x="143.21201" y="85.599998" xlink:href="#a"/>
  <use x="147.66" y="85.599998" xlink:href="#l"/>
  <use x="152.548" y="85.599998" xlink:href="#k"/>
  <use x="157.436" y="85.599998" xlink:href="#a"/>
  <use x="161.884" y="85.599998" xlink:href="#e"/>
  <use x="166.332" y="85.599998" xlink:href="#d"/>
  <use x="168.996" y="85.599998" xlink:href="#a"/>
  <use x="173.444" y="85.599998" xlink:href="#c"/>
 </g>
 <g fill="none" stroke="#000" stroke-linecap="round" stroke-miterlimit="10" stroke-width=".66667">
  <path d="m125.92 57.46v-14.402"/>
  <path d="m125.92 43.058h14.398"/>
  <path d="m140.32 43.058v14.402"/>
  <path d="m140.32 57.46h-14.398"/>
 </g>
 <g transform="translate(-136.88 -55.341)" fill="#ff6600">
  <use x="258.60001" y="92.800003" xlink:href="#g"/>
  <use x="263.048" y="92.800003" xlink:href="#b"/>
  <use x="267.496" y="92.800003" xlink:href="#g"/>
  <use x="271.944" y="92.800003" xlink:href="#j"/>
  <use x="276.832" y="92.800003" xlink:href="#a"/>
 </g>
 <path d="m35.919 50.261h90" fill="none" stroke="#000" stroke-linecap="round" stroke-miterlimit="10" stroke-width=".66667"/>
 <path d="m140.32 50.261h90" fill="none" stroke="#000" stroke-linecap="round" stroke-miterlimit="10" stroke-width=".66667"/>
</svg>
