<svg width="350" height="230" version="1.1" viewBox="0 0 350 230" xmlns="http://www.w3.org/2000/svg" xmlns:xlink="http://www.w3.org/1999/xlink">
 <defs>
  <g id="l">
   <path d="m.65625-5.9375v5.9375h1.5469v-3.5625c0-.73438.39062-1.1719 1.0469-1.1719.51562 0 .84375.29688.84375.78125v3.9531h1.5312v-3.5625c0-.73438.40625-1.1719 1.0625-1.1719.51562 0 .84375.29688.84375.78125v3.9531h1.5312v-4.2031c0-1.1562-.70312-1.8281-1.8906-1.8281-.76562 0-1.2812.25-1.7344.875-.29688-.5625-.89062-.875-1.625-.875-.67188 0-1.125.21875-1.625.82812v-.73438z"/>
  </g>
  <g id="k">
   <path d="m5.7656-2.4844c.015625-.14062.015625-.1875.015625-.26562 0-.59375-.09375-1.1406-.23438-1.5625-.40625-1.0781-1.3594-1.7188-2.5625-1.7188-1.7031 0-2.75 1.2188-2.75 3.2188 0 1.9062 1.0469 3.0625 2.7188 3.0625 1.3438 0 2.4219-.75 2.75-1.9219h-1.5156c-.1875.46875-.60938.75-1.1719.75-.4375 0-.79688-.1875-1.0156-.51562-.14062-.21875-.20312-.48438-.21875-1.0469zm-3.9688-1.0312c.10938-.90625.48438-1.3438 1.1719-1.3438.70312 0 1.125.46875 1.2031 1.3438z"/>
  </g>
  <g id="ai">
   <path d="m3.3125-6.0312c-1.8125 0-2.9219 1.1875-2.9219 3.1406s1.1094 3.1406 2.9375 3.1406c1.8125 0 2.9375-1.1875 2.9375-3.0938 0-2.0156-1.0938-3.1875-2.9531-3.1875zm.015625 1.2344c.84375 0 1.3906.76562 1.3906 1.9219 0 1.1094-.57812 1.8906-1.3906 1.8906-.84375 0-1.4062-.76562-1.4062-1.9062s.5625-1.9062 1.4062-1.9062z"/>
  </g>
  <g id="ah">
   <path d="m.6875-5.9375v5.9375h1.5469v-3.1562c0-.90625.45312-1.3594 1.3594-1.3594.15625 0 .26562.015625.46875.046875v-1.5625h-.17188c-.71875 0-1.3125.45312-1.6562 1.25v-1.1562z"/>
  </g>
  <g id="ag">
   <path d="m4.3281-5.9375-1.2188 4.3281-1.3125-4.3281h-1.7031l2.2188 6.1719c0 .625-.39062 1.0469-.95312 1.0469-.125 0-.21875-.03125-.40625-.078125v1.1562c.21875.03125.35938.046875.54688.046875.39062 0 .82812-.078125 1.1094-.1875.42188-.17188.60938-.42188.85938-1.125l2.4531-7.0312z"/>
  </g>
  <g id="j">
   <path d="m5.7344-3.7188c-.10938-1.4531-1.0625-2.3125-2.5625-2.3125-1.7812 0-2.7969 1.1562-2.7969 3.1875 0 1.9531 1.0156 3.0938 2.7812 3.0938 1.4375 0 2.4375-.89062 2.5781-2.3125h-1.4688c-.1875.78125-.5 1.0781-1.1094 1.0781-.78125 0-1.25-.70312-1.25-1.8594 0-.57812.125-1.0938.3125-1.4531.17188-.32812.51562-.5.95312-.5.625 0 .92188.29688 1.0938 1.0781z"/>
  </g>
  <g id="af">
   <path d="m5.7656-.1875c-.26562-.25-.35938-.42188-.35938-.71875v-3.3125c0-1.2031-.8125-1.8125-2.4219-1.8125s-2.4531.67188-2.5469 2.0469h1.4844c.078125-.60938.32812-.8125 1.0938-.8125.59375 0 .89062.20312.89062.59375 0 .20312-.09375.35938-.26562.46875-.20312.10938-.20312.10938-.96875.21875l-.60938.10938c-1.1875.20312-1.75.8125-1.75 1.875s.70312 1.7812 1.7969 1.7812c.65625 0 1.25-.26562 1.8125-.84375 0 .3125.03125.42188.17188.59375h1.6719zm-1.8594-2.2031c0 .89062-.4375 1.4062-1.2188 1.4062-.51562 0-.84375-.28125-.84375-.71875 0-.46875.25-.6875.89062-.8125l.51562-.10938c.40625-.0625.48438-.09375.65625-.1875z"/>
  </g>
  <g id="ae">
   <path d="m.73438-8.0156v8.0156h1.5469v-3.5625c0-.6875.48438-1.1719 1.1875-1.1719.34375 0 .59375.125.76562.375.14062.1875.17188.35938.17188.73438v3.625h1.5469v-3.9844c0-.73438-.20312-1.2656-.60938-1.6094-.34375-.28125-.82812-.4375-1.3281-.4375-.76562 0-1.3125.29688-1.7344.95312v-2.9375z"/>
  </g>
  <g id="ad">
   <path d="m2.4062-4.2344h-.625v-1.1562h-1.125v1.1562h-.54688v.75h.54688v2.6562c0 .67188.375 1.0156 1.1094 1.0156.25 0 .4375-.03125.64062-.09375v-.78125c-.10938.015625-.17188.03125-.25.03125-.29688 0-.375-.09375-.375-.48438v-2.3438h.625z"/>
  </g>
  <g id="i">
   <path d="m4.1875-.14062c-.1875-.17188-.25-.3125-.25-.51562v-2.4062c0-.875-.59375-1.3281-1.7656-1.3281s-1.7812.5-1.8594 1.5h1.0938c.046875-.45312.23438-.59375.78125-.59375.4375 0 .65625.14062.65625.42188 0 .15625-.078125.26562-.20312.34375-.14062.078125-.14062.078125-.70312.17188l-.4375.078125c-.85938.14062-1.2812.57812-1.2812 1.3594 0 .76562.53125 1.2969 1.3125 1.2969.48438 0 .92188-.20312 1.3125-.625 0 .23438.03125.3125.125.4375h1.2188zm-1.3438-1.5938c0 .64062-.32812 1.0156-.89062 1.0156-.375 0-.60938-.20312-.60938-.51562 0-.34375.17188-.5.64062-.59375l.39062-.078125c.28125-.046875.34375-.0625.46875-.14062z"/>
  </g>
  <g id="y">
   <path d="m3.2031-4.3125v.65625c-.3125-.5-.65625-.73438-1.1094-.73438-.39062 0-.8125.1875-1.1094.5-.4375.45312-.65625 1.0781-.65625 1.8281 0 1.3281.70312 2.25 1.7344 2.25.46875 0 .75-.15625 1.1406-.625v.57812c0 .51562-.375.89062-.90625.89062-.39062 0-.64062-.1875-.73438-.51562h-1.1406c0 .34375.125.57812.42188.8125.34375.28125.8125.42188 1.4219.42188 1.25 0 2-.60938 2-1.6094v-4.4531zm-.90625.85938c.53125 0 .92188.57812.92188 1.375s-.375 1.3281-.9375 1.3281c-.48438 0-.82812-.53125-.82812-1.3281 0-.8125.34375-1.375.84375-1.375z"/>
  </g>
  <g id="x">
   <path d="m2.7969 0 1.4844-4.3125h-1.1719l-.875 3.1562-.9375-3.1562h-1.1875l1.5156 4.3125z"/>
  </g>
  <g id="h">
   <path d="m1.6562-5.8281h-1.125v5.8281h1.125z"/>
  </g>
  <g id="w">
   <path d="m4.3281 0v-4.3125h-1.125v2.7031c0 .5-.34375.84375-.90625.84375-.46875 0-.71875-.26562-.71875-.78125v-2.7656h-1.1094v3c0 .95312.51562 1.5 1.4375 1.5.59375 0 .98438-.21875 1.2969-.70312v.51562z"/>
  </g>
  <g id="v">
   <path d="m4.1875-1.8125c.015625-.09375.015625-.125.015625-.1875 0-.4375-.0625-.82812-.17188-1.1406-.28125-.78125-.98438-1.25-1.8594-1.25-1.2344 0-2 .89062-2 2.3438 0 1.3906.75 2.2344 1.9844 2.2344.96875 0 1.75-.54688 2-1.4062h-1.1094c-.14062.34375-.45312.54688-.85938.54688-.3125 0-.57812-.14062-.73438-.375-.09375-.15625-.14062-.35938-.15625-.76562zm-2.875-.73438c.078125-.67188.34375-.98438.84375-.98438.51562 0 .8125.34375.875.98438z"/>
  </g>
  <g id="c">
   <path d="m1.7344-2.5312c.4375 0 .45312 0 .65625.046875.375.10938.625.4375.625.85938 0 .5-.35938.84375-.84375.84375-.53125 0-.8125-.29688-.85938-.875h-1.0781c0 1.125.73438 1.8438 1.9062 1.8438 1.2188 0 1.9844-.71875 1.9844-1.8125 0-.67188-.28125-1.1094-.92188-1.4219.51562-.32812.73438-.6875.73438-1.2031 0-.9375-.70312-1.5469-1.7969-1.5469-.82812 0-1.4531.35938-1.7031.98438-.09375.26562-.14062.45312-.14062.92188h1.0469c.015625-.29688.03125-.45312.09375-.59375.09375-.25.35938-.40625.6875-.40625.4375 0 .70312.28125.70312.75 0 .57812-.32812.85938-1 .85938h-.09375z"/>
  </g>
  <g id="b">
   <path d="m4.0938-1h-2.4062c.15625-.29688.32812-.46875 1.1562-1.0781.98438-.71875 1.2812-1.1406 1.2812-1.9062 0-1.1094-.76562-1.8125-1.9531-1.8125-1.1719 0-1.8594.70312-1.8594 1.9062v.1875h1.0781v-.17188c0-.64062.29688-1 .8125-1 .5 0 .79688.34375.79688.90625 0 .625-.1875.85938-1.4531 1.7656-.96875.65625-1.2656 1.1406-1.3125 2.2031h3.8594z"/>
  </g>
  <g id="e">
   <path d="m1.9062-3.9062v3.9062h1.125v-5.6719h-.75c-.17188.67188-.76562 1.0156-1.7344 1.0156v.75z"/>
  </g>
  <g id="d">
   <path d="m2.1875-5.7969c-.60938 0-1.125.26562-1.4688.73438-.32812.4375-.48438 1.1562-.48438 2.2656 0 1 .125 1.7031.39062 2.1406.34375.54688.89062.84375 1.5625.84375.60938 0 1.1094-.25 1.4688-.71875.3125-.4375.48438-1.1719.48438-2.2344 0-1.0469-.125-1.75-.40625-2.1875-.32812-.54688-.89062-.84375-1.5469-.84375zm0 .90625c.28125 0 .51562.15625.65625.45312.10938.25.17188.85938.17188 1.6406 0 .64062-.0625 1.2656-.14062 1.5-.125.34375-.375.51562-.6875.51562-.29688 0-.53125-.14062-.65625-.4375-.10938-.23438-.17188-.82812-.17188-1.5938 0-.67188.046875-1.3125.14062-1.5469.10938-.34375.35938-.53125.6875-.53125z"/>
  </g>
  <g id="ac">
   <path d="m.46875-5.8281v5.8281h1.125v-.4375c.26562.42188.64062.625 1.1875.625 1.0312 0 1.8125-.98438 1.8125-2.2969 0-.57812-.17188-1.1719-.45312-1.5938-.29688-.42188-.82812-.6875-1.3594-.6875-.54688 0-.92188.20312-1.1875.625v-2.0625zm2.0625 2.375c.5625 0 .95312.5625.95312 1.3594s-.39062 1.3438-.95312 1.3438-.9375-.53125-.9375-1.375c0-.78125.375-1.3281.9375-1.3281z"/>
  </g>
  <g id="ab">
   <path d="m2.4062-4.3906c-1.3125 0-2.125.875-2.125 2.2812 0 1.4219.8125 2.2969 2.1406 2.2969 1.3125 0 2.125-.875 2.125-2.2656 0-1.4531-.78125-2.3125-2.1406-2.3125zm.015625.90625c.60938 0 1.0156.54688 1.0156 1.3906 0 .8125-.42188 1.375-1.0156 1.375-.60938 0-1.0156-.54688-1.0156-1.3906 0-.82812.40625-1.375 1.0156-1.375z"/>
  </g>
  <g id="aa">
   <path d="m4.1719-2.7031c-.078125-1.0625-.76562-1.6875-1.8594-1.6875-1.2969 0-2.0469.84375-2.0469 2.3125 0 1.4375.75 2.2656 2.0312 2.2656 1.0469 0 1.7812-.65625 1.875-1.6875h-1.0625c-.14062.5625-.35938.78125-.8125.78125-.5625 0-.90625-.5-.90625-1.3594 0-.40625.078125-.78125.21875-1.0469.125-.23438.375-.35938.6875-.35938.46875 0 .67188.21875.8125.78125z"/>
  </g>
  <g id="z">
   <path d="m1.5938-2.6406v-3.1875h-1.125v5.8281h1.125v-1.4219l.45312-.48438 1.0312 1.9062h1.3125l-1.5781-2.6875 1.4688-1.625h-1.2656z"/>
  </g>
  <g id="a">
   <path d="m2.375-3.4219h-.64062l.21875-.82812v-.046875c0-.046875-.015625-.078125-.0625-.078125s-.0625.015625-.10938.078125c-.3125.40625-.8125.8125-1.0625.875-.20312.0625-.26562.125-.26562.20312 0 .015625 0 .03125.015625.046875h.59375l-.57812 2.2031c-.015625.078125-.03125.10938-.046875.17188-.078125.26562-.14062.51562-.14062.59375 0 .15625.17188.29688.39062.29688.35938 0 .625-.23438 1.125-.96875l-.09375-.0625c-.40625.5-.53125.64062-.65625.64062-.078125 0-.125-.0625-.125-.17188l.015625-.03125.70312-2.6719h.67188z"/>
  </g>
  <g id="g">
   <path d="m3.7188-.875-.23438.21875c-.25.25-.34375.32812-.40625.32812s-.125-.046875-.125-.10938c0-.15625.34375-1.5312.71875-2.9062.03125-.078125.03125-.09375.046875-.15625l-.0625-.03125-.48438.0625-.015625.015625-.09375.39062c-.0625-.29688-.29688-.46875-.64062-.46875-1.0625 0-2.2812 1.4531-2.2812 2.7344 0 .5625.29688.89062.8125.89062.5625 0 .90625-.26562 1.6094-1.2656-.17188.65625-.1875.71875-.1875.92188 0 .23438.09375.32812.32812.32812.3125 0 .5-.15625 1.1094-.875zm-1.25-2.4844c.28125.015625.45312.21875.45312.5 0 .67188-.40625 1.6094-.95312 2.2031-.1875.21875-.46875.35938-.70312.35938-.28125 0-.45312-.23438-.45312-.59375 0-.45312.29688-1.2656.64062-1.7656.32812-.46875.6875-.71875 1.0156-.70312z"/>
  </g>
  <g id="f">
   <path d="m3.7812-3.2344h-.5c-.015625 0-.0625-.015625-.125-.0625-.21875-.15625-.46875-.23438-.78125-.23438-.89062 0-1.6094.625-1.6094 1.375 0 .40625.17188.65625.64062.85938-.48438.32812-.625.48438-.625.67188 0 .10938.0625.20312.21875.3125-.79688.51562-.9375.6875-.9375 1.0469 0 .54688.53125.90625 1.3438.90625 1 0 1.6719-.46875 1.6719-1.1562 0-.51562-.375-.85938-1.1406-1.0625-.35938-.078125-.5625-.21875-.5625-.32812 0-.125.1875-.32812.28125-.32812h.0625c.078125.015625.15625.03125.25.03125.73438 0 1.4844-.65625 1.4844-1.2812 0-.125-.03125-.26562-.078125-.4375h.40625zm-2.5938 3.0156s.015625 0 .03125.015625c.03125 0 .10938.03125.23438.0625.85938.28125 1.1406.5 1.1406.85938 0 .4375-.45312.75-1.0781.75-.64062 0-1.0156-.29688-1.0156-.8125 0-.1875.046875-.32812.1875-.48438.10938-.14062.4375-.39062.5-.39062zm1.1875-3.1406c.28125 0 .4375.20312.4375.57812 0 .28125-.09375.625-.25.90625-.17188.32812-.42188.5-.6875.5-.3125 0-.48438-.21875-.48438-.59375 0-.75.45312-1.3906.98438-1.3906z"/>
  </g>
  <g id="r">
   <path d="m2.7344-5.4062c-1.2656 0-2.4844 1.8281-2.4844 3.7031 0 1.0625.51562 1.7656 1.2969 1.7656.34375 0 .67188-.125 1.0156-.375.8125-.59375 1.4062-1.9219 1.4062-3.0781 0-1.25-.46875-2.0156-1.2344-2.0156zm-.046875.21875c.42188 0 .65625.375.65625 1.0156 0 1.0625-.3125 2.3906-.78125 3.2031-.29688.53125-.625.79688-1 .79688-.42188 0-.67188-.39062-.67188-1.0781 0-.85938.40625-2.4375.82812-3.1719.29688-.51562.59375-.76562.96875-.76562z"/>
  </g>
  <g id="q">
   <path d="m.39062 0h2.2344v-.125h-.14062c-.39062 0-.54688-.0625-.54688-.25 0-.078125.015625-.1875.09375-.42188.015625-.046875.03125-.09375.046875-.17188l1.1406-4.1562c.046875-.14062.046875-.1875.046875-.23438 0-.03125-.015625-.046875-.03125-.046875 0 0-.21875.03125-.65625.125l-.71875.14062c-.015625.015625-.078125.015625-.17188.03125v.125l.45312-.015625c.1875-.015625.3125.09375.3125.25 0 .046875-.015625.10938-.0625.26562l-1.1094 3.9375c-.09375.29688-.25.375-.89062.4375z"/>
  </g>
  <g id="p">
   <path d="m3.2031-1.1094c-.1875.39062-.34375.48438-.79688.5h-1.5156v-.03125l1.5312-1.5469c.9375-.9375 1.1875-1.3281 1.1875-1.875 0-.75-.5625-1.3438-1.2969-1.3438-.28125 0-.57812.078125-.8125.20312-.40625.23438-.625.5-.85938 1.0781l.17188.046875c.29688-.51562.64062-.75 1.1094-.75.57812 0 1 .42188 1 .98438 0 .15625-.015625.3125-.0625.42188-.20312.4375-.5625.9375-1.0781 1.5l-1.6875 1.7812v.14062h2.8438l.40625-1.0625z"/>
  </g>
  <g id="o">
   <path d="m1.4219-4.5312c.28125-.375.54688-.54688.89062-.54688.4375 0 .71875.29688.71875.73438 0 .32812-.17188.625-.51562.85938s-.6875.34375-1.4062.46875l.015625.125c.4375 0 .51562.015625.73438.078125.48438.1875.73438.625.73438 1.2656 0 .28125-.0625.5625-.17188.75-.1875.32812-.54688.54688-.875.54688-.14062 0-.32812-.078125-.5625-.25s-.35938-.23438-.51562-.23438c-.21875 0-.34375.125-.34375.3125 0 .3125.3125.48438.89062.48438.45312 0 .85938-.10938 1.1875-.29688.64062-.375 1.0312-1.0469 1.0312-1.75 0-.59375-.21875-.95312-.75-1.2031v-.015625c.95312-.375 1.2344-.64062 1.2344-1.1875 0-.57812-.46875-1.0156-1.125-1.0156-.54688 0-1.0469.3125-1.2969.82812z"/>
  </g>
  <g id="n">
   <path d="m2.625-3.0625c.95312-.3125 1.3125-.65625 1.3125-1.2188 0-.65625-.57812-1.125-1.3906-1.125-.85938 0-1.4375.48438-1.4375 1.2031 0 .42188.15625.73438.6875 1.3281-1 .3125-1.5625.89062-1.5625 1.5938 0 .20312.0625.45312.1875.65625.26562.45312.75.6875 1.4062.6875 1 0 1.7188-.625 1.7188-1.4531 0-.53125-.23438-.96875-.92188-1.6719zm-.65625.3125c.89062.90625.98438 1.0469.98438 1.5156 0 .64062-.45312 1.1094-1.0938 1.1094-.625 0-1.0781-.45312-1.0781-1.1094 0-.67188.4375-1.2188 1.1875-1.5156zm.51562-.4375c-.625-.59375-.75-.79688-.75-1.125 0-.5625.29688-.90625.8125-.90625s.85938.375.85938.9375c0 .5-.21875.76562-.92188 1.0938z"/>
  </g>
  <g id="m">
   <path d="m.875-5.1406c.48438.015625.53125.03125.53125.21875 0 .0625-.015625.15625-.078125.34375l-.046875.14062-.015625.0625-1.0781 4v.03125c0 .1875.60938.4375 1.0625.4375 1.2031 0 2.5312-1.3906 2.5312-2.6562 0-.5625-.39062-.96875-.92188-.96875-.5625 0-.98438.32812-1.5469 1.2188.40625-1.5.46875-1.7344.82812-3.1094l-.03125-.046875c-.40625.078125-.64062.10938-1.2344.1875zm1.6719 2c.34375 0 .5625.26562.5625.6875 0 .53125-.40625 1.3906-.89062 1.8906-.29688.29688-.64062.46875-.98438.46875-.25 0-.35938-.09375-.35938-.28125 0-.46875.23438-1.2344.57812-1.8438s.70312-.92188 1.0938-.92188z"/>
  </g>
  <g id="u">
   <path d="m.125-3.2031c.09375-.015625.15625-.03125.25-.03125.32812 0 .46875.125.64062.5625.20312.59375.625 2.2969.625 2.6094 0 .125-.0625.25-.17188.40625-.21875.29688-.40625.51562-.5.625-.17188.17188-.25.23438-.35938.23438-.0625 0-.10938-.015625-.1875-.078125-.125-.09375-.20312-.14062-.29688-.14062-.1875 0-.3125.14062-.3125.3125 0 .20312.15625.34375.40625.34375.51562 0 1.5469-1.1875 2.4219-2.7812.54688-.98438.76562-1.5625.76562-1.9531 0-.23438-.20312-.4375-.4375-.4375-.1875 0-.3125.125-.3125.29688 0 .125.0625.20312.21875.3125.15625.09375.21875.15625.21875.28125 0 .3125-.29688.92188-.98438 2.0625l-.15625-.92188c-.125-.71875-.5625-2.0312-.6875-2.0312h-.03125c-.015625.015625-.046875.015625-.078125.015625-.0625 0-.35938.046875-.78125.125-.03125.015625-.14062.03125-.25.046875z"/>
  </g>
  <g id="t">
   <path d="m2.8594-.875c-.57812.46875-.8125.60938-1.1719.60938-.45312 0-.75-.29688-.75-.73438 0-.125.015625-.23438.09375-.48438l.21875-.03125c1.2031-.17188 2.0469-.78125 2.0469-1.4688 0-.32812-.23438-.54688-.64062-.54688-1.1562 0-2.4062 1.3125-2.4062 2.5156 0 .65625.4375 1.1094 1.0469 1.1094.57812 0 1.1875-.32812 1.6562-.875zm-1.6406-1.1406c.26562-.71875.85938-1.3281 1.2656-1.3281.17188 0 .28125.125.28125.3125 0 .25-.15625.53125-.39062.78125-.29688.28125-.60938.42188-1.2969.59375z"/>
  </g>
  <g id="s">
   <path d="m.28125-1.1719-.15625 1.2812h.125c.078125-.14062.10938-.17188.20312-.17188.078125 0 .23438.03125.39062.078125.1875.046875.29688.078125.4375.078125.67188 0 1.1562-.4375 1.1562-1.0469 0-.3125-.17188-.65625-.54688-1.125-.3125-.375-.4375-.625-.4375-.84375 0-.26562.17188-.42188.45312-.42188.40625 0 .65625.29688.73438.92188h.125l.15625-1.1094h-.10938c-.0625.10938-.10938.14062-.23438.14062-.0625 0-.14062-.015625-.29688-.0625-.1875-.0625-.3125-.078125-.4375-.078125-.59375 0-.96875.34375-.96875.89062 0 .25.17188.59375.5 1.0312.3125.40625.45312.6875.45312.90625 0 .375-.25.625-.59375.625-.45312 0-.6875-.32812-.8125-1.0938z"/>
  </g>
 </defs>
 <g fill="none" stroke="#000" stroke-linecap="round" stroke-miterlimit="10" stroke-width=".91667">
  <path d="m5.6014 145.39v-48.902"/>
  <path d="m5.6014 96.491h161.2"/>
  <path d="m166.9 96.491v48.902"/>
  <path d="m166.9 145.39h-161.2"/>
  <path d="m66.101 96.491v48.902"/>
  <path d="m5.6014 108.69h161.2"/>
  <path d="m5.6014 120.89h161.2"/>
  <path d="m5.6014 133.19h161.2"/>
  <path d="m202.9 224.99v-208"/>
  <path d="m303.7 224.99v-208"/>
 </g>
 <g transform="translate(-117.1 -57.708)" fill="#00ff00">
  <use x="348.89999" y="68.199997" xlink:href="#l"/>
  <use x="358.67899" y="68.199997" xlink:href="#k"/>
  <use x="364.79501" y="68.199997" xlink:href="#l"/>
  <use x="374.57401" y="68.199997" xlink:href="#ai"/>
  <use x="381.29501" y="68.199997" xlink:href="#ah"/>
  <use x="385.57401" y="68.199997" xlink:href="#ag"/>
 </g>
 <g fill="none" stroke="#000" stroke-linecap="round" stroke-miterlimit="10" stroke-width=".91667">
  <path d="m202.9 224.99v-48.898"/>
  <path d="m202.9 175.99h100.8"/>
  <path d="m303.7 175.99v48.902"/>
  <path d="m303.7 224.99h-100.8"/>
  <path d="m202.9 175.99v-48.898"/>
  <path d="m202.9 127.09h100.8"/>
  <path d="m303.7 127.09v48.898"/>
  <path d="m303.7 175.99h-100.8"/>
  <path d="m202.9 127.09v-48.902"/>
  <path d="m202.9 78.092h100.8"/>
  <path d="m303.7 78.092v48.898"/>
  <path d="m303.7 127.09h-100.8"/>
  <path d="m202.9 78.092v-48.902"/>
  <path d="m202.9 29.092h100.8"/>
  <path d="m303.7 29.092v48.898"/>
  <path d="m303.7 78.092h-100.8"/>
 </g>
 <g>
  <g transform="translate(-117.1 -57.708)" fill="#ff6600">
   <use x="187.7" y="134.8" xlink:href="#j"/>
   <use x="193.81599" y="134.8" xlink:href="#af"/>
   <use x="199.93201" y="134.8" xlink:href="#j"/>
   <use x="206.048" y="134.8" xlink:href="#ae"/>
   <use x="212.769" y="134.8" xlink:href="#k"/>
  </g>
  <g transform="translate(-117.1 -57.708)" fill="#ff00ff">
   <use x="147" y="150.39999" xlink:href="#ad"/>
   <use x="149.664" y="150.39999" xlink:href="#i"/>
   <use x="154.112" y="150.39999" xlink:href="#y"/>
  </g>
  <g transform="translate(-117.1 -57.708)" fill="#007fff">
   <use x="223.3" y="150.39999" xlink:href="#x"/>
   <use x="227.748" y="150.39999" xlink:href="#i"/>
   <use x="232.196" y="150.39999" xlink:href="#h"/>
   <use x="234.42" y="150.39999" xlink:href="#w"/>
   <use x="239.308" y="150.39999" xlink:href="#v"/>
  </g>
  <g transform="translate(-117.1 -57.708)" fill="#ff2a2a">
   <use x="289" y="162.60001" fill="#ff2a2a" xlink:href="#c"/>
  </g>
  <g transform="translate(-117.1 -57.708)" fill="#f60">
   <use x="289" y="174.8" fill="#ff6600" xlink:href="#b"/>
  </g>
  <g transform="translate(-117.1 -57.708)" fill="#fc0">
   <use x="289" y="187.10001" fill="#ffcc00" xlink:href="#e"/>
  </g>
  <g transform="translate(-117.1 -57.708)" fill="#0f0">
   <use x="289" y="199.3" fill="#00ff00" xlink:href="#d"/>
  </g>
 </g>
 <g fill="none" stroke="#000" stroke-linecap="round" stroke-miterlimit="10" stroke-width=".66667">
  <path d="m202.9 29.092h100.8"/>
  <path d="m202.9 41.393h100.8"/>
  <path d="m202.9 53.592h100.8"/>
  <path d="m202.9 65.893h100.8"/>
  <path d="m202.9 78.092h100.8"/>
  <path d="m202.9 90.292h100.8"/>
  <path d="m202.9 102.59h100.8"/>
  <path d="m202.9 114.79h100.8"/>
  <path d="m202.9 127.09h100.8"/>
  <path d="m202.9 139.29h100.8"/>
  <path d="m202.9 151.49h100.8"/>
  <path d="m202.9 163.79h100.8"/>
  <path d="m202.9 175.99h100.8"/>
  <path d="m202.9 188.29h100.8"/>
  <path d="m202.9 200.49h100.8"/>
  <path d="m202.9 212.69h100.8"/>
 </g>
 <g>
  <g transform="translate(-117.1 -57.708)" fill="#000000">
   <use x="417.5" y="67.599998" xlink:href="#ac"/>
   <use x="422.388" y="67.599998" xlink:href="#h"/>
   <use x="424.612" y="67.599998" xlink:href="#ab"/>
   <use x="429.5" y="67.599998" xlink:href="#aa"/>
   <use x="433.948" y="67.599998" xlink:href="#z"/>
  </g>
  <g transform="translate(-117.1 -57.708)" fill="#0f0">
   <use x="425.79999" y="278.89999" fill="#00ff00" xlink:href="#d"/>
  </g>
  <g transform="translate(-117.1 -57.708)" fill="#fc0">
   <use x="425.79999" y="266.60001" fill="#ffcc00" xlink:href="#e"/>
  </g>
  <g transform="translate(-117.1 -57.708)" fill="#f60">
   <use x="425.79999" y="254.39999" fill="#ff6600" xlink:href="#b"/>
  </g>
  <g transform="translate(-117.1 -57.708)" fill="#ff2a2a">
   <use x="425.79999" y="242.2" fill="#ff2a2a" xlink:href="#c"/>
  </g>
  <g transform="translate(-117.1 -57.708)" fill="#0f0">
   <use x="425.79999" y="229.89999" fill="#00ff00" xlink:href="#d"/>
  </g>
  <g transform="translate(-117.1 -57.708)" fill="#fc0">
   <use x="425.79999" y="217.7" fill="#ffcc00" xlink:href="#e"/>
  </g>
  <g transform="translate(-117.1 -57.708)" fill="#f60">
   <use x="425.79999" y="205.39999" fill="#ff6600" xlink:href="#b"/>
  </g>
  <g transform="translate(-117.1 -57.708)" fill="#ff2a2a">
   <use x="425.79999" y="193.2" fill="#ff2a2a" xlink:href="#c"/>
  </g>
  <g transform="translate(-117.1 -57.708)" fill="#0f0">
   <use x="425.79999" y="181" fill="#00ff00" xlink:href="#d"/>
  </g>
  <g transform="translate(-117.1 -57.708)" fill="#fc0">
   <use x="425.79999" y="168.7" fill="#ffcc00" xlink:href="#e"/>
  </g>
  <g transform="translate(-117.1 -57.708)" fill="#f60">
   <use x="425.79999" y="156.5" fill="#ff6600" xlink:href="#b"/>
  </g>
  <g transform="translate(-117.1 -57.708)" fill="#ff2a2a">
   <use x="425.79999" y="144.2" fill="#ff2a2a" xlink:href="#c"/>
  </g>
  <g transform="translate(-117.1 -57.708)" fill="#0f0">
   <use x="425.79999" y="132" fill="#00ff00" xlink:href="#d"/>
  </g>
  <g transform="translate(-117.1 -57.708)" fill="#fc0">
   <use x="425.79999" y="119.8" fill="#ffcc00" xlink:href="#e"/>
  </g>
  <g transform="translate(-117.1 -57.708)" fill="#f60">
   <use x="425.79999" y="107.5" fill="#ff6600" xlink:href="#b"/>
  </g>
  <g transform="translate(-117.1 -57.708)" fill="#ff2a2a">
   <use x="425.79999" y="95.300003" fill="#ff2a2a" xlink:href="#c"/>
  </g>
 </g>
 <g fill="none" stroke="#000" stroke-linecap="round" stroke-miterlimit="10">
  <g stroke-width=".25">
   <path d="m321.7 179.59c0-1.9883-1.6133-3.6016-3.6016-3.6016"/>
   <path d="m321.7 179.59v17.199"/>
   <path d="m321.7 196.89c0 1.9883 1.6094 3.5977 3.5976 3.5977"/>
   <path d="m325.3 200.49c-1.9883 0-3.5976 1.6133-3.5976 3.6016"/>
   <path d="m321.7 204.09v17.199"/>
   <path d="m318.1 224.99c1.9883 0 3.6016-1.6094 3.6016-3.5977"/>
   <path d="m321.7 130.69c0-1.9883-1.6133-3.5977-3.6016-3.5977"/>
   <path d="m321.7 130.69v17.203"/>
   <path d="m321.7 147.89c0 1.9883 1.6094 3.5977 3.5976 3.5977"/>
   <path d="m325.3 151.49c-1.9883 0-3.5976 1.6133-3.5976 3.6016"/>
   <path d="m321.7 155.09v17.199"/>
   <path d="m318.1 175.99c1.9883 0 3.6016-1.6094 3.6016-3.5977"/>
   <path d="m321.7 81.69c0-1.9883-1.6133-3.5977-3.6016-3.5977"/>
   <path d="m321.7 81.69v17.203"/>
   <path d="m321.7 98.991c0 1.9883 1.6094 3.6016 3.5976 3.6016"/>
   <path d="m325.3 102.59c-1.9883 0-3.5976 1.6094-3.5976 3.5977"/>
   <path d="m321.7 106.19v17.203"/>
   <path d="m318.1 127.09c1.9883 0 3.6016-1.6133 3.6016-3.6016"/>
   <path d="m321.7 32.69c0-1.9883-1.6133-3.5977-3.6016-3.5977"/>
   <path d="m321.7 32.69v17.203"/>
   <path d="m321.7 49.991c0 1.9883 1.6094 3.6016 3.5976 3.6016"/>
   <path d="m325.3 53.592c-1.9883 0-3.5976 1.6094-3.5976 3.5977"/>
   <path d="m321.7 57.19v17.203"/>
  </g>
  <g>
   <path d="m318.1 78.092c1.9883 0 3.6016-1.6133 3.6016-3.6016" stroke-width=".25"/>
   <path d="m238.9 20.991h-32.398" stroke-width=".25"/>
   <g stroke-width=".85">
    <path d="m213.7 19.19-7.1992 1.8008"/>
    <path d="m213.8 19.792-7.2969 1.1992"/>
    <path d="m213.9 20.292-7.3984.5"/>
    <path d="m213.9 20.991h-7.3984"/>
    <path d="m213.9 21.592-7.3984-.5"/>
    <path d="m213.8 22.092-7.2969-1.1992"/>
    <path d="m213.7 22.792-7.1992-1.8008"/>
   </g>
   <path d="m267.7 20.991h32.398" stroke-width=".25"/>
   <g stroke-width=".85">
    <path d="m292.9 22.792 7.1992-1.8008"/>
    <path d="m292.7 22.092 7.3008-1.1992"/>
    <path d="m292.7 21.592 7.3984-.5"/>
    <path d="m292.7 20.991h7.3984"/>
    <path d="m292.7 20.292 7.3984.5"/>
    <path d="m292.7 19.792 7.3008 1.1992"/>
    <path d="m292.9 19.19 7.1992 1.8008"/>
   </g>
  </g>
 </g>
 <g transform="translate(-117.1 -57.708)">
  <use x="446" y="259.79999" xlink:href="#a"/>
  <use x="448.224" y="259.79999" xlink:href="#g"/>
  <use x="452.224" y="259.79999" xlink:href="#f"/>
  <use x="458.59998" y="259.79999" xlink:href="#r"/>
  <use x="446" y="210.8" xlink:href="#a"/>
  <use x="448.224" y="210.8" xlink:href="#g"/>
  <use x="452.224" y="210.8" xlink:href="#f"/>
  <use x="458.59998" y="210.8" xlink:href="#q"/>
  <use x="446" y="161.89999" xlink:href="#a"/>
  <use x="448.224" y="161.89999" xlink:href="#g"/>
  <use x="452.224" y="161.89999" xlink:href="#f"/>
  <use x="458.59998" y="161.89999" xlink:href="#p"/>
  <use x="446" y="112.9" xlink:href="#a"/>
  <use x="448.224" y="112.9" xlink:href="#g"/>
  <use x="452.224" y="112.9" xlink:href="#f"/>
  <use x="458.59998" y="112.9" xlink:href="#o"/>
  <use x="359.10001" y="81.699997" xlink:href="#n"/>
  <use x="365.5" y="81.699997" xlink:href="#m"/>
  <use x="369.5" y="81.699997" xlink:href="#u"/>
  <use x="373.052" y="81.699997" xlink:href="#a"/>
  <use x="375.276" y="81.699997" xlink:href="#t"/>
  <use x="378.828" y="81.699997" xlink:href="#s"/>
 </g>
</svg>
