<svg width="370" height="290" version="1.1" viewBox="0 0 370 290" xmlns="http://www.w3.org/2000/svg" xmlns:xlink="http://www.w3.org/1999/xlink">
 <defs>
  <g id="ad">
   <path d="m3.1719 0 2-5.8281h-1.2031l-1.2656 4.3906-1.2969-4.3906h-1.2188l1.9688 5.8281z"/>
  </g>
  <g id="am">
   <path d="m3.0781-4.8281h1.7031v-1h-4.6719v1h1.7656v4.8281h1.2031z"/>
  </g>
  <g id="l">
   <path d="m4.1875-.14062c-.1875-.17188-.25-.3125-.25-.51562v-2.4062c0-.875-.59375-1.3281-1.7656-1.3281s-1.7812.5-1.8594 1.5h1.0938c.046875-.45312.23438-.59375.78125-.59375.4375 0 .65625.14062.65625.42188 0 .15625-.078125.26562-.20312.34375-.14062.078125-.14062.078125-.70312.17188l-.4375.078125c-.85938.14062-1.2812.57812-1.2812 1.3594 0 .76562.53125 1.2969 1.3125 1.2969.48438 0 .92188-.20312 1.3125-.625 0 .23438.03125.3125.125.4375h1.2188zm-1.3438-1.5938c0 .64062-.32812 1.0156-.89062 1.0156-.375 0-.60938-.20312-.60938-.51562 0-.34375.17188-.5.64062-.59375l.39062-.078125c.28125-.046875.34375-.0625.46875-.14062z"/>
  </g>
  <g id="z">
   <path d="m3.2031-4.3125v.65625c-.3125-.5-.65625-.73438-1.1094-.73438-.39062 0-.8125.1875-1.1094.5-.4375.45312-.65625 1.0781-.65625 1.8281 0 1.3281.70312 2.25 1.7344 2.25.46875 0 .75-.15625 1.1406-.625v.57812c0 .51562-.375.89062-.90625.89062-.39062 0-.64062-.1875-.73438-.51562h-1.1406c0 .34375.125.57812.42188.8125.34375.28125.8125.42188 1.4219.42188 1.25 0 2-.60938 2-1.6094v-4.4531zm-.90625.85938c.53125 0 .92188.57812.92188 1.375s-.375 1.3281-.9375 1.3281c-.48438 0-.82812-.53125-.82812-1.3281 0-.8125.34375-1.375.84375-1.375z"/>
  </g>
  <g id="q">
   <path d="m1.6562-5.8281h-1.125v5.8281h1.125z"/>
  </g>
  <g id="i">
   <path d="m4.3281 0v-4.3125h-1.125v2.7031c0 .5-.34375.84375-.90625.84375-.46875 0-.71875-.26562-.71875-.78125v-2.7656h-1.1094v3c0 .95312.51562 1.5 1.4375 1.5.59375 0 .98438-.21875 1.2969-.70312v.51562z"/>
  </g>
  <g id="p">
   <path d="m4.1875-1.8125c.015625-.09375.015625-.125.015625-.1875 0-.4375-.0625-.82812-.17188-1.1406-.28125-.78125-.98438-1.25-1.8594-1.25-1.2344 0-2 .89062-2 2.3438 0 1.3906.75 2.2344 1.9844 2.2344.96875 0 1.75-.54688 2-1.4062h-1.1094c-.14062.34375-.45312.54688-.85938.54688-.3125 0-.57812-.14062-.73438-.375-.09375-.15625-.14062-.35938-.15625-.76562zm-2.875-.73438c.078125-.67188.34375-.98438.84375-.98438.51562 0 .8125.34375.875.98438z"/>
  </g>
  <g id="o">
   <path d="m1.6562-4.3125h-1.125v4.3125h1.125zm0-1.5156h-1.125v1h1.125z"/>
  </g>
  <g id="y">
   <path d="m.5-4.3125v4.3125h1.125v-2.5938c0-.51562.34375-.84375.90625-.84375.48438 0 .71875.26562.71875.78125v2.6562h1.125v-2.8906c0-.96875-.53125-1.5-1.4531-1.5-.57812 0-.98438.20312-1.2969.6875v-.60938z"/>
  </g>
  <g id="ar">
   <path d="m4.1719-2.7031c-.078125-1.0625-.76562-1.6875-1.8594-1.6875-1.2969 0-2.0469.84375-2.0469 2.3125 0 1.4375.75 2.2656 2.0312 2.2656 1.0469 0 1.7812-.65625 1.875-1.6875h-1.0625c-.14062.5625-.35938.78125-.8125.78125-.5625 0-.90625-.5-.90625-1.3594 0-.40625.078125-.78125.21875-1.0469.125-.23438.375-.35938.6875-.35938.46875 0 .67188.21875.8125.78125z"/>
  </g>
  <g id="s">
   <path d="m2.4062-4.3906c-1.3125 0-2.125.875-2.125 2.2812 0 1.4219.8125 2.2969 2.1406 2.2969 1.3125 0 2.125-.875 2.125-2.2656 0-1.4531-.78125-2.3125-2.1406-2.3125zm.015625.90625c.60938 0 1.0156.54688 1.0156 1.3906 0 .8125-.42188 1.375-1.0156 1.375-.60938 0-1.0156-.54688-1.0156-1.3906 0-.82812.40625-1.375 1.0156-1.375z"/>
  </g>
  <g id="aq">
   <path d="m.48438-4.3125v4.3125h1.1094v-2.5938c0-.53125.29688-.84375.78125-.84375.375 0 .59375.21875.59375.5625v2.875h1.125v-2.5938c0-.53125.29688-.84375.76562-.84375.375 0 .60938.21875.60938.5625v2.875h1.125v-3.0625c0-.82812-.51562-1.3281-1.375-1.3281-.5625 0-.9375.1875-1.2656.64062-.20312-.40625-.64062-.64062-1.1719-.64062-.5 0-.82812.15625-1.1875.60938v-.53125z"/>
  </g>
  <g id="r">
   <path d="m3.2344 0h1.125v-5.8281h-1.125v2.0625c-.28125-.42188-.64062-.625-1.1875-.625-1.0312 0-1.8125.98438-1.8125 2.2969 0 .57812.17188 1.1719.46875 1.5938.28125.42188.8125.6875 1.3438.6875.54688 0 .90625-.20312 1.1875-.625zm-.9375-3.4531c.5625 0 .9375.54688.9375 1.375 0 .78125-.375 1.3281-.9375 1.3281s-.9375-.54688-.9375-1.3438c0-.8125.375-1.3594.9375-1.3594z"/>
  </g>
  <g id="ap">
   <path d="m.5-4.3125v4.3125h1.125v-2.2969c0-.65625.32812-.98438.98438-.98438.125 0 .20312.015625.34375.03125v-1.1406h-.125c-.51562 0-.95312.32812-1.2031.92188v-.84375z"/>
  </g>
  <g id="ac">
   <path d="m4.0469-2.9219c-.015625-.92188-.73438-1.4688-1.8906-1.4688-1.0938 0-1.7656.54688-1.7656 1.4375 0 .29688.078125.53125.23438.70312.15625.15625.28125.21875.70312.35938l1.3281.42188c.28125.078125.39062.17188.39062.34375 0 .26562-.3125.42188-.84375.42188-.29688 0-.51562-.046875-.65625-.14062-.125-.09375-.17188-.1875-.21875-.40625h-1.0938c.03125.95312.71875 1.4375 2.0312 1.4375.60938 0 1.0625-.125 1.375-.39062.32812-.25.51562-.65625.51562-1.0781 0-.5625-.28125-.92188-.84375-1.0938l-1.4219-.40625c-.3125-.09375-.39062-.15625-.39062-.32812 0-.25.26562-.40625.65625-.40625.53125 0 .79688.20312.79688.59375z"/>
  </g>
  <g id="ao">
   <path d="m4.2656-3.2812h-3.8594v.9375h3.8594zm0 1.9062h-3.8594v.95312h3.8594z"/>
  </g>
  <g id="an">
   <path d="m2.9531-1.6094c0-.53125.0625-.60938.53125-.95312.75-.53125.96875-.875.96875-1.5469 0-1.0938-.82812-1.8438-2-1.8438-.6875 0-1.2188.23438-1.5625.71875-.26562.34375-.375.73438-.375 1.3906h1.0781c0-.71875.34375-1.1719.89062-1.1719.46875 0 .82812.40625.82812.92188 0 .35938-.09375.51562-.54688.90625-.64062.54688-.82812.90625-.8125 1.5781zm.125.4375h-1.2031v1.1719h1.2031z"/>
  </g>
  <g id="ab">
   <path d="m2.7969 0 1.4844-4.3125h-1.1719l-.875 3.1562-.9375-3.1562h-1.1875l1.5156 4.3125z"/>
  </g>
  <g id="n">
   <path d="m2.4062-4.2344h-.625v-1.1562h-1.125v1.1562h-.54688v.75h.54688v2.6562c0 .67188.375 1.0156 1.1094 1.0156.25 0 .4375-.03125.64062-.09375v-.78125c-.10938.015625-.17188.03125-.25.03125-.29688 0-.375-.09375-.375-.48438v-2.3438h.625z"/>
  </g>
  <g id="aa">
   <path d="m1.5781-4.3125h-1.1094v6.0625h1.1094v-2.2656c.28125.48438.65625.70312 1.2031.70312 1.0469 0 1.8125-.96875 1.8125-2.2812 0-.60938-.17188-1.2188-.46875-1.625-.28125-.40625-.82812-.67188-1.3438-.67188-.54688 0-.92188.23438-1.2031.70312zm.95312.85938c.5625 0 .9375.54688.9375 1.375 0 .79688-.375 1.3281-.9375 1.3281-.57812 0-.95312-.53125-.95312-1.3438s.375-1.3594.95312-1.3594z"/>
  </g>
  <g id="al">
   <path d="m1.6875-3.75v-1h-.64062c-.015625-.40625.1875-.64062.64062-.71875v-.35938c-.71875.046875-1.125.51562-1.0938 1.2031v.875zm1.8125 0v-1h-.64062c-.015625-.40625.1875-.64062.64062-.71875v-.35938c-.70312.046875-1.1094.51562-1.0781 1.2031v.875z"/>
  </g>
  <g id="ak">
   <path d="m.57812-5.8281v1h.64062c.015625.39062-.1875.625-.64062.70312v.375c.70312-.0625 1.125-.51562 1.0781-1.2031v-.875zm1.8594 0v1h.64062c.015625.39062-.1875.625-.64062.70312v.375c.70312-.0625 1.1094-.51562 1.0781-1.2031v-.875z"/>
  </g>
  <g id="m">
   <path d="m1.7812-.90625c-.20312.26562-.25.32812-.32812.40625-.14062.125-.26562.21875-.32812.21875s-.14062-.0625-.14062-.125c0-.078125.03125-.20312.09375-.35938l.03125-.14062.015625-.015625v-.015625l.70312-2.5781-.03125-.015625c-.8125.15625-.96875.17188-1.2812.20312v.125c.4375.015625.51562.03125.51562.1875 0 .078125-.03125.20312-.078125.35938l-.39062 1.4219c-.125.46875-.17188.70312-.17188.85938 0 .29688.125.46875.375.46875.375 0 .65625-.25 1.1094-.92188zm-.0625-4.3281c-.21875 0-.375.17188-.375.42188 0 .26562.14062.42188.375.42188.20312 0 .39062-.17188.39062-.40625s-.1875-.4375-.39062-.4375z"/>
  </g>
  <g id="h">
   <path d="m3.6875-.9375c-.4375.54688-.53125.64062-.65625.64062-.078125 0-.14062-.0625-.14062-.14062 0-.0625.03125-.20312.125-.5l.45312-1.6406c.03125-.17188.0625-.34375.0625-.46875 0-.29688-.21875-.48438-.51562-.48438-.51562 0-1.0312.48438-1.8438 1.7656l.53125-1.75-.015625-.015625c-.4375.09375-.60938.125-1.2969.25v.125c.40625.015625.5.0625.5.21875 0 .046875 0 .09375-.015625.14062l-.76562 2.7969h.60938c.375-1.2656.4375-1.4375.79688-1.9844.46875-.73438.89062-1.1406 1.1875-1.1406.10938 0 .1875.09375.1875.23438 0 .09375-.046875.35938-.10938.60938l-.35938 1.3281c-.10938.40625-.125.51562-.125.59375 0 .29688.10938.4375.375.4375.35938 0 .5625-.17188 1.125-.90625z"/>
  </g>
  <g id="f">
   <path d="m3.7031-.89062c-.4375.5-.51562.57812-.65625.57812-.078125 0-.14062-.078125-.14062-.17188 0-.125.25-1.0625.51562-1.9688.1875-.64062.34375-1.2188.79688-2.9688l-.046875-.046875c-.40625.09375-.70312.14062-1.2188.1875v.14062c.4375.015625.5.03125.5.20312 0 .10938-.015625.14062-.125.5625l-.35938 1.3125c-.0625-.34375-.20312-.46875-.51562-.46875-1.0312 0-2.3281 1.5-2.3281 2.7031 0 .57812.3125.92188.82812.92188.54688 0 .90625-.26562 1.4531-1.0625-.09375.40625-.10938.53125-.10938.71875 0 .20312.14062.35938.32812.35938.34375 0 .76562-.32812 1.1719-.92188zm-1.2188-2.4531c.25.015625.35938.17188.35938.45312 0 1.2188-.82812 2.5938-1.5625 2.5938-.28125 0-.46875-.20312-.46875-.53125 0-.65625.40625-1.5938.9375-2.1406.21875-.23438.51562-.39062.73438-.375z"/>
  </g>
  <g id="b">
   <path d="m2.8594-.875c-.57812.46875-.8125.60938-1.1719.60938-.45312 0-.75-.29688-.75-.73438 0-.125.015625-.23438.09375-.48438l.21875-.03125c1.2031-.17188 2.0469-.78125 2.0469-1.4688 0-.32812-.23438-.54688-.64062-.54688-1.1562 0-2.4062 1.3125-2.4062 2.5156 0 .65625.4375 1.1094 1.0469 1.1094.57812 0 1.1875-.32812 1.6562-.875zm-1.6406-1.1406c.26562-.71875.85938-1.3281 1.2656-1.3281.17188 0 .28125.125.28125.3125 0 .25-.15625.53125-.39062.78125-.29688.28125-.60938.42188-1.2969.59375z"/>
  </g>
  <g id="ae">
   <path d="m3.2188-.89062c-.0625.078125-.10938.125-.17188.21875-.1875.23438-.28125.3125-.39062.3125s-.17188-.09375-.23438-.32812c-.015625-.078125-.015625-.09375-.03125-.125-.20312-.8125-.28125-1.1719-.28125-1.2969.35938-.625.64062-.96875.78125-.96875.046875 0 .125.015625.1875.0625.09375.0625.15625.078125.21875.078125.17188 0 .28125-.125.28125-.29688s-.14062-.29688-.32812-.29688c-.35938 0-.65625.29688-1.2031 1.1406l-.09375-.4375c-.10938-.54688-.20312-.70312-.42188-.70312-.17188 0-.4375.0625-.9375.23438-.046875.015625-.046875.015625-.078125.03125l.03125.125c.3125-.078125.35938-.09375.4375-.09375.20312 0 .25.078125.375.54688l.21875.98438-.65625.9375c-.15625.25-.3125.39062-.40625.39062-.046875 0-.125-.03125-.20312-.078125-.10938-.046875-.1875-.078125-.25-.078125-.17188 0-.28125.125-.28125.28125 0 .20312.15625.34375.40625.34375s.34375-.078125.73438-.5625c.21875-.26562.39062-.5.71875-.9375l.25.95312c.09375.42188.20312.54688.46875.54688.29688 0 .5-.20312.96875-.92188z"/>
  </g>
  <g id="t">
   <path d="m.875-5.1406c.48438.015625.53125.03125.53125.21875 0 .0625-.015625.15625-.078125.34375l-.046875.14062-.015625.0625-1.0781 4v.03125c0 .1875.60938.4375 1.0625.4375 1.2031 0 2.5312-1.3906 2.5312-2.6562 0-.5625-.39062-.96875-.92188-.96875-.5625 0-.98438.32812-1.5469 1.2188.40625-1.5.46875-1.7344.82812-3.1094l-.03125-.046875c-.40625.078125-.64062.10938-1.2344.1875zm1.6719 2c.34375 0 .5625.26562.5625.6875 0 .53125-.40625 1.3906-.89062 1.8906-.29688.29688-.64062.46875-.98438.46875-.25 0-.35938-.09375-.35938-.28125 0-.46875.23438-1.2344.57812-1.8438s.70312-.92188 1.0938-.92188z"/>
  </g>
  <g id="d">
   <path d="m2.375-3.4219h-.64062l.21875-.82812v-.046875c0-.046875-.015625-.078125-.0625-.078125s-.0625.015625-.10938.078125c-.3125.40625-.8125.8125-1.0625.875-.20312.0625-.26562.125-.26562.20312 0 .015625 0 .03125.015625.046875h.59375l-.57812 2.2031c-.015625.078125-.03125.10938-.046875.17188-.078125.26562-.14062.51562-.14062.59375 0 .15625.17188.29688.39062.29688.35938 0 .625-.23438 1.125-.96875l-.09375-.0625c-.40625.5-.53125.64062-.65625.64062-.078125 0-.125-.0625-.125-.17188l.015625-.03125.70312-2.6719h.67188z"/>
  </g>
  <g id="a">
   <path d="m.28125-1.1719-.15625 1.2812h.125c.078125-.14062.10938-.17188.20312-.17188.078125 0 .23438.03125.39062.078125.1875.046875.29688.078125.4375.078125.67188 0 1.1562-.4375 1.1562-1.0469 0-.3125-.17188-.65625-.54688-1.125-.3125-.375-.4375-.625-.4375-.84375 0-.26562.17188-.42188.45312-.42188.40625 0 .65625.29688.73438.92188h.125l.15625-1.1094h-.10938c-.0625.10938-.10938.14062-.23438.14062-.0625 0-.14062-.015625-.29688-.0625-.1875-.0625-.3125-.078125-.4375-.078125-.59375 0-.96875.34375-.96875.89062 0 .25.17188.59375.5 1.0312.3125.40625.45312.6875.45312.90625 0 .375-.25.625-.59375.625-.45312 0-.6875-.32812-.8125-1.0938z"/>
  </g>
  <g id="j">
   <path d="m2.7969-.84375c-.4375.46875-.75.64062-1.1406.64062-.45312 0-.73438-.32812-.73438-.90625 0-.6875.28125-1.4062.73438-1.8594.23438-.25.54688-.39062.875-.39062.1875 0 .29688.0625.29688.15625 0 .046875-.015625.078125-.046875.15625-.0625.10938-.078125.15625-.078125.23438 0 .1875.125.29688.3125.29688.21875 0 .39062-.14062.39062-.35938 0-.375-.35938-.65625-.84375-.65625-1.2031 0-2.3281 1.1719-2.3281 2.4219 0 .75.4375 1.2031 1.1875 1.2031.59375 0 1.0156-.25 1.5-.85938z"/>
  </g>
  <g id="c">
   <path d="m2.5938-3.5312c-.34375 0-.65625.09375-.98438.26562-.8125.46875-1.3906 1.3906-1.3906 2.2344 0 .6875.4375 1.125 1.1719 1.125.53125 0 1.0469-.23438 1.5-.70312.53125-.51562.85938-1.1875.85938-1.7969 0-.67188-.46875-1.125-1.1562-1.125zm-.09375.17188c.34375 0 .57812.29688.57812.75 0 .59375-.26562 1.3906-.625 1.9062-.29688.42188-.59375.625-.9375.625-.375 0-.625-.29688-.625-.73438 0-.59375.23438-1.2969.625-1.8594.3125-.45312.64062-.6875.98438-.6875z"/>
  </g>
  <g id="k">
   <path d="m.96875 0c.42188-1.375.54688-1.7031.92188-2.3125.26562-.45312.48438-.70312.625-.70312.046875 0 .078125.046875.125.125.0625.125.125.17188.28125.17188.25 0 .375-.14062.375-.40625 0-.23438-.15625-.40625-.375-.40625-.1875 0-.40625.125-.60938.34375-.32812.34375-.65625.79688-.78125 1.125l-.10938.28125.42188-1.7344-.015625-.015625c-.59375.10938-.65625.125-1.25.21875v.14062c.1875-.03125.21875-.046875.28125-.046875.17188 0 .28125.078125.28125.23438 0 .10938 0 .10938-.125.64062l-.65625 2.3438z"/>
  </g>
  <g id="e">
   <path d="m1.8281-.98438c-.53125.67188-.59375.73438-.76562.73438-.078125 0-.125-.046875-.125-.15625 0-.0625.03125-.15625.078125-.3125 0-.03125.015625-.046875.015625-.0625v-.015625l1.2031-4.625-.046875-.046875c-.46875.10938-.78125.17188-1.25.21875v.125c.39062 0 .54688.046875.54688.1875 0 .03125 0 .078125-.015625.14062l-1.1094 4.2344c-.015625.078125-.03125.14062-.03125.20312 0 .29688.14062.45312.39062.45312.42188 0 .6875-.23438 1.2031-1z"/>
  </g>
  <g id="x">
   <path d="m.125-3.2031c.09375-.015625.15625-.03125.25-.03125.32812 0 .46875.125.64062.5625.20312.59375.625 2.2969.625 2.6094 0 .125-.0625.25-.17188.40625-.21875.29688-.40625.51562-.5.625-.17188.17188-.25.23438-.35938.23438-.0625 0-.10938-.015625-.1875-.078125-.125-.09375-.20312-.14062-.29688-.14062-.1875 0-.3125.14062-.3125.3125 0 .20312.15625.34375.40625.34375.51562 0 1.5469-1.1875 2.4219-2.7812.54688-.98438.76562-1.5625.76562-1.9531 0-.23438-.20312-.4375-.4375-.4375-.1875 0-.3125.125-.3125.29688 0 .125.0625.20312.21875.3125.15625.09375.21875.15625.21875.28125 0 .3125-.29688.92188-.98438 2.0625l-.15625-.92188c-.125-.71875-.5625-2.0312-.6875-2.0312h-.03125c-.015625.015625-.046875.015625-.078125.015625-.0625 0-.35938.046875-.78125.125-.03125.015625-.14062.03125-.25.046875z"/>
  </g>
  <g id="g">
   <path d="m3.7188-.875-.23438.21875c-.25.25-.34375.32812-.40625.32812s-.125-.046875-.125-.10938c0-.15625.34375-1.5312.71875-2.9062.03125-.078125.03125-.09375.046875-.15625l-.0625-.03125-.48438.0625-.015625.015625-.09375.39062c-.0625-.29688-.29688-.46875-.64062-.46875-1.0625 0-2.2812 1.4531-2.2812 2.7344 0 .5625.29688.89062.8125.89062.5625 0 .90625-.26562 1.6094-1.2656-.17188.65625-.1875.71875-.1875.92188 0 .23438.09375.32812.32812.32812.3125 0 .5-.15625 1.1094-.875zm-1.25-2.4844c.28125.015625.45312.21875.45312.5 0 .67188-.40625 1.6094-.95312 2.2031-.1875.21875-.46875.35938-.70312.35938-.28125 0-.45312-.23438-.45312-.59375 0-.45312.29688-1.2656.64062-1.7656.32812-.46875.6875-.71875 1.0156-.70312z"/>
  </g>
  <g id="w">
   <path d="m3.7812-3.2344h-.5c-.015625 0-.0625-.015625-.125-.0625-.21875-.15625-.46875-.23438-.78125-.23438-.89062 0-1.6094.625-1.6094 1.375 0 .40625.17188.65625.64062.85938-.48438.32812-.625.48438-.625.67188 0 .10938.0625.20312.21875.3125-.79688.51562-.9375.6875-.9375 1.0469 0 .54688.53125.90625 1.3438.90625 1 0 1.6719-.46875 1.6719-1.1562 0-.51562-.375-.85938-1.1406-1.0625-.35938-.078125-.5625-.21875-.5625-.32812 0-.125.1875-.32812.28125-.32812h.0625c.078125.015625.15625.03125.25.03125.73438 0 1.4844-.65625 1.4844-1.2812 0-.125-.03125-.26562-.078125-.4375h.40625zm-2.5938 3.0156s.015625 0 .03125.015625c.03125 0 .10938.03125.23438.0625.85938.28125 1.1406.5 1.1406.85938 0 .4375-.45312.75-1.0781.75-.64062 0-1.0156-.29688-1.0156-.8125 0-.1875.046875-.32812.1875-.48438.10938-.14062.4375-.39062.5-.39062zm1.1875-3.1406c.28125 0 .4375.20312.4375.57812 0 .28125-.09375.625-.25.90625-.17188.32812-.42188.5-.6875.5-.3125 0-.48438-.21875-.48438-.59375 0-.75.45312-1.3906.98438-1.3906z"/>
  </g>
  <g id="aj">
   <path d="m.28125-3.1719h.71875l-.70312 3.3594c-.17188.85938-.4375 1.2969-.78125 1.2969-.09375 0-.15625-.046875-.15625-.125 0-.03125.015625-.046875.03125-.09375.03125-.046875.046875-.078125.046875-.125 0-.17188-.15625-.29688-.3125-.29688-.17188 0-.29688.14062-.29688.32812 0 .28125.26562.48438.625.48438.71875 0 1.2656-.78125 1.6094-2.2656l.5625-2.5625h.875l.046875-.25h-.85938c.23438-1.2656.53125-1.8281.96875-1.8281.125 0 .1875.046875.1875.10938 0 .015625-.015625.03125-.03125.0625-.046875.0625-.046875.10938-.046875.17188 0 .1875.10938.32812.29688.32812.17188 0 .32812-.15625.32812-.32812 0-.29688-.29688-.51562-.6875-.51562s-.70312.17188-.98438.54688c-.25.3125-.40625.6875-.64062 1.4531h-.73438z"/>
  </g>
  <g id="v">
   <path d="m5.5156-.9375c-.03125.046875-.078125.078125-.10938.125-.14062.17188-.20312.25-.21875.26562-.17188.1875-.25.25-.35938.25-.0625 0-.09375-.046875-.09375-.14062 0-.03125.03125-.15625.078125-.35938l.54688-2c0-.046875.015625-.17188.015625-.23438 0-.28125-.20312-.5-.46875-.5-.15625 0-.3125.0625-.5.17188-.39062.26562-.71875.64062-1.2812 1.5312.21875-.625.32812-1.0625.32812-1.2188 0-.29688-.1875-.48438-.46875-.48438-.48438 0-1.0469.53125-1.7812 1.6875l.46875-1.6719-.03125-.015625c-.42188.09375-.59375.125-1.2656.25v.125c.35938.015625.35938.015625.4375.046875.03125.015625.0625.078125.0625.14062 0 .09375-.1875.82812-.46875 1.8281-.17188.60938-.20312.73438-.3125 1.1406h.60938c.375-1.2656.5-1.5625.76562-1.9844.45312-.6875.9375-1.125 1.2031-1.125.10938 0 .15625.0625.15625.20312 0 .09375-.23438 1.0469-.5625 2.1719-.0625.23438-.09375.34375-.1875.73438h.59375c.3125-1.25.48438-1.6562.89062-2.2188.39062-.54688.79688-.89062 1.0156-.89062.09375 0 .17188.0625.17188.17188 0 .03125-.015625.10938-.0625.28125l-.46875 1.8281c-.078125.3125-.09375.45312-.09375.53125 0 .23438.10938.375.3125.375.375 0 .73438-.26562 1.1562-.85938l.03125-.0625z"/>
  </g>
  <g id="u">
   <path d="m.45312-3.2188.17188-.015625c.1875 0 .34375.09375.34375.21875 0 .10938-.28125 1.2188-.5625 2.2656-.1875.6875-.34375 1.2812-.46875 1.7969-.078125.35938-.1875.45312-.53125.46875v.125h1.6406v-.125c-.39062 0-.51562-.0625-.51562-.23438 0-.10938.125-.71875.29688-1.3281.20312.10938.34375.14062.53125.14062 1.1562 0 2.3906-1.3438 2.3906-2.625 0-.625-.34375-1-.92188-1-.51562 0-.90625.26562-1.3594.92188l.23438-.8125c0-.046875.015625-.0625.015625-.0625 0-.03125-.015625-.046875-.046875-.046875h-.015625l-1.2188.17188zm2.0781.03125c.34375.015625.5.23438.5.6875 0 .54688-.23438 1.2188-.57812 1.7188-.32812.48438-.71875.71875-1.1406.71875-.21875 0-.375-.125-.375-.29688 0-.26562.28125-1.3125.51562-1.9062.21875-.54688.6875-.9375 1.0781-.92188z"/>
  </g>
  <g id="ai">
   <path d="m3.7188-.9375c-.4375.53125-.53125.64062-.65625.64062-.078125 0-.125-.078125-.125-.15625s.125-.57812.26562-1c.23438-.73438.375-1.3438.375-1.5312 0-.32812-.20312-.54688-.51562-.54688-.53125 0-1.0938.51562-1.8438 1.6875l.96875-3.5781-.046875-.046875c-.48438.10938-.78125.17188-1.25.21875v.125h.20312c.1875-.015625.32812.078125.32812.20312 0 .10938-.03125.29688-.10938.53125-.015625.015625-.046875.125-.078125.29688l-1.0781 4.0938h.59375c.32812-1.2344.42188-1.5.75-1.9844.40625-.64062.95312-1.1406 1.2344-1.1406.125 0 .21875.09375.21875.20312 0 .03125-.015625.14062-.046875.26562l-.4375 1.6562c-.10938.39062-.17188.64062-.17188.73438 0 .20312.14062.34375.35938.34375.40625 0 .6875-.21875 1.1719-.92188z"/>
  </g>
  <g id="ah">
   <path d="m.17188-3.2188c.078125-.015625.14062-.015625.23438-.015625.3125 0 .39062.14062.5.875.09375.5625.1875 1.7344.1875 2.2188 0 .23438 0 .28125.0625.28125.20312 0 .9375-.8125 1.7656-1.9844.28125-.39062.48438-.90625.48438-1.2188 0-.25-.20312-.46875-.45312-.46875-.17188 0-.29688.10938-.29688.28125 0 .125.0625.21875.20312.34375.09375.09375.14062.15625.14062.25 0 .375-.51562 1.25-1.0938 1.8438l-.25.25c-.0625-1.125-.10938-1.5469-.20312-2.1406-.17188-.8125-.17188-.82812-.23438-.82812-.046875 0-.09375.015625-.15625.03125-.14062.03125-.625.125-.89062.17188z"/>
  </g>
  <g id="ag">
   <path d="m3.6875-.9375c-.42188.53125-.53125.64062-.65625.64062-.0625 0-.09375-.0625-.09375-.14062 0-.046875 0-.046875.15625-.625l.625-2.3906h-.59375c-.42188 1.1875-.51562 1.375-.875 1.9531-.48438.75-.875 1.1562-1.125 1.1562-.10938 0-.17188-.078125-.17188-.1875v-.078125l.73438-2.9062-.03125-.015625c-.45312.10938-.75.15625-1.1875.21875v.10938c.3125.015625.3125.015625.39062.046875.046875.015625.078125.09375.078125.14062 0 .078125-.03125.26562-.10938.54688l-.29688 1.125c-.14062.59375-.1875.84375-.1875.98438 0 .29688.14062.45312.42188.45312.5625 0 .98438-.4375 1.9062-1.9844-.23438.85938-.35938 1.4062-.35938 1.5781 0 .25.14062.39062.39062.39062.375 0 .54688-.15625 1.0938-.9375z"/>
  </g>
  <g id="af">
   <path d="m.125-3.2188.15625-.015625c.28125.015625.32812.03125.39062.1875.09375.26562.23438 1.3594.26562 2.1094l.03125.70312c.015625.3125.03125.375.10938.375s.21875-.20312.5-.75c.046875-.09375.20312-.35938.45312-.79688l.70312-1.2344.23438 2.5469c.015625.21875.03125.23438.09375.23438s.14062-.0625.35938-.34375c0 0 .03125-.046875.0625-.078125 1.0938-1.3125 1.7031-2.3125 1.7031-2.8281 0-.25-.17188-.42188-.42188-.42188-.20312 0-.3125.10938-.3125.28125 0 .09375.046875.17188.17188.28125.125.125.17188.20312.17188.3125 0 .34375-.26562.76562-1.3125 2.0625l-.26562-2.8125c0-.09375-.015625-.10938-.0625-.10938-.03125 0-.0625.015625-.09375.078125l-1.5469 2.4219c-.015625-.54688-.10938-1.3906-.20312-1.9375-.078125-.51562-.09375-.57812-.1875-.57812-.046875 0-.14062.03125-.25.0625 0 0-.28125.0625-.53125.09375-.046875 0-.125.015625-.21875.03125z"/>
  </g>
 </defs>
 <g fill="none" stroke="#000" stroke-linecap="round" stroke-miterlimit="10" stroke-width=".66667">
  <path d="m188.98 30.573v-10.801"/>
  <path d="m188.98 19.772h6.3984"/>
  <path d="m195.48 19.772v10.801"/>
  <path d="m195.48 30.573h-6.4024"/>
  <path d="m201.27 30.573v-10.801"/>
  <path d="m201.27 19.772h72.902"/>
  <path d="m274.18 19.772v10.801"/>
  <path d="m274.18 30.573h-72.902"/>
  <path d="m279.98 30.573v-10.801"/>
  <path d="m279.98 19.772h86.398"/>
  <path d="m366.37 19.772v10.801"/>
  <path d="m366.37 30.573h-86.398"/>
  <path d="m188.98 49.976v-10.801"/>
  <path d="m188.98 39.175h6.3984"/>
  <path d="m195.48 39.175v10.801"/>
  <path d="m195.48 49.976h-6.4024"/>
  <path d="m201.27 49.976v-10.801"/>
  <path d="m201.27 39.175h72.902"/>
  <path d="m274.18 39.175v10.801"/>
  <path d="m274.18 49.976h-72.902"/>
  <path d="m279.98 49.976v-10.801"/>
  <path d="m279.98 39.175h86.398"/>
  <path d="m366.37 39.175v10.801"/>
  <path d="m366.37 49.976h-86.398"/>
  <path d="m188.98 69.476v-10.801"/>
  <path d="m188.98 58.675h6.3984"/>
  <path d="m195.48 58.675v10.801"/>
  <path d="m195.48 69.476h-6.4024"/>
  <path d="m201.27 69.476v-10.801"/>
  <path d="m201.27 58.675h72.902"/>
  <path d="m274.18 58.675v10.801"/>
  <path d="m274.18 69.476h-72.902"/>
  <path d="m279.98 69.476v-10.801"/>
  <path d="m279.98 58.675h86.398"/>
  <path d="m366.37 58.675v10.801"/>
  <path d="m366.37 69.476h-86.398"/>
  <path d="m188.98 88.874v-10.801"/>
  <path d="m188.98 78.073h6.3984"/>
  <path d="m195.48 78.073v10.801"/>
  <path d="m195.48 88.874h-6.4024"/>
  <path d="m201.27 88.874v-10.801"/>
  <path d="m201.27 78.073h72.902"/>
  <path d="m274.18 78.073v10.801"/>
  <path d="m274.18 88.874h-72.902"/>
  <path d="m279.98 88.874v-10.801"/>
  <path d="m279.98 78.073h86.398"/>
  <path d="m366.37 78.073v10.801"/>
  <path d="m366.37 88.874h-86.398"/>
  <path d="m188.98 108.37v-10.801"/>
  <path d="m188.98 97.573h6.3984"/>
  <path d="m195.48 97.573v10.801"/>
  <path d="m195.48 108.37h-6.4024"/>
  <path d="m201.27 108.37v-10.801"/>
  <path d="m201.27 97.573h72.902"/>
  <path d="m274.18 97.573v10.801"/>
  <path d="m274.18 108.37h-72.902"/>
  <path d="m279.98 108.37v-10.801"/>
  <path d="m279.98 97.573h86.398"/>
  <path d="m366.37 97.573v10.801"/>
  <path d="m366.37 108.37h-86.398"/>
  <path d="m188.98 147.17v-10.801"/>
  <path d="m188.98 136.37h6.3984"/>
  <path d="m195.48 136.37v10.801"/>
  <path d="m195.48 147.17h-6.4024"/>
  <path d="m201.27 147.17v-10.801"/>
  <path d="m201.27 136.37h72.902"/>
  <path d="m274.18 136.37v10.801"/>
  <path d="m274.18 147.17h-72.902"/>
  <path d="m279.98 147.17v-10.801"/>
  <path d="m279.98 136.37h86.398"/>
  <path d="m366.37 136.37v10.801"/>
  <path d="m366.37 147.17h-86.398"/>
  <path d="m188.98 166.67v-10.801"/>
  <path d="m188.98 155.87h6.3984"/>
  <path d="m195.48 155.87v10.801"/>
  <path d="m195.48 166.67h-6.4024"/>
  <path d="m201.27 166.67v-10.801"/>
  <path d="m201.27 155.87h72.902"/>
  <path d="m274.18 155.87v10.801"/>
  <path d="m274.18 166.67h-72.902"/>
  <path d="m279.98 166.67v-10.801"/>
  <path d="m279.98 155.87h86.398"/>
  <path d="m366.37 155.87v10.801"/>
  <path d="m366.37 166.67h-86.398"/>
  <path d="m147.98 93.175v-68.402"/>
  <path d="m147.98 24.772 12.199-12.199"/>
  <path d="m160.18 12.573v161.2"/>
  <path d="m160.18 173.87-12.199-12.199"/>
  <path d="m147.98 161.57v-68.398"/>
 </g>
 <g>
  <g transform="translate(-101.63 -53.626)" fill="#fc0">
   <use x="291.20001" y="67.800003" fill="#ffcc00" xlink:href="#ad"/>
  </g>
  <g transform="translate(-101.63 -53.626)" fill="#ff00ff">
   <use x="332.29999" y="67.800003" xlink:href="#am"/>
   <use x="337.18799" y="67.800003" xlink:href="#l"/>
   <use x="341.63599" y="67.800003" xlink:href="#z"/>
  </g>
  <g transform="translate(-101.63 -53.626)" fill="#007fff">
   <use x="414.10001" y="67.800003" xlink:href="#ad"/>
   <use x="419.436" y="67.800003" xlink:href="#l"/>
   <use x="423.884" y="67.800003" xlink:href="#q"/>
   <use x="426.108" y="67.800003" xlink:href="#i"/>
   <use x="430.996" y="67.800003" xlink:href="#p"/>
  </g>
 </g>
 <g fill="none" stroke="#000" stroke-linecap="round" stroke-miterlimit="10">
  <g stroke-width=".91667">
   <path d="m6.3748 59.772v-10.797"/>
   <path d="m6.3748 48.976h86.398"/>
   <path d="m92.773 48.976v10.797"/>
   <path d="m92.773 59.772h-86.398"/>
  </g>
  <g stroke-width=".25">
   <path d="m79.273 59.772v-10.797"/>
   <path d="m79.273 48.976h8"/>
   <path d="m87.375 48.976v10.797"/>
   <path d="m87.375 59.772h-8"/>
  </g>
  <g stroke-width="1.1667">
   <path d="m83.273 59.772v28.402"/>
   <path d="m83.273 88.175c0 2.7617 2.2422 5 5 5"/>
   <path d="m88.375 93.175h59.602"/>
   <path d="m140.77 94.976 7.2031-1.8008"/>
   <path d="m140.68 94.476 7.3008-1.2031"/>
   <path d="m140.57 93.772 7.4024-.5"/>
   <path d="m140.57 93.175h7.4024"/>
   <path d="m140.57 92.675 7.4024.5"/>
   <path d="m140.68 91.976 7.3008 1.1992"/>
   <path d="m140.77 91.374 7.2031 1.8008"/>
   <path d="m49.574 16.573v32.402"/>
   <path d="m47.773 41.772 1.8008 7.2031"/>
   <path d="m48.273 41.573 1.2031 7.3008"/>
   <path d="m48.976 41.476.5 7.3984"/>
   <path d="m49.574 41.476v7.3984"/>
   <path d="m50.074 41.476-.5 7.3984"/>
   <path d="m50.773 41.573-1.1992 7.3008"/>
   <path d="m51.375 41.772-1.8008 7.2031"/>
  </g>
 </g>
 <g transform="translate(-101.63 -53.626)" fill="#00ff00">
  <use x="116.9" y="64.599998" xlink:href="#o"/>
  <use x="119.124" y="64.599998" xlink:href="#y"/>
  <use x="124.012" y="64.599998" xlink:href="#ar"/>
  <use x="128.46001" y="64.599998" xlink:href="#s"/>
  <use x="133.34801" y="64.599998" xlink:href="#aq"/>
  <use x="140.46001" y="64.599998" xlink:href="#o"/>
  <use x="142.68401" y="64.599998" xlink:href="#y"/>
  <use x="147.57201" y="64.599998" xlink:href="#z"/>
  <use x="154.7" y="64.599998" xlink:href="#l"/>
  <use x="159.14799" y="64.599998" xlink:href="#r"/>
  <use x="164.036" y="64.599998" xlink:href="#r"/>
  <use x="168.924" y="64.599998" xlink:href="#ap"/>
  <use x="172.036" y="64.599998" xlink:href="#p"/>
  <use x="176.48399" y="64.599998" xlink:href="#ac"/>
  <use x="180.93201" y="64.599998" xlink:href="#ac"/>
 </g>
 <g fill="none" stroke-linecap="round" stroke-miterlimit="10">
  <g stroke="#a7a7a7" stroke-width="1.1667">
   <path d="m187.87 25.175h-26.602"/>
   <path d="m187.87 44.573h-26.602"/>
   <path d="m187.87 64.073h-26.602"/>
   <path d="m187.87 83.476h-26.602"/>
   <path d="m187.87 102.98h-26.602"/>
   <path d="m187.87 141.77h-26.602"/>
   <path d="m187.87 161.27h-26.602"/>
   <path d="m196.57 25.175h3.6016"/>
   <path d="m196.57 44.573h3.6016"/>
   <path d="m196.57 64.073h3.6016"/>
   <path d="m196.57 83.476h3.6016"/>
   <path d="m196.57 102.98h3.6016"/>
   <path d="m196.57 141.77h3.6016"/>
   <path d="m196.57 161.27h3.6016"/>
   <path d="m275.27 25.175h3.6016"/>
   <path d="m275.27 44.573h3.6016"/>
   <path d="m275.27 64.073h3.6016"/>
   <path d="m275.27 83.476h3.6016"/>
   <path d="m275.27 102.98h3.6016"/>
   <path d="m275.27 141.77h3.6016"/>
   <path d="m275.27 161.27h3.6016"/>
   <path d="m192.27 31.675v6.3984"/>
   <path d="m192.27 51.073v6.4023"/>
   <path d="m192.27 70.573v6.4023"/>
   <path d="m192.27 89.976v6.3984"/>
   <path d="m192.27 109.37v6.3984"/>
  </g>
  <path d="m192.27 127.77v8.6016" stroke="#000" stroke-width="1.1667"/>
  <path d="m192.27 147.17v8.5977" stroke="#000" stroke-width="1.1667"/>
  <g stroke="#a7a7a7" stroke-width="1.1667">
   <path d="m237.77 31.675v6.3984"/>
   <path d="m237.77 51.073v6.4023"/>
   <path d="m237.77 70.573v6.4023"/>
   <path d="m237.77 89.976v6.3984"/>
   <path d="m237.77 109.37v6.3984"/>
  </g>
  <path d="m237.77 127.77v8.6016" stroke="#000" stroke-width="1.5"/>
  <path d="m237.77 147.17v8.5977" stroke="#000" stroke-width="1.5"/>
  <g stroke="#a7a7a7" stroke-width="1.1667">
   <path d="m323.18 31.675v6.3984"/>
   <path d="m323.18 51.073v6.4023"/>
   <path d="m323.18 70.573v6.4023"/>
   <path d="m323.18 89.976v6.3984"/>
   <path d="m323.18 109.37v6.3984"/>
  </g>
  <g stroke="#000">
   <path d="m323.18 127.77v8.6016" stroke-width="1.5"/>
   <path d="m323.18 147.17v8.5977" stroke-width="1.5"/>
   <g stroke-width="1.1667">
    <path d="m160.18 122.37h28.801"/>
    <path d="m181.77 124.17 7.2031-1.8008"/>
    <path d="m181.68 123.57 7.3008-1.1992"/>
    <path d="m181.68 122.98 7.3984-.5"/>
    <path d="m181.57 122.37h7.4024"/>
    <path d="m181.68 121.77 7.3984.5"/>
    <path d="m181.68 121.17 7.3008 1.1992"/>
    <path d="m181.77 120.57 7.2031 1.8008"/>
   </g>
  </g>
 </g>
 <g fill="#0ff" stroke="#a7a7a7" stroke-miterlimit="0">
  <rect x="201.23" y="116.92" width="73.017" height="10.908" ry="1.0617" stroke-width=".15608"/>
  <rect x="279.68" y="116.84" width="86.682" height="10.894" ry="1.0603" stroke-width=".16995"/>
  <rect x="188.92" y="116.96" width="6.6174" height="10.798" ry="1.0511" stroke-width=".26364"/>
 </g>
 <g fill="#d45500" stroke="#000" stroke-linecap="round" stroke-miterlimit="10" stroke-width=".66667">
  <path d="m188.98 127.77v-10.797"/>
  <path d="m188.98 116.98h6.3984"/>
  <path d="m195.48 116.98v10.797"/>
  <path d="m195.48 127.77h-6.4024"/>
 </g>
 <g fill="none" stroke="#000" stroke-linecap="round" stroke-miterlimit="10">
  <g stroke-width=".66667">
   <path d="m201.27 127.77v-10.797"/>
   <path d="m201.27 116.98h72.902"/>
   <path d="m274.18 116.98v10.797"/>
   <path d="m274.18 127.77h-72.902"/>
   <path d="m279.98 127.77v-10.797"/>
   <path d="m279.98 116.98h86.398"/>
   <path d="m366.37 116.98v10.797"/>
   <path d="m366.37 127.77h-86.398"/>
  </g>
  <g stroke-width="1.1667">
   <path d="m237.77 167.77v25.5"/>
   <path d="m235.98 186.07 1.7969 7.1992"/>
   <path d="m236.48 185.98 1.1992 7.2969"/>
   <path d="m237.07 185.87.5 7.3984"/>
   <path d="m237.77 185.87v7.3984"/>
   <path d="m238.27 185.87-.5 7.3984"/>
   <path d="m238.98 185.98-1.2031 7.2969"/>
   <path d="m239.57 186.07-1.8008 7.1992"/>
  </g>
  <path d="m246.27 201.98c0-4.75-3.8476-8.6016-8.5976-8.6016s-8.6016 3.8516-8.6016 8.6016 3.8516 8.5977 8.6016 8.5977 8.5976-3.8477 8.5976-8.5977" stroke-width=".66667"/>
 </g>
 <g transform="translate(-101.63 -53.626)" fill="#ff6600">
  <use x="333.60001" y="257.89999" xlink:href="#ao"/>
  <use x="340.39999" y="257.89999" xlink:href="#an"/>
 </g>
 <g fill="none" stroke="#000" stroke-linecap="round" stroke-miterlimit="10">
  <g stroke-width="1.1667">
   <path d="m42.773 59.772v137.1"/>
   <path d="m42.773 196.87c0 2.7617 2.2422 5 5 5"/>
   <path d="m47.773 201.98h181.2"/>
   <path d="m221.87 203.77 7.1992-1.7969"/>
   <path d="m221.77 203.17 7.3008-1.1992"/>
   <path d="m221.68 202.48 7.3984-.5"/>
   <path d="m221.68 201.98h7.3984"/>
   <path d="m221.68 201.37 7.3984.5"/>
   <path d="m221.77 200.67 7.3008 1.1992"/>
   <path d="m221.87 200.17 7.1992 1.8008"/>
  </g>
  <g stroke-width=".66667">
   <path d="m203.77 229.98v12.898"/>
   <path d="m195.07 251.57c4.75 0 8.6016-3.8477 8.6016-8.5977"/>
   <path d="m186.48 242.98c0 4.75 3.8476 8.5977 8.5976 8.5977"/>
   <path d="m186.48 242.98v-12.902"/>
   <path d="m186.57 229.98h17.199"/>
   <path d="m195.07 251.57v21.602"/>
   <path d="m193.27 265.98 1.8008 7.1992"/>
   <path d="m193.98 265.87 1.1992 7.3008"/>
   <path d="m194.57 265.77.5 7.4023"/>
   <path d="m195.07 265.77v7.4023"/>
   <path d="m195.77 265.77-.5 7.4023"/>
   <path d="m196.37 265.87-1.1992 7.3008"/>
   <path d="m196.87 265.98-1.8008 7.1992"/>
  </g>
  <g stroke-width="1.1667">
   <path d="m323.18 166.67v106.5"/>
   <path d="m321.37 265.98 1.8008 7.1992"/>
   <path d="m321.87 265.87 1.1992 7.3008"/>
   <path d="m322.57 265.77.5 7.4023"/>
   <path d="m323.18 265.77v7.4023"/>
   <path d="m323.68 265.77-.5 7.4023"/>
   <path d="m324.37 265.87-1.1992 7.3008"/>
   <path d="m324.98 265.98-1.8008 7.1992"/>
  </g>
 </g>
 <g transform="translate(-101.63 -53.626)" fill="#ff6600">
  <use x="401" y="338.5" xlink:href="#ab"/>
  <use x="405.448" y="338.5" xlink:href="#l"/>
  <use x="409.896" y="338.5" xlink:href="#q"/>
  <use x="412.12" y="338.5" xlink:href="#i"/>
  <use x="417.008" y="338.5" xlink:href="#p"/>
  <use x="423.79999" y="338.5" xlink:href="#s"/>
  <use x="428.68799" y="338.5" xlink:href="#i"/>
  <use x="433.57599" y="338.5" xlink:href="#n"/>
  <use x="436.23999" y="338.5" xlink:href="#aa"/>
  <use x="441.12799" y="338.5" xlink:href="#i"/>
  <use x="446.01599" y="338.5" xlink:href="#n"/>
  <use x="269.70001" y="338.5" xlink:href="#al"/>
  <use x="273.70001" y="338.5" xlink:href="#ab"/>
  <use x="278.14801" y="338.5" xlink:href="#l"/>
  <use x="282.59601" y="338.5" xlink:href="#q"/>
  <use x="284.82001" y="338.5" xlink:href="#o"/>
  <use x="287.04401" y="338.5" xlink:href="#r"/>
  <use x="291.93201" y="338.5" xlink:href="#ak"/>
  <use x="298.19998" y="338.5" xlink:href="#s"/>
  <use x="303.08798" y="338.5" xlink:href="#i"/>
  <use x="307.97598" y="338.5" xlink:href="#n"/>
  <use x="310.63998" y="338.5" xlink:href="#aa"/>
  <use x="315.52798" y="338.5" xlink:href="#i"/>
  <use x="320.41599" y="338.5" xlink:href="#n"/>
 </g>
 <g fill="none" stroke="#000" stroke-linecap="round" stroke-miterlimit="10">
  <g stroke-width=".75">
   <path d="m192.27 166.67v31.598"/>
   <path d="m192.27 205.57v24.402"/>
   <path d="m190.48 222.77 1.7969 7.2031"/>
   <path d="m191.07 222.67 1.1992 7.3008"/>
   <path d="m191.68 222.57.5 7.4023"/>
   <path d="m192.27 222.57v7.4023"/>
   <path d="m192.87 222.57-.5 7.4023"/>
   <path d="m193.48 222.67-1.2031 7.3008"/>
   <path d="m194.07 222.77-1.8008 7.2031"/>
   <path d="m237.77 210.57v4.6016"/>
   <path d="m232.68 220.27c2.7617 0 5-2.2383 5-5"/>
   <path d="m232.68 220.27h-29.5"/>
   <path d="m203.07 220.27c-2.7617 0-5 2.2422-5 5"/>
   <path d="m197.98 225.37v4.6016"/>
   <path d="m196.18 222.77 1.8008 7.2031"/>
   <path d="m196.87 222.67 1.1992 7.3008"/>
   <path d="m197.37 222.57.5 7.4023"/>
   <path d="m197.98 222.57v7.4023"/>
   <path d="m198.68 222.57-.5 7.4023"/>
   <path d="m199.18 222.67-1.1992 7.3008"/>
   <path d="m199.77 222.77-1.7969 7.2031"/>
  </g>
  <g>
   <path d="m83.273 30.976v15.098"/>
   <path d="m81.476 38.874 1.7969 7.1992"/>
   <path d="m82.074 38.675 1.1992 7.3008"/>
   <path d="m82.676 38.675.5 7.3984"/>
   <path d="m83.273 38.675v7.3984"/>
   <path d="m83.875 38.675-.5 7.3984"/>
   <path d="m84.476 38.675-1.2031 7.3008"/>
   <path d="m85.074 38.874-1.8008 7.1992"/>
   <path d="m137.18 115.87 7.1992-1.8008"/>
   <path d="m137.07 115.27 7.3008-1.1992"/>
   <path d="m136.98 114.67 7.3984-.5"/>
   <path d="m136.98 114.07h7.3984"/>
   <path d="m136.98 113.48 7.3984.5"/>
   <path d="m137.07 112.87 7.3008 1.1992"/>
   <path d="m137.18 112.27 7.1992 1.8008"/>
   <path d="m144.37 114.07h-19.398"/>
   <path d="m53.574 156.67-7.1992 1.8008"/>
   <path d="m53.676 157.27-7.3008 1.2031"/>
   <path d="m53.773 157.87-7.3984.5"/>
   <path d="m53.773 158.48h-7.3984"/>
   <path d="m53.773 159.07-7.3984-.5"/>
   <path d="m53.676 159.67-7.3008-1.1992"/>
   <path d="m53.574 160.27-7.1992-1.7969"/>
   <path d="m46.375 158.48h21.602"/>
   <path d="m262.98 189.67-14.102 6.8984"/>
   <path d="m254.48 191.87-5.6016 4.6992"/>
   <path d="m254.77 192.27-6 4.3008"/>
   <path d="m255.07 192.77-6.3984 3.7031"/>
   <path d="m255.37 193.37-6.6016 3.1992"/>
   <path d="m255.68 193.87-6.9024 2.6016"/>
   <path d="m255.77 194.48-7.0976 2"/>
   <path d="m255.98 195.07-7.2031 1.5"/>
   <path d="m228.98 240.77h-21.602"/>
   <path d="m214.57 238.98-7.1992 1.7969"/>
   <path d="m214.68 239.57-7.3008 1.1992"/>
   <path d="m214.77 240.27-7.3984.5"/>
   <path d="m214.87 240.77h-7.3984"/>
   <path d="m214.77 241.37-7.3984-.5"/>
   <path d="m214.68 242.07-7.3008-1.1992"/>
   <path d="m214.57 242.57-7.1992-1.8008"/>
   <path d="m181.48 189.37 7.1992-1.8008"/>
   <path d="m181.37 188.77 7.3008-1.1992"/>
   <path d="m181.27 188.17 7.4024-.5"/>
   <path d="m181.18 187.57h7.3984"/>
   <path d="m181.27 186.98 7.4024.5"/>
   <path d="m181.37 186.37 7.3008 1.1992"/>
   <path d="m181.48 185.77 7.1992 1.8008"/>
   <path d="m188.68 187.57h-21.602"/>
  </g>
 </g>
 <g transform="translate(-101.63 -53.626)">
  <use x="169.39999" y="81.800003" xlink:href="#m"/>
  <use x="171.62399" y="81.800003" xlink:href="#h"/>
  <use x="175.62399" y="81.800003" xlink:href="#f"/>
  <use x="179.62399" y="81.800003" xlink:href="#b"/>
  <use x="183.17599" y="81.800003" xlink:href="#ae"/>
  <use x="189" y="81.800003" xlink:href="#t"/>
  <use x="193" y="81.800003" xlink:href="#m"/>
  <use x="195.224" y="81.800003" xlink:href="#d"/>
  <use x="197.448" y="81.800003" xlink:href="#a"/>
  <use x="173.8" y="164.8" xlink:href="#f"/>
  <use x="177.8" y="164.8" xlink:href="#b"/>
  <use x="181.35201" y="164.8" xlink:href="#j"/>
  <use x="184.90401" y="164.8" xlink:href="#c"/>
  <use x="188.90401" y="164.8" xlink:href="#f"/>
  <use x="192.90401" y="164.8" xlink:href="#b"/>
  <use x="196.45599" y="164.8" xlink:href="#k"/>
  <use x="201.8" y="164.8" xlink:href="#a"/>
  <use x="204.912" y="164.8" xlink:href="#b"/>
  <use x="208.464" y="164.8" xlink:href="#e"/>
  <use x="210.688" y="164.8" xlink:href="#b"/>
  <use x="214.24001" y="164.8" xlink:href="#j"/>
  <use x="217.79201" y="164.8" xlink:href="#d"/>
  <use x="220.01601" y="164.8" xlink:href="#a"/>
  <use x="181.39999" y="173.8" xlink:href="#c"/>
  <use x="185.39999" y="173.8" xlink:href="#h"/>
  <use x="189.39999" y="173.8" xlink:href="#e"/>
  <use x="191.62399" y="173.8" xlink:href="#x"/>
  <use x="197.5" y="173.8" xlink:href="#c"/>
  <use x="201.5" y="173.8" xlink:href="#h"/>
  <use x="205.5" y="173.8" xlink:href="#b"/>
  <use x="211.39999" y="173.8" xlink:href="#a"/>
  <use x="214.51199" y="173.8" xlink:href="#e"/>
  <use x="216.73599" y="173.8" xlink:href="#c"/>
  <use x="220.73599" y="173.8" xlink:href="#d"/>
  <use x="173.2" y="209.2" xlink:href="#d"/>
  <use x="175.424" y="209.2" xlink:href="#g"/>
  <use x="179.424" y="209.2" xlink:href="#w"/>
  <use x="185.8" y="209.2" xlink:href="#t"/>
  <use x="189.8" y="209.2" xlink:href="#m"/>
  <use x="192.024" y="209.2" xlink:href="#d"/>
  <use x="194.248" y="209.2" xlink:href="#a"/>
  <use x="173.2" y="218.2" xlink:href="#aj"/>
  <use x="175.424" y="218.2" xlink:href="#k"/>
  <use x="178.536" y="218.2" xlink:href="#c"/>
  <use x="182.536" y="218.2" xlink:href="#v"/>
  <use x="190.7" y="218.2" xlink:href="#g"/>
  <use x="194.7" y="218.2" xlink:href="#f"/>
  <use x="198.7" y="218.2" xlink:href="#f"/>
  <use x="202.7" y="218.2" xlink:href="#k"/>
  <use x="205.812" y="218.2" xlink:href="#b"/>
  <use x="209.364" y="218.2" xlink:href="#a"/>
  <use x="212.476" y="218.2" xlink:href="#a"/>
  <use x="368.20001" y="244.89999" xlink:href="#j"/>
  <use x="371.75201" y="244.89999" xlink:href="#c"/>
  <use x="375.75201" y="244.89999" xlink:href="#v"/>
  <use x="381.52802" y="244.89999" xlink:href="#u"/>
  <use x="385.52802" y="244.89999" xlink:href="#g"/>
  <use x="389.52802" y="244.89999" xlink:href="#k"/>
  <use x="392.64001" y="244.89999" xlink:href="#g"/>
  <use x="396.64001" y="244.89999" xlink:href="#d"/>
  <use x="398.86401" y="244.89999" xlink:href="#c"/>
  <use x="402.86401" y="244.89999" xlink:href="#k"/>
  <use x="334.20001" y="291.5" xlink:href="#e"/>
  <use x="336.42401" y="291.5" xlink:href="#c"/>
  <use x="340.42401" y="291.5" xlink:href="#w"/>
  <use x="344.42401" y="291.5" xlink:href="#m"/>
  <use x="346.64801" y="291.5" xlink:href="#j"/>
  <use x="350.20001" y="291.5" xlink:href="#g"/>
  <use x="354.20001" y="291.5" xlink:href="#e"/>
  <use x="334.20001" y="300.5" xlink:href="#g"/>
  <use x="338.20001" y="300.5" xlink:href="#h"/>
  <use x="342.20001" y="300.5" xlink:href="#f"/>
  <use x="197.5" y="238.3" xlink:href="#c"/>
  <use x="201.5" y="238.3" xlink:href="#h"/>
  <use x="205.5" y="238.3" xlink:href="#e"/>
  <use x="207.724" y="238.3" xlink:href="#x"/>
  <use x="213.60001" y="238.3" xlink:href="#d"/>
  <use x="215.82401" y="238.3" xlink:href="#ai"/>
  <use x="219.82401" y="238.3" xlink:href="#b"/>
  <use x="225.7" y="238.3" xlink:href="#a"/>
  <use x="228.812" y="238.3" xlink:href="#b"/>
  <use x="232.364" y="238.3" xlink:href="#e"/>
  <use x="234.588" y="238.3" xlink:href="#b"/>
  <use x="238.14" y="238.3" xlink:href="#j"/>
  <use x="241.692" y="238.3" xlink:href="#d"/>
  <use x="243.916" y="238.3" xlink:href="#b"/>
  <use x="247.468" y="238.3" xlink:href="#f"/>
  <use x="253.60001" y="238.3" xlink:href="#a"/>
  <use x="256.71201" y="238.3" xlink:href="#e"/>
  <use x="258.936" y="238.3" xlink:href="#c"/>
  <use x="262.936" y="238.3" xlink:href="#d"/>
  <use x="201.8" y="247.3" xlink:href="#u"/>
  <use x="205.8" y="247.3" xlink:href="#g"/>
  <use x="209.8" y="247.3" xlink:href="#a"/>
  <use x="212.912" y="247.3" xlink:href="#a"/>
  <use x="216.024" y="247.3" xlink:href="#b"/>
  <use x="219.576" y="247.3" xlink:href="#a"/>
  <use x="225.00002" y="247.3" xlink:href="#ah"/>
  <use x="228.552" y="247.3" xlink:href="#g"/>
  <use x="232.552" y="247.3" xlink:href="#e"/>
  <use x="234.776" y="247.3" xlink:href="#ag"/>
  <use x="238.776" y="247.3" xlink:href="#b"/>
  <use x="242.328" y="247.3" xlink:href="#a"/>
  <use x="247.70001" y="247.3" xlink:href="#f"/>
  <use x="251.70001" y="247.3" xlink:href="#c"/>
  <use x="255.70001" y="247.3" xlink:href="#af"/>
  <use x="261.03601" y="247.3" xlink:href="#h"/>
 </g>
</svg>
