<svg width="330" height="80" version="1.1" viewBox="0 0 330 80" xmlns="http://www.w3.org/2000/svg" xmlns:xlink="http://www.w3.org/1999/xlink">
 <defs>
  <g id="p">
   <path d="m1.6562-5.8281h-1.125v5.8281h1.125z"/>
  </g>
  <g id="b">
   <path d="m4.1875-.14062c-.1875-.17188-.25-.3125-.25-.51562v-2.4062c0-.875-.59375-1.3281-1.7656-1.3281s-1.7812.5-1.8594 1.5h1.0938c.046875-.45312.23438-.59375.78125-.59375.4375 0 .65625.14062.65625.42188 0 .15625-.078125.26562-.20312.34375-.14062.078125-.14062.078125-.70312.17188l-.4375.078125c-.85938.14062-1.2812.57812-1.2812 1.3594 0 .76562.53125 1.2969 1.3125 1.2969.48438 0 .92188-.20312 1.3125-.625 0 .23438.03125.3125.125.4375h1.2188zm-1.3438-1.5938c0 .64062-.32812 1.0156-.89062 1.0156-.375 0-.60938-.20312-.60938-.51562 0-.34375.17188-.5.64062-.59375l.39062-.078125c.28125-.046875.34375-.0625.46875-.14062z"/>
  </g>
  <g id="c">
   <path d="m.5-4.3125v4.3125h1.125v-2.2969c0-.65625.32812-.98438.98438-.98438.125 0 .20312.015625.34375.03125v-1.1406h-.125c-.51562 0-.95312.32812-1.2031.92188v-.84375z"/>
  </g>
  <g id="f">
   <path d="m3.2031-4.3125v.65625c-.3125-.5-.65625-.73438-1.1094-.73438-.39062 0-.8125.1875-1.1094.5-.4375.45312-.65625 1.0781-.65625 1.8281 0 1.3281.70312 2.25 1.7344 2.25.46875 0 .75-.15625 1.1406-.625v.57812c0 .51562-.375.89062-.90625.89062-.39062 0-.64062-.1875-.73438-.51562h-1.1406c0 .34375.125.57812.42188.8125.34375.28125.8125.42188 1.4219.42188 1.25 0 2-.60938 2-1.6094v-4.4531zm-.90625.85938c.53125 0 .92188.57812.92188 1.375s-.375 1.3281-.9375 1.3281c-.48438 0-.82812-.53125-.82812-1.3281 0-.8125.34375-1.375.84375-1.375z"/>
  </g>
  <g id="a">
   <path d="m4.1875-1.8125c.015625-.09375.015625-.125.015625-.1875 0-.4375-.0625-.82812-.17188-1.1406-.28125-.78125-.98438-1.25-1.8594-1.25-1.2344 0-2 .89062-2 2.3438 0 1.3906.75 2.2344 1.9844 2.2344.96875 0 1.75-.54688 2-1.4062h-1.1094c-.14062.34375-.45312.54688-.85938.54688-.3125 0-.57812-.14062-.73438-.375-.09375-.15625-.14062-.35938-.15625-.76562zm-2.875-.73438c.078125-.67188.34375-.98438.84375-.98438.51562 0 .8125.34375.875.98438z"/>
  </g>
  <g id="l">
   <path d="m3.2344 0h1.125v-5.8281h-1.125v2.0625c-.28125-.42188-.64062-.625-1.1875-.625-1.0312 0-1.8125.98438-1.8125 2.2969 0 .57812.17188 1.1719.46875 1.5938.28125.42188.8125.6875 1.3438.6875.54688 0 .90625-.20312 1.1875-.625zm-.9375-3.4531c.5625 0 .9375.54688.9375 1.375 0 .78125-.375 1.3281-.9375 1.3281s-.9375-.54688-.9375-1.3438c0-.8125.375-1.3594.9375-1.3594z"/>
  </g>
  <g id="d">
   <path d="m2.4062-4.2344h-.625v-1.1562h-1.125v1.1562h-.54688v.75h.54688v2.6562c0 .67188.375 1.0156 1.1094 1.0156.25 0 .4375-.03125.64062-.09375v-.78125c-.10938.015625-.17188.03125-.25.03125-.29688 0-.375-.09375-.375-.48438v-2.3438h.625z"/>
  </g>
  <g id="e">
   <path d="m4.0469-2.9219c-.015625-.92188-.73438-1.4688-1.8906-1.4688-1.0938 0-1.7656.54688-1.7656 1.4375 0 .29688.078125.53125.23438.70312.15625.15625.28125.21875.70312.35938l1.3281.42188c.28125.078125.39062.17188.39062.34375 0 .26562-.3125.42188-.84375.42188-.29688 0-.51562-.046875-.65625-.14062-.125-.09375-.17188-.1875-.21875-.40625h-1.0938c.03125.95312.71875 1.4375 2.0312 1.4375.60938 0 1.0625-.125 1.375-.39062.32812-.25.51562-.65625.51562-1.0781 0-.5625-.28125-.92188-.84375-1.0938l-1.4219-.40625c-.3125-.09375-.39062-.15625-.39062-.32812 0-.25.26562-.40625.65625-.40625.53125 0 .79688.20312.79688.59375z"/>
  </g>
  <g id="k">
   <path d="m2.4062-4.3906c-1.3125 0-2.125.875-2.125 2.2812 0 1.4219.8125 2.2969 2.1406 2.2969 1.3125 0 2.125-.875 2.125-2.2656 0-1.4531-.78125-2.3125-2.1406-2.3125zm.015625.90625c.60938 0 1.0156.54688 1.0156 1.3906 0 .8125-.42188 1.375-1.0156 1.375-.60938 0-1.0156-.54688-1.0156-1.3906 0-.82812.40625-1.375 1.0156-1.375z"/>
  </g>
  <g id="o">
   <path d="m3.2344-4.3125v.625c-.26562-.46875-.67188-.70312-1.2031-.70312-1.0469 0-1.8125.96875-1.8125 2.2969 0 .60938.1875 1.2188.46875 1.6094.28125.40625.82812.67188 1.3438.67188.53125 0 .9375-.23438 1.2031-.70312v2.2656h1.125v-6.0625zm-.95312.85938c.57812 0 .95312.54688.95312 1.375 0 .79688-.39062 1.3281-.95312 1.3281-.54688 0-.9375-.53125-.9375-1.3438s.39062-1.3594.9375-1.3594z"/>
  </g>
  <g id="n">
   <path d="m4.3281 0v-4.3125h-1.125v2.7031c0 .5-.34375.84375-.90625.84375-.46875 0-.71875-.26562-.71875-.78125v-2.7656h-1.1094v3c0 .95312.51562 1.5 1.4375 1.5.59375 0 .98438-.21875 1.2969-.70312v.51562z"/>
  </g>
  <g id="h">
   <path d="m4.1719-2.7031c-.078125-1.0625-.76562-1.6875-1.8594-1.6875-1.2969 0-2.0469.84375-2.0469 2.3125 0 1.4375.75 2.2656 2.0312 2.2656 1.0469 0 1.7812-.65625 1.875-1.6875h-1.0625c-.14062.5625-.35938.78125-.8125.78125-.5625 0-.90625-.5-.90625-1.3594 0-.40625.078125-.78125.21875-1.0469.125-.23438.375-.35938.6875-.35938.46875 0 .67188.21875.8125.78125z"/>
  </g>
  <g id="m">
   <path d="m.53125-5.8281v5.8281h1.125v-2.5938c0-.5.35938-.84375.85938-.84375.25 0 .4375.078125.5625.26562.10938.14062.125.26562.125.53125v2.6406h1.125v-2.8906c0-.54688-.14062-.92188-.4375-1.1719-.25-.20312-.60938-.32812-.96875-.32812-.54688 0-.95312.21875-1.2656.6875v-2.125z"/>
  </g>
  <g id="g">
   <path d="m5.4531-3.8594c-.03125-.5-.14062-.82812-.39062-1.1562-.45312-.57812-1.1719-.90625-2.0312-.90625-1.6562 0-2.6719 1.1719-2.6719 3.0625 0 1.875 1.0156 3.0469 2.625 3.0469 1.4688 0 2.4219-.84375 2.5-2.1719h-1.1719c-.078125.73438-.54688 1.1562-1.2812 1.1562-.9375 0-1.4844-.75-1.4844-2.0156 0-1.2969.57812-2.0625 1.5156-2.0625.70312 0 1.0938.34375 1.25 1.0469z"/>
  </g>
  <g id="j">
   <path d="m.32812-3.6406v3.6406h.70312v-1.625c0-.3125.23438-.53125.54688-.53125.15625 0 .26562.0625.34375.17188.0625.09375.078125.17188.078125.32812v1.6562h.70312v-1.8125c0-.32812-.09375-.57812-.26562-.73438-.15625-.125-.39062-.20312-.60938-.20312-.34375 0-.59375.14062-.79688.4375v-1.3281z"/>
  </g>
  <g id="i">
   <path d="m.29688-2.7031v2.7031h.70312v-1.625c0-.32812.1875-.53125.48438-.53125.23438 0 .375.14062.375.35938v1.7969h.70312v-1.625c0-.32812.17188-.53125.48438-.53125.23438 0 .375.14062.375.35938v1.7969h.70312v-1.9062c0-.53125-.32812-.84375-.85938-.84375-.34375 0-.57812.125-.79688.40625-.125-.25-.40625-.40625-.73438-.40625-.3125 0-.51562.10938-.73438.39062v-.34375z"/>
  </g>
 </defs>
 <g fill="none" stroke="#000101" stroke-linecap="round" stroke-miterlimit="10" stroke-width=".66667">
  <path d="m279.36 63.007v-21.602"/>
  <path d="m279.36 41.405h21.602"/>
  <path d="m300.96 41.405v21.602"/>
  <path d="m300.96 63.007h-21.602"/>
 </g>
 <g transform="translate(-131.04 -61.993)" fill="#007fff">
  <use x="386.70001" y="136" xlink:href="#p"/>
  <use x="388.92401" y="136" xlink:href="#b"/>
  <use x="393.37201" y="136" xlink:href="#c"/>
  <use x="396.48401" y="136" xlink:href="#f"/>
  <use x="401.37201" y="136" xlink:href="#a"/>
  <use x="408.10001" y="136" xlink:href="#l"/>
  <use x="412.98801" y="136" xlink:href="#b"/>
  <use x="417.436" y="136" xlink:href="#d"/>
  <use x="420.10001" y="136" xlink:href="#b"/>
  <use x="426.79999" y="136" xlink:href="#e"/>
  <use x="431.24799" y="136" xlink:href="#d"/>
  <use x="433.91199" y="136" xlink:href="#k"/>
  <use x="438.79999" y="136" xlink:href="#c"/>
  <use x="441.91199" y="136" xlink:href="#b"/>
  <use x="446.35999" y="136" xlink:href="#f"/>
  <use x="451.24799" y="136" xlink:href="#a"/>
 </g>
 <g fill="none" stroke="#000101" stroke-linecap="round" stroke-miterlimit="10" stroke-width=".66667">
  <path d="m12.963 63.007v-21.602"/>
  <path d="m12.963 41.405h21.602"/>
  <path d="m34.565 41.405v21.602"/>
  <path d="m34.565 63.007h-21.602"/>
 </g>
 <g transform="translate(-131.04 -61.993)" fill="#00ff00">
  <use x="136.5" y="136" xlink:href="#c"/>
  <use x="139.612" y="136" xlink:href="#a"/>
  <use x="144.06" y="136" xlink:href="#o"/>
  <use x="148.948" y="136" xlink:href="#n"/>
  <use x="153.836" y="136" xlink:href="#a"/>
  <use x="158.284" y="136" xlink:href="#e"/>
  <use x="162.73199" y="136" xlink:href="#d"/>
  <use x="165.396" y="136" xlink:href="#a"/>
  <use x="169.84399" y="136" xlink:href="#c"/>
 </g>
 <g fill="none" stroke="#000101" stroke-linecap="round" stroke-miterlimit="10" stroke-width=".66667">
  <path d="m146.16 63.007v-21.602"/>
  <path d="m146.16 41.405h21.602"/>
  <path d="m167.76 41.405v21.602"/>
  <path d="m167.76 63.007h-21.602"/>
 </g>
 <g transform="translate(-131.04 -61.993)" fill="#ff6600">
  <use x="276.60001" y="136" xlink:href="#h"/>
  <use x="281.048" y="136" xlink:href="#b"/>
  <use x="285.496" y="136" xlink:href="#h"/>
  <use x="289.944" y="136" xlink:href="#m"/>
  <use x="294.832" y="136" xlink:href="#a"/>
 </g>
 <g fill="none" stroke="#000101" stroke-linecap="round" stroke-miterlimit="10" stroke-width=".66667">
  <path d="m34.565 52.206h111.6"/>
  <path d="m167.76 52.206h111.6"/>
  <path d="m34.565 38.507v-34.5"/>
  <path d="m156.96 38.507v-17.199"/>
  <path d="m290.16 38.507v-34.5"/>
  <path d="m41.764 28.108-7.1992 1.7969"/>
  <path d="m41.862 28.608-7.2969 1.1992"/>
  <path d="m41.963 29.307-7.3984.5"/>
  <path d="m41.963 29.905h-7.3984"/>
  <path d="m41.963 30.405-7.3984-.5"/>
  <path d="m41.862 31.108-7.2969-1.2031"/>
  <path d="m41.764 31.706-7.1992-1.8008"/>
  <path d="m34.565 29.905h54"/>
  <path d="m102.96 29.905h54"/>
  <path d="m149.76 31.706 7.1992-1.8008"/>
  <path d="m149.56 31.108 7.2969-1.2031"/>
  <path d="m149.46 30.405 7.3984-.5"/>
  <path d="m149.46 29.905h7.3984"/>
  <path d="m149.46 29.307 7.3984.5"/>
  <path d="m149.56 28.608 7.2969 1.1992"/>
  <path d="m149.76 28.108 7.1992 1.7969"/>
  <path d="m41.764 10.807-7.1992 1.8008"/>
  <path d="m41.862 11.405-7.2969 1.2031"/>
  <path d="m41.963 12.007-7.3984.5"/>
  <path d="m41.963 12.608h-7.3984"/>
  <path d="m41.963 13.206-7.3984-.5"/>
  <path d="m41.862 13.807-7.2969-1.1992"/>
  <path d="m41.764 14.405-7.1992-1.7969"/>
  <path d="m34.565 12.608h163.2"/>
  <path d="m212.16 12.608h77.902"/>
  <path d="m282.96 14.405 7.1992-1.7969"/>
  <path d="m282.76 13.807 7.3008-1.1992"/>
  <path d="m282.66 13.206 7.4023-.5"/>
  <path d="m282.66 12.608h7.4023"/>
  <path d="m282.66 12.007 7.4023.5"/>
  <path d="m282.76 11.405 7.3008 1.2031"/>
  <path d="m282.96 10.807 7.1992 1.8008"/>
 </g>
 <g transform="translate(-131.04 -61.993)">
  <use x="222.39999" y="93.5" xlink:href="#g"/>
  <use x="228.2" y="95.699997" xlink:href="#j"/>
  <use x="330.89999" y="76.199997" xlink:href="#g"/>
  <use x="336.70001" y="78.400002" xlink:href="#i"/>
 </g>
</svg>
