<svg width="190" height="220" version="1.1" viewBox="0 0 190 220" xmlns="http://www.w3.org/2000/svg" xmlns:xlink="http://www.w3.org/1999/xlink">
 <defs>
  <g id="s">
   <path d="m5.4531-3.8594c-.03125-.5-.14062-.82812-.39062-1.1562-.45312-.57812-1.1719-.90625-2.0312-.90625-1.6562 0-2.6719 1.1719-2.6719 3.0625 0 1.875 1.0156 3.0469 2.625 3.0469 1.4688 0 2.4219-.84375 2.5-2.1719h-1.1719c-.078125.73438-.54688 1.1562-1.2812 1.1562-.9375 0-1.4844-.75-1.4844-2.0156 0-1.2969.57812-2.0625 1.5156-2.0625.70312 0 1.0938.34375 1.25 1.0469z"/>
  </g>
  <g id="p">
   <path d="m4.0156-1.1719.375 1.1719h1.2344l-2.0156-5.8281h-1.3281l-2.0781 5.8281h1.2344l.39062-1.1719zm-.32812-1h-1.5312l.76562-2.2812z"/>
  </g>
  <g id="o">
   <path d="m1.7344-4.5469 1.0469 4.5469h1.1875l1.0469-4.5469v4.5469h1.1875v-5.8281h-1.7969l-1.0312 4.6406-1.0625-4.6406h-1.7812v5.8281h1.2031z"/>
  </g>
  <g id="n">
   <path d="m4.8594-4.0625c-.015625-1.2031-.8125-1.8594-2.2969-1.8594-1.3906 0-2.2031.65625-2.2031 1.7812 0 .90625.45312 1.3438 1.6406 1.5781l.8125.15625c.79688.15625 1.0938.375 1.0938.84375 0 .48438-.4375.78125-1.1719.78125-.8125 0-1.2656-.34375-1.3125-.96875h-1.1719c.078125 1.25.9375 1.9375 2.4219 1.9375 1.5 0 2.3906-.70312 2.3906-1.8906 0-.92188-.46875-1.4062-1.5469-1.6094l-.90625-.17188c-.85938-.17188-1.1094-.34375-1.1094-.76562 0-.4375.39062-.71875 1.0156-.71875.75 0 1.1875.32812 1.2188.90625z"/>
  </g>
  <g id="m">
   <path d="m2.4062-4.2344h-.625v-1.1562h-1.125v1.1562h-.54688v.75h.54688v2.6562c0 .67188.375 1.0156 1.1094 1.0156.25 0 .4375-.03125.64062-.09375v-.78125c-.10938.015625-.17188.03125-.25.03125-.29688 0-.375-.09375-.375-.48438v-2.3438h.625z"/>
  </g>
  <g id="l">
   <path d="m2.4062-4.3906c-1.3125 0-2.125.875-2.125 2.2812 0 1.4219.8125 2.2969 2.1406 2.2969 1.3125 0 2.125-.875 2.125-2.2656 0-1.4531-.78125-2.3125-2.1406-2.3125zm.015625.90625c.60938 0 1.0156.54688 1.0156 1.3906 0 .8125-.42188 1.375-1.0156 1.375-.60938 0-1.0156-.54688-1.0156-1.3906 0-.82812.40625-1.375 1.0156-1.375z"/>
  </g>
  <g id="k">
   <path d="m.5-4.3125v4.3125h1.125v-2.2969c0-.65625.32812-.98438.98438-.98438.125 0 .20312.015625.34375.03125v-1.1406h-.125c-.51562 0-.95312.32812-1.2031.92188v-.84375z"/>
  </g>
  <g id="j">
   <path d="m4.1875-.14062c-.1875-.17188-.25-.3125-.25-.51562v-2.4062c0-.875-.59375-1.3281-1.7656-1.3281s-1.7812.5-1.8594 1.5h1.0938c.046875-.45312.23438-.59375.78125-.59375.4375 0 .65625.14062.65625.42188 0 .15625-.078125.26562-.20312.34375-.14062.078125-.14062.078125-.70312.17188l-.4375.078125c-.85938.14062-1.2812.57812-1.2812 1.3594 0 .76562.53125 1.2969 1.3125 1.2969.48438 0 .92188-.20312 1.3125-.625 0 .23438.03125.3125.125.4375h1.2188zm-1.3438-1.5938c0 .64062-.32812 1.0156-.89062 1.0156-.375 0-.60938-.20312-.60938-.51562 0-.34375.17188-.5.64062-.59375l.39062-.078125c.28125-.046875.34375-.0625.46875-.14062z"/>
  </g>
  <g id="i">
   <path d="m3.2031-4.3125v.65625c-.3125-.5-.65625-.73438-1.1094-.73438-.39062 0-.8125.1875-1.1094.5-.4375.45312-.65625 1.0781-.65625 1.8281 0 1.3281.70312 2.25 1.7344 2.25.46875 0 .75-.15625 1.1406-.625v.57812c0 .51562-.375.89062-.90625.89062-.39062 0-.64062-.1875-.73438-.51562h-1.1406c0 .34375.125.57812.42188.8125.34375.28125.8125.42188 1.4219.42188 1.25 0 2-.60938 2-1.6094v-4.4531zm-.90625.85938c.53125 0 .92188.57812.92188 1.375s-.375 1.3281-.9375 1.3281c-.48438 0-.82812-.53125-.82812-1.3281 0-.8125.34375-1.375.84375-1.375z"/>
  </g>
  <g id="c">
   <path d="m4.1875-1.8125c.015625-.09375.015625-.125.015625-.1875 0-.4375-.0625-.82812-.17188-1.1406-.28125-.78125-.98438-1.25-1.8594-1.25-1.2344 0-2 .89062-2 2.3438 0 1.3906.75 2.2344 1.9844 2.2344.96875 0 1.75-.54688 2-1.4062h-1.1094c-.14062.34375-.45312.54688-.85938.54688-.3125 0-.57812-.14062-.73438-.375-.09375-.15625-.14062-.35938-.15625-.76562zm-2.875-.73438c.078125-.67188.34375-.98438.84375-.98438.51562 0 .8125.34375.875.98438z"/>
  </g>
  <g id="r">
   <path d="m1.7969-1.9531.59375-.625 1.9062 2.5781h1.4375l-2.5781-3.3125 2.3281-2.5156h-1.4062l-2.2812 2.5625v-2.5625h-1.2031v5.8281h1.2031z"/>
  </g>
  <g id="q">
   <path d="m3.1562-4.3125-.90625 3.1406-.95312-3.1406h-1.2188l1.6094 4.4844c0 .45312-.28125.75-.70312.75-.09375 0-.15625-.015625-.29688-.046875v.84375c.17188.03125.26562.03125.40625.03125.28125 0 .60938-.046875.79688-.14062.3125-.125.45312-.29688.64062-.8125l1.7656-5.1094z"/>
  </g>
  <g id="a">
   <path d="m1.2812-.875h-.89062v.875h.89062z"/>
  </g>
  <g id="b">
   <path d="m2.5938-3.5312c-.34375 0-.65625.09375-.98438.26562-.8125.46875-1.3906 1.3906-1.3906 2.2344 0 .6875.4375 1.125 1.1719 1.125.53125 0 1.0469-.23438 1.5-.70312.53125-.51562.85938-1.1875.85938-1.7969 0-.67188-.46875-1.125-1.1562-1.125zm-.09375.17188c.34375 0 .57812.29688.57812.75 0 .59375-.26562 1.3906-.625 1.9062-.29688.42188-.59375.625-.9375.625-.375 0-.625-.29688-.625-.73438 0-.59375.23438-1.2969.625-1.8594.3125-.45312.64062-.6875.98438-.6875z"/>
  </g>
  <g id="h">
   <path d="m3.6875-.9375c-.4375.54688-.53125.64062-.65625.64062-.078125 0-.14062-.0625-.14062-.14062 0-.0625.03125-.20312.125-.5l.45312-1.6406c.03125-.17188.0625-.34375.0625-.46875 0-.29688-.21875-.48438-.51562-.48438-.51562 0-1.0312.48438-1.8438 1.7656l.53125-1.75-.015625-.015625c-.4375.09375-.60938.125-1.2969.25v.125c.40625.015625.5.0625.5.21875 0 .046875 0 .09375-.015625.14062l-.76562 2.7969h.60938c.375-1.2656.4375-1.4375.79688-1.9844.46875-.73438.89062-1.1406 1.1875-1.1406.10938 0 .1875.09375.1875.23438 0 .09375-.046875.35938-.10938.60938l-.35938 1.3281c-.10938.40625-.125.51562-.125.59375 0 .29688.10938.4375.375.4375.35938 0 .5625-.17188 1.125-.90625z"/>
  </g>
  <g id="g">
   <path d="m2.8594-.875c-.57812.46875-.8125.60938-1.1719.60938-.45312 0-.75-.29688-.75-.73438 0-.125.015625-.23438.09375-.48438l.21875-.03125c1.2031-.17188 2.0469-.78125 2.0469-1.4688 0-.32812-.23438-.54688-.64062-.54688-1.1562 0-2.4062 1.3125-2.4062 2.5156 0 .65625.4375 1.1094 1.0469 1.1094.57812 0 1.1875-.32812 1.6562-.875zm-1.6406-1.1406c.26562-.71875.85938-1.3281 1.2656-1.3281.17188 0 .28125.125.28125.3125 0 .25-.15625.53125-.39062.78125-.29688.28125-.60938.42188-1.2969.59375z"/>
  </g>
  <g id="f">
   <path d="m.28125-1.1719-.15625 1.2812h.125c.078125-.14062.10938-.17188.20312-.17188.078125 0 .23438.03125.39062.078125.1875.046875.29688.078125.4375.078125.67188 0 1.1562-.4375 1.1562-1.0469 0-.3125-.17188-.65625-.54688-1.125-.3125-.375-.4375-.625-.4375-.84375 0-.26562.17188-.42188.45312-.42188.40625 0 .65625.29688.73438.92188h.125l.15625-1.1094h-.10938c-.0625.10938-.10938.14062-.23438.14062-.0625 0-.14062-.015625-.29688-.0625-.1875-.0625-.3125-.078125-.4375-.078125-.59375 0-.96875.34375-.96875.89062 0 .25.17188.59375.5 1.0312.3125.40625.45312.6875.45312.90625 0 .375-.25.625-.59375.625-.45312 0-.6875-.32812-.8125-1.0938z"/>
  </g>
  <g id="e">
   <path d="m1.8281-.98438c-.53125.67188-.59375.73438-.76562.73438-.078125 0-.125-.046875-.125-.15625 0-.0625.03125-.15625.078125-.3125 0-.03125.015625-.046875.015625-.0625v-.015625l1.2031-4.625-.046875-.046875c-.46875.10938-.78125.17188-1.25.21875v.125c.39062 0 .54688.046875.54688.1875 0 .03125 0 .078125-.015625.14062l-1.1094 4.2344c-.015625.078125-.03125.14062-.03125.20312 0 .29688.14062.45312.39062.45312.42188 0 .6875-.23438 1.2031-1z"/>
  </g>
  <g id="d">
   <path d="m2.375-3.4219h-.64062l.21875-.82812v-.046875c0-.046875-.015625-.078125-.0625-.078125s-.0625.015625-.10938.078125c-.3125.40625-.8125.8125-1.0625.875-.20312.0625-.26562.125-.26562.20312 0 .015625 0 .03125.015625.046875h.59375l-.57812 2.2031c-.015625.078125-.03125.10938-.046875.17188-.078125.26562-.14062.51562-.14062.59375 0 .15625.17188.29688.39062.29688.35938 0 .625-.23438 1.125-.96875l-.09375-.0625c-.40625.5-.53125.64062-.65625.64062-.078125 0-.125-.0625-.125-.17188l.015625-.03125.70312-2.6719h.67188z"/>
  </g>
 </defs>
 <g fill="none" stroke="#000" stroke-linecap="round" stroke-miterlimit="10" stroke-width=".66667">
  <path d="m46.353 201.14v-172.8"/>
  <path d="m46.353 28.339h115.2"/>
  <path d="m161.56 28.339v172.8"/>
  <path d="m161.56 201.14h-115.2"/>
 </g>
 <g transform="translate(-271.63 36.674)" fill="#ff6600">
  <use x="352.79999" y="175.60001" xlink:href="#s"/>
  <use x="358.57599" y="175.60001" xlink:href="#p"/>
  <use x="364.35199" y="175.60001" xlink:href="#o"/>
  <use x="373.20001" y="175.60001" xlink:href="#n"/>
  <use x="378.53601" y="175.60001" xlink:href="#m"/>
  <use x="381.20001" y="175.60001" xlink:href="#l"/>
  <use x="386.08801" y="175.60001" xlink:href="#k"/>
  <use x="389.20001" y="175.60001" xlink:href="#j"/>
  <use x="393.64801" y="175.60001" xlink:href="#i"/>
  <use x="398.53601" y="175.60001" xlink:href="#c"/>
 </g>
 <g fill="none" stroke="#000" stroke-linecap="round" stroke-miterlimit="10" stroke-width=".66667">
  <path d="m46.353 13.937v-7.1992"/>
  <path d="m46.353 6.7377h115.2"/>
  <path d="m161.56 6.7377v7.1992"/>
  <path d="m161.56 13.937h-115.2"/>
 </g>
 <g transform="translate(-184.05 -59.262)" fill="#007fff">
  <use x="352.79999" y="71.199997" xlink:href="#r"/>
  <use x="358.57599" y="71.199997" xlink:href="#c"/>
  <use x="363.02399" y="71.199997" xlink:href="#q"/>
 </g>
 <g transform="translate(-184.05 -59.262)" fill="#000000">
  <use x="287.20001" y="247.2" xlink:href="#a"/>
  <use x="287.20001" y="244.8" xlink:href="#a"/>
  <use x="287.20001" y="249.5" xlink:href="#a"/>
 </g>
 <g fill="none" stroke="#000" stroke-linecap="round" stroke-miterlimit="10">
  <g stroke-width=".5">
   <path d="m53.556 6.7377v7.1992"/>
   <path d="m53.556 28.339v153"/>
   <path d="m53.556 192.14v9"/>
   <path d="m60.755 6.7377v7.1992"/>
   <path d="m60.755 28.339v153"/>
   <path d="m60.755 192.14v9"/>
   <path d="m67.954 6.7377v7.1992"/>
   <path d="m67.954 28.339v153"/>
   <path d="m67.954 192.14v9"/>
   <path d="m75.154 6.7377v7.1992"/>
   <path d="m75.154 28.339v153"/>
   <path d="m75.154 192.14v9"/>
   <path d="m82.353 6.7377v7.1992"/>
   <path d="m82.353 28.339v153"/>
   <path d="m82.353 192.14v9"/>
   <path d="m89.556 6.7377v7.1992"/>
   <path d="m89.556 28.339v153"/>
   <path d="m89.556 192.14v9"/>
   <path d="m96.755 6.7377v7.1992"/>
   <path d="m96.755 28.339v153"/>
   <path d="m96.755 192.14v9"/>
   <path d="m103.95 6.7377v7.1992"/>
   <path d="m103.95 28.339v153"/>
   <path d="m103.95 192.14v9"/>
   <path d="m111.15 6.7377v7.1992"/>
   <path d="m111.15 28.339v153"/>
   <path d="m111.15 192.14v9"/>
   <path d="m118.35 6.7377v7.1992"/>
   <path d="m118.35 28.339v153"/>
   <path d="m118.35 192.14v9"/>
   <path d="m125.56 6.7377v7.1992"/>
   <path d="m125.56 28.339v153"/>
   <path d="m125.56 192.14v9"/>
   <path d="m132.76 6.7377v7.1992"/>
   <path d="m132.76 28.339v153"/>
   <path d="m132.76 192.14v9"/>
   <path d="m139.95 6.7377v7.1992"/>
   <path d="m139.95 28.339v153"/>
   <path d="m139.95 192.14v9"/>
   <path d="m147.15 6.7377v7.1992"/>
   <path d="m147.15 28.339v153"/>
   <path d="m147.15 192.14v9"/>
   <path d="m154.35 6.7377v7.1992"/>
   <path d="m154.35 28.339v153"/>
   <path d="m154.35 192.14v9"/>
   <path d="m46.353 35.538h115.2"/>
   <path d="m46.353 42.738h115.2"/>
   <path d="m46.353 49.937h115.2"/>
   <path d="m46.353 57.136h115.2"/>
   <path d="m46.353 64.339h115.2"/>
   <path d="m46.353 71.538h115.2"/>
   <path d="m46.353 78.738h115.2"/>
   <path d="m46.353 85.937h115.2"/>
   <path d="m46.353 93.136h115.2"/>
   <path d="m46.353 100.34h115.2"/>
   <path d="m46.353 107.54h115.2"/>
   <path d="m46.353 114.74h115.2"/>
   <path d="m46.353 121.94h115.2"/>
   <path d="m46.353 129.14h115.2"/>
   <path d="m46.353 136.34h115.2"/>
   <path d="m46.353 143.54h115.2"/>
   <path d="m46.353 150.74h115.2"/>
   <path d="m46.353 157.94h115.2"/>
   <path d="m46.353 165.14h115.2"/>
   <path d="m46.353 172.34h115.2"/>
   <path d="m46.353 179.54h115.2"/>
   <path d="m46.353 193.94h115.2"/>
  </g>
  <g stroke-width=".83333">
   <path d="m46.353 57.136h122.4"/>
   <path d="m172.35 60.738c0-1.9883-1.6094-3.6016-3.5976-3.6016"/>
   <path d="m168.76 64.339c1.9883 0 3.5976-1.6133 3.5976-3.6016"/>
   <path d="m168.76 64.339h-129.6"/>
   <path d="m35.556 60.738c0 1.9883 1.6094 3.6016 3.5977 3.6016"/>
   <path d="m39.154 57.136c-1.9883 0-3.5977 1.6133-3.5977 3.6016"/>
   <path d="m39.154 57.136h7.1992"/>
  </g>
  <g stroke-width=".66667">
   <path d="m19.853 35.339 17.703 20.898"/>
   <path d="m31.556 51.937 6 4.3008"/>
   <path d="m31.954 51.437 5.6016 4.8008"/>
   <path d="m32.353 51.038 5.2031 5.1992"/>
   <path d="m32.755 50.636 4.8008 5.6016"/>
   <path d="m33.154 50.238 4.3008 6"/>
   <path d="m33.755 49.937 3.8008 6.3008"/>
   <path d="m34.255 49.636 3.3008 6.6016"/>
  </g>
 </g>
 <g transform="translate(-184.05 -59.262)">
  <use x="188.89999" y="93.5" xlink:href="#b"/>
  <use x="192.89999" y="93.5" xlink:href="#h"/>
  <use x="196.89999" y="93.5" xlink:href="#g"/>
  <use x="202.8" y="93.5" xlink:href="#f"/>
  <use x="205.912" y="93.5" xlink:href="#e"/>
  <use x="208.136" y="93.5" xlink:href="#b"/>
  <use x="212.136" y="93.5" xlink:href="#d"/>
 </g>
</svg>
