<svg width="165" height="75" version="1.1" viewBox="0 0 165 75" xmlns="http://www.w3.org/2000/svg" xmlns:xlink="http://www.w3.org/1999/xlink">
 <defs>
  <g id="a">
   <path d="m2.1406-4.4062v4.4062h1.2656v-6.375h-.84375c-.20312.75-.85938 1.1406-1.9531 1.1406v.82812z"/>
  </g>
  <g id="b">
   <path d="m2.4531-6.5156c-.6875 0-1.2656.28125-1.6562.8125-.35938.5-.53125 1.3125-.53125 2.5469 0 1.1406.14062 1.9375.45312 2.4219.375.60938.98438.9375 1.7344.9375.70312 0 1.2656-.28125 1.6562-.8125.35938-.48438.54688-1.3125.54688-2.5 0-1.1719-.14062-1.9688-.45312-2.4688-.375-.60938-1-.9375-1.75-.9375zm0 1.0156c.32812 0 .59375.1875.73438.51562.14062.26562.20312.96875.20312 1.8438 0 .71875-.0625 1.4219-.15625 1.6875-.14062.375-.42188.57812-.78125.57812-.32812 0-.57812-.17188-.73438-.5-.125-.26562-.20312-.92188-.20312-1.7812 0-.76562.0625-1.4844.17188-1.7344.125-.39062.40625-.60938.76562-.60938z"/>
  </g>
  <g id="g">
   <path d="m5.3281-2.9062h-1.8125v-1.8281h-1.2031v1.8281h-1.8125v1.1875h1.8125v1.8125h1.2031v-1.8125h1.8125z"/>
  </g>
  <g id="f">
   <path d="m4.1719-2.7031c-.078125-1.0625-.76562-1.6875-1.8594-1.6875-1.2969 0-2.0469.84375-2.0469 2.3125 0 1.4375.75 2.2656 2.0312 2.2656 1.0469 0 1.7812-.65625 1.875-1.6875h-1.0625c-.14062.5625-.35938.78125-.8125.78125-.5625 0-.90625-.5-.90625-1.3594 0-.40625.078125-.78125.21875-1.0469.125-.23438.375-.35938.6875-.35938.46875 0 .67188.21875.8125.78125z"/>
  </g>
  <g id="e">
   <path d="m4.1875-.14062c-.1875-.17188-.25-.3125-.25-.51562v-2.4062c0-.875-.59375-1.3281-1.7656-1.3281s-1.7812.5-1.8594 1.5h1.0938c.046875-.45312.23438-.59375.78125-.59375.4375 0 .65625.14062.65625.42188 0 .15625-.078125.26562-.20312.34375-.14062.078125-.14062.078125-.70312.17188l-.4375.078125c-.85938.14062-1.2812.57812-1.2812 1.3594 0 .76562.53125 1.2969 1.3125 1.2969.48438 0 .92188-.20312 1.3125-.625 0 .23438.03125.3125.125.4375h1.2188zm-1.3438-1.5938c0 .64062-.32812 1.0156-.89062 1.0156-.375 0-.60938-.20312-.60938-.51562 0-.34375.17188-.5.64062-.59375l.39062-.078125c.28125-.046875.34375-.0625.46875-.14062z"/>
  </g>
  <g id="c">
   <path d="m.5-4.3125v4.3125h1.125v-2.2969c0-.65625.32812-.98438.98438-.98438.125 0 .20312.015625.34375.03125v-1.1406h-.125c-.51562 0-.95312.32812-1.2031.92188v-.84375z"/>
  </g>
  <g id="d">
   <path d="m3.1562-4.3125-.90625 3.1406-.95312-3.1406h-1.2188l1.6094 4.4844c0 .45312-.28125.75-.70312.75-.09375 0-.15625-.015625-.29688-.046875v.84375c.17188.03125.26562.03125.40625.03125.28125 0 .60938-.046875.79688-.14062.3125-.125.45312-.29688.64062-.8125l1.7656-5.1094z"/>
  </g>
 </defs>
 <path d="m3.1712 55.809h158.4" fill="none" stroke="#000" stroke-linecap="round" stroke-miterlimit="10" stroke-width=".66667"/>
 <g transform="translate(-209.23 -58.391)" fill="#000000">
  <use x="253.10001" y="95.800003" xlink:href="#a"/>
  <use x="274.70001" y="95.800003" xlink:href="#b"/>
  <use x="296.29999" y="95.800003" xlink:href="#a"/>
  <use x="317.89999" y="95.800003" xlink:href="#b"/>
  <use x="339.5" y="95.800003" xlink:href="#b"/>
  <use x="221.7" y="108.8" xlink:href="#g"/>
  <use x="253.10001" y="108.8" xlink:href="#a"/>
  <use x="274.70001" y="108.8" xlink:href="#a"/>
  <use x="296.29999" y="108.8" xlink:href="#a"/>
  <use x="317.89999" y="108.8" xlink:href="#b"/>
  <use x="339.5" y="108.8" xlink:href="#a"/>
  <use x="231.5" y="129" xlink:href="#a"/>
  <use x="253.10001" y="129" xlink:href="#a"/>
  <use x="274.70001" y="129" xlink:href="#b"/>
  <use x="296.29999" y="129" xlink:href="#b"/>
  <use x="317.89999" y="129" xlink:href="#b"/>
  <use x="339.5" y="129" xlink:href="#a"/>
 </g>
 <g fill="none" stroke="#000" stroke-linecap="round" stroke-miterlimit="10">
  <path d="m89.574 22.711c0-5.1367-4.1641-9.3008-9.3008-9.3008" stroke-width=".25"/>
  <path d="m80.171 13.309c-5.1328 0-9.2969 4.1641-9.2969 9.3008" stroke-width=".25"/>
  <g stroke-width=".85">
   <path d="m71.773 15.309-1 7.3008"/>
   <path d="m72.472 15.41-1.5977 7.1992"/>
   <path d="m73.074 15.609-2.1992 7"/>
   <path d="m73.574 15.809-2.8008 6.9023"/>
   <path d="m74.074 16.008-3.3008 6.6016"/>
   <path d="m74.671 16.309-3.7969 6.3008"/>
   <path d="m75.171 16.711-4.2969 5.8984"/>
  </g>
  <path d="m67.972 22.711c0-5.1367-4.1641-9.3008-9.3008-9.3008" stroke-width=".25"/>
  <path d="m58.574 13.309c-5.1367 0-9.3008 4.1641-9.3008 9.3008" stroke-width=".25"/>
  <g stroke-width=".85">
   <path d="m50.171 15.309-1 7.3008"/>
   <path d="m50.874 15.41-1.6016 7.1992"/>
   <path d="m51.472 15.609-2.1992 7"/>
   <path d="m51.972 15.809-2.8008 6.9023"/>
   <path d="m52.472 16.008-3.3008 6.6016"/>
   <path d="m53.074 16.309-3.8008 6.3008"/>
   <path d="m53.574 16.711-4.3008 5.8984"/>
  </g>
  <path d="m46.374 22.711c0-5.1367-4.1641-9.3008-9.3008-9.3008" stroke-width=".25"/>
  <path d="m36.972 13.309c-5.1367 0-9.3008 4.1641-9.3008 9.3008" stroke-width=".25"/>
  <g stroke-width=".85">
   <path d="m28.574 15.309-1 7.3008"/>
   <path d="m29.273 15.41-1.6016 7.1992"/>
   <path d="m29.874 15.609-2.2031 7"/>
   <path d="m30.374 15.809-2.8008 6.9023"/>
   <path d="m30.874 16.008-3.3008 6.6016"/>
   <path d="m31.472 16.309-3.8008 6.3008"/>
   <path d="m31.972 16.711-4.3008 5.8984"/>
  </g>
 </g>
 <g transform="translate(-209.23 -58.391)" fill="#007fff">
  <use x="279.60001" y="67.599998" xlink:href="#f"/>
  <use x="284.048" y="67.599998" xlink:href="#e"/>
  <use x="288.496" y="67.599998" xlink:href="#c"/>
  <use x="291.608" y="67.599998" xlink:href="#c"/>
  <use x="294.72" y="67.599998" xlink:href="#d"/>
  <use x="258" y="67.599998" xlink:href="#f"/>
  <use x="262.448" y="67.599998" xlink:href="#e"/>
  <use x="266.896" y="67.599998" xlink:href="#c"/>
  <use x="270.008" y="67.599998" xlink:href="#c"/>
  <use x="273.12" y="67.599998" xlink:href="#d"/>
  <use x="236.39999" y="67.599998" xlink:href="#f"/>
  <use x="240.84801" y="67.599998" xlink:href="#e"/>
  <use x="245.29601" y="67.599998" xlink:href="#c"/>
  <use x="248.408" y="67.599998" xlink:href="#c"/>
  <use x="251.52" y="67.599998" xlink:href="#d"/>
 </g>
</svg>
