<svg width="300" height="220" version="1.1" viewBox="0 0 300 220" xmlns="http://www.w3.org/2000/svg" xmlns:xlink="http://www.w3.org/1999/xlink">
 <defs>
  <g id="g">
   <path d="m1.6562-4.3125h-1.125v4.3125h1.125zm0-1.5156h-1.125v1h1.125z"/>
  </g>
  <g id="f">
   <path d="m0.5-4.3125v4.3125h1.125v-2.5938c0-0.51562 0.34375-0.84375 0.90625-0.84375 0.48438 0 0.71875 0.26562 0.71875 0.78125v2.6562h1.125v-2.8906c0-0.96875-0.53125-1.5-1.4531-1.5-0.57812 0-0.98438 0.20312-1.2969 0.6875v-0.60938z"/>
  </g>
  <g id="c">
   <path d="m1.5781-4.3125h-1.1094v6.0625h1.1094v-2.2656c0.28125 0.48438 0.65625 0.70312 1.2031 0.70312 1.0469 0 1.8125-0.96875 1.8125-2.2812 0-0.60938-0.17188-1.2188-0.46875-1.625-0.28125-0.40625-0.82812-0.67188-1.3438-0.67188-0.54688 0-0.92188 0.23438-1.2031 0.70312zm0.95312 0.85938c0.5625 0 0.9375 0.54688 0.9375 1.375 0 0.79688-0.375 1.3281-0.9375 1.3281-0.57812 0-0.95312-0.53125-0.95312-1.3438s0.375-1.3594 0.95312-1.3594z"/>
  </g>
  <g id="b">
   <path d="m4.3281 0v-4.3125h-1.125v2.7031c0 0.5-0.34375 0.84375-0.90625 0.84375-0.46875 0-0.71875-0.26562-0.71875-0.78125v-2.7656h-1.1094v3c0 0.95312 0.51562 1.5 1.4375 1.5 0.59375 0 0.98438-0.21875 1.2969-0.70312v0.51562z"/>
  </g>
  <g id="a">
   <path d="m2.4062-4.2344h-0.625v-1.1562h-1.125v1.1562h-0.54688v0.75h0.54688v2.6562c0 0.67188 0.375 1.0156 1.1094 1.0156 0.25 0 0.4375-0.03125 0.64062-0.09375v-0.78125c-0.10938 0.015625-0.17188 0.03125-0.25 0.03125-0.29688 0-0.375-0.09375-0.375-0.48438v-2.3438h0.625z"/>
  </g>
  <g id="e">
   <path d="m2.4062-4.3906c-1.3125 0-2.125 0.875-2.125 2.2812 0 1.4219 0.8125 2.2969 2.1406 2.2969 1.3125 0 2.125-0.875 2.125-2.2656 0-1.4531-0.78125-2.3125-2.1406-2.3125zm0.015625 0.90625c0.60938 0 1.0156 0.54688 1.0156 1.3906 0 0.8125-0.42188 1.375-1.0156 1.375-0.60938 0-1.0156-0.54688-1.0156-1.3906 0-0.82812 0.40625-1.375 1.0156-1.375z"/>
  </g>
  <g id="j">
   <path d="m1.1875-2.4375v2.4375h0.70312v-3.5469h-0.46875c-0.10938 0.42188-0.46875 0.64062-1.0781 0.64062v0.46875z"/>
  </g>
  <g id="i">
   <path d="m2.5625-0.625h-1.5c0.09375-0.1875 0.20312-0.29688 0.71875-0.67188 0.60938-0.45312 0.79688-0.71875 0.79688-1.2031 0-0.6875-0.48438-1.125-1.2188-1.125s-1.1719 0.4375-1.1719 1.1875v0.125h0.6875v-0.10938c0-0.39062 0.1875-0.625 0.5-0.625s0.5 0.21875 0.5 0.5625c0 0.40625-0.125 0.54688-0.90625 1.1094-0.60938 0.40625-0.78125 0.71875-0.8125 1.375h2.4062z"/>
  </g>
  <g id="h">
   <path d="m1.0781-1.5781c0.28125 0 0.29688 0 0.42188 0.03125 0.23438 0.0625 0.375 0.26562 0.375 0.53125 0 0.3125-0.21875 0.53125-0.51562 0.53125-0.32812 0-0.51562-0.1875-0.53125-0.5625h-0.6875c0.015625 0.71875 0.46875 1.1562 1.2031 1.1562 0.75 0 1.2344-0.4375 1.2344-1.125 0-0.42188-0.17188-0.6875-0.57812-0.89062 0.32812-0.20312 0.46875-0.42188 0.46875-0.75 0-0.59375-0.4375-0.96875-1.125-0.96875-0.51562 0-0.90625 0.23438-1.0625 0.60938-0.078125 0.17188-0.09375 0.29688-0.09375 0.57812h0.65625c0-0.1875 0.015625-0.28125 0.046875-0.375 0.0625-0.14062 0.23438-0.25 0.4375-0.25 0.28125 0 0.4375 0.17188 0.4375 0.46875 0 0.35938-0.20312 0.53125-0.625 0.53125h-0.0625z"/>
  </g>
  <g id="l">
   <path d="m2.0469 0h0.59375v-2.9219h-0.59375v1.9844l-1.1562-1.9844h-0.625v2.9219h0.60938v-2.0156z"/>
  </g>
  <g id="k">
   <path d="m0.85938-2.2656 0.53125 2.2656h0.59375l0.51562-2.2656v2.2656h0.60938v-2.9219h-0.90625l-0.51562 2.3281-0.53125-2.3281h-0.89062v2.9219h0.59375z"/>
  </g>
  <g id="d">
   <path d="m1.9219-1.3125h-1.3438v1.3125h1.3438z"/>
  </g>
 </defs>
 <g>
  <g stroke-linecap="round" stroke-miterlimit="10" stroke-width="2">
   <path stroke="#db015d" d="m64.597 174.88v-162"/>
   <path stroke="#db015d" d="m64.597 12.879h216"/>
   <path stroke="#db015d" d="m280.6 12.879v162"/>
   <path stroke="#db015d" d="m280.6 174.88h-216"/>
  </g>
  <g stroke-linecap="round" stroke-miterlimit="10">
   <path stroke="#007fff" d="m43 39.879h223.2"/>
   <path stroke="#007fff" d="m43 66.879h223.2"/>
   <path stroke="#007fff" d="m43 93.879h223.2"/>
   <path stroke="#007fff" d="m43 147.88h223.2"/>
  </g>
  <g stroke-linecap="round" stroke-miterlimit="10">
   <path stroke="#000000" d="m100.6 196.48v-169.2"/>
   <path stroke="#000000" d="m136.6 196.48v-169.2"/>
   <path stroke="#000000" d="m172.6 196.48v-169.2"/>
   <path stroke="#000000" d="m244.6 196.48v-169.2"/>
  </g>
  <g stroke-linecap="round" stroke-miterlimit="10">
   <path stroke="#007fff" d="m100.6 147.88c0-0.0547-0.043-0.10156-0.0977-0.10156s-0.10156 0.0469-0.10156 0.10156c0 0.0547 0.0469 0.10156 0.10156 0.10156 0.0547 0 0.0977-0.0469 0.0977-0.10156" stroke-width="6.66"/>
   <path stroke="#007fff" d="m102.65 147.88c0-1.1875-0.96484-2.1484-2.1484-2.1484-1.1875 0-2.1523 0.96094-2.1523 2.1484s0.96484 2.1484 2.1523 2.1484c1.1836 0 2.1484-0.96094 2.1484-2.1484" vector-effect="non-scaling-stroke" style="-inkscape-stroke:hairline"/>
   <path stroke="#007fff" d="m136.6 39.879c0-0.05469-0.043-0.10156-0.0977-0.10156s-0.10156 0.04687-0.10156 0.10156c0 0.05469 0.0469 0.10156 0.10156 0.10156 0.0547 0 0.0977-0.04687 0.0977-0.10156" stroke-width="6.66"/>
   <path stroke="#007fff" d="m138.65 39.879c0-1.1875-0.96484-2.1484-2.1484-2.1484-1.1875 0-2.1523 0.96094-2.1523 2.1484s0.96484 2.1484 2.1523 2.1484c1.1836 0 2.1484-0.96094 2.1484-2.1484" vector-effect="non-scaling-stroke" style="-inkscape-stroke:hairline"/>
   <path stroke="#007fff" d="m172.6 66.879c0-0.0547-0.043-0.10156-0.0977-0.10156s-0.10156 0.0469-0.10156 0.10156c0 0.0547 0.0469 0.10156 0.10156 0.10156 0.0547 0 0.0977-0.0469 0.0977-0.10156" stroke-width="6.66"/>
   <path stroke="#007fff" d="m174.65 66.879c0-1.1875-0.96484-2.1484-2.1484-2.1484-1.1875 0-2.1523 0.96094-2.1523 2.1484s0.96484 2.1484 2.1523 2.1484c1.1836 0 2.1484-0.96094 2.1484-2.1484" vector-effect="non-scaling-stroke" style="-inkscape-stroke:hairline"/>
   <path stroke="#007fff" d="m244.6 93.879c0-0.0547-0.043-0.10156-0.0977-0.10156s-0.10156 0.0469-0.10156 0.10156c0 0.0547 0.0469 0.10156 0.10156 0.10156 0.0547 0 0.0977-0.0469 0.0977-0.10156" stroke-width="6.66"/>
  </g>
  <path d="m246.65 93.879c0-1.1875-0.96484-2.1484-2.1484-2.1484-1.1875 0-2.1523 0.96094-2.1523 2.1484s0.96484 2.1484 2.1523 2.1484c1.1836 0 2.1484-0.96094 2.1484-2.1484" stroke-linecap="round" stroke-miterlimit="0" vector-effect="non-scaling-stroke" style="-inkscape-stroke:hairline"/>
  <g transform="translate(-140.6 -53.121)" fill="#000000" stroke-width=".999">
   <use x="153.3" y="94.599998" xlink:href="#g"/>
   <use x="155.524" y="94.599998" xlink:href="#f"/>
   <use x="160.412" y="94.599998" xlink:href="#c"/>
   <use x="165.3" y="94.599998" xlink:href="#b"/>
   <use x="170.188" y="94.599998" xlink:href="#a"/>
   <use x="175" y="96.599998" xlink:href="#j"/>
   <use x="153.3" y="121.6" xlink:href="#g"/>
   <use x="155.524" y="121.6" xlink:href="#f"/>
   <use x="160.412" y="121.6" xlink:href="#c"/>
   <use x="165.3" y="121.6" xlink:href="#b"/>
   <use x="170.188" y="121.6" xlink:href="#a"/>
   <use x="175" y="123.6" xlink:href="#i"/>
   <use x="153.3" y="148.60001" xlink:href="#g"/>
   <use x="155.524" y="148.60001" xlink:href="#f"/>
   <use x="160.412" y="148.60001" xlink:href="#c"/>
   <use x="165.3" y="148.60001" xlink:href="#b"/>
   <use x="170.188" y="148.60001" xlink:href="#a"/>
   <use x="175" y="150.60001" xlink:href="#h"/>
   <use x="153.2" y="202.60001" xlink:href="#g"/>
   <use x="155.424" y="202.60001" xlink:href="#f"/>
   <use x="160.312" y="202.60001" xlink:href="#c"/>
   <use x="165.2" y="202.60001" xlink:href="#b"/>
   <use x="170.088" y="202.60001" xlink:href="#a"/>
   <use x="174.89999" y="204.60001" xlink:href="#l"/>
   <use x="226.3" y="256.89999" xlink:href="#e"/>
   <use x="231.188" y="256.89999" xlink:href="#b"/>
   <use x="236.076" y="256.89999" xlink:href="#a"/>
   <use x="238.74001" y="256.89999" xlink:href="#c"/>
   <use x="243.62801" y="256.89999" xlink:href="#b"/>
   <use x="248.51601" y="256.89999" xlink:href="#a"/>
   <use x="253.3" y="258.89999" xlink:href="#j"/>
   <use x="262.29999" y="256.89999" xlink:href="#e"/>
   <use x="267.18799" y="256.89999" xlink:href="#b"/>
   <use x="272.07599" y="256.89999" xlink:href="#a"/>
   <use x="274.73999" y="256.89999" xlink:href="#c"/>
   <use x="279.62799" y="256.89999" xlink:href="#b"/>
   <use x="284.51599" y="256.89999" xlink:href="#a"/>
   <use x="289.29999" y="258.89999" xlink:href="#i"/>
   <use x="298.29999" y="256.89999" xlink:href="#e"/>
   <use x="303.18799" y="256.89999" xlink:href="#b"/>
   <use x="308.07599" y="256.89999" xlink:href="#a"/>
   <use x="310.73999" y="256.89999" xlink:href="#c"/>
   <use x="315.62799" y="256.89999" xlink:href="#b"/>
   <use x="320.51599" y="256.89999" xlink:href="#a"/>
   <use x="325.29999" y="258.89999" xlink:href="#h"/>
   <use x="370.10001" y="256.89999" xlink:href="#e"/>
   <use x="374.98801" y="256.89999" xlink:href="#b"/>
   <use x="379.87601" y="256.89999" xlink:href="#a"/>
   <use x="382.54001" y="256.89999" xlink:href="#c"/>
   <use x="387.42801" y="256.89999" xlink:href="#b"/>
   <use x="392.31601" y="256.89999" xlink:href="#a"/>
   <use x="397.10001" y="258.89999" xlink:href="#k"/>
   <use x="340.5" y="261.39999" xlink:href="#d"/>
   <use x="348" y="261.39999" xlink:href="#d"/>
   <use x="355.5" y="261.39999" xlink:href="#d"/>
   <use x="176.60001" y="175.8" xlink:href="#d"/>
   <use x="176.60001" y="180.10001" xlink:href="#d"/>
   <use x="176.60001" y="171.39999" xlink:href="#d"/>
  </g>
 </g>
</svg>
