<svg width="300" height="220" version="1.1" viewBox="0 0 300 220" xmlns="http://www.w3.org/2000/svg" xmlns:xlink="http://www.w3.org/1999/xlink">
 <defs>
  <g id="g">
   <path d="m1.6562-4.3125h-1.125v4.3125h1.125zm0-1.5156h-1.125v1h1.125z"/>
  </g>
  <g id="f">
   <path d="m.5-4.3125v4.3125h1.125v-2.5938c0-.51562.34375-.84375.90625-.84375.48438 0 .71875.26562.71875.78125v2.6562h1.125v-2.8906c0-.96875-.53125-1.5-1.4531-1.5-.57812 0-.98438.20312-1.2969.6875v-.60938z"/>
  </g>
  <g id="c">
   <path d="m1.5781-4.3125h-1.1094v6.0625h1.1094v-2.2656c.28125.48438.65625.70312 1.2031.70312 1.0469 0 1.8125-.96875 1.8125-2.2812 0-.60938-.17188-1.2188-.46875-1.625-.28125-.40625-.82812-.67188-1.3438-.67188-.54688 0-.92188.23438-1.2031.70312zm.95312.85938c.5625 0 .9375.54688.9375 1.375 0 .79688-.375 1.3281-.9375 1.3281-.57812 0-.95312-.53125-.95312-1.3438s.375-1.3594.95312-1.3594z"/>
  </g>
  <g id="b">
   <path d="m4.3281 0v-4.3125h-1.125v2.7031c0 .5-.34375.84375-.90625.84375-.46875 0-.71875-.26562-.71875-.78125v-2.7656h-1.1094v3c0 .95312.51562 1.5 1.4375 1.5.59375 0 .98438-.21875 1.2969-.70312v.51562z"/>
  </g>
  <g id="a">
   <path d="m2.4062-4.2344h-.625v-1.1562h-1.125v1.1562h-.54688v.75h.54688v2.6562c0 .67188.375 1.0156 1.1094 1.0156.25 0 .4375-.03125.64062-.09375v-.78125c-.10938.015625-.17188.03125-.25.03125-.29688 0-.375-.09375-.375-.48438v-2.3438h.625z"/>
  </g>
  <g id="e">
   <path d="m2.4062-4.3906c-1.3125 0-2.125.875-2.125 2.2812 0 1.4219.8125 2.2969 2.1406 2.2969 1.3125 0 2.125-.875 2.125-2.2656 0-1.4531-.78125-2.3125-2.1406-2.3125zm.015625.90625c.60938 0 1.0156.54688 1.0156 1.3906 0 .8125-.42188 1.375-1.0156 1.375-.60938 0-1.0156-.54688-1.0156-1.3906 0-.82812.40625-1.375 1.0156-1.375z"/>
  </g>
  <g id="j">
   <path d="m1.1875-2.4375v2.4375h.70312v-3.5469h-.46875c-.10938.42188-.46875.64062-1.0781.64062v.46875z"/>
  </g>
  <g id="i">
   <path d="m2.5625-.625h-1.5c.09375-.1875.20312-.29688.71875-.67188.60938-.45312.79688-.71875.79688-1.2031 0-.6875-.48438-1.125-1.2188-1.125s-1.1719.4375-1.1719 1.1875v.125h.6875v-.10938c0-.39062.1875-.625.5-.625s.5.21875.5.5625c0 .40625-.125.54688-.90625 1.1094-.60938.40625-.78125.71875-.8125 1.375h2.4062z"/>
  </g>
  <g id="h">
   <path d="m1.0781-1.5781c.28125 0 .29688 0 .42188.03125.23438.0625.375.26562.375.53125 0 .3125-.21875.53125-.51562.53125-.32812 0-.51562-.1875-.53125-.5625h-.6875c.015625.71875.46875 1.1562 1.2031 1.1562.75 0 1.2344-.4375 1.2344-1.125 0-.42188-.17188-.6875-.57812-.89062.32812-.20312.46875-.42188.46875-.75 0-.59375-.4375-.96875-1.125-.96875-.51562 0-.90625.23438-1.0625.60938-.078125.17188-.09375.29688-.09375.57812h.65625c0-.1875.015625-.28125.046875-.375.0625-.14062.23438-.25.4375-.25.28125 0 .4375.17188.4375.46875 0 .35938-.20312.53125-.625.53125h-.0625z"/>
  </g>
  <g id="l">
   <path d="m2.0469 0h.59375v-2.9219h-.59375v1.9844l-1.1562-1.9844h-.625v2.9219h.60938v-2.0156z"/>
  </g>
  <g id="k">
   <path d="m.85938-2.2656.53125 2.2656h.59375l.51562-2.2656v2.2656h.60938v-2.9219h-.90625l-.51562 2.3281-.53125-2.3281h-.89062v2.9219h.59375z"/>
  </g>
  <g id="d">
   <path d="m1.9219-1.3125h-1.3438v1.3125h1.3438z"/>
  </g>
 </defs>
 <g stroke-linecap="round">
  <g stroke="#db015d" stroke-miterlimit="10" stroke-width="2">
   <path d="m64.597 174.88v-162"/>
   <path d="m64.597 12.879h216"/>
   <path d="m280.6 12.879v162"/>
   <path d="m280.6 174.88h-216"/>
  </g>
  <g stroke-miterlimit="10">
   <g stroke="#007fff">
    <path d="m43 39.879h223.2"/>
    <path d="m43 66.879h223.2"/>
    <path d="m43 93.879h223.2"/>
    <path d="m43 147.88h223.2"/>
   </g>
   <g stroke="#000">
    <path d="m100.6 196.48v-169.2"/>
    <path d="m136.6 196.48v-169.2"/>
    <path d="m172.6 196.48v-169.2"/>
    <path d="m244.6 196.48v-169.2"/>
   </g>
   <g stroke="#007fff">
    <path d="m100.6 147.88c0-.0547-.043-.10156-.0977-.10156s-.10156.0469-.10156.10156c0 .0547.0469.10156.10156.10156.0547 0 .0977-.0469.0977-.10156" stroke-width="6.66"/>
    <path d="m102.65 147.88c0-1.1875-.96484-2.1484-2.1484-2.1484-1.1875 0-2.1523.96094-2.1523 2.1484s.96484 2.1484 2.1523 2.1484c1.1836 0 2.1484-.96094 2.1484-2.1484" vector-effect="non-scaling-stroke" style="-inkscape-stroke:hairline"/>
    <path d="m136.6 39.879c0-.05469-.043-.10156-.0977-.10156s-.10156.04687-.10156.10156.0469.10156.10156.10156c.0547 0 .0977-.04687.0977-.10156" stroke-width="6.66"/>
    <path d="m138.65 39.879c0-1.1875-.96484-2.1484-2.1484-2.1484-1.1875 0-2.1523.96094-2.1523 2.1484s.96484 2.1484 2.1523 2.1484c1.1836 0 2.1484-.96094 2.1484-2.1484" vector-effect="non-scaling-stroke" style="-inkscape-stroke:hairline"/>
    <path d="m172.6 66.879c0-.0547-.043-.10156-.0977-.10156s-.10156.0469-.10156.10156c0 .0547.0469.10156.10156.10156.0547 0 .0977-.0469.0977-.10156" stroke-width="6.66"/>
    <path d="m174.65 66.879c0-1.1875-.96484-2.1484-2.1484-2.1484-1.1875 0-2.1523.96094-2.1523 2.1484s.96484 2.1484 2.1523 2.1484c1.1836 0 2.1484-.96094 2.1484-2.1484" vector-effect="non-scaling-stroke" style="-inkscape-stroke:hairline"/>
    <path d="m244.6 93.879c0-.0547-.043-.10156-.0977-.10156s-.10156.0469-.10156.10156c0 .0547.0469.10156.10156.10156.0547 0 .0977-.0469.0977-.10156" stroke-width="6.66"/>
   </g>
  </g>
  <path d="m246.65 93.879c0-1.1875-.96484-2.1484-2.1484-2.1484-1.1875 0-2.1523.96094-2.1523 2.1484s.96484 2.1484 2.1523 2.1484c1.1836 0 2.1484-.96094 2.1484-2.1484" stroke-miterlimit="0" vector-effect="non-scaling-stroke" style="-inkscape-stroke:hairline"/>
 </g>
 <g transform="translate(-140.6 -53.121)" stroke-width=".999">
  <use x="153.3" y="94.599998" xlink:href="#g"/>
  <use x="155.524" y="94.599998" xlink:href="#f"/>
  <use x="160.412" y="94.599998" xlink:href="#c"/>
  <use x="165.3" y="94.599998" xlink:href="#b"/>
  <use x="170.188" y="94.599998" xlink:href="#a"/>
  <use x="175" y="96.599998" xlink:href="#j"/>
  <use x="153.3" y="121.6" xlink:href="#g"/>
  <use x="155.524" y="121.6" xlink:href="#f"/>
  <use x="160.412" y="121.6" xlink:href="#c"/>
  <use x="165.3" y="121.6" xlink:href="#b"/>
  <use x="170.188" y="121.6" xlink:href="#a"/>
  <use x="175" y="123.6" xlink:href="#i"/>
  <use x="153.3" y="148.60001" xlink:href="#g"/>
  <use x="155.524" y="148.60001" xlink:href="#f"/>
  <use x="160.412" y="148.60001" xlink:href="#c"/>
  <use x="165.3" y="148.60001" xlink:href="#b"/>
  <use x="170.188" y="148.60001" xlink:href="#a"/>
  <use x="175" y="150.60001" xlink:href="#h"/>
  <use x="153.2" y="202.60001" xlink:href="#g"/>
  <use x="155.424" y="202.60001" xlink:href="#f"/>
  <use x="160.312" y="202.60001" xlink:href="#c"/>
  <use x="165.2" y="202.60001" xlink:href="#b"/>
  <use x="170.088" y="202.60001" xlink:href="#a"/>
  <use x="174.89999" y="204.60001" xlink:href="#l"/>
  <use x="226.3" y="256.89999" xlink:href="#e"/>
  <use x="231.188" y="256.89999" xlink:href="#b"/>
  <use x="236.076" y="256.89999" xlink:href="#a"/>
  <use x="238.74001" y="256.89999" xlink:href="#c"/>
  <use x="243.62801" y="256.89999" xlink:href="#b"/>
  <use x="248.51601" y="256.89999" xlink:href="#a"/>
  <use x="253.3" y="258.89999" xlink:href="#j"/>
  <use x="262.29999" y="256.89999" xlink:href="#e"/>
  <use x="267.18799" y="256.89999" xlink:href="#b"/>
  <use x="272.07599" y="256.89999" xlink:href="#a"/>
  <use x="274.73999" y="256.89999" xlink:href="#c"/>
  <use x="279.62799" y="256.89999" xlink:href="#b"/>
  <use x="284.51599" y="256.89999" xlink:href="#a"/>
  <use x="289.29999" y="258.89999" xlink:href="#i"/>
  <use x="298.29999" y="256.89999" xlink:href="#e"/>
  <use x="303.18799" y="256.89999" xlink:href="#b"/>
  <use x="308.07599" y="256.89999" xlink:href="#a"/>
  <use x="310.73999" y="256.89999" xlink:href="#c"/>
  <use x="315.62799" y="256.89999" xlink:href="#b"/>
  <use x="320.51599" y="256.89999" xlink:href="#a"/>
  <use x="325.29999" y="258.89999" xlink:href="#h"/>
  <use x="370.10001" y="256.89999" xlink:href="#e"/>
  <use x="374.98801" y="256.89999" xlink:href="#b"/>
  <use x="379.87601" y="256.89999" xlink:href="#a"/>
  <use x="382.54001" y="256.89999" xlink:href="#c"/>
  <use x="387.42801" y="256.89999" xlink:href="#b"/>
  <use x="392.31601" y="256.89999" xlink:href="#a"/>
  <use x="397.10001" y="258.89999" xlink:href="#k"/>
  <use x="340.5" y="261.39999" xlink:href="#d"/>
  <use x="348" y="261.39999" xlink:href="#d"/>
  <use x="355.5" y="261.39999" xlink:href="#d"/>
  <use x="176.60001" y="175.8" xlink:href="#d"/>
  <use x="176.60001" y="180.10001" xlink:href="#d"/>
  <use x="176.60001" y="171.39999" xlink:href="#d"/>
 </g>
</svg>
