<svg width="290" height="93" version="1.1" viewBox="0 0 290 93" xmlns="http://www.w3.org/2000/svg" xmlns:xlink="http://www.w3.org/1999/xlink">
 <defs>
  <g id="k">
   <path d="m4.1719-2.7031c-.078125-1.0625-.76562-1.6875-1.8594-1.6875-1.2969 0-2.0469.84375-2.0469 2.3125 0 1.4375.75 2.2656 2.0312 2.2656 1.0469 0 1.7812-.65625 1.875-1.6875h-1.0625c-.14062.5625-.35938.78125-.8125.78125-.5625 0-.90625-.5-.90625-1.3594 0-.40625.078125-.78125.21875-1.0469.125-.23438.375-.35938.6875-.35938.46875 0 .67188.21875.8125.78125z"/>
  </g>
  <g id="j">
   <path d="m2.4062-4.3906c-1.3125 0-2.125.875-2.125 2.2812 0 1.4219.8125 2.2969 2.1406 2.2969 1.3125 0 2.125-.875 2.125-2.2656 0-1.4531-.78125-2.3125-2.1406-2.3125zm.015625.90625c.60938 0 1.0156.54688 1.0156 1.3906 0 .8125-.42188 1.375-1.0156 1.375-.60938 0-1.0156-.54688-1.0156-1.3906 0-.82812.40625-1.375 1.0156-1.375z"/>
  </g>
  <g id="d">
   <path d="m.5-4.3125v4.3125h1.125v-2.5938c0-.51562.34375-.84375.90625-.84375.48438 0 .71875.26562.71875.78125v2.6562h1.125v-2.8906c0-.96875-.53125-1.5-1.4531-1.5-.57812 0-.98438.20312-1.2969.6875v-.60938z"/>
  </g>
  <g id="i">
   <path d="m2.4062-4.2344h-.625v-1.1562h-1.125v1.1562h-.54688v.75h.54688v2.6562c0 .67188.375 1.0156 1.1094 1.0156.25 0 .4375-.03125.64062-.09375v-.78125c-.10938.015625-.17188.03125-.25.03125-.29688 0-.375-.09375-.375-.48438v-2.3438h.625z"/>
  </g>
  <g id="h">
   <path d="m.5-4.3125v4.3125h1.125v-2.2969c0-.65625.32812-.98438.98438-.98438.125 0 .20312.015625.34375.03125v-1.1406h-.125c-.51562 0-.95312.32812-1.2031.92188v-.84375z"/>
  </g>
  <g id="c">
   <path d="m1.6562-5.8281h-1.125v5.8281h1.125z"/>
  </g>
  <g id="e">
   <path d="m1.6562-4.3125h-1.125v4.3125h1.125zm0-1.5156h-1.125v1h1.125z"/>
  </g>
  <g id="b">
   <path d="m4.1875-1.8125c.015625-.09375.015625-.125.015625-.1875 0-.4375-.0625-.82812-.17188-1.1406-.28125-.78125-.98438-1.25-1.8594-1.25-1.2344 0-2 .89062-2 2.3438 0 1.3906.75 2.2344 1.9844 2.2344.96875 0 1.75-.54688 2-1.4062h-1.1094c-.14062.34375-.45312.54688-.85938.54688-.3125 0-.57812-.14062-.73438-.375-.09375-.15625-.14062-.35938-.15625-.76562zm-2.875-.73438c.078125-.67188.34375-.98438.84375-.98438.51562 0 .8125.34375.875.98438z"/>
  </g>
  <g id="a">
   <path d="m4.0469-2.9219c-.015625-.92188-.73438-1.4688-1.8906-1.4688-1.0938 0-1.7656.54688-1.7656 1.4375 0 .29688.078125.53125.23438.70312.15625.15625.28125.21875.70312.35938l1.3281.42188c.28125.078125.39062.17188.39062.34375 0 .26562-.3125.42188-.84375.42188-.29688 0-.51562-.046875-.65625-.14062-.125-.09375-.17188-.1875-.21875-.40625h-1.0938c.03125.95312.71875 1.4375 2.0312 1.4375.60938 0 1.0625-.125 1.375-.39062.32812-.25.51562-.65625.51562-1.0781 0-.5625-.28125-.92188-.84375-1.0938l-1.4219-.40625c-.3125-.09375-.39062-.15625-.39062-.32812 0-.25.26562-.40625.65625-.40625.53125 0 .79688.20312.79688.59375z"/>
  </g>
  <g id="g">
   <path d="m4.1875-.14062c-.1875-.17188-.25-.3125-.25-.51562v-2.4062c0-.875-.59375-1.3281-1.7656-1.3281s-1.7812.5-1.8594 1.5h1.0938c.046875-.45312.23438-.59375.78125-.59375.4375 0 .65625.14062.65625.42188 0 .15625-.078125.26562-.20312.34375-.14062.078125-.14062.078125-.70312.17188l-.4375.078125c-.85938.14062-1.2812.57812-1.2812 1.3594 0 .76562.53125 1.2969 1.3125 1.2969.48438 0 .92188-.20312 1.3125-.625 0 .23438.03125.3125.125.4375h1.2188zm-1.3438-1.5938c0 .64062-.32812 1.0156-.89062 1.0156-.375 0-.60938-.20312-.60938-.51562 0-.34375.17188-.5.64062-.59375l.39062-.078125c.28125-.046875.34375-.0625.46875-.14062z"/>
  </g>
  <g id="f">
   <path d="m3.2344 0h1.125v-5.8281h-1.125v2.0625c-.28125-.42188-.64062-.625-1.1875-.625-1.0312 0-1.8125.98438-1.8125 2.2969 0 .57812.17188 1.1719.46875 1.5938.28125.42188.8125.6875 1.3438.6875.54688 0 .90625-.20312 1.1875-.625zm-.9375-3.4531c.5625 0 .9375.54688.9375 1.375 0 .78125-.375 1.3281-.9375 1.3281s-.9375-.54688-.9375-1.3438c0-.8125.375-1.3594.9375-1.3594z"/>
  </g>
 </defs>
 <g fill="#f60" stroke="#f60" stroke-linecap="round" stroke-miterlimit="10" stroke-width=".66667">
  <path d="m4.7859 31.854v57.598"/>
  <path d="m11.985 31.854v57.598"/>
  <path d="m19.184 31.854v57.598"/>
  <path d="m26.384 31.854v57.598"/>
  <path d="m33.583 31.854v57.598"/>
  <path d="m40.786 31.854v57.598"/>
 </g>
 <g fill="#0f0" stroke="#0f0" stroke-linecap="round" stroke-miterlimit="10" stroke-width=".66667">
  <path d="m55.184 31.854v57.598"/>
  <path d="m62.384 31.854v57.598"/>
  <path d="m69.583 31.854v57.598"/>
  <path d="m76.786 31.854v57.598"/>
  <path d="m83.985 31.854v57.598"/>
  <path d="m91.184 31.854v57.598"/>
  <path d="m98.384 31.854v57.598"/>
  <path d="m105.58 31.854v57.598"/>
  <path d="m112.79 31.854v57.598"/>
  <path d="m119.99 31.854v57.598"/>
  <path d="m127.18 31.854v57.598"/>
  <path d="m134.38 31.854v57.598"/>
  <path d="m141.58 31.854v57.598"/>
  <path d="m148.79 31.854v57.598"/>
  <path d="m155.99 31.854v57.598"/>
  <path d="m163.18 31.854v57.598"/>
 </g>
 <g fill="none" stroke-linecap="round" stroke-miterlimit="10" stroke-width=".66667">
  <g stroke="#007cf8">
   <path d="m177.58 31.854v57.598"/>
   <path d="m184.79 31.854v57.598"/>
   <path d="m191.99 31.854v57.598"/>
   <path d="m199.18 31.854v57.598"/>
   <path d="m206.38 31.854v57.598"/>
   <path d="m213.58 31.854v57.598"/>
   <path d="m220.79 31.854v57.598"/>
   <path d="m227.99 31.854v57.598"/>
   <path d="m235.18 31.854v57.598"/>
   <path d="m242.38 31.854v57.598"/>
   <path d="m249.58 31.854v57.598"/>
   <path d="m256.79 31.854v57.598"/>
   <path d="m263.99 31.854v57.598"/>
   <path d="m271.18 31.854v57.598"/>
   <path d="m278.38 31.854v57.598"/>
   <path d="m285.58 31.854v57.598"/>
  </g>
  <g stroke="#000">
   <path d="m8.3835 24.655c-1.9883 0-3.5977 1.6094-3.5977 3.5977"/>
   <path d="m8.3835 24.655h10.801"/>
   <path d="m19.184 24.655c1.9883 0 3.6016-1.6133 3.6016-3.6016"/>
   <path d="m22.786 21.053c0 1.9883 1.6094 3.6016 3.5977 3.6016"/>
   <path d="m26.384 24.655h10.801"/>
   <path d="m40.786 28.253c0-1.9883-1.6133-3.5977-3.6016-3.5977"/>
   <path d="m58.786 24.655c-1.9883 0-3.6016 1.6094-3.6016 3.5977"/>
   <path d="m58.786 24.655h46.797"/>
   <path d="m105.58 24.655c1.9883 0 3.6016-1.6133 3.6016-3.6016"/>
   <path d="m109.18 21.053c0 1.9883 1.6133 3.6016 3.6016 3.6016"/>
   <path d="m112.79 24.655h46.797"/>
   <path d="m163.18 28.253c0-1.9883-1.6133-3.5977-3.6016-3.5977"/>
   <path d="m181.18 24.655c-1.9883 0-3.6016 1.6094-3.6016 3.5977"/>
   <path d="m181.18 24.655h46.801"/>
   <path d="m227.99 24.655c1.9883 0 3.5977-1.6133 3.5977-3.6016"/>
   <path d="m231.58 21.053c0 1.9883 1.6133 3.6016 3.6016 3.6016"/>
   <path d="m235.18 24.655h46.801"/>
   <path d="m285.58 28.253c0-1.9883-1.6094-3.5977-3.5977-3.5977"/>
  </g>
 </g>
 <g>
  <g transform="translate(-142.82 -51.947)" fill="#ff0000">
   <use x="152.10001" y="60.099998" xlink:href="#k"/>
   <use x="156.548" y="60.099998" xlink:href="#j"/>
   <use x="161.436" y="60.099998" xlink:href="#d"/>
   <use x="166.32401" y="60.099998" xlink:href="#i"/>
   <use x="168.98801" y="60.099998" xlink:href="#h"/>
   <use x="172.10001" y="60.099998" xlink:href="#j"/>
   <use x="176.98801" y="60.099998" xlink:href="#c"/>
   <use x="156.5" y="69.099998" xlink:href="#c"/>
   <use x="158.724" y="69.099998" xlink:href="#e"/>
   <use x="160.948" y="69.099998" xlink:href="#d"/>
   <use x="165.836" y="69.099998" xlink:href="#b"/>
   <use x="170.284" y="69.099998" xlink:href="#a"/>
  </g>
  <g transform="translate(-142.82 -51.947)" fill="#ffff00">
   <use x="236.60001" y="60.099998" xlink:href="#g"/>
   <use x="241.048" y="60.099998" xlink:href="#f"/>
   <use x="245.936" y="60.099998" xlink:href="#f"/>
   <use x="250.82401" y="60.099998" xlink:href="#h"/>
   <use x="253.936" y="60.099998" xlink:href="#b"/>
   <use x="258.384" y="60.099998" xlink:href="#a"/>
   <use x="262.832" y="60.099998" xlink:href="#a"/>
   <use x="242.89999" y="69.099998" xlink:href="#c"/>
   <use x="245.12399" y="69.099998" xlink:href="#e"/>
   <use x="247.34801" y="69.099998" xlink:href="#d"/>
   <use x="252.23599" y="69.099998" xlink:href="#b"/>
   <use x="256.68399" y="69.099998" xlink:href="#a"/>
  </g>
  <g transform="translate(-142.82 -51.947)" fill="#ff00ff">
   <use x="366.20001" y="60.099998" xlink:href="#f"/>
   <use x="371.08801" y="60.099998" xlink:href="#g"/>
   <use x="375.53601" y="60.099998" xlink:href="#i"/>
   <use x="378.20001" y="60.099998" xlink:href="#g"/>
   <use x="365.29999" y="69.099998" xlink:href="#c"/>
   <use x="367.52399" y="69.099998" xlink:href="#e"/>
   <use x="369.74799" y="69.099998" xlink:href="#d"/>
   <use x="374.63599" y="69.099998" xlink:href="#b"/>
   <use x="379.08401" y="69.099998" xlink:href="#a"/>
  </g>
 </g>
</svg>
