<svg width="340" height="135" version="1.1" viewBox="0 0 340 135" xmlns="http://www.w3.org/2000/svg" xmlns:xlink="http://www.w3.org/1999/xlink">
 <defs>
  <g id="p">
   <path d="m3.2344 0h1.125v-5.8281h-1.125v2.0625c-.28125-.42188-.64062-.625-1.1875-.625-1.0312 0-1.8125.98438-1.8125 2.2969 0 .57812.17188 1.1719.46875 1.5938.28125.42188.8125.6875 1.3438.6875.54688 0 .90625-.20312 1.1875-.625zm-.9375-3.4531c.5625 0 .9375.54688.9375 1.375 0 .78125-.375 1.3281-.9375 1.3281s-.9375-.54688-.9375-1.3438c0-.8125.375-1.3594.9375-1.3594z"/>
  </g>
  <g id="f">
   <path d="m4.1875-.14062c-.1875-.17188-.25-.3125-.25-.51562v-2.4062c0-.875-.59375-1.3281-1.7656-1.3281s-1.7812.5-1.8594 1.5h1.0938c.046875-.45312.23438-.59375.78125-.59375.4375 0 .65625.14062.65625.42188 0 .15625-.078125.26562-.20312.34375-.14062.078125-.14062.078125-.70312.17188l-.4375.078125c-.85938.14062-1.2812.57812-1.2812 1.3594 0 .76562.53125 1.2969 1.3125 1.2969.48438 0 .92188-.20312 1.3125-.625 0 .23438.03125.3125.125.4375h1.2188zm-1.3438-1.5938c0 .64062-.32812 1.0156-.89062 1.0156-.375 0-.60938-.20312-.60938-.51562 0-.34375.17188-.5.64062-.59375l.39062-.078125c.28125-.046875.34375-.0625.46875-.14062z"/>
  </g>
  <g id="e">
   <path d="m2.4062-4.2344h-.625v-1.1562h-1.125v1.1562h-.54688v.75h.54688v2.6562c0 .67188.375 1.0156 1.1094 1.0156.25 0 .4375-.03125.64062-.09375v-.78125c-.10938.015625-.17188.03125-.25.03125-.29688 0-.375-.09375-.375-.48438v-2.3438h.625z"/>
  </g>
  <g id="c">
   <path d="m.5-4.3125v4.3125h1.125v-2.2969c0-.65625.32812-.98438.98438-.98438.125 0 .20312.015625.34375.03125v-1.1406h-.125c-.51562 0-.95312.32812-1.2031.92188v-.84375z"/>
  </g>
  <g id="h">
   <path d="m.5-4.3125v4.3125h1.125v-2.5938c0-.51562.34375-.84375.90625-.84375.48438 0 .71875.26562.71875.78125v2.6562h1.125v-2.8906c0-.96875-.53125-1.5-1.4531-1.5-.57812 0-.98438.20312-1.2969.6875v-.60938z"/>
  </g>
  <g id="d">
   <path d="m4.0469-2.9219c-.015625-.92188-.73438-1.4688-1.8906-1.4688-1.0938 0-1.7656.54688-1.7656 1.4375 0 .29688.078125.53125.23438.70312.15625.15625.28125.21875.70312.35938l1.3281.42188c.28125.078125.39062.17188.39062.34375 0 .26562-.3125.42188-.84375.42188-.29688 0-.51562-.046875-.65625-.14062-.125-.09375-.17188-.1875-.21875-.40625h-1.0938c.03125.95312.71875 1.4375 2.0312 1.4375.60938 0 1.0625-.125 1.375-.39062.32812-.25.51562-.65625.51562-1.0781 0-.5625-.28125-.92188-.84375-1.0938l-1.4219-.40625c-.3125-.09375-.39062-.15625-.39062-.32812 0-.25.26562-.40625.65625-.40625.53125 0 .79688.20312.79688.59375z"/>
  </g>
  <g id="w">
   <path d="m2.5-4.2344h-.65625v-.42188c0-.21875.09375-.32812.29688-.32812.10938 0 .21875 0 .32812.015625v-.84375c-.25-.015625-.48438-.015625-.64062-.015625-.75 0-1.1094.34375-1.1094 1.0781v.51562h-.60938v.75h.60938v3.4844h1.125v-3.4844h.65625z"/>
  </g>
  <g id="b">
   <path d="m4.1875-1.8125c.015625-.09375.015625-.125.015625-.1875 0-.4375-.0625-.82812-.17188-1.1406-.28125-.78125-.98438-1.25-1.8594-1.25-1.2344 0-2 .89062-2 2.3438 0 1.3906.75 2.2344 1.9844 2.2344.96875 0 1.75-.54688 2-1.4062h-1.1094c-.14062.34375-.45312.54688-.85938.54688-.3125 0-.57812-.14062-.73438-.375-.09375-.15625-.14062-.35938-.15625-.76562zm-2.875-.73438c.078125-.67188.34375-.98438.84375-.98438.51562 0 .8125.34375.875.98438z"/>
  </g>
  <g id="k">
   <path d="m.48438-4.3125v4.3125h1.1094v-2.5938c0-.53125.29688-.84375.78125-.84375.375 0 .59375.21875.59375.5625v2.875h1.125v-2.5938c0-.53125.29688-.84375.76562-.84375.375 0 .60938.21875.60938.5625v2.875h1.125v-3.0625c0-.82812-.51562-1.3281-1.375-1.3281-.5625 0-.9375.1875-1.2656.64062-.20312-.40625-.64062-.64062-1.1719-.64062-.5 0-.82812.15625-1.1875.60938v-.53125z"/>
  </g>
  <g id="i">
   <path d="m4.1719-2.7031c-.078125-1.0625-.76562-1.6875-1.8594-1.6875-1.2969 0-2.0469.84375-2.0469 2.3125 0 1.4375.75 2.2656 2.0312 2.2656 1.0469 0 1.7812-.65625 1.875-1.6875h-1.0625c-.14062.5625-.35938.78125-.8125.78125-.5625 0-.90625-.5-.90625-1.3594 0-.40625.078125-.78125.21875-1.0469.125-.23438.375-.35938.6875-.35938.46875 0 .67188.21875.8125.78125z"/>
  </g>
  <g id="v">
   <path d="m.53125-5.8281v5.8281h1.125v-2.5938c0-.5.35938-.84375.85938-.84375.25 0 .4375.078125.5625.26562.10938.14062.125.26562.125.53125v2.6406h1.125v-2.8906c0-.54688-.14062-.92188-.4375-1.1719-.25-.20312-.60938-.32812-.96875-.32812-.54688 0-.95312.21875-1.2656.6875v-2.125z"/>
  </g>
  <g id="g">
   <path d="m1.6562-4.3125h-1.125v4.3125h1.125zm0-1.5156h-1.125v1h1.125z"/>
  </g>
  <g id="j">
   <path d="m2.4062-4.3906c-1.3125 0-2.125.875-2.125 2.2812 0 1.4219.8125 2.2969 2.1406 2.2969 1.3125 0 2.125-.875 2.125-2.2656 0-1.4531-.78125-2.3125-2.1406-2.3125zm.015625.90625c.60938 0 1.0156.54688 1.0156 1.3906 0 .8125-.42188 1.375-1.0156 1.375-.60938 0-1.0156-.54688-1.0156-1.3906 0-.82812.40625-1.375 1.0156-1.375z"/>
  </g>
  <g id="m">
   <path d="m1.5781-4.3125h-1.1094v6.0625h1.1094v-2.2656c.28125.48438.65625.70312 1.2031.70312 1.0469 0 1.8125-.96875 1.8125-2.2812 0-.60938-.17188-1.2188-.46875-1.625-.28125-.40625-.82812-.67188-1.3438-.67188-.54688 0-.92188.23438-1.2031.70312zm.95312.85938c.5625 0 .9375.54688.9375 1.375 0 .79688-.375 1.3281-.9375 1.3281-.57812 0-.95312-.53125-.95312-1.3438s.375-1.3594.95312-1.3594z"/>
  </g>
  <g id="u">
   <path d="m1.9062-3.9062v3.9062h1.125v-5.6719h-.75c-.17188.67188-.76562 1.0156-1.7344 1.0156v.75z"/>
  </g>
  <g id="t">
   <path d="m4.0938-1h-2.4062c.15625-.29688.32812-.46875 1.1562-1.0781.98438-.71875 1.2812-1.1406 1.2812-1.9062 0-1.1094-.76562-1.8125-1.9531-1.8125-1.1719 0-1.8594.70312-1.8594 1.9062v.1875h1.0781v-.17188c0-.64062.29688-1 .8125-1 .5 0 .79688.34375.79688.90625 0 .625-.1875.85938-1.4531 1.7656-.96875.65625-1.2656 1.1406-1.3125 2.2031h3.8594z"/>
  </g>
  <g id="s">
   <path d="m4.0156-1.1719.375 1.1719h1.2344l-2.0156-5.8281h-1.3281l-2.0781 5.8281h1.2344l.39062-1.1719zm-.32812-1h-1.5312l.76562-2.2812z"/>
  </g>
  <g id="r">
   <path d="m1.8438-5.8281h-1.2031v5.8281h3.9844v-1h-2.7812z"/>
  </g>
  <g id="l">
   <path d="m3.2031-4.3125v.65625c-.3125-.5-.65625-.73438-1.1094-.73438-.39062 0-.8125.1875-1.1094.5-.4375.45312-.65625 1.0781-.65625 1.8281 0 1.3281.70312 2.25 1.7344 2.25.46875 0 .75-.15625 1.1406-.625v.57812c0 .51562-.375.89062-.90625.89062-.39062 0-.64062-.1875-.73438-.51562h-1.1406c0 .34375.125.57812.42188.8125.34375.28125.8125.42188 1.4219.42188 1.25 0 2-.60938 2-1.6094v-4.4531zm-.90625.85938c.53125 0 .92188.57812.92188 1.375s-.375 1.3281-.9375 1.3281c-.48438 0-.82812-.53125-.82812-1.3281 0-.8125.34375-1.375.84375-1.375z"/>
  </g>
  <g id="q">
   <path d="m4.0312-5.8281v3.9531c0 .70312-.35938 1.0312-1.1094 1.0312s-1.1094-.32812-1.1094-1.0312v-3.9531h-1.2031v3.9531c0 .65625.17188 1.1094.5625 1.4688.42188.375 1.0469.59375 1.75.59375s1.3125-.21875 1.7344-.59375c.40625-.35938.57812-.8125.57812-1.4688v-3.9531z"/>
  </g>
  <g id="z">
   <path d="m1.625-5.8281c-.92188 1.3906-1.3125 2.4688-1.3125 3.7031 0 1.25.39062 2.3281 1.3125 3.7188h.79688c-.85938-1.6406-1.125-2.5312-1.125-3.7188 0-1.1719.28125-2.0781 1.125-3.7031z"/>
  </g>
  <g id="y">
   <path d="m.96875 1.5938c.92188-1.3906 1.3125-2.4688 1.3125-3.7031 0-1.25-.39062-2.3281-1.3125-3.7188h-.79688c.85938 1.6406 1.125 2.5312 1.125 3.7188 0 1.1719-.26562 2.0781-1.125 3.7031z"/>
  </g>
  <g id="o">
   <path d="m4.3281 0v-4.3125h-1.125v2.7031c0 .5-.34375.84375-.90625.84375-.46875 0-.71875-.26562-.71875-.78125v-2.7656h-1.1094v3c0 .95312.51562 1.5 1.4375 1.5.59375 0 .98438-.21875 1.2969-.70312v.51562z"/>
  </g>
  <g id="n">
   <path d="m1.6562-5.8281h-1.125v5.8281h1.125z"/>
  </g>
  <g id="x">
   <path d="m2.3906-2.7344h-2.1875v1.0781h2.1875z"/>
  </g>
  <g id="a">
   <path d="m.625-.5c-.15625 0-.28125.125-.28125.28125s.125.28125.28125.28125.28125-.125.28125-.28125-.125-.28125-.28125-.28125z"/>
  </g>
 </defs>
 <g fill="none" stroke="#000" stroke-linecap="round" stroke-miterlimit="10" stroke-width=".66667">
  <path d="m17.167 112.08h306"/>
  <path d="m323.17 112.08v-6.1992"/>
  <path d="m323.17 105.88 12.602 12.602"/>
  <path d="m335.77 118.48-12.602 12.598"/>
  <path d="m323.17 131.08v-6.1992"/>
  <path d="m323.17 124.68h-306"/>
  <path d="m17.167 124.68v6.1992"/>
  <path d="m17.167 131.08-12.602-12.598"/>
  <path d="m4.5651 118.48 12.602-12.602"/>
  <path d="m17.167 105.88v6.1992"/>
 </g>
 <g transform="translate(-117.83 -58.119)" fill="#ff6600">
  <use x="240.60001" y="180.10001" xlink:href="#p"/>
  <use x="245.48801" y="180.10001" xlink:href="#f"/>
  <use x="249.936" y="180.10001" xlink:href="#e"/>
  <use x="252.60001" y="180.10001" xlink:href="#f"/>
  <use x="259.29999" y="180.10001" xlink:href="#e"/>
  <use x="261.96399" y="180.10001" xlink:href="#c"/>
  <use x="265.07599" y="180.10001" xlink:href="#f"/>
  <use x="269.52399" y="180.10001" xlink:href="#h"/>
  <use x="274.41199" y="180.10001" xlink:href="#d"/>
  <use x="278.85999" y="180.10001" xlink:href="#w"/>
  <use x="281.52399" y="180.10001" xlink:href="#b"/>
  <use x="285.97198" y="180.10001" xlink:href="#c"/>
  <use x="291.29999" y="180.10001" xlink:href="#k"/>
  <use x="298.41199" y="180.10001" xlink:href="#b"/>
  <use x="302.85999" y="180.10001" xlink:href="#i"/>
  <use x="307.30798" y="180.10001" xlink:href="#v"/>
  <use x="312.19598" y="180.10001" xlink:href="#f"/>
  <use x="316.64398" y="180.10001" xlink:href="#h"/>
  <use x="321.53198" y="180.10001" xlink:href="#g"/>
  <use x="323.75598" y="180.10001" xlink:href="#d"/>
  <use x="328.20398" y="180.10001" xlink:href="#k"/>
 </g>
 <g fill="none" stroke="#000" stroke-linecap="round" stroke-miterlimit="10" stroke-width=".66667">
  <path d="m17.167 89.08v-14.398"/>
  <path d="m17.167 74.682h54"/>
  <path d="m71.167 74.682v14.398"/>
  <path d="m71.167 89.08h-54"/>
 </g>
 <g transform="translate(-117.83 -58.119)" fill="#00ff00">
  <use x="142.8" y="143" xlink:href="#j"/>
  <use x="147.688" y="143" xlink:href="#m"/>
  <use x="152.576" y="143" xlink:href="#b"/>
  <use x="157.024" y="143" xlink:href="#c"/>
  <use x="160.136" y="143" xlink:href="#f"/>
  <use x="164.584" y="143" xlink:href="#h"/>
  <use x="169.472" y="143" xlink:href="#p"/>
  <use x="176.7" y="143" xlink:href="#u"/>
 </g>
 <g fill="none" stroke="#000" stroke-linecap="round" stroke-miterlimit="10" stroke-width=".66667">
  <path d="m78.366 89.08v-14.398"/>
  <path d="m78.366 74.682h54"/>
  <path d="m132.37 74.682v14.398"/>
  <path d="m132.37 89.08h-54"/>
 </g>
 <g transform="translate(-117.83 -58.119)" fill="#00ff00">
  <use x="204" y="143" xlink:href="#j"/>
  <use x="208.888" y="143" xlink:href="#m"/>
  <use x="213.776" y="143" xlink:href="#b"/>
  <use x="218.224" y="143" xlink:href="#c"/>
  <use x="221.336" y="143" xlink:href="#f"/>
  <use x="225.784" y="143" xlink:href="#h"/>
  <use x="230.672" y="143" xlink:href="#p"/>
  <use x="237.89999" y="143" xlink:href="#t"/>
 </g>
 <g fill="none" stroke="#000" stroke-linecap="round" stroke-miterlimit="10" stroke-width=".66667">
  <path d="m44.167 51.682v-46.801"/>
  <path d="m44.167 4.8807h54"/>
  <path d="m98.167 4.8807v46.801"/>
  <path d="m98.167 51.682h-54"/>
 </g>
 <g transform="translate(-117.83 -58.119)" fill="#00ffff">
  <use x="169.3" y="74.5" xlink:href="#s"/>
  <use x="175.076" y="74.5" xlink:href="#c"/>
  <use x="178.188" y="74.5" xlink:href="#g"/>
  <use x="180.412" y="74.5" xlink:href="#e"/>
  <use x="183.076" y="74.5" xlink:href="#v"/>
  <use x="187.964" y="74.5" xlink:href="#k"/>
  <use x="195.076" y="74.5" xlink:href="#b"/>
  <use x="199.524" y="74.5" xlink:href="#e"/>
  <use x="202.188" y="74.5" xlink:href="#g"/>
  <use x="204.412" y="74.5" xlink:href="#i"/>
  <use x="178.3" y="83.5" xlink:href="#r"/>
  <use x="183.188" y="83.5" xlink:href="#j"/>
  <use x="188.076" y="83.5" xlink:href="#l"/>
  <use x="192.964" y="83.5" xlink:href="#g"/>
  <use x="195.188" y="83.5" xlink:href="#i"/>
  <use x="181.3" y="92.5" xlink:href="#q"/>
  <use x="187.076" y="92.5" xlink:href="#h"/>
  <use x="191.964" y="92.5" xlink:href="#g"/>
  <use x="194.188" y="92.5" xlink:href="#e"/>
  <use x="178.2" y="101.5" xlink:href="#z"/>
  <use x="180.864" y="101.5" xlink:href="#s"/>
  <use x="186.64" y="101.5" xlink:href="#r"/>
  <use x="191.528" y="101.5" xlink:href="#q"/>
  <use x="197.304" y="101.5" xlink:href="#y"/>
 </g>
 <g fill="none" stroke="#000" stroke-linecap="round" stroke-miterlimit="10" stroke-width=".66667">
  <path d="m128.77 35.482v-14.402"/>
  <path d="m128.77 21.08h54"/>
  <path d="m182.77 21.08v14.402"/>
  <path d="m182.77 35.482h-54"/>
 </g>
 <g transform="translate(-117.83 -58.119)" fill="#007fff">
  <use x="259.39999" y="89.400002" xlink:href="#c"/>
  <use x="262.51199" y="89.400002" xlink:href="#b"/>
  <use x="266.95999" y="89.400002" xlink:href="#d"/>
  <use x="271.40799" y="89.400002" xlink:href="#o"/>
  <use x="276.29599" y="89.400002" xlink:href="#n"/>
  <use x="278.51999" y="89.400002" xlink:href="#e"/>
  <use x="283.39999" y="89.400002" xlink:href="#u"/>
 </g>
 <g fill="none" stroke="#000" stroke-linecap="round" stroke-miterlimit="10" stroke-width=".66667">
  <path d="m182.77 35.482v-14.402"/>
  <path d="m182.77 21.08h54"/>
  <path d="m236.77 21.08v14.402"/>
  <path d="m236.77 35.482h-54"/>
 </g>
 <g transform="translate(-117.83 -58.119)" fill="#007fff">
  <use x="313.39999" y="89.400002" xlink:href="#c"/>
  <use x="316.51199" y="89.400002" xlink:href="#b"/>
  <use x="320.95999" y="89.400002" xlink:href="#d"/>
  <use x="325.40799" y="89.400002" xlink:href="#o"/>
  <use x="330.29599" y="89.400002" xlink:href="#n"/>
  <use x="332.51999" y="89.400002" xlink:href="#e"/>
  <use x="337.39999" y="89.400002" xlink:href="#t"/>
 </g>
 <g fill="none" stroke="#000" stroke-linecap="round" stroke-miterlimit="10" stroke-width=".66667">
  <path d="m255.67 89.08v-14.398"/>
  <path d="m255.67 74.682h67.5"/>
  <path d="m323.17 74.682v14.398"/>
  <path d="m323.17 89.08h-67.5"/>
 </g>
 <g>
  <g transform="translate(-117.83 -58.119)" fill="#ffcc00">
   <use x="377.89999" y="143" xlink:href="#c"/>
   <use x="381.01199" y="143" xlink:href="#b"/>
   <use x="385.45999" y="143" xlink:href="#l"/>
   <use x="390.34799" y="143" xlink:href="#g"/>
   <use x="392.57199" y="143" xlink:href="#d"/>
   <use x="397.01999" y="143" xlink:href="#e"/>
   <use x="399.68399" y="143" xlink:href="#b"/>
   <use x="404.13199" y="143" xlink:href="#c"/>
   <use x="409.5" y="143" xlink:href="#f"/>
   <use x="413.948" y="143" xlink:href="#i"/>
   <use x="418.396" y="143" xlink:href="#i"/>
   <use x="422.84399" y="143" xlink:href="#b"/>
   <use x="427.29199" y="143" xlink:href="#d"/>
   <use x="431.73999" y="143" xlink:href="#d"/>
  </g>
  <g transform="translate(-117.83 -58.119)" fill="#000000">
   <use x="379.39999" y="110" xlink:href="#a"/>
   <use x="383" y="110" xlink:href="#a"/>
   <use x="386.60001" y="110" xlink:href="#a"/>
   <use x="390.20001" y="110" xlink:href="#a"/>
   <use x="393.79999" y="110" xlink:href="#a"/>
   <use x="397.39999" y="110" xlink:href="#a"/>
   <use x="401" y="110" xlink:href="#a"/>
   <use x="404.60001" y="110" xlink:href="#a"/>
   <use x="408.20001" y="110" xlink:href="#a"/>
   <use x="411.79999" y="110" xlink:href="#a"/>
   <use x="415.39999" y="110" xlink:href="#a"/>
   <use x="419" y="110" xlink:href="#a"/>
   <use x="422.60001" y="110" xlink:href="#a"/>
   <use x="426.20001" y="110" xlink:href="#a"/>
   <use x="429.79999" y="110" xlink:href="#a"/>
   <use x="433.39999" y="110" xlink:href="#a"/>
   <use x="433.39999" y="110" xlink:href="#a"/>
   <use x="433.39999" y="106.4" xlink:href="#a"/>
   <use x="433.39999" y="102.8" xlink:href="#a"/>
   <use x="433.39999" y="99.199997" xlink:href="#a"/>
   <use x="433.39999" y="95.599998" xlink:href="#a"/>
   <use x="433.39999" y="92" xlink:href="#a"/>
   <use x="433.39999" y="88.400002" xlink:href="#a"/>
   <use x="433.39999" y="84.800003" xlink:href="#a"/>
   <use x="433.39999" y="81.199997" xlink:href="#a"/>
   <use x="433.39999" y="77.599998" xlink:href="#a"/>
   <use x="433.39999" y="74" xlink:href="#a"/>
   <use x="433.39999" y="70.400002" xlink:href="#a"/>
   <use x="433.39999" y="66.800003" xlink:href="#a"/>
   <use x="433.39999" y="63.200001" xlink:href="#a"/>
   <use x="433.39999" y="63.200001" xlink:href="#a"/>
   <use x="429.79999" y="63.200001" xlink:href="#a"/>
   <use x="426.20001" y="63.200001" xlink:href="#a"/>
   <use x="422.60001" y="63.200001" xlink:href="#a"/>
   <use x="419" y="63.200001" xlink:href="#a"/>
   <use x="415.39999" y="63.200001" xlink:href="#a"/>
   <use x="411.79999" y="63.200001" xlink:href="#a"/>
   <use x="408.20001" y="63.200001" xlink:href="#a"/>
   <use x="404.60001" y="63.200001" xlink:href="#a"/>
   <use x="401" y="63.200001" xlink:href="#a"/>
   <use x="397.39999" y="63.200001" xlink:href="#a"/>
   <use x="393.79999" y="63.200001" xlink:href="#a"/>
   <use x="390.20001" y="63.200001" xlink:href="#a"/>
   <use x="386.60001" y="63.200001" xlink:href="#a"/>
   <use x="383" y="63.200001" xlink:href="#a"/>
   <use x="379.39999" y="63.200001" xlink:href="#a"/>
   <use x="379.39999" y="63.200001" xlink:href="#a"/>
   <use x="379.39999" y="66.800003" xlink:href="#a"/>
   <use x="379.39999" y="70.400002" xlink:href="#a"/>
   <use x="379.39999" y="74" xlink:href="#a"/>
   <use x="379.39999" y="77.599998" xlink:href="#a"/>
   <use x="379.39999" y="81.199997" xlink:href="#a"/>
   <use x="379.39999" y="84.800003" xlink:href="#a"/>
   <use x="379.39999" y="88.400002" xlink:href="#a"/>
   <use x="379.39999" y="92" xlink:href="#a"/>
   <use x="379.39999" y="95.599998" xlink:href="#a"/>
   <use x="379.39999" y="99.199997" xlink:href="#a"/>
   <use x="379.39999" y="102.8" xlink:href="#a"/>
   <use x="379.39999" y="106.4" xlink:href="#a"/>
   <use x="379.39999" y="110" xlink:href="#a"/>
  </g>
  <g transform="translate(-117.83 -58.119)" fill="#ff00ff">
   <use x="395.20001" y="74.5" xlink:href="#k"/>
   <use x="402.31201" y="74.5" xlink:href="#f"/>
   <use x="406.76001" y="74.5" xlink:href="#i"/>
   <use x="411.20801" y="74.5" xlink:href="#c"/>
   <use x="414.32001" y="74.5" xlink:href="#j"/>
   <use x="391.60001" y="83.5" xlink:href="#l"/>
   <use x="396.48801" y="83.5" xlink:href="#b"/>
   <use x="400.936" y="83.5" xlink:href="#h"/>
   <use x="405.82401" y="83.5" xlink:href="#b"/>
   <use x="410.272" y="83.5" xlink:href="#c"/>
   <use x="413.384" y="83.5" xlink:href="#f"/>
   <use x="417.832" y="83.5" xlink:href="#n"/>
   <use x="420.056" y="83.5" xlink:href="#x"/>
   <use x="391.39999" y="92.5" xlink:href="#m"/>
   <use x="396.28799" y="92.5" xlink:href="#o"/>
   <use x="401.17599" y="92.5" xlink:href="#c"/>
   <use x="404.28799" y="92.5" xlink:href="#m"/>
   <use x="409.17599" y="92.5" xlink:href="#j"/>
   <use x="414.064" y="92.5" xlink:href="#d"/>
   <use x="418.51199" y="92.5" xlink:href="#b"/>
   <use x="390.29999" y="101.5" xlink:href="#c"/>
   <use x="393.41199" y="101.5" xlink:href="#b"/>
   <use x="397.85999" y="101.5" xlink:href="#l"/>
   <use x="402.74799" y="101.5" xlink:href="#g"/>
   <use x="404.97198" y="101.5" xlink:href="#d"/>
   <use x="409.42001" y="101.5" xlink:href="#e"/>
   <use x="412.08401" y="101.5" xlink:href="#b"/>
   <use x="416.53201" y="101.5" xlink:href="#c"/>
   <use x="419.64401" y="101.5" xlink:href="#d"/>
  </g>
 </g>
 <g fill="none" stroke="#000" stroke-linecap="round" stroke-miterlimit="10" stroke-width=".66667">
  <path d="m59.467 58.881-1.8008-7.1992"/>
  <path d="m58.768 58.982-1.2031-7.3008"/>
  <path d="m58.268 59.08-.5-7.3984"/>
  <path d="m57.667 59.08v-7.3984"/>
  <path d="m56.967 59.08.5-7.3984"/>
  <path d="m56.467 58.982 1.1992-7.3008"/>
  <path d="m55.768 58.881 1.7969-7.1992"/>
  <path d="m57.667 51.682v23"/>
  <path d="m86.467 58.881-1.8008-7.1992"/>
  <path d="m85.768 58.982-1.2031-7.3008"/>
  <path d="m85.268 59.08-.5-7.3984"/>
  <path d="m84.565 59.08v-7.3984"/>
  <path d="m83.967 59.08.5-7.3984"/>
  <path d="m83.467 58.982 1.1992-7.3008"/>
  <path d="m82.768 58.881 1.7969-7.1992"/>
  <path d="m84.565 51.682v23"/>
  <path d="m45.967 96.279-1.8008-7.1992"/>
  <path d="m45.366 96.381-1.1992-7.3008"/>
  <path d="m44.667 96.482-.5-7.4023"/>
  <path d="m44.167 96.482v-7.4023"/>
  <path d="m43.565 96.482.5-7.4023"/>
  <path d="m42.866 96.381 1.1992-7.3008"/>
  <path d="m42.366 96.279 1.8008-7.1992"/>
  <path d="m44.167 89.08v23"/>
  <path d="m107.17 96.279-1.8008-7.1992"/>
  <path d="m106.57 96.381-1.1992-7.3008"/>
  <path d="m105.87 96.482-.5-7.4023"/>
  <path d="m105.37 96.482v-7.4023"/>
  <path d="m104.77 96.482.5-7.4023"/>
  <path d="m104.07 96.381 1.2031-7.3008"/>
  <path d="m103.57 96.279 1.8008-7.1992"/>
  <path d="m105.37 89.08v23"/>
  <path d="m155.77 35.482v76.598"/>
  <path d="m153.97 104.88 1.8008 7.1992"/>
  <path d="m154.47 104.78 1.1992 7.3008"/>
  <path d="m155.17 104.68.5 7.3984"/>
  <path d="m155.77 104.68v7.3984"/>
  <path d="m156.27 104.68-.5 7.3984"/>
  <path d="m156.97 104.78-1.1992 7.3008"/>
  <path d="m157.57 104.88-1.7969 7.1992"/>
  <path d="m209.77 35.482v76.598"/>
  <path d="m207.97 104.88 1.8008 7.1992"/>
  <path d="m208.47 104.78 1.1992 7.3008"/>
  <path d="m209.17 104.68.5 7.3984"/>
  <path d="m209.77 104.68v7.3984"/>
  <path d="m210.27 104.68-.5 7.3984"/>
  <path d="m210.97 104.78-1.1992 7.3008"/>
  <path d="m211.57 104.88-1.7969 7.1992"/>
  <path d="m121.57 30.08 7.2031-1.8008"/>
  <path d="m121.37 29.482 7.3008-1.2031"/>
  <path d="m121.27 28.779 7.3984-.5"/>
  <path d="m121.27 28.279h7.3984"/>
  <path d="m121.27 27.682 7.3984.5"/>
  <path d="m121.37 26.982 7.3008 1.1992"/>
  <path d="m121.57 26.482 7.2031 1.7969"/>
  <path d="m128.77 28.279h-30.602"/>
  <path d="m291.17 96.279-1.8008-7.1992"/>
  <path d="m290.57 96.381-1.1992-7.3008"/>
  <path d="m289.97 96.482-.5-7.4023"/>
  <path d="m289.37 96.482v-7.4023"/>
  <path d="m288.77 96.482.5-7.4023"/>
  <path d="m288.17 96.381 1.1992-7.3008"/>
  <path d="m287.57 96.279 1.8008-7.1992"/>
  <path d="m289.37 89.08v23"/>
  <path d="m287.57 104.88 1.8008 7.1992"/>
  <path d="m288.17 104.78 1.1992 7.3008"/>
  <path d="m288.77 104.68.5 7.3984"/>
  <path d="m289.37 104.68v7.3984"/>
  <path d="m289.97 104.68-.5 7.3984"/>
  <path d="m290.57 104.78-1.1992 7.3008"/>
  <path d="m291.17 104.88-1.8008 7.1992"/>
  <path d="m287.57 67.482 1.8008 7.1992"/>
  <path d="m288.17 67.279 1.1992 7.3008"/>
  <path d="m288.77 67.279.5 7.4023"/>
  <path d="m289.37 67.279v7.4023"/>
  <path d="m289.97 67.279-.5 7.4023"/>
  <path d="m290.57 67.279-1.1992 7.3008"/>
  <path d="m291.17 67.482-1.8008 7.1992"/>
  <path d="m289.37 74.682v-23"/>
  <path d="m291.17 58.881-1.8008-7.1992"/>
  <path d="m290.57 58.982-1.1992-7.3008"/>
  <path d="m289.97 59.08-.5-7.3984"/>
  <path d="m289.37 59.08v-7.3984"/>
  <path d="m288.77 59.08.5-7.3984"/>
  <path d="m288.17 58.982 1.1992-7.3008"/>
  <path d="m287.57 58.881 1.8008-7.1992"/>
 </g>
</svg>
