<svg width="190" height="140" version="1.1" viewBox="0 0 190 140" xmlns="http://www.w3.org/2000/svg" xmlns:xlink="http://www.w3.org/1999/xlink">
 <defs>
  <g id="aa">
   <path d="m4.1875-.14062c-.1875-.17188-.25-.3125-.25-.51562v-2.4062c0-.875-.59375-1.3281-1.7656-1.3281s-1.7812.5-1.8594 1.5h1.0938c.046875-.45312.23438-.59375.78125-.59375.4375 0 .65625.14062.65625.42188 0 .15625-.078125.26562-.20312.34375-.14062.078125-.14062.078125-.70312.17188l-.4375.078125c-.85938.14062-1.2812.57812-1.2812 1.3594 0 .76562.53125 1.2969 1.3125 1.2969.48438 0 .92188-.20312 1.3125-.625 0 .23438.03125.3125.125.4375h1.2188zm-1.3438-1.5938c0 .64062-.32812 1.0156-.89062 1.0156-.375 0-.60938-.20312-.60938-.51562 0-.34375.17188-.5.64062-.59375l.39062-.078125c.28125-.046875.34375-.0625.46875-.14062z"/>
  </g>
  <g id="r">
   <path d="m3.2344 0h1.125v-5.8281h-1.125v2.0625c-.28125-.42188-.64062-.625-1.1875-.625-1.0312 0-1.8125.98438-1.8125 2.2969 0 .57812.17188 1.1719.46875 1.5938.28125.42188.8125.6875 1.3438.6875.54688 0 .90625-.20312 1.1875-.625zm-.9375-3.4531c.5625 0 .9375.54688.9375 1.375 0 .78125-.375 1.3281-.9375 1.3281s-.9375-.54688-.9375-1.3438c0-.8125.375-1.3594.9375-1.3594z"/>
  </g>
  <g id="q">
   <path d="m.5-4.3125v4.3125h1.125v-2.2969c0-.65625.32812-.98438.98438-.98438.125 0 .20312.015625.34375.03125v-1.1406h-.125c-.51562 0-.95312.32812-1.2031.92188v-.84375z"/>
  </g>
  <g id="l">
   <path d="m4.1875-1.8125c.015625-.09375.015625-.125.015625-.1875 0-.4375-.0625-.82812-.17188-1.1406-.28125-.78125-.98438-1.25-1.8594-1.25-1.2344 0-2 .89062-2 2.3438 0 1.3906.75 2.2344 1.9844 2.2344.96875 0 1.75-.54688 2-1.4062h-1.1094c-.14062.34375-.45312.54688-.85938.54688-.3125 0-.57812-.14062-.73438-.375-.09375-.15625-.14062-.35938-.15625-.76562zm-2.875-.73438c.078125-.67188.34375-.98438.84375-.98438.51562 0 .8125.34375.875.98438z"/>
  </g>
  <g id="k">
   <path d="m4.0469-2.9219c-.015625-.92188-.73438-1.4688-1.8906-1.4688-1.0938 0-1.7656.54688-1.7656 1.4375 0 .29688.078125.53125.23438.70312.15625.15625.28125.21875.70312.35938l1.3281.42188c.28125.078125.39062.17188.39062.34375 0 .26562-.3125.42188-.84375.42188-.29688 0-.51562-.046875-.65625-.14062-.125-.09375-.17188-.1875-.21875-.40625h-1.0938c.03125.95312.71875 1.4375 2.0312 1.4375.60938 0 1.0625-.125 1.375-.39062.32812-.25.51562-.65625.51562-1.0781 0-.5625-.28125-.92188-.84375-1.0938l-1.4219-.40625c-.3125-.09375-.39062-.15625-.39062-.32812 0-.25.26562-.40625.65625-.40625.53125 0 .79688.20312.79688.59375z"/>
  </g>
  <g id="n">
   <path d="m2.4062-4.3906c-1.3125 0-2.125.875-2.125 2.2812 0 1.4219.8125 2.2969 2.1406 2.2969 1.3125 0 2.125-.875 2.125-2.2656 0-1.4531-.78125-2.3125-2.1406-2.3125zm.015625.90625c.60938 0 1.0156.54688 1.0156 1.3906 0 .8125-.42188 1.375-1.0156 1.375-.60938 0-1.0156-.54688-1.0156-1.3906 0-.82812.40625-1.375 1.0156-1.375z"/>
  </g>
  <g id="t">
   <path d="m2.5-4.2344h-.65625v-.42188c0-.21875.09375-.32812.29688-.32812.10938 0 .21875 0 .32812.015625v-.84375c-.25-.015625-.48438-.015625-.64062-.015625-.75 0-1.1094.34375-1.1094 1.0781v.51562h-.60938v.75h.60938v3.4844h1.125v-3.4844h.65625z"/>
  </g>
  <g id="p">
   <path d="m.46875-5.8281v5.8281h1.125v-.4375c.26562.42188.64062.625 1.1875.625 1.0312 0 1.8125-.98438 1.8125-2.2969 0-.57812-.17188-1.1719-.45312-1.5938-.29688-.42188-.82812-.6875-1.3594-.6875-.54688 0-.92188.20312-1.1875.625v-2.0625zm2.0625 2.375c.5625 0 .95312.5625.95312 1.3594s-.39062 1.3438-.95312 1.3438-.9375-.53125-.9375-1.375c0-.78125.375-1.3281.9375-1.3281z"/>
  </g>
  <g id="o">
   <path d="m3.1562-4.3125-.90625 3.1406-.95312-3.1406h-1.2188l1.6094 4.4844c0 .45312-.28125.75-.70312.75-.09375 0-.15625-.015625-.29688-.046875v.84375c.17188.03125.26562.03125.40625.03125.28125 0 .60938-.046875.79688-.14062.3125-.125.45312-.29688.64062-.8125l1.7656-5.1094z"/>
  </g>
  <g id="z">
   <path d="m2.4062-4.2344h-.625v-1.1562h-1.125v1.1562h-.54688v.75h.54688v2.6562c0 .67188.375 1.0156 1.1094 1.0156.25 0 .4375-.03125.64062-.09375v-.78125c-.10938.015625-.17188.03125-.25.03125-.29688 0-.375-.09375-.375-.48438v-2.3438h.625z"/>
  </g>
  <g id="y">
   <path d="m1.6562-4.3125h-1.125v4.3125h1.125zm0-1.5156h-1.125v1h1.125z"/>
  </g>
  <g id="x">
   <path d="m.5-4.3125v4.3125h1.125v-2.5938c0-.51562.34375-.84375.90625-.84375.48438 0 .71875.26562.71875.78125v2.6562h1.125v-2.8906c0-.96875-.53125-1.5-1.4531-1.5-.57812 0-.98438.20312-1.2969.6875v-.60938z"/>
  </g>
  <g id="s">
   <path d="m.48438-4.3125v4.3125h1.1094v-2.5938c0-.53125.29688-.84375.78125-.84375.375 0 .59375.21875.59375.5625v2.875h1.125v-2.5938c0-.53125.29688-.84375.76562-.84375.375 0 .60938.21875.60938.5625v2.875h1.125v-3.0625c0-.82812-.51562-1.3281-1.375-1.3281-.5625 0-.9375.1875-1.2656.64062-.20312-.40625-.64062-.64062-1.1719-.64062-.5 0-.82812.15625-1.1875.60938v-.53125z"/>
  </g>
  <g id="w">
   <path d="m1.6562-5.8281h-1.125v5.8281h1.125z"/>
  </g>
  <g id="v">
   <path d="m4.1719-2.7031c-.078125-1.0625-.76562-1.6875-1.8594-1.6875-1.2969 0-2.0469.84375-2.0469 2.3125 0 1.4375.75 2.2656 2.0312 2.2656 1.0469 0 1.7812-.65625 1.875-1.6875h-1.0625c-.14062.5625-.35938.78125-.8125.78125-.5625 0-.90625-.5-.90625-1.3594 0-.40625.078125-.78125.21875-1.0469.125-.23438.375-.35938.6875-.35938.46875 0 .67188.21875.8125.78125z"/>
  </g>
  <g id="u">
   <path d="m1.5938-2.6406v-3.1875h-1.125v5.8281h1.125v-1.4219l.45312-.48438 1.0312 1.9062h1.3125l-1.5781-2.6875 1.4688-1.625h-1.2656z"/>
  </g>
  <g id="g">
   <path d="m2.1875-5.7969c-.60938 0-1.125.26562-1.4688.73438-.32812.4375-.48438 1.1562-.48438 2.2656 0 1 .125 1.7031.39062 2.1406.34375.54688.89062.84375 1.5625.84375.60938 0 1.1094-.25 1.4688-.71875.3125-.4375.48438-1.1719.48438-2.2344 0-1.0469-.125-1.75-.40625-2.1875-.32812-.54688-.89062-.84375-1.5469-.84375zm0 .90625c.28125 0 .51562.15625.65625.45312.10938.25.17188.85938.17188 1.6406 0 .64062-.0625 1.2656-.14062 1.5-.125.34375-.375.51562-.6875.51562-.29688 0-.53125-.14062-.65625-.4375-.10938-.23438-.17188-.82812-.17188-1.5938 0-.67188.046875-1.3125.14062-1.5469.10938-.34375.35938-.53125.6875-.53125z"/>
  </g>
  <g id="c">
   <path d="m1.9062-3.9062v3.9062h1.125v-5.6719h-.75c-.17188.67188-.76562 1.0156-1.7344 1.0156v.75z"/>
  </g>
  <g id="b">
   <path d="m4.0938-1h-2.4062c.15625-.29688.32812-.46875 1.1562-1.0781.98438-.71875 1.2812-1.1406 1.2812-1.9062 0-1.1094-.76562-1.8125-1.9531-1.8125-1.1719 0-1.8594.70312-1.8594 1.9062v.1875h1.0781v-.17188c0-.64062.29688-1 .8125-1 .5 0 .79688.34375.79688.90625 0 .625-.1875.85938-1.4531 1.7656-.96875.65625-1.2656 1.1406-1.3125 2.2031h3.8594z"/>
  </g>
  <g id="a">
   <path d="m1.7344-2.5312c.4375 0 .45312 0 .65625.046875.375.10938.625.4375.625.85938 0 .5-.35938.84375-.84375.84375-.53125 0-.8125-.29688-.85938-.875h-1.0781c0 1.125.73438 1.8438 1.9062 1.8438 1.2188 0 1.9844-.71875 1.9844-1.8125 0-.67188-.28125-1.1094-.92188-1.4219.51562-.32812.73438-.6875.73438-1.2031 0-.9375-.70312-1.5469-1.7969-1.5469-.82812 0-1.4531.35938-1.7031.98438-.09375.26562-.14062.45312-.14062.92188h1.0469c.015625-.29688.03125-.45312.09375-.59375.09375-.25.35938-.40625.6875-.40625.4375 0 .70312.28125.70312.75 0 .57812-.32812.85938-1 .85938h-.09375z"/>
  </g>
  <g id="e">
   <path d="m4.1719-2.1875h-.59375v-3.4844h-1.3125l-2.0781 3.4688v.95312h2.2812v1.25h1.1094v-1.25h.59375zm-1.7031 0h-1.4844l1.4844-2.4219z"/>
  </g>
  <g id="d">
   <path d="m3.9062-5.6719h-3.0312l-.5 3.1562h1.0156c.10938-.28125.375-.42188.71875-.42188.5625 0 .90625.40625.90625 1.0938 0 .65625-.34375 1.0625-.90625 1.0625-.5 0-.76562-.25-.79688-.70312h-1.0938c.015625 1 .76562 1.6719 1.875 1.6719 1.2031 0 2.0469-.82812 2.0469-2.0625 0-1.1719-.71875-1.9531-1.7656-1.9531-.39062 0-.65625.09375-.98438.34375l.17188-1.1875h2.3438z"/>
  </g>
  <g id="f">
   <path d="m4.0625-4.3906c-.0625-.35938-.14062-.54688-.28125-.75-.29688-.40625-.8125-.65625-1.4219-.65625-.71875 0-1.2812.3125-1.625.89062-.34375.54688-.48438 1.1719-.48438 2.2031 0 .98438.125 1.5938.40625 2.0469.32812.53125.92188.84375 1.5938.84375 1.1406 0 1.9062-.84375 1.9062-2.0781 0-1.0938-.67188-1.8438-1.6562-1.8438-.45312 0-.76562.14062-1.125.5l.015625-.125c.015625-.51562.03125-.6875.10938-.90625.15625-.42188.42188-.625.8125-.625.375 0 .5625.14062.70312.5zm-1.8438 1.5469c.53125 0 .875.39062.875 1.0312 0 .59375-.375 1.0312-.875 1.0312s-.85938-.40625-.85938-1.0156c0-.625.35938-1.0469.85938-1.0469z"/>
  </g>
  <g id="j">
   <path d="m4.2188-5.6719h-3.9844v1h2.8281c-.34375.375-1.0312 1.4062-1.25 1.8906-.39062.82812-.59375 1.5781-.75 2.7812h1.125c.10938-1.7969.6875-3.1719 2.0312-4.7969z"/>
  </g>
  <g id="i">
   <path d="m3.2656-3.0938c.20312-.09375.28125-.15625.375-.23438.23438-.21875.375-.5625.375-.92188 0-.89062-.78125-1.5469-1.8281-1.5469s-1.8125.65625-1.8125 1.5469c0 .54688.21875.89062.73438 1.1562-.65625.35938-.9375.79688-.9375 1.4688 0 1.0625.82812 1.8125 2.0156 1.8125s2.0156-.75 2.0156-1.8125c0-.67188-.28125-1.1094-.9375-1.4688zm-1.0625-1.7969c.5 0 .84375.3125.84375.75 0 .42188-.35938.73438-.84375.73438-.5 0-.84375-.29688-.84375-.75 0-.42188.34375-.73438.84375-.73438zm-.015625 2.25c.54688 0 .89062.375.89062.95312 0 .54688-.34375.90625-.89062.90625s-.89062-.35938-.89062-.92188.34375-.9375.89062-.9375z"/>
  </g>
  <g id="h">
   <path d="m.29688-1.3125c.03125.85938.76562 1.5 1.75 1.5.71875 0 1.2656-.29688 1.6094-.875.29688-.5.46875-1.3594.46875-2.2656 0-.84375-.125-1.4844-.39062-1.9062-.35938-.60938-.92188-.9375-1.5938-.9375-1.1406 0-1.9219.82812-1.9219 2s.6875 1.9688 1.7031 1.9688c.28125 0 .5625-.078125.73438-.20312.10938-.078125.17188-.14062.35938-.35938 0 1.1094-.3125 1.625-.9375 1.625-.40625 0-.67188-.21875-.6875-.54688zm1.8125-3.5625c.53125 0 .875.40625.875 1.0781 0 .625-.34375 1.0469-.85938 1.0469s-.84375-.40625-.84375-1.0625.3125-1.0625.82812-1.0625z"/>
  </g>
  <g id="m">
   <path d="m2.5625-1.75h-1.7969v1.75h1.7969z"/>
  </g>
 </defs>
 <path d="m23.686 133.4v-103.6" stroke="#000101" stroke-linecap="round" stroke-miterlimit="10" stroke-width=".66667"/>
 <path d="m23.686 29.702h161.2" stroke="#000101" stroke-linecap="round" stroke-miterlimit="10" stroke-width=".66667"/>
 <g transform="translate(-173.51 -56.4)" fill="#000000">
  <use x="220.2" y="67.599998" xlink:href="#aa"/>
  <use x="224.64799" y="67.599998" xlink:href="#r"/>
  <use x="229.536" y="67.599998" xlink:href="#r"/>
  <use x="234.424" y="67.599998" xlink:href="#q"/>
  <use x="237.536" y="67.599998" xlink:href="#l"/>
  <use x="241.98399" y="67.599998" xlink:href="#k"/>
  <use x="246.43201" y="67.599998" xlink:href="#k"/>
  <use x="250.88" y="67.599998" xlink:href="#l"/>
  <use x="255.328" y="67.599998" xlink:href="#k"/>
  <use x="262.29999" y="67.599998" xlink:href="#n"/>
  <use x="267.18799" y="67.599998" xlink:href="#t"/>
  <use x="272" y="67.599998" xlink:href="#p"/>
  <use x="276.888" y="67.599998" xlink:href="#o"/>
  <use x="281.336" y="67.599998" xlink:href="#z"/>
  <use x="284" y="67.599998" xlink:href="#l"/>
  <use x="288.448" y="67.599998" xlink:href="#k"/>
  <use x="295.20001" y="67.599998" xlink:href="#y"/>
  <use x="297.42401" y="67.599998" xlink:href="#x"/>
  <use x="304.5" y="67.599998" xlink:href="#s"/>
  <use x="311.612" y="67.599998" xlink:href="#l"/>
  <use x="316.06" y="67.599998" xlink:href="#s"/>
  <use x="323.172" y="67.599998" xlink:href="#n"/>
  <use x="328.06" y="67.599998" xlink:href="#q"/>
  <use x="331.172" y="67.599998" xlink:href="#o"/>
 </g>
 <g transform="translate(-173.51 -56.4)" fill="#ffff00">
  <use x="176.7" y="67.599998" xlink:href="#p"/>
  <use x="181.588" y="67.599998" xlink:href="#w"/>
  <use x="183.812" y="67.599998" xlink:href="#n"/>
  <use x="188.7" y="67.599998" xlink:href="#v"/>
  <use x="193.14799" y="67.599998" xlink:href="#u"/>
 </g>
 <g stroke="#000101" stroke-linecap="round" stroke-miterlimit="10" stroke-width=".66667">
  <path d="m23.686 133.4v-107.2"/>
  <path d="m43.886 133.4v-107.2"/>
  <path d="m64.089 133.4v-107.2"/>
  <path d="m84.186 133.4v-107.2"/>
  <path d="m104.39 133.4v-107.2"/>
  <path d="m124.49 133.4v-107.2"/>
  <path d="m144.69 133.4v-107.2"/>
  <path d="m164.89 133.4v-107.2"/>
 </g>
 <path d="m184.99 133.4v-107.2" fill="none" stroke="#000" stroke-linecap="round" stroke-miterlimit="10" stroke-width=".66667"/>
 <g stroke-linecap="round" stroke-miterlimit="10" stroke-width=".66667">
  <path d="m23.686 133.4h161.2" stroke="#000"/>
  <g stroke="#000101">
   <path d="m23.686 120.4h161.2"/>
   <path d="m23.686 107.5h161.2"/>
   <path d="m23.686 94.499h161.2"/>
   <path d="m23.686 81.6h161.2"/>
   <path d="m23.686 68.6h161.2"/>
   <path d="m23.686 55.6h161.2"/>
   <path d="m23.686 42.702h161.2"/>
  </g>
 </g>
 <g>
  <g transform="translate(-173.51 -56.4)" fill="#00ffff">
   <use x="205.10001" y="186.39999" xlink:href="#g"/>
   <use x="225.3" y="186.39999" xlink:href="#c"/>
   <use x="245.39999" y="186.39999" xlink:href="#b"/>
   <use x="265.60001" y="186.39999" xlink:href="#a"/>
   <use x="285.79999" y="186.39999" xlink:href="#e"/>
   <use x="305.89999" y="186.39999" xlink:href="#d"/>
   <use x="326.10001" y="186.39999" xlink:href="#f"/>
   <use x="346.20001" y="186.39999" xlink:href="#j"/>
   <use x="205.10001" y="173.39999" xlink:href="#i"/>
   <use x="225.3" y="173.39999" xlink:href="#h"/>
   <use x="243.10001" y="173.39999" xlink:href="#c"/>
   <use x="247.548" y="173.39999" xlink:href="#g"/>
   <use x="263.29999" y="173.39999" xlink:href="#c"/>
   <use x="267.74799" y="173.39999" xlink:href="#c"/>
   <use x="283.5" y="173.39999" xlink:href="#c"/>
   <use x="287.948" y="173.39999" xlink:href="#b"/>
   <use x="303.60001" y="173.39999" xlink:href="#c"/>
   <use x="308.048" y="173.39999" xlink:href="#a"/>
   <use x="323.79999" y="173.39999" xlink:href="#c"/>
   <use x="328.24799" y="173.39999" xlink:href="#e"/>
   <use x="343.89999" y="173.39999" xlink:href="#c"/>
   <use x="348.34799" y="173.39999" xlink:href="#d"/>
   <use x="202.8" y="160.39999" xlink:href="#c"/>
   <use x="207.248" y="160.39999" xlink:href="#f"/>
   <use x="223" y="160.39999" xlink:href="#c"/>
   <use x="227.448" y="160.39999" xlink:href="#j"/>
   <use x="243.10001" y="160.39999" xlink:href="#c"/>
   <use x="247.548" y="160.39999" xlink:href="#i"/>
   <use x="263.29999" y="160.39999" xlink:href="#c"/>
   <use x="267.74799" y="160.39999" xlink:href="#h"/>
   <use x="283.5" y="160.39999" xlink:href="#b"/>
   <use x="287.948" y="160.39999" xlink:href="#g"/>
   <use x="303.60001" y="160.39999" xlink:href="#b"/>
   <use x="308.048" y="160.39999" xlink:href="#c"/>
   <use x="323.79999" y="160.39999" xlink:href="#b"/>
   <use x="328.24799" y="160.39999" xlink:href="#b"/>
   <use x="343.89999" y="160.39999" xlink:href="#b"/>
   <use x="348.34799" y="160.39999" xlink:href="#a"/>
   <use x="202.8" y="147.5" xlink:href="#b"/>
   <use x="207.248" y="147.5" xlink:href="#e"/>
   <use x="223" y="147.5" xlink:href="#b"/>
   <use x="227.448" y="147.5" xlink:href="#d"/>
   <use x="243.10001" y="147.5" xlink:href="#b"/>
   <use x="247.548" y="147.5" xlink:href="#f"/>
   <use x="263.29999" y="147.5" xlink:href="#b"/>
   <use x="267.74799" y="147.5" xlink:href="#j"/>
   <use x="283.5" y="147.5" xlink:href="#b"/>
   <use x="287.948" y="147.5" xlink:href="#i"/>
   <use x="303.60001" y="147.5" xlink:href="#b"/>
   <use x="308.048" y="147.5" xlink:href="#h"/>
   <use x="323.79999" y="147.5" xlink:href="#a"/>
   <use x="328.24799" y="147.5" xlink:href="#g"/>
   <use x="343.89999" y="147.5" xlink:href="#a"/>
   <use x="348.34799" y="147.5" xlink:href="#c"/>
   <use x="202.8" y="134.5" xlink:href="#a"/>
   <use x="207.248" y="134.5" xlink:href="#b"/>
   <use x="223" y="134.5" xlink:href="#a"/>
   <use x="227.448" y="134.5" xlink:href="#a"/>
   <use x="243.10001" y="134.5" xlink:href="#a"/>
   <use x="247.548" y="134.5" xlink:href="#e"/>
   <use x="263.29999" y="134.5" xlink:href="#a"/>
   <use x="267.74799" y="134.5" xlink:href="#d"/>
   <use x="283.5" y="134.5" xlink:href="#a"/>
   <use x="287.948" y="134.5" xlink:href="#f"/>
   <use x="303.60001" y="134.5" xlink:href="#a"/>
   <use x="308.048" y="134.5" xlink:href="#j"/>
   <use x="323.79999" y="134.5" xlink:href="#a"/>
   <use x="328.24799" y="134.5" xlink:href="#i"/>
   <use x="343.89999" y="134.5" xlink:href="#a"/>
   <use x="348.34799" y="134.5" xlink:href="#h"/>
   <use x="202.8" y="121.6" xlink:href="#e"/>
   <use x="207.248" y="121.6" xlink:href="#g"/>
   <use x="223" y="121.6" xlink:href="#e"/>
   <use x="227.448" y="121.6" xlink:href="#c"/>
   <use x="243.10001" y="121.6" xlink:href="#e"/>
   <use x="247.548" y="121.6" xlink:href="#b"/>
   <use x="263.29999" y="121.6" xlink:href="#e"/>
   <use x="267.74799" y="121.6" xlink:href="#a"/>
   <use x="283.5" y="121.6" xlink:href="#e"/>
   <use x="287.948" y="121.6" xlink:href="#e"/>
   <use x="303.60001" y="121.6" xlink:href="#e"/>
   <use x="308.048" y="121.6" xlink:href="#d"/>
   <use x="323.79999" y="121.6" xlink:href="#e"/>
   <use x="328.24799" y="121.6" xlink:href="#f"/>
   <use x="343.89999" y="121.6" xlink:href="#e"/>
   <use x="348.34799" y="121.6" xlink:href="#j"/>
   <use x="202.8" y="108.6" xlink:href="#e"/>
   <use x="207.248" y="108.6" xlink:href="#i"/>
   <use x="223" y="108.6" xlink:href="#e"/>
   <use x="227.448" y="108.6" xlink:href="#h"/>
   <use x="243.10001" y="108.6" xlink:href="#d"/>
   <use x="247.548" y="108.6" xlink:href="#g"/>
   <use x="263.29999" y="108.6" xlink:href="#d"/>
   <use x="267.74799" y="108.6" xlink:href="#c"/>
   <use x="283.5" y="108.6" xlink:href="#d"/>
   <use x="287.948" y="108.6" xlink:href="#b"/>
   <use x="303.60001" y="108.6" xlink:href="#d"/>
   <use x="308.048" y="108.6" xlink:href="#a"/>
   <use x="323.79999" y="108.6" xlink:href="#d"/>
   <use x="328.24799" y="108.6" xlink:href="#e"/>
   <use x="343.89999" y="108.6" xlink:href="#d"/>
   <use x="348.34799" y="108.6" xlink:href="#d"/>
   <use x="202.8" y="95.599998" xlink:href="#d"/>
   <use x="207.248" y="95.599998" xlink:href="#f"/>
   <use x="223" y="95.599998" xlink:href="#d"/>
   <use x="227.448" y="95.599998" xlink:href="#j"/>
   <use x="243.10001" y="95.599998" xlink:href="#d"/>
   <use x="247.548" y="95.599998" xlink:href="#i"/>
   <use x="263.29999" y="95.599998" xlink:href="#d"/>
   <use x="267.74799" y="95.599998" xlink:href="#h"/>
   <use x="283.5" y="95.599998" xlink:href="#f"/>
   <use x="287.948" y="95.599998" xlink:href="#g"/>
   <use x="303.60001" y="95.599998" xlink:href="#f"/>
   <use x="308.048" y="95.599998" xlink:href="#c"/>
   <use x="323.79999" y="95.599998" xlink:href="#f"/>
   <use x="328.24799" y="95.599998" xlink:href="#b"/>
   <use x="343.89999" y="95.599998" xlink:href="#f"/>
   <use x="348.34799" y="95.599998" xlink:href="#a"/>
  </g>
  <g transform="translate(-173.51 -56.4)" fill="#f00">
   <use x="185" y="186.39999" fill="#ff0000" xlink:href="#g"/>
  </g>
  <g transform="translate(-173.51 -56.4)" fill="#00f">
   <use x="185" y="173.39999" fill="#0000ff" xlink:href="#c"/>
  </g>
  <g transform="translate(-173.51 -56.4)" fill="#f0f">
   <use x="185" y="160.39999" fill="#ff00ff" xlink:href="#b"/>
  </g>
  <g transform="translate(-173.51 -56.4)" fill="#f60">
   <use x="185" y="147.5" fill="#ff6600" xlink:href="#a"/>
  </g>
  <g transform="translate(-173.51 -56.4)" fill="#f00">
   <use x="185" y="134.5" fill="#ff0000" xlink:href="#g"/>
  </g>
  <g transform="translate(-173.51 -56.4)" fill="#00f">
   <use x="185" y="121.6" fill="#0000ff" xlink:href="#c"/>
  </g>
  <g transform="translate(-173.51 -56.4)" fill="#f0f">
   <use x="185" y="108.6" fill="#ff00ff" xlink:href="#b"/>
  </g>
  <g transform="translate(-173.51 -56.4)" fill="#f60">
   <use x="185" y="95.599998" fill="#ff6600" xlink:href="#a"/>
  </g>
  <g transform="translate(-173.51 -56.4)" fill="#000000">
   <use x="276.20001" y="79.900002" xlink:href="#m"/>
   <use x="276.20001" y="77" xlink:href="#m"/>
   <use x="276.20001" y="74.099998" xlink:href="#m"/>
  </g>
 </g>
</svg>
