<svg width="160" height="170" version="1.1" viewBox="0 0 160 170" xmlns="http://www.w3.org/2000/svg" xmlns:xlink="http://www.w3.org/1999/xlink">
 <defs>
  <g id="e">
   <path d="m.48438-4.3125v4.3125h1.1094v-2.5938c0-.53125.29688-.84375.78125-.84375.375 0 .59375.21875.59375.5625v2.875h1.125v-2.5938c0-.53125.29688-.84375.76562-.84375.375 0 .60938.21875.60938.5625v2.875h1.125v-3.0625c0-.82812-.51562-1.3281-1.375-1.3281-.5625 0-.9375.1875-1.2656.64062-.20312-.40625-.64062-.64062-1.1719-.64062-.5 0-.82812.15625-1.1875.60938v-.53125z"/>
  </g>
  <g id="h">
   <path d="m4.1875-1.8125c.015625-.09375.015625-.125.015625-.1875 0-.4375-.0625-.82812-.17188-1.1406-.28125-.78125-.98438-1.25-1.8594-1.25-1.2344 0-2 .89062-2 2.3438 0 1.3906.75 2.2344 1.9844 2.2344.96875 0 1.75-.54688 2-1.4062h-1.1094c-.14062.34375-.45312.54688-.85938.54688-.3125 0-.57812-.14062-.73438-.375-.09375-.15625-.14062-.35938-.15625-.76562zm-2.875-.73438c.078125-.67188.34375-.98438.84375-.98438.51562 0 .8125.34375.875.98438z"/>
  </g>
  <g id="t">
   <path d="m2.4062-4.3906c-1.3125 0-2.125.875-2.125 2.2812 0 1.4219.8125 2.2969 2.1406 2.2969 1.3125 0 2.125-.875 2.125-2.2656 0-1.4531-.78125-2.3125-2.1406-2.3125zm.015625.90625c.60938 0 1.0156.54688 1.0156 1.3906 0 .8125-.42188 1.375-1.0156 1.375-.60938 0-1.0156-.54688-1.0156-1.3906 0-.82812.40625-1.375 1.0156-1.375z"/>
  </g>
  <g id="g">
   <path d="m.5-4.3125v4.3125h1.125v-2.2969c0-.65625.32812-.98438.98438-.98438.125 0 .20312.015625.34375.03125v-1.1406h-.125c-.51562 0-.95312.32812-1.2031.92188v-.84375z"/>
  </g>
  <g id="s">
   <path d="m3.1562-4.3125-.90625 3.1406-.95312-3.1406h-1.2188l1.6094 4.4844c0 .45312-.28125.75-.70312.75-.09375 0-.15625-.015625-.29688-.046875v.84375c.17188.03125.26562.03125.40625.03125.28125 0 .60938-.046875.79688-.14062.3125-.125.45312-.29688.64062-.8125l1.7656-5.1094z"/>
  </g>
  <g id="r">
   <path d="m1.9062-3.9062v3.9062h1.125v-5.6719h-.75c-.17188.67188-.76562 1.0156-1.7344 1.0156v.75z"/>
  </g>
  <g id="f">
   <path d="m4.0938-1h-2.4062c.15625-.29688.32812-.46875 1.1562-1.0781.98438-.71875 1.2812-1.1406 1.2812-1.9062 0-1.1094-.76562-1.8125-1.9531-1.8125-1.1719 0-1.8594.70312-1.8594 1.9062v.1875h1.0781v-.17188c0-.64062.29688-1 .8125-1 .5 0 .79688.34375.79688.90625 0 .625-.1875.85938-1.4531 1.7656-.96875.65625-1.2656 1.1406-1.3125 2.2031h3.8594z"/>
  </g>
  <g id="w">
   <path d="m4.0156-1.1719.375 1.1719h1.2344l-2.0156-5.8281h-1.3281l-2.0781 5.8281h1.2344l.39062-1.1719zm-.32812-1h-1.5312l.76562-2.2812z"/>
  </g>
  <g id="q">
   <path d="m3.2344 0h1.125v-5.8281h-1.125v2.0625c-.28125-.42188-.64062-.625-1.1875-.625-1.0312 0-1.8125.98438-1.8125 2.2969 0 .57812.17188 1.1719.46875 1.5938.28125.42188.8125.6875 1.3438.6875.54688 0 .90625-.20312 1.1875-.625zm-.9375-3.4531c.5625 0 .9375.54688.9375 1.375 0 .78125-.375 1.3281-.9375 1.3281s-.9375-.54688-.9375-1.3438c0-.8125.375-1.3594.9375-1.3594z"/>
  </g>
  <g id="v">
   <path d="m4.0469-2.9219c-.015625-.92188-.73438-1.4688-1.8906-1.4688-1.0938 0-1.7656.54688-1.7656 1.4375 0 .29688.078125.53125.23438.70312.15625.15625.28125.21875.70312.35938l1.3281.42188c.28125.078125.39062.17188.39062.34375 0 .26562-.3125.42188-.84375.42188-.29688 0-.51562-.046875-.65625-.14062-.125-.09375-.17188-.1875-.21875-.40625h-1.0938c.03125.95312.71875 1.4375 2.0312 1.4375.60938 0 1.0625-.125 1.375-.39062.32812-.25.51562-.65625.51562-1.0781 0-.5625-.28125-.92188-.84375-1.0938l-1.4219-.40625c-.3125-.09375-.39062-.15625-.39062-.32812 0-.25.26562-.40625.65625-.40625.53125 0 .79688.20312.79688.59375z"/>
  </g>
  <g id="y">
   <path d="m2.1875-5.7969c-.60938 0-1.125.26562-1.4688.73438-.32812.4375-.48438 1.1562-.48438 2.2656 0 1 .125 1.7031.39062 2.1406.34375.54688.89062.84375 1.5625.84375.60938 0 1.1094-.25 1.4688-.71875.3125-.4375.48438-1.1719.48438-2.2344 0-1.0469-.125-1.75-.40625-2.1875-.32812-.54688-.89062-.84375-1.5469-.84375zm0 .90625c.28125 0 .51562.15625.65625.45312.10938.25.17188.85938.17188 1.6406 0 .64062-.0625 1.2656-.14062 1.5-.125.34375-.375.51562-.6875.51562-.29688 0-.53125-.14062-.65625-.4375-.10938-.23438-.17188-.82812-.17188-1.5938 0-.67188.046875-1.3125.14062-1.5469.10938-.34375.35938-.53125.6875-.53125z"/>
  </g>
  <g id="i">
   <path d="m4.0938 0h1.1875v-5.8281h-1.1875v3.9688l-2.3125-3.9688h-1.2344v5.8281h1.2031v-4.0312z"/>
  </g>
  <g id="u">
   <path d="m1.6562-5.7188-1.6406 5.8281h.53125l1.6562-5.8281z"/>
  </g>
  <g id="x">
   <path d="m4.4531-2.4844h-4.5312v.82812h4.5312z"/>
  </g>
  <g id="p">
   <path d="m6.1406-5.2188h-1.9844v.125c.46875.046875.5625.125.5625.34375 0 .125-.015625.28125-.09375.5l-.35938 1.3125h-2.2812l.4375-1.5625c.10938-.40625.32812-.5625.79688-.59375v-.125h-2.1719v.125c.5.046875.60938.10938.60938.34375 0 .125-.03125.28125-.09375.5l-.98438 3.5312c-.14062.46875-.1875.51562-.64062.59375v.125h1.9688v-.125c-.48438-.0625-.5625-.125-.5625-.35938 0-.046875 0-.10938.015625-.17188l.53125-1.9531h2.2812l-.53125 1.8906c-.125.42188-.28125.53125-.79688.59375v.125h2.1875v-.125c-.53125-.046875-.625-.10938-.625-.34375 0-.078125 0-.125.015625-.1875l1.0625-3.8438c.125-.46875.20312-.51562.65625-.59375z"/>
  </g>
  <g id="d">
   <path d="m2.5938-3.5312c-.34375 0-.65625.09375-.98438.26562-.8125.46875-1.3906 1.3906-1.3906 2.2344 0 .6875.4375 1.125 1.1719 1.125.53125 0 1.0469-.23438 1.5-.70312.53125-.51562.85938-1.1875.85938-1.7969 0-.67188-.46875-1.125-1.1562-1.125zm-.09375.17188c.34375 0 .57812.29688.57812.75 0 .59375-.26562 1.3906-.625 1.9062-.29688.42188-.59375.625-.9375.625-.375 0-.625-.29688-.625-.73438 0-.59375.23438-1.2969.625-1.8594.3125-.45312.64062-.6875.98438-.6875z"/>
  </g>
  <g id="m">
   <path d="m1.8281-.98438c-.53125.67188-.59375.73438-.76562.73438-.078125 0-.125-.046875-.125-.15625 0-.0625.03125-.15625.078125-.3125 0-.03125.015625-.046875.015625-.0625v-.015625l1.2031-4.625-.046875-.046875c-.46875.10938-.78125.17188-1.25.21875v.125c.39062 0 .54688.046875.54688.1875 0 .03125 0 .078125-.015625.14062l-1.1094 4.2344c-.015625.078125-.03125.14062-.03125.20312 0 .29688.14062.45312.39062.45312.42188 0 .6875-.23438 1.2031-1z"/>
  </g>
  <g id="a">
   <path d="m2.8594-.875c-.57812.46875-.8125.60938-1.1719.60938-.45312 0-.75-.29688-.75-.73438 0-.125.015625-.23438.09375-.48438l.21875-.03125c1.2031-.17188 2.0469-.78125 2.0469-1.4688 0-.32812-.23438-.54688-.64062-.54688-1.1562 0-2.4062 1.3125-2.4062 2.5156 0 .65625.4375 1.1094 1.0469 1.1094.57812 0 1.1875-.32812 1.6562-.875zm-1.6406-1.1406c.26562-.71875.85938-1.3281 1.2656-1.3281.17188 0 .28125.125.28125.3125 0 .25-.15625.53125-.39062.78125-.29688.28125-.60938.42188-1.2969.59375z"/>
  </g>
  <g id="l">
   <path d="m1.2656 1.4062c-.29688-.82812-.375-1.3125-.375-2.0938 0-.95312.21875-2.1094.59375-3 .26562-.625.51562-1 1.0312-1.5469l-.09375-.125c-1.0469.95312-1.4531 1.4844-1.7969 2.3125-.20312.5-.28125.98438-.28125 1.6094 0 .60938.09375 1.2188.26562 1.7656.10938.32812.23438.59375.51562 1.125z"/>
  </g>
  <g id="c">
   <path d="m3.6875-.9375c-.4375.54688-.53125.64062-.65625.64062-.078125 0-.14062-.0625-.14062-.14062 0-.0625.03125-.20312.125-.5l.45312-1.6406c.03125-.17188.0625-.34375.0625-.46875 0-.29688-.21875-.48438-.51562-.48438-.51562 0-1.0312.48438-1.8438 1.7656l.53125-1.75-.015625-.015625c-.4375.09375-.60938.125-1.2969.25v.125c.40625.015625.5.0625.5.21875 0 .046875 0 .09375-.015625.14062l-.76562 2.7969h.60938c.375-1.2656.4375-1.4375.79688-1.9844.46875-.73438.89062-1.1406 1.1875-1.1406.10938 0 .1875.09375.1875.23438 0 .09375-.046875.35938-.10938.60938l-.35938 1.3281c-.10938.40625-.125.51562-.125.59375 0 .29688.10938.4375.375.4375.35938 0 .5625-.17188 1.125-.90625z"/>
  </g>
  <g id="b">
   <path d="m2.375-3.4219h-.64062l.21875-.82812v-.046875c0-.046875-.015625-.078125-.0625-.078125s-.0625.015625-.10938.078125c-.3125.40625-.8125.8125-1.0625.875-.20312.0625-.26562.125-.26562.20312 0 .015625 0 .03125.015625.046875h.59375l-.57812 2.2031c-.015625.078125-.03125.10938-.046875.17188-.078125.26562-.14062.51562-.14062.59375 0 .15625.17188.29688.39062.29688.35938 0 .625-.23438 1.125-.96875l-.09375-.0625c-.40625.5-.53125.64062-.65625.64062-.078125 0-.125-.0625-.125-.17188l.015625-.03125.70312-2.6719h.67188z"/>
  </g>
  <g id="k">
   <path d="m.45312-3.2188.17188-.015625c.1875 0 .34375.09375.34375.21875 0 .10938-.28125 1.2188-.5625 2.2656-.1875.6875-.34375 1.2812-.46875 1.7969-.078125.35938-.1875.45312-.53125.46875v.125h1.6406v-.125c-.39062 0-.51562-.0625-.51562-.23438 0-.10938.125-.71875.29688-1.3281.20312.10938.34375.14062.53125.14062 1.1562 0 2.3906-1.3438 2.3906-2.625 0-.625-.34375-1-.92188-1-.51562 0-.90625.26562-1.3594.92188l.23438-.8125c0-.046875.015625-.0625.015625-.0625 0-.03125-.015625-.046875-.046875-.046875h-.015625l-1.2188.17188zm2.0781.03125c.34375.015625.5.23438.5.6875 0 .54688-.23438 1.2188-.57812 1.7188-.32812.48438-.71875.71875-1.1406.71875-.21875 0-.375-.125-.375-.29688 0-.26562.28125-1.3125.51562-1.9062.21875-.54688.6875-.9375 1.0781-.92188z"/>
  </g>
  <g id="j">
   <path d="m.96875 0c.42188-1.375.54688-1.7031.92188-2.3125.26562-.45312.48438-.70312.625-.70312.046875 0 .078125.046875.125.125.0625.125.125.17188.28125.17188.25 0 .375-.14062.375-.40625 0-.23438-.15625-.40625-.375-.40625-.1875 0-.40625.125-.60938.34375-.32812.34375-.65625.79688-.78125 1.125l-.10938.28125.42188-1.7344-.015625-.015625c-.59375.10938-.65625.125-1.25.21875v.14062c.1875-.03125.21875-.046875.28125-.046875.17188 0 .28125.078125.28125.23438 0 .10938 0 .10938-.125.64062l-.65625 2.3438z"/>
  </g>
  <g id="o">
   <path d="m.28125-1.1719-.15625 1.2812h.125c.078125-.14062.10938-.17188.20312-.17188.078125 0 .23438.03125.39062.078125.1875.046875.29688.078125.4375.078125.67188 0 1.1562-.4375 1.1562-1.0469 0-.3125-.17188-.65625-.54688-1.125-.3125-.375-.4375-.625-.4375-.84375 0-.26562.17188-.42188.45312-.42188.40625 0 .65625.29688.73438.92188h.125l.15625-1.1094h-.10938c-.0625.10938-.10938.14062-.23438.14062-.0625 0-.14062-.015625-.29688-.0625-.1875-.0625-.3125-.078125-.4375-.078125-.59375 0-.96875.34375-.96875.89062 0 .25.17188.59375.5 1.0312.3125.40625.45312.6875.45312.90625 0 .375-.25.625-.59375.625-.45312 0-.6875-.32812-.8125-1.0938z"/>
  </g>
  <g id="n">
   <path d="m.23438 1.4375c.98438-.85938 1.3906-1.375 1.75-2.25.23438-.53125.32812-1.0312.32812-1.625 0-.45312-.0625-.96875-.17188-1.4375-.14062-.54688-.26562-.84375-.625-1.4844l-.14062.046875c.26562.65625.39062 1.2969.39062 2.0938 0 1.0156-.28125 2.3125-.67188 3.1719-.23438.51562-.48438.85938-.96875 1.3594z"/>
  </g>
 </defs>
 <g fill="none" stroke="#000" stroke-linecap="round" stroke-miterlimit="10" stroke-width=".66667">
  <path d="m44.886 160.53v-72"/>
  <path d="m44.886 88.53h46.797"/>
  <path d="m91.683 88.53v72"/>
  <path d="m91.683 160.53h-46.797"/>
  <path d="m44.886 88.53v-72"/>
  <path d="m44.886 16.53h46.797"/>
  <path d="m91.683 16.53v72"/>
  <path d="m91.683 88.53h-46.797"/>
 </g>
 <g transform="translate(-219.72 -53.169)" fill="#ff6600">
  <use x="269.10001" y="172.10001" xlink:href="#e"/>
  <use x="276.21201" y="172.10001" xlink:href="#h"/>
  <use x="280.66" y="172.10001" xlink:href="#e"/>
  <use x="287.772" y="172.10001" xlink:href="#t"/>
  <use x="292.66" y="172.10001" xlink:href="#g"/>
  <use x="295.772" y="172.10001" xlink:href="#s"/>
  <use x="302.5" y="172.10001" xlink:href="#r"/>
 </g>
 <g fill="none" stroke="#000" stroke-linecap="round" stroke-miterlimit="10">
  <g stroke-width=".66667">
   <path d="m44.886 160.53v-14.398"/>
   <path d="m44.886 146.13h46.797"/>
   <path d="m91.683 146.13v14.398"/>
   <path d="m91.683 160.53h-46.797"/>
  </g>
  <g stroke-width=".41667">
   <path d="m91.683 153.33-6.5976 7.1992"/>
   <path d="m44.886 153.33 6.5976-7.1992"/>
   <path d="m44.886 160.53 13.297-14.398"/>
   <path d="m51.484 160.53 13.301-14.398"/>
   <path d="m58.183 160.53 13.301-14.398"/>
   <path d="m64.886 160.53 13.297-14.398"/>
   <path d="m71.585 160.53 13.301-14.398"/>
   <path d="m78.285 160.53 13.301-14.398"/>
  </g>
 </g>
 <g transform="translate(-219.72 -53.169)" fill="#ff6600">
  <use x="269.10001" y="91.099998" xlink:href="#e"/>
  <use x="276.21201" y="91.099998" xlink:href="#h"/>
  <use x="280.66" y="91.099998" xlink:href="#e"/>
  <use x="287.772" y="91.099998" xlink:href="#t"/>
  <use x="292.66" y="91.099998" xlink:href="#g"/>
  <use x="295.772" y="91.099998" xlink:href="#s"/>
  <use x="302.5" y="91.099998" xlink:href="#f"/>
 </g>
 <g fill="none" stroke="#000" stroke-linecap="round" stroke-miterlimit="10">
  <g stroke-width=".66667">
   <path d="m44.886 88.53v-32.398"/>
   <path d="m44.886 56.131h46.797"/>
   <path d="m91.683 56.131v32.398"/>
   <path d="m91.683 88.53h-46.797"/>
  </g>
  <g stroke-width=".41667">
   <path d="m91.683 72.331-15.598 16.199"/>
   <path d="m44.886 72.331 15.598-16.199"/>
   <path d="m44.886 88.53 31.098-32.398"/>
   <path d="m60.484 88.53 31.102-32.398"/>
  </g>
 </g>
 <g transform="translate(-219.72 -53.169)" fill="#00ff00">
  <use x="225.2" y="65.599998" xlink:href="#w"/>
  <use x="230.976" y="65.599998" xlink:href="#q"/>
  <use x="235.864" y="65.599998" xlink:href="#q"/>
  <use x="240.752" y="65.599998" xlink:href="#g"/>
  <use x="243.864" y="65.599998" xlink:href="#h"/>
  <use x="248.312" y="65.599998" xlink:href="#v"/>
  <use x="252.75999" y="65.599998" xlink:href="#v"/>
 </g>
 <g transform="translate(-219.72 -53.169)" fill="#007fff">
  <use x="255" y="211.7" xlink:href="#y"/>
  <use x="234.89999" y="149.10001" xlink:href="#i"/>
  <use x="241.3" y="149.10001" xlink:href="#u"/>
  <use x="244.10001" y="149.10001" xlink:href="#f"/>
  <use x="249.2" y="149.10001" xlink:href="#x"/>
  <use x="255" y="149.10001" xlink:href="#r"/>
  <use x="245.8" y="139.7" xlink:href="#i"/>
  <use x="252.2" y="139.7" xlink:href="#u"/>
  <use x="255" y="139.7" xlink:href="#f"/>
  <use x="253.7" y="77.099998" xlink:href="#i"/>
 </g>
 <g fill="none" stroke="#000" stroke-linecap="round" stroke-miterlimit="10">
  <path d="m109.68 153.33h-14.398" stroke-width=".25"/>
  <g stroke-width=".65">
   <path d="m102.48 151.53-7.1992 1.8008"/>
   <path d="m102.59 152.13-7.3008 1.1992"/>
   <path d="m102.68 152.73-7.3984.5"/>
   <path d="m102.68 153.33h-7.3984"/>
   <path d="m102.68 153.93-7.3984-.5"/>
   <path d="m102.59 154.53-7.3008-1.1992"/>
   <path d="m102.48 155.13-7.1992-1.8008"/>
  </g>
  <path d="m109.68 72.331h-14.398" stroke-width=".25"/>
  <g stroke-width=".65">
   <path d="m102.48 70.53-7.1992 1.8008"/>
   <path d="m102.59 71.131-7.3008 1.1992"/>
   <path d="m102.68 71.729-7.3984.5"/>
   <path d="m102.68 72.331h-7.3984"/>
   <path d="m102.68 72.932-7.3984-.5"/>
   <path d="m102.59 73.53-7.3008-1.1992"/>
   <path d="m102.48 74.131-7.1992-1.8008"/>
  </g>
 </g>
 <g transform="translate(-219.72 -53.169)">
  <use x="333" y="203.10001" xlink:href="#p"/>
  <use x="338.776" y="203.10001" xlink:href="#d"/>
  <use x="342.776" y="203.10001" xlink:href="#m"/>
  <use x="345" y="203.10001" xlink:href="#a"/>
  <use x="333" y="213.10001" xlink:href="#l"/>
  <use x="335.664" y="213.10001" xlink:href="#c"/>
  <use x="339.664" y="213.10001" xlink:href="#d"/>
  <use x="343.664" y="213.10001" xlink:href="#b"/>
  <use x="348.20001" y="213.10001" xlink:href="#k"/>
  <use x="352.20001" y="213.10001" xlink:href="#j"/>
  <use x="355.31201" y="213.10001" xlink:href="#a"/>
  <use x="358.86401" y="213.10001" xlink:href="#o"/>
  <use x="361.97601" y="213.10001" xlink:href="#a"/>
  <use x="365.52802" y="213.10001" xlink:href="#c"/>
  <use x="369.52802" y="213.10001" xlink:href="#b"/>
  <use x="371.75201" y="213.10001" xlink:href="#n"/>
  <use x="333" y="122.1" xlink:href="#p"/>
  <use x="338.776" y="122.1" xlink:href="#d"/>
  <use x="342.776" y="122.1" xlink:href="#m"/>
  <use x="345" y="122.1" xlink:href="#a"/>
  <use x="333" y="132.10001" xlink:href="#l"/>
  <use x="335.664" y="132.10001" xlink:href="#c"/>
  <use x="339.664" y="132.10001" xlink:href="#d"/>
  <use x="343.664" y="132.10001" xlink:href="#b"/>
  <use x="348.20001" y="132.10001" xlink:href="#k"/>
  <use x="352.20001" y="132.10001" xlink:href="#j"/>
  <use x="355.31201" y="132.10001" xlink:href="#a"/>
  <use x="358.86401" y="132.10001" xlink:href="#o"/>
  <use x="361.97601" y="132.10001" xlink:href="#a"/>
  <use x="365.52802" y="132.10001" xlink:href="#c"/>
  <use x="369.52802" y="132.10001" xlink:href="#b"/>
  <use x="371.75201" y="132.10001" xlink:href="#n"/>
 </g>
</svg>
