<svg width="150" height="120" version="1.1" viewBox="0 0 150 120" xmlns="http://www.w3.org/2000/svg" xmlns:xlink="http://www.w3.org/1999/xlink">
 <defs>
  <g id="k">
   <path d="m4.1719-2.7031c-.078125-1.0625-.76562-1.6875-1.8594-1.6875-1.2969 0-2.0469.84375-2.0469 2.3125 0 1.4375.75 2.2656 2.0312 2.2656 1.0469 0 1.7812-.65625 1.875-1.6875h-1.0625c-.14062.5625-.35938.78125-.8125.78125-.5625 0-.90625-.5-.90625-1.3594 0-.40625.078125-.78125.21875-1.0469.125-.23438.375-.35938.6875-.35938.46875 0 .67188.21875.8125.78125z"/>
  </g>
  <g id="d">
   <path d="m1.6562-4.3125h-1.125v4.3125h1.125zm0-1.5156h-1.125v1h1.125z"/>
  </g>
  <g id="c">
   <path d="m.5-4.3125v4.3125h1.125v-2.2969c0-.65625.32812-.98438.98438-.98438.125 0 .20312.015625.34375.03125v-1.1406h-.125c-.51562 0-.95312.32812-1.2031.92188v-.84375z"/>
  </g>
  <g id="e">
   <path d="m4.3281 0v-4.3125h-1.125v2.7031c0 .5-.34375.84375-.90625.84375-.46875 0-.71875-.26562-.71875-.78125v-2.7656h-1.1094v3c0 .95312.51562 1.5 1.4375 1.5.59375 0 .98438-.21875 1.2969-.70312v.51562z"/>
  </g>
  <g id="b">
   <path d="m2.4062-4.2344h-.625v-1.1562h-1.125v1.1562h-.54688v.75h.54688v2.6562c0 .67188.375 1.0156 1.1094 1.0156.25 0 .4375-.03125.64062-.09375v-.78125c-.10938.015625-.17188.03125-.25.03125-.29688 0-.375-.09375-.375-.48438v-2.3438h.625z"/>
  </g>
  <g id="h">
   <path d="m2.5-4.2344h-.65625v-.42188c0-.21875.09375-.32812.29688-.32812.10938 0 .21875 0 .32812.015625v-.84375c-.25-.015625-.48438-.015625-.64062-.015625-.75 0-1.1094.34375-1.1094 1.0781v.51562h-.60938v.75h.60938v3.4844h1.125v-3.4844h.65625z"/>
  </g>
  <g id="g">
   <path d="m2.4062-4.3906c-1.3125 0-2.125.875-2.125 2.2812 0 1.4219.8125 2.2969 2.1406 2.2969 1.3125 0 2.125-.875 2.125-2.2656 0-1.4531-.78125-2.3125-2.1406-2.3125zm.015625.90625c.60938 0 1.0156.54688 1.0156 1.3906 0 .8125-.42188 1.375-1.0156 1.375-.60938 0-1.0156-.54688-1.0156-1.3906 0-.82812.40625-1.375 1.0156-1.375z"/>
  </g>
  <g id="f">
   <path d="m.5-4.3125v4.3125h1.125v-2.5938c0-.51562.34375-.84375.90625-.84375.48438 0 .71875.26562.71875.78125v2.6562h1.125v-2.8906c0-.96875-.53125-1.5-1.4531-1.5-.57812 0-.98438.20312-1.2969.6875v-.60938z"/>
  </g>
  <g id="a">
   <path d="m4.1875-1.8125c.015625-.09375.015625-.125.015625-.1875 0-.4375-.0625-.82812-.17188-1.1406-.28125-.78125-.98438-1.25-1.8594-1.25-1.2344 0-2 .89062-2 2.3438 0 1.3906.75 2.2344 1.9844 2.2344.96875 0 1.75-.54688 2-1.4062h-1.1094c-.14062.34375-.45312.54688-.85938.54688-.3125 0-.57812-.14062-.73438-.375-.09375-.15625-.14062-.35938-.15625-.76562zm-2.875-.73438c.078125-.67188.34375-.98438.84375-.98438.51562 0 .8125.34375.875.98438z"/>
  </g>
  <g id="j">
   <path d="m.46875-5.8281v5.8281h1.125v-.4375c.26562.42188.64062.625 1.1875.625 1.0312 0 1.8125-.98438 1.8125-2.2969 0-.57812-.17188-1.1719-.45312-1.5938-.29688-.42188-.82812-.6875-1.3594-.6875-.54688 0-.92188.20312-1.1875.625v-2.0625zm2.0625 2.375c.5625 0 .95312.5625.95312 1.3594s-.39062 1.3438-.95312 1.3438-.9375-.53125-.9375-1.375c0-.78125.375-1.3281.9375-1.3281z"/>
  </g>
  <g id="p">
   <path d="m4.0469-2.9219c-.015625-.92188-.73438-1.4688-1.8906-1.4688-1.0938 0-1.7656.54688-1.7656 1.4375 0 .29688.078125.53125.23438.70312.15625.15625.28125.21875.70312.35938l1.3281.42188c.28125.078125.39062.17188.39062.34375 0 .26562-.3125.42188-.84375.42188-.29688 0-.51562-.046875-.65625-.14062-.125-.09375-.17188-.1875-.21875-.40625h-1.0938c.03125.95312.71875 1.4375 2.0312 1.4375.60938 0 1.0625-.125 1.375-.39062.32812-.25.51562-.65625.51562-1.0781 0-.5625-.28125-.92188-.84375-1.0938l-1.4219-.40625c-.3125-.09375-.39062-.15625-.39062-.32812 0-.25.26562-.40625.65625-.40625.53125 0 .79688.20312.79688.59375z"/>
  </g>
  <g id="o">
   <path d="m.53125-5.8281v5.8281h1.125v-2.5938c0-.5.35938-.84375.85938-.84375.25 0 .4375.078125.5625.26562.10938.14062.125.26562.125.53125v2.6406h1.125v-2.8906c0-.54688-.14062-.92188-.4375-1.1719-.25-.20312-.60938-.32812-.96875-.32812-.54688 0-.95312.21875-1.2656.6875v-2.125z"/>
  </g>
  <g id="i">
   <path d="m1.5781-4.3125h-1.1094v6.0625h1.1094v-2.2656c.28125.48438.65625.70312 1.2031.70312 1.0469 0 1.8125-.96875 1.8125-2.2812 0-.60938-.17188-1.2188-.46875-1.625-.28125-.40625-.82812-.67188-1.3438-.67188-.54688 0-.92188.23438-1.2031.70312zm.95312.85938c.5625 0 .9375.54688.9375 1.375 0 .79688-.375 1.3281-.9375 1.3281-.57812 0-.95312-.53125-.95312-1.3438s.375-1.3594.95312-1.3594z"/>
  </g>
  <g id="n">
   <path d="m4.9062 0 1.2188-4.3125h-1.1562l-.65625 3.0156-.65625-3.0156h-1.1094l-.65625 3.0156-.6875-3.0156h-1.1562l1.2031 4.3125h1.1562l.6875-3.0469.65625 3.0469z"/>
  </g>
  <g id="m">
   <path d="m4.1875-.14062c-.1875-.17188-.25-.3125-.25-.51562v-2.4062c0-.875-.59375-1.3281-1.7656-1.3281s-1.7812.5-1.8594 1.5h1.0938c.046875-.45312.23438-.59375.78125-.59375.4375 0 .65625.14062.65625.42188 0 .15625-.078125.26562-.20312.34375-.14062.078125-.14062.078125-.70312.17188l-.4375.078125c-.85938.14062-1.2812.57812-1.2812 1.3594 0 .76562.53125 1.2969 1.3125 1.2969.48438 0 .92188-.20312 1.3125-.625 0 .23438.03125.3125.125.4375h1.2188zm-1.3438-1.5938c0 .64062-.32812 1.0156-.89062 1.0156-.375 0-.60938-.20312-.60938-.51562 0-.34375.17188-.5.64062-.59375l.39062-.078125c.28125-.046875.34375-.0625.46875-.14062z"/>
  </g>
  <g id="l">
   <path d="m1.6562-5.8281h-1.125v5.8281h1.125z"/>
  </g>
 </defs>
 <g fill="none" stroke="#000" stroke-linecap="round" stroke-miterlimit="10" stroke-width=".66667">
  <path d="m48.676 83.786v-43.199"/>
  <path d="m48.676 40.587h54"/>
  <path d="m102.68 40.587v43.199"/>
  <path d="m102.68 83.786h-54"/>
 </g>
 <g transform="translate(-212.32 -55.014)" fill="#ff6600">
  <use x="276" y="108.8" xlink:href="#k"/>
  <use x="280.448" y="108.8" xlink:href="#d"/>
  <use x="282.672" y="108.8" xlink:href="#c"/>
  <use x="285.784" y="108.8" xlink:href="#k"/>
  <use x="290.23199" y="108.8" xlink:href="#e"/>
  <use x="295.12" y="108.8" xlink:href="#d"/>
  <use x="297.34399" y="108.8" xlink:href="#b"/>
  <use x="282.70001" y="118.8" xlink:href="#h"/>
  <use x="285.36401" y="118.8" xlink:href="#g"/>
  <use x="290.25201" y="118.8" xlink:href="#c"/>
  <use x="274.89999" y="128.8" xlink:href="#g"/>
  <use x="279.78799" y="128.8" xlink:href="#f"/>
  <use x="284.67599" y="128.8" xlink:href="#a"/>
  <use x="291.39999" y="128.8" xlink:href="#j"/>
  <use x="296.28799" y="128.8" xlink:href="#d"/>
  <use x="298.51199" y="128.8" xlink:href="#b"/>
 </g>
 <g fill="none" stroke="#000" stroke-linecap="round" stroke-miterlimit="10" stroke-width=".66667">
  <path d="m48.676 116.18v-14.398"/>
  <path d="m48.676 101.79h54"/>
  <path d="m102.68 101.79v14.398"/>
  <path d="m102.68 116.18h-54"/>
 </g>
 <g transform="translate(-212.32 -55.014)" fill="#00ff00">
  <use x="274.39999" y="167.10001" xlink:href="#c"/>
  <use x="277.51199" y="167.10001" xlink:href="#a"/>
  <use x="281.95999" y="167.10001" xlink:href="#h"/>
  <use x="284.62399" y="167.10001" xlink:href="#c"/>
  <use x="287.73599" y="167.10001" xlink:href="#a"/>
  <use x="292.18399" y="167.10001" xlink:href="#p"/>
  <use x="296.63199" y="167.10001" xlink:href="#o"/>
 </g>
 <g fill="none" stroke="#000" stroke-linecap="round" stroke-miterlimit="10" stroke-width=".66667">
  <path d="m102.68 72.986h14.398"/>
  <path d="m117.07 72.986v36"/>
  <path d="m117.07 108.99h-14.398"/>
  <path d="m109.88 107.18-7.1992 1.8008"/>
  <path d="m109.98 107.79-7.3008 1.1992"/>
  <path d="m110.07 108.49-7.3984.5"/>
  <path d="m110.07 108.99h-7.3984"/>
  <path d="m110.07 109.59-7.3984-.5"/>
  <path d="m109.98 110.29-7.3008-1.1992"/>
  <path d="m109.88 110.79-7.1992-1.8008"/>
  <path d="m48.676 108.99h-14.398"/>
  <path d="m34.278 108.99v-36"/>
  <path d="m34.278 72.986h14.398"/>
  <path d="m41.477 74.786 7.1992-1.8008"/>
  <path d="m41.278 74.286 7.2969-1.1992"/>
  <path d="m41.176 73.587 7.3984-.5"/>
  <path d="m41.176 72.986h7.3984"/>
  <path d="m41.176 72.486 7.3984.5"/>
  <path d="m41.278 71.786 7.2969 1.1992"/>
  <path d="m41.477 71.185 7.1992 1.8008"/>
  <path d="m5.4768 62.185h43.199"/>
  <path d="m41.477 63.986 7.1992-1.8008"/>
  <path d="m41.278 63.486 7.2969-1.1992"/>
  <path d="m41.176 62.786 7.3984-.5"/>
  <path d="m41.176 62.185h7.3984"/>
  <path d="m41.176 61.685 7.3984.5"/>
  <path d="m41.278 60.986 7.2969 1.1992"/>
  <path d="m41.477 60.384 7.1992 1.8008"/>
 </g>
 <g transform="translate(-212.32 -55.014)" fill="#007fff">
  <use x="229.7" y="113.1" xlink:href="#d"/>
  <use x="231.924" y="113.1" xlink:href="#f"/>
  <use x="236.812" y="113.1" xlink:href="#i"/>
  <use x="241.7" y="113.1" xlink:href="#e"/>
  <use x="246.588" y="113.1" xlink:href="#b"/>
 </g>
 <g fill="none" stroke="#000" stroke-linecap="round" stroke-miterlimit="10" stroke-width=".66667">
  <path d="m102.68 62.185h43.199"/>
  <path d="m138.68 63.986 7.1992-1.8008"/>
  <path d="m138.48 63.486 7.3008-1.1992"/>
  <path d="m138.38 62.786 7.4023-.5"/>
  <path d="m138.38 62.185h7.4023"/>
  <path d="m138.38 61.685 7.4023.5"/>
  <path d="m138.48 60.986 7.3008 1.1992"/>
  <path d="m138.68 60.384 7.1992 1.8008"/>
 </g>
 <g transform="translate(-212.32 -55.014)" fill="#007fff">
  <use x="324.20001" y="113.1" xlink:href="#g"/>
  <use x="329.08801" y="113.1" xlink:href="#e"/>
  <use x="333.97601" y="113.1" xlink:href="#b"/>
  <use x="336.64001" y="113.1" xlink:href="#i"/>
  <use x="341.52802" y="113.1" xlink:href="#e"/>
  <use x="346.41599" y="113.1" xlink:href="#b"/>
 </g>
 <g fill="none" stroke="#000" stroke-linecap="round" stroke-miterlimit="10" stroke-width=".66667">
  <path d="m75.676 14.685v25.902"/>
  <path d="m73.875 33.384 1.8008 7.2031"/>
  <path d="m74.375 33.286 1.1992 7.3008"/>
  <path d="m75.074 33.185.5 7.4023"/>
  <path d="m75.676 33.185v7.4023"/>
  <path d="m76.176 33.185-.5 7.4023"/>
  <path d="m76.875 33.286-1.1992 7.3008"/>
  <path d="m77.477 33.384-1.8008 7.2031"/>
 </g>
 <g transform="translate(-212.32 -55.014)" fill="#007fff">
  <use x="264.89999" y="65.599998" xlink:href="#n"/>
  <use x="271.12399" y="65.599998" xlink:href="#c"/>
  <use x="274.23599" y="65.599998" xlink:href="#d"/>
  <use x="276.45999" y="65.599998" xlink:href="#b"/>
  <use x="279.12399" y="65.599998" xlink:href="#a"/>
  <use x="285.70001" y="65.599998" xlink:href="#a"/>
  <use x="290.14801" y="65.599998" xlink:href="#f"/>
  <use x="295.03601" y="65.599998" xlink:href="#m"/>
  <use x="299.48401" y="65.599998" xlink:href="#j"/>
  <use x="304.37201" y="65.599998" xlink:href="#l"/>
  <use x="306.59601" y="65.599998" xlink:href="#a"/>
 </g>
</svg>
