<svg width="250" height="95" version="1.1" viewBox="0 0 250 95" xmlns="http://www.w3.org/2000/svg" xmlns:xlink="http://www.w3.org/1999/xlink">
 <defs>
  <g id="h">
   <path d="m4.1875-.14062c-.1875-.17188-.25-.3125-.25-.51562v-2.4062c0-.875-.59375-1.3281-1.7656-1.3281s-1.7812.5-1.8594 1.5h1.0938c.046875-.45312.23438-.59375.78125-.59375.4375 0 .65625.14062.65625.42188 0 .15625-.078125.26562-.20312.34375-.14062.078125-.14062.078125-.70312.17188l-.4375.078125c-.85938.14062-1.2812.57812-1.2812 1.3594 0 .76562.53125 1.2969 1.3125 1.2969.48438 0 .92188-.20312 1.3125-.625 0 .23438.03125.3125.125.4375h1.2188zm-1.3438-1.5938c0 .64062-.32812 1.0156-.89062 1.0156-.375 0-.60938-.20312-.60938-.51562 0-.34375.17188-.5.64062-.59375l.39062-.078125c.28125-.046875.34375-.0625.46875-.14062z"/>
  </g>
  <g id="d">
   <path d="m3.2344 0h1.125v-5.8281h-1.125v2.0625c-.28125-.42188-.64062-.625-1.1875-.625-1.0312 0-1.8125.98438-1.8125 2.2969 0 .57812.17188 1.1719.46875 1.5938.28125.42188.8125.6875 1.3438.6875.54688 0 .90625-.20312 1.1875-.625zm-.9375-3.4531c.5625 0 .9375.54688.9375 1.375 0 .78125-.375 1.3281-.9375 1.3281s-.9375-.54688-.9375-1.3438c0-.8125.375-1.3594.9375-1.3594z"/>
  </g>
  <g id="e">
   <path d="m2.4062-4.3906c-1.3125 0-2.125.875-2.125 2.2812 0 1.4219.8125 2.2969 2.1406 2.2969 1.3125 0 2.125-.875 2.125-2.2656 0-1.4531-.78125-2.3125-2.1406-2.3125zm.015625.90625c.60938 0 1.0156.54688 1.0156 1.3906 0 .8125-.42188 1.375-1.0156 1.375-.60938 0-1.0156-.54688-1.0156-1.3906 0-.82812.40625-1.375 1.0156-1.375z"/>
  </g>
  <g id="g">
   <path d="m1.5781-4.3125h-1.1094v6.0625h1.1094v-2.2656c.28125.48438.65625.70312 1.2031.70312 1.0469 0 1.8125-.96875 1.8125-2.2812 0-.60938-.17188-1.2188-.46875-1.625-.28125-.40625-.82812-.67188-1.3438-.67188-.54688 0-.92188.23438-1.2031.70312zm.95312.85938c.5625 0 .9375.54688.9375 1.375 0 .79688-.375 1.3281-.9375 1.3281-.57812 0-.95312-.53125-.95312-1.3438s.375-1.3594.95312-1.3594z"/>
  </g>
  <g id="o">
   <path d="m4.1719-2.7031c-.078125-1.0625-.76562-1.6875-1.8594-1.6875-1.2969 0-2.0469.84375-2.0469 2.3125 0 1.4375.75 2.2656 2.0312 2.2656 1.0469 0 1.7812-.65625 1.875-1.6875h-1.0625c-.14062.5625-.35938.78125-.8125.78125-.5625 0-.90625-.5-.90625-1.3594 0-.40625.078125-.78125.21875-1.0469.125-.23438.375-.35938.6875-.35938.46875 0 .67188.21875.8125.78125z"/>
  </g>
  <g id="b">
   <path d="m4.1875-1.8125c.015625-.09375.015625-.125.015625-.1875 0-.4375-.0625-.82812-.17188-1.1406-.28125-.78125-.98438-1.25-1.8594-1.25-1.2344 0-2 .89062-2 2.3438 0 1.3906.75 2.2344 1.9844 2.2344.96875 0 1.75-.54688 2-1.4062h-1.1094c-.14062.34375-.45312.54688-.85938.54688-.3125 0-.57812-.14062-.73438-.375-.09375-.15625-.14062-.35938-.15625-.76562zm-2.875-.73438c.078125-.67188.34375-.98438.84375-.98438.51562 0 .8125.34375.875.98438z"/>
  </g>
  <g id="c">
   <path d="m.5-4.3125v4.3125h1.125v-2.2969c0-.65625.32812-.98438.98438-.98438.125 0 .20312.015625.34375.03125v-1.1406h-.125c-.51562 0-.95312.32812-1.2031.92188v-.84375z"/>
  </g>
  <g id="f">
   <path d="m.5-4.3125v4.3125h1.125v-2.5938c0-.51562.34375-.84375.90625-.84375.48438 0 .71875.26562.71875.78125v2.6562h1.125v-2.8906c0-.96875-.53125-1.5-1.4531-1.5-.57812 0-.98438.20312-1.2969.6875v-.60938z"/>
  </g>
  <g id="k">
   <path d="m1.9062-3.9062v3.9062h1.125v-5.6719h-.75c-.17188.67188-.76562 1.0156-1.7344 1.0156v.75z"/>
  </g>
  <g id="j">
   <path d="m3.2031-4.3125v.65625c-.3125-.5-.65625-.73438-1.1094-.73438-.39062 0-.8125.1875-1.1094.5-.4375.45312-.65625 1.0781-.65625 1.8281 0 1.3281.70312 2.25 1.7344 2.25.46875 0 .75-.15625 1.1406-.625v.57812c0 .51562-.375.89062-.90625.89062-.39062 0-.64062-.1875-.73438-.51562h-1.1406c0 .34375.125.57812.42188.8125.34375.28125.8125.42188 1.4219.42188 1.25 0 2-.60938 2-1.6094v-4.4531zm-.90625.85938c.53125 0 .92188.57812.92188 1.375s-.375 1.3281-.9375 1.3281c-.48438 0-.82812-.53125-.82812-1.3281 0-.8125.34375-1.375.84375-1.375z"/>
  </g>
  <g id="i">
   <path d="m1.6562-4.3125h-1.125v4.3125h1.125zm0-1.5156h-1.125v1h1.125z"/>
  </g>
  <g id="m">
   <path d="m4.0469-2.9219c-.015625-.92188-.73438-1.4688-1.8906-1.4688-1.0938 0-1.7656.54688-1.7656 1.4375 0 .29688.078125.53125.23438.70312.15625.15625.28125.21875.70312.35938l1.3281.42188c.28125.078125.39062.17188.39062.34375 0 .26562-.3125.42188-.84375.42188-.29688 0-.51562-.046875-.65625-.14062-.125-.09375-.17188-.1875-.21875-.40625h-1.0938c.03125.95312.71875 1.4375 2.0312 1.4375.60938 0 1.0625-.125 1.375-.39062.32812-.25.51562-.65625.51562-1.0781 0-.5625-.28125-.92188-.84375-1.0938l-1.4219-.40625c-.3125-.09375-.39062-.15625-.39062-.32812 0-.25.26562-.40625.65625-.40625.53125 0 .79688.20312.79688.59375z"/>
  </g>
  <g id="l">
   <path d="m2.4062-4.2344h-.625v-1.1562h-1.125v1.1562h-.54688v.75h.54688v2.6562c0 .67188.375 1.0156 1.1094 1.0156.25 0 .4375-.03125.64062-.09375v-.78125c-.10938.015625-.17188.03125-.25.03125-.29688 0-.375-.09375-.375-.48438v-2.3438h.625z"/>
  </g>
  <g id="n">
   <path d="m4.0938-1h-2.4062c.15625-.29688.32812-.46875 1.1562-1.0781.98438-.71875 1.2812-1.1406 1.2812-1.9062 0-1.1094-.76562-1.8125-1.9531-1.8125-1.1719 0-1.8594.70312-1.8594 1.9062v.1875h1.0781v-.17188c0-.64062.29688-1 .8125-1 .5 0 .79688.34375.79688.90625 0 .625-.1875.85938-1.4531 1.7656-.96875.65625-1.2656 1.1406-1.3125 2.2031h3.8594z"/>
  </g>
  <g id="r">
   <path d="m4.4531-2.4844h-4.5312v.82812h4.5312z"/>
  </g>
  <g id="q">
   <path d="m.29688-1.3125c.03125.85938.76562 1.5 1.75 1.5.71875 0 1.2656-.29688 1.6094-.875.29688-.5.46875-1.3594.46875-2.2656 0-.84375-.125-1.4844-.39062-1.9062-.35938-.60938-.92188-.9375-1.5938-.9375-1.1406 0-1.9219.82812-1.9219 2s.6875 1.9688 1.7031 1.9688c.28125 0 .5625-.078125.73438-.20312.10938-.078125.17188-.14062.35938-.35938 0 1.1094-.3125 1.625-.9375 1.625-.40625 0-.67188-.21875-.6875-.54688zm1.8125-3.5625c.53125 0 .875.40625.875 1.0781 0 .625-.34375 1.0469-.85938 1.0469s-.84375-.40625-.84375-1.0625.3125-1.0625.82812-1.0625z"/>
  </g>
  <g id="p">
   <path d="m1.7344-2.5312c.4375 0 .45312 0 .65625.046875.375.10938.625.4375.625.85938 0 .5-.35938.84375-.84375.84375-.53125 0-.8125-.29688-.85938-.875h-1.0781c0 1.125.73438 1.8438 1.9062 1.8438 1.2188 0 1.9844-.71875 1.9844-1.8125 0-.67188-.28125-1.1094-.92188-1.4219.51562-.32812.73438-.6875.73438-1.2031 0-.9375-.70312-1.5469-1.7969-1.5469-.82812 0-1.4531.35938-1.7031.98438-.09375.26562-.14062.45312-.14062.92188h1.0469c.015625-.29688.03125-.45312.09375-.59375.09375-.25.35938-.40625.6875-.40625.4375 0 .70312.28125.70312.75 0 .57812-.32812.85938-1 .85938h-.09375z"/>
  </g>
  <g id="a">
   <path d="m.875-.70312c-.20312 0-.39062.17188-.39062.40625 0 .20312.1875.375.39062.375s.39062-.17188.39062-.375c0-.21875-.1875-.40625-.39062-.40625z"/>
  </g>
 </defs>
 <g fill="none" stroke="#000203" stroke-linecap="round" stroke-miterlimit="10" stroke-width=".66667">
  <path d="m2.7366 39.166v-25.199"/>
  <path d="m2.7366 13.967h57.598"/>
  <path d="m60.334 13.967v25.199"/>
  <path d="m60.334 39.166h-57.598"/>
 </g>
 <g transform="translate(-162.86 -56.232)" fill="#007fff">
  <use x="187.3" y="84.400002" xlink:href="#h"/>
  <use x="191.748" y="84.400002" xlink:href="#d"/>
  <use x="196.636" y="84.400002" xlink:href="#d"/>
 </g>
 <g transform="translate(-162.86 -56.232)" fill="#ff6600">
  <use x="180.10001" y="64.599998" xlink:href="#e"/>
  <use x="184.98801" y="64.599998" xlink:href="#g"/>
  <use x="189.87601" y="64.599998" xlink:href="#o"/>
  <use x="194.32401" y="64.599998" xlink:href="#e"/>
  <use x="199.21201" y="64.599998" xlink:href="#d"/>
  <use x="204.10001" y="64.599998" xlink:href="#b"/>
 </g>
 <g fill="none" stroke="#000203" stroke-linecap="round" stroke-miterlimit="10" stroke-width=".66667">
  <path d="m60.334 39.166v-25.199"/>
  <path d="m60.334 13.967h93.602"/>
  <path d="m153.94 39.166h-93.602"/>
 </g>
 <g>
  <g transform="translate(-162.86 -56.232)" fill="#ffcc00">
   <use x="250.8" y="64.599998" xlink:href="#e"/>
   <use x="255.688" y="64.599998" xlink:href="#g"/>
   <use x="260.57599" y="64.599998" xlink:href="#b"/>
   <use x="265.02399" y="64.599998" xlink:href="#c"/>
   <use x="268.13599" y="64.599998" xlink:href="#h"/>
   <use x="272.58401" y="64.599998" xlink:href="#f"/>
   <use x="277.47198" y="64.599998" xlink:href="#d"/>
  </g>
  <g transform="translate(-162.86 -56.232)" fill="#007fff">
   <use x="284.69998" y="64.599998" fill="#ffcc00" xlink:href="#k"/>
  </g>
  <g transform="translate(-162.86 -56.232)" fill="#ff00ff">
   <use x="227.2" y="84.400002" xlink:href="#c"/>
   <use x="230.312" y="84.400002" xlink:href="#b"/>
   <use x="234.75999" y="84.400002" xlink:href="#j"/>
   <use x="239.64799" y="84.400002" xlink:href="#i"/>
   <use x="241.87199" y="84.400002" xlink:href="#m"/>
   <use x="246.32001" y="84.400002" xlink:href="#l"/>
   <use x="248.98399" y="84.400002" xlink:href="#b"/>
   <use x="253.43201" y="84.400002" xlink:href="#c"/>
  </g>
  <g transform="translate(-162.86 -56.232)" fill="#0ff">
   <use x="286.5" y="84.400002" fill="#00ffff" xlink:href="#k"/>
  </g>
 </g>
 <g fill="none" stroke="#000203" stroke-linecap="round" stroke-miterlimit="10" stroke-width=".66667">
  <path d="m153.94 39.166v-25.199"/>
  <path d="m153.94 13.967h93.598"/>
  <path d="m247.53 13.967v25.199"/>
  <path d="m247.53 39.166h-93.598"/>
 </g>
 <g>
  <g transform="translate(-162.86 -56.232)" fill="#00ff00">
   <use x="344.39999" y="64.599998" xlink:href="#e"/>
   <use x="349.28799" y="64.599998" xlink:href="#g"/>
   <use x="354.17599" y="64.599998" xlink:href="#b"/>
   <use x="358.62399" y="64.599998" xlink:href="#c"/>
   <use x="361.73599" y="64.599998" xlink:href="#h"/>
   <use x="366.18399" y="64.599998" xlink:href="#f"/>
   <use x="371.07199" y="64.599998" xlink:href="#d"/>
   <use x="378.29999" y="64.599998" xlink:href="#n"/>
  </g>
  <g transform="translate(-162.86 -56.232)" fill="#ff00ff">
   <use x="320.79999" y="84.400002" xlink:href="#c"/>
   <use x="323.91199" y="84.400002" xlink:href="#b"/>
   <use x="328.35999" y="84.400002" xlink:href="#j"/>
   <use x="333.24799" y="84.400002" xlink:href="#i"/>
   <use x="335.47198" y="84.400002" xlink:href="#m"/>
   <use x="339.92001" y="84.400002" xlink:href="#l"/>
   <use x="342.58401" y="84.400002" xlink:href="#b"/>
   <use x="347.03201" y="84.400002" xlink:href="#c"/>
  </g>
  <g transform="translate(-162.86 -56.232)" fill="#0ff">
   <use x="380.10001" y="84.400002" fill="#00ffff" xlink:href="#n"/>
  </g>
  <g transform="translate(-162.86 -56.232)" fill="#000000">
   <use x="259.60001" y="74.099998" xlink:href="#a"/>
   <use x="259.60001" y="77.699997" xlink:href="#a"/>
   <use x="259.60001" y="81.300003" xlink:href="#a"/>
   <use x="259.60001" y="84.900002" xlink:href="#a"/>
   <use x="259.60001" y="88.5" xlink:href="#a"/>
   <use x="259.60001" y="92.099998" xlink:href="#a"/>
   <use x="353.20001" y="74.099998" xlink:href="#a"/>
   <use x="353.20001" y="77.699997" xlink:href="#a"/>
   <use x="353.20001" y="81.300003" xlink:href="#a"/>
   <use x="353.20001" y="84.900002" xlink:href="#a"/>
   <use x="353.20001" y="88.5" xlink:href="#a"/>
   <use x="353.20001" y="92.099998" xlink:href="#a"/>
  </g>
 </g>
 <g fill="none" stroke="#000203" stroke-linecap="round" stroke-miterlimit="10" stroke-width=".66667">
  <path d="m2.7366 93.166v-25.199"/>
  <path d="m2.7366 67.967h57.598"/>
  <path d="m60.334 67.967v25.199"/>
  <path d="m60.334 93.166h-57.598"/>
 </g>
 <g transform="translate(-162.86 -56.232)" fill="#007fff">
  <use x="187.3" y="138.39999" xlink:href="#h"/>
  <use x="191.748" y="138.39999" xlink:href="#d"/>
  <use x="196.636" y="138.39999" xlink:href="#d"/>
 </g>
 <g transform="translate(-162.86 -56.232)" fill="#ff6600">
  <use x="180.10001" y="118.6" xlink:href="#e"/>
  <use x="184.98801" y="118.6" xlink:href="#g"/>
  <use x="189.87601" y="118.6" xlink:href="#o"/>
  <use x="194.32401" y="118.6" xlink:href="#e"/>
  <use x="199.21201" y="118.6" xlink:href="#d"/>
  <use x="204.10001" y="118.6" xlink:href="#b"/>
 </g>
 <g fill="none" stroke="#000203" stroke-linecap="round" stroke-miterlimit="10" stroke-width=".66667">
  <path d="m60.334 93.166v-25.199"/>
  <path d="m60.334 67.967h93.602"/>
  <path d="m153.94 93.166h-93.602"/>
 </g>
 <g>
  <g transform="translate(-162.86 -56.232)" fill="#ffcc00">
   <use x="250.8" y="118.6" xlink:href="#e"/>
   <use x="255.688" y="118.6" xlink:href="#g"/>
   <use x="260.57599" y="118.6" xlink:href="#b"/>
   <use x="265.02399" y="118.6" xlink:href="#c"/>
   <use x="268.13599" y="118.6" xlink:href="#h"/>
   <use x="272.58401" y="118.6" xlink:href="#f"/>
   <use x="277.47198" y="118.6" xlink:href="#d"/>
   <use x="284.69998" y="118.6" xlink:href="#k"/>
  </g>
  <g transform="translate(-162.86 -56.232)" fill="#ff00ff">
   <use x="227.2" y="138.39999" xlink:href="#c"/>
   <use x="230.312" y="138.39999" xlink:href="#b"/>
   <use x="234.75999" y="138.39999" xlink:href="#j"/>
   <use x="239.64799" y="138.39999" xlink:href="#i"/>
   <use x="241.87199" y="138.39999" xlink:href="#m"/>
   <use x="246.32001" y="138.39999" xlink:href="#l"/>
   <use x="248.98399" y="138.39999" xlink:href="#b"/>
   <use x="253.43201" y="138.39999" xlink:href="#c"/>
  </g>
  <g transform="translate(-162.86 -56.232)" fill="#0ff">
   <use x="286.5" y="138.39999" fill="#00ffff" xlink:href="#k"/>
  </g>
 </g>
 <g fill="none" stroke="#000203" stroke-linecap="round" stroke-miterlimit="10" stroke-width=".66667">
  <path d="m153.94 93.166v-25.199"/>
  <path d="m153.94 67.967h93.598"/>
  <path d="m247.53 67.967v25.199"/>
  <path d="m247.53 93.166h-93.598"/>
 </g>
 <g>
  <g transform="translate(-162.86 -56.232)" fill="#00ff00">
   <use x="344.39999" y="118.6" xlink:href="#e"/>
   <use x="349.28799" y="118.6" xlink:href="#g"/>
   <use x="354.17599" y="118.6" xlink:href="#b"/>
   <use x="358.62399" y="118.6" xlink:href="#c"/>
   <use x="361.73599" y="118.6" xlink:href="#h"/>
   <use x="366.18399" y="118.6" xlink:href="#f"/>
   <use x="371.07199" y="118.6" xlink:href="#d"/>
   <use x="378.29999" y="118.6" xlink:href="#n"/>
  </g>
  <g transform="translate(-162.86 -56.232)" fill="#ff0000">
   <use x="322.60001" y="133.89999" xlink:href="#m"/>
   <use x="327.048" y="133.89999" xlink:href="#i"/>
   <use x="329.272" y="133.89999" xlink:href="#j"/>
   <use x="334.16" y="133.89999" xlink:href="#f"/>
   <use x="339.048" y="133.89999" xlink:href="#b"/>
   <use x="343.496" y="133.89999" xlink:href="#d"/>
   <use x="322.20001" y="142.89999" xlink:href="#i"/>
   <use x="324.42401" y="142.89999" xlink:href="#f"/>
   <use x="329.31201" y="142.89999" xlink:href="#l"/>
   <use x="331.97601" y="142.89999" xlink:href="#b"/>
   <use x="336.42401" y="142.89999" xlink:href="#j"/>
   <use x="341.31201" y="142.89999" xlink:href="#b"/>
   <use x="345.76001" y="142.89999" xlink:href="#c"/>
  </g>
  <g transform="translate(-162.86 -56.232)" fill="#00ffff">
   <use x="375.29999" y="138.39999" xlink:href="#r"/>
   <use x="380.39999" y="138.39999" xlink:href="#q"/>
   <use x="384.84799" y="138.39999" xlink:href="#p"/>
  </g>
  <g transform="translate(-162.86 -56.232)" fill="#000000">
   <use x="259.60001" y="128.10001" xlink:href="#a"/>
   <use x="259.60001" y="131.7" xlink:href="#a"/>
   <use x="259.60001" y="135.3" xlink:href="#a"/>
   <use x="259.60001" y="138.89999" xlink:href="#a"/>
   <use x="259.60001" y="142.5" xlink:href="#a"/>
   <use x="259.60001" y="146.10001" xlink:href="#a"/>
   <use x="353.20001" y="128.10001" xlink:href="#a"/>
   <use x="353.20001" y="131.7" xlink:href="#a"/>
   <use x="353.20001" y="135.3" xlink:href="#a"/>
   <use x="353.20001" y="138.89999" xlink:href="#a"/>
   <use x="353.20001" y="142.5" xlink:href="#a"/>
   <use x="353.20001" y="146.10001" xlink:href="#a"/>
  </g>
 </g>
</svg>
