<svg width="362" height="215" version="1.1" viewBox="0 0 362 215" xmlns="http://www.w3.org/2000/svg" xmlns:xlink="http://www.w3.org/1999/xlink">
 <defs>
  <g id="q">
   <path d="m1.7344-2.5312c.4375 0 .45312 0 .65625.046875.375.10938.625.4375.625.85938 0 .5-.35938.84375-.84375.84375-.53125 0-.8125-.29688-.85938-.875h-1.0781c0 1.125.73438 1.8438 1.9062 1.8438 1.2188 0 1.9844-.71875 1.9844-1.8125 0-.67188-.28125-1.1094-.92188-1.4219.51562-.32812.73438-.6875.73438-1.2031 0-.9375-.70312-1.5469-1.7969-1.5469-.82812 0-1.4531.35938-1.7031.98438-.09375.26562-.14062.45312-.14062.92188h1.0469c.015625-.29688.03125-.45312.09375-.59375.09375-.25.35938-.40625.6875-.40625.4375 0 .70312.28125.70312.75 0 .57812-.32812.85938-1 .85938h-.09375z"/>
  </g>
  <g id="o">
   <path d="m4.0938-1h-2.4062c.15625-.29688.32812-.46875 1.1562-1.0781.98438-.71875 1.2812-1.1406 1.2812-1.9062 0-1.1094-.76562-1.8125-1.9531-1.8125-1.1719 0-1.8594.70312-1.8594 1.9062v.1875h1.0781v-.17188c0-.64062.29688-1 .8125-1 .5 0 .79688.34375.79688.90625 0 .625-.1875.85938-1.4531 1.7656-.96875.65625-1.2656 1.1406-1.3125 2.2031h3.8594z"/>
  </g>
  <g id="t">
   <path d="m2.3906-2.7344h-2.1875v1.0781h2.1875z"/>
  </g>
  <g id="s">
   <path d="m.46875-5.8281v5.8281h1.125v-.4375c.26562.42188.64062.625 1.1875.625 1.0312 0 1.8125-.98438 1.8125-2.2969 0-.57812-.17188-1.1719-.45312-1.5938-.29688-.42188-.82812-.6875-1.3594-.6875-.54688 0-.92188.20312-1.1875.625v-2.0625zm2.0625 2.375c.5625 0 .95312.5625.95312 1.3594s-.39062 1.3438-.95312 1.3438-.9375-.53125-.9375-1.375c0-.78125.375-1.3281.9375-1.3281z"/>
  </g>
  <g id="e">
   <path d="m1.6562-4.3125h-1.125v4.3125h1.125zm0-1.5156h-1.125v1h1.125z"/>
  </g>
  <g id="a">
   <path d="m2.4062-4.2344h-.625v-1.1562h-1.125v1.1562h-.54688v.75h.54688v2.6562c0 .67188.375 1.0156 1.1094 1.0156.25 0 .4375-.03125.64062-.09375v-.78125c-.10938.015625-.17188.03125-.25.03125-.29688 0-.375-.09375-.375-.48438v-2.3438h.625z"/>
  </g>
  <g id="r">
   <path d="m1.5781-4.3125h-1.1094v6.0625h1.1094v-2.2656c.28125.48438.65625.70312 1.2031.70312 1.0469 0 1.8125-.96875 1.8125-2.2812 0-.60938-.17188-1.2188-.46875-1.625-.28125-.40625-.82812-.67188-1.3438-.67188-.54688 0-.92188.23438-1.2031.70312zm.95312.85938c.5625 0 .9375.54688.9375 1.375 0 .79688-.375 1.3281-.9375 1.3281-.57812 0-.95312-.53125-.95312-1.3438s.375-1.3594.95312-1.3594z"/>
  </g>
  <g id="j">
   <path d="m3.2031-4.3125v.65625c-.3125-.5-.65625-.73438-1.1094-.73438-.39062 0-.8125.1875-1.1094.5-.4375.45312-.65625 1.0781-.65625 1.8281 0 1.3281.70312 2.25 1.7344 2.25.46875 0 .75-.15625 1.1406-.625v.57812c0 .51562-.375.89062-.90625.89062-.39062 0-.64062-.1875-.73438-.51562h-1.1406c0 .34375.125.57812.42188.8125.34375.28125.8125.42188 1.4219.42188 1.25 0 2-.60938 2-1.6094v-4.4531zm-.90625.85938c.53125 0 .92188.57812.92188 1.375s-.375 1.3281-.9375 1.3281c-.48438 0-.82812-.53125-.82812-1.3281 0-.8125.34375-1.375.84375-1.375z"/>
  </g>
  <g id="i">
   <path d="m.48438-4.3125v4.3125h1.1094v-2.5938c0-.53125.29688-.84375.78125-.84375.375 0 .59375.21875.59375.5625v2.875h1.125v-2.5938c0-.53125.29688-.84375.76562-.84375.375 0 .60938.21875.60938.5625v2.875h1.125v-3.0625c0-.82812-.51562-1.3281-1.375-1.3281-.5625 0-.9375.1875-1.2656.64062-.20312-.40625-.64062-.64062-1.1719-.64062-.5 0-.82812.15625-1.1875.60938v-.53125z"/>
  </g>
  <g id="l">
   <path d="m1.7188-1.1719h-1.2031v1.1719h1.2031z"/>
  </g>
  <g id="p">
   <path d="m4.1719-2.7031c-.078125-1.0625-.76562-1.6875-1.8594-1.6875-1.2969 0-2.0469.84375-2.0469 2.3125 0 1.4375.75 2.2656 2.0312 2.2656 1.0469 0 1.7812-.65625 1.875-1.6875h-1.0625c-.14062.5625-.35938.78125-.8125.78125-.5625 0-.90625-.5-.90625-1.3594 0-.40625.078125-.78125.21875-1.0469.125-.23438.375-.35938.6875-.35938.46875 0 .67188.21875.8125.78125z"/>
  </g>
  <g id="b">
   <path d="m.5-4.3125v4.3125h1.125v-2.2969c0-.65625.32812-.98438.98438-.98438.125 0 .20312.015625.34375.03125v-1.1406h-.125c-.51562 0-.95312.32812-1.2031.92188v-.84375z"/>
  </g>
  <g id="d">
   <path d="m4.1875-.14062c-.1875-.17188-.25-.3125-.25-.51562v-2.4062c0-.875-.59375-1.3281-1.7656-1.3281s-1.7812.5-1.8594 1.5h1.0938c.046875-.45312.23438-.59375.78125-.59375.4375 0 .65625.14062.65625.42188 0 .15625-.078125.26562-.20312.34375-.14062.078125-.14062.078125-.70312.17188l-.4375.078125c-.85938.14062-1.2812.57812-1.2812 1.3594 0 .76562.53125 1.2969 1.3125 1.2969.48438 0 .92188-.20312 1.3125-.625 0 .23438.03125.3125.125.4375h1.2188zm-1.3438-1.5938c0 .64062-.32812 1.0156-.89062 1.0156-.375 0-.60938-.20312-.60938-.51562 0-.34375.17188-.5.64062-.59375l.39062-.078125c.28125-.046875.34375-.0625.46875-.14062z"/>
  </g>
  <g id="c">
   <path d="m3.2344 0h1.125v-5.8281h-1.125v2.0625c-.28125-.42188-.64062-.625-1.1875-.625-1.0312 0-1.8125.98438-1.8125 2.2969 0 .57812.17188 1.1719.46875 1.5938.28125.42188.8125.6875 1.3438.6875.54688 0 .90625-.20312 1.1875-.625zm-.9375-3.4531c.5625 0 .9375.54688.9375 1.375 0 .78125-.375 1.3281-.9375 1.3281s-.9375-.54688-.9375-1.3438c0-.8125.375-1.3594.9375-1.3594z"/>
  </g>
  <g id="f">
   <path d="m4.1875-1.8125c.015625-.09375.015625-.125.015625-.1875 0-.4375-.0625-.82812-.17188-1.1406-.28125-.78125-.98438-1.25-1.8594-1.25-1.2344 0-2 .89062-2 2.3438 0 1.3906.75 2.2344 1.9844 2.2344.96875 0 1.75-.54688 2-1.4062h-1.1094c-.14062.34375-.45312.54688-.85938.54688-.3125 0-.57812-.14062-.73438-.375-.09375-.15625-.14062-.35938-.15625-.76562zm-2.875-.73438c.078125-.67188.34375-.98438.84375-.98438.51562 0 .8125.34375.875.98438z"/>
  </g>
  <g id="h">
   <path d="m.5-4.3125v4.3125h1.125v-2.5938c0-.51562.34375-.84375.90625-.84375.48438 0 .71875.26562.71875.78125v2.6562h1.125v-2.8906c0-.96875-.53125-1.5-1.4531-1.5-.57812 0-.98438.20312-1.2969.6875v-.60938z"/>
  </g>
  <g id="k">
   <path d="m4.0469-2.9219c-.015625-.92188-.73438-1.4688-1.8906-1.4688-1.0938 0-1.7656.54688-1.7656 1.4375 0 .29688.078125.53125.23438.70312.15625.15625.28125.21875.70312.35938l1.3281.42188c.28125.078125.39062.17188.39062.34375 0 .26562-.3125.42188-.84375.42188-.29688 0-.51562-.046875-.65625-.14062-.125-.09375-.17188-.1875-.21875-.40625h-1.0938c.03125.95312.71875 1.4375 2.0312 1.4375.60938 0 1.0625-.125 1.375-.39062.32812-.25.51562-.65625.51562-1.0781 0-.5625-.28125-.92188-.84375-1.0938l-1.4219-.40625c-.3125-.09375-.39062-.15625-.39062-.32812 0-.25.26562-.40625.65625-.40625.53125 0 .79688.20312.79688.59375z"/>
  </g>
  <g id="m">
   <path d="m4.3281 0v-4.3125h-1.125v2.7031c0 .5-.34375.84375-.90625.84375-.46875 0-.71875-.26562-.71875-.78125v-2.7656h-1.1094v3c0 .95312.51562 1.5 1.4375 1.5.59375 0 .98438-.21875 1.2969-.70312v.51562z"/>
  </g>
  <g id="g">
   <path d="m2.4062-4.3906c-1.3125 0-2.125.875-2.125 2.2812 0 1.4219.8125 2.2969 2.1406 2.2969 1.3125 0 2.125-.875 2.125-2.2656 0-1.4531-.78125-2.3125-2.1406-2.3125zm.015625.90625c.60938 0 1.0156.54688 1.0156 1.3906 0 .8125-.42188 1.375-1.0156 1.375-.60938 0-1.0156-.54688-1.0156-1.3906 0-.82812.40625-1.375 1.0156-1.375z"/>
  </g>
  <g id="w">
   <path d="m3.1562-4.3125-.90625 3.1406-.95312-3.1406h-1.2188l1.6094 4.4844c0 .45312-.28125.75-.70312.75-.09375 0-.15625-.015625-.29688-.046875v.84375c.17188.03125.26562.03125.40625.03125.28125 0 .60938-.046875.79688-.14062.3125-.125.45312-.29688.64062-.8125l1.7656-5.1094z"/>
  </g>
  <g id="v">
   <path d="m4.0156-1.1719.375 1.1719h1.2344l-2.0156-5.8281h-1.3281l-2.0781 5.8281h1.2344l.39062-1.1719zm-.32812-1h-1.5312l.76562-2.2812z"/>
  </g>
  <g id="ab">
   <path d="m.65625 0h2.625c.67188 0 1.125-.125 1.4688-.42188.35938-.29688.57812-.78125.57812-1.2656 0-.5625-.29688-1.0312-.96875-1.4062.57812-.375.79688-.70312.79688-1.2031 0-.40625-.20312-.82812-.53125-1.1094-.34375-.29688-.75-.42188-1.375-.42188h-2.5938zm1.2031-4.8281h1.2969c.5625 0 .85938.21875.85938.65625s-.29688.65625-.85938.65625h-1.2969zm0 2.3125h1.4219c.59375 0 .89062.26562.89062.76562s-.29688.75-.89062.75h-1.4219z"/>
  </g>
  <g id="aa">
   <path d="m1.8438-5.8281h-1.2031v5.8281h3.9844v-1h-2.7812z"/>
  </g>
  <g id="z">
   <path d="m4.0312-5.8281v3.9531c0 .70312-.35938 1.0312-1.1094 1.0312s-1.1094-.32812-1.1094-1.0312v-3.9531h-1.2031v3.9531c0 .65625.17188 1.1094.5625 1.4688.42188.375 1.0469.59375 1.75.59375s1.3125-.21875 1.7344-.59375c.40625-.35938.57812-.8125.57812-1.4688v-3.9531z"/>
  </g>
  <g id="u">
   <path d="m2.5-4.2344h-.65625v-.42188c0-.21875.09375-.32812.29688-.32812.10938 0 .21875 0 .32812.015625v-.84375c-.25-.015625-.48438-.015625-.64062-.015625-.75 0-1.1094.34375-1.1094 1.0781v.51562h-.60938v.75h.60938v3.4844h1.125v-3.4844h.65625z"/>
  </g>
  <g id="n">
   <path d="m1.7344-4.5469 1.0469 4.5469h1.1875l1.0469-4.5469v4.5469h1.1875v-5.8281h-1.7969l-1.0312 4.6406-1.0625-4.6406h-1.7812v5.8281h1.2031z"/>
  </g>
  <g id="y">
   <path d="m1.9062-3.9062v3.9062h1.125v-5.6719h-.75c-.17188.67188-.76562 1.0156-1.7344 1.0156v.75z"/>
  </g>
  <g id="x">
   <path d="m5.2188-2.7344h-.73438v-4.3594h-1.6562l-2.5938 4.3438v1.1875h2.8438v1.5625h1.4062v-1.5625h.73438zm-2.1406 0h-1.8438l1.8438-3.0312z"/>
  </g>
 </defs>
 <g fill="none" stroke="#000306" stroke-linecap="round" stroke-miterlimit="10" stroke-width=".66667">
  <path d="m21.198 124v-72"/>
  <path d="m21.198 52.004h10.801"/>
  <path d="m31.998 52.004v72"/>
  <path d="m31.998 124h-10.801"/>
 </g>
 <g transform="translate(-108.7 -55.996)" fill="#00ffff">
  <use x="124.7" y="95" xlink:href="#q"/>
  <use x="129.14799" y="95" xlink:href="#o"/>
  <use x="133.59599" y="95" xlink:href="#t"/>
  <use x="136.25999" y="95" xlink:href="#s"/>
  <use x="141.14799" y="95" xlink:href="#e"/>
  <use x="143.37199" y="95" xlink:href="#a"/>
  <use x="118.5" y="104" xlink:href="#r"/>
  <use x="123.388" y="104" xlink:href="#j"/>
  <use x="128.276" y="104" xlink:href="#i"/>
  <use x="135.388" y="104" xlink:href="#l"/>
  <use x="139.8" y="104" xlink:href="#p"/>
  <use x="144.248" y="104" xlink:href="#a"/>
  <use x="146.912" y="104" xlink:href="#b"/>
  <use x="150.024" y="104" xlink:href="#l"/>
 </g>
 <g fill="none" stroke="#000306" stroke-linecap="round" stroke-miterlimit="10" stroke-width=".66667">
  <path d="m31.998 88.004h30.902"/>
  <path d="m55.799 89.805 7.1992-1.8008"/>
  <path d="m55.6 89.203 7.3008-1.1992"/>
  <path d="m55.6 88.504 7.3984-.5"/>
  <path d="m55.6 88.004h7.3984"/>
  <path d="m55.6 87.402 7.3984.5"/>
  <path d="m55.6 86.703 7.3008 1.1992"/>
  <path d="m55.799 86.203 7.1992 1.8008"/>
 </g>
 <g transform="translate(-108.7 -55.996)" fill="#00ffff">
  <use x="171.2" y="102.2" xlink:href="#q"/>
  <use x="175.64799" y="102.2" xlink:href="#o"/>
  <use x="180.09599" y="102.2" xlink:href="#t"/>
  <use x="182.75999" y="102.2" xlink:href="#s"/>
  <use x="187.64799" y="102.2" xlink:href="#e"/>
  <use x="189.87199" y="102.2" xlink:href="#a"/>
  <use x="170.89999" y="111.2" xlink:href="#d"/>
  <use x="175.34801" y="111.2" xlink:href="#c"/>
  <use x="180.23599" y="111.2" xlink:href="#c"/>
  <use x="185.12399" y="111.2" xlink:href="#f"/>
  <use x="189.57201" y="111.2" xlink:href="#b"/>
 </g>
 <g fill="none" stroke="#000306" stroke-linecap="round" stroke-miterlimit="10" stroke-width=".66667">
  <path d="m62.998 59.203v18"/>
  <path d="m62.998 77.203 7.1992 3.6016"/>
  <path d="m70.198 80.805-7.1992 3.5976"/>
  <path d="m62.998 84.402v18"/>
  <path d="m62.998 102.4 20.102-9.2969"/>
  <path d="m83.1 93.004v-24.398"/>
  <path d="m83.1 68.504-20.102-9.3008"/>
  <path d="m49.299 73.606h13.602"/>
  <path d="m55.799 75.403 7.1992-1.7969"/>
  <path d="m55.6 74.805 7.3008-1.1992"/>
  <path d="m55.6 74.106 7.3984-.5"/>
  <path d="m55.6 73.606h7.3984"/>
  <path d="m55.6 73.004 7.3984.5"/>
  <path d="m55.6 72.305 7.3008 1.1992"/>
  <path d="m55.799 71.805 7.1992 1.8008"/>
 </g>
 <g transform="translate(-108.7 -55.996)">
  <use x="150.2" y="132.60001" fill="#000000" xlink:href="#x"/>
 </g>
 <g fill="none" stroke="#000306" stroke-linecap="round" stroke-miterlimit="10">
  <g stroke-width=".66667">
   <path d="m97.498 14.203v18"/>
   <path d="m97.498 32.203-6.3984-2.8008"/>
   <path d="m91.1 29.305v-12.199"/>
   <path d="m91.1 17.004 6.3984-2.8008"/>
   <path d="m83.1 80.805h32.699"/>
   <path d="m115.9 80.805v-53.602"/>
   <path d="m115.9 27.106h-18.301"/>
   <path d="m104.7 25.305-7.1992 1.8008"/>
   <path d="m104.9 25.903-7.3008 1.2031"/>
   <path d="m104.9 26.504-7.4023.5"/>
   <path d="m104.9 27.106h-7.4023"/>
   <path d="m104.9 27.703-7.4023-.5"/>
   <path d="m104.9 28.305-7.3008-1.1992"/>
   <path d="m104.7 28.903-7.1992-1.7969"/>
   <path d="m91.1 23.203h-87.801"/>
   <path d="m3.1977 23.203v64.801"/>
   <path d="m3.1977 88.004h18"/>
   <path d="m13.998 89.805 7.1992-1.8008"/>
   <path d="m13.901 89.203 7.2969-1.1992"/>
   <path d="m13.799 88.504 7.3984-.5"/>
   <path d="m13.799 88.004h7.3984"/>
   <path d="m13.799 87.402 7.3984.5"/>
   <path d="m13.901 86.703 7.2969 1.1992"/>
   <path d="m13.998 86.203 7.1992 1.8008"/>
   <path d="m42.299 88.004c0-.0547-.0469-.10157-.10156-.10157-.0547 0-.0977.0469-.0977.10157 0 .0547.043.10156.0977.10156s.10156-.0469.10156-.10156"/>
  </g>
  <path d="m43.6 88.004c0-.77344-.62891-1.3984-1.4023-1.3984-.76954 0-1.3984.625-1.3984 1.3984 0 .77343.6289 1.3984 1.3984 1.3984.77343 0 1.4023-.625 1.4023-1.3984"/>
  <g stroke-width=".66667">
   <path d="m42.198 88.004v64.801"/>
   <path d="m42.198 152.8h16.5"/>
   <path d="m51.6 154.61 7.1992-1.8008"/>
   <path d="m51.498 154 7.3008-1.1992"/>
   <path d="m51.401 153.3 7.3984-.5"/>
   <path d="m51.401 152.8h7.3984"/>
   <path d="m51.401 152.2 7.3984.5"/>
   <path d="m51.498 151.5 7.3008 1.1992"/>
   <path d="m51.6 151 7.1992 1.8008"/>
   <path d="m58.799 212.2v-79.199"/>
   <path d="m58.799 133h43.199"/>
   <path d="m102 133v79.199"/>
   <path d="m102 212.2h-43.199"/>
  </g>
 </g>
 <g transform="translate(-108.7 -55.996)" fill="#ff6600">
  <use x="168.5" y="176.7" xlink:href="#e"/>
  <use x="170.724" y="176.7" xlink:href="#h"/>
  <use x="175.612" y="176.7" xlink:href="#k"/>
  <use x="180.06" y="176.7" xlink:href="#a"/>
  <use x="182.724" y="176.7" xlink:href="#b"/>
  <use x="185.836" y="176.7" xlink:href="#m"/>
  <use x="190.724" y="176.7" xlink:href="#p"/>
  <use x="195.172" y="176.7" xlink:href="#a"/>
  <use x="197.836" y="176.7" xlink:href="#e"/>
  <use x="200.06" y="176.7" xlink:href="#g"/>
  <use x="204.948" y="176.7" xlink:href="#h"/>
  <use x="173.5" y="185.7" xlink:href="#i"/>
  <use x="180.612" y="185.7" xlink:href="#f"/>
  <use x="185.06" y="185.7" xlink:href="#i"/>
  <use x="192.172" y="185.7" xlink:href="#g"/>
  <use x="197.06" y="185.7" xlink:href="#b"/>
  <use x="200.172" y="185.7" xlink:href="#w"/>
 </g>
 <g fill="none" stroke="#000306" stroke-linecap="round" stroke-miterlimit="10" stroke-width=".66667">
  <path d="m102 172.61h18"/>
  <path d="m112.8 174.4 7.1992-1.7969"/>
  <path d="m112.7 173.8 7.3008-1.1992"/>
  <path d="m112.6 173.11 7.3984-.5"/>
  <path d="m112.6 172.61h7.3984"/>
  <path d="m112.6 172 7.3984.5"/>
  <path d="m112.7 171.3 7.3008 1.1992"/>
  <path d="m112.8 170.8 7.1992 1.8008"/>
 </g>
 <g transform="translate(-108.7 -55.996)" fill="#00ffff">
  <use x="171.10001" y="205.89999" xlink:href="#d"/>
  <use x="175.548" y="205.89999" xlink:href="#c"/>
  <use x="180.436" y="205.89999" xlink:href="#c"/>
  <use x="185.32401" y="205.89999" xlink:href="#b"/>
  <use x="188.436" y="205.89999" xlink:href="#l"/>
  <use x="171.10001" y="214.89999" xlink:href="#e"/>
  <use x="173.32401" y="214.89999" xlink:href="#h"/>
 </g>
 <g transform="translate(-108.7 -55.996)" fill="#ff6600">
  <use x="190.60001" y="225.7" xlink:href="#c"/>
  <use x="195.48801" y="225.7" xlink:href="#d"/>
  <use x="199.936" y="225.7" xlink:href="#a"/>
  <use x="202.60001" y="225.7" xlink:href="#d"/>
  <use x="194.7" y="234.7" xlink:href="#g"/>
  <use x="199.588" y="234.7" xlink:href="#m"/>
  <use x="204.476" y="234.7" xlink:href="#a"/>
 </g>
 <g fill="none" stroke="#000306" stroke-linecap="round" stroke-miterlimit="10" stroke-width=".66667">
  <path d="m120 212.2v-110.8"/>
  <path d="m120 101.3h10.801"/>
  <path d="m130.8 101.3v110.8"/>
  <path d="m130.8 212.2h-10.801"/>
 </g>
 <g transform="translate(-108.7 -55.996)" fill="#00ff00">
  <use x="207.60001" y="153.10001" xlink:href="#e"/>
  <use x="209.82401" y="153.10001" xlink:href="#h"/>
  <use x="214.71201" y="153.10001" xlink:href="#k"/>
  <use x="219.16" y="153.10001" xlink:href="#a"/>
  <use x="221.82401" y="153.10001" xlink:href="#b"/>
  <use x="224.936" y="153.10001" xlink:href="#l"/>
  <use x="229.29999" y="153.10001" xlink:href="#c"/>
  <use x="234.18799" y="153.10001" xlink:href="#f"/>
  <use x="238.63599" y="153.10001" xlink:href="#p"/>
  <use x="243.08398" y="153.10001" xlink:href="#g"/>
  <use x="247.97198" y="153.10001" xlink:href="#c"/>
  <use x="252.85999" y="153.10001" xlink:href="#f"/>
  <use x="257.30798" y="153.10001" xlink:href="#b"/>
 </g>
 <g fill="none" stroke="#000306" stroke-linecap="round" stroke-miterlimit="10" stroke-width=".66667">
  <path d="m130.8 119.3h37.398"/>
  <path d="m161 121.11 7.1992-1.8008"/>
  <path d="m160.9 120.5 7.2969-1.1992"/>
  <path d="m160.8 119.8 7.3984-.5"/>
  <path d="m160.8 119.3h7.3984"/>
  <path d="m160.8 118.7 7.3984.5"/>
  <path d="m160.9 118 7.2969 1.1992"/>
  <path d="m161 117.5 7.1992 1.8008"/>
  <path d="m130.8 137.3h37.398"/>
  <path d="m161 139.11 7.1992-1.8008"/>
  <path d="m160.9 138.5 7.2969-1.1992"/>
  <path d="m160.8 137.8 7.3984-.5"/>
  <path d="m160.8 137.3h7.3984"/>
  <path d="m160.8 136.7 7.3984.5"/>
  <path d="m160.9 136 7.2969 1.1992"/>
  <path d="m161 135.5 7.1992 1.8008"/>
  <path d="m130.8 155.3h37.398"/>
  <path d="m161 157.11 7.1992-1.8008"/>
  <path d="m160.9 156.5 7.2969-1.1992"/>
  <path d="m160.8 155.8 7.3984-.5"/>
  <path d="m160.8 155.3h7.3984"/>
  <path d="m160.8 154.7 7.3984.5"/>
  <path d="m160.9 154 7.2969 1.1992"/>
  <path d="m161 153.5 7.1992 1.8008"/>
 </g>
 <g transform="translate(-108.7 -55.996)" fill="#ff00ff">
  <use x="243.10001" y="172.60001" xlink:href="#b"/>
  <use x="246.21201" y="172.60001" xlink:href="#f"/>
  <use x="250.66" y="172.60001" xlink:href="#j"/>
  <use x="257.79999" y="172.60001" xlink:href="#v"/>
  <use x="243.10001" y="190.60001" xlink:href="#b"/>
  <use x="246.21201" y="190.60001" xlink:href="#f"/>
  <use x="250.66" y="190.60001" xlink:href="#j"/>
  <use x="257.79999" y="190.60001" xlink:href="#ab"/>
  <use x="243.10001" y="208.60001" xlink:href="#c"/>
  <use x="247.98801" y="208.60001" xlink:href="#k"/>
  <use x="252.436" y="208.60001" xlink:href="#a"/>
  <use x="257.29999" y="208.60001" xlink:href="#b"/>
  <use x="260.41199" y="208.60001" xlink:href="#f"/>
  <use x="264.85999" y="208.60001" xlink:href="#j"/>
 </g>
 <g fill="none" stroke="#000306" stroke-linecap="round" stroke-miterlimit="10" stroke-width=".66667">
  <path d="m168.2 173.3v-100.8"/>
  <path d="m168.2 72.504h26.602"/>
  <path d="m194.9 72.504v100.8"/>
  <path d="m194.9 173.3h-26.602"/>
 </g>
 <g transform="translate(-108.7 -55.996)" fill="#ff00ff">
  <use x="275.60001" y="116.2" xlink:href="#b"/>
  <use x="278.71201" y="116.2" xlink:href="#f"/>
  <use x="283.16" y="116.2" xlink:href="#j"/>
  <use x="288.048" y="116.2" xlink:href="#e"/>
  <use x="290.272" y="116.2" xlink:href="#k"/>
  <use x="294.72" y="116.2" xlink:href="#a"/>
  <use x="297.384" y="116.2" xlink:href="#f"/>
  <use x="301.832" y="116.2" xlink:href="#b"/>
  <use x="283" y="125.2" xlink:href="#m"/>
  <use x="287.888" y="125.2" xlink:href="#h"/>
  <use x="292.776" y="125.2" xlink:href="#e"/>
  <use x="295" y="125.2" xlink:href="#a"/>
 </g>
 <g fill="none" stroke="#000306" stroke-linecap="round" stroke-miterlimit="10" stroke-width=".66667">
  <path d="m194.9 119.3h57.598"/>
  <path d="m245.3 121.11 7.1992-1.8008"/>
  <path d="m245.1 120.5 7.3008-1.1992"/>
  <path d="m245.1 119.8 7.3984-.5"/>
  <path d="m245.1 119.3h7.3984"/>
  <path d="m245.1 118.7 7.3984.5"/>
  <path d="m245.1 118 7.3008 1.1992"/>
  <path d="m245.3 117.5 7.1992 1.8008"/>
  <path d="m132.2 81.106h36"/>
  <path d="m161 82.902 7.1992-1.7969"/>
  <path d="m160.9 82.305 7.2969-1.1992"/>
  <path d="m160.8 81.703 7.3984-.5"/>
  <path d="m160.8 81.106h7.3984"/>
  <path d="m160.8 80.504 7.3984.5"/>
  <path d="m160.9 79.902 7.2969 1.2031"/>
  <path d="m161 79.305 7.1992 1.8008"/>
 </g>
 <g transform="translate(-108.7 -55.996)" fill="#007fff">
  <use x="246" y="132.60001" xlink:href="#c"/>
  <use x="250.888" y="132.60001" xlink:href="#d"/>
  <use x="255.336" y="132.60001" xlink:href="#a"/>
  <use x="258" y="132.60001" xlink:href="#d"/>
  <use x="264.70001" y="132.60001" xlink:href="#e"/>
  <use x="266.92401" y="132.60001" xlink:href="#h"/>
 </g>
 <g fill="none" stroke="#000306" stroke-linecap="round" stroke-miterlimit="10" stroke-width=".66667">
  <path d="m231.2 132.2v18"/>
  <path d="m231.2 150.2 6.4023-2.8008"/>
  <path d="m237.6 147.4v-12.199"/>
  <path d="m237.6 135.11-6.4023-2.8008"/>
  <path d="m194.9 137.3h36.199"/>
  <path d="m224 139.11 7.1992-1.8008"/>
  <path d="m223.8 138.5 7.3008-1.1992"/>
  <path d="m223.7 137.8 7.4023-.5"/>
  <path d="m223.7 137.3h7.4023"/>
  <path d="m223.7 136.7 7.4023.5"/>
  <path d="m223.8 136 7.3008 1.1992"/>
  <path d="m224 135.5 7.1992 1.8008"/>
  <path d="m237.6 141.2h14.801"/>
  <path d="m245.3 143 7.1992-1.8008"/>
  <path d="m245.1 142.5 7.3008-1.1992"/>
  <path d="m245.1 141.8 7.3984-.5"/>
  <path d="m245.1 141.2h7.3984"/>
  <path d="m245.1 140.7 7.3984.5"/>
  <path d="m245.1 140 7.3008 1.1992"/>
  <path d="m245.3 139.4 7.1992 1.8008"/>
  <path d="m252.5 108.61v18"/>
  <path d="m252.5 126.61 8.6016 3.5977"/>
  <path d="m261.1 130.2-8.6016 3.6016"/>
  <path d="m252.5 133.8v18"/>
  <path d="m252.5 151.8 21.602-9.3008"/>
  <path d="m274.1 142.5v-24.398"/>
  <path d="m274.1 118-21.602-9.3008"/>
 </g>
 <g transform="translate(-108.7 -55.996)" fill="#ff0000">
  <use x="363.79999" y="162.60001" xlink:href="#v"/>
  <use x="369.57599" y="162.60001" xlink:href="#aa"/>
  <use x="374.46399" y="162.60001" xlink:href="#z"/>
 </g>
 <g fill="none" stroke="#000306" stroke-linecap="round" stroke-miterlimit="10" stroke-width=".66667">
  <path d="m274.1 130.2h23"/>
  <path d="m289.9 132 7.1992-1.8008"/>
  <path d="m289.8 131.4 7.3008-1.1992"/>
  <path d="m289.7 130.9 7.4023-.5"/>
  <path d="m289.7 130.2h7.4023"/>
  <path d="m289.7 129.61 7.4023.5"/>
  <path d="m289.8 129.11 7.3008 1.1992"/>
  <path d="m289.9 128.4 7.1992 1.8008"/>
  <path d="m130.8 186.2h87"/>
  <path d="m217.8 186.2v-41"/>
  <path d="m217.8 145.2h13.301"/>
  <path d="m224 147 7.1992-1.8008"/>
  <path d="m223.8 146.4 7.3008-1.1992"/>
  <path d="m223.7 145.8 7.4023-.5"/>
  <path d="m223.7 145.2h7.4023"/>
  <path d="m223.7 144.61 7.4023.5"/>
  <path d="m223.8 144 7.3008 1.1992"/>
  <path d="m224 143.4 7.1992 1.8008"/>
 </g>
 <g transform="translate(-108.7 -55.996)" fill="#00ff00">
  <use x="243.10001" y="239.5" xlink:href="#g"/>
  <use x="247.98801" y="239.5" xlink:href="#u"/>
  <use x="250.65199" y="239.5" xlink:href="#u"/>
  <use x="253.31599" y="239.5" xlink:href="#k"/>
  <use x="257.76401" y="239.5" xlink:href="#f"/>
  <use x="262.21201" y="239.5" xlink:href="#a"/>
 </g>
 <g fill="none" stroke="#000306" stroke-linecap="round" stroke-miterlimit="10" stroke-width=".66667">
  <path d="m130.8 199.2h132.4"/>
  <path d="m263.3 199.2v-51.898"/>
  <path d="m265.1 154.3-1.8008-7.1992"/>
  <path d="m264.5 154.5-1.1992-7.3008"/>
  <path d="m263.9 154.61-.5-7.4023"/>
  <path d="m263.3 154.61v-7.4023"/>
  <path d="m262.6 154.61.5-7.4023"/>
  <path d="m262.1 154.5 1.1992-7.3008"/>
  <path d="m261.5 154.3 1.8008-7.1992"/>
 </g>
 <g transform="translate(-108.7 -55.996)" fill="#00ff00">
  <use x="243.10001" y="252.5" xlink:href="#g"/>
  <use x="247.98801" y="252.5" xlink:href="#r"/>
  <use x="252.87601" y="252.5" xlink:href="#f"/>
  <use x="257.32401" y="252.5" xlink:href="#b"/>
  <use x="260.436" y="252.5" xlink:href="#d"/>
  <use x="264.884" y="252.5" xlink:href="#a"/>
  <use x="267.548" y="252.5" xlink:href="#e"/>
  <use x="269.772" y="252.5" xlink:href="#g"/>
  <use x="274.66" y="252.5" xlink:href="#h"/>
 </g>
 <g fill="none" stroke="#000306" stroke-linecap="round" stroke-miterlimit="10" stroke-width=".66667">
  <path d="m297.1 187.8v-79.199"/>
  <path d="m297.1 108.61h43.199"/>
  <path d="m340.3 108.61v79.199"/>
  <path d="m340.3 187.8h-43.199"/>
 </g>
 <g transform="translate(-108.7 -55.996)" fill="#ff6600">
  <use x="419.20001" y="152.39999" xlink:href="#c"/>
  <use x="424.08801" y="152.39999" xlink:href="#d"/>
  <use x="428.53601" y="152.39999" xlink:href="#a"/>
  <use x="431.20001" y="152.39999" xlink:href="#d"/>
  <use x="411.79999" y="161.39999" xlink:href="#i"/>
  <use x="418.91199" y="161.39999" xlink:href="#f"/>
  <use x="423.35999" y="161.39999" xlink:href="#i"/>
  <use x="430.47198" y="161.39999" xlink:href="#g"/>
  <use x="435.35999" y="161.39999" xlink:href="#b"/>
  <use x="438.47198" y="161.39999" xlink:href="#w"/>
 </g>
 <path d="m340.3 148.2h18" fill="none" stroke="#000306" stroke-linecap="round" stroke-miterlimit="10" stroke-width=".66667"/>
 <g>
  <g transform="translate(-108.7 -55.996)" fill="#00ffff">
   <use x="409.39999" y="177.89999" xlink:href="#d"/>
   <use x="413.84799" y="177.89999" xlink:href="#c"/>
   <use x="418.73599" y="177.89999" xlink:href="#c"/>
   <use x="423.62399" y="177.89999" xlink:href="#b"/>
   <use x="426.73599" y="177.89999" xlink:href="#l"/>
   <use x="409.39999" y="186.89999" xlink:href="#e"/>
   <use x="411.62399" y="186.89999" xlink:href="#h"/>
  </g>
  <g transform="translate(-108.7 -55.996)" fill="#007fff">
   <use x="428.89999" y="201.3" xlink:href="#c"/>
   <use x="433.78799" y="201.3" xlink:href="#d"/>
   <use x="438.23599" y="201.3" xlink:href="#a"/>
   <use x="440.89999" y="201.3" xlink:href="#d"/>
   <use x="433" y="210.3" xlink:href="#g"/>
   <use x="437.888" y="210.3" xlink:href="#m"/>
   <use x="442.776" y="210.3" xlink:href="#a"/>
  </g>
  <g transform="translate(-108.7 -55.996)" fill="#ff00ff">
   <use x="409.39999" y="221.10001" xlink:href="#c"/>
   <use x="414.28799" y="221.10001" xlink:href="#d"/>
   <use x="418.73599" y="221.10001" xlink:href="#a"/>
   <use x="421.39999" y="221.10001" xlink:href="#d"/>
   <use x="409.39999" y="230.10001" xlink:href="#e"/>
   <use x="411.62399" y="230.10001" xlink:href="#h"/>
  </g>
 </g>
 <g fill="none" stroke="#000306" stroke-linecap="round" stroke-miterlimit="10">
  <path d="m202.9 137.3c0-.0547-.0469-.10156-.10156-.10156-.0547 0-.10156.0469-.10156.10156 0 .0547.0469.0976.10156.0976.0547 0 .10156-.043.10156-.0976" stroke-width=".66667"/>
  <path d="m204.2 137.3c0-.77344-.625-1.4024-1.3984-1.4024s-1.3984.62891-1.3984 1.4024.625 1.3984 1.3984 1.3984 1.3984-.625 1.3984-1.3984"/>
  <g stroke-width=".66667">
   <path d="m202.8 137.3v30.801"/>
   <path d="m202.8 168h94.301"/>
   <path d="m289.9 169.8 7.1992-1.8008"/>
   <path d="m289.8 169.2 7.3008-1.1992"/>
   <path d="m289.7 168.7 7.4023-.5"/>
   <path d="m289.7 168h7.4023"/>
   <path d="m289.7 167.4 7.4023.5"/>
   <path d="m289.8 166.9 7.3008 1.2031"/>
   <path d="m289.9 166.2 7.1992 1.8008"/>
   <path d="m259.7 11.305v18"/>
   <path d="m259.7 29.305-6.3984-2.8008"/>
   <path d="m253.2 26.403v-12.199"/>
   <path d="m253.2 14.203 6.4023-2.8008"/>
   <path d="m358.3 148.2v-131.9"/>
   <path d="m358.3 16.305h-98.602"/>
   <path d="m266.9 14.504-7.2031 1.8008"/>
   <path d="m267 15.106-7.3008 1.1992"/>
   <path d="m267.1 15.703-7.4023.5"/>
   <path d="m267.1 16.305h-7.4023"/>
   <path d="m267.1 16.903-7.4023-.5"/>
   <path d="m267 17.504-7.3008-1.1992"/>
   <path d="m266.9 18.106-7.2031-1.8008"/>
   <path d="m281.3 130.2c0-.0547-.0469-.0977-.10156-.0977-.0547 0-.0977.043-.0977.0977s.043.10156.0977.10156.10156-.0469.10156-.10156"/>
  </g>
  <path d="m282.6 130.2c0-.77344-.62891-1.3984-1.4023-1.3984-.76954 0-1.3984.625-1.3984 1.3984 0 .77343.6289 1.4023 1.3984 1.4023.77343 0 1.4023-.62891 1.4023-1.4023"/>
  <g stroke-width=".66667">
   <path d="m281.3 130.2v-105.9"/>
   <path d="m281.3 24.203h-21.602"/>
   <path d="m266.9 22.403-7.2031 1.8008"/>
   <path d="m267 23.004-7.3008 1.1992"/>
   <path d="m267.1 23.703-7.4023.5"/>
   <path d="m267.1 24.203h-7.4023"/>
   <path d="m267.1 24.805-7.4023-.5"/>
   <path d="m267 25.504-7.3008-1.1992"/>
   <path d="m266.9 26.004-7.2031-1.8008"/>
   <path d="m253.2 20.305h-155.6"/>
   <path d="m104.7 18.504-7.1992 1.8008"/>
   <path d="m104.9 19.004-7.3008 1.1992"/>
   <path d="m104.9 19.703-7.4023.5"/>
   <path d="m104.9 20.305h-7.4023"/>
   <path d="m104.9 20.805-7.4023-.5"/>
   <path d="m104.9 21.504-7.3008-1.1992"/>
   <path d="m104.7 22.106-7.1992-1.8008"/>
   <path d="m132.2 81.106v-60.801"/>
   <path d="m132.3 20.305c0-.05469-.0469-.10156-.10156-.10156-.0547 0-.0977.04687-.0977.10156 0 .05469.043.09766.0977.09766s.10156-.04297.10156-.09766"/>
  </g>
  <path d="m133.6 20.305c0-.77344-.62891-1.4023-1.4023-1.4023-.76954 0-1.3984.62891-1.3984 1.4023 0 .77344.6289 1.3984 1.3984 1.3984.77343 0 1.4023-.625 1.4023-1.3984"/>
 </g>
 <g transform="translate(-108.7 -55.996)" fill="#ffcc00">
  <use x="197.5" y="67.400002" xlink:href="#n"/>
  <use x="204.164" y="67.400002" xlink:href="#y"/>
  <use x="337.60001" y="185.5" xlink:href="#n"/>
  <use x="344.26401" y="185.5" xlink:href="#o"/>
  <use x="359.60001" y="64.599998" xlink:href="#n"/>
  <use x="366.26401" y="64.599998" xlink:href="#q"/>
 </g>
</svg>
