<svg width="370" height="70" version="1.1" viewBox="0 0 370 70" xmlns="http://www.w3.org/2000/svg" xmlns:xlink="http://www.w3.org/1999/xlink">
 <defs>
  <g id="b">
   <path d="m2.8438-2.1719 1.4062-2.1406h-1.3438l-.70312 1.2969-.70312-1.2969h-1.3438l1.4062 2.1406-1.4375 2.1719h1.3438l.73438-1.3438.73438 1.3438h1.3438z"/>
  </g>
  <g id="a">
   <path d="m.625-.5c-.15625 0-.28125.125-.28125.28125s.125.28125.28125.28125.28125-.125.28125-.28125-.125-.28125-.28125-.28125z"/>
  </g>
  <g id="u">
   <path d="m4.5156-.125c-.45312-.046875-.5-.10938-.60938-.6875l-.75-4.5312h-.21875l-2.3125 4c-.64062 1.0625-.71875 1.1562-1.0312 1.2188v.125h1.5v-.125c-.40625-.046875-.48438-.078125-.48438-.28125 0-.15625.03125-.21875.17188-.5l.45312-.90625h1.75l.17188 1.0469c0 .078125.015625.15625.015625.21875 0 .29688-.10938.375-.625.42188v.125h1.9688zm-3.1094-1.9688 1.1875-2.0781.35938 2.0781z"/>
  </g>
  <g id="o">
   <path d="m3.2188-5.2188h-2.1719v.125c.5.046875.60938.10938.60938.34375 0 .125-.03125.28125-.09375.5l-.98438 3.5312c-.14062.46875-.1875.51562-.64062.59375v.125h4.0781l.45312-1.4375-.15625-.046875c-.28125.57812-.5.84375-.84375 1.0156-.28125.125-.60938.1875-1.3125.1875-.60938 0-.79688-.078125-.79688-.28125 0-.0625.03125-.23438.078125-.39062l.98438-3.5469c.10938-.40625.32812-.5625.79688-.59375z"/>
  </g>
  <g id="n">
   <path d="m6.125-5.2188h-1.5938v.125c.42188.03125.5625.125.5625.35938 0 .14062-.20312.9375-.59375 2.2969l-.09375.39062c-.35938 1.3125-.875 1.8594-1.75 1.8594-.67188 0-1.125-.375-1.125-.9375 0-.28125.23438-1.1406.82812-3.25.15625-.54688.28125-.65625.84375-.71875v-.125h-2.1875v.125c.53125.046875.625.09375.625.32812 0 .09375-.03125.21875-.0625.35938l-.42188 1.5312c-.23438.875-.34375 1.375-.34375 1.7031 0 .76562.73438 1.3125 1.75 1.3125 1.0469 0 1.7031-.5625 2.0625-1.7656l.65625-2.2812c.3125-1.0312.34375-1.0781.84375-1.1875z"/>
  </g>
  <g id="j">
   <path d="m3.7969-5.3281c-.67188 0-1.3906.3125-2.0312.90625-.8125.73438-1.2812 1.7188-1.2812 2.6562 0 1.125.71875 1.9062 1.7344 1.9062 1.6719 0 3.2812-1.6719 3.375-3.4844.046875-1.125-.71875-1.9844-1.7969-1.9844zm-.078125.26562c.64062 0 1.0312.46875 1.0312 1.2188 0 .85938-.375 2.0312-.89062 2.7812-.4375.625-.9375.9375-1.5.9375-.67188 0-1.0469-.46875-1.0469-1.3438 0-.76562.40625-1.9531.89062-2.6406.4375-.65625.9375-.95312 1.5156-.95312z"/>
  </g>
  <g id="i">
   <path d="m.45312-3.2188.17188-.015625c.1875 0 .34375.09375.34375.21875 0 .10938-.28125 1.2188-.5625 2.2656-.1875.6875-.34375 1.2812-.46875 1.7969-.078125.35938-.1875.45312-.53125.46875v.125h1.6406v-.125c-.39062 0-.51562-.0625-.51562-.23438 0-.10938.125-.71875.29688-1.3281.20312.10938.34375.14062.53125.14062 1.1562 0 2.3906-1.3438 2.3906-2.625 0-.625-.34375-1-.92188-1-.51562 0-.90625.26562-1.3594.92188l.23438-.8125c0-.046875.015625-.0625.015625-.0625 0-.03125-.015625-.046875-.046875-.046875h-.015625l-1.2188.17188zm2.0781.03125c.34375.015625.5.23438.5.6875 0 .54688-.23438 1.2188-.57812 1.7188-.32812.48438-.71875.71875-1.1406.71875-.21875 0-.375-.125-.375-.29688 0-.26562.28125-1.3125.51562-1.9062.21875-.54688.6875-.9375 1.0781-.92188z"/>
  </g>
  <g id="c">
   <path d="m2.8594-.875c-.57812.46875-.8125.60938-1.1719.60938-.45312 0-.75-.29688-.75-.73438 0-.125.015625-.23438.09375-.48438l.21875-.03125c1.2031-.17188 2.0469-.78125 2.0469-1.4688 0-.32812-.23438-.54688-.64062-.54688-1.1562 0-2.4062 1.3125-2.4062 2.5156 0 .65625.4375 1.1094 1.0469 1.1094.57812 0 1.1875-.32812 1.6562-.875zm-1.6406-1.1406c.26562-.71875.85938-1.3281 1.2656-1.3281.17188 0 .28125.125.28125.3125 0 .25-.15625.53125-.39062.78125-.29688.28125-.60938.42188-1.2969.59375z"/>
  </g>
  <g id="e">
   <path d="m.96875 0c.42188-1.375.54688-1.7031.92188-2.3125.26562-.45312.48438-.70312.625-.70312.046875 0 .078125.046875.125.125.0625.125.125.17188.28125.17188.25 0 .375-.14062.375-.40625 0-.23438-.15625-.40625-.375-.40625-.1875 0-.40625.125-.60938.34375-.32812.34375-.65625.79688-.78125 1.125l-.10938.28125.42188-1.7344-.015625-.015625c-.59375.10938-.65625.125-1.25.21875v.14062c.1875-.03125.21875-.046875.28125-.046875.17188 0 .28125.078125.28125.23438 0 .10938 0 .10938-.125.64062l-.65625 2.3438z"/>
  </g>
  <g id="d">
   <path d="m.65625-.79688c-.23438 0-.4375.20312-.4375.45312 0 .23438.20312.4375.42188.4375.25 0 .46875-.20312.46875-.4375 0-.25-.21875-.45312-.45312-.45312z"/>
  </g>
  <g id="h">
   <path d="m.39062 0h2.2344v-.125h-.14062c-.39062 0-.54688-.0625-.54688-.25 0-.078125.015625-.1875.09375-.42188.015625-.046875.03125-.09375.046875-.17188l1.1406-4.1562c.046875-.14062.046875-.1875.046875-.23438 0-.03125-.015625-.046875-.03125-.046875 0 0-.21875.03125-.65625.125l-.71875.14062c-.015625.015625-.078125.015625-.17188.03125v.125l.45312-.015625c.1875-.015625.3125.09375.3125.25 0 .046875-.015625.10938-.0625.26562l-1.1094 3.9375c-.09375.29688-.25.375-.89062.4375z"/>
  </g>
  <g id="m">
   <path d="m3.2031-1.1094c-.1875.39062-.34375.48438-.79688.5h-1.5156v-.03125l1.5312-1.5469c.9375-.9375 1.1875-1.3281 1.1875-1.875 0-.75-.5625-1.3438-1.2969-1.3438-.28125 0-.57812.078125-.8125.20312-.40625.23438-.625.5-.85938 1.0781l.17188.046875c.29688-.51562.64062-.75 1.1094-.75.57812 0 1 .42188 1 .98438 0 .15625-.015625.3125-.0625.42188-.20312.4375-.5625.9375-1.0781 1.5l-1.6875 1.7812v.14062h2.8438l.40625-1.0625z"/>
  </g>
  <g id="g">
   <path d="m4.5312-.125c-.34375-.03125-.5-.15625-.65625-.57812l-.75-1.9531c.625-.14062.89062-.25 1.1719-.51562.26562-.23438.40625-.54688.40625-.90625 0-.73438-.59375-1.1406-1.6562-1.1406h-1.9844v.125c.32812.046875.375.046875.45312.10938.0625.046875.10938.14062.10938.21875 0 .10938-.046875.29688-.09375.51562l-.98438 3.5312c-.14062.46875-.20312.51562-.65625.59375v.125h1.9531v-.125c-.48438-.0625-.54688-.09375-.54688-.375 0-.078125.015625-.15625.10938-.45312l.4375-1.6719.53125.03125.98438 2.5938h1.1719zm-2.0625-4.6406c.046875-.15625.14062-.21875.40625-.21875.65625 0 .98438.29688.98438.90625 0 .78125-.5 1.1875-1.5 1.1875-.15625 0-.21875 0-.42188-.03125z"/>
  </g>
  <g id="f">
   <path d="m.28125-1.1719-.15625 1.2812h.125c.078125-.14062.10938-.17188.20312-.17188.078125 0 .23438.03125.39062.078125.1875.046875.29688.078125.4375.078125.67188 0 1.1562-.4375 1.1562-1.0469 0-.3125-.17188-.65625-.54688-1.125-.3125-.375-.4375-.625-.4375-.84375 0-.26562.17188-.42188.45312-.42188.40625 0 .65625.29688.73438.92188h.125l.15625-1.1094h-.10938c-.0625.10938-.10938.14062-.23438.14062-.0625 0-.14062-.015625-.29688-.0625-.1875-.0625-.3125-.078125-.4375-.078125-.59375 0-.96875.34375-.96875.89062 0 .25.17188.59375.5 1.0312.3125.40625.45312.6875.45312.90625 0 .375-.25.625-.59375.625-.45312 0-.6875-.32812-.8125-1.0938z"/>
  </g>
  <g id="t">
   <path d="m3.7812-3.2344h-.5c-.015625 0-.0625-.015625-.125-.0625-.21875-.15625-.46875-.23438-.78125-.23438-.89062 0-1.6094.625-1.6094 1.375 0 .40625.17188.65625.64062.85938-.48438.32812-.625.48438-.625.67188 0 .10938.0625.20312.21875.3125-.79688.51562-.9375.6875-.9375 1.0469 0 .54688.53125.90625 1.3438.90625 1 0 1.6719-.46875 1.6719-1.1562 0-.51562-.375-.85938-1.1406-1.0625-.35938-.078125-.5625-.21875-.5625-.32812 0-.125.1875-.32812.28125-.32812h.0625c.078125.015625.15625.03125.25.03125.73438 0 1.4844-.65625 1.4844-1.2812 0-.125-.03125-.26562-.078125-.4375h.40625zm-2.5938 3.0156s.015625 0 .03125.015625c.03125 0 .10938.03125.23438.0625.85938.28125 1.1406.5 1.1406.85938 0 .4375-.45312.75-1.0781.75-.64062 0-1.0156-.29688-1.0156-.8125 0-.1875.046875-.32812.1875-.48438.10938-.14062.4375-.39062.5-.39062zm1.1875-3.1406c.28125 0 .4375.20312.4375.57812 0 .28125-.09375.625-.25.90625-.17188.32812-.42188.5-.6875.5-.3125 0-.48438-.21875-.48438-.59375 0-.75.45312-1.3906.98438-1.3906z"/>
  </g>
  <g id="l">
   <path d="m1.7812-.90625c-.20312.26562-.25.32812-.32812.40625-.14062.125-.26562.21875-.32812.21875s-.14062-.0625-.14062-.125c0-.078125.03125-.20312.09375-.35938l.03125-.14062.015625-.015625v-.015625l.70312-2.5781-.03125-.015625c-.8125.15625-.96875.17188-1.2812.20312v.125c.4375.015625.51562.03125.51562.1875 0 .078125-.03125.20312-.078125.35938l-.39062 1.4219c-.125.46875-.17188.70312-.17188.85938 0 .29688.125.46875.375.46875.375 0 .65625-.25 1.1094-.92188zm-.0625-4.3281c-.21875 0-.375.17188-.375.42188 0 .26562.14062.42188.375.42188.20312 0 .39062-.17188.39062-.40625s-.1875-.4375-.39062-.4375z"/>
  </g>
  <g id="k">
   <path d="m2.375-3.4219h-.64062l.21875-.82812v-.046875c0-.046875-.015625-.078125-.0625-.078125s-.0625.015625-.10938.078125c-.3125.40625-.8125.8125-1.0625.875-.20312.0625-.26562.125-.26562.20312 0 .015625 0 .03125.015625.046875h.59375l-.57812 2.2031c-.015625.078125-.03125.10938-.046875.17188-.078125.26562-.14062.51562-.14062.59375 0 .15625.17188.29688.39062.29688.35938 0 .625-.23438 1.125-.96875l-.09375-.0625c-.40625.5-.53125.64062-.65625.64062-.078125 0-.125-.0625-.125-.17188l.015625-.03125.70312-2.6719h.67188z"/>
  </g>
  <g id="s">
   <path d="m3.6875-.9375c-.4375.54688-.53125.64062-.65625.64062-.078125 0-.14062-.0625-.14062-.14062 0-.0625.03125-.20312.125-.5l.45312-1.6406c.03125-.17188.0625-.34375.0625-.46875 0-.29688-.21875-.48438-.51562-.48438-.51562 0-1.0312.48438-1.8438 1.7656l.53125-1.75-.015625-.015625c-.4375.09375-.60938.125-1.2969.25v.125c.40625.015625.5.0625.5.21875 0 .046875 0 .09375-.015625.14062l-.76562 2.7969h.60938c.375-1.2656.4375-1.4375.79688-1.9844.46875-.73438.89062-1.1406 1.1875-1.1406.10938 0 .1875.09375.1875.23438 0 .09375-.046875.35938-.10938.60938l-.35938 1.3281c-.10938.40625-.125.51562-.125.59375 0 .29688.10938.4375.375.4375.35938 0 .5625-.17188 1.125-.90625z"/>
  </g>
  <g id="r">
   <path d="m.28125-3.1719h.71875l-.70312 3.3594c-.17188.85938-.4375 1.2969-.78125 1.2969-.09375 0-.15625-.046875-.15625-.125 0-.03125.015625-.046875.03125-.09375.03125-.046875.046875-.078125.046875-.125 0-.17188-.15625-.29688-.3125-.29688-.17188 0-.29688.14062-.29688.32812 0 .28125.26562.48438.625.48438.71875 0 1.2656-.78125 1.6094-2.2656l.5625-2.5625h.875l.046875-.25h-.85938c.23438-1.2656.53125-1.8281.96875-1.8281.125 0 .1875.046875.1875.10938 0 .015625-.015625.03125-.03125.0625-.046875.0625-.046875.10938-.046875.17188 0 .1875.10938.32812.29688.32812.17188 0 .32812-.15625.32812-.32812 0-.29688-.29688-.51562-.6875-.51562s-.70312.17188-.98438.54688c-.25.3125-.40625.6875-.64062 1.4531h-.73438z"/>
  </g>
  <g id="q">
   <path d="m3.7188-.875-.23438.21875c-.25.25-.34375.32812-.40625.32812s-.125-.046875-.125-.10938c0-.15625.34375-1.5312.71875-2.9062.03125-.078125.03125-.09375.046875-.15625l-.0625-.03125-.48438.0625-.015625.015625-.09375.39062c-.0625-.29688-.29688-.46875-.64062-.46875-1.0625 0-2.2812 1.4531-2.2812 2.7344 0 .5625.29688.89062.8125.89062.5625 0 .90625-.26562 1.6094-1.2656-.17188.65625-.1875.71875-.1875.92188 0 .23438.09375.32812.32812.32812.3125 0 .5-.15625 1.1094-.875zm-1.25-2.4844c.28125.015625.45312.21875.45312.5 0 .67188-.40625 1.6094-.95312 2.2031-.1875.21875-.46875.35938-.70312.35938-.28125 0-.45312-.23438-.45312-.59375 0-.45312.29688-1.2656.64062-1.7656.32812-.46875.6875-.71875 1.0156-.70312z"/>
  </g>
  <g id="p">
   <path d="m2.7969-.84375c-.4375.46875-.75.64062-1.1406.64062-.45312 0-.73438-.32812-.73438-.90625 0-.6875.28125-1.4062.73438-1.8594.23438-.25.54688-.39062.875-.39062.1875 0 .29688.0625.29688.15625 0 .046875-.015625.078125-.046875.15625-.0625.10938-.078125.15625-.078125.23438 0 .1875.125.29688.3125.29688.21875 0 .39062-.14062.39062-.35938 0-.375-.35938-.65625-.84375-.65625-1.2031 0-2.3281 1.1719-2.3281 2.4219 0 .75.4375 1.2031 1.1875 1.2031.59375 0 1.0156-.25 1.5-.85938z"/>
  </g>
 </defs>
 <g fill="none" stroke="#000" stroke-linecap="round" stroke-miterlimit="10" stroke-width=".66667">
  <path d="m5.5386 67.374v-18"/>
  <path d="m5.5386 49.374h360"/>
  <path d="m365.54 49.374v18"/>
  <path d="m365.54 67.374h-360"/>
 </g>
 <g>
  <g transform="translate(-102.46 -59.024)" fill="#ff6600">
   <use x="119.6" y="120.8" xlink:href="#b"/>
   <use x="147.3" y="120.8" xlink:href="#b"/>
  </g>
  <g transform="translate(-102.46 -59.024)" fill="#000001">
   <use x="175" y="120.8" fill="#ff6600" xlink:href="#b"/>
  </g>
  <g transform="translate(-102.46 -59.024)" fill="#ff6600">
   <use x="202.7" y="120.8" xlink:href="#b"/>
   <use x="230.39999" y="120.8" xlink:href="#b"/>
   <use x="258" y="120.8" xlink:href="#b"/>
   <use x="285.79999" y="120.8" xlink:href="#b"/>
   <use x="313.5" y="120.8" xlink:href="#b"/>
   <use x="341.10001" y="120.8" xlink:href="#b"/>
   <use x="368.79999" y="120.8" xlink:href="#b"/>
   <use x="396.5" y="120.8" xlink:href="#b"/>
   <use x="424.20001" y="120.8" xlink:href="#b"/>
   <use x="451.89999" y="120.8" xlink:href="#b"/>
  </g>
  <g transform="translate(-102.46 -59.024)" fill="#000000">
   <use x="190.2" y="112.2" xlink:href="#a"/>
   <use x="190.2" y="115.8" xlink:href="#a"/>
   <use x="190.2" y="119.4" xlink:href="#a"/>
   <use x="190.2" y="123" xlink:href="#a"/>
   <use x="217.89999" y="112.2" xlink:href="#a"/>
   <use x="217.89999" y="115.8" xlink:href="#a"/>
   <use x="217.89999" y="119.4" xlink:href="#a"/>
   <use x="217.89999" y="123" xlink:href="#a"/>
   <use x="245.60001" y="112.2" xlink:href="#a"/>
   <use x="245.60001" y="115.8" xlink:href="#a"/>
   <use x="245.60001" y="119.4" xlink:href="#a"/>
   <use x="245.60001" y="123" xlink:href="#a"/>
   <use x="273.29999" y="112.2" xlink:href="#a"/>
   <use x="273.29999" y="115.8" xlink:href="#a"/>
   <use x="273.29999" y="119.4" xlink:href="#a"/>
   <use x="273.29999" y="123" xlink:href="#a"/>
   <use x="301" y="112.2" xlink:href="#a"/>
   <use x="301" y="115.8" xlink:href="#a"/>
   <use x="301" y="119.4" xlink:href="#a"/>
   <use x="301" y="123" xlink:href="#a"/>
  </g>
 </g>
 <g fill="none" stroke="#000" stroke-linecap="round" stroke-miterlimit="10">
  <g stroke-width=".25">
   <path d="m9.8394 41.476c-2.375 0-4.3008 1.9258-4.3008 4.3008"/>
   <path d="m9.8394 41.476h32.898"/>
   <path d="m42.738 41.476c2.375 0 4.3008-1.9258 4.3008-4.3008"/>
   <path d="m47.039 37.175c0 2.375 1.9258 4.3008 4.3008 4.3008"/>
   <path d="m51.339 41.476h32.898"/>
   <path d="m88.539 45.777c0-2.375-1.9258-4.3008-4.3008-4.3008"/>
   <path d="m92.937 41.476c-2.375 0-4.2969 1.9258-4.2969 4.3008"/>
   <path d="m92.937 41.476h5.1016"/>
   <path d="m98.039 41.476c2.375 0 4.3008-1.9258 4.3008-4.3008"/>
   <path d="m102.44 37.175c0 2.375 1.9258 4.3008 4.3008 4.3008"/>
   <path d="m106.74 41.476h5.1016"/>
   <path d="m116.24 45.777c0-2.375-1.9258-4.3008-4.3008-4.3008"/>
   <path d="m120.54 41.476c-2.375 0-4.3008 1.9258-4.3008 4.3008"/>
   <path d="m120.54 41.476h5.1016"/>
   <path d="m125.84 41.476c2.375 0 4.3008-1.9258 4.3008-4.3008"/>
   <path d="m130.14 37.175c0 2.375 1.9219 4.3008 4.2969 4.3008"/>
   <path d="m134.44 41.476h5.1016"/>
   <path d="m143.94 45.777c0-2.375-1.9219-4.3008-4.2969-4.3008"/>
   <path d="m148.24 41.476c-2.375 0-4.3008 1.9258-4.3008 4.3008"/>
   <path d="m148.24 41.476h5.1016"/>
   <path d="m153.44 41.476c2.375 0 4.3008-1.9258 4.3008-4.3008"/>
   <path d="m157.74 37.175c0 2.375 1.9258 4.3008 4.3008 4.3008"/>
   <path d="m162.14 41.476h5.0977"/>
   <path d="m171.64 45.777c0-2.375-1.9258-4.3008-4.3008-4.3008"/>
   <path d="m175.94 41.476c-2.375 0-4.2969 1.9258-4.2969 4.3008"/>
   <path d="m175.94 41.476h5.1016"/>
   <path d="m181.14 41.476c2.375 0 4.2969-1.9258 4.2969-4.3008"/>
   <path d="m185.54 37.175c0 2.375 1.9258 4.3008 4.3008 4.3008"/>
   <path d="m189.84 41.476h5.0976"/>
   <path d="m199.34 45.777c0-2.375-1.9258-4.3008-4.3008-4.3008"/>
   <path d="m203.64 41.476c-2.375 0-4.3008 1.9258-4.3008 4.3008"/>
   <path d="m203.64 41.476h74.398"/>
   <path d="m278.04 41.476c2.375 0 4.3008-1.9258 4.3008-4.3008"/>
   <path d="m282.44 37.175c0 2.375 1.9258 4.3008 4.3008 4.3008"/>
   <path d="m286.74 41.476h74.402"/>
   <path d="m365.54 45.777c0-2.375-1.9258-4.3008-4.3008-4.3008"/>
   <path d="m47.039 11.976v22.301"/>
  </g>
  <g stroke-width=".85">
   <path d="m45.238 27.078 1.8008 7.1992"/>
   <path d="m45.839 26.976 1.1992 7.3008"/>
   <path d="m46.437 26.874.5 7.4023"/>
   <path d="m47.039 26.874v7.4023"/>
   <path d="m47.64 26.874-.5 7.4023"/>
   <path d="m48.238 26.976-1.1992 7.3008"/>
   <path d="m48.839 27.078-1.8008 7.1992"/>
  </g>
  <path d="m93.738 11.976 8.6016 22.301" stroke-width=".25"/>
  <g stroke-width=".85">
   <path d="m98.14 28.277 4.1992 6"/>
   <path d="m98.64 27.874 3.6992 6.4023"/>
   <path d="m99.14 27.578 3.1992 6.5977"/>
   <path d="m99.738 27.374 2.6016 6.9023"/>
   <path d="m100.34 27.175 2 7.1016"/>
   <path d="m100.94 26.976 1.5 7.1992"/>
   <path d="m101.44 26.976.90235 7.3008"/>
  </g>
  <path d="m126.54 11.976 3.6016 22.301" stroke-width=".25"/>
  <g stroke-width=".85">
   <path d="m127.14 27.476 2.8984 6.8008"/>
   <path d="m127.74 27.277 2.3008 7"/>
   <path d="m128.34 27.078 1.8008 7.1992"/>
   <path d="m128.94 26.976 1.1016 7.3008"/>
   <path d="m129.54 26.874.5 7.4023"/>
   <path d="m130.14 26.874v7.4023"/>
   <path d="m130.74 26.874-.59766 7.4023"/>
  </g>
  <path d="m161.34 11.976-3.6016 22.301" stroke-width=".25"/>
  <g stroke-width=".85">
   <path d="m157.24 26.874.60156 7.4023"/>
   <path d="m157.74 26.874v7.4023"/>
   <path d="m158.34 26.874-.5 7.4023"/>
   <path d="m159.04 26.976-1.1016 7.3008"/>
   <path d="m159.54 27.078-1.8008 7.1992"/>
   <path d="m160.14 27.277-2.3008 7"/>
   <path d="m160.74 27.476-2.8984 6.8008"/>
  </g>
  <path d="m194.14 11.976-8.6016 22.301" stroke-width=".25"/>
  <g stroke-width=".85">
   <path d="m186.44 26.976-.89843 7.3008"/>
   <path d="m187.04 26.976-1.5 7.1992"/>
   <path d="m187.54 27.175-2 7.1016"/>
   <path d="m188.14 27.374-2.6016 6.9023"/>
   <path d="m188.74 27.578-3.1992 6.5977"/>
   <path d="m189.24 27.874-3.6992 6.4023"/>
   <path d="m189.74 28.277-4.1992 6"/>
  </g>
  <path d="m282.44 11.976v22.301" stroke-width=".25"/>
  <g stroke-width=".85">
   <path d="m280.64 27.078 1.7969 7.1992"/>
   <path d="m281.14 26.976 1.1992 7.3008"/>
   <path d="m281.84 26.874.5 7.4023"/>
   <path d="m282.44 26.874v7.4023"/>
   <path d="m283.04 26.874-.5 7.4023"/>
   <path d="m283.64 26.976-1.2031 7.3008"/>
   <path d="m284.24 27.078-1.8008 7.1992"/>
  </g>
 </g>
 <g transform="translate(-102.46 -59.024)">
  <use x="141.89999" y="67.599998" xlink:href="#u"/>
  <use x="146.78799" y="67.599998" xlink:href="#o"/>
  <use x="151.23599" y="67.599998" xlink:href="#n"/>
  <use x="183.8" y="67.599998" xlink:href="#j"/>
  <use x="189.576" y="67.599998" xlink:href="#i"/>
  <use x="193.576" y="67.599998" xlink:href="#c"/>
  <use x="197.12801" y="67.599998" xlink:href="#e"/>
  <use x="200.24001" y="67.599998" xlink:href="#d"/>
  <use x="204.60001" y="67.599998" xlink:href="#h"/>
  <use x="216.60001" y="67.599998" xlink:href="#j"/>
  <use x="222.37601" y="67.599998" xlink:href="#i"/>
  <use x="226.37601" y="67.599998" xlink:href="#c"/>
  <use x="229.92799" y="67.599998" xlink:href="#e"/>
  <use x="233.03999" y="67.599998" xlink:href="#d"/>
  <use x="237.40001" y="67.599998" xlink:href="#m"/>
  <use x="253.90001" y="67.599998" xlink:href="#g"/>
  <use x="258.78799" y="67.599998" xlink:href="#c"/>
  <use x="262.34" y="67.599998" xlink:href="#f"/>
  <use x="265.452" y="67.599998" xlink:href="#d"/>
  <use x="269.80002" y="67.599998" xlink:href="#h"/>
  <use x="286.70001" y="67.599998" xlink:href="#g"/>
  <use x="291.58801" y="67.599998" xlink:href="#c"/>
  <use x="295.14001" y="67.599998" xlink:href="#f"/>
  <use x="298.25201" y="67.599998" xlink:href="#d"/>
  <use x="302.60001" y="67.599998" xlink:href="#m"/>
  <use x="356.39999" y="67.599998" xlink:href="#g"/>
  <use x="361.28799" y="67.599998" xlink:href="#c"/>
  <use x="364.84" y="67.599998" xlink:href="#t"/>
  <use x="368.84" y="67.599998" xlink:href="#l"/>
  <use x="371.064" y="67.599998" xlink:href="#f"/>
  <use x="374.17599" y="67.599998" xlink:href="#k"/>
  <use x="376.39999" y="67.599998" xlink:href="#c"/>
  <use x="379.952" y="67.599998" xlink:href="#e"/>
  <use x="385.30002" y="67.599998" xlink:href="#l"/>
  <use x="387.52402" y="67.599998" xlink:href="#s"/>
  <use x="391.52402" y="67.599998" xlink:href="#k"/>
  <use x="393.74802" y="67.599998" xlink:href="#c"/>
  <use x="397.30002" y="67.599998" xlink:href="#e"/>
  <use x="400.41202" y="67.599998" xlink:href="#r"/>
  <use x="402.63602" y="67.599998" xlink:href="#q"/>
  <use x="406.63602" y="67.599998" xlink:href="#p"/>
  <use x="410.18802" y="67.599998" xlink:href="#c"/>
 </g>
</svg>
