<svg width="140" height="100" version="1.1" viewBox="0 0 140 100" xmlns="http://www.w3.org/2000/svg" xmlns:xlink="http://www.w3.org/1999/xlink">
 <defs>
  <g id="d">
   <path d="m4.1875-.14062c-.1875-.17188-.25-.3125-.25-.51562v-2.4062c0-.875-.59375-1.3281-1.7656-1.3281s-1.7812.5-1.8594 1.5h1.0938c.046875-.45312.23438-.59375.78125-.59375.4375 0 .65625.14062.65625.42188 0 .15625-.078125.26562-.20312.34375-.14062.078125-.14062.078125-.70312.17188l-.4375.078125c-.85938.14062-1.2812.57812-1.2812 1.3594 0 .76562.53125 1.2969 1.3125 1.2969.48438 0 .92188-.20312 1.3125-.625 0 .23438.03125.3125.125.4375h1.2188zm-1.3438-1.5938c0 .64062-.32812 1.0156-.89062 1.0156-.375 0-.60938-.20312-.60938-.51562 0-.34375.17188-.5.64062-.59375l.39062-.078125c.28125-.046875.34375-.0625.46875-.14062z"/>
  </g>
  <g id="b">
   <path d="m3.2344 0h1.125v-5.8281h-1.125v2.0625c-.28125-.42188-.64062-.625-1.1875-.625-1.0312 0-1.8125.98438-1.8125 2.2969 0 .57812.17188 1.1719.46875 1.5938.28125.42188.8125.6875 1.3438.6875.54688 0 .90625-.20312 1.1875-.625zm-.9375-3.4531c.5625 0 .9375.54688.9375 1.375 0 .78125-.375 1.3281-.9375 1.3281s-.9375-.54688-.9375-1.3438c0-.8125.375-1.3594.9375-1.3594z"/>
  </g>
  <g id="e">
   <path d="m.5-4.3125v4.3125h1.125v-2.2969c0-.65625.32812-.98438.98438-.98438.125 0 .20312.015625.34375.03125v-1.1406h-.125c-.51562 0-.95312.32812-1.2031.92188v-.84375z"/>
  </g>
  <g id="c">
   <path d="m4.1875-1.8125c.015625-.09375.015625-.125.015625-.1875 0-.4375-.0625-.82812-.17188-1.1406-.28125-.78125-.98438-1.25-1.8594-1.25-1.2344 0-2 .89062-2 2.3438 0 1.3906.75 2.2344 1.9844 2.2344.96875 0 1.75-.54688 2-1.4062h-1.1094c-.14062.34375-.45312.54688-.85938.54688-.3125 0-.57812-.14062-.73438-.375-.09375-.15625-.14062-.35938-.15625-.76562zm-2.875-.73438c.078125-.67188.34375-.98438.84375-.98438.51562 0 .8125.34375.875.98438z"/>
  </g>
  <g id="a">
   <path d="m4.0469-2.9219c-.015625-.92188-.73438-1.4688-1.8906-1.4688-1.0938 0-1.7656.54688-1.7656 1.4375 0 .29688.078125.53125.23438.70312.15625.15625.28125.21875.70312.35938l1.3281.42188c.28125.078125.39062.17188.39062.34375 0 .26562-.3125.42188-.84375.42188-.29688 0-.51562-.046875-.65625-.14062-.125-.09375-.17188-.1875-.21875-.40625h-1.0938c.03125.95312.71875 1.4375 2.0312 1.4375.60938 0 1.0625-.125 1.375-.39062.32812-.25.51562-.65625.51562-1.0781 0-.5625-.28125-.92188-.84375-1.0938l-1.4219-.40625c-.3125-.09375-.39062-.15625-.39062-.32812 0-.25.26562-.40625.65625-.40625.53125 0 .79688.20312.79688.59375z"/>
  </g>
  <g id="g">
   <path d="m4.3281 0v-4.3125h-1.125v2.7031c0 .5-.34375.84375-.90625.84375-.46875 0-.71875-.26562-.71875-.78125v-2.7656h-1.1094v3c0 .95312.51562 1.5 1.4375 1.5.59375 0 .98438-.21875 1.2969-.70312v.51562z"/>
  </g>
  <g id="i">
   <path d="m.46875-5.8281v5.8281h1.125v-.4375c.26562.42188.64062.625 1.1875.625 1.0312 0 1.8125-.98438 1.8125-2.2969 0-.57812-.17188-1.1719-.45312-1.5938-.29688-.42188-.82812-.6875-1.3594-.6875-.54688 0-.92188.20312-1.1875.625v-2.0625zm2.0625 2.375c.5625 0 .95312.5625.95312 1.3594s-.39062 1.3438-.95312 1.3438-.9375-.53125-.9375-1.375c0-.78125.375-1.3281.9375-1.3281z"/>
  </g>
  <g id="h">
   <path d="m3.1562-4.3125-.90625 3.1406-.95312-3.1406h-1.2188l1.6094 4.4844c0 .45312-.28125.75-.70312.75-.09375 0-.15625-.015625-.29688-.046875v.84375c.17188.03125.26562.03125.40625.03125.28125 0 .60938-.046875.79688-.14062.3125-.125.45312-.29688.64062-.8125l1.7656-5.1094z"/>
  </g>
  <g id="f">
   <path d="m4.1719-2.7031c-.078125-1.0625-.76562-1.6875-1.8594-1.6875-1.2969 0-2.0469.84375-2.0469 2.3125 0 1.4375.75 2.2656 2.0312 2.2656 1.0469 0 1.7812-.65625 1.875-1.6875h-1.0625c-.14062.5625-.35938.78125-.8125.78125-.5625 0-.90625-.5-.90625-1.3594 0-.40625.078125-.78125.21875-1.0469.125-.23438.375-.35938.6875-.35938.46875 0 .67188.21875.8125.78125z"/>
  </g>
  <g id="p">
   <path d="m.53125-5.8281v5.8281h1.125v-2.5938c0-.5.35938-.84375.85938-.84375.25 0 .4375.078125.5625.26562.10938.14062.125.26562.125.53125v2.6406h1.125v-2.8906c0-.54688-.14062-.92188-.4375-1.1719-.25-.20312-.60938-.32812-.96875-.32812-.54688 0-.95312.21875-1.2656.6875v-2.125z"/>
  </g>
  <g id="o">
   <path d="m1.7031-5.8281h-1.2031v5.8281h1.2031z"/>
  </g>
  <g id="n">
   <path d="m.60938 0h2.2812c.89062 0 1.4531-.20312 1.8594-.6875.45312-.53125.70312-1.3281.70312-2.2344s-.25-1.6875-.70312-2.2344c-.40625-.46875-.95312-.67188-1.8594-.67188h-2.2812zm1.2031-1v-3.8281h1.0781c.90625 0 1.3594.625 1.3594 1.9219 0 1.2812-.45312 1.9062-1.3594 1.9062z"/>
  </g>
  <g id="m">
   <path d="m2.7969 0 1.4844-4.3125h-1.1719l-.875 3.1562-.9375-3.1562h-1.1875l1.5156 4.3125z"/>
  </g>
  <g id="l">
   <path d="m1.6562-4.3125h-1.125v4.3125h1.125zm0-1.5156h-1.125v1h1.125z"/>
  </g>
  <g id="k">
   <path d="m2.4062-4.2344h-.625v-1.1562h-1.125v1.1562h-.54688v.75h.54688v2.6562c0 .67188.375 1.0156 1.1094 1.0156.25 0 .4375-.03125.64062-.09375v-.78125c-.10938.015625-.17188.03125-.25.03125-.29688 0-.375-.09375-.375-.48438v-2.3438h.625z"/>
  </g>
  <g id="j">
   <path d="m1.6562-5.8281h-1.125v5.8281h1.125z"/>
  </g>
 </defs>
 <g fill="none" stroke="#000" stroke-linecap="round" stroke-miterlimit="10" stroke-width=".66667">
  <path d="m19.926 81.275v-10.801"/>
  <path d="m19.926 70.474h100.8"/>
  <path d="m120.72 70.474v10.801"/>
  <path d="m120.72 81.275h-100.8"/>
 </g>
 <g transform="translate(-217.68 -56.725)" fill="#ff6600">
  <use x="243.7" y="150.39999" xlink:href="#d"/>
  <use x="248.14799" y="150.39999" xlink:href="#b"/>
  <use x="253.036" y="150.39999" xlink:href="#b"/>
  <use x="257.92401" y="150.39999" xlink:href="#e"/>
  <use x="261.03601" y="150.39999" xlink:href="#c"/>
  <use x="265.48401" y="150.39999" xlink:href="#a"/>
  <use x="269.93201" y="150.39999" xlink:href="#a"/>
  <use x="276.79999" y="150.39999" xlink:href="#g"/>
  <use x="281.68799" y="150.39999" xlink:href="#a"/>
  <use x="286.13599" y="150.39999" xlink:href="#c"/>
  <use x="290.58398" y="150.39999" xlink:href="#b"/>
  <use x="297.79999" y="150.39999" xlink:href="#i"/>
  <use x="302.68799" y="150.39999" xlink:href="#h"/>
  <use x="309.39999" y="150.39999" xlink:href="#f"/>
  <use x="313.84799" y="150.39999" xlink:href="#d"/>
  <use x="318.29599" y="150.39999" xlink:href="#f"/>
  <use x="322.74399" y="150.39999" xlink:href="#p"/>
  <use x="327.63199" y="150.39999" xlink:href="#c"/>
 </g>
 <g fill="none" stroke="#000" stroke-linecap="round" stroke-miterlimit="10" stroke-width=".66667">
  <path d="m3.7229 27.275v-10.801"/>
  <path d="m3.7229 16.474h21.602"/>
  <path d="m25.325 16.474v10.801"/>
  <path d="m25.325 27.275h-21.602"/>
 </g>
 <g transform="translate(-217.68 -56.725)" fill="#00ff00">
  <use x="228.2" y="67.599998" xlink:href="#o"/>
  <use x="230.424" y="67.599998" xlink:href="#n"/>
 </g>
 <g fill="none" stroke="#000" stroke-linecap="round" stroke-miterlimit="10" stroke-width=".66667">
  <path d="m57.723 27.275v-10.801"/>
  <path d="m57.723 16.474h79.203"/>
  <path d="m136.93 16.474v10.801"/>
  <path d="m136.93 27.275h-79.203"/>
 </g>
 <g transform="translate(-217.68 -56.725)" fill="#007fff">
  <use x="286.5" y="67.599998" xlink:href="#m"/>
  <use x="290.948" y="67.599998" xlink:href="#l"/>
  <use x="293.172" y="67.599998" xlink:href="#e"/>
  <use x="296.284" y="67.599998" xlink:href="#k"/>
  <use x="298.948" y="67.599998" xlink:href="#g"/>
  <use x="303.836" y="67.599998" xlink:href="#d"/>
  <use x="308.284" y="67.599998" xlink:href="#j"/>
  <use x="312.70001" y="67.599998" xlink:href="#d"/>
  <use x="317.14801" y="67.599998" xlink:href="#b"/>
  <use x="322.03601" y="67.599998" xlink:href="#b"/>
  <use x="326.92401" y="67.599998" xlink:href="#e"/>
  <use x="330.03601" y="67.599998" xlink:href="#c"/>
  <use x="334.48401" y="67.599998" xlink:href="#a"/>
  <use x="338.93201" y="67.599998" xlink:href="#a"/>
 </g>
 <g fill="none" stroke="#000" stroke-linecap="round" stroke-miterlimit="10">
  <path d="m4.7229 29.877 14.102 37.797" stroke-width=".5"/>
  <g stroke-width=".8">
   <path d="m14.625 61.674 4.1992 6.1016"/>
   <path d="m15.223 61.275 3.6016 6.3984"/>
   <path d="m15.723 60.974 3.1016 6.6016"/>
   <path d="m16.325 60.775 2.5 6.8984"/>
   <path d="m16.825 60.576 2 7.0977"/>
   <path d="m17.426 60.377 1.3984 7.1992"/>
   <path d="m18.024 60.377.80078 7.2969"/>
  </g>
  <path d="m26.325 29.877 14.102 37.797" stroke-width=".5"/>
  <g stroke-width=".8">
   <path d="m36.223 61.674 4.2031 6.1016"/>
   <path d="m36.825 61.275 3.6016 6.3984"/>
   <path d="m37.325 60.974 3.1016 6.6016"/>
   <path d="m37.926 60.775 2.5 6.8984"/>
   <path d="m38.426 60.576 2 7.0977"/>
   <path d="m39.024 60.377 1.4023 7.1992"/>
   <path d="m39.625 60.377.80078 7.2969"/>
  </g>
  <path d="m56.625 29.877-14.102 37.797" stroke-width=".5"/>
  <g stroke-width=".8">
   <path d="m43.325 60.377-.80078 7.2969"/>
   <path d="m43.926 60.377-1.4023 7.1992"/>
   <path d="m44.524 60.576-2 7.0977"/>
   <path d="m45.125 60.775-2.5 6.8984"/>
   <path d="m45.625 60.974-3.1016 6.6016"/>
   <path d="m46.125 61.275-3.6016 6.3984"/>
   <path d="m46.723 61.674-4.1992 6.1016"/>
  </g>
  <path d="m135.82 29.877-14.102 37.797" stroke-width=".5"/>
  <g stroke-width=".8">
   <path d="m122.52 60.377-.80078 7.2969"/>
   <path d="m123.13 60.377-1.4023 7.1992"/>
   <path d="m123.72 60.576-2 7.0977"/>
   <path d="m124.32 60.775-2.5 6.8984"/>
   <path d="m124.82 60.974-3.1016 6.6016"/>
   <path d="m125.32 61.275-3.6016 6.3984"/>
   <path d="m125.93 61.674-4.2031 6.1016"/>
  </g>
 </g>
</svg>
