<svg width="170" height="145" version="1.1" viewBox="0 0 170 145" xmlns="http://www.w3.org/2000/svg" xmlns:xlink="http://www.w3.org/1999/xlink">
 <defs>
  <g id="s">
   <path d="m1.7344-2.5312c.4375 0 .45312 0 .65625.046875.375.10938.625.4375.625.85938 0 .5-.35938.84375-.84375.84375-.53125 0-.8125-.29688-.85938-.875h-1.0781c0 1.125.73438 1.8438 1.9062 1.8438 1.2188 0 1.9844-.71875 1.9844-1.8125 0-.67188-.28125-1.1094-.92188-1.4219.51562-.32812.73438-.6875.73438-1.2031 0-.9375-.70312-1.5469-1.7969-1.5469-.82812 0-1.4531.35938-1.7031.98438-.09375.26562-.14062.45312-.14062.92188h1.0469c.015625-.29688.03125-.45312.09375-.59375.09375-.25.35938-.40625.6875-.40625.4375 0 .70312.28125.70312.75 0 .57812-.32812.85938-1 .85938h-.09375z"/>
  </g>
  <g id="q">
   <path d="m4.0938-1h-2.4062c.15625-.29688.32812-.46875 1.1562-1.0781.98438-.71875 1.2812-1.1406 1.2812-1.9062 0-1.1094-.76562-1.8125-1.9531-1.8125-1.1719 0-1.8594.70312-1.8594 1.9062v.1875h1.0781v-.17188c0-.64062.29688-1 .8125-1 .5 0 .79688.34375.79688.90625 0 .625-.1875.85938-1.4531 1.7656-.96875.65625-1.2656 1.1406-1.3125 2.2031h3.8594z"/>
  </g>
  <g id="o">
   <path d="m2.3906-2.7344h-2.1875v1.0781h2.1875z"/>
  </g>
  <g id="g">
   <path d="m.46875-5.8281v5.8281h1.125v-.4375c.26562.42188.64062.625 1.1875.625 1.0312 0 1.8125-.98438 1.8125-2.2969 0-.57812-.17188-1.1719-.45312-1.5938-.29688-.42188-.82812-.6875-1.3594-.6875-.54688 0-.92188.20312-1.1875.625v-2.0625zm2.0625 2.375c.5625 0 .95312.5625.95312 1.3594s-.39062 1.3438-.95312 1.3438-.9375-.53125-.9375-1.375c0-.78125.375-1.3281.9375-1.3281z"/>
  </g>
  <g id="n">
   <path d="m1.6562-4.3125h-1.125v4.3125h1.125zm0-1.5156h-1.125v1h1.125z"/>
  </g>
  <g id="a">
   <path d="m2.4062-4.2344h-.625v-1.1562h-1.125v1.1562h-.54688v.75h.54688v2.6562c0 .67188.375 1.0156 1.1094 1.0156.25 0 .4375-.03125.64062-.09375v-.78125c-.10938.015625-.17188.03125-.25.03125-.29688 0-.375-.09375-.375-.48438v-2.3438h.625z"/>
  </g>
  <g id="f">
   <path d="m1.5781-4.3125h-1.1094v6.0625h1.1094v-2.2656c.28125.48438.65625.70312 1.2031.70312 1.0469 0 1.8125-.96875 1.8125-2.2812 0-.60938-.17188-1.2188-.46875-1.625-.28125-.40625-.82812-.67188-1.3438-.67188-.54688 0-.92188.23438-1.2031.70312zm.95312.85938c.5625 0 .9375.54688.9375 1.375 0 .79688-.375 1.3281-.9375 1.3281-.57812 0-.95312-.53125-.95312-1.3438s.375-1.3594.95312-1.3594z"/>
  </g>
  <g id="m">
   <path d="m3.2031-4.3125v.65625c-.3125-.5-.65625-.73438-1.1094-.73438-.39062 0-.8125.1875-1.1094.5-.4375.45312-.65625 1.0781-.65625 1.8281 0 1.3281.70312 2.25 1.7344 2.25.46875 0 .75-.15625 1.1406-.625v.57812c0 .51562-.375.89062-.90625.89062-.39062 0-.64062-.1875-.73438-.51562h-1.1406c0 .34375.125.57812.42188.8125.34375.28125.8125.42188 1.4219.42188 1.25 0 2-.60938 2-1.6094v-4.4531zm-.90625.85938c.53125 0 .92188.57812.92188 1.375s-.375 1.3281-.9375 1.3281c-.48438 0-.82812-.53125-.82812-1.3281 0-.8125.34375-1.375.84375-1.375z"/>
  </g>
  <g id="e">
   <path d="m.48438-4.3125v4.3125h1.1094v-2.5938c0-.53125.29688-.84375.78125-.84375.375 0 .59375.21875.59375.5625v2.875h1.125v-2.5938c0-.53125.29688-.84375.76562-.84375.375 0 .60938.21875.60938.5625v2.875h1.125v-3.0625c0-.82812-.51562-1.3281-1.375-1.3281-.5625 0-.9375.1875-1.2656.64062-.20312-.40625-.64062-.64062-1.1719-.64062-.5 0-.82812.15625-1.1875.60938v-.53125z"/>
  </g>
  <g id="r">
   <path d="m1.7188-1.1719h-1.2031v1.1719h1.2031z"/>
  </g>
  <g id="l">
   <path d="m4.1719-2.7031c-.078125-1.0625-.76562-1.6875-1.8594-1.6875-1.2969 0-2.0469.84375-2.0469 2.3125 0 1.4375.75 2.2656 2.0312 2.2656 1.0469 0 1.7812-.65625 1.875-1.6875h-1.0625c-.14062.5625-.35938.78125-.8125.78125-.5625 0-.90625-.5-.90625-1.3594 0-.40625.078125-.78125.21875-1.0469.125-.23438.375-.35938.6875-.35938.46875 0 .67188.21875.8125.78125z"/>
  </g>
  <g id="c">
   <path d="m.5-4.3125v4.3125h1.125v-2.2969c0-.65625.32812-.98438.98438-.98438.125 0 .20312.015625.34375.03125v-1.1406h-.125c-.51562 0-.95312.32812-1.2031.92188v-.84375z"/>
  </g>
  <g id="k">
   <path d="m4.1875-.14062c-.1875-.17188-.25-.3125-.25-.51562v-2.4062c0-.875-.59375-1.3281-1.7656-1.3281s-1.7812.5-1.8594 1.5h1.0938c.046875-.45312.23438-.59375.78125-.59375.4375 0 .65625.14062.65625.42188 0 .15625-.078125.26562-.20312.34375-.14062.078125-.14062.078125-.70312.17188l-.4375.078125c-.85938.14062-1.2812.57812-1.2812 1.3594 0 .76562.53125 1.2969 1.3125 1.2969.48438 0 .92188-.20312 1.3125-.625 0 .23438.03125.3125.125.4375h1.2188zm-1.3438-1.5938c0 .64062-.32812 1.0156-.89062 1.0156-.375 0-.60938-.20312-.60938-.51562 0-.34375.17188-.5.64062-.59375l.39062-.078125c.28125-.046875.34375-.0625.46875-.14062z"/>
  </g>
  <g id="j">
   <path d="m3.2344 0h1.125v-5.8281h-1.125v2.0625c-.28125-.42188-.64062-.625-1.1875-.625-1.0312 0-1.8125.98438-1.8125 2.2969 0 .57812.17188 1.1719.46875 1.5938.28125.42188.8125.6875 1.3438.6875.54688 0 .90625-.20312 1.1875-.625zm-.9375-3.4531c.5625 0 .9375.54688.9375 1.375 0 .78125-.375 1.3281-.9375 1.3281s-.9375-.54688-.9375-1.3438c0-.8125.375-1.3594.9375-1.3594z"/>
  </g>
  <g id="b">
   <path d="m4.1875-1.8125c.015625-.09375.015625-.125.015625-.1875 0-.4375-.0625-.82812-.17188-1.1406-.28125-.78125-.98438-1.25-1.8594-1.25-1.2344 0-2 .89062-2 2.3438 0 1.3906.75 2.2344 1.9844 2.2344.96875 0 1.75-.54688 2-1.4062h-1.1094c-.14062.34375-.45312.54688-.85938.54688-.3125 0-.57812-.14062-.73438-.375-.09375-.15625-.14062-.35938-.15625-.76562zm-2.875-.73438c.078125-.67188.34375-.98438.84375-.98438.51562 0 .8125.34375.875.98438z"/>
  </g>
  <g id="d">
   <path d="m2.4062-4.3906c-1.3125 0-2.125.875-2.125 2.2812 0 1.4219.8125 2.2969 2.1406 2.2969 1.3125 0 2.125-.875 2.125-2.2656 0-1.4531-.78125-2.3125-2.1406-2.3125zm.015625.90625c.60938 0 1.0156.54688 1.0156 1.3906 0 .8125-.42188 1.375-1.0156 1.375-.60938 0-1.0156-.54688-1.0156-1.3906 0-.82812.40625-1.375 1.0156-1.375z"/>
  </g>
  <g id="i">
   <path d="m4.3281 0v-4.3125h-1.125v2.7031c0 .5-.34375.84375-.90625.84375-.46875 0-.71875-.26562-.71875-.78125v-2.7656h-1.1094v3c0 .95312.51562 1.5 1.4375 1.5.59375 0 .98438-.21875 1.2969-.70312v.51562z"/>
  </g>
  <g id="h">
   <path d="m.5-4.3125v4.3125h1.125v-2.5938c0-.51562.34375-.84375.90625-.84375.48438 0 .71875.26562.71875.78125v2.6562h1.125v-2.8906c0-.96875-.53125-1.5-1.4531-1.5-.57812 0-.98438.20312-1.2969.6875v-.60938z"/>
  </g>
  <g id="x">
   <path d="m2.7969 0 1.4844-4.3125h-1.1719l-.875 3.1562-.9375-3.1562h-1.1875l1.5156 4.3125z"/>
  </g>
  <g id="w">
   <path d="m1.6562-5.8281h-1.125v5.8281h1.125z"/>
  </g>
  <g id="p">
   <path d="m4.0469-2.9219c-.015625-.92188-.73438-1.4688-1.8906-1.4688-1.0938 0-1.7656.54688-1.7656 1.4375 0 .29688.078125.53125.23438.70312.15625.15625.28125.21875.70312.35938l1.3281.42188c.28125.078125.39062.17188.39062.34375 0 .26562-.3125.42188-.84375.42188-.29688 0-.51562-.046875-.65625-.14062-.125-.09375-.17188-.1875-.21875-.40625h-1.0938c.03125.95312.71875 1.4375 2.0312 1.4375.60938 0 1.0625-.125 1.375-.39062.32812-.25.51562-.65625.51562-1.0781 0-.5625-.28125-.92188-.84375-1.0938l-1.4219-.40625c-.3125-.09375-.39062-.15625-.39062-.32812 0-.25.26562-.40625.65625-.40625.53125 0 .79688.20312.79688.59375z"/>
  </g>
  <g id="v">
   <path d="m3.1562-4.3125-.90625 3.1406-.95312-3.1406h-1.2188l1.6094 4.4844c0 .45312-.28125.75-.70312.75-.09375 0-.15625-.015625-.29688-.046875v.84375c.17188.03125.26562.03125.40625.03125.28125 0 .60938-.046875.79688-.14062.3125-.125.45312-.29688.64062-.8125l1.7656-5.1094z"/>
  </g>
  <g id="u">
   <path d="m.53125-5.8281v5.8281h1.125v-2.5938c0-.5.35938-.84375.85938-.84375.25 0 .4375.078125.5625.26562.10938.14062.125.26562.125.53125v2.6406h1.125v-2.8906c0-.54688-.14062-.92188-.4375-1.1719-.25-.20312-.60938-.32812-.96875-.32812-.54688 0-.95312.21875-1.2656.6875v-2.125z"/>
  </g>
  <g id="t">
   <path d="m5.2188-2.7344h-.73438v-4.3594h-1.6562l-2.5938 4.3438v1.1875h2.8438v1.5625h1.4062v-1.5625h.73438zm-2.1406 0h-1.8438l1.8438-3.0312z"/>
  </g>
 </defs>
 <g fill="none" stroke="#000" stroke-linecap="round" stroke-miterlimit="10" stroke-width=".66667">
  <path d="m21.592 104.72v-72"/>
  <path d="m21.592 32.715h10.797"/>
  <path d="m32.389 32.715v72"/>
  <path d="m32.389 104.72h-10.797"/>
 </g>
 <g transform="translate(-205.51 -59.086)" fill="#ff6600">
  <use x="221.89999" y="78.800003" xlink:href="#s"/>
  <use x="226.34801" y="78.800003" xlink:href="#q"/>
  <use x="230.79601" y="78.800003" xlink:href="#o"/>
  <use x="233.46001" y="78.800003" xlink:href="#g"/>
  <use x="238.34801" y="78.800003" xlink:href="#n"/>
  <use x="240.57201" y="78.800003" xlink:href="#a"/>
  <use x="215.7" y="87.800003" xlink:href="#f"/>
  <use x="220.588" y="87.800003" xlink:href="#m"/>
  <use x="225.476" y="87.800003" xlink:href="#e"/>
  <use x="232.588" y="87.800003" xlink:href="#r"/>
  <use x="236.99998" y="87.800003" xlink:href="#l"/>
  <use x="241.448" y="87.800003" xlink:href="#a"/>
  <use x="244.112" y="87.800003" xlink:href="#c"/>
  <use x="247.224" y="87.800003" xlink:href="#r"/>
 </g>
 <g fill="none" stroke="#000" stroke-linecap="round" stroke-miterlimit="10" stroke-width=".66667">
  <path d="m32.389 68.715h30.902"/>
  <path d="m56.19 70.516 7.1992-1.8008"/>
  <path d="m55.991 69.914 7.3008-1.1992"/>
  <path d="m55.991 69.215 7.3984-.5"/>
  <path d="m55.991 68.715h7.3984"/>
  <path d="m55.991 68.114 7.3984.5"/>
  <path d="m55.991 67.414 7.3008 1.1992"/>
  <path d="m56.19 66.914 7.1992 1.8008"/>
 </g>
 <g transform="translate(-205.51 -59.086)" fill="#ffcc00">
  <use x="268.39999" y="86" xlink:href="#s"/>
  <use x="272.84799" y="86" xlink:href="#q"/>
  <use x="277.29599" y="86" xlink:href="#o"/>
  <use x="279.95999" y="86" xlink:href="#g"/>
  <use x="284.84799" y="86" xlink:href="#n"/>
  <use x="287.07199" y="86" xlink:href="#a"/>
  <use x="268.10001" y="95" xlink:href="#k"/>
  <use x="272.548" y="95" xlink:href="#j"/>
  <use x="277.436" y="95" xlink:href="#j"/>
  <use x="282.32401" y="95" xlink:href="#b"/>
  <use x="286.772" y="95" xlink:href="#c"/>
 </g>
 <g fill="none" stroke="#000" stroke-linecap="round" stroke-miterlimit="10" stroke-width=".66667">
  <path d="m63.389 39.914v18"/>
  <path d="m63.389 57.914 7.2031 3.6016"/>
  <path d="m70.592 61.516-7.2031 3.5977"/>
  <path d="m63.389 65.114v18"/>
  <path d="m63.389 83.114 20.102-9.3008"/>
  <path d="m83.491 73.715v-24.402"/>
  <path d="m83.491 49.215-20.102-9.3008"/>
  <path d="m49.69 54.313h13.602"/>
  <path d="m56.19 56.114 7.1992-1.8008"/>
  <path d="m55.991 55.516 7.3008-1.2031"/>
  <path d="m55.991 54.813 7.3984-.5"/>
  <path d="m55.991 54.313h7.3984"/>
  <path d="m55.991 53.715 7.3984.5"/>
  <path d="m55.991 53.016 7.3008 1.1992"/>
  <path d="m56.19 52.516 7.1992 1.7969"/>
 </g>
 <g>
  <use transform="translate(-205.51 -59.086)" x="247.39999" y="116.4" fill="#ff00ff" xlink:href="#t"/>
  <text x="36.80751" y="62.128754" fill="#000000" font-family="sans-serif" font-size="5.2682px" stroke-width=".1317" style="line-height:1.25" xml:space="preserve"><tspan x="36.80751" y="62.128754" stroke-width=".1317">(bytes)</tspan></text>
 </g>
 <g fill="none" stroke="#000" stroke-linecap="round" stroke-miterlimit="10">
  <g stroke-width=".66667">
   <path d="m83.491 61.516h20.102"/>
   <path d="m103.69 61.516v-57.602"/>
   <path d="m103.69 3.9145h-100"/>
   <path d="m3.5921 3.9145v64.801"/>
   <path d="m3.5921 68.715h18"/>
   <path d="m14.389 70.516 7.2031-1.8008"/>
   <path d="m14.291 69.914 7.3008-1.1992"/>
   <path d="m14.19 69.215 7.4023-.5"/>
   <path d="m14.19 68.715h7.4023"/>
   <path d="m14.19 68.114 7.4023.5"/>
   <path d="m14.291 67.414 7.3008 1.1992"/>
   <path d="m14.389 66.914 7.2031 1.8008"/>
   <path d="m42.69 68.715c0-.05469-.04297-.10156-.09766-.10156s-.10156.04687-.10156.10156c0 .05469.04687.09766.10156.09766.05469 0 .09766-.04297.09766-.09766"/>
  </g>
  <path d="m43.991 68.715c0-.77344-.62891-1.4023-1.3984-1.4023-.77344 0-1.4023.62891-1.4023 1.4023 0 .77344.62891 1.3984 1.4023 1.3984.76953 0 1.3984-.625 1.3984-1.3984"/>
  <g stroke-width=".66667">
   <path d="m42.592 68.715v64.801"/>
   <path d="m42.592 133.52h16.5"/>
   <path d="m51.991 135.31 7.1992-1.7969"/>
   <path d="m51.889 134.72 7.3008-1.1992"/>
   <path d="m51.791 134.02 7.3984-.5"/>
   <path d="m51.791 133.52h7.3984"/>
   <path d="m51.791 132.91 7.3984.5"/>
   <path d="m51.889 132.22 7.3008 1.1992"/>
   <path d="m51.991 131.72 7.1992 1.8008"/>
  </g>
 </g>
 <g transform="translate(-205.51 -59.086)" fill="#007fff">
  <use x="269" y="189.7" xlink:href="#f"/>
  <use x="273.888" y="189.7" xlink:href="#c"/>
  <use x="277" y="189.7" xlink:href="#d"/>
  <use x="281.888" y="189.7" xlink:href="#m"/>
  <use x="286.776" y="189.7" xlink:href="#c"/>
  <use x="289.888" y="189.7" xlink:href="#k"/>
  <use x="294.336" y="189.7" xlink:href="#e"/>
  <use x="303.70001" y="189.7" xlink:href="#l"/>
  <use x="308.14801" y="189.7" xlink:href="#d"/>
  <use x="313.03601" y="189.7" xlink:href="#i"/>
  <use x="317.92401" y="189.7" xlink:href="#h"/>
  <use x="322.81201" y="189.7" xlink:href="#a"/>
  <use x="325.47601" y="189.7" xlink:href="#b"/>
  <use x="329.92401" y="189.7" xlink:href="#c"/>
  <use x="335.29999" y="189.7" xlink:href="#x"/>
  <use x="339.74799" y="189.7" xlink:href="#k"/>
  <use x="344.19598" y="189.7" xlink:href="#w"/>
  <use x="346.41998" y="189.7" xlink:href="#i"/>
  <use x="351.30798" y="189.7" xlink:href="#b"/>
  <use x="269" y="198.7" xlink:href="#i"/>
  <use x="273.888" y="198.7" xlink:href="#p"/>
  <use x="278.336" y="198.7" xlink:href="#b"/>
  <use x="282.784" y="198.7" xlink:href="#j"/>
  <use x="290" y="198.7" xlink:href="#g"/>
  <use x="294.888" y="198.7" xlink:href="#v"/>
  <use x="301.60001" y="198.7" xlink:href="#d"/>
  <use x="306.48801" y="198.7" xlink:href="#a"/>
  <use x="309.15198" y="198.7" xlink:href="#u"/>
  <use x="314.03998" y="198.7" xlink:href="#b"/>
  <use x="318.48801" y="198.7" xlink:href="#c"/>
  <use x="323.79999" y="198.7" xlink:href="#l"/>
  <use x="328.24799" y="198.7" xlink:href="#d"/>
  <use x="333.13599" y="198.7" xlink:href="#e"/>
  <use x="340.24799" y="198.7" xlink:href="#f"/>
  <use x="345.13599" y="198.7" xlink:href="#d"/>
  <use x="350.02399" y="198.7" xlink:href="#h"/>
  <use x="354.91199" y="198.7" xlink:href="#b"/>
  <use x="359.35999" y="198.7" xlink:href="#h"/>
  <use x="364.24799" y="198.7" xlink:href="#a"/>
  <use x="366.91199" y="198.7" xlink:href="#p"/>
 </g>
</svg>
