<svg width="180" height="100" version="1.1" viewBox="0 0 180 100" xmlns="http://www.w3.org/2000/svg" xmlns:xlink="http://www.w3.org/1999/xlink">
 <defs>
  <g id="n">
   <path d="m1.7344-4.5469 1.0469 4.5469h1.1875l1.0469-4.5469v4.5469h1.1875v-5.8281h-1.7969l-1.0312 4.6406-1.0625-4.6406h-1.7812v5.8281h1.2031z"/>
  </g>
  <g id="b">
   <path d="m4.1875-1.8125c.015625-.09375.015625-.125.015625-.1875 0-.4375-.0625-.82812-.17188-1.1406-.28125-.78125-.98438-1.25-1.8594-1.25-1.2344 0-2 .89062-2 2.3438 0 1.3906.75 2.2344 1.9844 2.2344.96875 0 1.75-.54688 2-1.4062h-1.1094c-.14062.34375-.45312.54688-.85938.54688-.3125 0-.57812-.14062-.73438-.375-.09375-.15625-.14062-.35938-.15625-.76562zm-2.875-.73438c.078125-.67188.34375-.98438.84375-.98438.51562 0 .8125.34375.875.98438z"/>
  </g>
  <g id="k">
   <path d="m.48438-4.3125v4.3125h1.1094v-2.5938c0-.53125.29688-.84375.78125-.84375.375 0 .59375.21875.59375.5625v2.875h1.125v-2.5938c0-.53125.29688-.84375.76562-.84375.375 0 .60938.21875.60938.5625v2.875h1.125v-3.0625c0-.82812-.51562-1.3281-1.375-1.3281-.5625 0-.9375.1875-1.2656.64062-.20312-.40625-.64062-.64062-1.1719-.64062-.5 0-.82812.15625-1.1875.60938v-.53125z"/>
  </g>
  <g id="d">
   <path d="m2.4062-4.3906c-1.3125 0-2.125.875-2.125 2.2812 0 1.4219.8125 2.2969 2.1406 2.2969 1.3125 0 2.125-.875 2.125-2.2656 0-1.4531-.78125-2.3125-2.1406-2.3125zm.015625.90625c.60938 0 1.0156.54688 1.0156 1.3906 0 .8125-.42188 1.375-1.0156 1.375-.60938 0-1.0156-.54688-1.0156-1.3906 0-.82812.40625-1.375 1.0156-1.375z"/>
  </g>
  <g id="c">
   <path d="m.5-4.3125v4.3125h1.125v-2.2969c0-.65625.32812-.98438.98438-.98438.125 0 .20312.015625.34375.03125v-1.1406h-.125c-.51562 0-.95312.32812-1.2031.92188v-.84375z"/>
  </g>
  <g id="j">
   <path d="m3.1562-4.3125-.90625 3.1406-.95312-3.1406h-1.2188l1.6094 4.4844c0 .45312-.28125.75-.70312.75-.09375 0-.15625-.015625-.29688-.046875v.84375c.17188.03125.26562.03125.40625.03125.28125 0 .60938-.046875.79688-.14062.3125-.125.45312-.29688.64062-.8125l1.7656-5.1094z"/>
  </g>
  <g id="i">
   <path d="m1.7031-5.8281h-1.2031v5.8281h1.2031z"/>
  </g>
  <g id="e">
   <path d="m2.3906-2.7344h-2.1875v1.0781h2.1875z"/>
  </g>
  <g id="a">
   <path d="m4.1719-2.7031c-.078125-1.0625-.76562-1.6875-1.8594-1.6875-1.2969 0-2.0469.84375-2.0469 2.3125 0 1.4375.75 2.2656 2.0312 2.2656 1.0469 0 1.7812-.65625 1.875-1.6875h-1.0625c-.14062.5625-.35938.78125-.8125.78125-.5625 0-.90625-.5-.90625-1.3594 0-.40625.078125-.78125.21875-1.0469.125-.23438.375-.35938.6875-.35938.46875 0 .67188.21875.8125.78125z"/>
  </g>
  <g id="h">
   <path d="m4.1875-.14062c-.1875-.17188-.25-.3125-.25-.51562v-2.4062c0-.875-.59375-1.3281-1.7656-1.3281s-1.7812.5-1.8594 1.5h1.0938c.046875-.45312.23438-.59375.78125-.59375.4375 0 .65625.14062.65625.42188 0 .15625-.078125.26562-.20312.34375-.14062.078125-.14062.078125-.70312.17188l-.4375.078125c-.85938.14062-1.2812.57812-1.2812 1.3594 0 .76562.53125 1.2969 1.3125 1.2969.48438 0 .92188-.20312 1.3125-.625 0 .23438.03125.3125.125.4375h1.2188zm-1.3438-1.5938c0 .64062-.32812 1.0156-.89062 1.0156-.375 0-.60938-.20312-.60938-.51562 0-.34375.17188-.5.64062-.59375l.39062-.078125c.28125-.046875.34375-.0625.46875-.14062z"/>
  </g>
  <g id="g">
   <path d="m.53125-5.8281v5.8281h1.125v-2.5938c0-.5.35938-.84375.85938-.84375.25 0 .4375.078125.5625.26562.10938.14062.125.26562.125.53125v2.6406h1.125v-2.8906c0-.54688-.14062-.92188-.4375-1.1719-.25-.20312-.60938-.32812-.96875-.32812-.54688 0-.95312.21875-1.2656.6875v-2.125z"/>
  </g>
  <g id="m">
   <path d="m.60938 0h2.2812c.89062 0 1.4531-.20312 1.8594-.6875.45312-.53125.70312-1.3281.70312-2.2344s-.25-1.6875-.70312-2.2344c-.40625-.46875-.95312-.67188-1.8594-.67188h-2.2812zm1.2031-1v-3.8281h1.0781c.90625 0 1.3594.625 1.3594 1.9219 0 1.2812-.45312 1.9062-1.3594 1.9062z"/>
  </g>
  <g id="l">
   <path d="m1.8125-2.0781h1.4844c1.0781 0 1.7656-.76562 1.7656-1.9531 0-1.1562-.65625-1.7969-1.875-1.7969h-2.5781v5.8281h1.2031zm0-1v-1.75h1.1094c.64062 0 .9375.28125.9375.875s-.29688.875-.9375.875z"/>
  </g>
  <g id="f">
   <path d="m4.0469-2.9219c-.015625-.92188-.73438-1.4688-1.8906-1.4688-1.0938 0-1.7656.54688-1.7656 1.4375 0 .29688.078125.53125.23438.70312.15625.15625.28125.21875.70312.35938l1.3281.42188c.28125.078125.39062.17188.39062.34375 0 .26562-.3125.42188-.84375.42188-.29688 0-.51562-.046875-.65625-.14062-.125-.09375-.17188-.1875-.21875-.40625h-1.0938c.03125.95312.71875 1.4375 2.0312 1.4375.60938 0 1.0625-.125 1.375-.39062.32812-.25.51562-.65625.51562-1.0781 0-.5625-.28125-.92188-.84375-1.0938l-1.4219-.40625c-.3125-.09375-.39062-.15625-.39062-.32812 0-.25.26562-.40625.65625-.40625.53125 0 .79688.20312.79688.59375z"/>
  </g>
 </defs>
 <g fill="none" stroke="#000" stroke-linecap="round" stroke-miterlimit="10" stroke-width=".66667">
  <path d="m3.4338 97.165v-21.602"/>
  <path d="m3.4338 75.563h172.8"/>
  <path d="m176.23 75.563v21.602"/>
  <path d="m176.23 97.165h-172.8"/>
 </g>
 <g transform="translate(-198.17 -59.437)" fill="#00ff00">
  <use x="272.70001" y="148.10001" xlink:href="#n"/>
  <use x="279.36401" y="148.10001" xlink:href="#b"/>
  <use x="283.81201" y="148.10001" xlink:href="#k"/>
  <use x="290.92401" y="148.10001" xlink:href="#d"/>
  <use x="295.81201" y="148.10001" xlink:href="#c"/>
  <use x="298.92401" y="148.10001" xlink:href="#j"/>
 </g>
 <g fill="none" stroke="#000" stroke-linecap="round" stroke-miterlimit="10" stroke-width=".66667">
  <path d="m3.4338 57.563v-14.398"/>
  <path d="m3.4338 43.165h79.898"/>
  <path d="m83.332 43.165v14.398"/>
  <path d="m83.332 57.563h-79.898"/>
 </g>
 <g transform="translate(-198.17 -59.437)" fill="#ff6600">
  <use x="227.7" y="112.1" xlink:href="#i"/>
  <use x="229.924" y="112.1" xlink:href="#e"/>
  <use x="232.588" y="112.1" xlink:href="#a"/>
  <use x="237.036" y="112.1" xlink:href="#h"/>
  <use x="241.48399" y="112.1" xlink:href="#a"/>
  <use x="245.93201" y="112.1" xlink:href="#g"/>
  <use x="250.82001" y="112.1" xlink:href="#b"/>
 </g>
 <g fill="none" stroke="#000" stroke-linecap="round" stroke-miterlimit="10" stroke-width=".66667">
  <path d="m96.231 57.563v-14.398"/>
  <path d="m96.231 43.165h79.902"/>
  <path d="m176.23 43.165v14.398"/>
  <path d="m176.23 57.563h-79.898"/>
 </g>
 <g transform="translate(-198.17 -59.437)" fill="#ff00ff">
  <use x="318.79999" y="112.1" xlink:href="#m"/>
  <use x="324.57599" y="112.1" xlink:href="#e"/>
  <use x="327.23999" y="112.1" xlink:href="#a"/>
  <use x="331.68799" y="112.1" xlink:href="#h"/>
  <use x="336.13599" y="112.1" xlink:href="#a"/>
  <use x="340.58401" y="112.1" xlink:href="#g"/>
  <use x="345.47198" y="112.1" xlink:href="#b"/>
 </g>
 <g fill="none" stroke="#000" stroke-linecap="round" stroke-miterlimit="10" stroke-width=".66667">
  <path d="m32.231 25.165v-21.602"/>
  <path d="m32.231 3.563h115.2"/>
  <path d="m147.43 3.563v21.602"/>
  <path d="m147.43 25.165h-115.2"/>
 </g>
 <g transform="translate(-198.17 -59.437)" fill="#007fff">
  <use x="268.29999" y="76.099998" xlink:href="#l"/>
  <use x="273.63599" y="76.099998" xlink:href="#c"/>
  <use x="276.74799" y="76.099998" xlink:href="#d"/>
  <use x="281.63599" y="76.099998" xlink:href="#a"/>
  <use x="286.08401" y="76.099998" xlink:href="#b"/>
  <use x="290.53201" y="76.099998" xlink:href="#f"/>
  <use x="294.98001" y="76.099998" xlink:href="#f"/>
  <use x="299.42801" y="76.099998" xlink:href="#d"/>
  <use x="304.31601" y="76.099998" xlink:href="#c"/>
 </g>
 <g fill="none" stroke="#000" stroke-linecap="round" stroke-miterlimit="10" stroke-width=".66667">
  <path d="m41.531 35.961 1.8008 7.2031"/>
  <path d="m42.133 35.762 1.1992 7.3008"/>
  <path d="m42.731 35.665.5 7.3984"/>
  <path d="m43.332 35.665v7.3984"/>
  <path d="m43.934 35.665-.5 7.3984"/>
  <path d="m44.531 35.762-1.1992 7.3008"/>
  <path d="m45.133 35.961-1.8008 7.2031"/>
  <path d="m43.332 43.165v-18"/>
  <path d="m134.43 35.961 1.7969 7.2031"/>
  <path d="m135.03 35.762 1.1992 7.3008"/>
  <path d="m135.63 35.665.5 7.3984"/>
  <path d="m136.23 35.665v7.3984"/>
  <path d="m136.83 35.665-.5 7.3984"/>
  <path d="m137.43 35.762-1.2031 7.3008"/>
  <path d="m138.03 35.961-1.8008 7.2031"/>
  <path d="m136.23 43.165v-18"/>
  <path d="m43.332 57.563v18"/>
  <path d="m41.531 68.364 1.8008 7.1992"/>
  <path d="m42.133 68.165 1.1992 7.2969"/>
  <path d="m42.731 68.063.5 7.3984"/>
  <path d="m43.332 68.063v7.3984"/>
  <path d="m43.934 68.063-.5 7.3984"/>
  <path d="m44.531 68.165-1.1992 7.2969"/>
  <path d="m45.133 68.364-1.8008 7.1992"/>
  <path d="m136.23 57.563v18"/>
  <path d="m134.43 68.364 1.7969 7.1992"/>
  <path d="m135.03 68.165 1.1992 7.2969"/>
  <path d="m135.63 68.063.5 7.3984"/>
  <path d="m136.23 68.063v7.3984"/>
  <path d="m136.83 68.063-.5 7.3984"/>
  <path d="m137.43 68.165-1.2031 7.2969"/>
  <path d="m138.03 68.364-1.8008 7.1992"/>
 </g>
</svg>
