<svg width="140" height="132" version="1.1" viewBox="0 0 140 132" xmlns="http://www.w3.org/2000/svg" xmlns:xlink="http://www.w3.org/1999/xlink">
 <defs>
  <g id="e">
   <path d="m1.6562-4.3125h-1.125v4.3125h1.125zm0-1.5156h-1.125v1h1.125z"/>
  </g>
  <g id="a">
   <path d="m2.4062-4.2344h-.625v-1.1562h-1.125v1.1562h-.54688v.75h.54688v2.6562c0 .67188.375 1.0156 1.1094 1.0156.25 0 .4375-.03125.64062-.09375v-.78125c-.10938.015625-.17188.03125-.25.03125-.29688 0-.375-.09375-.375-.48438v-2.3438h.625z"/>
  </g>
  <g id="d">
   <path d="m.48438-4.3125v4.3125h1.1094v-2.5938c0-.53125.29688-.84375.78125-.84375.375 0 .59375.21875.59375.5625v2.875h1.125v-2.5938c0-.53125.29688-.84375.76562-.84375.375 0 .60938.21875.60938.5625v2.875h1.125v-3.0625c0-.82812-.51562-1.3281-1.375-1.3281-.5625 0-.9375.1875-1.2656.64062-.20312-.40625-.64062-.64062-1.1719-.64062-.5 0-.82812.15625-1.1875.60938v-.53125z"/>
  </g>
  <g id="o">
   <path d="m1.7188-1.1719h-1.2031v1.1719h1.2031z"/>
  </g>
  <g id="m">
   <path d="m4.1719-2.7031c-.078125-1.0625-.76562-1.6875-1.8594-1.6875-1.2969 0-2.0469.84375-2.0469 2.3125 0 1.4375.75 2.2656 2.0312 2.2656 1.0469 0 1.7812-.65625 1.875-1.6875h-1.0625c-.14062.5625-.35938.78125-.8125.78125-.5625 0-.90625-.5-.90625-1.3594 0-.40625.078125-.78125.21875-1.0469.125-.23438.375-.35938.6875-.35938.46875 0 .67188.21875.8125.78125z"/>
  </g>
  <g id="c">
   <path d="m.5-4.3125v4.3125h1.125v-2.2969c0-.65625.32812-.98438.98438-.98438.125 0 .20312.015625.34375.03125v-1.1406h-.125c-.51562 0-.95312.32812-1.2031.92188v-.84375z"/>
  </g>
  <g id="i">
   <path d="m4.1875-.14062c-.1875-.17188-.25-.3125-.25-.51562v-2.4062c0-.875-.59375-1.3281-1.7656-1.3281s-1.7812.5-1.8594 1.5h1.0938c.046875-.45312.23438-.59375.78125-.59375.4375 0 .65625.14062.65625.42188 0 .15625-.078125.26562-.20312.34375-.14062.078125-.14062.078125-.70312.17188l-.4375.078125c-.85938.14062-1.2812.57812-1.2812 1.3594 0 .76562.53125 1.2969 1.3125 1.2969.48438 0 .92188-.20312 1.3125-.625 0 .23438.03125.3125.125.4375h1.2188zm-1.3438-1.5938c0 .64062-.32812 1.0156-.89062 1.0156-.375 0-.60938-.20312-.60938-.51562 0-.34375.17188-.5.64062-.59375l.39062-.078125c.28125-.046875.34375-.0625.46875-.14062z"/>
  </g>
  <g id="h">
   <path d="m3.2344 0h1.125v-5.8281h-1.125v2.0625c-.28125-.42188-.64062-.625-1.1875-.625-1.0312 0-1.8125.98438-1.8125 2.2969 0 .57812.17188 1.1719.46875 1.5938.28125.42188.8125.6875 1.3438.6875.54688 0 .90625-.20312 1.1875-.625zm-.9375-3.4531c.5625 0 .9375.54688.9375 1.375 0 .78125-.375 1.3281-.9375 1.3281s-.9375-.54688-.9375-1.3438c0-.8125.375-1.3594.9375-1.3594z"/>
  </g>
  <g id="l">
   <path d="m4.1875-1.8125c.015625-.09375.015625-.125.015625-.1875 0-.4375-.0625-.82812-.17188-1.1406-.28125-.78125-.98438-1.25-1.8594-1.25-1.2344 0-2 .89062-2 2.3438 0 1.3906.75 2.2344 1.9844 2.2344.96875 0 1.75-.54688 2-1.4062h-1.1094c-.14062.34375-.45312.54688-.85938.54688-.3125 0-.57812-.14062-.73438-.375-.09375-.15625-.14062-.35938-.15625-.76562zm-2.875-.73438c.078125-.67188.34375-.98438.84375-.98438.51562 0 .8125.34375.875.98438z"/>
  </g>
  <g id="f">
   <path d="m.5-4.3125v4.3125h1.125v-2.5938c0-.51562.34375-.84375.90625-.84375.48438 0 .71875.26562.71875.78125v2.6562h1.125v-2.8906c0-.96875-.53125-1.5-1.4531-1.5-.57812 0-.98438.20312-1.2969.6875v-.60938z"/>
  </g>
  <g id="k">
   <path d="m4.0469-2.9219c-.015625-.92188-.73438-1.4688-1.8906-1.4688-1.0938 0-1.7656.54688-1.7656 1.4375 0 .29688.078125.53125.23438.70312.15625.15625.28125.21875.70312.35938l1.3281.42188c.28125.078125.39062.17188.39062.34375 0 .26562-.3125.42188-.84375.42188-.29688 0-.51562-.046875-.65625-.14062-.125-.09375-.17188-.1875-.21875-.40625h-1.0938c.03125.95312.71875 1.4375 2.0312 1.4375.60938 0 1.0625-.125 1.375-.39062.32812-.25.51562-.65625.51562-1.0781 0-.5625-.28125-.92188-.84375-1.0938l-1.4219-.40625c-.3125-.09375-.39062-.15625-.39062-.32812 0-.25.26562-.40625.65625-.40625.53125 0 .79688.20312.79688.59375z"/>
  </g>
  <g id="g">
   <path d="m4.3281 0v-4.3125h-1.125v2.7031c0 .5-.34375.84375-.90625.84375-.46875 0-.71875-.26562-.71875-.78125v-2.7656h-1.1094v3c0 .95312.51562 1.5 1.4375 1.5.59375 0 .98438-.21875 1.2969-.70312v.51562z"/>
  </g>
  <g id="b">
   <path d="m2.4062-4.3906c-1.3125 0-2.125.875-2.125 2.2812 0 1.4219.8125 2.2969 2.1406 2.2969 1.3125 0 2.125-.875 2.125-2.2656 0-1.4531-.78125-2.3125-2.1406-2.3125zm.015625.90625c.60938 0 1.0156.54688 1.0156 1.3906 0 .8125-.42188 1.375-1.0156 1.375-.60938 0-1.0156-.54688-1.0156-1.3906 0-.82812.40625-1.375 1.0156-1.375z"/>
  </g>
  <g id="j">
   <path d="m3.1562-4.3125-.90625 3.1406-.95312-3.1406h-1.2188l1.6094 4.4844c0 .45312-.28125.75-.70312.75-.09375 0-.15625-.015625-.29688-.046875v.84375c.17188.03125.26562.03125.40625.03125.28125 0 .60938-.046875.79688-.14062.3125-.125.45312-.29688.64062-.8125l1.7656-5.1094z"/>
  </g>
  <g id="n">
   <path d="m2.5-4.2344h-.65625v-.42188c0-.21875.09375-.32812.29688-.32812.10938 0 .21875 0 .32812.015625v-.84375c-.25-.015625-.48438-.015625-.64062-.015625-.75 0-1.1094.34375-1.1094 1.0781v.51562h-.60938v.75h.60938v3.4844h1.125v-3.4844h.65625z"/>
  </g>
 </defs>
 <g fill="none" stroke="#000" stroke-linecap="round" stroke-miterlimit="10">
  <path d="m4.8839 4.5349c0-.054687-.046875-.10156-.10156-.10156-.054687 0-.097656.046875-.097656.10156 0 .054688.042969.097656.097656.097656s.10156-.042969.10156-.097656" stroke-width=".66667"/>
  <path d="m6.1847 4.5349c0-.77344-.62891-1.4023-1.4023-1.4023-.76953 0-1.3984.62891-1.3984 1.4023 0 .77344.62891 1.3984 1.3984 1.3984.77344 0 1.4023-.625 1.4023-1.3984"/>
  <g stroke-width=".66667">
   <path d="m4.7823 4.5349v64.801"/>
   <path d="m4.7823 69.336h16.5"/>
   <path d="m14.185 71.133 7.1992-1.7969"/>
   <path d="m14.083 70.535 7.3008-1.1992"/>
   <path d="m13.985 69.836 7.3984-.5"/>
   <path d="m13.985 69.336h7.3984"/>
   <path d="m13.985 68.734 7.3984.5"/>
   <path d="m14.083 68.035 7.3008 1.1992"/>
   <path d="m14.185 67.535 7.1992 1.8008"/>
   <path d="m21.384 128.73v-79.199"/>
   <path d="m21.384 49.535h43.199"/>
   <path d="m64.583 49.535v79.199"/>
   <path d="m64.583 128.73h-43.199"/>
  </g>
 </g>
 <g transform="translate(-236.12 -123.27)" fill="#ff6600">
  <use x="258.5" y="160.5" xlink:href="#e"/>
  <use x="260.724" y="160.5" xlink:href="#f"/>
  <use x="265.612" y="160.5" xlink:href="#k"/>
  <use x="270.06" y="160.5" xlink:href="#a"/>
  <use x="272.724" y="160.5" xlink:href="#c"/>
  <use x="275.836" y="160.5" xlink:href="#g"/>
  <use x="280.724" y="160.5" xlink:href="#m"/>
  <use x="285.172" y="160.5" xlink:href="#a"/>
  <use x="287.836" y="160.5" xlink:href="#e"/>
  <use x="290.06" y="160.5" xlink:href="#b"/>
  <use x="294.948" y="160.5" xlink:href="#f"/>
  <use x="263.5" y="169.5" xlink:href="#d"/>
  <use x="270.612" y="169.5" xlink:href="#l"/>
  <use x="275.06" y="169.5" xlink:href="#d"/>
  <use x="282.172" y="169.5" xlink:href="#b"/>
  <use x="287.06" y="169.5" xlink:href="#c"/>
  <use x="290.172" y="169.5" xlink:href="#j"/>
 </g>
 <g fill="none" stroke="#000" stroke-linecap="round" stroke-miterlimit="10" stroke-width=".66667">
  <path d="m64.583 89.133h18"/>
  <path d="m75.384 90.933 7.1992-1.8008"/>
  <path d="m75.282 90.336 7.3008-1.2031"/>
  <path d="m75.185 89.633 7.3984-.5"/>
  <path d="m75.185 89.133h7.3984"/>
  <path d="m75.185 88.535 7.3984.5"/>
  <path d="m75.282 87.836 7.3008 1.1992"/>
  <path d="m75.384 87.336 7.1992 1.7969"/>
 </g>
 <g>
  <g transform="translate(-236.12 -123.27)" fill="#ff00ff">
   <use x="261.10001" y="189.7" xlink:href="#i"/>
   <use x="265.548" y="189.7" xlink:href="#h"/>
   <use x="270.436" y="189.7" xlink:href="#h"/>
   <use x="275.32401" y="189.7" xlink:href="#c"/>
   <use x="278.436" y="189.7" xlink:href="#o"/>
   <use x="261.10001" y="198.7" xlink:href="#e"/>
   <use x="263.32401" y="198.7" xlink:href="#f"/>
  </g>
  <g transform="translate(-236.12 -123.27)" fill="#007fff">
   <use x="280.60001" y="209.5" xlink:href="#h"/>
   <use x="285.48801" y="209.5" xlink:href="#i"/>
   <use x="289.936" y="209.5" xlink:href="#a"/>
   <use x="292.60001" y="209.5" xlink:href="#i"/>
   <use x="284.70001" y="218.5" xlink:href="#b"/>
   <use x="289.58801" y="218.5" xlink:href="#g"/>
   <use x="294.47601" y="218.5" xlink:href="#a"/>
  </g>
  <g transform="translate(-236.12 -123.27)" fill="#ffcc00">
   <use x="322.29999" y="209.5" xlink:href="#e"/>
   <use x="324.52399" y="209.5" xlink:href="#f"/>
   <use x="329.41199" y="209.5" xlink:href="#k"/>
   <use x="333.85999" y="209.5" xlink:href="#a"/>
   <use x="336.52399" y="209.5" xlink:href="#c"/>
   <use x="339.63599" y="209.5" xlink:href="#g"/>
   <use x="344.52399" y="209.5" xlink:href="#m"/>
   <use x="348.97198" y="209.5" xlink:href="#a"/>
   <use x="351.63599" y="209.5" xlink:href="#e"/>
   <use x="353.85999" y="209.5" xlink:href="#b"/>
   <use x="358.74799" y="209.5" xlink:href="#f"/>
   <use x="322.29999" y="218.5" xlink:href="#n"/>
   <use x="324.96399" y="218.5" xlink:href="#c"/>
   <use x="328.07599" y="218.5" xlink:href="#b"/>
   <use x="332.96399" y="218.5" xlink:href="#d"/>
   <use x="342.20001" y="218.5" xlink:href="#d"/>
   <use x="349.31201" y="218.5" xlink:href="#l"/>
   <use x="353.76001" y="218.5" xlink:href="#d"/>
   <use x="360.87201" y="218.5" xlink:href="#b"/>
   <use x="365.76001" y="218.5" xlink:href="#c"/>
   <use x="368.87201" y="218.5" xlink:href="#j"/>
  </g>
 </g>
</svg>
