<svg width="250" height="200" version="1.1" viewBox="0 0 250 200" xmlns="http://www.w3.org/2000/svg" xmlns:xlink="http://www.w3.org/1999/xlink">
 <defs>
  <g id="f">
   <path d="m1.6562-4.3125h-1.125v4.3125h1.125zm0-1.5156h-1.125v1h1.125z"/>
  </g>
  <g id="d">
   <path d="m0.5-4.3125v4.3125h1.125v-2.5938c0-0.51562 0.34375-0.84375 0.90625-0.84375 0.48438 0 0.71875 0.26562 0.71875 0.78125v2.6562h1.125v-2.8906c0-0.96875-0.53125-1.5-1.4531-1.5-0.57812 0-0.98438 0.20312-1.2969 0.6875v-0.60938z"/>
  </g>
  <g id="n">
   <path d="m2.4062-4.2344h-0.625v-1.1562h-1.125v1.1562h-0.54688v0.75h0.54688v2.6562c0 0.67188 0.375 1.0156 1.1094 1.0156 0.25 0 0.4375-0.03125 0.64062-0.09375v-0.78125c-0.10938 0.015625-0.17188 0.03125-0.25 0.03125-0.29688 0-0.375-0.09375-0.375-0.48438v-2.3438h0.625z"/>
  </g>
  <g id="a">
   <path d="m4.1875-1.8125c0.015625-0.09375 0.015625-0.125 0.015625-0.1875 0-0.4375-0.0625-0.82812-0.17188-1.1406-0.28125-0.78125-0.98438-1.25-1.8594-1.25-1.2344 0-2 0.89062-2 2.3438 0 1.3906 0.75 2.2344 1.9844 2.2344 0.96875 0 1.75-0.54688 2-1.4062h-1.1094c-0.14062 0.34375-0.45312 0.54688-0.85938 0.54688-0.3125 0-0.57812-0.14062-0.73438-0.375-0.09375-0.15625-0.14062-0.35938-0.15625-0.76562zm-2.875-0.73438c0.078125-0.67188 0.34375-0.98438 0.84375-0.98438 0.51562 0 0.8125 0.34375 0.875 0.98438z"/>
  </g>
  <g id="b">
   <path d="m0.5-4.3125v4.3125h1.125v-2.2969c0-0.65625 0.32812-0.98438 0.98438-0.98438 0.125 0 0.20312 0.015625 0.34375 0.03125v-1.1406h-0.125c-0.51562 0-0.95312 0.32812-1.2031 0.92188v-0.84375z"/>
  </g>
  <g id="u">
   <path d="m4.3281 0v-4.3125h-1.125v2.7031c0 0.5-0.34375 0.84375-0.90625 0.84375-0.46875 0-0.71875-0.26562-0.71875-0.78125v-2.7656h-1.1094v3c0 0.95312 0.51562 1.5 1.4375 1.5 0.59375 0 0.98438-0.21875 1.2969-0.70312v0.51562z"/>
  </g>
  <g id="t">
   <path d="m1.5781-4.3125h-1.1094v6.0625h1.1094v-2.2656c0.28125 0.48438 0.65625 0.70312 1.2031 0.70312 1.0469 0 1.8125-0.96875 1.8125-2.2812 0-0.60938-0.17188-1.2188-0.46875-1.625-0.28125-0.40625-0.82812-0.67188-1.3438-0.67188-0.54688 0-0.92188 0.23438-1.2031 0.70312zm0.95312 0.85938c0.5625 0 0.9375 0.54688 0.9375 1.375 0 0.79688-0.375 1.3281-0.9375 1.3281-0.57812 0-0.95312-0.53125-0.95312-1.3438s0.375-1.3594 0.95312-1.3594z"/>
  </g>
  <g id="h">
   <path d="m2.7969 0 1.4844-4.3125h-1.1719l-0.875 3.1562-0.9375-3.1562h-1.1875l1.5156 4.3125z"/>
  </g>
  <g id="g">
   <path d="m4.1719-2.7031c-0.078125-1.0625-0.76562-1.6875-1.8594-1.6875-1.2969 0-2.0469 0.84375-2.0469 2.3125 0 1.4375 0.75 2.2656 2.0312 2.2656 1.0469 0 1.7812-0.65625 1.875-1.6875h-1.0625c-0.14062 0.5625-0.35938 0.78125-0.8125 0.78125-0.5625 0-0.90625-0.5-0.90625-1.3594 0-0.40625 0.078125-0.78125 0.21875-1.0469 0.125-0.23438 0.375-0.35938 0.6875-0.35938 0.46875 0 0.67188 0.21875 0.8125 0.78125z"/>
  </g>
  <g id="e">
   <path d="m2.4062-4.3906c-1.3125 0-2.125 0.875-2.125 2.2812 0 1.4219 0.8125 2.2969 2.1406 2.2969 1.3125 0 2.125-0.875 2.125-2.2656 0-1.4531-0.78125-2.3125-2.1406-2.3125zm0.015625 0.90625c0.60938 0 1.0156 0.54688 1.0156 1.3906 0 0.8125-0.42188 1.375-1.0156 1.375-0.60938 0-1.0156-0.54688-1.0156-1.3906 0-0.82812 0.40625-1.375 1.0156-1.375z"/>
  </g>
  <g id="w">
   <path d="m4.0469-2.9219c-0.015625-0.92188-0.73438-1.4688-1.8906-1.4688-1.0938 0-1.7656 0.54688-1.7656 1.4375 0 0.29688 0.078125 0.53125 0.23438 0.70312 0.15625 0.15625 0.28125 0.21875 0.70312 0.35938l1.3281 0.42188c0.28125 0.078125 0.39062 0.17188 0.39062 0.34375 0 0.26562-0.3125 0.42188-0.84375 0.42188-0.29688 0-0.51562-0.046875-0.65625-0.14062-0.125-0.09375-0.17188-0.1875-0.21875-0.40625h-1.0938c0.03125 0.95312 0.71875 1.4375 2.0312 1.4375 0.60938 0 1.0625-0.125 1.375-0.39062 0.32812-0.25 0.51562-0.65625 0.51562-1.0781 0-0.5625-0.28125-0.92188-0.84375-1.0938l-1.4219-0.40625c-0.3125-0.09375-0.39062-0.15625-0.39062-0.32812 0-0.25 0.26562-0.40625 0.65625-0.40625 0.53125 0 0.79688 0.20312 0.79688 0.59375z"/>
  </g>
  <g id="s">
   <path d="m0.48438-4.3125v4.3125h1.1094v-2.5938c0-0.53125 0.29688-0.84375 0.78125-0.84375 0.375 0 0.59375 0.21875 0.59375 0.5625v2.875h1.125v-2.5938c0-0.53125 0.29688-0.84375 0.76562-0.84375 0.375 0 0.60938 0.21875 0.60938 0.5625v2.875h1.125v-3.0625c0-0.82812-0.51562-1.3281-1.375-1.3281-0.5625 0-0.9375 0.1875-1.2656 0.64062-0.20312-0.40625-0.64062-0.64062-1.1719-0.64062-0.5 0-0.82812 0.15625-1.1875 0.60938v-0.53125z"/>
  </g>
  <g id="v">
   <path d="m3.1562-4.3125-0.90625 3.1406-0.95312-3.1406h-1.2188l1.6094 4.4844c0 0.45312-0.28125 0.75-0.70312 0.75-0.09375 0-0.15625-0.015625-0.29688-0.046875v0.84375c0.17188 0.03125 0.26562 0.03125 0.40625 0.03125 0.28125 0 0.60938-0.046875 0.79688-0.14062 0.3125-0.125 0.45312-0.29688 0.64062-0.8125l1.7656-5.1094z"/>
  </g>
  <g id="r">
   <path d="m2.1875-5.7969c-0.60938 0-1.125 0.26562-1.4688 0.73438-0.32812 0.4375-0.48438 1.1562-0.48438 2.2656 0 1 0.125 1.7031 0.39062 2.1406 0.34375 0.54688 0.89062 0.84375 1.5625 0.84375 0.60938 0 1.1094-0.25 1.4688-0.71875 0.3125-0.4375 0.48438-1.1719 0.48438-2.2344 0-1.0469-0.125-1.75-0.40625-2.1875-0.32812-0.54688-0.89062-0.84375-1.5469-0.84375zm0 0.90625c0.28125 0 0.51562 0.15625 0.65625 0.45312 0.10938 0.25 0.17188 0.85938 0.17188 1.6406 0 0.64062-0.0625 1.2656-0.14062 1.5-0.125 0.34375-0.375 0.51562-0.6875 0.51562-0.29688 0-0.53125-0.14062-0.65625-0.4375-0.10938-0.23438-0.17188-0.82812-0.17188-1.5938 0-0.67188 0.046875-1.3125 0.14062-1.5469 0.10938-0.34375 0.35938-0.53125 0.6875-0.53125z"/>
  </g>
  <g id="q">
   <path d="m1.9062-3.9062v3.9062h1.125v-5.6719h-0.75c-0.17188 0.67188-0.76562 1.0156-1.7344 1.0156v0.75z"/>
  </g>
  <g id="p">
   <path d="m4.0938-1h-2.4062c0.15625-0.29688 0.32812-0.46875 1.1562-1.0781 0.98438-0.71875 1.2812-1.1406 1.2812-1.9062 0-1.1094-0.76562-1.8125-1.9531-1.8125-1.1719 0-1.8594 0.70312-1.8594 1.9062v0.1875h1.0781v-0.17188c0-0.64062 0.29688-1 0.8125-1 0.5 0 0.79688 0.34375 0.79688 0.90625 0 0.625-0.1875 0.85938-1.4531 1.7656-0.96875 0.65625-1.2656 1.1406-1.3125 2.2031h3.8594z"/>
  </g>
  <g id="o">
   <path d="m1.7344-2.5312c0.4375 0 0.45312 0 0.65625 0.046875 0.375 0.10938 0.625 0.4375 0.625 0.85938 0 0.5-0.35938 0.84375-0.84375 0.84375-0.53125 0-0.8125-0.29688-0.85938-0.875h-1.0781c0 1.125 0.73438 1.8438 1.9062 1.8438 1.2188 0 1.9844-0.71875 1.9844-1.8125 0-0.67188-0.28125-1.1094-0.92188-1.4219 0.51562-0.32812 0.73438-0.6875 0.73438-1.2031 0-0.9375-0.70312-1.5469-1.7969-1.5469-0.82812 0-1.4531 0.35938-1.7031 0.98438-0.09375 0.26562-0.14062 0.45312-0.14062 0.92188h1.0469c0.015625-0.29688 0.03125-0.45312 0.09375-0.59375 0.09375-0.25 0.35938-0.40625 0.6875-0.40625 0.4375 0 0.70312 0.28125 0.70312 0.75 0 0.57812-0.32812 0.85938-1 0.85938h-0.09375z"/>
  </g>
  <g id="l">
   <path d="m0.53125-5.8281v5.8281h1.125v-2.5938c0-0.5 0.35938-0.84375 0.85938-0.84375 0.25 0 0.4375 0.078125 0.5625 0.26562 0.10938 0.14062 0.125 0.26562 0.125 0.53125v2.6406h1.125v-2.8906c0-0.54688-0.14062-0.92188-0.4375-1.1719-0.25-0.20312-0.60938-0.32812-0.96875-0.32812-0.54688 0-0.95312 0.21875-1.2656 0.6875v-2.125z"/>
  </g>
  <g id="k">
   <path d="m4.1875-0.14062c-0.1875-0.17188-0.25-0.3125-0.25-0.51562v-2.4062c0-0.875-0.59375-1.3281-1.7656-1.3281s-1.7812 0.5-1.8594 1.5h1.0938c0.046875-0.45312 0.23438-0.59375 0.78125-0.59375 0.4375 0 0.65625 0.14062 0.65625 0.42188 0 0.15625-0.078125 0.26562-0.20312 0.34375-0.14062 0.078125-0.14062 0.078125-0.70312 0.17188l-0.4375 0.078125c-0.85938 0.14062-1.2812 0.57812-1.2812 1.3594 0 0.76562 0.53125 1.2969 1.3125 1.2969 0.48438 0 0.92188-0.20312 1.3125-0.625 0 0.23438 0.03125 0.3125 0.125 0.4375h1.2188zm-1.3438-1.5938c0 0.64062-0.32812 1.0156-0.89062 1.0156-0.375 0-0.60938-0.20312-0.60938-0.51562 0-0.34375 0.17188-0.5 0.64062-0.59375l0.39062-0.078125c0.28125-0.046875 0.34375-0.0625 0.46875-0.14062z"/>
  </g>
  <g id="c">
   <path d="m3.2344 0h1.125v-5.8281h-1.125v2.0625c-0.28125-0.42188-0.64062-0.625-1.1875-0.625-1.0312 0-1.8125 0.98438-1.8125 2.2969 0 0.57812 0.17188 1.1719 0.46875 1.5938 0.28125 0.42188 0.8125 0.6875 1.3438 0.6875 0.54688 0 0.90625-0.20312 1.1875-0.625zm-0.9375-3.4531c0.5625 0 0.9375 0.54688 0.9375 1.375 0 0.78125-0.375 1.3281-0.9375 1.3281s-0.9375-0.54688-0.9375-1.3438c0-0.8125 0.375-1.3594 0.9375-1.3594z"/>
  </g>
  <g id="j">
   <path d="m1.6562-5.8281h-1.125v5.8281h1.125z"/>
  </g>
  <g id="i">
   <path d="m2.5-4.2344h-0.65625v-0.42188c0-0.21875 0.09375-0.32812 0.29688-0.32812 0.10938 0 0.21875 0 0.32812 0.015625v-0.84375c-0.25-0.015625-0.48438-0.015625-0.64062-0.015625-0.75 0-1.1094 0.34375-1.1094 1.0781v0.51562h-0.60938v0.75h0.60938v3.4844h1.125v-3.4844h0.65625z"/>
  </g>
  <g id="m">
   <path d="m2.1406-1.4531h-1.5v1.4531h1.5z"/>
  </g>
 </defs>
 <path d="m19.465 33.609v108" fill="none" stroke="#000000" stroke-linecap="round" stroke-miterlimit="10"/>
 <path d="m19.465 141.61h61.203" fill="none" stroke="#000000" stroke-linecap="round" stroke-miterlimit="10"/>
 <path d="m80.668 141.61v-108" fill="none" stroke="#000000" stroke-linecap="round" stroke-miterlimit="10"/>
 <g transform="translate(-156.93 -49.79)" fill="#241c1c">
  <use x="175.2" y="67.699997" xlink:href="#f"/>
  <use x="177.424" y="67.699997" xlink:href="#d"/>
  <use x="182.312" y="67.699997" xlink:href="#n"/>
  <use x="184.976" y="67.699997" xlink:href="#a"/>
  <use x="189.424" y="67.699997" xlink:href="#b"/>
  <use x="192.536" y="67.699997" xlink:href="#b"/>
  <use x="195.64799" y="67.699997" xlink:href="#u"/>
  <use x="200.536" y="67.699997" xlink:href="#t"/>
  <use x="205.424" y="67.699997" xlink:href="#n"/>
  <use x="210.20001" y="67.699997" xlink:href="#h"/>
  <use x="214.64801" y="67.699997" xlink:href="#a"/>
  <use x="219.09601" y="67.699997" xlink:href="#g"/>
  <use x="223.54401" y="67.699997" xlink:href="#n"/>
  <use x="226.20801" y="67.699997" xlink:href="#e"/>
  <use x="231.09601" y="67.699997" xlink:href="#b"/>
  <use x="234.20801" y="67.699997" xlink:href="#w"/>
  <use x="186.8" y="78.5" xlink:href="#f"/>
  <use x="189.024" y="78.5" xlink:href="#d"/>
  <use x="196.10001" y="78.5" xlink:href="#s"/>
  <use x="203.21201" y="78.5" xlink:href="#a"/>
  <use x="207.66" y="78.5" xlink:href="#s"/>
  <use x="214.772" y="78.5" xlink:href="#e"/>
  <use x="219.66" y="78.5" xlink:href="#b"/>
  <use x="222.772" y="78.5" xlink:href="#v"/>
 </g>
 <path d="m19.465 141.61v-19.598" fill="none" stroke="#000000" stroke-linecap="round" stroke-miterlimit="10"/>
 <path d="m19.465 122.01h61.203" fill="none" stroke="#000000" stroke-linecap="round" stroke-miterlimit="10"/>
 <path d="m80.668 122.01v19.598" fill="none" stroke="#000000" stroke-linecap="round" stroke-miterlimit="10"/>
 <path d="m80.668 141.61h-61.203" fill="none" stroke="#000000" stroke-linecap="round" stroke-miterlimit="10"/>
 <g transform="translate(-156.93 -49.79)" fill="#ff6600">
  <use x="166.8" y="185.8" fill="#ff6600" xlink:href="#r"/>
 </g>
 <path d="m19.465 122.01v-19.602" fill="none" stroke="#000000" stroke-linecap="round" stroke-miterlimit="10"/>
 <path d="m19.465 102.41h61.203" fill="none" stroke="#000000" stroke-linecap="round" stroke-miterlimit="10"/>
 <path d="m80.668 102.41v19.602" fill="none" stroke="#000000" stroke-linecap="round" stroke-miterlimit="10"/>
 <path d="m80.668 122.01h-61.203" fill="none" stroke="#000000" stroke-linecap="round" stroke-miterlimit="10"/>
 <g transform="translate(-156.93 -49.79)" fill="#ff6600">
  <use x="166.8" y="166.2" fill="#ff6600" xlink:href="#q"/>
 </g>
 <path d="m19.465 102.41v-19.598" fill="none" stroke="#000000" stroke-linecap="round" stroke-miterlimit="10"/>
 <path d="m19.465 82.71h61.203" fill="none" stroke="#000000" stroke-linecap="round" stroke-miterlimit="10"/>
 <path d="m80.668 82.71v19.602" fill="none" stroke="#000000" stroke-linecap="round" stroke-miterlimit="10"/>
 <path d="m80.668 102.41h-61.203" fill="none" stroke="#000000" stroke-linecap="round" stroke-miterlimit="10"/>
 <g transform="translate(-156.93 -49.79)" fill="#ff6600">
  <use x="166.8" y="146.60001" fill="#ff6600" xlink:href="#p"/>
 </g>
 <path d="m19.465 82.71v-19.602" fill="none" stroke="#000000" stroke-linecap="round" stroke-miterlimit="10"/>
 <path d="m19.465 63.109h61.203" fill="none" stroke="#000000" stroke-linecap="round" stroke-miterlimit="10"/>
 <path d="m80.668 63.109v19.602" fill="none" stroke="#000000" stroke-linecap="round" stroke-miterlimit="10"/>
 <path d="m80.668 82.71h-61.203" fill="none" stroke="#000000" stroke-linecap="round" stroke-miterlimit="10"/>
 <g transform="translate(-156.93 -49.79)" fill="#ff6600">
  <use x="166.8" y="126.9" fill="#ff6600" xlink:href="#o"/>
 </g>
 <g transform="translate(-156.93 -49.79)" fill="#241c1c">
  <use x="205.60001" y="100.2" xlink:href="#m"/>
  <use x="205.60001" y="95.099998" xlink:href="#m"/>
  <use x="205.60001" y="105.2" xlink:href="#m"/>
 </g>
 <path d="m50.066 131.81c0-0.0547-0.0469-0.10156-0.10156-0.10156-0.0547 0-0.0977 0.0469-0.0977 0.10156 0 0.0547 0.043 0.0977 0.0977 0.0977s0.10156-0.043 0.10156-0.0977" fill="none" stroke="#000000" stroke-linecap="round" stroke-miterlimit="10"/>
 <path d="m51.367 131.81c0-0.77344-0.62891-1.4023-1.4023-1.4023-0.76953 0-1.3984 0.6289-1.3984 1.4023 0 0.76953 0.62891 1.3984 1.3984 1.3984 0.77343 0 1.4023-0.62891 1.4023-1.3984" fill="none" stroke="#000000" stroke-linecap="round" stroke-miterlimit="10"/>
 <path d="m50.066 112.11c0-0.0547-0.0469-0.0977-0.10156-0.0977-0.0547 0-0.0977 0.043-0.0977 0.0977s0.043 0.10156 0.0977 0.10156 0.10156-0.0469 0.10156-0.10156" fill="none" stroke="#000000" stroke-linecap="round" stroke-miterlimit="10"/>
 <path d="m51.367 112.11c0-0.76953-0.62891-1.3984-1.4023-1.3984-0.76953 0-1.3984 0.62891-1.3984 1.3984 0 0.77343 0.62891 1.4023 1.3984 1.4023 0.77343 0 1.4023-0.62891 1.4023-1.4023" fill="none" stroke="#000000" stroke-linecap="round" stroke-miterlimit="10"/>
 <path d="m50.066 92.609c0-0.0547-0.0469-0.0977-0.10156-0.0977-0.0547 0-0.0977 0.043-0.0977 0.0977s0.043 0.10156 0.0977 0.10156 0.10156-0.0469 0.10156-0.10156" fill="none" stroke="#000000" stroke-linecap="round" stroke-miterlimit="10"/>
 <path d="m51.367 92.609c0-0.76953-0.62891-1.3984-1.4023-1.3984-0.76953 0-1.3984 0.62891-1.3984 1.3984 0 0.77343 0.62891 1.4023 1.3984 1.4023 0.77343 0 1.4023-0.62891 1.4023-1.4023" fill="none" stroke="#000000" stroke-linecap="round" stroke-miterlimit="10"/>
 <path d="m50.066 72.909c0-0.0547-0.0469-0.0977-0.10156-0.0977-0.0547 0-0.0977 0.043-0.0977 0.0977s0.043 0.10156 0.0977 0.10156 0.10156-0.0469 0.10156-0.10156" fill="none" stroke="#000000" stroke-linecap="round" stroke-miterlimit="10"/>
 <path d="m51.367 72.909c0-0.77344-0.62891-1.3984-1.4023-1.3984-0.76953 0-1.3984 0.625-1.3984 1.3984s0.62891 1.4023 1.3984 1.4023c0.77343 0 1.4023-0.6289 1.4023-1.4023" fill="none" stroke="#000000" stroke-linecap="round" stroke-miterlimit="10"/>
 <path d="m170.67 97.011v-36" fill="none" stroke="#000000" stroke-linecap="round" stroke-miterlimit="10"/>
 <path d="m170.67 61.011h72" fill="none" stroke="#000000" stroke-linecap="round" stroke-miterlimit="10"/>
 <path d="m242.67 61.011v36" fill="none" stroke="#000000" stroke-linecap="round" stroke-miterlimit="10"/>
 <path d="m242.67 97.011h-72" fill="none" stroke="#000000" stroke-linecap="round" stroke-miterlimit="10"/>
 <g transform="translate(-156.93 -49.79)" fill="#ff6600">
  <use x="342.70001" y="126.8" xlink:href="#l"/>
  <use x="347.58801" y="126.8" xlink:href="#k"/>
  <use x="352.03601" y="126.8" xlink:href="#d"/>
  <use x="356.92401" y="126.8" xlink:href="#c"/>
  <use x="361.81201" y="126.8" xlink:href="#j"/>
  <use x="364.03601" y="126.8" xlink:href="#a"/>
  <use x="368.48401" y="126.8" xlink:href="#b"/>
  <use x="373.89999" y="126.8" xlink:href="#i"/>
  <use x="376.564" y="126.8" xlink:href="#e"/>
  <use x="381.452" y="126.8" xlink:href="#b"/>
  <use x="347.70001" y="136.8" xlink:href="#c"/>
  <use x="352.58801" y="136.8" xlink:href="#a"/>
  <use x="357.03601" y="136.8" xlink:href="#h"/>
  <use x="361.48401" y="136.8" xlink:href="#f"/>
  <use x="363.70801" y="136.8" xlink:href="#g"/>
  <use x="368.15601" y="136.8" xlink:href="#a"/>
  <use x="375" y="136.8" xlink:href="#p"/>
 </g>
 <path d="m170.67 50.21v-36" fill="none" stroke="#000000" stroke-linecap="round" stroke-miterlimit="10"/>
 <path d="m170.67 14.21h72" fill="none" stroke="#000000" stroke-linecap="round" stroke-miterlimit="10"/>
 <path d="m242.67 14.21v36" fill="none" stroke="#000000" stroke-linecap="round" stroke-miterlimit="10"/>
 <path d="m242.67 50.21h-72" fill="none" stroke="#000000" stroke-linecap="round" stroke-miterlimit="10"/>
 <g transform="translate(-156.93 -49.79)" fill="#ff6600">
  <use x="342.70001" y="80" xlink:href="#l"/>
  <use x="347.58801" y="80" xlink:href="#k"/>
  <use x="352.03601" y="80" xlink:href="#d"/>
  <use x="356.92401" y="80" xlink:href="#c"/>
  <use x="361.81201" y="80" xlink:href="#j"/>
  <use x="364.03601" y="80" xlink:href="#a"/>
  <use x="368.48401" y="80" xlink:href="#b"/>
  <use x="373.89999" y="80" xlink:href="#i"/>
  <use x="376.564" y="80" xlink:href="#e"/>
  <use x="381.452" y="80" xlink:href="#b"/>
  <use x="347.70001" y="90" xlink:href="#c"/>
  <use x="352.58801" y="90" xlink:href="#a"/>
  <use x="357.03601" y="90" xlink:href="#h"/>
  <use x="361.48401" y="90" xlink:href="#f"/>
  <use x="363.70801" y="90" xlink:href="#g"/>
  <use x="368.15601" y="90" xlink:href="#a"/>
  <use x="375" y="90" xlink:href="#o"/>
 </g>
 <path d="m170.67 143.81v-36" fill="none" stroke="#000000" stroke-linecap="round" stroke-miterlimit="10"/>
 <path d="m170.67 107.81h72" fill="none" stroke="#000000" stroke-linecap="round" stroke-miterlimit="10"/>
 <path d="m242.67 107.81v36" fill="none" stroke="#000000" stroke-linecap="round" stroke-miterlimit="10"/>
 <path d="m242.67 143.81h-72" fill="none" stroke="#000000" stroke-linecap="round" stroke-miterlimit="10"/>
 <g transform="translate(-156.93 -49.79)" fill="#ff6600">
  <use x="342.70001" y="173.60001" xlink:href="#l"/>
  <use x="347.58801" y="173.60001" xlink:href="#k"/>
  <use x="352.03601" y="173.60001" xlink:href="#d"/>
  <use x="356.92401" y="173.60001" xlink:href="#c"/>
  <use x="361.81201" y="173.60001" xlink:href="#j"/>
  <use x="364.03601" y="173.60001" xlink:href="#a"/>
  <use x="368.48401" y="173.60001" xlink:href="#b"/>
  <use x="373.89999" y="173.60001" xlink:href="#i"/>
  <use x="376.564" y="173.60001" xlink:href="#e"/>
  <use x="381.452" y="173.60001" xlink:href="#b"/>
  <use x="347.70001" y="183.60001" xlink:href="#c"/>
  <use x="352.58801" y="183.60001" xlink:href="#a"/>
  <use x="357.03601" y="183.60001" xlink:href="#h"/>
  <use x="361.48401" y="183.60001" xlink:href="#f"/>
  <use x="363.70801" y="183.60001" xlink:href="#g"/>
  <use x="368.15601" y="183.60001" xlink:href="#a"/>
  <use x="375" y="183.60001" xlink:href="#q"/>
 </g>
 <path d="m170.67 190.61v-36" fill="none" stroke="#000000" stroke-linecap="round" stroke-miterlimit="10"/>
 <path d="m170.67 154.61h72" fill="none" stroke="#000000" stroke-linecap="round" stroke-miterlimit="10"/>
 <path d="m242.67 154.61v36" fill="none" stroke="#000000" stroke-linecap="round" stroke-miterlimit="10"/>
 <path d="m242.67 190.61h-72" fill="none" stroke="#000000" stroke-linecap="round" stroke-miterlimit="10"/>
 <g transform="translate(-156.93 -49.79)" fill="#ff6600">
  <use x="342.70001" y="220.39999" xlink:href="#l"/>
  <use x="347.58801" y="220.39999" xlink:href="#k"/>
  <use x="352.03601" y="220.39999" xlink:href="#d"/>
  <use x="356.92401" y="220.39999" xlink:href="#c"/>
  <use x="361.81201" y="220.39999" xlink:href="#j"/>
  <use x="364.03601" y="220.39999" xlink:href="#a"/>
  <use x="368.48401" y="220.39999" xlink:href="#b"/>
  <use x="373.89999" y="220.39999" xlink:href="#i"/>
  <use x="376.564" y="220.39999" xlink:href="#e"/>
  <use x="381.452" y="220.39999" xlink:href="#b"/>
  <use x="347.70001" y="230.39999" xlink:href="#c"/>
  <use x="352.58801" y="230.39999" xlink:href="#a"/>
  <use x="357.03601" y="230.39999" xlink:href="#h"/>
  <use x="361.48401" y="230.39999" xlink:href="#f"/>
  <use x="363.70801" y="230.39999" xlink:href="#g"/>
  <use x="368.15601" y="230.39999" xlink:href="#a"/>
  <use x="375" y="230.39999" xlink:href="#r"/>
 </g>
 <path d="m50.066 131.81c66.602 0 66.602 0 75.602 14.598 9 14.602 9 14.602 45 14.602" fill="none" stroke="#000000" stroke-linecap="round" stroke-miterlimit="10"/>
 <path d="m163.46 162.81 7.2031-1.8008" fill="none" stroke="#000000" stroke-linecap="round" stroke-miterlimit="10"/>
 <path d="m163.27 162.31 7.3008-1.2031" fill="none" stroke="#000000" stroke-linecap="round" stroke-miterlimit="10"/>
 <path d="m163.17 161.61 7.3984-0.5" fill="none" stroke="#000000" stroke-linecap="round" stroke-miterlimit="10"/>
 <path d="m163.17 161.01h7.3984" fill="none" stroke="#000000" stroke-linecap="round" stroke-miterlimit="10"/>
 <path d="m163.17 160.51 7.3984 0.5" fill="none" stroke="#000000" stroke-linecap="round" stroke-miterlimit="10"/>
 <path d="m163.27 159.81 7.3008 1.1992" fill="none" stroke="#000000" stroke-linecap="round" stroke-miterlimit="10"/>
 <path d="m163.46 159.21 7.2031 1.8008" fill="none" stroke="#000000" stroke-linecap="round" stroke-miterlimit="10"/>
 <path d="m50.066 112.11c66.602 0 66.602 0 75.602 1s9 1 45 1" fill="none" stroke="#000000" stroke-linecap="round" stroke-miterlimit="10"/>
 <path d="m163.46 116.01 7.2031-1.8008" fill="none" stroke="#000000" stroke-linecap="round" stroke-miterlimit="10"/>
 <path d="m163.27 115.51 7.3008-1.1992" fill="none" stroke="#000000" stroke-linecap="round" stroke-miterlimit="10"/>
 <path d="m163.17 114.81 7.3984-0.5" fill="none" stroke="#000000" stroke-linecap="round" stroke-miterlimit="10"/>
 <path d="m163.17 114.21h7.3984" fill="none" stroke="#000000" stroke-linecap="round" stroke-miterlimit="10"/>
 <path d="m163.17 113.71 7.3984 0.5" fill="none" stroke="#000000" stroke-linecap="round" stroke-miterlimit="10"/>
 <path d="m163.27 113.01 7.3008 1.1992" fill="none" stroke="#000000" stroke-linecap="round" stroke-miterlimit="10"/>
 <path d="m163.46 112.41 7.2031 1.8008" fill="none" stroke="#000000" stroke-linecap="round" stroke-miterlimit="10"/>
 <path d="m50.066 92.609c66.602 0 66.602 0 75.602-12.598 9-12.5 9-12.5 45-12.5" fill="none" stroke="#000000" stroke-linecap="round" stroke-miterlimit="10"/>
 <path d="m163.46 69.21 7.2031-1.8008" fill="none" stroke="#000000" stroke-linecap="round" stroke-miterlimit="10"/>
 <path d="m163.27 68.71 7.3008-1.1992" fill="none" stroke="#000000" stroke-linecap="round" stroke-miterlimit="10"/>
 <path d="m163.17 68.011 7.3984-0.5" fill="none" stroke="#000000" stroke-linecap="round" stroke-miterlimit="10"/>
 <path d="m163.17 67.409h7.3984" fill="none" stroke="#000000" stroke-linecap="round" stroke-miterlimit="10"/>
 <path d="m163.17 66.909 7.3984 0.5" fill="none" stroke="#000000" stroke-linecap="round" stroke-miterlimit="10"/>
 <path d="m163.27 66.21 7.3008 1.1992" fill="none" stroke="#000000" stroke-linecap="round" stroke-miterlimit="10"/>
 <path d="m163.46 65.609 7.2031 1.8008" fill="none" stroke="#000000" stroke-linecap="round" stroke-miterlimit="10"/>
 <path d="m50.066 72.909c66.602 0 66.602 0 75.602-26.098 9-26.102 9-26.102 45-26.102" fill="none" stroke="#000000" stroke-linecap="round" stroke-miterlimit="10"/>
 <path d="m163.46 22.409 7.2031-1.8008" fill="none" stroke="#000000" stroke-linecap="round" stroke-miterlimit="10"/>
 <path d="m163.27 21.909 7.3008-1.1992" fill="none" stroke="#000000" stroke-linecap="round" stroke-miterlimit="10"/>
 <path d="m163.17 21.21 7.3984-0.5" fill="none" stroke="#000000" stroke-linecap="round" stroke-miterlimit="10"/>
 <path d="m163.17 20.609h7.3984" fill="none" stroke="#000000" stroke-linecap="round" stroke-miterlimit="10"/>
 <path d="m163.17 20.109 7.3984 0.5" fill="none" stroke="#000000" stroke-linecap="round" stroke-miterlimit="10"/>
 <path d="m163.27 19.409 7.3008 1.1992" fill="none" stroke="#000000" stroke-linecap="round" stroke-miterlimit="10"/>
 <path d="m163.46 18.812 7.2031 1.7969" fill="none" stroke="#000000" stroke-linecap="round" stroke-miterlimit="10"/>
</svg>
