<svg width="250" height="200" version="1.1" viewBox="0 0 250 200" xmlns="http://www.w3.org/2000/svg" xmlns:xlink="http://www.w3.org/1999/xlink">
 <defs>
  <g id="f">
   <path d="m1.6562-4.3125h-1.125v4.3125h1.125zm0-1.5156h-1.125v1h1.125z"/>
  </g>
  <g id="d">
   <path d="m.5-4.3125v4.3125h1.125v-2.5938c0-.51562.34375-.84375.90625-.84375.48438 0 .71875.26562.71875.78125v2.6562h1.125v-2.8906c0-.96875-.53125-1.5-1.4531-1.5-.57812 0-.98438.20312-1.2969.6875v-.60938z"/>
  </g>
  <g id="n">
   <path d="m2.4062-4.2344h-.625v-1.1562h-1.125v1.1562h-.54688v.75h.54688v2.6562c0 .67188.375 1.0156 1.1094 1.0156.25 0 .4375-.03125.64062-.09375v-.78125c-.10938.015625-.17188.03125-.25.03125-.29688 0-.375-.09375-.375-.48438v-2.3438h.625z"/>
  </g>
  <g id="a">
   <path d="m4.1875-1.8125c.015625-.09375.015625-.125.015625-.1875 0-.4375-.0625-.82812-.17188-1.1406-.28125-.78125-.98438-1.25-1.8594-1.25-1.2344 0-2 .89062-2 2.3438 0 1.3906.75 2.2344 1.9844 2.2344.96875 0 1.75-.54688 2-1.4062h-1.1094c-.14062.34375-.45312.54688-.85938.54688-.3125 0-.57812-.14062-.73438-.375-.09375-.15625-.14062-.35938-.15625-.76562zm-2.875-.73438c.078125-.67188.34375-.98438.84375-.98438.51562 0 .8125.34375.875.98438z"/>
  </g>
  <g id="b">
   <path d="m.5-4.3125v4.3125h1.125v-2.2969c0-.65625.32812-.98438.98438-.98438.125 0 .20312.015625.34375.03125v-1.1406h-.125c-.51562 0-.95312.32812-1.2031.92188v-.84375z"/>
  </g>
  <g id="u">
   <path d="m4.3281 0v-4.3125h-1.125v2.7031c0 .5-.34375.84375-.90625.84375-.46875 0-.71875-.26562-.71875-.78125v-2.7656h-1.1094v3c0 .95312.51562 1.5 1.4375 1.5.59375 0 .98438-.21875 1.2969-.70312v.51562z"/>
  </g>
  <g id="t">
   <path d="m1.5781-4.3125h-1.1094v6.0625h1.1094v-2.2656c.28125.48438.65625.70312 1.2031.70312 1.0469 0 1.8125-.96875 1.8125-2.2812 0-.60938-.17188-1.2188-.46875-1.625-.28125-.40625-.82812-.67188-1.3438-.67188-.54688 0-.92188.23438-1.2031.70312zm.95312.85938c.5625 0 .9375.54688.9375 1.375 0 .79688-.375 1.3281-.9375 1.3281-.57812 0-.95312-.53125-.95312-1.3438s.375-1.3594.95312-1.3594z"/>
  </g>
  <g id="h">
   <path d="m2.7969 0 1.4844-4.3125h-1.1719l-.875 3.1562-.9375-3.1562h-1.1875l1.5156 4.3125z"/>
  </g>
  <g id="g">
   <path d="m4.1719-2.7031c-.078125-1.0625-.76562-1.6875-1.8594-1.6875-1.2969 0-2.0469.84375-2.0469 2.3125 0 1.4375.75 2.2656 2.0312 2.2656 1.0469 0 1.7812-.65625 1.875-1.6875h-1.0625c-.14062.5625-.35938.78125-.8125.78125-.5625 0-.90625-.5-.90625-1.3594 0-.40625.078125-.78125.21875-1.0469.125-.23438.375-.35938.6875-.35938.46875 0 .67188.21875.8125.78125z"/>
  </g>
  <g id="e">
   <path d="m2.4062-4.3906c-1.3125 0-2.125.875-2.125 2.2812 0 1.4219.8125 2.2969 2.1406 2.2969 1.3125 0 2.125-.875 2.125-2.2656 0-1.4531-.78125-2.3125-2.1406-2.3125zm.015625.90625c.60938 0 1.0156.54688 1.0156 1.3906 0 .8125-.42188 1.375-1.0156 1.375-.60938 0-1.0156-.54688-1.0156-1.3906 0-.82812.40625-1.375 1.0156-1.375z"/>
  </g>
  <g id="w">
   <path d="m4.0469-2.9219c-.015625-.92188-.73438-1.4688-1.8906-1.4688-1.0938 0-1.7656.54688-1.7656 1.4375 0 .29688.078125.53125.23438.70312.15625.15625.28125.21875.70312.35938l1.3281.42188c.28125.078125.39062.17188.39062.34375 0 .26562-.3125.42188-.84375.42188-.29688 0-.51562-.046875-.65625-.14062-.125-.09375-.17188-.1875-.21875-.40625h-1.0938c.03125.95312.71875 1.4375 2.0312 1.4375.60938 0 1.0625-.125 1.375-.39062.32812-.25.51562-.65625.51562-1.0781 0-.5625-.28125-.92188-.84375-1.0938l-1.4219-.40625c-.3125-.09375-.39062-.15625-.39062-.32812 0-.25.26562-.40625.65625-.40625.53125 0 .79688.20312.79688.59375z"/>
  </g>
  <g id="s">
   <path d="m.48438-4.3125v4.3125h1.1094v-2.5938c0-.53125.29688-.84375.78125-.84375.375 0 .59375.21875.59375.5625v2.875h1.125v-2.5938c0-.53125.29688-.84375.76562-.84375.375 0 .60938.21875.60938.5625v2.875h1.125v-3.0625c0-.82812-.51562-1.3281-1.375-1.3281-.5625 0-.9375.1875-1.2656.64062-.20312-.40625-.64062-.64062-1.1719-.64062-.5 0-.82812.15625-1.1875.60938v-.53125z"/>
  </g>
  <g id="v">
   <path d="m3.1562-4.3125-.90625 3.1406-.95312-3.1406h-1.2188l1.6094 4.4844c0 .45312-.28125.75-.70312.75-.09375 0-.15625-.015625-.29688-.046875v.84375c.17188.03125.26562.03125.40625.03125.28125 0 .60938-.046875.79688-.14062.3125-.125.45312-.29688.64062-.8125l1.7656-5.1094z"/>
  </g>
  <g id="r">
   <path d="m2.1875-5.7969c-.60938 0-1.125.26562-1.4688.73438-.32812.4375-.48438 1.1562-.48438 2.2656 0 1 .125 1.7031.39062 2.1406.34375.54688.89062.84375 1.5625.84375.60938 0 1.1094-.25 1.4688-.71875.3125-.4375.48438-1.1719.48438-2.2344 0-1.0469-.125-1.75-.40625-2.1875-.32812-.54688-.89062-.84375-1.5469-.84375zm0 .90625c.28125 0 .51562.15625.65625.45312.10938.25.17188.85938.17188 1.6406 0 .64062-.0625 1.2656-.14062 1.5-.125.34375-.375.51562-.6875.51562-.29688 0-.53125-.14062-.65625-.4375-.10938-.23438-.17188-.82812-.17188-1.5938 0-.67188.046875-1.3125.14062-1.5469.10938-.34375.35938-.53125.6875-.53125z"/>
  </g>
  <g id="q">
   <path d="m1.9062-3.9062v3.9062h1.125v-5.6719h-.75c-.17188.67188-.76562 1.0156-1.7344 1.0156v.75z"/>
  </g>
  <g id="p">
   <path d="m4.0938-1h-2.4062c.15625-.29688.32812-.46875 1.1562-1.0781.98438-.71875 1.2812-1.1406 1.2812-1.9062 0-1.1094-.76562-1.8125-1.9531-1.8125-1.1719 0-1.8594.70312-1.8594 1.9062v.1875h1.0781v-.17188c0-.64062.29688-1 .8125-1 .5 0 .79688.34375.79688.90625 0 .625-.1875.85938-1.4531 1.7656-.96875.65625-1.2656 1.1406-1.3125 2.2031h3.8594z"/>
  </g>
  <g id="o">
   <path d="m1.7344-2.5312c.4375 0 .45312 0 .65625.046875.375.10938.625.4375.625.85938 0 .5-.35938.84375-.84375.84375-.53125 0-.8125-.29688-.85938-.875h-1.0781c0 1.125.73438 1.8438 1.9062 1.8438 1.2188 0 1.9844-.71875 1.9844-1.8125 0-.67188-.28125-1.1094-.92188-1.4219.51562-.32812.73438-.6875.73438-1.2031 0-.9375-.70312-1.5469-1.7969-1.5469-.82812 0-1.4531.35938-1.7031.98438-.09375.26562-.14062.45312-.14062.92188h1.0469c.015625-.29688.03125-.45312.09375-.59375.09375-.25.35938-.40625.6875-.40625.4375 0 .70312.28125.70312.75 0 .57812-.32812.85938-1 .85938h-.09375z"/>
  </g>
  <g id="l">
   <path d="m.53125-5.8281v5.8281h1.125v-2.5938c0-.5.35938-.84375.85938-.84375.25 0 .4375.078125.5625.26562.10938.14062.125.26562.125.53125v2.6406h1.125v-2.8906c0-.54688-.14062-.92188-.4375-1.1719-.25-.20312-.60938-.32812-.96875-.32812-.54688 0-.95312.21875-1.2656.6875v-2.125z"/>
  </g>
  <g id="k">
   <path d="m4.1875-.14062c-.1875-.17188-.25-.3125-.25-.51562v-2.4062c0-.875-.59375-1.3281-1.7656-1.3281s-1.7812.5-1.8594 1.5h1.0938c.046875-.45312.23438-.59375.78125-.59375.4375 0 .65625.14062.65625.42188 0 .15625-.078125.26562-.20312.34375-.14062.078125-.14062.078125-.70312.17188l-.4375.078125c-.85938.14062-1.2812.57812-1.2812 1.3594 0 .76562.53125 1.2969 1.3125 1.2969.48438 0 .92188-.20312 1.3125-.625 0 .23438.03125.3125.125.4375h1.2188zm-1.3438-1.5938c0 .64062-.32812 1.0156-.89062 1.0156-.375 0-.60938-.20312-.60938-.51562 0-.34375.17188-.5.64062-.59375l.39062-.078125c.28125-.046875.34375-.0625.46875-.14062z"/>
  </g>
  <g id="c">
   <path d="m3.2344 0h1.125v-5.8281h-1.125v2.0625c-.28125-.42188-.64062-.625-1.1875-.625-1.0312 0-1.8125.98438-1.8125 2.2969 0 .57812.17188 1.1719.46875 1.5938.28125.42188.8125.6875 1.3438.6875.54688 0 .90625-.20312 1.1875-.625zm-.9375-3.4531c.5625 0 .9375.54688.9375 1.375 0 .78125-.375 1.3281-.9375 1.3281s-.9375-.54688-.9375-1.3438c0-.8125.375-1.3594.9375-1.3594z"/>
  </g>
  <g id="j">
   <path d="m1.6562-5.8281h-1.125v5.8281h1.125z"/>
  </g>
  <g id="i">
   <path d="m2.5-4.2344h-.65625v-.42188c0-.21875.09375-.32812.29688-.32812.10938 0 .21875 0 .32812.015625v-.84375c-.25-.015625-.48438-.015625-.64062-.015625-.75 0-1.1094.34375-1.1094 1.0781v.51562h-.60938v.75h.60938v3.4844h1.125v-3.4844h.65625z"/>
  </g>
  <g id="m">
   <path d="m2.1406-1.4531h-1.5v1.4531h1.5z"/>
  </g>
 </defs>
 <g fill="none" stroke="#000" stroke-linecap="round" stroke-miterlimit="10">
  <path d="m19.465 33.609v108"/>
  <path d="m19.465 141.61h61.203"/>
  <path d="m80.668 141.61v-108"/>
 </g>
 <g transform="translate(-156.93 -49.79)" fill="#241c1c">
  <use x="175.2" y="67.699997" xlink:href="#f"/>
  <use x="177.424" y="67.699997" xlink:href="#d"/>
  <use x="182.312" y="67.699997" xlink:href="#n"/>
  <use x="184.976" y="67.699997" xlink:href="#a"/>
  <use x="189.424" y="67.699997" xlink:href="#b"/>
  <use x="192.536" y="67.699997" xlink:href="#b"/>
  <use x="195.64799" y="67.699997" xlink:href="#u"/>
  <use x="200.536" y="67.699997" xlink:href="#t"/>
  <use x="205.424" y="67.699997" xlink:href="#n"/>
  <use x="210.20001" y="67.699997" xlink:href="#h"/>
  <use x="214.64801" y="67.699997" xlink:href="#a"/>
  <use x="219.09601" y="67.699997" xlink:href="#g"/>
  <use x="223.54401" y="67.699997" xlink:href="#n"/>
  <use x="226.20801" y="67.699997" xlink:href="#e"/>
  <use x="231.09601" y="67.699997" xlink:href="#b"/>
  <use x="234.20801" y="67.699997" xlink:href="#w"/>
  <use x="186.8" y="78.5" xlink:href="#f"/>
  <use x="189.024" y="78.5" xlink:href="#d"/>
  <use x="196.10001" y="78.5" xlink:href="#s"/>
  <use x="203.21201" y="78.5" xlink:href="#a"/>
  <use x="207.66" y="78.5" xlink:href="#s"/>
  <use x="214.772" y="78.5" xlink:href="#e"/>
  <use x="219.66" y="78.5" xlink:href="#b"/>
  <use x="222.772" y="78.5" xlink:href="#v"/>
 </g>
 <g fill="none" stroke="#000" stroke-linecap="round" stroke-miterlimit="10">
  <path d="m19.465 141.61v-19.598"/>
  <path d="m19.465 122.01h61.203"/>
  <path d="m80.668 122.01v19.598"/>
  <path d="m80.668 141.61h-61.203"/>
 </g>
 <g transform="translate(-156.93 -49.79)" fill="#f60">
  <use x="166.8" y="185.8" fill="#ff6600" xlink:href="#r"/>
 </g>
 <g fill="none" stroke="#000" stroke-linecap="round" stroke-miterlimit="10">
  <path d="m19.465 122.01v-19.602"/>
  <path d="m19.465 102.41h61.203"/>
  <path d="m80.668 102.41v19.602"/>
  <path d="m80.668 122.01h-61.203"/>
 </g>
 <g transform="translate(-156.93 -49.79)" fill="#f60">
  <use x="166.8" y="166.2" fill="#ff6600" xlink:href="#q"/>
 </g>
 <g fill="none" stroke="#000" stroke-linecap="round" stroke-miterlimit="10">
  <path d="m19.465 102.41v-19.598"/>
  <path d="m19.465 82.71h61.203"/>
  <path d="m80.668 82.71v19.602"/>
  <path d="m80.668 102.41h-61.203"/>
 </g>
 <g transform="translate(-156.93 -49.79)" fill="#f60">
  <use x="166.8" y="146.60001" fill="#ff6600" xlink:href="#p"/>
 </g>
 <g fill="none" stroke="#000" stroke-linecap="round" stroke-miterlimit="10">
  <path d="m19.465 82.71v-19.602"/>
  <path d="m19.465 63.109h61.203"/>
  <path d="m80.668 63.109v19.602"/>
  <path d="m80.668 82.71h-61.203"/>
 </g>
 <g transform="translate(-156.93 -49.79)" fill="#f60">
  <use x="166.8" y="126.9" fill="#ff6600" xlink:href="#o"/>
 </g>
 <g transform="translate(-156.93 -49.79)" fill="#241c1c">
  <use x="205.60001" y="100.2" xlink:href="#m"/>
  <use x="205.60001" y="95.099998" xlink:href="#m"/>
  <use x="205.60001" y="105.2" xlink:href="#m"/>
 </g>
 <g fill="none" stroke="#000" stroke-linecap="round" stroke-miterlimit="10">
  <path d="m50.066 131.81c0-.0547-.0469-.10156-.10156-.10156-.0547 0-.0977.0469-.0977.10156 0 .0547.043.0977.0977.0977s.10156-.043.10156-.0977"/>
  <path d="m51.367 131.81c0-.77344-.62891-1.4023-1.4023-1.4023-.76953 0-1.3984.6289-1.3984 1.4023 0 .76953.62891 1.3984 1.3984 1.3984.77343 0 1.4023-.62891 1.4023-1.3984"/>
  <path d="m50.066 112.11c0-.0547-.0469-.0977-.10156-.0977-.0547 0-.0977.043-.0977.0977s.043.10156.0977.10156.10156-.0469.10156-.10156"/>
  <path d="m51.367 112.11c0-.76953-.62891-1.3984-1.4023-1.3984-.76953 0-1.3984.62891-1.3984 1.3984 0 .77343.62891 1.4023 1.3984 1.4023.77343 0 1.4023-.62891 1.4023-1.4023"/>
  <path d="m50.066 92.609c0-.0547-.0469-.0977-.10156-.0977-.0547 0-.0977.043-.0977.0977s.043.10156.0977.10156.10156-.0469.10156-.10156"/>
  <path d="m51.367 92.609c0-.76953-.62891-1.3984-1.4023-1.3984-.76953 0-1.3984.62891-1.3984 1.3984 0 .77343.62891 1.4023 1.3984 1.4023.77343 0 1.4023-.62891 1.4023-1.4023"/>
  <path d="m50.066 72.909c0-.0547-.0469-.0977-.10156-.0977-.0547 0-.0977.043-.0977.0977s.043.10156.0977.10156.10156-.0469.10156-.10156"/>
  <path d="m51.367 72.909c0-.77344-.62891-1.3984-1.4023-1.3984-.76953 0-1.3984.625-1.3984 1.3984s.62891 1.4023 1.3984 1.4023c.77343 0 1.4023-.6289 1.4023-1.4023"/>
  <path d="m170.67 97.011v-36"/>
  <path d="m170.67 61.011h72"/>
  <path d="m242.67 61.011v36"/>
  <path d="m242.67 97.011h-72"/>
 </g>
 <g transform="translate(-156.93 -49.79)" fill="#f60">
  <use x="342.70001" y="126.8" xlink:href="#l"/>
  <use x="347.58801" y="126.8" xlink:href="#k"/>
  <use x="352.03601" y="126.8" xlink:href="#d"/>
  <use x="356.92401" y="126.8" xlink:href="#c"/>
  <use x="361.81201" y="126.8" xlink:href="#j"/>
  <use x="364.03601" y="126.8" xlink:href="#a"/>
  <use x="368.48401" y="126.8" xlink:href="#b"/>
  <use x="373.89999" y="126.8" xlink:href="#i"/>
  <use x="376.564" y="126.8" xlink:href="#e"/>
  <use x="381.452" y="126.8" xlink:href="#b"/>
  <use x="347.70001" y="136.8" xlink:href="#c"/>
  <use x="352.58801" y="136.8" xlink:href="#a"/>
  <use x="357.03601" y="136.8" xlink:href="#h"/>
  <use x="361.48401" y="136.8" xlink:href="#f"/>
  <use x="363.70801" y="136.8" xlink:href="#g"/>
  <use x="368.15601" y="136.8" xlink:href="#a"/>
  <use x="375" y="136.8" xlink:href="#p"/>
 </g>
 <g fill="none" stroke="#000" stroke-linecap="round" stroke-miterlimit="10">
  <path d="m170.67 50.21v-36"/>
  <path d="m170.67 14.21h72"/>
  <path d="m242.67 14.21v36"/>
  <path d="m242.67 50.21h-72"/>
 </g>
 <g transform="translate(-156.93 -49.79)" fill="#f60">
  <use x="342.70001" y="80" xlink:href="#l"/>
  <use x="347.58801" y="80" xlink:href="#k"/>
  <use x="352.03601" y="80" xlink:href="#d"/>
  <use x="356.92401" y="80" xlink:href="#c"/>
  <use x="361.81201" y="80" xlink:href="#j"/>
  <use x="364.03601" y="80" xlink:href="#a"/>
  <use x="368.48401" y="80" xlink:href="#b"/>
  <use x="373.89999" y="80" xlink:href="#i"/>
  <use x="376.564" y="80" xlink:href="#e"/>
  <use x="381.452" y="80" xlink:href="#b"/>
  <use x="347.70001" y="90" xlink:href="#c"/>
  <use x="352.58801" y="90" xlink:href="#a"/>
  <use x="357.03601" y="90" xlink:href="#h"/>
  <use x="361.48401" y="90" xlink:href="#f"/>
  <use x="363.70801" y="90" xlink:href="#g"/>
  <use x="368.15601" y="90" xlink:href="#a"/>
  <use x="375" y="90" xlink:href="#o"/>
 </g>
 <g fill="none" stroke="#000" stroke-linecap="round" stroke-miterlimit="10">
  <path d="m170.67 143.81v-36"/>
  <path d="m170.67 107.81h72"/>
  <path d="m242.67 107.81v36"/>
  <path d="m242.67 143.81h-72"/>
 </g>
 <g transform="translate(-156.93 -49.79)" fill="#f60">
  <use x="342.70001" y="173.60001" xlink:href="#l"/>
  <use x="347.58801" y="173.60001" xlink:href="#k"/>
  <use x="352.03601" y="173.60001" xlink:href="#d"/>
  <use x="356.92401" y="173.60001" xlink:href="#c"/>
  <use x="361.81201" y="173.60001" xlink:href="#j"/>
  <use x="364.03601" y="173.60001" xlink:href="#a"/>
  <use x="368.48401" y="173.60001" xlink:href="#b"/>
  <use x="373.89999" y="173.60001" xlink:href="#i"/>
  <use x="376.564" y="173.60001" xlink:href="#e"/>
  <use x="381.452" y="173.60001" xlink:href="#b"/>
  <use x="347.70001" y="183.60001" xlink:href="#c"/>
  <use x="352.58801" y="183.60001" xlink:href="#a"/>
  <use x="357.03601" y="183.60001" xlink:href="#h"/>
  <use x="361.48401" y="183.60001" xlink:href="#f"/>
  <use x="363.70801" y="183.60001" xlink:href="#g"/>
  <use x="368.15601" y="183.60001" xlink:href="#a"/>
  <use x="375" y="183.60001" xlink:href="#q"/>
 </g>
 <g fill="none" stroke="#000" stroke-linecap="round" stroke-miterlimit="10">
  <path d="m170.67 190.61v-36"/>
  <path d="m170.67 154.61h72"/>
  <path d="m242.67 154.61v36"/>
  <path d="m242.67 190.61h-72"/>
 </g>
 <g transform="translate(-156.93 -49.79)" fill="#f60">
  <use x="342.70001" y="220.39999" xlink:href="#l"/>
  <use x="347.58801" y="220.39999" xlink:href="#k"/>
  <use x="352.03601" y="220.39999" xlink:href="#d"/>
  <use x="356.92401" y="220.39999" xlink:href="#c"/>
  <use x="361.81201" y="220.39999" xlink:href="#j"/>
  <use x="364.03601" y="220.39999" xlink:href="#a"/>
  <use x="368.48401" y="220.39999" xlink:href="#b"/>
  <use x="373.89999" y="220.39999" xlink:href="#i"/>
  <use x="376.564" y="220.39999" xlink:href="#e"/>
  <use x="381.452" y="220.39999" xlink:href="#b"/>
  <use x="347.70001" y="230.39999" xlink:href="#c"/>
  <use x="352.58801" y="230.39999" xlink:href="#a"/>
  <use x="357.03601" y="230.39999" xlink:href="#h"/>
  <use x="361.48401" y="230.39999" xlink:href="#f"/>
  <use x="363.70801" y="230.39999" xlink:href="#g"/>
  <use x="368.15601" y="230.39999" xlink:href="#a"/>
  <use x="375" y="230.39999" xlink:href="#r"/>
 </g>
 <g fill="none" stroke="#000" stroke-linecap="round" stroke-miterlimit="10">
  <path d="m50.066 131.81c66.602 0 66.602 0 75.602 14.598 9 14.602 9 14.602 45 14.602"/>
  <path d="m163.46 162.81 7.2031-1.8008"/>
  <path d="m163.27 162.31 7.3008-1.2031"/>
  <path d="m163.17 161.61 7.3984-.5"/>
  <path d="m163.17 161.01h7.3984"/>
  <path d="m163.17 160.51 7.3984.5"/>
  <path d="m163.27 159.81 7.3008 1.1992"/>
  <path d="m163.46 159.21 7.2031 1.8008"/>
  <path d="m50.066 112.11c66.602 0 66.602 0 75.602 1s9 1 45 1"/>
  <path d="m163.46 116.01 7.2031-1.8008"/>
  <path d="m163.27 115.51 7.3008-1.1992"/>
  <path d="m163.17 114.81 7.3984-.5"/>
  <path d="m163.17 114.21h7.3984"/>
  <path d="m163.17 113.71 7.3984.5"/>
  <path d="m163.27 113.01 7.3008 1.1992"/>
  <path d="m163.46 112.41 7.2031 1.8008"/>
  <path d="m50.066 92.609c66.602 0 66.602 0 75.602-12.598 9-12.5 9-12.5 45-12.5"/>
  <path d="m163.46 69.21 7.2031-1.8008"/>
  <path d="m163.27 68.71 7.3008-1.1992"/>
  <path d="m163.17 68.011 7.3984-.5"/>
  <path d="m163.17 67.409h7.3984"/>
  <path d="m163.17 66.909 7.3984.5"/>
  <path d="m163.27 66.21 7.3008 1.1992"/>
  <path d="m163.46 65.609 7.2031 1.8008"/>
  <path d="m50.066 72.909c66.602 0 66.602 0 75.602-26.098 9-26.102 9-26.102 45-26.102"/>
  <path d="m163.46 22.409 7.2031-1.8008"/>
  <path d="m163.27 21.909 7.3008-1.1992"/>
  <path d="m163.17 21.21 7.3984-.5"/>
  <path d="m163.17 20.609h7.3984"/>
  <path d="m163.17 20.109 7.3984.5"/>
  <path d="m163.27 19.409 7.3008 1.1992"/>
  <path d="m163.46 18.812 7.2031 1.7969"/>
 </g>
</svg>
