<svg width="280" height="130" version="1.1" viewBox="0 0 280 130" xmlns="http://www.w3.org/2000/svg" xmlns:xlink="http://www.w3.org/1999/xlink">
 <defs>
  <g id="a">
   <path d="m4.1875-1.8125c.015625-.09375.015625-.125.015625-.1875 0-.4375-.0625-.82812-.17188-1.1406-.28125-.78125-.98438-1.25-1.8594-1.25-1.2344 0-2 .89062-2 2.3438 0 1.3906.75 2.2344 1.9844 2.2344.96875 0 1.75-.54688 2-1.4062h-1.1094c-.14062.34375-.45312.54688-.85938.54688-.3125 0-.57812-.14062-.73438-.375-.09375-.15625-.14062-.35938-.15625-.76562zm-2.875-.73438c.078125-.67188.34375-.98438.84375-.98438.51562 0 .8125.34375.875.98438z"/>
  </g>
  <g id="ac">
   <path d="m2.8438-2.1719 1.4062-2.1406h-1.3438l-.70312 1.2969-.70312-1.2969h-1.3438l1.4062 2.1406-1.4375 2.1719h1.3438l.73438-1.3438.73438 1.3438h1.3438z"/>
  </g>
  <g id="m">
   <path d="m2.4062-4.2344h-.625v-1.1562h-1.125v1.1562h-.54688v.75h.54688v2.6562c0 .67188.375 1.0156 1.1094 1.0156.25 0 .4375-.03125.64062-.09375v-.78125c-.10938.015625-.17188.03125-.25.03125-.29688 0-.375-.09375-.375-.48438v-2.3438h.625z"/>
  </g>
  <g id="d">
   <path d="m.5-4.3125v4.3125h1.125v-2.2969c0-.65625.32812-.98438.98438-.98438.125 0 .20312.015625.34375.03125v-1.1406h-.125c-.51562 0-.95312.32812-1.2031.92188v-.84375z"/>
  </g>
  <g id="ab">
   <path d="m.5-4.3125v4.3125h1.125v-2.5938c0-.51562.34375-.84375.90625-.84375.48438 0 .71875.26562.71875.78125v2.6562h1.125v-2.8906c0-.96875-.53125-1.5-1.4531-1.5-.57812 0-.98438.20312-1.2969.6875v-.60938z"/>
  </g>
  <g id="aa">
   <path d="m4.1875-.14062c-.1875-.17188-.25-.3125-.25-.51562v-2.4062c0-.875-.59375-1.3281-1.7656-1.3281s-1.7812.5-1.8594 1.5h1.0938c.046875-.45312.23438-.59375.78125-.59375.4375 0 .65625.14062.65625.42188 0 .15625-.078125.26562-.20312.34375-.14062.078125-.14062.078125-.70312.17188l-.4375.078125c-.85938.14062-1.2812.57812-1.2812 1.3594 0 .76562.53125 1.2969 1.3125 1.2969.48438 0 .92188-.20312 1.3125-.625 0 .23438.03125.3125.125.4375h1.2188zm-1.3438-1.5938c0 .64062-.32812 1.0156-.89062 1.0156-.375 0-.60938-.20312-.60938-.51562 0-.34375.17188-.5.64062-.59375l.39062-.078125c.28125-.046875.34375-.0625.46875-.14062z"/>
  </g>
  <g id="z">
   <path d="m1.6562-5.8281h-1.125v5.8281h1.125z"/>
  </g>
  <g id="y">
   <path d="m3.2344 0h1.125v-5.8281h-1.125v2.0625c-.28125-.42188-.64062-.625-1.1875-.625-1.0312 0-1.8125.98438-1.8125 2.2969 0 .57812.17188 1.1719.46875 1.5938.28125.42188.8125.6875 1.3438.6875.54688 0 .90625-.20312 1.1875-.625zm-.9375-3.4531c.5625 0 .9375.54688.9375 1.375 0 .78125-.375 1.3281-.9375 1.3281s-.9375-.54688-.9375-1.3438c0-.8125.375-1.3594.9375-1.3594z"/>
  </g>
  <g id="x">
   <path d="m2.7969 0 1.4844-4.3125h-1.1719l-.875 3.1562-.9375-3.1562h-1.1875l1.5156 4.3125z"/>
  </g>
  <g id="o">
   <path d="m1.6562-4.3125h-1.125v4.3125h1.125zm0-1.5156h-1.125v1h1.125z"/>
  </g>
  <g id="g">
   <path d="m4.1719-2.7031c-.078125-1.0625-.76562-1.6875-1.8594-1.6875-1.2969 0-2.0469.84375-2.0469 2.3125 0 1.4375.75 2.2656 2.0312 2.2656 1.0469 0 1.7812-.65625 1.875-1.6875h-1.0625c-.14062.5625-.35938.78125-.8125.78125-.5625 0-.90625-.5-.90625-1.3594 0-.40625.078125-.78125.21875-1.0469.125-.23438.375-.35938.6875-.35938.46875 0 .67188.21875.8125.78125z"/>
  </g>
  <g id="t">
   <path d="m1.5781-4.3125h-1.1094v6.0625h1.1094v-2.2656c.28125.48438.65625.70312 1.2031.70312 1.0469 0 1.8125-.96875 1.8125-2.2812 0-.60938-.17188-1.2188-.46875-1.625-.28125-.40625-.82812-.67188-1.3438-.67188-.54688 0-.92188.23438-1.2031.70312zm.95312.85938c.5625 0 .9375.54688.9375 1.375 0 .79688-.375 1.3281-.9375 1.3281-.57812 0-.95312-.53125-.95312-1.3438s.375-1.3594.95312-1.3594z"/>
  </g>
  <g id="f">
   <path d="m2.4062-4.3906c-1.3125 0-2.125.875-2.125 2.2812 0 1.4219.8125 2.2969 2.1406 2.2969 1.3125 0 2.125-.875 2.125-2.2656 0-1.4531-.78125-2.3125-2.1406-2.3125zm.015625.90625c.60938 0 1.0156.54688 1.0156 1.3906 0 .8125-.42188 1.375-1.0156 1.375-.60938 0-1.0156-.54688-1.0156-1.3906 0-.82812.40625-1.375 1.0156-1.375z"/>
  </g>
  <g id="n">
   <path d="m4.0469-2.9219c-.015625-.92188-.73438-1.4688-1.8906-1.4688-1.0938 0-1.7656.54688-1.7656 1.4375 0 .29688.078125.53125.23438.70312.15625.15625.28125.21875.70312.35938l1.3281.42188c.28125.078125.39062.17188.39062.34375 0 .26562-.3125.42188-.84375.42188-.29688 0-.51562-.046875-.65625-.14062-.125-.09375-.17188-.1875-.21875-.40625h-1.0938c.03125.95312.71875 1.4375 2.0312 1.4375.60938 0 1.0625-.125 1.375-.39062.32812-.25.51562-.65625.51562-1.0781 0-.5625-.28125-.92188-.84375-1.0938l-1.4219-.40625c-.3125-.09375-.39062-.15625-.39062-.32812 0-.25.26562-.40625.65625-.40625.53125 0 .79688.20312.79688.59375z"/>
  </g>
  <g id="s">
   <path d="m4.3281 0v-4.3125h-1.125v2.7031c0 .5-.34375.84375-.90625.84375-.46875 0-.71875-.26562-.71875-.78125v-2.7656h-1.1094v3c0 .95312.51562 1.5 1.4375 1.5.59375 0 .98438-.21875 1.2969-.70312v.51562z"/>
  </g>
  <g id="ad">
   <path d="m4.9062 0 1.2188-4.3125h-1.1562l-.65625 3.0156-.65625-3.0156h-1.1094l-.65625 3.0156-.6875-3.0156h-1.1562l1.2031 4.3125h1.1562l.6875-3.0469.65625 3.0469z"/>
  </g>
  <g id="l">
   <path d="m2.1406-1.4531h-1.5v1.4531h1.5z"/>
  </g>
  <g id="k">
   <path d="m2.5625-1.75h-1.7969v1.75h1.7969z"/>
  </g>
  <g id="w">
   <path d="m3.7031-.89062c-.4375.5-.51562.57812-.65625.57812-.078125 0-.14062-.078125-.14062-.17188 0-.125.25-1.0625.51562-1.9688.1875-.64062.34375-1.2188.79688-2.9688l-.046875-.046875c-.40625.09375-.70312.14062-1.2188.1875v.14062c.4375.015625.5.03125.5.20312 0 .10938-.015625.14062-.125.5625l-.35938 1.3125c-.0625-.34375-.20312-.46875-.51562-.46875-1.0312 0-2.3281 1.5-2.3281 2.7031 0 .57812.3125.92188.82812.92188.54688 0 .90625-.26562 1.4531-1.0625-.09375.40625-.10938.53125-.10938.71875 0 .20312.14062.35938.32812.35938.34375 0 .76562-.32812 1.1719-.92188zm-1.2188-2.4531c.25.015625.35938.17188.35938.45312 0 1.2188-.82812 2.5938-1.5625 2.5938-.28125 0-.46875-.20312-.46875-.53125 0-.65625.40625-1.5938.9375-2.1406.21875-.23438.51562-.39062.73438-.375z"/>
  </g>
  <g id="c">
   <path d="m1.7812-.90625c-.20312.26562-.25.32812-.32812.40625-.14062.125-.26562.21875-.32812.21875s-.14062-.0625-.14062-.125c0-.078125.03125-.20312.09375-.35938l.03125-.14062.015625-.015625v-.015625l.70312-2.5781-.03125-.015625c-.8125.15625-.96875.17188-1.2812.20312v.125c.4375.015625.51562.03125.51562.1875 0 .078125-.03125.20312-.078125.35938l-.39062 1.4219c-.125.46875-.17188.70312-.17188.85938 0 .29688.125.46875.375.46875.375 0 .65625-.25 1.1094-.92188zm-.0625-4.3281c-.21875 0-.375.17188-.375.42188 0 .26562.14062.42188.375.42188.20312 0 .39062-.17188.39062-.40625s-.1875-.4375-.39062-.4375z"/>
  </g>
  <g id="i">
   <path d="m3.7812-3.2344h-.5c-.015625 0-.0625-.015625-.125-.0625-.21875-.15625-.46875-.23438-.78125-.23438-.89062 0-1.6094.625-1.6094 1.375 0 .40625.17188.65625.64062.85938-.48438.32812-.625.48438-.625.67188 0 .10938.0625.20312.21875.3125-.79688.51562-.9375.6875-.9375 1.0469 0 .54688.53125.90625 1.3438.90625 1 0 1.6719-.46875 1.6719-1.1562 0-.51562-.375-.85938-1.1406-1.0625-.35938-.078125-.5625-.21875-.5625-.32812 0-.125.1875-.32812.28125-.32812h.0625c.078125.015625.15625.03125.25.03125.73438 0 1.4844-.65625 1.4844-1.2812 0-.125-.03125-.26562-.078125-.4375h.40625zm-2.5938 3.0156s.015625 0 .03125.015625c.03125 0 .10938.03125.23438.0625.85938.28125 1.1406.5 1.1406.85938 0 .4375-.45312.75-1.0781.75-.64062 0-1.0156-.29688-1.0156-.8125 0-.1875.046875-.32812.1875-.48438.10938-.14062.4375-.39062.5-.39062zm1.1875-3.1406c.28125 0 .4375.20312.4375.57812 0 .28125-.09375.625-.25.90625-.17188.32812-.42188.5-.6875.5-.3125 0-.48438-.21875-.48438-.59375 0-.75.45312-1.3906.98438-1.3906z"/>
  </g>
  <g id="j">
   <path d="m2.375-3.4219h-.64062l.21875-.82812v-.046875c0-.046875-.015625-.078125-.0625-.078125s-.0625.015625-.10938.078125c-.3125.40625-.8125.8125-1.0625.875-.20312.0625-.26562.125-.26562.20312 0 .015625 0 .03125.015625.046875h.59375l-.57812 2.2031c-.015625.078125-.03125.10938-.046875.17188-.078125.26562-.14062.51562-.14062.59375 0 .15625.17188.29688.39062.29688.35938 0 .625-.23438 1.125-.96875l-.09375-.0625c-.40625.5-.53125.64062-.65625.64062-.078125 0-.125-.0625-.125-.17188l.015625-.03125.70312-2.6719h.67188z"/>
  </g>
  <g id="h">
   <path d="m3.7188-.875-.23438.21875c-.25.25-.34375.32812-.40625.32812s-.125-.046875-.125-.10938c0-.15625.34375-1.5312.71875-2.9062.03125-.078125.03125-.09375.046875-.15625l-.0625-.03125-.48438.0625-.015625.015625-.09375.39062c-.0625-.29688-.29688-.46875-.64062-.46875-1.0625 0-2.2812 1.4531-2.2812 2.7344 0 .5625.29688.89062.8125.89062.5625 0 .90625-.26562 1.6094-1.2656-.17188.65625-.1875.71875-.1875.92188 0 .23438.09375.32812.32812.32812.3125 0 .5-.15625 1.1094-.875zm-1.25-2.4844c.28125.015625.45312.21875.45312.5 0 .67188-.40625 1.6094-.95312 2.2031-.1875.21875-.46875.35938-.70312.35938-.28125 0-.45312-.23438-.45312-.59375 0-.45312.29688-1.2656.64062-1.7656.32812-.46875.6875-.71875 1.0156-.70312z"/>
  </g>
  <g id="b">
   <path d="m1.8281-.98438c-.53125.67188-.59375.73438-.76562.73438-.078125 0-.125-.046875-.125-.15625 0-.0625.03125-.15625.078125-.3125 0-.03125.015625-.046875.015625-.0625v-.015625l1.2031-4.625-.046875-.046875c-.46875.10938-.78125.17188-1.25.21875v.125c.39062 0 .54688.046875.54688.1875 0 .03125 0 .078125-.015625.14062l-1.1094 4.2344c-.015625.078125-.03125.14062-.03125.20312 0 .29688.14062.45312.39062.45312.42188 0 .6875-.23438 1.2031-1z"/>
  </g>
  <g id="e">
   <path d="m.28125-1.1719-.15625 1.2812h.125c.078125-.14062.10938-.17188.20312-.17188.078125 0 .23438.03125.39062.078125.1875.046875.29688.078125.4375.078125.67188 0 1.1562-.4375 1.1562-1.0469 0-.3125-.17188-.65625-.54688-1.125-.3125-.375-.4375-.625-.4375-.84375 0-.26562.17188-.42188.45312-.42188.40625 0 .65625.29688.73438.92188h.125l.15625-1.1094h-.10938c-.0625.10938-.10938.14062-.23438.14062-.0625 0-.14062-.015625-.29688-.0625-.1875-.0625-.3125-.078125-.4375-.078125-.59375 0-.96875.34375-.96875.89062 0 .25.17188.59375.5 1.0312.3125.40625.45312.6875.45312.90625 0 .375-.25.625-.59375.625-.45312 0-.6875-.32812-.8125-1.0938z"/>
  </g>
  <g id="q">
   <path d="m3.6875-.9375c-.4375.54688-.53125.64062-.65625.64062-.078125 0-.14062-.0625-.14062-.14062 0-.0625.03125-.20312.125-.5l.45312-1.6406c.03125-.17188.0625-.34375.0625-.46875 0-.29688-.21875-.48438-.51562-.48438-.51562 0-1.0312.48438-1.8438 1.7656l.53125-1.75-.015625-.015625c-.4375.09375-.60938.125-1.2969.25v.125c.40625.015625.5.0625.5.21875 0 .046875 0 .09375-.015625.14062l-.76562 2.7969h.60938c.375-1.2656.4375-1.4375.79688-1.9844.46875-.73438.89062-1.1406 1.1875-1.1406.10938 0 .1875.09375.1875.23438 0 .09375-.046875.35938-.10938.60938l-.35938 1.3281c-.10938.40625-.125.51562-.125.59375 0 .29688.10938.4375.375.4375.35938 0 .5625-.17188 1.125-.90625z"/>
  </g>
  <g id="p">
   <path d="m2.8594-.875c-.57812.46875-.8125.60938-1.1719.60938-.45312 0-.75-.29688-.75-.73438 0-.125.015625-.23438.09375-.48438l.21875-.03125c1.2031-.17188 2.0469-.78125 2.0469-1.4688 0-.32812-.23438-.54688-.64062-.54688-1.1562 0-2.4062 1.3125-2.4062 2.5156 0 .65625.4375 1.1094 1.0469 1.1094.57812 0 1.1875-.32812 1.6562-.875zm-1.6406-1.1406c.26562-.71875.85938-1.3281 1.2656-1.3281.17188 0 .28125.125.28125.3125 0 .25-.15625.53125-.39062.78125-.29688.28125-.60938.42188-1.2969.59375z"/>
  </g>
  <g id="r">
   <path d="m2.7969-.84375c-.4375.46875-.75.64062-1.1406.64062-.45312 0-.73438-.32812-.73438-.90625 0-.6875.28125-1.4062.73438-1.8594.23438-.25.54688-.39062.875-.39062.1875 0 .29688.0625.29688.15625 0 .046875-.015625.078125-.046875.15625-.0625.10938-.078125.15625-.078125.23438 0 .1875.125.29688.3125.29688.21875 0 .39062-.14062.39062-.35938 0-.375-.35938-.65625-.84375-.65625-1.2031 0-2.3281 1.1719-2.3281 2.4219 0 .75.4375 1.2031 1.1875 1.2031.59375 0 1.0156-.25 1.5-.85938z"/>
  </g>
  <g id="v">
   <path d="m.96875 0c.42188-1.375.54688-1.7031.92188-2.3125.26562-.45312.48438-.70312.625-.70312.046875 0 .078125.046875.125.125.0625.125.125.17188.28125.17188.25 0 .375-.14062.375-.40625 0-.23438-.15625-.40625-.375-.40625-.1875 0-.40625.125-.60938.34375-.32812.34375-.65625.79688-.78125 1.125l-.10938.28125.42188-1.7344-.015625-.015625c-.59375.10938-.65625.125-1.25.21875v.14062c.1875-.03125.21875-.046875.28125-.046875.17188 0 .28125.078125.28125.23438 0 .10938 0 .10938-.125.64062l-.65625 2.3438z"/>
  </g>
  <g id="u">
   <path d="m3.7188-.9375c-.4375.53125-.53125.64062-.65625.64062-.078125 0-.125-.078125-.125-.15625s.125-.57812.26562-1c.23438-.73438.375-1.3438.375-1.5312 0-.32812-.20312-.54688-.51562-.54688-.53125 0-1.0938.51562-1.8438 1.6875l.96875-3.5781-.046875-.046875c-.48438.10938-.78125.17188-1.25.21875v.125h.20312c.1875-.015625.32812.078125.32812.20312 0 .10938-.03125.29688-.10938.53125-.015625.015625-.046875.125-.078125.29688l-1.0781 4.0938h.59375c.32812-1.2344.42188-1.5.75-1.9844.40625-.64062.95312-1.1406 1.2344-1.1406.125 0 .21875.09375.21875.20312 0 .03125-.015625.14062-.046875.26562l-.4375 1.6562c-.10938.39062-.17188.64062-.17188.73438 0 .20312.14062.34375.35938.34375.40625 0 .6875-.21875 1.1719-.92188z"/>
  </g>
 </defs>
 <g fill="none" stroke="#000" stroke-linecap="round" stroke-miterlimit="10" stroke-width=".66667">
  <path d="m101.31 106.35v-79.199"/>
  <path d="m101.31 27.147h172.8"/>
  <path d="m274.11 27.147v79.199"/>
  <path d="m274.11 106.35h-172.8"/>
 </g>
 <g transform="translate(-147.09 -55.353)" fill="#ffcc00">
  <use x="305.79999" y="76.900002" xlink:href="#a"/>
  <use x="310.24799" y="76.900002" xlink:href="#ac"/>
  <use x="314.69601" y="76.900002" xlink:href="#m"/>
  <use x="317.35999" y="76.900002" xlink:href="#a"/>
  <use x="321.80801" y="76.900002" xlink:href="#d"/>
  <use x="324.92001" y="76.900002" xlink:href="#ab"/>
  <use x="329.80801" y="76.900002" xlink:href="#aa"/>
  <use x="334.25601" y="76.900002" xlink:href="#z"/>
  <use x="338.79999" y="76.900002" xlink:href="#y"/>
  <use x="343.68799" y="76.900002" xlink:href="#a"/>
  <use x="348.13599" y="76.900002" xlink:href="#x"/>
  <use x="352.58401" y="76.900002" xlink:href="#o"/>
  <use x="354.80801" y="76.900002" xlink:href="#g"/>
  <use x="359.25601" y="76.900002" xlink:href="#a"/>
 </g>
 <g fill="none" stroke="#000" stroke-linecap="round" stroke-miterlimit="10" stroke-width=".66667">
  <path d="m7.7099 27.147h57.598"/>
  <path d="m65.308 27.147v79.199"/>
  <path d="m65.308 106.35h-57.598"/>
 </g>
 <g transform="translate(-147.09 -55.353)" fill="#007fff">
  <use x="164.2" y="123.7" xlink:href="#t"/>
  <use x="169.088" y="123.7" xlink:href="#d"/>
  <use x="172.2" y="123.7" xlink:href="#f"/>
  <use x="177.088" y="123.7" xlink:href="#g"/>
  <use x="181.536" y="123.7" xlink:href="#a"/>
  <use x="185.98399" y="123.7" xlink:href="#n"/>
  <use x="190.43201" y="123.7" xlink:href="#n"/>
  <use x="194.88" y="123.7" xlink:href="#f"/>
  <use x="199.76801" y="123.7" xlink:href="#d"/>
 </g>
 <g fill="none" stroke="#000" stroke-linecap="round" stroke-miterlimit="10" stroke-width=".66667">
  <path d="m119.01 94.346v-43.5"/>
  <path d="m119.01 50.748h36"/>
  <path d="m155.01 50.748v43.5"/>
  <path d="m155.01 94.346h-36"/>
 </g>
 <g transform="translate(-147.09 -55.353)" fill="#00ff00">
  <use x="272.10001" y="100.5" xlink:href="#g"/>
  <use x="276.548" y="100.5" xlink:href="#o"/>
  <use x="278.772" y="100.5" xlink:href="#d"/>
  <use x="281.884" y="100.5" xlink:href="#g"/>
  <use x="286.332" y="100.5" xlink:href="#s"/>
  <use x="291.22" y="100.5" xlink:href="#o"/>
  <use x="293.444" y="100.5" xlink:href="#m"/>
 </g>
 <g fill="none" stroke="#000" stroke-linecap="round" stroke-miterlimit="10" stroke-width=".41667">
  <path d="m65.308 59.447h53.703"/>
  <path d="m111.81 61.248 7.2031-1.8008"/>
  <path d="m111.81 60.647 7.3008-1.1992"/>
  <path d="m111.71 60.045 7.3984-.5"/>
  <path d="m111.61 59.447h7.4023"/>
  <path d="m111.71 58.846 7.3984.5"/>
  <path d="m111.81 58.248 7.3008 1.1992"/>
  <path d="m111.81 57.647 7.2031 1.8008"/>
  <path d="m65.308 68.248h53.703"/>
  <path d="m111.81 70.045 7.2031-1.7969"/>
  <path d="m111.81 69.346 7.3008-1.1992"/>
  <path d="m111.71 68.748 7.3984-.5"/>
  <path d="m111.61 68.248h7.4023"/>
  <path d="m111.71 67.545 7.3984.5"/>
  <path d="m111.81 66.947 7.3008 1.1992"/>
  <path d="m111.81 66.447 7.2031 1.8008"/>
  <path d="m65.308 85.647h53.703"/>
  <path d="m111.81 87.447 7.2031-1.8008"/>
  <path d="m111.81 86.748 7.3008-1.2031"/>
  <path d="m111.71 86.248 7.3984-.5"/>
  <path d="m111.61 85.647h7.4023"/>
  <path d="m111.71 84.947 7.3984.5"/>
  <path d="m111.81 84.447 7.3008 1.1992"/>
  <path d="m111.81 83.846 7.2031 1.8008"/>
 </g>
 <g transform="translate(-147.09 -55.353)" fill="#000000">
  <use x="229" y="132.5" xlink:href="#l"/>
  <use x="229" y="128.89999" xlink:href="#l"/>
  <use x="229" y="136.10001" xlink:href="#l"/>
 </g>
 <g fill="none" stroke="#000" stroke-linecap="round" stroke-miterlimit="10">
  <g stroke-width=".66667">
   <path d="m250.51 62.346v-5.6992"/>
   <path d="m250.51 56.647h5.6992"/>
   <path d="m256.21 56.647v5.6992"/>
   <path d="m256.21 62.346h-5.6992"/>
   <path d="m250.51 71.045v-5.6992"/>
   <path d="m250.51 65.346h5.6992"/>
   <path d="m256.21 65.346v5.6992"/>
   <path d="m256.21 71.045h-5.6992"/>
   <path d="m250.51 88.545v-5.6992"/>
   <path d="m250.51 82.748h5.6992"/>
   <path d="m256.21 82.748v5.6992"/>
   <path d="m256.21 88.545h-5.6992"/>
  </g>
  <g>
   <path d="m155.01 59.447h95.398"/>
   <path d="m243.31 61.248 7.2031-1.8008"/>
   <path d="m243.21 60.647 7.3008-1.1992"/>
   <path d="m243.11 60.045 7.4023-.5"/>
   <path d="m243.01 59.447h7.3984"/>
   <path d="m243.11 58.846 7.4023.5"/>
   <path d="m243.21 58.248 7.3008 1.1992"/>
   <path d="m243.31 57.647 7.2031 1.8008"/>
   <path d="m155.01 68.248h95.398"/>
   <path d="m243.31 70.045 7.2031-1.7969"/>
   <path d="m243.21 69.346 7.3008-1.1992"/>
   <path d="m243.11 68.748 7.4023-.5"/>
   <path d="m243.01 68.248h7.3984"/>
   <path d="m243.11 67.545 7.4023.5"/>
   <path d="m243.21 66.947 7.3008 1.1992"/>
   <path d="m243.31 66.447 7.2031 1.8008"/>
   <path d="m155.01 85.647h95.398"/>
   <path d="m243.31 87.447 7.2031-1.8008"/>
   <path d="m243.21 86.748 7.3008-1.2031"/>
   <path d="m243.11 86.248 7.4023-.5"/>
   <path d="m243.01 85.647h7.3984"/>
   <path d="m243.11 84.947 7.4023.5"/>
   <path d="m243.21 84.447 7.3008 1.1992"/>
   <path d="m243.31 83.846 7.2031 1.8008"/>
  </g>
 </g>
 <g transform="translate(-147.09 -55.353)" fill="#000000">
  <use x="348.20001" y="132.89999" xlink:href="#k"/>
  <use x="348.20001" y="129.3" xlink:href="#k"/>
  <use x="348.20001" y="136.5" xlink:href="#k"/>
 </g>
 <g fill="none" stroke="#000" stroke-linecap="round" stroke-miterlimit="10">
  <path d="m137.01 94.346v19.199"/>
  <path d="m137.01 113.55c0 3.9766 3.2227 7.2031 7.1992 7.2031"/>
  <path d="m144.21 120.75h23"/>
  <path d="m160.11 122.55 7.1992-1.7969"/>
  <path d="m160.01 121.95 7.2969-1.1992"/>
  <path d="m159.91 121.35 7.3984-.5"/>
  <path d="m159.91 120.75h7.3984"/>
  <path d="m159.91 120.15 7.3984.5"/>
  <path d="m160.01 119.55 7.2969 1.2031"/>
  <path d="m160.11 118.95 7.1992 1.8008"/>
 </g>
 <g transform="translate(-147.09 -55.353)" fill="#ff6600">
  <use x="320.10001" y="177.7" xlink:href="#m"/>
  <use x="322.76401" y="177.7" xlink:href="#f"/>
  <use x="329.79999" y="177.7" xlink:href="#t"/>
  <use x="334.68799" y="177.7" xlink:href="#f"/>
  <use x="339.57599" y="177.7" xlink:href="#ad"/>
  <use x="345.79999" y="177.7" xlink:href="#a"/>
  <use x="350.24799" y="177.7" xlink:href="#d"/>
  <use x="355.60001" y="177.7" xlink:href="#n"/>
  <use x="360.048" y="177.7" xlink:href="#f"/>
  <use x="364.936" y="177.7" xlink:href="#s"/>
  <use x="369.82401" y="177.7" xlink:href="#d"/>
  <use x="372.936" y="177.7" xlink:href="#g"/>
  <use x="377.384" y="177.7" xlink:href="#a"/>
 </g>
 <g fill="none" stroke="#000" stroke-linecap="round" stroke-miterlimit="10">
  <path d="m83.308 14.248v41.598" stroke-width=".25"/>
  <g stroke-width=".85">
   <path d="m81.511 48.647 1.7969 7.1992"/>
   <path d="m82.011 48.545 1.1992 7.3008"/>
   <path d="m82.71 48.447.5 7.3984"/>
   <path d="m83.308 48.447v7.3984"/>
   <path d="m83.808 48.447-.5 7.3984"/>
   <path d="m84.511 48.545-1.2031 7.3008"/>
   <path d="m85.108 48.647-1.8008 7.1992"/>
  </g>
  <path d="m202.81 40.045v15.801" stroke-width=".25"/>
  <g stroke-width=".85">
   <path d="m201.01 48.647 1.7969 7.1992"/>
   <path d="m201.51 48.545 1.1992 7.3008"/>
   <path d="m202.21 48.447.5 7.3984"/>
   <path d="m202.81 48.447v7.3984"/>
   <path d="m203.31 48.447-.5 7.3984"/>
   <path d="m204.01 48.545-1.2031 7.3008"/>
   <path d="m204.61 48.647-1.8008 7.1992"/>
  </g>
  <path d="m253.31 40.045v13.602" stroke-width=".25"/>
  <path d="m251.51 46.545 1.7969 7.2031" stroke-width=".85"/>
  <g stroke-width=".25">
   <path d="m252.21 46.346 1.1992 7.3008"/>
   <path d="m252.71 46.346.5 7.4023"/>
   <path d="m253.31 46.248v7.3984"/>
   <path d="m254.01 46.346-.5 7.4023"/>
   <path d="m254.51 46.346-1.2031 7.3008"/>
  </g>
  <path d="m255.21 46.545-1.8008 7.2031" stroke-width=".85"/>
 </g>
 <g transform="translate(-147.09 -55.353)">
  <use x="207.5" y="67.599998" xlink:href="#w"/>
  <use x="211.5" y="67.599998" xlink:href="#c"/>
  <use x="213.724" y="67.599998" xlink:href="#i"/>
  <use x="217.724" y="67.599998" xlink:href="#c"/>
  <use x="219.948" y="67.599998" xlink:href="#j"/>
  <use x="222.172" y="67.599998" xlink:href="#h"/>
  <use x="226.172" y="67.599998" xlink:href="#b"/>
  <use x="230.7" y="67.599998" xlink:href="#e"/>
  <use x="233.812" y="67.599998" xlink:href="#c"/>
  <use x="236.036" y="67.599998" xlink:href="#i"/>
  <use x="240.036" y="67.599998" xlink:href="#q"/>
  <use x="244.036" y="67.599998" xlink:href="#h"/>
  <use x="248.036" y="67.599998" xlink:href="#b"/>
  <use x="250.25999" y="67.599998" xlink:href="#e"/>
  <use x="322.5" y="93.400002" xlink:href="#p"/>
  <use x="326.052" y="93.400002" xlink:href="#b"/>
  <use x="328.276" y="93.400002" xlink:href="#p"/>
  <use x="331.828" y="93.400002" xlink:href="#r"/>
  <use x="335.38" y="93.400002" xlink:href="#j"/>
  <use x="337.604" y="93.400002" xlink:href="#v"/>
  <use x="340.716" y="93.400002" xlink:href="#c"/>
  <use x="342.94" y="93.400002" xlink:href="#r"/>
  <use x="346.492" y="93.400002" xlink:href="#h"/>
  <use x="350.492" y="93.400002" xlink:href="#b"/>
  <use x="354.80002" y="93.400002" xlink:href="#e"/>
  <use x="357.91202" y="93.400002" xlink:href="#c"/>
  <use x="360.13602" y="93.400002" xlink:href="#i"/>
  <use x="364.13602" y="93.400002" xlink:href="#q"/>
  <use x="368.13602" y="93.400002" xlink:href="#h"/>
  <use x="372.13602" y="93.400002" xlink:href="#b"/>
  <use x="374.36002" y="93.400002" xlink:href="#e"/>
  <use x="391.60001" y="93.400002" xlink:href="#b"/>
  <use x="393.82401" y="93.400002" xlink:href="#c"/>
  <use x="396.048" y="93.400002" xlink:href="#i"/>
  <use x="400.048" y="93.400002" xlink:href="#u"/>
  <use x="404.048" y="93.400002" xlink:href="#j"/>
  <use x="406.272" y="93.400002" xlink:href="#e"/>
 </g>
</svg>
