<svg width="280" height="250" version="1.0" viewBox="0 0 280 250" xmlns="http://www.w3.org/2000/svg">
 <g transform="translate(0 -16.667)">
  <g fill="white">
   <path fill="yellow" d="m222.23 230.8v-29.804h30.011v29.804z"/>
   <path fill="yellow" d="m222.23 140.8v-29.804h30.011v29.804z"/>
   <path fill="yellow" d="m222.23 170.8v-29.804h30.011v29.804z"/>
   <path fill="yellow" d="m222.23 200.8v-29.804h30.011v29.804z"/>
  </g>
  <g fill="none" stroke="black">
   <path d="m222.5 231.26 29.486 0.17065" stroke-width=".51429"/>
   <path d="m222.61 96.317-0.0512 149.37" stroke-width=".63378"/>
   <path d="m252.61 96.317-0.0512 149.37" stroke-width=".63377"/>
   <g stroke-width=".51429">
    <path d="m222.5 201.26 29.486 0.17065"/>
    <path d="m222.5 170.57 29.486 0.17065"/>
    <path d="m222.5 141.26 29.486 0.17064"/>
    <path d="m222.5 111.26 29.486 0.17064"/>
   </g>
  </g>
  <text transform="rotate(90)" x="102.22559" y="-236.53799" fill="black" font-family="'Arial Black'" font-size="20px" text-align="center" text-anchor="middle" style="line-height:0%" xml:space="preserve"><tspan x="102.22559" y="-236.53799" font-family="'Times New Roman'" font-size="18px">...</tspan></text>
  <text transform="rotate(90)" x="240.47557" y="-236.53799" fill="black" font-family="'Arial Black'" font-size="20px" text-align="center" text-anchor="middle" style="line-height:0%" xml:space="preserve"><tspan x="240.47557" y="-236.53799" font-family="'Times New Roman'" font-size="18px">...</tspan></text>
  <g fill="none">
   <rect fill="none" x="182.24" y="206" width="40" height="25"/>
   <rect fill="none" x="182.24" y="176" width="40" height="25"/>
   <rect fill="none" x="182.24" y="146" width="40" height="25"/>
   <rect fill="none" x="182.24" y="116" width="40" height="25"/>
  </g>
  <path d="m141.79 90.111v-32.662h-121.78v32.662z" fill="white" stroke="black" stroke-width=".89775"/>
  <g fill-rule="evenodd">
   <path d="m39.556 90.094-0.8125 124.5 137.5 0.90625v1l-138-0.875-0.53125-0.0312v-0.5l0.8125-125h1.0312z"/>
   <path d="m165.95 215.93-4.0911-4.1451 14.386 4.2126-14.44 4.0236z" stroke="black" stroke-width=".82365pt"/>
   <path d="m67.556 90 0.71875 95.875 108.47 0.125v1l-108.97-0.125h-0.5v-0.5l-0.71875-96.375z"/>
   <path d="m166.74 186.49-3.9958-4.0042 13.996 4.0148-14.004 3.9852z" stroke="black" stroke-width=".8pt"/>
   <path d="m98.618 90.375-0.5 64.687 78.125 0.9375v1l-78.656-0.9375h-0.46875v-0.5l0.5-65.187z"/>
   <path d="m166.24 156.38-3.9524-4.0471 13.952 4.1655-14.046 3.834z" stroke="black" stroke-width=".8pt"/>
   <path d="m126.06 90 0.125 35.469 50.062 0.53125v1l-50.562-0.53125-0.5-0.0312v-0.46875l-0.125-35.969h1z"/>
   <path d="m166.24 126.39-3.9569-4.0427 13.956 4.1499-14.042 3.8497z" stroke="black" stroke-width=".8pt"/>
  </g>
 </g>
 <g transform="translate(0 -16.667)">
  <g aria-label="0D">
   <path d="m230.67 119.45q1.8721 0 2.9268 1.3359 1.2568 1.582 1.2568 5.2471 0 3.6562-1.2656 5.2559-1.0459 1.3184-2.918 1.3184-1.8809 0-3.0322-1.4414-1.1514-1.4502-1.1514-5.1592 0-3.6387 1.2656-5.2383 1.0459-1.3184 2.918-1.3184zm0 2.0478q-0.44824 0-0.7998 0.29004-0.35157 0.28125-0.54492 1.0195-0.25489 0.95801-0.25489 3.2256t0.22852 3.1201q0.22851 0.84375 0.57129 1.125 0.35156 0.28125 0.7998 0.28125t0.79981-0.28125q0.35156-0.29004 0.54492-1.0283 0.25488-0.94922 0.25488-3.2168t-0.22851-3.1113q-0.22852-0.85254-0.58008-1.1338-0.34278-0.29004-0.79102-0.29004z"/>
   <path d="m237.05 119.5h4.7549q1.6084 0 2.4522 0.24609 1.1338 0.33398 1.9424 1.1865 0.80859 0.85254 1.2305 2.0918 0.42188 1.2305 0.42188 3.041 0 1.5908-0.39551 2.7422-0.4834 1.4062-1.3799 2.2764-0.67676 0.65918-1.8281 1.0283-0.86132 0.27246-2.3027 0.27246h-4.8955zm2.6016 2.1797v8.5342h1.9424q1.0898 0 1.5732-0.12304 0.63281-0.15821 1.0459-0.53614 0.42187-0.37793 0.68554-1.2392 0.26368-0.87012 0.26368-2.3643t-0.26368-2.294q-0.26367-0.7998-0.73828-1.248-0.47461-0.44825-1.2041-0.60645-0.54492-0.12305-2.1357-0.12305z"/>
  </g>
  <g aria-label="0C">
   <path d="m230.67 149.45q1.8721 0 2.9268 1.3359 1.2568 1.582 1.2568 5.2471 0 3.6562-1.2656 5.2559-1.0459 1.3184-2.918 1.3184-1.8809 0-3.0322-1.4414-1.1514-1.4502-1.1514-5.1592 0-3.6387 1.2656-5.2383 1.0459-1.3184 2.918-1.3184zm0 2.0478q-0.44824 0-0.7998 0.29004-0.35157 0.28125-0.54492 1.0195-0.25489 0.95801-0.25489 3.2256 0 2.2676 0.22852 3.1201 0.22851 0.84375 0.57129 1.125 0.35156 0.28125 0.7998 0.28125t0.79981-0.28125q0.35156-0.29004 0.54492-1.0283 0.25488-0.94922 0.25488-3.2168 0-2.2676-0.22851-3.1113-0.22852-0.85254-0.58008-1.1338-0.34278-0.29004-0.79102-0.29004z"/>
   <path d="m245.3 157.65 2.5225 0.79981q-0.58008 2.1094-1.9336 3.1377-1.3447 1.0195-3.419 1.0195-2.5664 0-4.2188-1.749-1.6523-1.7578-1.6523-4.7988 0-3.2168 1.6611-4.9922 1.6611-1.7842 4.3682-1.7842 2.3642 0 3.8408 1.3975 0.8789 0.82617 1.3184 2.373l-2.5752 0.61524q-0.22852-1.002-0.95801-1.582-0.7207-0.58008-1.7578-0.58008-1.4326 0-2.3291 1.0283-0.8877 1.0283-0.8877 3.331 0 2.4434 0.87891 3.4805t2.2852 1.0371q1.0371 0 1.7842-0.65918 0.74707-0.65918 1.0723-2.0742z"/>
  </g>
  <g aria-label="0B">
   <path d="m230.67 179.45q1.8721 0 2.9268 1.3359 1.2568 1.582 1.2568 5.2471 0 3.6562-1.2656 5.2559-1.0459 1.3184-2.918 1.3184-1.8809 0-3.0322-1.4414-1.1514-1.4502-1.1514-5.1592 0-3.6387 1.2656-5.2383 1.0459-1.3184 2.918-1.3184zm0 2.0478q-0.44824 0-0.7998 0.29004-0.35157 0.28125-0.54492 1.0195-0.25489 0.95801-0.25489 3.2256t0.22852 3.1201q0.22851 0.84375 0.57129 1.125 0.35156 0.28125 0.7998 0.28125t0.79981-0.28125q0.35156-0.29004 0.54492-1.0283 0.25488-0.94922 0.25488-3.2168t-0.22851-3.1113q-0.22852-0.85254-0.58008-1.1338-0.34278-0.29004-0.79102-0.29004z"/>
   <path d="m237.07 179.5h5.1504q1.5293 0 2.2764 0.13183 0.75586 0.12305 1.3447 0.52735 0.59766 0.40429 0.99317 1.081 0.39551 0.66797 0.39551 1.5029 0 0.90527-0.49219 1.6611-0.4834 0.75586-1.3184 1.1338 1.1777 0.34278 1.8106 1.169 0.63281 0.82617 0.63281 1.9424 0 0.87891-0.41309 1.7139-0.40429 0.82617-1.1162 1.3272-0.70312 0.49218-1.7402 0.60644-0.65039 0.0703-3.1377 0.0879h-4.3857zm2.6016 2.1445v2.9795h1.7051q1.5205 0 1.8896-0.0439 0.66797-0.0791 1.0459-0.45703 0.38672-0.38672 0.38672-1.0107 0-0.59766-0.33399-0.9668-0.32519-0.37793-0.97558-0.45703-0.38672-0.0439-2.2236-0.0439zm0 5.124v3.4453h2.4082q1.4062 0 1.7842-0.0791 0.58008-0.10547 0.94043-0.50976 0.36914-0.41309 0.36914-1.0986 0-0.58007-0.28125-0.98437t-0.81738-0.58887q-0.52734-0.18457-2.3027-0.18457z"/>
  </g>
  <g aria-label="0A">
   <path d="m230.67 209.45q1.8721 0 2.9268 1.3359 1.2568 1.582 1.2568 5.2471 0 3.6562-1.2656 5.2559-1.0459 1.3184-2.918 1.3184-1.8809 0-3.0322-1.4414-1.1514-1.4502-1.1514-5.1592 0-3.6387 1.2656-5.2383 1.0459-1.3184 2.918-1.3184zm0 2.0478q-0.44824 0-0.7998 0.29004-0.35157 0.28125-0.54492 1.0195-0.25489 0.95801-0.25489 3.2256t0.22852 3.1201q0.22851 0.84375 0.57129 1.125 0.35156 0.28125 0.7998 0.28125t0.79981-0.28125q0.35156-0.29004 0.54492-1.0283 0.25488-0.94922 0.25488-3.2168t-0.22851-3.1113q-0.22852-0.85254-0.58008-1.1338-0.34278-0.29004-0.79102-0.29004z"/>
   <path d="m248.68 222.39h-2.8301l-1.125-2.9268h-5.1504l-1.0635 2.9268h-2.7598l5.0186-12.885h2.751zm-4.79-5.0976-1.7754-4.7812-1.7402 4.7812z"/>
  </g>
  <g aria-label="a:">
   <path d="m213.69 123.05-1.7139 5.959-0.19336 0.7998q-0.0264 0.11426-0.0264 0.19336 0 0.14063 0.0879 0.2461 0.0703 0.0791 0.17578 0.0791 0.11425 0 0.29883-0.14063 0.34277-0.25488 0.91406-1.0547l0.29883 0.21093q-0.60645 0.91407-1.248 1.3975-0.6416 0.47461-1.1865 0.47461-0.37793 0-0.57129-0.19336-0.18457-0.18457-0.18457-0.54492 0-0.43066 0.19336-1.1338l0.18457-0.65918q-1.1514 1.5029-2.1182 2.1006-0.69433 0.43066-1.3623 0.43066-0.6416 0-1.1074-0.52734-0.46583-0.53613-0.46583-1.4678 0-1.3975 0.83497-2.9443 0.84375-1.5557 2.1357-2.4873 1.0107-0.73829 1.9072-0.73829 0.53614 0 0.8877 0.28125 0.36035 0.28125 0.54492 0.93165l0.31641-1.002zm-3.1289 0.45704q-0.5625 0-1.1953 0.52734-0.89648 0.74707-1.5996 2.2148-0.69434 1.4678-0.69434 2.6543 0 0.59766 0.29883 0.94922 0.29883 0.34277 0.68555 0.34277 0.95801 0 2.083-1.415 1.5029-1.8809 1.5029-3.8584 0-0.74708-0.29004-1.0811t-0.79102-0.33398z"/>
   <path d="m216.78 122.71q0.4043 0 0.68555 0.29004 0.29003 0.28125 0.29003 0.68555 0 0.40429-0.29003 0.69433-0.28125 0.28125-0.68555 0.28125t-0.69434-0.28125q-0.28125-0.29004-0.28125-0.69433 0-0.4043 0.28125-0.68555 0.29004-0.29004 0.69434-0.29004zm-0.0176 6.583q0.41309 0 0.69434 0.29004 0.29004 0.29004 0.29004 0.69433 0 0.4043-0.29004 0.69434-0.29004 0.28125-0.69434 0.28125t-0.69434-0.28125q-0.28125-0.29004-0.28125-0.69434 0-0.40429 0.28125-0.69433 0.29004-0.29004 0.69434-0.29004z"/>
  </g>
  <g aria-label="a+1:">
   <path d="m194.53 153.05-1.7139 5.959-0.19336 0.7998q-0.0264 0.11426-0.0264 0.19336 0 0.14063 0.0879 0.2461 0.0703 0.0791 0.17578 0.0791 0.11426 0 0.29883-0.14063 0.34277-0.25488 0.91406-1.0547l0.29883 0.21093q-0.60645 0.91407-1.248 1.3975-0.6416 0.47461-1.1865 0.47461-0.37793 0-0.57129-0.19336-0.18457-0.18457-0.18457-0.54492 0-0.43066 0.19336-1.1338l0.18457-0.65918q-1.1514 1.5029-2.1182 2.1006-0.69434 0.43066-1.3623 0.43066-0.6416 0-1.1074-0.52734-0.46582-0.53613-0.46582-1.4678 0-1.3975 0.83496-2.9443 0.84375-1.5557 2.1357-2.4873 1.0107-0.73829 1.9072-0.73829 0.53613 0 0.88769 0.28125 0.36036 0.28125 0.54493 0.93165l0.3164-1.002zm-3.1289 0.45704q-0.5625 0-1.1953 0.52734-0.89648 0.74707-1.5996 2.2148-0.69433 1.4678-0.69433 2.6543 0 0.59766 0.29883 0.94922 0.29882 0.34277 0.68554 0.34277 0.95801 0 2.083-1.415 1.5029-1.8809 1.5029-3.8584 0-0.74707-0.29004-1.081t-0.79101-0.33398z"/>
   <path d="m199.78 159.76v-4.3857h-4.377v-0.72071h4.377v-4.3682h0.70313v4.3682h4.3945v0.72071h-4.3945v4.3857z"/>
   <path d="m207.35 150.25 2.9004-1.415h0.29003v10.063q0 1.002 0.0791 1.248 0.0879 0.24609 0.35156 0.37793 0.26367 0.13183 1.0723 0.14941v0.3252h-4.4824v-0.3252q0.84375-0.0176 1.0898-0.14062 0.24609-0.13184 0.34277-0.34278 0.0967-0.21972 0.0967-1.292v-6.4336q0-1.3008-0.0879-1.6699-0.0615-0.28125-0.22852-0.41308-0.1582-0.13184-0.38672-0.13184-0.32519 0-0.90527 0.27246z"/>
   <path d="m216.78 152.71q0.4043 0 0.68555 0.29004 0.29003 0.28125 0.29003 0.68555 0 0.40429-0.29003 0.69433-0.28125 0.28125-0.68555 0.28125t-0.69434-0.28125q-0.28125-0.29004-0.28125-0.69433 0-0.4043 0.28125-0.68555 0.29004-0.29004 0.69434-0.29004zm-0.0176 6.583q0.41309 0 0.69434 0.29004 0.29004 0.29004 0.29004 0.69433 0 0.4043-0.29004 0.69434-0.29004 0.28125-0.69434 0.28125t-0.69434-0.28125q-0.28125-0.29004-0.28125-0.69434 0-0.40429 0.28125-0.69433 0.29004-0.29004 0.69434-0.29004z"/>
  </g>
  <g aria-label="a+2:">
   <path d="m194.53 183.05-1.7139 5.959-0.19336 0.7998q-0.0264 0.11426-0.0264 0.19336 0 0.14063 0.0879 0.2461 0.0703 0.0791 0.17578 0.0791 0.11426 0 0.29883-0.14063 0.34277-0.25488 0.91406-1.0547l0.29883 0.21093q-0.60645 0.91407-1.248 1.3975-0.6416 0.47461-1.1865 0.47461-0.37793 0-0.57129-0.19336-0.18457-0.18457-0.18457-0.54492 0-0.43066 0.19336-1.1338l0.18457-0.65918q-1.1514 1.5029-2.1182 2.1006-0.69434 0.43066-1.3623 0.43066-0.6416 0-1.1074-0.52734-0.46582-0.53613-0.46582-1.4678 0-1.3975 0.83496-2.9443 0.84375-1.5557 2.1357-2.4873 1.0107-0.73829 1.9072-0.73829 0.53613 0 0.88769 0.28125 0.36036 0.28125 0.54493 0.93165l0.3164-1.002zm-3.1289 0.45704q-0.5625 0-1.1953 0.52734-0.89648 0.74707-1.5996 2.2148-0.69433 1.4678-0.69433 2.6543 0 0.59766 0.29883 0.94922 0.29882 0.34277 0.68554 0.34277 0.95801 0 2.083-1.415 1.5029-1.8809 1.5029-3.8584 0-0.74707-0.29004-1.081t-0.79101-0.33398z"/>
   <path d="m199.78 189.76v-4.3857h-4.377v-0.72071h4.377v-4.3682h0.70313v4.3682h4.3945v0.72071h-4.3945v4.3857z"/>
   <path d="m213.49 188.71-0.83496 2.294h-7.0312v-0.3252q3.1025-2.8301 4.3682-4.623 1.2656-1.793 1.2656-3.2783 0-1.1338-0.69434-1.8633-0.69433-0.72949-1.6611-0.72949-0.87891 0-1.582 0.51855-0.69434 0.50977-1.0283 1.5029h-0.3252q0.21973-1.626 1.125-2.4961 0.91406-0.87012 2.2764-0.87012 1.4502 0 2.417 0.93164 0.97559 0.93164 0.97559 2.1973 0 0.90527-0.42188 1.8106-0.65039 1.4238-2.1094 3.0146-2.1885 2.3906-2.7334 2.8828h3.1113q0.94922 0 1.3272-0.0703 0.38671-0.0703 0.69433-0.28125 0.30762-0.21973 0.53613-0.61524z"/>
   <path d="m216.78 182.71q0.4043 0 0.68555 0.29004 0.29003 0.28125 0.29003 0.68555 0 0.40429-0.29003 0.69433-0.28125 0.28125-0.68555 0.28125t-0.69434-0.28125q-0.28125-0.29004-0.28125-0.69433 0-0.4043 0.28125-0.68555 0.29004-0.29004 0.69434-0.29004zm-0.0176 6.583q0.41309 0 0.69434 0.29004 0.29004 0.29004 0.29004 0.69433 0 0.4043-0.29004 0.69434-0.29004 0.28125-0.69434 0.28125t-0.69434-0.28125q-0.28125-0.29004-0.28125-0.69434 0-0.40429 0.28125-0.69433 0.29004-0.29004 0.69434-0.29004z"/>
  </g>
  <g aria-label="a+3:">
   <path d="m194.53 213.05-1.7139 5.959-0.19336 0.7998q-0.0264 0.11426-0.0264 0.19336 0 0.14063 0.0879 0.2461 0.0703 0.0791 0.17578 0.0791 0.11426 0 0.29883-0.14063 0.34277-0.25488 0.91406-1.0547l0.29883 0.21093q-0.60645 0.91407-1.248 1.3975-0.6416 0.47461-1.1865 0.47461-0.37793 0-0.57129-0.19336-0.18457-0.18457-0.18457-0.54492 0-0.43066 0.19336-1.1338l0.18457-0.65918q-1.1514 1.5029-2.1182 2.1006-0.69434 0.43066-1.3623 0.43066-0.6416 0-1.1074-0.52734-0.46582-0.53613-0.46582-1.4678 0-1.3975 0.83496-2.9443 0.84375-1.5557 2.1357-2.4873 1.0107-0.73829 1.9072-0.73829 0.53613 0 0.88769 0.28125 0.36036 0.28125 0.54493 0.93165l0.3164-1.002zm-3.1289 0.45704q-0.5625 0-1.1953 0.52734-0.89648 0.74707-1.5996 2.2148-0.69433 1.4678-0.69433 2.6543 0 0.59766 0.29883 0.94922 0.29882 0.34277 0.68554 0.34277 0.95801 0 2.083-1.415 1.5029-1.8809 1.5029-3.8584 0-0.74707-0.29004-1.081t-0.79101-0.33398z"/>
   <path d="m199.78 219.76v-4.3857h-4.377v-0.72071h4.377v-4.3682h0.70313v4.3682h4.3945v0.72071h-4.3945v4.3857z"/>
   <path d="m206.15 211.35q0.50977-1.2041 1.2832-1.8545 0.78222-0.65918 1.9424-0.65918 1.4326 0 2.1973 0.93164 0.58008 0.69434 0.58008 1.4854 0 1.3008-1.6348 2.6894 1.0986 0.43066 1.6611 1.2305 0.5625 0.7998 0.5625 1.8809 0 1.5469-0.98438 2.6807-1.2832 1.4766-3.7178 1.4766-1.2041 0-1.6436-0.29882-0.43067-0.29883-0.43067-0.64161 0-0.25488 0.20215-0.44824 0.21094-0.19336 0.50098-0.19336 0.21972 0 0.44824 0.0703 0.14941 0.0439 0.67676 0.3252 0.52734 0.27246 0.72949 0.3252 0.32519 0.0967 0.69434 0.0967 0.89648 0 1.5557-0.69434 0.66797-0.69434 0.66797-1.6436 0-0.69433-0.30762-1.3535-0.22851-0.49219-0.50098-0.74707-0.37793-0.35156-1.0371-0.63281-0.65917-0.29004-1.3447-0.29004h-0.28125v-0.26367q0.69433-0.0879 1.3887-0.50098 0.70313-0.41309 1.0195-0.99317 0.31641-0.58007 0.31641-1.2744 0-0.90527-0.57129-1.459-0.5625-0.5625-1.4062-0.5625-1.3623 0-2.2764 1.459z"/>
   <path d="m216.78 212.71q0.4043 0 0.68555 0.29004 0.29003 0.28125 0.29003 0.68555 0 0.40429-0.29003 0.69433-0.28125 0.28125-0.68555 0.28125t-0.69434-0.28125q-0.28125-0.29004-0.28125-0.69433 0-0.4043 0.28125-0.68555 0.29004-0.29004 0.69434-0.29004zm-0.0176 6.583q0.41309 0 0.69434 0.29004 0.29004 0.29004 0.29004 0.69433 0 0.4043-0.29004 0.69434-0.29004 0.28125-0.69434 0.28125t-0.69434-0.28125q-0.28125-0.29004-0.28125-0.69434 0-0.40429 0.28125-0.69433 0.29004-0.29004 0.69434-0.29004z"/>
  </g>
  <g>
   <g aria-label="32-bit integer">
    <path d="m38.061 39.531q0.45312-1.0703 1.1406-1.6484 0.69531-0.58594 1.7266-0.58594 1.2734 0 1.9531 0.82812 0.51562 0.61719 0.51562 1.3203 0 1.1562-1.4531 2.3906 0.97656 0.38281 1.4766 1.0938 0.5 0.71094 0.5 1.6719 0 1.375-0.875 2.3828-1.1406 1.3125-3.3047 1.3125-1.0703 0-1.4609-0.26562-0.38281-0.26562-0.38281-0.57031 0-0.22656 0.17969-0.39844 0.1875-0.17188 0.44531-0.17188 0.19531 0 0.39844 0.0625 0.13281 0.03906 0.60156 0.28906 0.46875 0.24219 0.64844 0.28906 0.28906 0.08594 0.61719 0.08594 0.79688 0 1.3828-0.61719 0.59375-0.61719 0.59375-1.4609 0-0.61719-0.27344-1.2031-0.20312-0.4375-0.44531-0.66406-0.33594-0.3125-0.92188-0.5625-0.58594-0.25781-1.1953-0.25781h-0.25v-0.23438q0.61719-0.07813 1.2344-0.44531 0.625-0.36719 0.90625-0.88281t0.28125-1.1328q0-0.80469-0.50781-1.2969-0.5-0.5-1.25-0.5-1.2109 0-2.0234 1.2969z"/>
    <path d="m52.584 46.07-0.74219 2.0391h-6.25v-0.28906q2.7578-2.5156 3.8828-4.1094t1.125-2.9141q0-1.0078-0.61719-1.6562-0.61719-0.64844-1.4766-0.64844-0.78125 0-1.4062 0.46094-0.61719 0.45312-0.91406 1.3359h-0.28906q0.19531-1.4453 1-2.2188 0.8125-0.77344 2.0234-0.77344 1.2891 0 2.1484 0.82812 0.86719 0.82812 0.86719 1.9531 0 0.80469-0.375 1.6094-0.57812 1.2656-1.875 2.6797-1.9453 2.125-2.4297 2.5625h2.7656q0.84375 0 1.1797-0.0625 0.34375-0.0625 0.61719-0.25 0.27344-0.19531 0.47656-0.54688z"/>
    <path d="m53.897 43.93h4.0391v1.1797h-4.0391z"/>
    <path d="m61.053 42.188q1.0391-1.4453 2.2422-1.4453 1.1016 0 1.9219 0.94531 0.82031 0.9375 0.82031 2.5703 0 1.9062-1.2656 3.0703-1.0859 1-2.4219 1-0.625 0-1.2734-0.22656-0.64062-0.22656-1.3125-0.67969v-7.4141q0-1.2188-0.0625-1.5-0.05469-0.28125-0.17969-0.38281-0.125-0.10156-0.3125-0.10156-0.21875 0-0.54688 0.125l-0.10938-0.27344 2.1484-0.875h0.35156zm0 0.5v4.2812q0.39844 0.39062 0.82031 0.59375 0.42969 0.19531 0.875 0.19531 0.71094 0 1.3203-0.78125 0.61719-0.78125 0.61719-2.2734 0-1.375-0.61719-2.1094-0.60938-0.74219-1.3906-0.74219-0.41406 0-0.82812 0.21094-0.3125 0.15625-0.79688 0.625z"/>
    <path d="m68.912 37q0.32812 0 0.55469 0.23438 0.23438 0.22656 0.23438 0.55469t-0.23438 0.5625q-0.22656 0.23438-0.55469 0.23438t-0.5625-0.23438-0.23438-0.5625 0.22656-0.55469q0.23438-0.23438 0.57031-0.23438zm0.64844 3.7422v5.75q0 0.67188 0.09375 0.89844 0.10156 0.21875 0.28906 0.32812 0.19531 0.10938 0.70312 0.10938v0.28125h-3.4766v-0.28125q0.52344 0 0.70312-0.10156 0.17969-0.10156 0.28125-0.33594 0.10938-0.23438 0.10938-0.89844v-2.7578q0-1.1641-0.07031-1.5078-0.05469-0.25-0.17188-0.34375-0.11719-0.10156-0.32031-0.10156-0.21875 0-0.53125 0.11719l-0.10938-0.28125 2.1562-0.875z"/>
    <path d="m73.608 38.602v2.3516h1.6719v0.54688h-1.6719v4.6406q0 0.69531 0.19531 0.9375 0.20312 0.24219 0.51562 0.24219 0.25781 0 0.5-0.15625 0.24219-0.16406 0.375-0.47656h0.30469q-0.27344 0.76562-0.77344 1.1562-0.5 0.38281-1.0312 0.38281-0.35938 0-0.70312-0.19531-0.34375-0.20312-0.50781-0.57031-0.16406-0.375-0.16406-1.1484v-4.8125h-1.1328v-0.25781q0.42969-0.17188 0.875-0.57812 0.45312-0.41406 0.80469-0.97656 0.17969-0.29688 0.5-1.0859z"/>
    <path d="m81.787 37q0.32812 0 0.55469 0.23438 0.23438 0.22656 0.23438 0.55469t-0.23438 0.5625q-0.22656 0.23438-0.55469 0.23438t-0.5625-0.23438-0.23438-0.5625 0.22656-0.55469q0.23438-0.23438 0.57031-0.23438zm0.64844 3.7422v5.75q0 0.67188 0.09375 0.89844 0.10156 0.21875 0.28906 0.32812 0.19531 0.10938 0.70312 0.10938v0.28125h-3.4766v-0.28125q0.52344 0 0.70312-0.10156 0.17969-0.10156 0.28125-0.33594 0.10938-0.23438 0.10938-0.89844v-2.7578q0-1.1641-0.07031-1.5078-0.05469-0.25-0.17188-0.34375-0.11719-0.10156-0.32031-0.10156-0.21875 0-0.53125 0.11719l-0.10938-0.28125 2.1562-0.875z"/>
    <path d="m86.49 42.258q1.2578-1.5156 2.3984-1.5156 0.58594 0 1.0078 0.29688 0.42188 0.28906 0.67188 0.96094 0.17188 0.46875 0.17188 1.4375v3.0547q0 0.67969 0.10938 0.92188 0.08594 0.19531 0.27344 0.30469 0.19531 0.10938 0.71094 0.10938v0.28125h-3.5391v-0.28125h0.14844q0.5 0 0.69531-0.14844 0.20312-0.15625 0.28125-0.45312 0.03125-0.11719 0.03125-0.73438v-2.9297q0-0.97656-0.25781-1.4141-0.25-0.44531-0.85156-0.44531-0.92969 0-1.8516 1.0156v3.7734q0 0.72656 0.08594 0.89844 0.10938 0.22656 0.29688 0.33594 0.19531 0.10156 0.78125 0.10156v0.28125h-3.5391v-0.28125h0.15625q0.54688 0 0.73438-0.27344 0.19531-0.28125 0.19531-1.0625v-2.6562q0-1.2891-0.0625-1.5703-0.05469-0.28125-0.17969-0.38281-0.11719-0.10156-0.32031-0.10156-0.21875 0-0.52344 0.11719l-0.11719-0.28125 2.1562-0.875h0.33594z"/>
    <path d="m94.483 38.602v2.3516h1.6719v0.54688h-1.6719v4.6406q0 0.69531 0.19531 0.9375 0.20312 0.24219 0.51562 0.24219 0.25781 0 0.5-0.15625 0.24219-0.16406 0.375-0.47656h0.30469q-0.27344 0.76562-0.77344 1.1562-0.5 0.38281-1.0312 0.38281-0.35938 0-0.70312-0.19531-0.34375-0.20312-0.50781-0.57031-0.16406-0.375-0.16406-1.1484v-4.8125h-1.1328v-0.25781q0.42969-0.17188 0.875-0.57812 0.45312-0.41406 0.80469-0.97656 0.17969-0.29688 0.5-1.0859z"/>
    <path d="m98.045 43.648q-0.0078 1.5938 0.77344 2.5 0.78125 0.90625 1.8359 0.90625 0.70312 0 1.2188-0.38281 0.52343-0.39062 0.875-1.3281l0.24218 0.15625q-0.16406 1.0703-0.95312 1.9531-0.78906 0.875-1.9766 0.875-1.2891 0-2.2109-1-0.91406-1.0078-0.91406-2.7031 0-1.8359 0.9375-2.8594 0.94531-1.0312 2.3672-1.0312 1.2031 0 1.9766 0.79688 0.77343 0.78906 0.77343 2.1172zm0-0.45312h3.3125q-0.0391-0.6875-0.16406-0.96875-0.19531-0.4375-0.58594-0.6875-0.38281-0.25-0.80469-0.25-0.64844 0-1.1641 0.50781-0.50781 0.5-0.59375 1.3984z"/>
    <path d="m105.85 45.5q-0.65625-0.32031-1.0078-0.89062-0.35157-0.57812-0.35157-1.2734 0-1.0625 0.79688-1.8281 0.80469-0.76562 2.0547-0.76562 1.0234 0 1.7734 0.5h1.5156q0.33594 0 0.39062 0.02344 0.0547 0.01563 0.0781 0.0625 0.0469 0.07031 0.0469 0.25 0 0.20312-0.0391 0.28125-0.0234 0.03906-0.0859 0.0625-0.0547 0.02344-0.39062 0.02344h-0.92969q0.4375 0.5625 0.4375 1.4375 0 1-0.76562 1.7109-0.76563 0.71094-2.0547 0.71094-0.53125 0-1.0859-0.15625-0.34375 0.29688-0.46875 0.52344-0.11719 0.21875-0.11719 0.375 0 0.13281 0.125 0.25781 0.13282 0.125 0.50782 0.17969 0.21875 0.03125 1.0938 0.05469 1.6094 0.03906 2.0859 0.10938 0.72657 0.10156 1.1562 0.53906 0.4375 0.4375 0.4375 1.0781 0 0.88281-0.82812 1.6562-1.2188 1.1406-3.1797 1.1406-1.5078 0-2.5469-0.67969-0.58594-0.39062-0.58594-0.8125 0-0.1875 0.0859-0.375 0.13281-0.28906 0.54687-0.80469 0.0547-0.07031 0.79688-0.84375-0.40625-0.24219-0.57813-0.42969-0.16406-0.19531-0.16406-0.4375 0-0.27344 0.21875-0.64062 0.22656-0.36719 1.0312-1.0391zm1.3594-4.3828q-0.57812 0-0.96875 0.46094-0.39062 0.46094-0.39062 1.4141 0 1.2344 0.53125 1.9141 0.40625 0.51562 1.0312 0.51562 0.59375 0 0.97656-0.44531 0.38281-0.44531 0.38281-1.3984 0-1.2422-0.53906-1.9453-0.39844-0.51562-1.0234-0.51562zm-1.4375 6.9922q-0.36718 0.39844-0.55468 0.74219t-0.1875 0.63281q0 0.375 0.45312 0.65625 0.78125 0.48438 2.2578 0.48438 1.4062 0 2.0703-0.5 0.67187-0.49219 0.67187-1.0547 0-0.40625-0.39844-0.57812-0.40625-0.17188-1.6094-0.20312-1.7578-0.04687-2.7031-0.17969z"/>
    <path d="m113.14 43.648q-8e-3 1.5938 0.77344 2.5 0.78125 0.90625 1.8359 0.90625 0.70312 0 1.2188-0.38281 0.52343-0.39062 0.875-1.3281l0.24218 0.15625q-0.16406 1.0703-0.95312 1.9531-0.78906 0.875-1.9766 0.875-1.2891 0-2.2109-1-0.91406-1.0078-0.91406-2.7031 0-1.8359 0.9375-2.8594 0.94531-1.0312 2.3672-1.0312 1.2031 0 1.9766 0.79688 0.77343 0.78906 0.77343 2.1172zm0-0.45312h3.3125q-0.0391-0.6875-0.16406-0.96875-0.19531-0.4375-0.58594-0.6875-0.38281-0.25-0.80469-0.25-0.64843 0-1.1641 0.50781-0.50781 0.5-0.59375 1.3984z"/>
    <path d="m121.12 40.742v1.6094q0.89843-1.6094 1.8438-1.6094 0.42968 0 0.71093 0.26562 0.28125 0.25781 0.28125 0.60156 0 0.30469-0.20312 0.51562-0.20313 0.21094-0.48438 0.21094-0.27343 0-0.61718-0.26562-0.33594-0.27344-0.5-0.27344-0.14063 0-0.30469 0.15625-0.35156 0.32031-0.72656 1.0547v3.4297q0 0.59375 0.14843 0.89844 0.10157 0.21094 0.35938 0.35156t0.74219 0.14062v0.28125h-3.6641v-0.28125q0.54688 0 0.8125-0.17188 0.19532-0.125 0.27344-0.39844 0.0391-0.13281 0.0391-0.75781v-2.7734q0-1.25-0.0547-1.4844-0.0469-0.24219-0.1875-0.35156-0.13282-0.10938-0.33594-0.10938-0.24219 0-0.54688 0.11719l-0.0781-0.28125 2.1641-0.875z"/>
   </g>
   <g aria-label="Little-endian">
    <path d="m50.906 240.24 0.25781 0.0547-0.90625 2.875h-8.2031v-0.28906h0.39844q0.67188 0 0.96094-0.4375 0.16406-0.25 0.16406-1.1562v-6.8359q0-0.99219-0.21875-1.2422-0.30469-0.34375-0.90625-0.34375h-0.39844v-0.28906h4.7969v0.28906q-0.84375-8e-3 -1.1875 0.15625-0.33594 0.16406-0.46094 0.41406t-0.125 1.1953v6.6562q0 0.64843 0.125 0.89062 0.09375 0.16406 0.28906 0.24219 0.19531 0.0781 1.2188 0.0781h0.77344q1.2188 0 1.7109-0.17968 0.49219-0.17969 0.89844-0.63282 0.40625-0.46093 0.8125-1.4453z"/>
    <path d="m53.836 232.06q0.32812 0 0.55469 0.23438 0.23438 0.22656 0.23438 0.55469 0 0.32812-0.23438 0.5625-0.22656 0.23437-0.55469 0.23437t-0.5625-0.23437q-0.23438-0.23438-0.23438-0.5625 0-0.32813 0.22656-0.55469 0.23438-0.23438 0.57031-0.23438zm0.64844 3.7422v5.75q0 0.67188 0.09375 0.89844 0.10156 0.21875 0.28906 0.32812 0.19531 0.10938 0.70312 0.10938v0.28125h-3.4766v-0.28125q0.52344 0 0.70312-0.10156 0.17969-0.10157 0.28125-0.33594 0.10938-0.23438 0.10938-0.89844v-2.7578q0-1.1641-0.07031-1.5078-0.05469-0.25-0.17188-0.34375-0.11719-0.10157-0.32031-0.10157-0.21875 0-0.53125 0.11719l-0.10938-0.28125 2.1562-0.875z"/>
    <path d="m58.531 233.66v2.3516h1.6719v0.54687h-1.6719v4.6406q0 0.69531 0.19531 0.9375 0.20312 0.24219 0.51562 0.24219 0.25781 0 0.5-0.15625 0.24219-0.16407 0.375-0.47657h0.30469q-0.27344 0.76563-0.77344 1.1562-0.5 0.38282-1.0312 0.38282-0.35938 0-0.70312-0.19532-0.34375-0.20312-0.50781-0.57031-0.16406-0.375-0.16406-1.1484v-4.8125h-1.1328v-0.25781q0.42969-0.17187 0.875-0.57812 0.45312-0.41407 0.80469-0.97657 0.17969-0.29687 0.5-1.0859z"/>
    <path d="m62.969 233.66v2.3516h1.6719v0.54687h-1.6719v4.6406q0 0.69531 0.19531 0.9375 0.20312 0.24219 0.51562 0.24219 0.25781 0 0.5-0.15625 0.24219-0.16407 0.375-0.47657h0.30469q-0.27344 0.76563-0.77344 1.1562-0.5 0.38282-1.0312 0.38282-0.35938 0-0.70312-0.19532-0.34375-0.20312-0.50781-0.57031-0.16406-0.375-0.16406-1.1484v-4.8125h-1.1328v-0.25781q0.42969-0.17187 0.875-0.57812 0.45312-0.41407 0.80469-0.97657 0.17969-0.29687 0.5-1.0859z"/>
    <path d="m67.789 232.06v9.4922q0 0.67188 0.09375 0.89063 0.10156 0.21875 0.30469 0.33593 0.20312 0.10938 0.75781 0.10938v0.28125h-3.5078v-0.28125q0.49219 0 0.67188-0.10156 0.17969-0.10157 0.28125-0.33594 0.10156-0.23438 0.10156-0.89844v-6.5q0-1.2109-0.05469-1.4844-0.05469-0.28125-0.17969-0.38282-0.11719-0.10156-0.30469-0.10156-0.20312 0-0.51562 0.125l-0.13281-0.27344 2.1328-0.875z"/>
    <path d="m70.969 238.71q-0.0078 1.5938 0.77344 2.5 0.78125 0.90625 1.8359 0.90625 0.70312 0 1.2188-0.38281 0.52344-0.39063 0.875-1.3281l0.24219 0.15625q-0.16406 1.0703-0.95312 1.9531-0.78906 0.875-1.9766 0.875-1.2891 0-2.2109-1-0.91406-1.0078-0.91406-2.7031 0-1.8359 0.9375-2.8594 0.94531-1.0312 2.3672-1.0312 1.2031 0 1.9766 0.79687 0.77344 0.78907 0.77344 2.1172zm0-0.45312h3.3125q-0.03906-0.6875-0.16406-0.96875-0.19531-0.4375-0.58594-0.6875-0.38281-0.25-0.80469-0.25-0.64844 0-1.1641 0.50781-0.50781 0.5-0.59375 1.3984z"/>
    <path d="m77.008 238.99h4.0391v1.1797h-4.0391z"/>
    <path d="m83.406 238.71q-0.0078 1.5938 0.77344 2.5 0.78125 0.90625 1.8359 0.90625 0.70312 0 1.2188-0.38281 0.52344-0.39063 0.875-1.3281l0.24219 0.15625q-0.16406 1.0703-0.95312 1.9531-0.78906 0.875-1.9766 0.875-1.2891 0-2.2109-1-0.91406-1.0078-0.91406-2.7031 0-1.8359 0.9375-2.8594 0.94531-1.0312 2.3672-1.0312 1.2031 0 1.9766 0.79687 0.77344 0.78907 0.77344 2.1172zm0-0.45312h3.3125q-0.03906-0.6875-0.16406-0.96875-0.19531-0.4375-0.58594-0.6875-0.38281-0.25-0.80469-0.25-0.64844 0-1.1641 0.50781-0.50781 0.5-0.59375 1.3984z"/>
    <path d="m91.383 237.32q1.2578-1.5156 2.3984-1.5156 0.58594 0 1.0078 0.29688 0.42188 0.28906 0.67188 0.96093 0.17188 0.46875 0.17188 1.4375v3.0547q0 0.67969 0.10938 0.92188 0.08594 0.19531 0.27344 0.30468 0.19531 0.10938 0.71094 0.10938v0.28125h-3.5391v-0.28125h0.14844q0.5 0 0.69531-0.14844 0.20312-0.15625 0.28125-0.45312 0.03125-0.11719 0.03125-0.73438v-2.9297q0-0.97656-0.25781-1.4141-0.25-0.44531-0.85156-0.44531-0.92969 0-1.8516 1.0156v3.7734q0 0.72656 0.08594 0.89844 0.10938 0.22656 0.29688 0.33594 0.19531 0.10156 0.78125 0.10156v0.28125h-3.5391v-0.28125h0.15625q0.54688 0 0.73438-0.27344 0.19531-0.28125 0.19531-1.0625v-2.6562q0-1.2891-0.0625-1.5703-0.05469-0.28125-0.17969-0.38281-0.11719-0.10157-0.32031-0.10157-0.21875 0-0.52344 0.11719l-0.11719-0.28125 2.1562-0.875h0.33594z"/>
    <path d="m102.35 242.37q-0.52343 0.54688-1.0234 0.78906-0.5 0.23438-1.0781 0.23438-1.1719 0-2.0469-0.97656-0.875-0.98438-0.875-2.5234t0.96875-2.8125q0.96875-1.2812 2.4922-1.2812 0.94532 0 1.5625 0.60156v-1.3203q0-1.2266-0.0625-1.5078-0.0547-0.28125-0.17968-0.38282-0.125-0.10156-0.3125-0.10156-0.20313 0-0.53907 0.125l-0.10156-0.27344 2.1328-0.875h0.35157v8.2734q0 1.2578 0.0547 1.5391 0.0625 0.27344 0.1875 0.38282 0.13282 0.10937 0.30469 0.10937 0.21094 0 0.5625-0.13281l0.0859 0.27344-2.125 0.88281h-0.35938zm0-0.54687v-3.6875q-0.0469-0.53125-0.28125-0.96875-0.23437-0.4375-0.625-0.65625-0.38281-0.22657-0.75-0.22657-0.6875 0-1.2266 0.61719-0.71094 0.8125-0.71094 2.375 0 1.5781 0.6875 2.4219 0.6875 0.83593 1.5312 0.83593 0.71094 0 1.375-0.71093z"/>
    <path d="m107.12 232.06q0.32812 0 0.55469 0.23438 0.23437 0.22656 0.23437 0.55469 0 0.32812-0.23437 0.5625-0.22657 0.23437-0.55469 0.23437-0.32813 0-0.5625-0.23437-0.23438-0.23438-0.23438-0.5625 0-0.32813 0.22657-0.55469 0.23437-0.23438 0.57031-0.23438zm0.64844 3.7422v5.75q0 0.67188 0.0937 0.89844 0.10156 0.21875 0.28906 0.32812 0.19531 0.10938 0.70312 0.10938v0.28125h-3.4765v-0.28125q0.52344 0 0.70313-0.10156 0.17968-0.10157 0.28125-0.33594 0.10937-0.23438 0.10937-0.89844v-2.7578q0-1.1641-0.0703-1.5078-0.0547-0.25-0.17188-0.34375-0.11718-0.10157-0.32031-0.10157-0.21875 0-0.53125 0.11719l-0.10937-0.28125 2.1562-0.875z"/>
    <path d="m113.79 242.14q-1.1016 0.85156-1.3828 0.98437-0.42187 0.19532-0.89844 0.19532-0.74218 0-1.2266-0.50782-0.47656-0.50781-0.47656-1.3359 0-0.52344 0.23437-0.90625 0.32032-0.53125 1.1094-1 0.79687-0.46875 2.6406-1.1406v-0.28125q0-1.0703-0.34375-1.4688-0.33593-0.39844-0.98437-0.39844-0.49219 0-0.78125 0.26563-0.29688 0.26562-0.29688 0.60937l0.0156 0.45313q0 0.35937-0.1875 0.55469-0.17969 0.19531-0.47656 0.19531-0.28907 0-0.47657-0.20313-0.17968-0.20312-0.17968-0.55468 0-0.67188 0.6875-1.2344t1.9297-0.5625q0.95313 0 1.5625 0.32031 0.46094 0.24219 0.67969 0.75782 0.14063 0.33593 0.14063 1.375v2.4297q0 1.0234 0.0391 1.2578 0.0391 0.22656 0.125 0.30468 0.0937 0.0781 0.21094 0.0781 0.125 0 0.21875-0.0547 0.16406-0.10156 0.63281-0.57031v0.4375q-0.875 1.1719-1.6719 1.1719-0.38281 0-0.60937-0.26562-0.22656-0.26563-0.23438-0.90625zm0-0.50781v-2.7266q-1.1797 0.46875-1.5234 0.66407-0.61719 0.34375-0.88282 0.71875-0.26562 0.375-0.26562 0.82031 0 0.5625 0.33594 0.9375 0.33593 0.36719 0.77343 0.36719 0.59375 0 1.5625-0.78125z"/>
    <path d="m118.91 237.32q1.2578-1.5156 2.3984-1.5156 0.58594 0 1.0078 0.29688 0.42188 0.28906 0.67188 0.96093 0.17187 0.46875 0.17187 1.4375v3.0547q0 0.67969 0.10938 0.92188 0.0859 0.19531 0.27344 0.30468 0.19531 0.10938 0.71093 0.10938v0.28125h-3.5391v-0.28125h0.14844q0.5 0 0.69531-0.14844 0.20313-0.15625 0.28125-0.45312 0.0312-0.11719 0.0312-0.73438v-2.9297q0-0.97656-0.25781-1.4141-0.25-0.44531-0.85156-0.44531-0.92969 0-1.8516 1.0156v3.7734q0 0.72656 0.0859 0.89844 0.10938 0.22656 0.29688 0.33594 0.19531 0.10156 0.78125 0.10156v0.28125h-3.5391v-0.28125h0.15625q0.54688 0 0.73438-0.27344 0.19531-0.28125 0.19531-1.0625v-2.6562q0-1.2891-0.0625-1.5703-0.0547-0.28125-0.17969-0.38281-0.11718-0.10157-0.32031-0.10157-0.21875 0-0.52344 0.11719l-0.11718-0.28125 2.1562-0.875h0.33593z"/>
   </g>
   <g aria-label="0A0B0C0D">
    <path d="m35.28 66.405q2.0801 0 3.252 1.4844 1.3965 1.7578 1.3965 5.8301 0 4.0625-1.4062 5.8398-1.1621 1.4648-3.2422 1.4648-2.0898 0-3.3691-1.6016-1.2793-1.6113-1.2793-5.7324 0-4.043 1.4062-5.8203 1.1621-1.4648 3.2422-1.4648zm0 2.2754q-0.49805 0-0.88867 0.32227-0.39062 0.3125-0.60547 1.1328-0.2832 1.0645-0.2832 3.584t0.25391 3.4668q0.25391 0.9375 0.63477 1.25 0.39062 0.3125 0.88867 0.3125t0.88867-0.3125q0.39062-0.32227 0.60547-1.1426 0.2832-1.0547 0.2832-3.5742t-0.25391-3.457q-0.25391-0.94727-0.64453-1.2598-0.38086-0.32227-0.87891-0.32227z"/>
    <path d="m55.29 80.78h-3.1445l-1.25-3.252h-5.7227l-1.1816 3.252h-3.0664l5.5762-14.316h3.0566zm-5.3223-5.6641-1.9727-5.3125-1.9336 5.3125z"/>
    <path d="m60.866 66.405q2.0801 0 3.252 1.4844 1.3965 1.7578 1.3965 5.8301 0 4.0625-1.4062 5.8398-1.1621 1.4648-3.2422 1.4648-2.0898 0-3.3691-1.6016-1.2793-1.6113-1.2793-5.7324 0-4.043 1.4062-5.8203 1.1621-1.4648 3.2422-1.4648zm0 2.2754q-0.49805 0-0.88867 0.32227-0.39062 0.3125-0.60547 1.1328-0.2832 1.0645-0.2832 3.584t0.25391 3.4668q0.25391 0.9375 0.63476 1.25 0.39062 0.3125 0.88867 0.3125t0.88867-0.3125q0.39062-0.32227 0.60547-1.1426 0.2832-1.0547 0.2832-3.5742t-0.25391-3.457q-0.25391-0.94727-0.64453-1.2598-0.38086-0.32227-0.87891-0.32227z"/>
    <path d="m67.976 66.464h5.7227q1.6992 0 2.5293 0.14648 0.83984 0.13672 1.4941 0.58594 0.66406 0.44922 1.1035 1.2012 0.43945 0.74219 0.43945 1.6699 0 1.0059-0.54688 1.8457-0.53711 0.83984-1.4648 1.2598 1.3086 0.38086 2.0117 1.2988t0.70312 2.1582q0 0.97656-0.45898 1.9043-0.44922 0.91797-1.2402 1.4746-0.78125 0.54688-1.9336 0.67383-0.72266 0.07813-3.4863 0.09766h-4.873zm2.8906 2.3828v3.3105h1.8945q1.6895 0 2.0996-0.04883 0.74219-0.08789 1.1621-0.50781 0.42969-0.42969 0.42969-1.123 0-0.66406-0.37109-1.0742-0.36133-0.41992-1.084-0.50781-0.42969-0.04883-2.4707-0.04883zm0 5.6934v3.8281h2.6758q1.5625 0 1.9824-0.08789 0.64453-0.11719 1.0449-0.56641 0.41016-0.45898 0.41016-1.2207 0-0.64453-0.3125-1.0938-0.3125-0.44922-0.9082-0.6543-0.58594-0.20508-2.5586-0.20508z"/>
    <path d="m86.452 66.405q2.0801 0 3.252 1.4844 1.3965 1.7578 1.3965 5.8301 0 4.0625-1.4062 5.8398-1.1621 1.4648-3.2422 1.4648-2.0898 0-3.3691-1.6016-1.2793-1.6113-1.2793-5.7324 0-4.043 1.4062-5.8203 1.1621-1.4648 3.2422-1.4648zm0 2.2754q-0.49805 0-0.88867 0.32227-0.39062 0.3125-0.60547 1.1328-0.2832 1.0645-0.2832 3.584t0.25391 3.4668q0.25391 0.9375 0.63477 1.25 0.39062 0.3125 0.88867 0.3125t0.88867-0.3125q0.39062-0.32227 0.60547-1.1426 0.2832-1.0547 0.2832-3.5742t-0.25391-3.457q-0.25391-0.94727-0.64453-1.2598-0.38086-0.32227-0.87891-0.32227z"/>
    <path d="m102.71 75.516 2.8027 0.88867q-0.64454 2.3438-2.1484 3.4863-1.4941 1.1328-3.7988 1.1328-2.8516 0-4.6875-1.9434-1.8359-1.9531-1.8359-5.332 0-3.5742 1.8457-5.5469 1.8457-1.9824 4.8535-1.9824 2.6269 0 4.2676 1.5527 0.97656 0.91797 1.4648 2.6367l-2.8613 0.68359q-0.25391-1.1133-1.0645-1.7578-0.80078-0.64453-1.9531-0.64453-1.5918 0-2.5879 1.1426-0.98633 1.1426-0.98633 3.7012 0 2.7148 0.97656 3.8672 0.97656 1.1523 2.5391 1.1523 1.1523 0 1.9824-0.73242 0.83007-0.73242 1.1914-2.3047z"/>
    <path d="m112.04 66.405q2.0801 0 3.252 1.4844 1.3965 1.7578 1.3965 5.8301 0 4.0625-1.4062 5.8398-1.1621 1.4648-3.2422 1.4648-2.0898 0-3.3691-1.6016-1.2793-1.6113-1.2793-5.7324 0-4.043 1.4062-5.8203 1.1621-1.4648 3.2422-1.4648zm0 2.2754q-0.49804 0-0.88867 0.32227-0.39062 0.3125-0.60547 1.1328-0.2832 1.0645-0.2832 3.584t0.25391 3.4668q0.2539 0.9375 0.63476 1.25 0.39063 0.3125 0.88867 0.3125 0.49805 0 0.88868-0.3125 0.39062-0.32227 0.60546-1.1426 0.28321-1.0547 0.28321-3.5742t-0.25391-3.457q-0.25391-0.94727-0.64453-1.2598-0.38086-0.32227-0.87891-0.32227z"/>
    <path d="m119.13 66.464h5.2832q1.7871 0 2.7246 0.27344 1.2598 0.37109 2.1582 1.3184 0.89844 0.94727 1.3672 2.3242 0.46875 1.3672 0.46875 3.3789 0 1.7676-0.43945 3.0469-0.53711 1.5625-1.5332 2.5293-0.75195 0.73242-2.0312 1.1426-0.95703 0.30274-2.5586 0.30274h-5.4394zm2.8906 2.4219v9.4824h2.1582q1.2109 0 1.748-0.13672 0.70313-0.17578 1.1621-0.5957 0.46875-0.41992 0.76172-1.377 0.29297-0.9668 0.29297-2.627 0-1.6602-0.29297-2.5488t-0.82031-1.3867q-0.52735-0.49805-1.3379-0.67383-0.60547-0.13672-2.373-0.13672z"/>
   </g>
   <g aria-label="Memory">
    <path d="m214.92 81.594-4.0938-8.9141v7.0781q0 0.97656 0.21094 1.2188 0.28906 0.32812 0.91406 0.32812h0.375v0.28906h-3.6875v-0.28906h0.375q0.67188 0 0.95313-0.40625 0.17187-0.25 0.17187-1.1406v-6.9219q0-0.70312-0.15625-1.0156-0.10937-0.22656-0.40625-0.375-0.28906-0.15625-0.9375-0.15625v-0.28906h3l3.8438 8.2891 3.7812-8.2891h3v0.28906h-0.36718q-0.67969 0-0.96094 0.40625-0.17188 0.25-0.17188 1.1406v6.9219q0 0.97656 0.21875 1.2188 0.28907 0.32812 0.91407 0.32812h0.36718v0.28906h-4.5v-0.28906h0.375q0.67969 0 0.95313-0.40625 0.17187-0.25 0.17187-1.1406v-7.0781l-4.0859 8.9141z"/>
    <path d="m224.3 77.133q-8e-3 1.5938 0.77344 2.5 0.78125 0.90625 1.8359 0.90625 0.70312 0 1.2188-0.38281 0.52344-0.39062 0.875-1.3281l0.24219 0.15625q-0.16407 1.0703-0.95313 1.9531-0.78906 0.875-1.9766 0.875-1.2891 0-2.2109-1-0.91406-1.0078-0.91406-2.7031 0-1.8359 0.9375-2.8594 0.94531-1.0312 2.3672-1.0312 1.2031 0 1.9766 0.79688 0.77344 0.78906 0.77344 2.1172zm0-0.45312h3.3125q-0.0391-0.6875-0.16406-0.96875-0.19531-0.4375-0.58594-0.6875-0.38281-0.25-0.80468-0.25-0.64844 0-1.1641 0.50781-0.50781 0.5-0.59375 1.3984z"/>
    <path d="m232.31 75.75q0.78125-0.78125 0.92187-0.89844 0.35157-0.29688 0.75782-0.46094 0.40625-0.16406 0.80468-0.16406 0.67188 0 1.1562 0.39062 0.48438 0.39062 0.64844 1.1328 0.80469-0.9375 1.3594-1.2266 0.55468-0.29688 1.1406-0.29688 0.57031 0 1.0078 0.29688 0.44532 0.28906 0.70313 0.95312 0.17187 0.45312 0.17187 1.4219v3.0781q0 0.67188 0.10157 0.92188 0.0781 0.17188 0.28906 0.29688 0.21094 0.11719 0.6875 0.11719v0.28125h-3.5312v-0.28125h0.14844q0.46093 0 0.71875-0.17969 0.17968-0.125 0.25781-0.39844 0.0312-0.13281 0.0312-0.75781v-3.0781q0-0.875-0.21094-1.2344-0.30469-0.5-0.97656-0.5-0.41406 0-0.83594 0.21094-0.41406 0.20312-1.0078 0.76562l-0.0156 0.08594 0.0156 0.33594v3.4141q0 0.73438 0.0781 0.91406 0.0859 0.17969 0.3125 0.30469 0.22657 0.11719 0.77344 0.11719v0.28125h-3.6172v-0.28125q0.59375 0 0.8125-0.14062 0.22657-0.14062 0.3125-0.42188 0.0391-0.13281 0.0391-0.77344v-3.0781q0-0.875-0.25782-1.2578-0.34375-0.5-0.96093-0.5-0.42188 0-0.83594 0.22656-0.64844 0.34375-1 0.77344v3.8359q0 0.70312 0.0937 0.91406 0.10156 0.21094 0.28906 0.32031 0.19531 0.10156 0.78125 0.10156v0.28125h-3.539v-0.28125q0.49219 0 0.6875-0.10156 0.19531-0.10938 0.29687-0.33594 0.10157-0.23438 0.10157-0.89844v-2.7344q0-1.1797-0.0703-1.5234-0.0547-0.25781-0.17187-0.35156-0.11719-0.10156-0.32031-0.10156-0.21875 0-0.52344 0.11719l-0.11719-0.28125 2.1562-0.875h0.33594z"/>
    <path d="m246.12 74.227q1.625 0 2.6094 1.2344 0.83594 1.0547 0.83594 2.4219 0 0.96094-0.46094 1.9453-0.46093 0.98438-1.2734 1.4844-0.80469 0.5-1.7969 0.5-1.6172 0-2.5703-1.2891-0.80469-1.0859-0.80469-2.4375 0-0.98438 0.48438-1.9531 0.49218-0.97656 1.2891-1.4375 0.79687-0.46875 1.6875-0.46875zm-0.24219 0.50781q-0.41406 0-0.83594 0.25-0.41406 0.24219-0.67187 0.85938-0.25781 0.61719-0.25781 1.5859 0 1.5625 0.61718 2.6953 0.625 1.1328 1.6406 1.1328 0.75781 0 1.25-0.625t0.49219-2.1484q0-1.9062-0.82032-3-0.55468-0.75-1.4141-0.75z"/>
    <path d="m252.72 74.227v1.6094q0.89844-1.6094 1.8438-1.6094 0.42969 0 0.71094 0.26562 0.28125 0.25781 0.28125 0.60156 0 0.30469-0.20313 0.51562-0.20312 0.21094-0.48437 0.21094-0.27344 0-0.61719-0.26562-0.33594-0.27344-0.5-0.27344-0.14063 0-0.30469 0.15625-0.35156 0.32031-0.72656 1.0547v3.4297q0 0.59375 0.14844 0.89844 0.10156 0.21094 0.35937 0.35156t0.74219 0.14062v0.28125h-3.6641v-0.28125q0.54687 0 0.8125-0.17188 0.19531-0.125 0.27343-0.39844 0.0391-0.13281 0.0391-0.75781v-2.7734q0-1.25-0.0547-1.4844-0.0469-0.24219-0.1875-0.35156-0.13281-0.10938-0.33594-0.10938-0.24219 0-0.54687 0.11719l-0.0781-0.28125 2.1641-0.875z"/>
    <path d="m255.56 74.438h3.3359v0.28906h-0.16407q-0.35156 0-0.53125 0.15625-0.17187 0.14844-0.17187 0.375 0 0.30469 0.25781 0.84375l1.7422 3.6094 1.6016-3.9531q0.13281-0.32031 0.13281-0.63281 0-0.14062-0.0547-0.21094-0.0625-0.08594-0.19532-0.13281-0.13281-0.05469-0.46875-0.05469v-0.28906h2.3281v0.28906q-0.28906 0.03125-0.44531 0.125t-0.34375 0.35156q-0.0703 0.10938-0.26563 0.60156l-2.9141 7.1406q-0.42188 1.0391-1.1094 1.5703-0.67968 0.53125-1.3125 0.53125-0.46093 0-0.75781-0.26562-0.29687-0.26562-0.29687-0.60938 0-0.32812 0.21093-0.53125 0.21875-0.19531 0.59375-0.19531 0.25782 0 0.70313 0.17188 0.3125 0.11719 0.39062 0.11719 0.23438 0 0.50782-0.24219 0.28125-0.24219 0.5625-0.9375l0.50781-1.2422-2.5703-5.3984q-0.11719-0.24219-0.375-0.60156-0.19532-0.27344-0.32032-0.36719-0.17968-0.125-0.57812-0.21875z"/>
   </g>
  </g>
 </g>
</svg>
