<svg width="180" height="220" version="1.1" viewBox="0 0 180 220" xmlns="http://www.w3.org/2000/svg" xmlns:xlink="http://www.w3.org/1999/xlink">
	<defs>
		<g id="c">
			<path d="m4.1875-.14062c-.1875-.17188-.25-.3125-.25-.51562v-2.4062c0-.875-.59375-1.3281-1.7656-1.3281s-1.7812.5-1.8594 1.5h1.0938c.046875-.45312.23438-.59375.78125-.59375.4375 0 .65625.14062.65625.42188 0 .15625-.078125.26562-.20312.34375-.14062.078125-.14062.078125-.70312.17188l-.4375.078125c-.85938.14062-1.2812.57812-1.2812 1.3594 0 .76562.53125 1.2969 1.3125 1.2969.48438 0 .92188-.20312 1.3125-.625 0 .23438.03125.3125.125.4375h1.2188zm-1.3438-1.5938c0 .64062-.32812 1.0156-.89062 1.0156-.375 0-.60938-.20312-.60938-.51562 0-.34375.17188-.5.64062-.59375l.39062-.078125c.28125-.046875.34375-.0625.46875-.14062z"/>
		</g>
		<g id="o">
			<path d="m2.7969 0 1.4844-4.3125h-1.1719l-.875 3.1562-.9375-3.1562h-1.1875l1.5156 4.3125z"/>
		</g>
		<g id="n">
			<path d="m1.6562-4.3125h-1.125v4.3125h1.125zm0-1.5156h-1.125v1h1.125z"/>
		</g>
		<g id="g">
			<path d="m1.6562-5.8281h-1.125v5.8281h1.125z"/>
		</g>
		<g id="m">
			<path d="m.46875-5.8281v5.8281h1.125v-.4375c.26562.42188.64062.625 1.1875.625 1.0312 0 1.8125-.98438 1.8125-2.2969 0-.57812-.17188-1.1719-.45312-1.5938-.29688-.42188-.82812-.6875-1.3594-.6875-.54688 0-.92188.20312-1.1875.625v-2.0625zm2.0625 2.375c.5625 0 .95312.5625.95312 1.3594s-.39062 1.3438-.95312 1.3438-.9375-.53125-.9375-1.375c0-.78125.375-1.3281.9375-1.3281z"/>
		</g>
		<g id="d">
			<path d="m4.1875-1.8125c.015625-.09375.015625-.125.015625-.1875 0-.4375-.0625-.82812-.17188-1.1406-.28125-.78125-.98438-1.25-1.8594-1.25-1.2344 0-2 .89062-2 2.3438 0 1.3906.75 2.2344 1.9844 2.2344.96875 0 1.75-.54688 2-1.4062h-1.1094c-.14062.34375-.45312.54688-.85938.54688-.3125 0-.57812-.14062-.73438-.375-.09375-.15625-.14062-.35938-.15625-.76562zm-2.875-.73438c.078125-.67188.34375-.98438.84375-.98438.51562 0 .8125.34375.875.98438z"/>
		</g>
		<g id="a">
			<path d="m2.5-4.2344h-.65625v-.42188c0-.21875.09375-.32812.29688-.32812.10938 0 .21875 0 .32812.015625v-.84375c-.25-.015625-.48438-.015625-.64062-.015625-.75 0-1.1094.34375-1.1094 1.0781v.51562h-.60938v.75h.60938v3.4844h1.125v-3.4844h.65625z"/>
		</g>
		<g id="j">
			<path d="m2.4062-4.3906c-1.3125 0-2.125.875-2.125 2.2812 0 1.4219.8125 2.2969 2.1406 2.2969 1.3125 0 2.125-.875 2.125-2.2656 0-1.4531-.78125-2.3125-2.1406-2.3125zm.015625.90625c.60938 0 1.0156.54688 1.0156 1.3906 0 .8125-.42188 1.375-1.0156 1.375-.60938 0-1.0156-.54688-1.0156-1.3906 0-.82812.40625-1.375 1.0156-1.375z"/>
		</g>
		<g id="i">
			<path d="m.5-4.3125v4.3125h1.125v-2.2969c0-.65625.32812-.98438.98438-.98438.125 0 .20312.015625.34375.03125v-1.1406h-.125c-.51562 0-.95312.32812-1.2031.92188v-.84375z"/>
		</g>
		<g id="p">
			<path d="m.48438-4.3125v4.3125h1.1094v-2.5938c0-.53125.29688-.84375.78125-.84375.375 0 .59375.21875.59375.5625v2.875h1.125v-2.5938c0-.53125.29688-.84375.76562-.84375.375 0 .60938.21875.60938.5625v2.875h1.125v-3.0625c0-.82812-.51562-1.3281-1.375-1.3281-.5625 0-.9375.1875-1.2656.64062-.20312-.40625-.64062-.64062-1.1719-.64062-.5 0-.82812.15625-1.1875.60938v-.53125z"/>
		</g>
		<g id="z">
			<path d="m3.1562-4.3125-.90625 3.1406-.95312-3.1406h-1.2188l1.6094 4.4844c0 .45312-.28125.75-.70312.75-.09375 0-.15625-.015625-.29688-.046875v.84375c.17188.03125.26562.03125.40625.03125.28125 0 .60938-.046875.79688-.14062.3125-.125.45312-.29688.64062-.8125l1.7656-5.1094z"/>
		</g>
		<g id="y">
			<path d="m3.2344 0h1.125v-5.8281h-1.125v2.0625c-.28125-.42188-.64062-.625-1.1875-.625-1.0312 0-1.8125.98438-1.8125 2.2969 0 .57812.17188 1.1719.46875 1.5938.28125.42188.8125.6875 1.3438.6875.54688 0 .90625-.20312 1.1875-.625zm-.9375-3.4531c.5625 0 .9375.54688.9375 1.375 0 .78125-.375 1.3281-.9375 1.3281s-.9375-.54688-.9375-1.3438c0-.8125.375-1.3594.9375-1.3594z"/>
		</g>
		<g id="ad">
			<path d="m4.1719-2.7031c-.078125-1.0625-.76562-1.6875-1.8594-1.6875-1.2969 0-2.0469.84375-2.0469 2.3125 0 1.4375.75 2.2656 2.0312 2.2656 1.0469 0 1.7812-.65625 1.875-1.6875h-1.0625c-.14062.5625-.35938.78125-.8125.78125-.5625 0-.90625-.5-.90625-1.3594 0-.40625.078125-.78125.21875-1.0469.125-.23438.375-.35938.6875-.35938.46875 0 .67188.21875.8125.78125z"/>
		</g>
		<g id="ac">
			<path d="m4.0469-2.9219c-.015625-.92188-.73438-1.4688-1.8906-1.4688-1.0938 0-1.7656.54688-1.7656 1.4375 0 .29688.078125.53125.23438.70312.15625.15625.28125.21875.70312.35938l1.3281.42188c.28125.078125.39062.17188.39062.34375 0 .26562-.3125.42188-.84375.42188-.29688 0-.51562-.046875-.65625-.14062-.125-.09375-.17188-.1875-.21875-.40625h-1.0938c.03125.95312.71875 1.4375 2.0312 1.4375.60938 0 1.0625-.125 1.375-.39062.32812-.25.51562-.65625.51562-1.0781 0-.5625-.28125-.92188-.84375-1.0938l-1.4219-.40625c-.3125-.09375-.39062-.15625-.39062-.32812 0-.25.26562-.40625.65625-.40625.53125 0 .79688.20312.79688.59375z"/>
		</g>
		<g id="b">
			<path d="m2.1875-5.7969c-.60938 0-1.125.26562-1.4688.73438-.32812.4375-.48438 1.1562-.48438 2.2656 0 1 .125 1.7031.39062 2.1406.34375.54688.89062.84375 1.5625.84375.60938 0 1.1094-.25 1.4688-.71875.3125-.4375.48438-1.1719.48438-2.2344 0-1.0469-.125-1.75-.40625-2.1875-.32812-.54688-.89062-.84375-1.5469-.84375zm0 .90625c.28125 0 .51562.15625.65625.45312.10938.25.17188.85938.17188 1.6406 0 .64062-.0625 1.2656-.14062 1.5-.125.34375-.375.51562-.6875.51562-.29688 0-.53125-.14062-.65625-.4375-.10938-.23438-.17188-.82812-.17188-1.5938 0-.67188.046875-1.3125.14062-1.5469.10938-.34375.35938-.53125.6875-.53125z"/>
		</g>
		<g id="h">
			<path d="m2.8438-2.1719 1.4062-2.1406h-1.3438l-.70312 1.2969-.70312-1.2969h-1.3438l1.4062 2.1406-1.4375 2.1719h1.3438l.73438-1.3438.73438 1.3438h1.3438z"/>
		</g>
		<g id="ab">
			<path d="m4.2188-5.6719h-3.9844v1h2.8281c-.34375.375-1.0312 1.4062-1.25 1.8906-.39062.82812-.59375 1.5781-.75 2.7812h1.125c.10938-1.7969.6875-3.1719 2.0312-4.7969z"/>
		</g>
		<g id="aa">
			<path d="m1.7344-2.5312c.4375 0 .45312 0 .65625.046875.375.10938.625.4375.625.85938 0 .5-.35938.84375-.84375.84375-.53125 0-.8125-.29688-.85938-.875h-1.0781c0 1.125.73438 1.8438 1.9062 1.8438 1.2188 0 1.9844-.71875 1.9844-1.8125 0-.67188-.28125-1.1094-.92188-1.4219.51562-.32812.73438-.6875.73438-1.2031 0-.9375-.70312-1.5469-1.7969-1.5469-.82812 0-1.4531.35938-1.7031.98438-.09375.26562-.14062.45312-.14062.92188h1.0469c.015625-.29688.03125-.45312.09375-.59375.09375-.25.35938-.40625.6875-.40625.4375 0 .70312.28125.70312.75 0 .57812-.32812.85938-1 .85938h-.09375z"/>
		</g>
		<g id="x">
			<path d="m6.1406-5.2188h-1.9844v.125c.46875.046875.5625.125.5625.34375 0 .125-.015625.28125-.09375.5l-.35938 1.3125h-2.2812l.4375-1.5625c.10938-.40625.32812-.5625.79688-.59375v-.125h-2.1719v.125c.5.046875.60938.10938.60938.34375 0 .125-.03125.28125-.09375.5l-.98438 3.5312c-.14062.46875-.1875.51562-.64062.59375v.125h1.9688v-.125c-.48438-.0625-.5625-.125-.5625-.35938 0-.046875 0-.10938.015625-.17188l.53125-1.9531h2.2812l-.53125 1.8906c-.125.42188-.28125.53125-.79688.59375v.125h2.1875v-.125c-.53125-.046875-.625-.10938-.625-.34375 0-.078125 0-.125.015625-.1875l1.0625-3.8438c.125-.46875.20312-.51562.65625-.59375z"/>
		</g>
		<g id="l">
			<path d="m2.5938-3.5312c-.34375 0-.65625.09375-.98438.26562-.8125.46875-1.3906 1.3906-1.3906 2.2344 0 .6875.4375 1.125 1.1719 1.125.53125 0 1.0469-.23438 1.5-.70312.53125-.51562.85938-1.1875.85938-1.7969 0-.67188-.46875-1.125-1.1562-1.125zm-.09375.17188c.34375 0 .57812.29688.57812.75 0 .59375-.26562 1.3906-.625 1.9062-.29688.42188-.59375.625-.9375.625-.375 0-.625-.29688-.625-.73438 0-.59375.23438-1.2969.625-1.8594.3125-.45312.64062-.6875.98438-.6875z"/>
		</g>
		<g id="f">
			<path d="m1.8281-.98438c-.53125.67188-.59375.73438-.76562.73438-.078125 0-.125-.046875-.125-.15625 0-.0625.03125-.15625.078125-.3125 0-.03125.015625-.046875.015625-.0625v-.015625l1.2031-4.625-.046875-.046875c-.46875.10938-.78125.17188-1.25.21875v.125c.39062 0 .54688.046875.54688.1875 0 .03125 0 .078125-.015625.14062l-1.1094 4.2344c-.015625.078125-.03125.14062-.03125.20312 0 .29688.14062.45312.39062.45312.42188 0 .6875-.23438 1.2031-1z"/>
		</g>
		<g id="k">
			<path d="m2.8594-.875c-.57812.46875-.8125.60938-1.1719.60938-.45312 0-.75-.29688-.75-.73438 0-.125.015625-.23438.09375-.48438l.21875-.03125c1.2031-.17188 2.0469-.78125 2.0469-1.4688 0-.32812-.23438-.54688-.64062-.54688-1.1562 0-2.4062 1.3125-2.4062 2.5156 0 .65625.4375 1.1094 1.0469 1.1094.57812 0 1.1875-.32812 1.6562-.875zm-1.6406-1.1406c.26562-.71875.85938-1.3281 1.2656-1.3281.17188 0 .28125.125.28125.3125 0 .25-.15625.53125-.39062.78125-.29688.28125-.60938.42188-1.2969.59375z"/>
		</g>
		<g id="t">
			<path d="m1.2656 1.4062c-.29688-.82812-.375-1.3125-.375-2.0938 0-.95312.21875-2.1094.59375-3 .26562-.625.51562-1 1.0312-1.5469l-.09375-.125c-1.0469.95312-1.4531 1.4844-1.7969 2.3125-.20312.5-.28125.98438-.28125 1.6094 0 .60938.09375 1.2188.26562 1.7656.10938.32812.23438.59375.51562 1.125z"/>
		</g>
		<g id="s">
			<path d="m3.6875-.9375c-.4375.54688-.53125.64062-.65625.64062-.078125 0-.14062-.0625-.14062-.14062 0-.0625.03125-.20312.125-.5l.45312-1.6406c.03125-.17188.0625-.34375.0625-.46875 0-.29688-.21875-.48438-.51562-.48438-.51562 0-1.0312.48438-1.8438 1.7656l.53125-1.75-.015625-.015625c-.4375.09375-.60938.125-1.2969.25v.125c.40625.015625.5.0625.5.21875 0 .046875 0 .09375-.015625.14062l-.76562 2.7969h.60938c.375-1.2656.4375-1.4375.79688-1.9844.46875-.73438.89062-1.1406 1.1875-1.1406.10938 0 .1875.09375.1875.23438 0 .09375-.046875.35938-.10938.60938l-.35938 1.3281c-.10938.40625-.125.51562-.125.59375 0 .29688.10938.4375.375.4375.35938 0 .5625-.17188 1.125-.90625z"/>
		</g>
		<g id="r">
			<path d="m2.375-3.4219h-.64062l.21875-.82812v-.046875c0-.046875-.015625-.078125-.0625-.078125s-.0625.015625-.10938.078125c-.3125.40625-.8125.8125-1.0625.875-.20312.0625-.26562.125-.26562.20312 0 .015625 0 .03125.015625.046875h.59375l-.57812 2.2031c-.015625.078125-.03125.10938-.046875.17188-.078125.26562-.14062.51562-.14062.59375 0 .15625.17188.29688.39062.29688.35938 0 .625-.23438 1.125-.96875l-.09375-.0625c-.40625.5-.53125.64062-.65625.64062-.078125 0-.125-.0625-.125-.17188l.015625-.03125.70312-2.6719h.67188z"/>
		</g>
		<g id="e">
			<path d="m3.7188-.875-.23438.21875c-.25.25-.34375.32812-.40625.32812s-.125-.046875-.125-.10938c0-.15625.34375-1.5312.71875-2.9062.03125-.078125.03125-.09375.046875-.15625l-.0625-.03125-.48438.0625-.015625.015625-.09375.39062c-.0625-.29688-.29688-.46875-.64062-.46875-1.0625 0-2.2812 1.4531-2.2812 2.7344 0 .5625.29688.89062.8125.89062.5625 0 .90625-.26562 1.6094-1.2656-.17188.65625-.1875.71875-.1875.92188 0 .23438.09375.32812.32812.32812.3125 0 .5-.15625 1.1094-.875zm-1.25-2.4844c.28125.015625.45312.21875.45312.5 0 .67188-.40625 1.6094-.95312 2.2031-.1875.21875-.46875.35938-.70312.35938-.28125 0-.45312-.23438-.45312-.59375 0-.45312.29688-1.2656.64062-1.7656.32812-.46875.6875-.71875 1.0156-.70312z"/>
		</g>
		<g id="q">
			<path d="m.17188-3.2188c.078125-.015625.14062-.015625.23438-.015625.3125 0 .39062.14062.5.875.09375.5625.1875 1.7344.1875 2.2188 0 .23438 0 .28125.0625.28125.20312 0 .9375-.8125 1.7656-1.9844.28125-.39062.48438-.90625.48438-1.2188 0-.25-.20312-.46875-.45312-.46875-.17188 0-.29688.10938-.29688.28125 0 .125.0625.21875.20312.34375.09375.09375.14062.15625.14062.25 0 .375-.51562 1.25-1.0938 1.8438l-.25.25c-.0625-1.125-.10938-1.5469-.20312-2.1406-.17188-.8125-.17188-.82812-.23438-.82812-.046875 0-.09375.015625-.15625.03125-.14062.03125-.625.125-.89062.17188z"/>
		</g>
		<g id="w">
			<path d="m1.7812-.90625c-.20312.26562-.25.32812-.32812.40625-.14062.125-.26562.21875-.32812.21875s-.14062-.0625-.14062-.125c0-.078125.03125-.20312.09375-.35938l.03125-.14062.015625-.015625v-.015625l.70312-2.5781-.03125-.015625c-.8125.15625-.96875.17188-1.2812.20312v.125c.4375.015625.51562.03125.51562.1875 0 .078125-.03125.20312-.078125.35938l-.39062 1.4219c-.125.46875-.17188.70312-.17188.85938 0 .29688.125.46875.375.46875.375 0 .65625-.25 1.1094-.92188zm-.0625-4.3281c-.21875 0-.375.17188-.375.42188 0 .26562.14062.42188.375.42188.20312 0 .39062-.17188.39062-.40625s-.1875-.4375-.39062-.4375z"/>
		</g>
		<g id="v">
			<path d="m.875-5.1406c.48438.015625.53125.03125.53125.21875 0 .0625-.015625.15625-.078125.34375l-.046875.14062-.015625.0625-1.0781 4v.03125c0 .1875.60938.4375 1.0625.4375 1.2031 0 2.5312-1.3906 2.5312-2.6562 0-.5625-.39062-.96875-.92188-.96875-.5625 0-.98438.32812-1.5469 1.2188.40625-1.5.46875-1.7344.82812-3.1094l-.03125-.046875c-.40625.078125-.64062.10938-1.2344.1875zm1.6719 2c.34375 0 .5625.26562.5625.6875 0 .53125-.40625 1.3906-.89062 1.8906-.29688.29688-.64062.46875-.98438.46875-.25 0-.35938-.09375-.35938-.28125 0-.46875.23438-1.2344.57812-1.8438s.70312-.92188 1.0938-.92188z"/>
		</g>
		<g id="u">
			<path d="m.23438 1.4375c.98438-.85938 1.3906-1.375 1.75-2.25.23438-.53125.32812-1.0312.32812-1.625 0-.45312-.0625-.96875-.17188-1.4375-.14062-.54688-.26562-.84375-.625-1.4844l-.14062.046875c.26562.65625.39062 1.2969.39062 2.0938 0 1.0156-.28125 2.3125-.67188 3.1719-.23438.51562-.48438.85938-.96875 1.3594z"/>
		</g>
	</defs>
	<g fill="#161616" stroke="#000" stroke-linecap="round" stroke-miterlimit="10">
		<path d="m49.47 210.79v-49.5"/>
		<path d="m49.47 161.19h46.797"/>
		<path d="m96.267 161.19v49.5"/>
		<path d="m96.267 210.79h-46.797"/>
	</g>
	<g transform="translate(-215.13 -51.21)" fill="#2b0000">
		<use x="271" y="228.8" xlink:href="#c"/>
		<use x="275.448" y="228.8" xlink:href="#o"/>
		<use x="279.896" y="228.8" xlink:href="#c"/>
		<use x="284.34399" y="228.8" xlink:href="#n"/>
		<use x="286.56799" y="228.8" xlink:href="#g"/>
		<use x="288.79199" y="228.8" xlink:href="#c"/>
		<use x="293.23999" y="228.8" xlink:href="#m"/>
		<use x="298.12799" y="228.8" xlink:href="#g"/>
		<use x="300.35199" y="228.8" xlink:href="#d"/>
		<use x="282.70001" y="238.8" xlink:href="#a"/>
		<use x="285.36401" y="238.8" xlink:href="#j"/>
		<use x="290.25201" y="238.8" xlink:href="#i"/>
		<use x="272.39999" y="248.8" xlink:href="#p"/>
		<use x="279.51199" y="248.8" xlink:href="#d"/>
		<use x="283.95999" y="248.8" xlink:href="#p"/>
		<use x="291.07199" y="248.8" xlink:href="#j"/>
		<use x="295.95999" y="248.8" xlink:href="#i"/>
		<use x="299.07199" y="248.8" xlink:href="#z"/>
	</g>
	<g fill="#161616" stroke="#000" stroke-linecap="round" stroke-miterlimit="10">
		<path d="m49.47 161.19v-49.5"/>
		<path d="m49.47 111.79h46.797"/>
		<path d="m96.267 111.79v49.5"/>
		<path d="m96.267 161.19h-46.797"/>
		<path d="m96.267 136.49-15.598 24.699"/>
		<path d="m49.47 136.49 15.598-24.699"/>
		<path d="m49.47 161.19 31.098-49.5"/>
		<path d="m65.068 161.19 31.102-49.5"/>
		<path d="m49.47 111.79v-49.5"/>
		<path d="m49.47 62.29h46.797"/>
		<path d="m96.267 62.29v49.5"/>
		<path d="m96.267 111.79h-46.797"/>
	</g>
	<g transform="translate(-215.13 -51.21)">
		<use x="271" y="129.8" xlink:href="#c"/>
		<use x="275.448" y="129.8" xlink:href="#o"/>
		<use x="279.896" y="129.8" xlink:href="#c"/>
		<use x="284.34399" y="129.8" xlink:href="#n"/>
		<use x="286.56799" y="129.8" xlink:href="#g"/>
		<use x="288.79199" y="129.8" xlink:href="#c"/>
		<use x="293.23999" y="129.8" xlink:href="#m"/>
		<use x="298.12799" y="129.8" xlink:href="#g"/>
		<use x="300.35199" y="129.8" xlink:href="#d"/>
		<use x="282.70001" y="139.8" xlink:href="#a"/>
		<use x="285.36401" y="139.8" xlink:href="#j"/>
		<use x="290.25201" y="139.8" xlink:href="#i"/>
		<use x="272.39999" y="149.8" xlink:href="#p"/>
		<use x="279.51199" y="149.8" xlink:href="#d"/>
		<use x="283.95999" y="149.8" xlink:href="#p"/>
		<use x="291.07199" y="149.8" xlink:href="#j"/>
		<use x="295.95999" y="149.8" xlink:href="#i"/>
		<use x="299.07199" y="149.8" xlink:href="#z"/>
	</g>
	<g fill="#161616" stroke="#000" stroke-linecap="round" stroke-miterlimit="10">
		<path d="m49.47 62.29v-24.699"/>
		<path d="m49.47 37.489h46.797"/>
		<path d="m96.267 37.489v24.699"/>
		<path d="m96.267 62.29h-46.797"/>
		<path d="m96.267 49.891-11.598 12.297"/>
		<path d="m49.47 49.891 11.598-12.301"/>
		<path d="m49.47 62.29 23.398-24.699"/>
		<path d="m61.068 62.29 23.402-24.699"/>
		<path d="m72.869 62.29 23.398-24.699"/>
		<path d="m49.47 37.489v-24.699"/>
		<path d="m49.47 12.79h46.797"/>
		<path d="m96.267 12.79v24.699"/>
		<path d="m96.267 37.489h-46.797"/>
	</g>
	<g transform="translate(-215.13 -51.21)">
		<g fill="#2b0000">
			<use x="271" y="72.900002" xlink:href="#c"/>
			<use x="275.448" y="72.900002" xlink:href="#o"/>
			<use x="279.896" y="72.900002" xlink:href="#c"/>
			<use x="284.34399" y="72.900002" xlink:href="#n"/>
			<use x="286.56799" y="72.900002" xlink:href="#g"/>
			<use x="288.79199" y="72.900002" xlink:href="#c"/>
			<use x="293.23999" y="72.900002" xlink:href="#m"/>
			<use x="298.12799" y="72.900002" xlink:href="#g"/>
			<use x="300.35199" y="72.900002" xlink:href="#d"/>
			<use x="266.79999" y="82.900002" xlink:href="#a"/>
			<use x="269.46399" y="82.900002" xlink:href="#j"/>
			<use x="274.35199" y="82.900002" xlink:href="#i"/>
			<use x="279.60001" y="82.900002" xlink:href="#y"/>
			<use x="284.48801" y="82.900002" xlink:href="#d"/>
			<use x="288.936" y="82.900002" xlink:href="#o"/>
			<use x="293.384" y="82.900002" xlink:href="#n"/>
			<use x="295.608" y="82.900002" xlink:href="#ad"/>
			<use x="300.056" y="82.900002" xlink:href="#d"/>
			<use x="304.504" y="82.900002" xlink:href="#ac"/>
		</g>
		<g fill="#ff6600">
			<use x="240.10001" y="71" xlink:href="#b"/>
			<use x="244.548" y="71" xlink:href="#h"/>
			<use x="248.996" y="71" xlink:href="#a"/>
			<use x="251.66" y="71" xlink:href="#a"/>
			<use x="254.32401" y="71" xlink:href="#a"/>
			<use x="256.98801" y="71" xlink:href="#a"/>
			<use x="237.8" y="95.699997" xlink:href="#b"/>
			<use x="242.248" y="95.699997" xlink:href="#h"/>
			<use x="246.696" y="95.699997" xlink:href="#y"/>
			<use x="251.584" y="95.699997" xlink:href="#a"/>
			<use x="254.248" y="95.699997" xlink:href="#a"/>
			<use x="256.91199" y="95.699997" xlink:href="#a"/>
			<use x="237.8" y="120.5" xlink:href="#b"/>
			<use x="242.248" y="120.5" xlink:href="#h"/>
			<use x="246.696" y="120.5" xlink:href="#m"/>
			<use x="251.584" y="120.5" xlink:href="#a"/>
			<use x="254.248" y="120.5" xlink:href="#a"/>
			<use x="256.91199" y="120.5" xlink:href="#a"/>
			<use x="238.2" y="170" xlink:href="#b"/>
			<use x="242.64799" y="170" xlink:href="#h"/>
			<use x="247.09599" y="170" xlink:href="#ab"/>
			<use x="251.54401" y="170" xlink:href="#a"/>
			<use x="254.20799" y="170" xlink:href="#a"/>
			<use x="256.87201" y="170" xlink:href="#a"/>
			<use x="238.2" y="219.39999" xlink:href="#b"/>
			<use x="242.64799" y="219.39999" xlink:href="#h"/>
			<use x="247.09599" y="219.39999" xlink:href="#aa"/>
			<use x="251.54401" y="219.39999" xlink:href="#a"/>
			<use x="254.20799" y="219.39999" xlink:href="#a"/>
			<use x="256.87201" y="219.39999" xlink:href="#a"/>
			<use x="232.5" y="258.20001" xlink:href="#b"/>
			<use x="236.948" y="258.20001" xlink:href="#h"/>
			<use x="241.396" y="258.20001" xlink:href="#b"/>
			<use x="245.84399" y="258.20001" xlink:href="#b"/>
			<use x="250.29201" y="258.20001" xlink:href="#b"/>
			<use x="254.74001" y="258.20001" xlink:href="#b"/>
		</g>
	</g>
	<g fill="none" stroke="#170cda" stroke-linecap="round" stroke-miterlimit="10" stroke-width=".9">
		<path d="m114.27 136.49h-14.398"/>
		<path d="m107.07 134.69-7.1992 1.8008"/>
		<path d="m107.17 135.29-7.3008 1.1992"/>
		<path d="m107.27 135.89-7.3984.5"/>
		<path d="m107.27 136.49h-7.3984"/>
		<path d="m107.27 137.09-7.3984-.5"/>
		<path d="m107.17 137.69-7.3008-1.1992"/>
		<path d="m107.07 138.29-7.1992-1.8008"/>
		<path d="m114.27 49.891h-14.398"/>
		<path d="m107.07 48.091-7.1992 1.8008"/>
		<path d="m107.17 48.688-7.3008 1.2031"/>
		<path d="m107.27 49.29-7.3984.5"/>
		<path d="m107.27 49.891h-7.3984"/>
		<path d="m107.27 50.489-7.3984-.5"/>
		<path d="m107.17 51.091-7.3008-1.1992"/>
		<path d="m107.07 51.688-7.1992-1.7969"/>
	</g>
	<g transform="translate(-215.13 -51.21)">
		<use x="333" y="184.3" xlink:href="#x"/>
		<use x="338.776" y="184.3" xlink:href="#l"/>
		<use x="342.776" y="184.3" xlink:href="#f"/>
		<use x="345" y="184.3" xlink:href="#k"/>
		<use x="333" y="194.3" xlink:href="#t"/>
		<use x="335.664" y="194.3" xlink:href="#s"/>
		<use x="339.664" y="194.3" xlink:href="#l"/>
		<use x="343.664" y="194.3" xlink:href="#r"/>
		<use x="348.20001" y="194.3" xlink:href="#e"/>
		<use x="352.20001" y="194.3" xlink:href="#q"/>
		<use x="355.75201" y="194.3" xlink:href="#e"/>
		<use x="359.75201" y="194.3" xlink:href="#w"/>
		<use x="361.97601" y="194.3" xlink:href="#f"/>
		<use x="364.20001" y="194.3" xlink:href="#e"/>
		<use x="368.20001" y="194.3" xlink:href="#v"/>
		<use x="372.20001" y="194.3" xlink:href="#f"/>
		<use x="374.42401" y="194.3" xlink:href="#k"/>
		<use x="377.97601" y="194.3" xlink:href="#u"/>
		<use x="333" y="97.699997" xlink:href="#x"/>
		<use x="338.776" y="97.699997" xlink:href="#l"/>
		<use x="342.776" y="97.699997" xlink:href="#f"/>
		<use x="345" y="97.699997" xlink:href="#k"/>
		<use x="333" y="107.7" xlink:href="#t"/>
		<use x="335.664" y="107.7" xlink:href="#s"/>
		<use x="339.664" y="107.7" xlink:href="#l"/>
		<use x="343.664" y="107.7" xlink:href="#r"/>
		<use x="348.20001" y="107.7" xlink:href="#e"/>
		<use x="352.20001" y="107.7" xlink:href="#q"/>
		<use x="355.75201" y="107.7" xlink:href="#e"/>
		<use x="359.75201" y="107.7" xlink:href="#w"/>
		<use x="361.97601" y="107.7" xlink:href="#f"/>
		<use x="364.20001" y="107.7" xlink:href="#e"/>
		<use x="368.20001" y="107.7" xlink:href="#v"/>
		<use x="372.20001" y="107.7" xlink:href="#f"/>
		<use x="374.42401" y="107.7" xlink:href="#k"/>
		<use x="377.97601" y="107.7" xlink:href="#u"/>
	</g>
</svg>
