<svg width="180" height="220" version="1.1" viewBox="0 0 180 220" xmlns="http://www.w3.org/2000/svg" xmlns:xlink="http://www.w3.org/1999/xlink">
 <defs>
  <g id="c">
   <path d="m4.1875-0.14062c-0.1875-0.17188-0.25-0.3125-0.25-0.51562v-2.4062c0-0.875-0.59375-1.3281-1.7656-1.3281s-1.7812 0.5-1.8594 1.5h1.0938c0.046875-0.45312 0.23438-0.59375 0.78125-0.59375 0.4375 0 0.65625 0.14062 0.65625 0.42188 0 0.15625-0.078125 0.26562-0.20312 0.34375-0.14062 0.078125-0.14062 0.078125-0.70312 0.17188l-0.4375 0.078125c-0.85938 0.14062-1.2812 0.57812-1.2812 1.3594 0 0.76562 0.53125 1.2969 1.3125 1.2969 0.48438 0 0.92188-0.20312 1.3125-0.625 0 0.23438 0.03125 0.3125 0.125 0.4375h1.2188zm-1.3438-1.5938c0 0.64062-0.32812 1.0156-0.89062 1.0156-0.375 0-0.60938-0.20312-0.60938-0.51562 0-0.34375 0.17188-0.5 0.64062-0.59375l0.39062-0.078125c0.28125-0.046875 0.34375-0.0625 0.46875-0.14062z"/>
  </g>
  <g id="o">
   <path d="m2.7969 0 1.4844-4.3125h-1.1719l-0.875 3.1562-0.9375-3.1562h-1.1875l1.5156 4.3125z"/>
  </g>
  <g id="n">
   <path d="m1.6562-4.3125h-1.125v4.3125h1.125zm0-1.5156h-1.125v1h1.125z"/>
  </g>
  <g id="g">
   <path d="m1.6562-5.8281h-1.125v5.8281h1.125z"/>
  </g>
  <g id="m">
   <path d="m0.46875-5.8281v5.8281h1.125v-0.4375c0.26562 0.42188 0.64062 0.625 1.1875 0.625 1.0312 0 1.8125-0.98438 1.8125-2.2969 0-0.57812-0.17188-1.1719-0.45312-1.5938-0.29688-0.42188-0.82812-0.6875-1.3594-0.6875-0.54688 0-0.92188 0.20312-1.1875 0.625v-2.0625zm2.0625 2.375c0.5625 0 0.95312 0.5625 0.95312 1.3594s-0.39062 1.3438-0.95312 1.3438-0.9375-0.53125-0.9375-1.375c0-0.78125 0.375-1.3281 0.9375-1.3281z"/>
  </g>
  <g id="d">
   <path d="m4.1875-1.8125c0.015625-0.09375 0.015625-0.125 0.015625-0.1875 0-0.4375-0.0625-0.82812-0.17188-1.1406-0.28125-0.78125-0.98438-1.25-1.8594-1.25-1.2344 0-2 0.89062-2 2.3438 0 1.3906 0.75 2.2344 1.9844 2.2344 0.96875 0 1.75-0.54688 2-1.4062h-1.1094c-0.14062 0.34375-0.45312 0.54688-0.85938 0.54688-0.3125 0-0.57812-0.14062-0.73438-0.375-0.09375-0.15625-0.14062-0.35938-0.15625-0.76562zm-2.875-0.73438c0.078125-0.67188 0.34375-0.98438 0.84375-0.98438 0.51562 0 0.8125 0.34375 0.875 0.98438z"/>
  </g>
  <g id="a">
   <path d="m2.5-4.2344h-0.65625v-0.42188c0-0.21875 0.09375-0.32812 0.29688-0.32812 0.10938 0 0.21875 0 0.32812 0.015625v-0.84375c-0.25-0.015625-0.48438-0.015625-0.64062-0.015625-0.75 0-1.1094 0.34375-1.1094 1.0781v0.51562h-0.60938v0.75h0.60938v3.4844h1.125v-3.4844h0.65625z"/>
  </g>
  <g id="j">
   <path d="m2.4062-4.3906c-1.3125 0-2.125 0.875-2.125 2.2812 0 1.4219 0.8125 2.2969 2.1406 2.2969 1.3125 0 2.125-0.875 2.125-2.2656 0-1.4531-0.78125-2.3125-2.1406-2.3125zm0.015625 0.90625c0.60938 0 1.0156 0.54688 1.0156 1.3906 0 0.8125-0.42188 1.375-1.0156 1.375-0.60938 0-1.0156-0.54688-1.0156-1.3906 0-0.82812 0.40625-1.375 1.0156-1.375z"/>
  </g>
  <g id="i">
   <path d="m0.5-4.3125v4.3125h1.125v-2.2969c0-0.65625 0.32812-0.98438 0.98438-0.98438 0.125 0 0.20312 0.015625 0.34375 0.03125v-1.1406h-0.125c-0.51562 0-0.95312 0.32812-1.2031 0.92188v-0.84375z"/>
  </g>
  <g id="p">
   <path d="m0.48438-4.3125v4.3125h1.1094v-2.5938c0-0.53125 0.29688-0.84375 0.78125-0.84375 0.375 0 0.59375 0.21875 0.59375 0.5625v2.875h1.125v-2.5938c0-0.53125 0.29688-0.84375 0.76562-0.84375 0.375 0 0.60938 0.21875 0.60938 0.5625v2.875h1.125v-3.0625c0-0.82812-0.51562-1.3281-1.375-1.3281-0.5625 0-0.9375 0.1875-1.2656 0.64062-0.20312-0.40625-0.64062-0.64062-1.1719-0.64062-0.5 0-0.82812 0.15625-1.1875 0.60938v-0.53125z"/>
  </g>
  <g id="z">
   <path d="m3.1562-4.3125-0.90625 3.1406-0.95312-3.1406h-1.2188l1.6094 4.4844c0 0.45312-0.28125 0.75-0.70312 0.75-0.09375 0-0.15625-0.015625-0.29688-0.046875v0.84375c0.17188 0.03125 0.26562 0.03125 0.40625 0.03125 0.28125 0 0.60938-0.046875 0.79688-0.14062 0.3125-0.125 0.45312-0.29688 0.64062-0.8125l1.7656-5.1094z"/>
  </g>
  <g id="y">
   <path d="m3.2344 0h1.125v-5.8281h-1.125v2.0625c-0.28125-0.42188-0.64062-0.625-1.1875-0.625-1.0312 0-1.8125 0.98438-1.8125 2.2969 0 0.57812 0.17188 1.1719 0.46875 1.5938 0.28125 0.42188 0.8125 0.6875 1.3438 0.6875 0.54688 0 0.90625-0.20312 1.1875-0.625zm-0.9375-3.4531c0.5625 0 0.9375 0.54688 0.9375 1.375 0 0.78125-0.375 1.3281-0.9375 1.3281s-0.9375-0.54688-0.9375-1.3438c0-0.8125 0.375-1.3594 0.9375-1.3594z"/>
  </g>
  <g id="ad">
   <path d="m4.1719-2.7031c-0.078125-1.0625-0.76562-1.6875-1.8594-1.6875-1.2969 0-2.0469 0.84375-2.0469 2.3125 0 1.4375 0.75 2.2656 2.0312 2.2656 1.0469 0 1.7812-0.65625 1.875-1.6875h-1.0625c-0.14062 0.5625-0.35938 0.78125-0.8125 0.78125-0.5625 0-0.90625-0.5-0.90625-1.3594 0-0.40625 0.078125-0.78125 0.21875-1.0469 0.125-0.23438 0.375-0.35938 0.6875-0.35938 0.46875 0 0.67188 0.21875 0.8125 0.78125z"/>
  </g>
  <g id="ac">
   <path d="m4.0469-2.9219c-0.015625-0.92188-0.73438-1.4688-1.8906-1.4688-1.0938 0-1.7656 0.54688-1.7656 1.4375 0 0.29688 0.078125 0.53125 0.23438 0.70312 0.15625 0.15625 0.28125 0.21875 0.70312 0.35938l1.3281 0.42188c0.28125 0.078125 0.39062 0.17188 0.39062 0.34375 0 0.26562-0.3125 0.42188-0.84375 0.42188-0.29688 0-0.51562-0.046875-0.65625-0.14062-0.125-0.09375-0.17188-0.1875-0.21875-0.40625h-1.0938c0.03125 0.95312 0.71875 1.4375 2.0312 1.4375 0.60938 0 1.0625-0.125 1.375-0.39062 0.32812-0.25 0.51562-0.65625 0.51562-1.0781 0-0.5625-0.28125-0.92188-0.84375-1.0938l-1.4219-0.40625c-0.3125-0.09375-0.39062-0.15625-0.39062-0.32812 0-0.25 0.26562-0.40625 0.65625-0.40625 0.53125 0 0.79688 0.20312 0.79688 0.59375z"/>
  </g>
  <g id="b">
   <path d="m2.1875-5.7969c-0.60938 0-1.125 0.26562-1.4688 0.73438-0.32812 0.4375-0.48438 1.1562-0.48438 2.2656 0 1 0.125 1.7031 0.39062 2.1406 0.34375 0.54688 0.89062 0.84375 1.5625 0.84375 0.60938 0 1.1094-0.25 1.4688-0.71875 0.3125-0.4375 0.48438-1.1719 0.48438-2.2344 0-1.0469-0.125-1.75-0.40625-2.1875-0.32812-0.54688-0.89062-0.84375-1.5469-0.84375zm0 0.90625c0.28125 0 0.51562 0.15625 0.65625 0.45312 0.10938 0.25 0.17188 0.85938 0.17188 1.6406 0 0.64062-0.0625 1.2656-0.14062 1.5-0.125 0.34375-0.375 0.51562-0.6875 0.51562-0.29688 0-0.53125-0.14062-0.65625-0.4375-0.10938-0.23438-0.17188-0.82812-0.17188-1.5938 0-0.67188 0.046875-1.3125 0.14062-1.5469 0.10938-0.34375 0.35938-0.53125 0.6875-0.53125z"/>
  </g>
  <g id="h">
   <path d="m2.8438-2.1719 1.4062-2.1406h-1.3438l-0.70312 1.2969-0.70312-1.2969h-1.3438l1.4062 2.1406-1.4375 2.1719h1.3438l0.73438-1.3438 0.73438 1.3438h1.3438z"/>
  </g>
  <g id="ab">
   <path d="m4.2188-5.6719h-3.9844v1h2.8281c-0.34375 0.375-1.0312 1.4062-1.25 1.8906-0.39062 0.82812-0.59375 1.5781-0.75 2.7812h1.125c0.10938-1.7969 0.6875-3.1719 2.0312-4.7969z"/>
  </g>
  <g id="aa">
   <path d="m1.7344-2.5312c0.4375 0 0.45312 0 0.65625 0.046875 0.375 0.10938 0.625 0.4375 0.625 0.85938 0 0.5-0.35938 0.84375-0.84375 0.84375-0.53125 0-0.8125-0.29688-0.85938-0.875h-1.0781c0 1.125 0.73438 1.8438 1.9062 1.8438 1.2188 0 1.9844-0.71875 1.9844-1.8125 0-0.67188-0.28125-1.1094-0.92188-1.4219 0.51562-0.32812 0.73438-0.6875 0.73438-1.2031 0-0.9375-0.70312-1.5469-1.7969-1.5469-0.82812 0-1.4531 0.35938-1.7031 0.98438-0.09375 0.26562-0.14062 0.45312-0.14062 0.92188h1.0469c0.015625-0.29688 0.03125-0.45312 0.09375-0.59375 0.09375-0.25 0.35938-0.40625 0.6875-0.40625 0.4375 0 0.70312 0.28125 0.70312 0.75 0 0.57812-0.32812 0.85938-1 0.85938h-0.09375z"/>
  </g>
  <g id="x">
   <path d="m6.1406-5.2188h-1.9844v0.125c0.46875 0.046875 0.5625 0.125 0.5625 0.34375 0 0.125-0.015625 0.28125-0.09375 0.5l-0.35938 1.3125h-2.2812l0.4375-1.5625c0.10938-0.40625 0.32812-0.5625 0.79688-0.59375v-0.125h-2.1719v0.125c0.5 0.046875 0.60938 0.10938 0.60938 0.34375 0 0.125-0.03125 0.28125-0.09375 0.5l-0.98438 3.5312c-0.14062 0.46875-0.1875 0.51562-0.64062 0.59375v0.125h1.9688v-0.125c-0.48438-0.0625-0.5625-0.125-0.5625-0.35938 0-0.046875 0-0.10938 0.015625-0.17188l0.53125-1.9531h2.2812l-0.53125 1.8906c-0.125 0.42188-0.28125 0.53125-0.79688 0.59375v0.125h2.1875v-0.125c-0.53125-0.046875-0.625-0.10938-0.625-0.34375 0-0.078125 0-0.125 0.015625-0.1875l1.0625-3.8438c0.125-0.46875 0.20312-0.51562 0.65625-0.59375z"/>
  </g>
  <g id="l">
   <path d="m2.5938-3.5312c-0.34375 0-0.65625 0.09375-0.98438 0.26562-0.8125 0.46875-1.3906 1.3906-1.3906 2.2344 0 0.6875 0.4375 1.125 1.1719 1.125 0.53125 0 1.0469-0.23438 1.5-0.70312 0.53125-0.51562 0.85938-1.1875 0.85938-1.7969 0-0.67188-0.46875-1.125-1.1562-1.125zm-0.09375 0.17188c0.34375 0 0.57812 0.29688 0.57812 0.75 0 0.59375-0.26562 1.3906-0.625 1.9062-0.29688 0.42188-0.59375 0.625-0.9375 0.625-0.375 0-0.625-0.29688-0.625-0.73438 0-0.59375 0.23438-1.2969 0.625-1.8594 0.3125-0.45312 0.64062-0.6875 0.98438-0.6875z"/>
  </g>
  <g id="f">
   <path d="m1.8281-0.98438c-0.53125 0.67188-0.59375 0.73438-0.76562 0.73438-0.078125 0-0.125-0.046875-0.125-0.15625 0-0.0625 0.03125-0.15625 0.078125-0.3125 0-0.03125 0.015625-0.046875 0.015625-0.0625v-0.015625l1.2031-4.625-0.046875-0.046875c-0.46875 0.10938-0.78125 0.17188-1.25 0.21875v0.125c0.39062 0 0.54688 0.046875 0.54688 0.1875 0 0.03125 0 0.078125-0.015625 0.14062l-1.1094 4.2344c-0.015625 0.078125-0.03125 0.14062-0.03125 0.20312 0 0.29688 0.14062 0.45312 0.39062 0.45312 0.42188 0 0.6875-0.23438 1.2031-1z"/>
  </g>
  <g id="k">
   <path d="m2.8594-0.875c-0.57812 0.46875-0.8125 0.60938-1.1719 0.60938-0.45312 0-0.75-0.29688-0.75-0.73438 0-0.125 0.015625-0.23438 0.09375-0.48438l0.21875-0.03125c1.2031-0.17188 2.0469-0.78125 2.0469-1.4688 0-0.32812-0.23438-0.54688-0.64062-0.54688-1.1562 0-2.4062 1.3125-2.4062 2.5156 0 0.65625 0.4375 1.1094 1.0469 1.1094 0.57812 0 1.1875-0.32812 1.6562-0.875zm-1.6406-1.1406c0.26562-0.71875 0.85938-1.3281 1.2656-1.3281 0.17188 0 0.28125 0.125 0.28125 0.3125 0 0.25-0.15625 0.53125-0.39062 0.78125-0.29688 0.28125-0.60938 0.42188-1.2969 0.59375z"/>
  </g>
  <g id="t">
   <path d="m1.2656 1.4062c-0.29688-0.82812-0.375-1.3125-0.375-2.0938 0-0.95312 0.21875-2.1094 0.59375-3 0.26562-0.625 0.51562-1 1.0312-1.5469l-0.09375-0.125c-1.0469 0.95312-1.4531 1.4844-1.7969 2.3125-0.20312 0.5-0.28125 0.98438-0.28125 1.6094 0 0.60938 0.09375 1.2188 0.26562 1.7656 0.10938 0.32812 0.23438 0.59375 0.51562 1.125z"/>
  </g>
  <g id="s">
   <path d="m3.6875-0.9375c-0.4375 0.54688-0.53125 0.64062-0.65625 0.64062-0.078125 0-0.14062-0.0625-0.14062-0.14062 0-0.0625 0.03125-0.20312 0.125-0.5l0.45312-1.6406c0.03125-0.17188 0.0625-0.34375 0.0625-0.46875 0-0.29688-0.21875-0.48438-0.51562-0.48438-0.51562 0-1.0312 0.48438-1.8438 1.7656l0.53125-1.75-0.015625-0.015625c-0.4375 0.09375-0.60938 0.125-1.2969 0.25v0.125c0.40625 0.015625 0.5 0.0625 0.5 0.21875 0 0.046875 0 0.09375-0.015625 0.14062l-0.76562 2.7969h0.60938c0.375-1.2656 0.4375-1.4375 0.79688-1.9844 0.46875-0.73438 0.89062-1.1406 1.1875-1.1406 0.10938 0 0.1875 0.09375 0.1875 0.23438 0 0.09375-0.046875 0.35938-0.10938 0.60938l-0.35938 1.3281c-0.10938 0.40625-0.125 0.51562-0.125 0.59375 0 0.29688 0.10938 0.4375 0.375 0.4375 0.35938 0 0.5625-0.17188 1.125-0.90625z"/>
  </g>
  <g id="r">
   <path d="m2.375-3.4219h-0.64062l0.21875-0.82812v-0.046875c0-0.046875-0.015625-0.078125-0.0625-0.078125s-0.0625 0.015625-0.10938 0.078125c-0.3125 0.40625-0.8125 0.8125-1.0625 0.875-0.20312 0.0625-0.26562 0.125-0.26562 0.20312 0 0.015625 0 0.03125 0.015625 0.046875h0.59375l-0.57812 2.2031c-0.015625 0.078125-0.03125 0.10938-0.046875 0.17188-0.078125 0.26562-0.14062 0.51562-0.14062 0.59375 0 0.15625 0.17188 0.29688 0.39062 0.29688 0.35938 0 0.625-0.23438 1.125-0.96875l-0.09375-0.0625c-0.40625 0.5-0.53125 0.64062-0.65625 0.64062-0.078125 0-0.125-0.0625-0.125-0.17188l0.015625-0.03125 0.70312-2.6719h0.67188z"/>
  </g>
  <g id="e">
   <path d="m3.7188-0.875-0.23438 0.21875c-0.25 0.25-0.34375 0.32812-0.40625 0.32812s-0.125-0.046875-0.125-0.10938c0-0.15625 0.34375-1.5312 0.71875-2.9062 0.03125-0.078125 0.03125-0.09375 0.046875-0.15625l-0.0625-0.03125-0.48438 0.0625-0.015625 0.015625-0.09375 0.39062c-0.0625-0.29688-0.29688-0.46875-0.64062-0.46875-1.0625 0-2.2812 1.4531-2.2812 2.7344 0 0.5625 0.29688 0.89062 0.8125 0.89062 0.5625 0 0.90625-0.26562 1.6094-1.2656-0.17188 0.65625-0.1875 0.71875-0.1875 0.92188 0 0.23438 0.09375 0.32812 0.32812 0.32812 0.3125 0 0.5-0.15625 1.1094-0.875zm-1.25-2.4844c0.28125 0.015625 0.45312 0.21875 0.45312 0.5 0 0.67188-0.40625 1.6094-0.95312 2.2031-0.1875 0.21875-0.46875 0.35938-0.70312 0.35938-0.28125 0-0.45312-0.23438-0.45312-0.59375 0-0.45312 0.29688-1.2656 0.64062-1.7656 0.32812-0.46875 0.6875-0.71875 1.0156-0.70312z"/>
  </g>
  <g id="q">
   <path d="m0.17188-3.2188c0.078125-0.015625 0.14062-0.015625 0.23438-0.015625 0.3125 0 0.39062 0.14062 0.5 0.875 0.09375 0.5625 0.1875 1.7344 0.1875 2.2188 0 0.23438 0 0.28125 0.0625 0.28125 0.20312 0 0.9375-0.8125 1.7656-1.9844 0.28125-0.39062 0.48438-0.90625 0.48438-1.2188 0-0.25-0.20312-0.46875-0.45312-0.46875-0.17188 0-0.29688 0.10938-0.29688 0.28125 0 0.125 0.0625 0.21875 0.20312 0.34375 0.09375 0.09375 0.14062 0.15625 0.14062 0.25 0 0.375-0.51562 1.25-1.0938 1.8438l-0.25 0.25c-0.0625-1.125-0.10938-1.5469-0.20312-2.1406-0.17188-0.8125-0.17188-0.82812-0.23438-0.82812-0.046875 0-0.09375 0.015625-0.15625 0.03125-0.14062 0.03125-0.625 0.125-0.89062 0.17188z"/>
  </g>
  <g id="w">
   <path d="m1.7812-0.90625c-0.20312 0.26562-0.25 0.32812-0.32812 0.40625-0.14062 0.125-0.26562 0.21875-0.32812 0.21875s-0.14062-0.0625-0.14062-0.125c0-0.078125 0.03125-0.20312 0.09375-0.35938l0.03125-0.14062 0.015625-0.015625v-0.015625l0.70312-2.5781-0.03125-0.015625c-0.8125 0.15625-0.96875 0.17188-1.2812 0.20312v0.125c0.4375 0.015625 0.51562 0.03125 0.51562 0.1875 0 0.078125-0.03125 0.20312-0.078125 0.35938l-0.39062 1.4219c-0.125 0.46875-0.17188 0.70312-0.17188 0.85938 0 0.29688 0.125 0.46875 0.375 0.46875 0.375 0 0.65625-0.25 1.1094-0.92188zm-0.0625-4.3281c-0.21875 0-0.375 0.17188-0.375 0.42188 0 0.26562 0.14062 0.42188 0.375 0.42188 0.20312 0 0.39062-0.17188 0.39062-0.40625s-0.1875-0.4375-0.39062-0.4375z"/>
  </g>
  <g id="v">
   <path d="m0.875-5.1406c0.48438 0.015625 0.53125 0.03125 0.53125 0.21875 0 0.0625-0.015625 0.15625-0.078125 0.34375l-0.046875 0.14062-0.015625 0.0625-1.0781 4v0.03125c0 0.1875 0.60938 0.4375 1.0625 0.4375 1.2031 0 2.5312-1.3906 2.5312-2.6562 0-0.5625-0.39062-0.96875-0.92188-0.96875-0.5625 0-0.98438 0.32812-1.5469 1.2188 0.40625-1.5 0.46875-1.7344 0.82812-3.1094l-0.03125-0.046875c-0.40625 0.078125-0.64062 0.10938-1.2344 0.1875zm1.6719 2c0.34375 0 0.5625 0.26562 0.5625 0.6875 0 0.53125-0.40625 1.3906-0.89062 1.8906-0.29688 0.29688-0.64062 0.46875-0.98438 0.46875-0.25 0-0.35938-0.09375-0.35938-0.28125 0-0.46875 0.23438-1.2344 0.57812-1.8438s0.70312-0.92188 1.0938-0.92188z"/>
  </g>
  <g id="u">
   <path d="m0.23438 1.4375c0.98438-0.85938 1.3906-1.375 1.75-2.25 0.23438-0.53125 0.32812-1.0312 0.32812-1.625 0-0.45312-0.0625-0.96875-0.17188-1.4375-0.14062-0.54688-0.26562-0.84375-0.625-1.4844l-0.14062 0.046875c0.26562 0.65625 0.39062 1.2969 0.39062 2.0938 0 1.0156-0.28125 2.3125-0.67188 3.1719-0.23438 0.51562-0.48438 0.85938-0.96875 1.3594z"/>
  </g>
 </defs>
 <g stroke-linecap="round" stroke-miterlimit="10">
  <path fill="#161616" stroke="#000000" d="m49.47 210.79v-49.5"/>
  <path fill="#161616" stroke="#000000" d="m49.47 161.19h46.797"/>
  <path fill="#161616" stroke="#000000" d="m96.267 161.19v49.5"/>
  <path fill="#161616" stroke="#000000" d="m96.267 210.79h-46.797"/>
 </g>
 <g transform="translate(-215.13 -51.21)">
  <use fill="#2b0000" x="271" y="228.8" xlink:href="#c"/>
  <use fill="#2b0000" x="275.448" y="228.8" xlink:href="#o"/>
  <use fill="#2b0000" x="279.896" y="228.8" xlink:href="#c"/>
  <use fill="#2b0000" x="284.34399" y="228.8" xlink:href="#n"/>
  <use fill="#2b0000" x="286.56799" y="228.8" xlink:href="#g"/>
  <use fill="#2b0000" x="288.79199" y="228.8" xlink:href="#c"/>
  <use fill="#2b0000" x="293.23999" y="228.8" xlink:href="#m"/>
  <use fill="#2b0000" x="298.12799" y="228.8" xlink:href="#g"/>
  <use fill="#2b0000" x="300.35199" y="228.8" xlink:href="#d"/>
  <use fill="#2b0000" x="282.70001" y="238.8" xlink:href="#a"/>
  <use fill="#2b0000" x="285.36401" y="238.8" xlink:href="#j"/>
  <use fill="#2b0000" x="290.25201" y="238.8" xlink:href="#i"/>
  <use fill="#2b0000" x="272.39999" y="248.8" xlink:href="#p"/>
  <use fill="#2b0000" x="279.51199" y="248.8" xlink:href="#d"/>
  <use fill="#2b0000" x="283.95999" y="248.8" xlink:href="#p"/>
  <use fill="#2b0000" x="291.07199" y="248.8" xlink:href="#j"/>
  <use fill="#2b0000" x="295.95999" y="248.8" xlink:href="#i"/>
  <use fill="#2b0000" x="299.07199" y="248.8" xlink:href="#z"/>
 </g>
 <g stroke-linecap="round" stroke-miterlimit="10">
  <path fill="#161616" stroke="#000000" d="m49.47 161.19v-49.5"/>
  <path fill="#161616" stroke="#000000" d="m49.47 111.79h46.797"/>
  <path fill="#161616" stroke="#000000" d="m96.267 111.79v49.5"/>
  <path fill="#161616" stroke="#000000" d="m96.267 161.19h-46.797"/>
  <path fill="#161616" stroke="#000000" d="m96.267 136.49-15.598 24.699"/>
  <path fill="#161616" stroke="#000000" d="m49.47 136.49 15.598-24.699"/>
  <path fill="#161616" stroke="#000000" d="m49.47 161.19 31.098-49.5"/>
  <path fill="#161616" stroke="#000000" d="m65.068 161.19 31.102-49.5"/>
  <path fill="#161616" stroke="#000000" d="m49.47 111.79v-49.5"/>
  <path fill="#161616" stroke="#000000" d="m49.47 62.29h46.797"/>
  <path fill="#161616" stroke="#000000" d="m96.267 62.29v49.5"/>
  <path fill="#161616" stroke="#000000" d="m96.267 111.79h-46.797"/>
 </g>
 <g transform="translate(-215.13 -51.21)">
  <use x="271" y="129.8" xlink:href="#c"/>
  <use x="275.448" y="129.8" xlink:href="#o"/>
  <use x="279.896" y="129.8" xlink:href="#c"/>
  <use x="284.34399" y="129.8" xlink:href="#n"/>
  <use x="286.56799" y="129.8" xlink:href="#g"/>
  <use x="288.79199" y="129.8" xlink:href="#c"/>
  <use x="293.23999" y="129.8" xlink:href="#m"/>
  <use x="298.12799" y="129.8" xlink:href="#g"/>
  <use x="300.35199" y="129.8" xlink:href="#d"/>
  <use x="282.70001" y="139.8" xlink:href="#a"/>
  <use x="285.36401" y="139.8" xlink:href="#j"/>
  <use x="290.25201" y="139.8" xlink:href="#i"/>
  <use x="272.39999" y="149.8" xlink:href="#p"/>
  <use x="279.51199" y="149.8" xlink:href="#d"/>
  <use x="283.95999" y="149.8" xlink:href="#p"/>
  <use x="291.07199" y="149.8" xlink:href="#j"/>
  <use x="295.95999" y="149.8" xlink:href="#i"/>
  <use x="299.07199" y="149.8" xlink:href="#z"/>
 </g>
 <g stroke-linecap="round" stroke-miterlimit="10">
  <path fill="#161616" stroke="#000000" d="m49.47 62.29v-24.699"/>
  <path fill="#161616" stroke="#000000" d="m49.47 37.489h46.797"/>
  <path fill="#161616" stroke="#000000" d="m96.267 37.489v24.699"/>
  <path fill="#161616" stroke="#000000" d="m96.267 62.29h-46.797"/>
  <path fill="#161616" stroke="#000000" d="m96.267 49.891-11.598 12.297"/>
  <path fill="#161616" stroke="#000000" d="m49.47 49.891 11.598-12.301"/>
  <path fill="#161616" stroke="#000000" d="m49.47 62.29 23.398-24.699"/>
  <path fill="#161616" stroke="#000000" d="m61.068 62.29 23.402-24.699"/>
  <path fill="#161616" stroke="#000000" d="m72.869 62.29 23.398-24.699"/>
  <path fill="#161616" stroke="#000000" d="m49.47 37.489v-24.699"/>
  <path fill="#161616" stroke="#000000" d="m49.47 12.79h46.797"/>
  <path fill="#161616" stroke="#000000" d="m96.267 12.79v24.699"/>
  <path fill="#161616" stroke="#000000" d="m96.267 37.489h-46.797"/>
 </g>
 <g transform="translate(-215.13 -51.21)">
  <use fill="#2b0000" x="271" y="72.900002" xlink:href="#c"/>
  <use fill="#2b0000" x="275.448" y="72.900002" xlink:href="#o"/>
  <use fill="#2b0000" x="279.896" y="72.900002" xlink:href="#c"/>
  <use fill="#2b0000" x="284.34399" y="72.900002" xlink:href="#n"/>
  <use fill="#2b0000" x="286.56799" y="72.900002" xlink:href="#g"/>
  <use fill="#2b0000" x="288.79199" y="72.900002" xlink:href="#c"/>
  <use fill="#2b0000" x="293.23999" y="72.900002" xlink:href="#m"/>
  <use fill="#2b0000" x="298.12799" y="72.900002" xlink:href="#g"/>
  <use fill="#2b0000" x="300.35199" y="72.900002" xlink:href="#d"/>
  <use fill="#2b0000" x="266.79999" y="82.900002" xlink:href="#a"/>
  <use fill="#2b0000" x="269.46399" y="82.900002" xlink:href="#j"/>
  <use fill="#2b0000" x="274.35199" y="82.900002" xlink:href="#i"/>
  <use fill="#2b0000" x="279.60001" y="82.900002" xlink:href="#y"/>
  <use fill="#2b0000" x="284.48801" y="82.900002" xlink:href="#d"/>
  <use fill="#2b0000" x="288.936" y="82.900002" xlink:href="#o"/>
  <use fill="#2b0000" x="293.384" y="82.900002" xlink:href="#n"/>
  <use fill="#2b0000" x="295.608" y="82.900002" xlink:href="#ad"/>
  <use fill="#2b0000" x="300.056" y="82.900002" xlink:href="#d"/>
  <use fill="#2b0000" x="304.504" y="82.900002" xlink:href="#ac"/>
 </g>
 <g transform="translate(-215.13 -51.21)">
  <use fill="#ff6600" x="240.10001" y="71" xlink:href="#b"/>
  <use fill="#ff6600" x="244.548" y="71" xlink:href="#h"/>
  <use fill="#ff6600" x="248.996" y="71" xlink:href="#a"/>
  <use fill="#ff6600" x="251.66" y="71" xlink:href="#a"/>
  <use fill="#ff6600" x="254.32401" y="71" xlink:href="#a"/>
  <use fill="#ff6600" x="256.98801" y="71" xlink:href="#a"/>
  <use fill="#ff6600" x="237.8" y="95.699997" xlink:href="#b"/>
  <use fill="#ff6600" x="242.248" y="95.699997" xlink:href="#h"/>
  <use fill="#ff6600" x="246.696" y="95.699997" xlink:href="#y"/>
  <use fill="#ff6600" x="251.584" y="95.699997" xlink:href="#a"/>
  <use fill="#ff6600" x="254.248" y="95.699997" xlink:href="#a"/>
  <use fill="#ff6600" x="256.91199" y="95.699997" xlink:href="#a"/>
  <use fill="#ff6600" x="237.8" y="120.5" xlink:href="#b"/>
  <use fill="#ff6600" x="242.248" y="120.5" xlink:href="#h"/>
  <use fill="#ff6600" x="246.696" y="120.5" xlink:href="#m"/>
  <use fill="#ff6600" x="251.584" y="120.5" xlink:href="#a"/>
  <use fill="#ff6600" x="254.248" y="120.5" xlink:href="#a"/>
  <use fill="#ff6600" x="256.91199" y="120.5" xlink:href="#a"/>
  <use fill="#ff6600" x="238.2" y="170" xlink:href="#b"/>
  <use fill="#ff6600" x="242.64799" y="170" xlink:href="#h"/>
  <use fill="#ff6600" x="247.09599" y="170" xlink:href="#ab"/>
  <use fill="#ff6600" x="251.54401" y="170" xlink:href="#a"/>
  <use fill="#ff6600" x="254.20799" y="170" xlink:href="#a"/>
  <use fill="#ff6600" x="256.87201" y="170" xlink:href="#a"/>
  <use fill="#ff6600" x="238.2" y="219.39999" xlink:href="#b"/>
  <use fill="#ff6600" x="242.64799" y="219.39999" xlink:href="#h"/>
  <use fill="#ff6600" x="247.09599" y="219.39999" xlink:href="#aa"/>
  <use fill="#ff6600" x="251.54401" y="219.39999" xlink:href="#a"/>
  <use fill="#ff6600" x="254.20799" y="219.39999" xlink:href="#a"/>
  <use fill="#ff6600" x="256.87201" y="219.39999" xlink:href="#a"/>
  <use fill="#ff6600" x="232.5" y="258.20001" xlink:href="#b"/>
  <use fill="#ff6600" x="236.948" y="258.20001" xlink:href="#h"/>
  <use fill="#ff6600" x="241.396" y="258.20001" xlink:href="#b"/>
  <use fill="#ff6600" x="245.84399" y="258.20001" xlink:href="#b"/>
  <use fill="#ff6600" x="250.29201" y="258.20001" xlink:href="#b"/>
  <use fill="#ff6600" x="254.74001" y="258.20001" xlink:href="#b"/>
 </g>
 <g fill="none" stroke-linecap="round" stroke-miterlimit="10" stroke-width=".9">
  <path stroke="#170cda" d="m114.27 136.49h-14.398"/>
  <path stroke="#170cda" d="m107.07 134.69-7.1992 1.8008"/>
  <path stroke="#170cda" d="m107.17 135.29-7.3008 1.1992"/>
  <path stroke="#170cda" d="m107.27 135.89-7.3984 0.5"/>
  <path stroke="#170cda" d="m107.27 136.49h-7.3984"/>
  <path stroke="#170cda" d="m107.27 137.09-7.3984-0.5"/>
  <path stroke="#170cda" d="m107.17 137.69-7.3008-1.1992"/>
  <path stroke="#170cda" d="m107.07 138.29-7.1992-1.8008"/>
  <path stroke="#170cda" d="m114.27 49.891h-14.398"/>
  <path stroke="#170cda" d="m107.07 48.091-7.1992 1.8008"/>
  <path stroke="#170cda" d="m107.17 48.688-7.3008 1.2031"/>
  <path stroke="#170cda" d="m107.27 49.29-7.3984 0.5"/>
  <path stroke="#170cda" d="m107.27 49.891h-7.3984"/>
  <path stroke="#170cda" d="m107.27 50.489-7.3984-0.5"/>
  <path stroke="#170cda" d="m107.17 51.091-7.3008-1.1992"/>
  <path stroke="#170cda" d="m107.07 51.688-7.1992-1.7969"/>
 </g>
 <g transform="translate(-215.13 -51.21)">
  <use x="333" y="184.3" xlink:href="#x"/>
  <use x="338.776" y="184.3" xlink:href="#l"/>
  <use x="342.776" y="184.3" xlink:href="#f"/>
  <use x="345" y="184.3" xlink:href="#k"/>
  <use x="333" y="194.3" xlink:href="#t"/>
  <use x="335.664" y="194.3" xlink:href="#s"/>
  <use x="339.664" y="194.3" xlink:href="#l"/>
  <use x="343.664" y="194.3" xlink:href="#r"/>
  <use x="348.20001" y="194.3" xlink:href="#e"/>
  <use x="352.20001" y="194.3" xlink:href="#q"/>
  <use x="355.75201" y="194.3" xlink:href="#e"/>
  <use x="359.75201" y="194.3" xlink:href="#w"/>
  <use x="361.97601" y="194.3" xlink:href="#f"/>
  <use x="364.20001" y="194.3" xlink:href="#e"/>
  <use x="368.20001" y="194.3" xlink:href="#v"/>
  <use x="372.20001" y="194.3" xlink:href="#f"/>
  <use x="374.42401" y="194.3" xlink:href="#k"/>
  <use x="377.97601" y="194.3" xlink:href="#u"/>
  <use x="333" y="97.699997" xlink:href="#x"/>
  <use x="338.776" y="97.699997" xlink:href="#l"/>
  <use x="342.776" y="97.699997" xlink:href="#f"/>
  <use x="345" y="97.699997" xlink:href="#k"/>
  <use x="333" y="107.7" xlink:href="#t"/>
  <use x="335.664" y="107.7" xlink:href="#s"/>
  <use x="339.664" y="107.7" xlink:href="#l"/>
  <use x="343.664" y="107.7" xlink:href="#r"/>
  <use x="348.20001" y="107.7" xlink:href="#e"/>
  <use x="352.20001" y="107.7" xlink:href="#q"/>
  <use x="355.75201" y="107.7" xlink:href="#e"/>
  <use x="359.75201" y="107.7" xlink:href="#w"/>
  <use x="361.97601" y="107.7" xlink:href="#f"/>
  <use x="364.20001" y="107.7" xlink:href="#e"/>
  <use x="368.20001" y="107.7" xlink:href="#v"/>
  <use x="372.20001" y="107.7" xlink:href="#f"/>
  <use x="374.42401" y="107.7" xlink:href="#k"/>
  <use x="377.97601" y="107.7" xlink:href="#u"/>
 </g>
</svg>
