<svg width="220" height="80" version="1.1" viewBox="0 0 220 80" xmlns="http://www.w3.org/2000/svg" xmlns:xlink="http://www.w3.org/1999/xlink">
 <defs>
  <g id="n">
   <path d="m1.5781-4.3125h-1.1094v6.0625h1.1094v-2.2656c.28125.48438.65625.70312 1.2031.70312 1.0469 0 1.8125-.96875 1.8125-2.2812 0-.60938-.17188-1.2188-.46875-1.625-.28125-.40625-.82812-.67188-1.3438-.67188-.54688 0-.92188.23438-1.2031.70312zm.95312.85938c.5625 0 .9375.54688.9375 1.375 0 .79688-.375 1.3281-.9375 1.3281-.57812 0-.95312-.53125-.95312-1.3438s.375-1.3594.95312-1.3594z"/>
  </g>
  <g id="b">
   <path d="m.5-4.3125v4.3125h1.125v-2.2969c0-.65625.32812-.98438.98438-.98438.125 0 .20312.015625.34375.03125v-1.1406h-.125c-.51562 0-.95312.32812-1.2031.92188v-.84375z"/>
  </g>
  <g id="a">
   <path d="m2.4062-4.3906c-1.3125 0-2.125.875-2.125 2.2812 0 1.4219.8125 2.2969 2.1406 2.2969 1.3125 0 2.125-.875 2.125-2.2656 0-1.4531-.78125-2.3125-2.1406-2.3125zm.015625.90625c.60938 0 1.0156.54688 1.0156 1.3906 0 .8125-.42188 1.375-1.0156 1.375-.60938 0-1.0156-.54688-1.0156-1.3906 0-.82812.40625-1.375 1.0156-1.375z"/>
  </g>
  <g id="i">
   <path d="m4.1719-2.7031c-.078125-1.0625-.76562-1.6875-1.8594-1.6875-1.2969 0-2.0469.84375-2.0469 2.3125 0 1.4375.75 2.2656 2.0312 2.2656 1.0469 0 1.7812-.65625 1.875-1.6875h-1.0625c-.14062.5625-.35938.78125-.8125.78125-.5625 0-.90625-.5-.90625-1.3594 0-.40625.078125-.78125.21875-1.0469.125-.23438.375-.35938.6875-.35938.46875 0 .67188.21875.8125.78125z"/>
  </g>
  <g id="h">
   <path d="m4.1875-1.8125c.015625-.09375.015625-.125.015625-.1875 0-.4375-.0625-.82812-.17188-1.1406-.28125-.78125-.98438-1.25-1.8594-1.25-1.2344 0-2 .89062-2 2.3438 0 1.3906.75 2.2344 1.9844 2.2344.96875 0 1.75-.54688 2-1.4062h-1.1094c-.14062.34375-.45312.54688-.85938.54688-.3125 0-.57812-.14062-.73438-.375-.09375-.15625-.14062-.35938-.15625-.76562zm-2.875-.73438c.078125-.67188.34375-.98438.84375-.98438.51562 0 .8125.34375.875.98438z"/>
  </g>
  <g id="g">
   <path d="m4.0469-2.9219c-.015625-.92188-.73438-1.4688-1.8906-1.4688-1.0938 0-1.7656.54688-1.7656 1.4375 0 .29688.078125.53125.23438.70312.15625.15625.28125.21875.70312.35938l1.3281.42188c.28125.078125.39062.17188.39062.34375 0 .26562-.3125.42188-.84375.42188-.29688 0-.51562-.046875-.65625-.14062-.125-.09375-.17188-.1875-.21875-.40625h-1.0938c.03125.95312.71875 1.4375 2.0312 1.4375.60938 0 1.0625-.125 1.375-.39062.32812-.25.51562-.65625.51562-1.0781 0-.5625-.28125-.92188-.84375-1.0938l-1.4219-.40625c-.3125-.09375-.39062-.15625-.39062-.32812 0-.25.26562-.40625.65625-.40625.53125 0 .79688.20312.79688.59375z"/>
  </g>
  <g id="v">
   <path d="m.5-4.3125v4.3125h1.125v-2.5938c0-.51562.34375-.84375.90625-.84375.48438 0 .71875.26562.71875.78125v2.6562h1.125v-2.8906c0-.96875-.53125-1.5-1.4531-1.5-.57812 0-.98438.20312-1.2969.6875v-.60938z"/>
  </g>
  <g id="u">
   <path d="m2.4062-4.2344h-.625v-1.1562h-1.125v1.1562h-.54688v.75h.54688v2.6562c0 .67188.375 1.0156 1.1094 1.0156.25 0 .4375-.03125.64062-.09375v-.78125c-.10938.015625-.17188.03125-.25.03125-.29688 0-.375-.09375-.375-.48438v-2.3438h.625z"/>
  </g>
  <g id="f">
   <path d="m1.6562-5.8281h-1.125v5.8281h1.125z"/>
  </g>
  <g id="z">
   <path d="m2.3906-2.7344h-2.1875v1.0781h2.1875z"/>
  </g>
  <g id="y">
   <path d="m.53125-5.8281v5.8281h1.125v-2.5938c0-.5.35938-.84375.85938-.84375.25 0 .4375.078125.5625.26562.10938.14062.125.26562.125.53125v2.6406h1.125v-2.8906c0-.54688-.14062-.92188-.4375-1.1719-.25-.20312-.60938-.32812-.96875-.32812-.54688 0-.95312.21875-1.2656.6875v-2.125z"/>
  </g>
  <g id="m">
   <path d="m3.1562-4.3125-.90625 3.1406-.95312-3.1406h-1.2188l1.6094 4.4844c0 .45312-.28125.75-.70312.75-.09375 0-.15625-.015625-.29688-.046875v.84375c.17188.03125.26562.03125.40625.03125.28125 0 .60938-.046875.79688-.14062.3125-.125.45312-.29688.64062-.8125l1.7656-5.1094z"/>
  </g>
  <g id="x">
   <path d="m1.6562-4.3125h-1.125v4.3125h1.125zm0-1.5156h-1.125v1h1.125z"/>
  </g>
  <g id="w">
   <path d="m4.1875-.14062c-.1875-.17188-.25-.3125-.25-.51562v-2.4062c0-.875-.59375-1.3281-1.7656-1.3281s-1.7812.5-1.8594 1.5h1.0938c.046875-.45312.23438-.59375.78125-.59375.4375 0 .65625.14062.65625.42188 0 .15625-.078125.26562-.20312.34375-.14062.078125-.14062.078125-.70312.17188l-.4375.078125c-.85938.14062-1.2812.57812-1.2812 1.3594 0 .76562.53125 1.2969 1.3125 1.2969.48438 0 .92188-.20312 1.3125-.625 0 .23438.03125.3125.125.4375h1.2188zm-1.3438-1.5938c0 .64062-.32812 1.0156-.89062 1.0156-.375 0-.60938-.20312-.60938-.51562 0-.34375.17188-.5.64062-.59375l.39062-.078125c.28125-.046875.34375-.0625.46875-.14062z"/>
  </g>
  <g id="l">
   <path d="m.48438-4.3125v4.3125h1.1094v-2.5938c0-.53125.29688-.84375.78125-.84375.375 0 .59375.21875.59375.5625v2.875h1.125v-2.5938c0-.53125.29688-.84375.76562-.84375.375 0 .60938.21875.60938.5625v2.875h1.125v-3.0625c0-.82812-.51562-1.3281-1.375-1.3281-.5625 0-.9375.1875-1.2656.64062-.20312-.40625-.64062-.64062-1.1719-.64062-.5 0-.82812.15625-1.1875.60938v-.53125z"/>
  </g>
  <g id="j">
   <path d="m1.7188-1.1719h-1.2031v1.1719h1.2031z"/>
  </g>
  <g id="t">
   <path d="m.45312-3.2188.17188-.015625c.1875 0 .34375.09375.34375.21875 0 .10938-.28125 1.2188-.5625 2.2656-.1875.6875-.34375 1.2812-.46875 1.7969-.078125.35938-.1875.45312-.53125.46875v.125h1.6406v-.125c-.39062 0-.51562-.0625-.51562-.23438 0-.10938.125-.71875.29688-1.3281.20312.10938.34375.14062.53125.14062 1.1562 0 2.3906-1.3438 2.3906-2.625 0-.625-.34375-1-.92188-1-.51562 0-.90625.26562-1.3594.92188l.23438-.8125c0-.046875.015625-.0625.015625-.0625 0-.03125-.015625-.046875-.046875-.046875h-.015625l-1.2188.17188zm2.0781.03125c.34375.015625.5.23438.5.6875 0 .54688-.23438 1.2188-.57812 1.7188-.32812.48438-.71875.71875-1.1406.71875-.21875 0-.375-.125-.375-.29688 0-.26562.28125-1.3125.51562-1.9062.21875-.54688.6875-.9375 1.0781-.92188z"/>
  </g>
  <g id="e">
   <path d="m3.7188-.875-.23438.21875c-.25.25-.34375.32812-.40625.32812s-.125-.046875-.125-.10938c0-.15625.34375-1.5312.71875-2.9062.03125-.078125.03125-.09375.046875-.15625l-.0625-.03125-.48438.0625-.015625.015625-.09375.39062c-.0625-.29688-.29688-.46875-.64062-.46875-1.0625 0-2.2812 1.4531-2.2812 2.7344 0 .5625.29688.89062.8125.89062.5625 0 .90625-.26562 1.6094-1.2656-.17188.65625-.1875.71875-.1875.92188 0 .23438.09375.32812.32812.32812.3125 0 .5-.15625 1.1094-.875zm-1.25-2.4844c.28125.015625.45312.21875.45312.5 0 .67188-.40625 1.6094-.95312 2.2031-.1875.21875-.46875.35938-.70312.35938-.28125 0-.45312-.23438-.45312-.59375 0-.45312.29688-1.2656.64062-1.7656.32812-.46875.6875-.71875 1.0156-.70312z"/>
  </g>
  <g id="k">
   <path d="m.96875 0c.42188-1.375.54688-1.7031.92188-2.3125.26562-.45312.48438-.70312.625-.70312.046875 0 .078125.046875.125.125.0625.125.125.17188.28125.17188.25 0 .375-.14062.375-.40625 0-.23438-.15625-.40625-.375-.40625-.1875 0-.40625.125-.60938.34375-.32812.34375-.65625.79688-.78125 1.125l-.10938.28125.42188-1.7344-.015625-.015625c-.59375.10938-.65625.125-1.25.21875v.14062c.1875-.03125.21875-.046875.28125-.046875.17188 0 .28125.078125.28125.23438 0 .10938 0 .10938-.125.64062l-.65625 2.3438z"/>
  </g>
  <g id="d">
   <path d="m1.8281-.98438c-.53125.67188-.59375.73438-.76562.73438-.078125 0-.125-.046875-.125-.15625 0-.0625.03125-.15625.078125-.3125 0-.03125.015625-.046875.015625-.0625v-.015625l1.2031-4.625-.046875-.046875c-.46875.10938-.78125.17188-1.25.21875v.125c.39062 0 .54688.046875.54688.1875 0 .03125 0 .078125-.015625.14062l-1.1094 4.2344c-.015625.078125-.03125.14062-.03125.20312 0 .29688.14062.45312.39062.45312.42188 0 .6875-.23438 1.2031-1z"/>
  </g>
  <g id="c">
   <path d="m2.8594-.875c-.57812.46875-.8125.60938-1.1719.60938-.45312 0-.75-.29688-.75-.73438 0-.125.015625-.23438.09375-.48438l.21875-.03125c1.2031-.17188 2.0469-.78125 2.0469-1.4688 0-.32812-.23438-.54688-.64062-.54688-1.1562 0-2.4062 1.3125-2.4062 2.5156 0 .65625.4375 1.1094 1.0469 1.1094.57812 0 1.1875-.32812 1.6562-.875zm-1.6406-1.1406c.26562-.71875.85938-1.3281 1.2656-1.3281.17188 0 .28125.125.28125.3125 0 .25-.15625.53125-.39062.78125-.29688.28125-.60938.42188-1.2969.59375z"/>
  </g>
  <g id="r">
   <path d="m1.7812-.90625c-.20312.26562-.25.32812-.32812.40625-.14062.125-.26562.21875-.32812.21875s-.14062-.0625-.14062-.125c0-.078125.03125-.20312.09375-.35938l.03125-.14062.015625-.015625v-.015625l.70312-2.5781-.03125-.015625c-.8125.15625-.96875.17188-1.2812.20312v.125c.4375.015625.51562.03125.51562.1875 0 .078125-.03125.20312-.078125.35938l-.39062 1.4219c-.125.46875-.17188.70312-.17188.85938 0 .29688.125.46875.375.46875.375 0 .65625-.25 1.1094-.92188zm-.0625-4.3281c-.21875 0-.375.17188-.375.42188 0 .26562.14062.42188.375.42188.20312 0 .39062-.17188.39062-.40625s-.1875-.4375-.39062-.4375z"/>
  </g>
  <g id="q">
   <path d="m3.6875-.9375c-.4375.54688-.53125.64062-.65625.64062-.078125 0-.14062-.0625-.14062-.14062 0-.0625.03125-.20312.125-.5l.45312-1.6406c.03125-.17188.0625-.34375.0625-.46875 0-.29688-.21875-.48438-.51562-.48438-.51562 0-1.0312.48438-1.8438 1.7656l.53125-1.75-.015625-.015625c-.4375.09375-.60938.125-1.2969.25v.125c.40625.015625.5.0625.5.21875 0 .046875 0 .09375-.015625.14062l-.76562 2.7969h.60938c.375-1.2656.4375-1.4375.79688-1.9844.46875-.73438.89062-1.1406 1.1875-1.1406.10938 0 .1875.09375.1875.23438 0 .09375-.046875.35938-.10938.60938l-.35938 1.3281c-.10938.40625-.125.51562-.125.59375 0 .29688.10938.4375.375.4375.35938 0 .5625-.17188 1.125-.90625z"/>
  </g>
  <g id="p">
   <path d="m2.375-3.4219h-.64062l.21875-.82812v-.046875c0-.046875-.015625-.078125-.0625-.078125s-.0625.015625-.10938.078125c-.3125.40625-.8125.8125-1.0625.875-.20312.0625-.26562.125-.26562.20312 0 .015625 0 .03125.015625.046875h.59375l-.57812 2.2031c-.015625.078125-.03125.10938-.046875.17188-.078125.26562-.14062.51562-.14062.59375 0 .15625.17188.29688.39062.29688.35938 0 .625-.23438 1.125-.96875l-.09375-.0625c-.40625.5-.53125.64062-.65625.64062-.078125 0-.125-.0625-.125-.17188l.015625-.03125.70312-2.6719h.67188z"/>
  </g>
  <g id="o">
   <path d="m.28125-3.1719h.71875l-.70312 3.3594c-.17188.85938-.4375 1.2969-.78125 1.2969-.09375 0-.15625-.046875-.15625-.125 0-.03125.015625-.046875.03125-.09375.03125-.046875.046875-.078125.046875-.125 0-.17188-.15625-.29688-.3125-.29688-.17188 0-.29688.14062-.29688.32812 0 .28125.26562.48438.625.48438.71875 0 1.2656-.78125 1.6094-2.2656l.5625-2.5625h.875l.046875-.25h-.85938c.23438-1.2656.53125-1.8281.96875-1.8281.125 0 .1875.046875.1875.10938 0 .015625-.015625.03125-.03125.0625-.046875.0625-.046875.10938-.046875.17188 0 .1875.10938.32812.29688.32812.17188 0 .32812-.15625.32812-.32812 0-.29688-.29688-.51562-.6875-.51562s-.70312.17188-.98438.54688c-.25.3125-.40625.6875-.64062 1.4531h-.73438z"/>
  </g>
  <g id="s">
   <path d="m2.7969-.84375c-.4375.46875-.75.64062-1.1406.64062-.45312 0-.73438-.32812-.73438-.90625 0-.6875.28125-1.4062.73438-1.8594.23438-.25.54688-.39062.875-.39062.1875 0 .29688.0625.29688.15625 0 .046875-.015625.078125-.046875.15625-.0625.10938-.078125.15625-.078125.23438 0 .1875.125.29688.3125.29688.21875 0 .39062-.14062.39062-.35938 0-.375-.35938-.65625-.84375-.65625-1.2031 0-2.3281 1.1719-2.3281 2.4219 0 .75.4375 1.2031 1.1875 1.2031.59375 0 1.0156-.25 1.5-.85938z"/>
  </g>
 </defs>
 <g fill="none" stroke="#000" stroke-linecap="round" stroke-miterlimit="10" stroke-width=".66667">
  <path d="m3.7744 75.343v-50.402"/>
  <path d="m3.7744 24.941h50.398"/>
  <path d="m54.173 24.941v50.402"/>
  <path d="m54.173 75.343h-50.398"/>
 </g>
 <g transform="translate(-178.03 -56.458)" fill="#ff6600">
  <use x="187.60001" y="108.2" xlink:href="#n"/>
  <use x="192.48801" y="108.2" xlink:href="#b"/>
  <use x="195.60001" y="108.2" xlink:href="#a"/>
  <use x="200.48801" y="108.2" xlink:href="#i"/>
  <use x="204.936" y="108.2" xlink:href="#h"/>
  <use x="209.384" y="108.2" xlink:href="#g"/>
  <use x="213.832" y="108.2" xlink:href="#g"/>
  <use x="218.28" y="108.2" xlink:href="#a"/>
  <use x="223.168" y="108.2" xlink:href="#b"/>
 </g>
 <g fill="none" stroke="#000" stroke-linecap="round" stroke-miterlimit="10" stroke-width=".66667">
  <path d="m90.173 75.343v-50.402"/>
  <path d="m90.173 24.941h36"/>
  <path d="m126.17 24.941v50.402"/>
  <path d="m126.17 75.343h-36"/>
 </g>
 <g transform="translate(-178.03 -56.458)" fill="#00ff00">
  <use x="271.39999" y="102.2" xlink:href="#i"/>
  <use x="275.84799" y="102.2" xlink:href="#a"/>
  <use x="280.73599" y="102.2" xlink:href="#v"/>
  <use x="285.62399" y="102.2" xlink:href="#u"/>
  <use x="288.28799" y="102.2" xlink:href="#b"/>
  <use x="291.39999" y="102.2" xlink:href="#a"/>
  <use x="296.28799" y="102.2" xlink:href="#f"/>
  <use x="298.51199" y="102.2" xlink:href="#z"/>
  <use x="281.29999" y="114.2" xlink:href="#f"/>
  <use x="283.52399" y="114.2" xlink:href="#h"/>
  <use x="287.97198" y="114.2" xlink:href="#b"/>
 </g>
 <g fill="none" stroke="#000" stroke-linecap="round" stroke-miterlimit="10" stroke-width=".66667">
  <path d="m126.17 75.343v-50.402"/>
  <path d="m126.17 24.941h90"/>
  <path d="m216.17 24.941v50.402"/>
  <path d="m216.17 75.343h-90"/>
 </g>
 <g transform="translate(-178.03 -56.458)" fill="#007fff">
  <use x="333.10001" y="102.2" xlink:href="#n"/>
  <use x="337.98801" y="102.2" xlink:href="#y"/>
  <use x="342.87601" y="102.2" xlink:href="#m"/>
  <use x="347.32401" y="102.2" xlink:href="#g"/>
  <use x="351.772" y="102.2" xlink:href="#x"/>
  <use x="353.996" y="102.2" xlink:href="#i"/>
  <use x="358.444" y="102.2" xlink:href="#w"/>
  <use x="362.892" y="102.2" xlink:href="#f"/>
  <use x="333.60001" y="114.2" xlink:href="#l"/>
  <use x="340.71201" y="114.2" xlink:href="#h"/>
  <use x="345.16" y="114.2" xlink:href="#l"/>
  <use x="352.272" y="114.2" xlink:href="#a"/>
  <use x="357.16" y="114.2" xlink:href="#b"/>
  <use x="360.272" y="114.2" xlink:href="#m"/>
 </g>
 <g fill="none" stroke="#000" stroke-linecap="round" stroke-miterlimit="10" stroke-width=".5">
  <path d="m54.173 34.741h36"/>
  <path d="m54.173 38.542h36"/>
  <path d="m54.173 42.441h36"/>
  <path d="m54.173 46.343h36"/>
  <path d="m54.173 50.144h36"/>
  <path d="m54.173 65.741h36"/>
 </g>
 <g transform="translate(-178.03 -56.458)" fill="#2b0000">
  <use x="249.10001" y="112.1" xlink:href="#j"/>
  <use x="249.10001" y="116" xlink:href="#j"/>
  <use x="249.10001" y="119.9" xlink:href="#j"/>
 </g>
 <g fill="none" stroke="#000" stroke-linecap="round" stroke-miterlimit="10">
  <path d="m72.173 13.144v18" stroke-width=".967"/>
  <path d="m70.372 23.941 1.8008 7.2031" stroke-width="1.267"/>
  <g stroke-width=".967">
   <path d="m70.872 23.741 1.2031 7.3008"/>
   <path d="m71.575 23.644.5 7.3984"/>
   <path d="m72.173 23.644v7.3984"/>
   <path d="m72.673 23.644-.5 7.3984"/>
   <path d="m73.372 23.741-1.1992 7.3008"/>
   <path d="m73.974 23.941-1.8008 7.2031"/>
  </g>
 </g>
 <g transform="translate(-178.03 -56.458)">
  <use x="222.3" y="67.599998" xlink:href="#t"/>
  <use x="226.3" y="67.599998" xlink:href="#e"/>
  <use x="230.3" y="67.599998" xlink:href="#k"/>
  <use x="233.412" y="67.599998" xlink:href="#e"/>
  <use x="237.412" y="67.599998" xlink:href="#d"/>
  <use x="239.636" y="67.599998" xlink:href="#d"/>
  <use x="241.86" y="67.599998" xlink:href="#c"/>
  <use x="245.412" y="67.599998" xlink:href="#d"/>
  <use x="249.89999" y="67.599998" xlink:href="#r"/>
  <use x="252.12399" y="67.599998" xlink:href="#q"/>
  <use x="256.12399" y="67.599998" xlink:href="#p"/>
  <use x="258.34799" y="67.599998" xlink:href="#c"/>
  <use x="261.89999" y="67.599998" xlink:href="#k"/>
  <use x="265.01199" y="67.599998" xlink:href="#o"/>
  <use x="267.23599" y="67.599998" xlink:href="#e"/>
  <use x="271.23599" y="67.599998" xlink:href="#s"/>
  <use x="274.78799" y="67.599998" xlink:href="#c"/>
 </g>
</svg>
