<svg width="300" height="120" version="1.1" viewBox="0 0 300 120" xmlns="http://www.w3.org/2000/svg" xmlns:xlink="http://www.w3.org/1999/xlink">
 <defs>
  <g id="x">
   <path d="m.46875-5.8281v5.8281h1.125v-.4375c.26562.42188.64062.625 1.1875.625 1.0312 0 1.8125-.98438 1.8125-2.2969 0-.57812-.17188-1.1719-.45312-1.5938-.29688-.42188-.82812-.6875-1.3594-.6875-.54688 0-.92188.20312-1.1875.625v-2.0625zm2.0625 2.375c.5625 0 .95312.5625.95312 1.3594s-.39062 1.3438-.95312 1.3438-.9375-.53125-.9375-1.375c0-.78125.375-1.3281.9375-1.3281z"/>
  </g>
  <g id="u">
   <path d="m4.3281 0v-4.3125h-1.125v2.7031c0 .5-.34375.84375-.90625.84375-.46875 0-.71875-.26562-.71875-.78125v-2.7656h-1.1094v3c0 .95312.51562 1.5 1.4375 1.5.59375 0 .98438-.21875 1.2969-.70312v.51562z"/>
  </g>
  <g id="e">
   <path d="m4.0469-2.9219c-.015625-.92188-.73438-1.4688-1.8906-1.4688-1.0938 0-1.7656.54688-1.7656 1.4375 0 .29688.078125.53125.23438.70312.15625.15625.28125.21875.70312.35938l1.3281.42188c.28125.078125.39062.17188.39062.34375 0 .26562-.3125.42188-.84375.42188-.29688 0-.51562-.046875-.65625-.14062-.125-.09375-.17188-.1875-.21875-.40625h-1.0938c.03125.95312.71875 1.4375 2.0312 1.4375.60938 0 1.0625-.125 1.375-.39062.32812-.25.51562-.65625.51562-1.0781 0-.5625-.28125-.92188-.84375-1.0938l-1.4219-.40625c-.3125-.09375-.39062-.15625-.39062-.32812 0-.25.26562-.40625.65625-.40625.53125 0 .79688.20312.79688.59375z"/>
  </g>
  <g id="t">
   <path d="m1.5781-4.3125h-1.1094v6.0625h1.1094v-2.2656c.28125.48438.65625.70312 1.2031.70312 1.0469 0 1.8125-.96875 1.8125-2.2812 0-.60938-.17188-1.2188-.46875-1.625-.28125-.40625-.82812-.67188-1.3438-.67188-.54688 0-.92188.23438-1.2031.70312zm.95312.85938c.5625 0 .9375.54688.9375 1.375 0 .79688-.375 1.3281-.9375 1.3281-.57812 0-.95312-.53125-.95312-1.3438s.375-1.3594.95312-1.3594z"/>
  </g>
  <g id="c">
   <path d="m.5-4.3125v4.3125h1.125v-2.2969c0-.65625.32812-.98438.98438-.98438.125 0 .20312.015625.34375.03125v-1.1406h-.125c-.51562 0-.95312.32812-1.2031.92188v-.84375z"/>
  </g>
  <g id="b">
   <path d="m2.4062-4.3906c-1.3125 0-2.125.875-2.125 2.2812 0 1.4219.8125 2.2969 2.1406 2.2969 1.3125 0 2.125-.875 2.125-2.2656 0-1.4531-.78125-2.3125-2.1406-2.3125zm.015625.90625c.60938 0 1.0156.54688 1.0156 1.3906 0 .8125-.42188 1.375-1.0156 1.375-.60938 0-1.0156-.54688-1.0156-1.3906 0-.82812.40625-1.375 1.0156-1.375z"/>
  </g>
  <g id="s">
   <path d="m4.1719-2.7031c-.078125-1.0625-.76562-1.6875-1.8594-1.6875-1.2969 0-2.0469.84375-2.0469 2.3125 0 1.4375.75 2.2656 2.0312 2.2656 1.0469 0 1.7812-.65625 1.875-1.6875h-1.0625c-.14062.5625-.35938.78125-.8125.78125-.5625 0-.90625-.5-.90625-1.3594 0-.40625.078125-.78125.21875-1.0469.125-.23438.375-.35938.6875-.35938.46875 0 .67188.21875.8125.78125z"/>
  </g>
  <g id="d">
   <path d="m4.1875-1.8125c.015625-.09375.015625-.125.015625-.1875 0-.4375-.0625-.82812-.17188-1.1406-.28125-.78125-.98438-1.25-1.8594-1.25-1.2344 0-2 .89062-2 2.3438 0 1.3906.75 2.2344 1.9844 2.2344.96875 0 1.75-.54688 2-1.4062h-1.1094c-.14062.34375-.45312.54688-.85938.54688-.3125 0-.57812-.14062-.73438-.375-.09375-.15625-.14062-.35938-.15625-.76562zm-2.875-.73438c.078125-.67188.34375-.98438.84375-.98438.51562 0 .8125.34375.875.98438z"/>
  </g>
  <g id="a">
   <path d="m.48438-4.3125v4.3125h1.1094v-2.5938c0-.53125.29688-.84375.78125-.84375.375 0 .59375.21875.59375.5625v2.875h1.125v-2.5938c0-.53125.29688-.84375.76562-.84375.375 0 .60938.21875.60938.5625v2.875h1.125v-3.0625c0-.82812-.51562-1.3281-1.375-1.3281-.5625 0-.9375.1875-1.2656.64062-.20312-.40625-.64062-.64062-1.1719-.64062-.5 0-.82812.15625-1.1875.60938v-.53125z"/>
  </g>
  <g id="i">
   <path d="m3.1562-4.3125-.90625 3.1406-.95312-3.1406h-1.2188l1.6094 4.4844c0 .45312-.28125.75-.70312.75-.09375 0-.15625-.015625-.29688-.046875v.84375c.17188.03125.26562.03125.40625.03125.28125 0 .60938-.046875.79688-.14062.3125-.125.45312-.29688.64062-.8125l1.7656-5.1094z"/>
  </g>
  <g id="w">
   <path d="m1.9062-3.9062v3.9062h1.125v-5.6719h-.75c-.17188.67188-.76562 1.0156-1.7344 1.0156v.75z"/>
  </g>
  <g id="v">
   <path d="m4.0938 0h1.1875v-5.8281h-1.1875v3.9688l-2.3125-3.9688h-1.2344v5.8281h1.2031v-4.0312z"/>
  </g>
  <g id="f">
   <path d="m1.7188-1.1719h-1.2031v1.1719h1.2031z"/>
  </g>
  <g id="r">
   <path d="m.875-5.1406c.48438.015625.53125.03125.53125.21875 0 .0625-.015625.15625-.078125.34375l-.046875.14062-.015625.0625-1.0781 4v.03125c0 .1875.60938.4375 1.0625.4375 1.2031 0 2.5312-1.3906 2.5312-2.6562 0-.5625-.39062-.96875-.92188-.96875-.5625 0-.98438.32812-1.5469 1.2188.40625-1.5.46875-1.7344.82812-3.1094l-.03125-.046875c-.40625.078125-.64062.10938-1.2344.1875zm1.6719 2c.34375 0 .5625.26562.5625.6875 0 .53125-.40625 1.3906-.89062 1.8906-.29688.29688-.64062.46875-.98438.46875-.25 0-.35938-.09375-.35938-.28125 0-.46875.23438-1.2344.57812-1.8438s.70312-.92188 1.0938-.92188z"/>
  </g>
  <g id="o">
   <path d="m3.6875-.9375c-.42188.53125-.53125.64062-.65625.64062-.0625 0-.09375-.0625-.09375-.14062 0-.046875 0-.046875.15625-.625l.625-2.3906h-.59375c-.42188 1.1875-.51562 1.375-.875 1.9531-.48438.75-.875 1.1562-1.125 1.1562-.10938 0-.17188-.078125-.17188-.1875v-.078125l.73438-2.9062-.03125-.015625c-.45312.10938-.75.15625-1.1875.21875v.10938c.3125.015625.3125.015625.39062.046875.046875.015625.078125.09375.078125.14062 0 .078125-.03125.26562-.10938.54688l-.29688 1.125c-.14062.59375-.1875.84375-.1875.98438 0 .29688.14062.45312.42188.45312.5625 0 .98438-.4375 1.9062-1.9844-.23438.85938-.35938 1.4062-.35938 1.5781 0 .25.14062.39062.39062.39062.375 0 .54688-.15625 1.0938-.9375z"/>
  </g>
  <g id="h">
   <path d="m.28125-1.1719-.15625 1.2812h.125c.078125-.14062.10938-.17188.20312-.17188.078125 0 .23438.03125.39062.078125.1875.046875.29688.078125.4375.078125.67188 0 1.1562-.4375 1.1562-1.0469 0-.3125-.17188-.65625-.54688-1.125-.3125-.375-.4375-.625-.4375-.84375 0-.26562.17188-.42188.45312-.42188.40625 0 .65625.29688.73438.92188h.125l.15625-1.1094h-.10938c-.0625.10938-.10938.14062-.23438.14062-.0625 0-.14062-.015625-.29688-.0625-.1875-.0625-.3125-.078125-.4375-.078125-.59375 0-.96875.34375-.96875.89062 0 .25.17188.59375.5 1.0312.3125.40625.45312.6875.45312.90625 0 .375-.25.625-.59375.625-.45312 0-.6875-.32812-.8125-1.0938z"/>
  </g>
  <g id="n">
   <path d="m1.7812-.90625c-.20312.26562-.25.32812-.32812.40625-.14062.125-.26562.21875-.32812.21875s-.14062-.0625-.14062-.125c0-.078125.03125-.20312.09375-.35938l.03125-.14062.015625-.015625v-.015625l.70312-2.5781-.03125-.015625c-.8125.15625-.96875.17188-1.2812.20312v.125c.4375.015625.51562.03125.51562.1875 0 .078125-.03125.20312-.078125.35938l-.39062 1.4219c-.125.46875-.17188.70312-.17188.85938 0 .29688.125.46875.375.46875.375 0 .65625-.25 1.1094-.92188zm-.0625-4.3281c-.21875 0-.375.17188-.375.42188 0 .26562.14062.42188.375.42188.20312 0 .39062-.17188.39062-.40625s-.1875-.4375-.39062-.4375z"/>
  </g>
  <g id="m">
   <path d="m3.6875-.9375c-.4375.54688-.53125.64062-.65625.64062-.078125 0-.14062-.0625-.14062-.14062 0-.0625.03125-.20312.125-.5l.45312-1.6406c.03125-.17188.0625-.34375.0625-.46875 0-.29688-.21875-.48438-.51562-.48438-.51562 0-1.0312.48438-1.8438 1.7656l.53125-1.75-.015625-.015625c-.4375.09375-.60938.125-1.2969.25v.125c.40625.015625.5.0625.5.21875 0 .046875 0 .09375-.015625.14062l-.76562 2.7969h.60938c.375-1.2656.4375-1.4375.79688-1.9844.46875-.73438.89062-1.1406 1.1875-1.1406.10938 0 .1875.09375.1875.23438 0 .09375-.046875.35938-.10938.60938l-.35938 1.3281c-.10938.40625-.125.51562-.125.59375 0 .29688.10938.4375.375.4375.35938 0 .5625-.17188 1.125-.90625z"/>
  </g>
  <g id="l">
   <path d="m2.375-3.4219h-.64062l.21875-.82812v-.046875c0-.046875-.015625-.078125-.0625-.078125s-.0625.015625-.10938.078125c-.3125.40625-.8125.8125-1.0625.875-.20312.0625-.26562.125-.26562.20312 0 .015625 0 .03125.015625.046875h.59375l-.57812 2.2031c-.015625.078125-.03125.10938-.046875.17188-.078125.26562-.14062.51562-.14062.59375 0 .15625.17188.29688.39062.29688.35938 0 .625-.23438 1.125-.96875l-.09375-.0625c-.40625.5-.53125.64062-.65625.64062-.078125 0-.125-.0625-.125-.17188l.015625-.03125.70312-2.6719h.67188z"/>
  </g>
  <g id="g">
   <path d="m2.8594-.875c-.57812.46875-.8125.60938-1.1719.60938-.45312 0-.75-.29688-.75-.73438 0-.125.015625-.23438.09375-.48438l.21875-.03125c1.2031-.17188 2.0469-.78125 2.0469-1.4688 0-.32812-.23438-.54688-.64062-.54688-1.1562 0-2.4062 1.3125-2.4062 2.5156 0 .65625.4375 1.1094 1.0469 1.1094.57812 0 1.1875-.32812 1.6562-.875zm-1.6406-1.1406c.26562-.71875.85938-1.3281 1.2656-1.3281.17188 0 .28125.125.28125.3125 0 .25-.15625.53125-.39062.78125-.29688.28125-.60938.42188-1.2969.59375z"/>
  </g>
  <g id="k">
   <path d="m.96875 0c.42188-1.375.54688-1.7031.92188-2.3125.26562-.45312.48438-.70312.625-.70312.046875 0 .078125.046875.125.125.0625.125.125.17188.28125.17188.25 0 .375-.14062.375-.40625 0-.23438-.15625-.40625-.375-.40625-.1875 0-.40625.125-.60938.34375-.32812.34375-.65625.79688-.78125 1.125l-.10938.28125.42188-1.7344-.015625-.015625c-.59375.10938-.65625.125-1.25.21875v.14062c.1875-.03125.21875-.046875.28125-.046875.17188 0 .28125.078125.28125.23438 0 .10938 0 .10938-.125.64062l-.65625 2.3438z"/>
  </g>
  <g id="j">
   <path d="m.28125-3.1719h.71875l-.70312 3.3594c-.17188.85938-.4375 1.2969-.78125 1.2969-.09375 0-.15625-.046875-.15625-.125 0-.03125.015625-.046875.03125-.09375.03125-.046875.046875-.078125.046875-.125 0-.17188-.15625-.29688-.3125-.29688-.17188 0-.29688.14062-.29688.32812 0 .28125.26562.48438.625.48438.71875 0 1.2656-.78125 1.6094-2.2656l.5625-2.5625h.875l.046875-.25h-.85938c.23438-1.2656.53125-1.8281.96875-1.8281.125 0 .1875.046875.1875.10938 0 .015625-.015625.03125-.03125.0625-.046875.0625-.046875.10938-.046875.17188 0 .1875.10938.32812.29688.32812.17188 0 .32812-.15625.32812-.32812 0-.29688-.29688-.51562-.6875-.51562s-.70312.17188-.98438.54688c-.25.3125-.40625.6875-.64062 1.4531h-.73438z"/>
  </g>
  <g id="q">
   <path d="m3.7188-.875-.23438.21875c-.25.25-.34375.32812-.40625.32812s-.125-.046875-.125-.10938c0-.15625.34375-1.5312.71875-2.9062.03125-.078125.03125-.09375.046875-.15625l-.0625-.03125-.48438.0625-.015625.015625-.09375.39062c-.0625-.29688-.29688-.46875-.64062-.46875-1.0625 0-2.2812 1.4531-2.2812 2.7344 0 .5625.29688.89062.8125.89062.5625 0 .90625-.26562 1.6094-1.2656-.17188.65625-.1875.71875-.1875.92188 0 .23438.09375.32812.32812.32812.3125 0 .5-.15625 1.1094-.875zm-1.25-2.4844c.28125.015625.45312.21875.45312.5 0 .67188-.40625 1.6094-.95312 2.2031-.1875.21875-.46875.35938-.70312.35938-.28125 0-.45312-.23438-.45312-.59375 0-.45312.29688-1.2656.64062-1.7656.32812-.46875.6875-.71875 1.0156-.70312z"/>
  </g>
  <g id="p">
   <path d="m2.7969-.84375c-.4375.46875-.75.64062-1.1406.64062-.45312 0-.73438-.32812-.73438-.90625 0-.6875.28125-1.4062.73438-1.8594.23438-.25.54688-.39062.875-.39062.1875 0 .29688.0625.29688.15625 0 .046875-.015625.078125-.046875.15625-.0625.10938-.078125.15625-.078125.23438 0 .1875.125.29688.3125.29688.21875 0 .39062-.14062.39062-.35938 0-.375-.35938-.65625-.84375-.65625-1.2031 0-2.3281 1.1719-2.3281 2.4219 0 .75.4375 1.2031 1.1875 1.2031.59375 0 1.0156-.25 1.5-.85938z"/>
  </g>
 </defs>
 <g fill="none" stroke="#000" stroke-linecap="round" stroke-miterlimit="10" stroke-width=".66667">
  <path d="m20.275 92h259.2"/>
  <path d="m279.48 92v-7.1992"/>
  <path d="m279.48 84.8 14.398 14.398"/>
  <path d="m293.88 99.199-14.398 14.402"/>
  <path d="m279.48 113.6v-7.1992"/>
  <path d="m279.48 106.4h-259.2"/>
  <path d="m20.275 106.4v7.1992"/>
  <path d="m20.275 113.6-14.398-14.402"/>
  <path d="m5.8762 99.199 14.398-14.398"/>
  <path d="m20.275 84.8v7.1992"/>
 </g>
 <g transform="translate(-138.12 -50.2)" fill="#f60">
  <use x="280.89999" y="152.8" xlink:href="#x"/>
  <use x="285.78799" y="152.8" xlink:href="#u"/>
  <use x="290.67599" y="152.8" xlink:href="#e"/>
 </g>
 <g fill="none" stroke="#000" stroke-linecap="round" stroke-miterlimit="10" stroke-width=".66667">
  <path d="m54.478 63.199v-50.398"/>
  <path d="m54.478 12.8h50.398"/>
  <path d="m104.88 12.8v50.398"/>
  <path d="m104.88 63.199h-50.398"/>
 </g>
 <g transform="translate(-138.12 -50.2)" fill="#f0f">
  <use x="198.39999" y="89.800003" xlink:href="#t"/>
  <use x="203.28799" y="89.800003" xlink:href="#c"/>
  <use x="206.39999" y="89.800003" xlink:href="#b"/>
  <use x="211.28799" y="89.800003" xlink:href="#s"/>
  <use x="215.73599" y="89.800003" xlink:href="#d"/>
  <use x="220.18401" y="89.800003" xlink:href="#e"/>
  <use x="224.632" y="89.800003" xlink:href="#e"/>
  <use x="229.08" y="89.800003" xlink:href="#b"/>
  <use x="233.968" y="89.800003" xlink:href="#c"/>
 </g>
 <g fill="none" stroke="#000" stroke-linecap="round" stroke-miterlimit="10" stroke-width=".66667">
  <path d="m60.775 63.199v-4.2969"/>
  <path d="m60.775 58.8h37.801"/>
  <path d="m98.575 58.8v4.3008"/>
  <path d="m98.575 63.199h-37.801"/>
  <path d="m139.08 63.199v-28.797"/>
  <path d="m139.08 34.402h36"/>
  <path d="m175.08 34.402v28.797"/>
  <path d="m175.08 63.199h-36"/>
 </g>
 <g transform="translate(-138.12 -50.2)" fill="#0f0">
  <use x="279.60001" y="96.099998" xlink:href="#a"/>
  <use x="286.71201" y="96.099998" xlink:href="#d"/>
  <use x="291.16" y="96.099998" xlink:href="#a"/>
  <use x="298.272" y="96.099998" xlink:href="#b"/>
  <use x="303.16" y="96.099998" xlink:href="#c"/>
  <use x="306.272" y="96.099998" xlink:href="#i"/>
  <use x="293" y="105.1" xlink:href="#w"/>
 </g>
 <g fill="none" stroke="#000" stroke-linecap="round" stroke-miterlimit="10" stroke-width=".66667">
  <path d="m146.27 63.199v-4.2969"/>
  <path d="m146.27 58.8h21.602"/>
  <path d="m167.88 58.8v4.3008"/>
  <path d="m167.88 63.199h-21.602"/>
  <path d="m209.27 63.199v-28.797"/>
  <path d="m209.27 34.402h36"/>
  <path d="m245.27 34.402v28.797"/>
  <path d="m245.27 63.199h-36"/>
 </g>
 <g transform="translate(-138.12 -50.2)" fill="#0f0">
  <use x="349.79999" y="96.099998" xlink:href="#a"/>
  <use x="356.91199" y="96.099998" xlink:href="#d"/>
  <use x="361.35999" y="96.099998" xlink:href="#a"/>
  <use x="368.47198" y="96.099998" xlink:href="#b"/>
  <use x="373.35999" y="96.099998" xlink:href="#c"/>
  <use x="376.47198" y="96.099998" xlink:href="#i"/>
  <use x="362.5" y="105.1" xlink:href="#v"/>
 </g>
 <g transform="translate(-138.12 -50.2)" fill="#241c1c">
  <use x="324.79999" y="100.6" xlink:href="#f"/>
  <use x="329.20001" y="100.6" xlink:href="#f"/>
  <use x="333.60001" y="100.6" xlink:href="#f"/>
 </g>
 <g stroke-linecap="round" stroke-miterlimit="10">
  <g fill="none" stroke="#000" stroke-width=".66667">
   <path d="m216.48 63.199v-4.2969"/>
   <path d="m216.48 58.8h21.598"/>
   <path d="m238.08 58.8v4.3008"/>
   <path d="m238.08 63.199h-21.598"/>
   <path d="m81.478 70.402-1.8008-7.2031"/>
   <path d="m80.876 70.5-1.1992-7.3008"/>
   <path d="m80.177 70.601-.5-7.4023"/>
   <path d="m79.677 70.601v-7.4023"/>
   <path d="m79.075 70.601.5-7.4023"/>
   <path d="m78.376 70.5 1.1992-7.3008"/>
   <path d="m77.876 70.402 1.8008-7.2031"/>
  </g>
  <path d="m79.677 63.199v28.801" fill="#2b0000" stroke="#000" stroke-width=".66667"/>
  <g fill="none" stroke-width=".5">
   <g stroke="#000">
    <path d="m77.876 84.8 1.8008 7.1992"/>
    <path d="m78.376 84.601 1.1992 7.3008"/>
    <path d="m79.075 84.5.5 7.4023"/>
    <path d="m79.677 84.5v7.4023"/>
    <path d="m80.177 84.5-.5 7.4023"/>
    <path d="m80.876 84.601-1.1992 7.3008"/>
    <path d="m81.478 84.8-1.8008 7.1992"/>
    <path d="m158.88 70.402-1.8008-7.2031"/>
    <path d="m158.27 70.5-1.1992-7.3008"/>
    <path d="m157.58 70.601-.5-7.4023"/>
    <path d="m157.08 70.601v-7.4023"/>
    <path d="m156.48 70.601.5-7.4023"/>
    <path d="m155.77 70.5 1.2031-7.3008"/>
    <path d="m155.27 70.402 1.8008-7.2031"/>
    <path d="m157.08 63.199v28.801"/>
    <path d="m155.27 84.8 1.8008 7.1992"/>
    <path d="m155.77 84.601 1.2031 7.3008"/>
    <path d="m156.48 84.5.5 7.4023"/>
    <path d="m157.08 84.5v7.4023"/>
    <path d="m157.58 84.5-.5 7.4023"/>
    <path d="m158.27 84.601-1.1992 7.3008"/>
    <path d="m158.88 84.8-1.8008 7.1992"/>
    <path d="m229.08 70.402-1.8008-7.2031"/>
    <path d="m228.48 70.5-1.2031-7.3008"/>
    <path d="m227.77 70.601-.5-7.4023"/>
    <path d="m227.27 70.601v-7.4023"/>
    <path d="m226.68 70.601.5-7.4023"/>
    <path d="m225.98 70.5 1.1992-7.3008"/>
    <path d="m225.48 70.402 1.7969-7.2031"/>
    <path d="m227.27 63.199v28.801"/>
    <path d="m225.48 84.8 1.7969 7.1992"/>
    <path d="m225.98 84.601 1.1992 7.3008"/>
    <path d="m226.68 84.5.5 7.4023"/>
    <path d="m227.27 84.5v7.4023"/>
    <path d="m227.77 84.5-.5 7.4023"/>
    <path d="m228.48 84.601-1.2031 7.3008"/>
    <path d="m229.08 84.8-1.8008 7.1992"/>
   </g>
   <path d="m180.98 20.5-81.203 36.699" stroke="#030b03"/>
   <g stroke="#000">
    <path d="m105.48 52.699-5.8008 4.6016"/>
    <path d="m105.88 53.199-6.1016 4.1016"/>
    <path d="m106.08 53.699-6.3984 3.6016"/>
    <path d="m106.38 54.3-6.6992 3"/>
    <path d="m106.68 54.902-6.9024 2.5"/>
    <path d="m106.88 55.402-7.1992 1.8984"/>
    <path d="m106.88 56-7.1992 1.1992"/>
   </g>
   <path d="m187.27 20-19.797 37" stroke="#030b03"/>
   <g stroke="#000">
    <path d="m169.18 49.8-1.8008 7.1992"/>
    <path d="m169.88 49.902-2.3008 7"/>
    <path d="m170.38 50.101-2.8984 6.6992"/>
    <path d="m170.88 50.402-3.5 6.5"/>
    <path d="m171.48 50.699-4 6.2031"/>
    <path d="m171.98 51.101-4.5 5.8984"/>
    <path d="m172.48 51.402-4.9024 5.3984"/>
   </g>
   <path d="m190.88 20 25.602 35.902" stroke="#030b03"/>
   <g stroke="#000">
    <path d="m210.88 51.101 5.6016 4.8008"/>
    <path d="m211.27 50.601 5.2031 5.1992"/>
    <path d="m211.68 50.3 4.6992 5.6016"/>
    <path d="m212.18 49.8 4.3008 6"/>
    <path d="m212.68 49.5 3.8008 6.4023"/>
    <path d="m213.27 49.3 3.2031 6.6016"/>
    <path d="m213.77 49 2.7031 6.9023"/>
   </g>
  </g>
 </g>
 <g transform="translate(-138.12 -50.2)">
  <use x="303" y="64.599998" xlink:href="#r"/>
  <use x="307" y="64.599998" xlink:href="#o"/>
  <use x="311" y="64.599998" xlink:href="#h"/>
  <use x="316.5" y="64.599998" xlink:href="#n"/>
  <use x="318.724" y="64.599998" xlink:href="#m"/>
  <use x="322.724" y="64.599998" xlink:href="#l"/>
  <use x="324.948" y="64.599998" xlink:href="#g"/>
  <use x="328.5" y="64.599998" xlink:href="#k"/>
  <use x="331.612" y="64.599998" xlink:href="#j"/>
  <use x="333.836" y="64.599998" xlink:href="#q"/>
  <use x="337.836" y="64.599998" xlink:href="#p"/>
  <use x="341.388" y="64.599998" xlink:href="#g"/>
  <use x="344.94" y="64.599998" xlink:href="#h"/>
 </g>
</svg>
