<svg width="170" height="170" version="1.1" viewBox="0 0 170 170" xmlns="http://www.w3.org/2000/svg" xmlns:xlink="http://www.w3.org/1999/xlink">
 <defs>
  <g id="d">
   <path d="m4.9062 0 1.2188-4.3125h-1.1562l-.65625 3.0156-.65625-3.0156h-1.1094l-.65625 3.0156-.6875-3.0156h-1.1562l1.2031 4.3125h1.1562l.6875-3.0469.65625 3.0469z"/>
  </g>
  <g id="c">
   <path d="m2.4062-4.3906c-1.3125 0-2.125.875-2.125 2.2812 0 1.4219.8125 2.2969 2.1406 2.2969 1.3125 0 2.125-.875 2.125-2.2656 0-1.4531-.78125-2.3125-2.1406-2.3125zm.015625.90625c.60938 0 1.0156.54688 1.0156 1.3906 0 .8125-.42188 1.375-1.0156 1.375-.60938 0-1.0156-.54688-1.0156-1.3906 0-.82812.40625-1.375 1.0156-1.375z"/>
  </g>
  <g id="b">
   <path d="m.5-4.3125v4.3125h1.125v-2.2969c0-.65625.32812-.98438.98438-.98438.125 0 .20312.015625.34375.03125v-1.1406h-.125c-.51562 0-.95312.32812-1.2031.92188v-.84375z"/>
  </g>
  <g id="a">
   <path d="m3.2344 0h1.125v-5.8281h-1.125v2.0625c-.28125-.42188-.64062-.625-1.1875-.625-1.0312 0-1.8125.98438-1.8125 2.2969 0 .57812.17188 1.1719.46875 1.5938.28125.42188.8125.6875 1.3438.6875.54688 0 .90625-.20312 1.1875-.625zm-.9375-3.4531c.5625 0 .9375.54688.9375 1.375 0 .78125-.375 1.3281-.9375 1.3281s-.9375-.54688-.9375-1.3438c0-.8125.375-1.3594.9375-1.3594z"/>
  </g>
  <g id="k">
   <path d="m2.1875-5.7969c-.60938 0-1.125.26562-1.4688.73438-.32812.4375-.48438 1.1562-.48438 2.2656 0 1 .125 1.7031.39062 2.1406.34375.54688.89062.84375 1.5625.84375.60938 0 1.1094-.25 1.4688-.71875.3125-.4375.48438-1.1719.48438-2.2344 0-1.0469-.125-1.75-.40625-2.1875-.32812-.54688-.89062-.84375-1.5469-.84375zm0 .90625c.28125 0 .51562.15625.65625.45312.10938.25.17188.85938.17188 1.6406 0 .64062-.0625 1.2656-.14062 1.5-.125.34375-.375.51562-.6875.51562-.29688 0-.53125-.14062-.65625-.4375-.10938-.23438-.17188-.82812-.17188-1.5938 0-.67188.046875-1.3125.14062-1.5469.10938-.34375.35938-.53125.6875-.53125z"/>
  </g>
  <g id="j">
   <path d="m1.9062-3.9062v3.9062h1.125v-5.6719h-.75c-.17188.67188-.76562 1.0156-1.7344 1.0156v.75z"/>
  </g>
  <g id="i">
   <path d="m4.0938-1h-2.4062c.15625-.29688.32812-.46875 1.1562-1.0781.98438-.71875 1.2812-1.1406 1.2812-1.9062 0-1.1094-.76562-1.8125-1.9531-1.8125-1.1719 0-1.8594.70312-1.8594 1.9062v.1875h1.0781v-.17188c0-.64062.29688-1 .8125-1 .5 0 .79688.34375.79688.90625 0 .625-.1875.85938-1.4531 1.7656-.96875.65625-1.2656 1.1406-1.3125 2.2031h3.8594z"/>
  </g>
  <g id="h">
   <path d="m1.7344-2.5312c.4375 0 .45312 0 .65625.046875.375.10938.625.4375.625.85938 0 .5-.35938.84375-.84375.84375-.53125 0-.8125-.29688-.85938-.875h-1.0781c0 1.125.73438 1.8438 1.9062 1.8438 1.2188 0 1.9844-.71875 1.9844-1.8125 0-.67188-.28125-1.1094-.92188-1.4219.51562-.32812.73438-.6875.73438-1.2031 0-.9375-.70312-1.5469-1.7969-1.5469-.82812 0-1.4531.35938-1.7031.98438-.09375.26562-.14062.45312-.14062.92188h1.0469c.015625-.29688.03125-.45312.09375-.59375.09375-.25.35938-.40625.6875-.40625.4375 0 .70312.28125.70312.75 0 .57812-.32812.85938-1 .85938h-.09375z"/>
  </g>
  <g id="g">
   <path d="m4.1719-2.1875h-.59375v-3.4844h-1.3125l-2.0781 3.4688v.95312h2.2812v1.25h1.1094v-1.25h.59375zm-1.7031 0h-1.4844l1.4844-2.4219z"/>
  </g>
  <g id="m">
   <path d="m3.9062-5.6719h-3.0312l-.5 3.1562h1.0156c.10938-.28125.375-.42188.71875-.42188.5625 0 .90625.40625.90625 1.0938 0 .65625-.34375 1.0625-.90625 1.0625-.5 0-.76562-.25-.79688-.70312h-1.0938c.015625 1 .76562 1.6719 1.875 1.6719 1.2031 0 2.0469-.82812 2.0469-2.0625 0-1.1719-.71875-1.9531-1.7656-1.9531-.39062 0-.65625.09375-.98438.34375l.17188-1.1875h2.3438z"/>
  </g>
  <g id="z">
   <path d="m1.5781-4.3125h-1.1094v6.0625h1.1094v-2.2656c.28125.48438.65625.70312 1.2031.70312 1.0469 0 1.8125-.96875 1.8125-2.2812 0-.60938-.17188-1.2188-.46875-1.625-.28125-.40625-.82812-.67188-1.3438-.67188-.54688 0-.92188.23438-1.2031.70312zm.95312.85938c.5625 0 .9375.54688.9375 1.375 0 .79688-.375 1.3281-.9375 1.3281-.57812 0-.95312-.53125-.95312-1.3438s.375-1.3594.95312-1.3594z"/>
  </g>
  <g id="y">
   <path d="m.53125-5.8281v5.8281h1.125v-2.5938c0-.5.35938-.84375.85938-.84375.25 0 .4375.078125.5625.26562.10938.14062.125.26562.125.53125v2.6406h1.125v-2.8906c0-.54688-.14062-.92188-.4375-1.1719-.25-.20312-.60938-.32812-.96875-.32812-.54688 0-.95312.21875-1.2656.6875v-2.125z"/>
  </g>
  <g id="x">
   <path d="m3.1562-4.3125-.90625 3.1406-.95312-3.1406h-1.2188l1.6094 4.4844c0 .45312-.28125.75-.70312.75-.09375 0-.15625-.015625-.29688-.046875v.84375c.17188.03125.26562.03125.40625.03125.28125 0 .60938-.046875.79688-.14062.3125-.125.45312-.29688.64062-.8125l1.7656-5.1094z"/>
  </g>
  <g id="f">
   <path d="m4.0469-2.9219c-.015625-.92188-.73438-1.4688-1.8906-1.4688-1.0938 0-1.7656.54688-1.7656 1.4375 0 .29688.078125.53125.23438.70312.15625.15625.28125.21875.70312.35938l1.3281.42188c.28125.078125.39062.17188.39062.34375 0 .26562-.3125.42188-.84375.42188-.29688 0-.51562-.046875-.65625-.14062-.125-.09375-.17188-.1875-.21875-.40625h-1.0938c.03125.95312.71875 1.4375 2.0312 1.4375.60938 0 1.0625-.125 1.375-.39062.32812-.25.51562-.65625.51562-1.0781 0-.5625-.28125-.92188-.84375-1.0938l-1.4219-.40625c-.3125-.09375-.39062-.15625-.39062-.32812 0-.25.26562-.40625.65625-.40625.53125 0 .79688.20312.79688.59375z"/>
  </g>
  <g id="w">
   <path d="m1.6562-4.3125h-1.125v4.3125h1.125zm0-1.5156h-1.125v1h1.125z"/>
  </g>
  <g id="v">
   <path d="m4.1719-2.7031c-.078125-1.0625-.76562-1.6875-1.8594-1.6875-1.2969 0-2.0469.84375-2.0469 2.3125 0 1.4375.75 2.2656 2.0312 2.2656 1.0469 0 1.7812-.65625 1.875-1.6875h-1.0625c-.14062.5625-.35938.78125-.8125.78125-.5625 0-.90625-.5-.90625-1.3594 0-.40625.078125-.78125.21875-1.0469.125-.23438.375-.35938.6875-.35938.46875 0 .67188.21875.8125.78125z"/>
  </g>
  <g id="l">
   <path d="m4.1875-.14062c-.1875-.17188-.25-.3125-.25-.51562v-2.4062c0-.875-.59375-1.3281-1.7656-1.3281s-1.7812.5-1.8594 1.5h1.0938c.046875-.45312.23438-.59375.78125-.59375.4375 0 .65625.14062.65625.42188 0 .15625-.078125.26562-.20312.34375-.14062.078125-.14062.078125-.70312.17188l-.4375.078125c-.85938.14062-1.2812.57812-1.2812 1.3594 0 .76562.53125 1.2969 1.3125 1.2969.48438 0 .92188-.20312 1.3125-.625 0 .23438.03125.3125.125.4375h1.2188zm-1.3438-1.5938c0 .64062-.32812 1.0156-.89062 1.0156-.375 0-.60938-.20312-.60938-.51562 0-.34375.17188-.5.64062-.59375l.39062-.078125c.28125-.046875.34375-.0625.46875-.14062z"/>
  </g>
  <g id="u">
   <path d="m1.6562-5.8281h-1.125v5.8281h1.125z"/>
  </g>
  <g id="t">
   <path d="m4.1875-1.8125c.015625-.09375.015625-.125.015625-.1875 0-.4375-.0625-.82812-.17188-1.1406-.28125-.78125-.98438-1.25-1.8594-1.25-1.2344 0-2 .89062-2 2.3438 0 1.3906.75 2.2344 1.9844 2.2344.96875 0 1.75-.54688 2-1.4062h-1.1094c-.14062.34375-.45312.54688-.85938.54688-.3125 0-.57812-.14062-.73438-.375-.09375-.15625-.14062-.35938-.15625-.76562zm-2.875-.73438c.078125-.67188.34375-.98438.84375-.98438.51562 0 .8125.34375.875.98438z"/>
  </g>
  <g id="e">
   <path d="m1.9219-1.3125h-1.3438v1.3125h1.3438z"/>
  </g>
  <g id="s">
   <path d="m1.4219-4.5312c.28125-.375.54688-.54688.89062-.54688.4375 0 .71875.29688.71875.73438 0 .32812-.17188.625-.51562.85938s-.6875.34375-1.4062.46875l.015625.125c.4375 0 .51562.015625.73438.078125.48438.1875.73438.625.73438 1.2656 0 .28125-.0625.5625-.17188.75-.1875.32812-.54688.54688-.875.54688-.14062 0-.32812-.078125-.5625-.25s-.35938-.23438-.51562-.23438c-.21875 0-.34375.125-.34375.3125 0 .3125.3125.48438.89062.48438.45312 0 .85938-.10938 1.1875-.29688.64062-.375 1.0312-1.0469 1.0312-1.75 0-.59375-.21875-.95312-.75-1.2031v-.015625c.95312-.375 1.2344-.64062 1.2344-1.1875 0-.57812-.46875-1.0156-1.125-1.0156-.54688 0-1.0469.3125-1.2969.82812z"/>
  </g>
  <g id="r">
   <path d="m3.2031-1.1094c-.1875.39062-.34375.48438-.79688.5h-1.5156v-.03125l1.5312-1.5469c.9375-.9375 1.1875-1.3281 1.1875-1.875 0-.75-.5625-1.3438-1.2969-1.3438-.28125 0-.57812.078125-.8125.20312-.40625.23438-.625.5-.85938 1.0781l.17188.046875c.29688-.51562.64062-.75 1.1094-.75.57812 0 1 .42188 1 .98438 0 .15625-.015625.3125-.0625.42188-.20312.4375-.5625.9375-1.0781 1.5l-1.6875 1.7812v.14062h2.8438l.40625-1.0625z"/>
  </g>
  <g id="q">
   <path d="m.875-5.1406c.48438.015625.53125.03125.53125.21875 0 .0625-.015625.15625-.078125.34375l-.046875.14062-.015625.0625-1.0781 4v.03125c0 .1875.60938.4375 1.0625.4375 1.2031 0 2.5312-1.3906 2.5312-2.6562 0-.5625-.39062-.96875-.92188-.96875-.5625 0-.98438.32812-1.5469 1.2188.40625-1.5.46875-1.7344.82812-3.1094l-.03125-.046875c-.40625.078125-.64062.10938-1.2344.1875zm1.6719 2c.34375 0 .5625.26562.5625.6875 0 .53125-.40625 1.3906-.89062 1.8906-.29688.29688-.64062.46875-.98438.46875-.25 0-.35938-.09375-.35938-.28125 0-.46875.23438-1.2344.57812-1.8438s.70312-.92188 1.0938-.92188z"/>
  </g>
  <g id="p">
   <path d="m1.7812-.90625c-.20312.26562-.25.32812-.32812.40625-.14062.125-.26562.21875-.32812.21875s-.14062-.0625-.14062-.125c0-.078125.03125-.20312.09375-.35938l.03125-.14062.015625-.015625v-.015625l.70312-2.5781-.03125-.015625c-.8125.15625-.96875.17188-1.2812.20312v.125c.4375.015625.51562.03125.51562.1875 0 .078125-.03125.20312-.078125.35938l-.39062 1.4219c-.125.46875-.17188.70312-.17188.85938 0 .29688.125.46875.375.46875.375 0 .65625-.25 1.1094-.92188zm-.0625-4.3281c-.21875 0-.375.17188-.375.42188 0 .26562.14062.42188.375.42188.20312 0 .39062-.17188.39062-.40625s-.1875-.4375-.39062-.4375z"/>
  </g>
  <g id="o">
   <path d="m2.375-3.4219h-.64062l.21875-.82812v-.046875c0-.046875-.015625-.078125-.0625-.078125s-.0625.015625-.10938.078125c-.3125.40625-.8125.8125-1.0625.875-.20312.0625-.26562.125-.26562.20312 0 .015625 0 .03125.015625.046875h.59375l-.57812 2.2031c-.015625.078125-.03125.10938-.046875.17188-.078125.26562-.14062.51562-.14062.59375 0 .15625.17188.29688.39062.29688.35938 0 .625-.23438 1.125-.96875l-.09375-.0625c-.40625.5-.53125.64062-.65625.64062-.078125 0-.125-.0625-.125-.17188l.015625-.03125.70312-2.6719h.67188z"/>
  </g>
  <g id="n">
   <path d="m.28125-1.1719-.15625 1.2812h.125c.078125-.14062.10938-.17188.20312-.17188.078125 0 .23438.03125.39062.078125.1875.046875.29688.078125.4375.078125.67188 0 1.1562-.4375 1.1562-1.0469 0-.3125-.17188-.65625-.54688-1.125-.3125-.375-.4375-.625-.4375-.84375 0-.26562.17188-.42188.45312-.42188.40625 0 .65625.29688.73438.92188h.125l.15625-1.1094h-.10938c-.0625.10938-.10938.14062-.23438.14062-.0625 0-.14062-.015625-.29688-.0625-.1875-.0625-.3125-.078125-.4375-.078125-.59375 0-.96875.34375-.96875.89062 0 .25.17188.59375.5 1.0312.3125.40625.45312.6875.45312.90625 0 .375-.25.625-.59375.625-.45312 0-.6875-.32812-.8125-1.0938z"/>
  </g>
 </defs>
 <g fill="none" stroke="#000" stroke-linecap="round" stroke-miterlimit="10" stroke-width=".66667">
  <path d="m57.069 139.05v-18"/>
  <path d="m57.069 121.05h106.5"/>
  <path d="m163.57 121.05v18"/>
  <path d="m163.57 139.05h-106.5"/>
 </g>
 <g transform="translate(-202.83 -50.945)" fill="#ff6600">
  <use x="300.29999" y="184" xlink:href="#d"/>
  <use x="306.52399" y="184" xlink:href="#c"/>
  <use x="311.41199" y="184" xlink:href="#b"/>
  <use x="314.52399" y="184" xlink:href="#a"/>
  <use x="321.60001" y="184" xlink:href="#k"/>
 </g>
 <g fill="none" stroke="#000" stroke-linecap="round" stroke-miterlimit="10" stroke-width=".66667">
  <path d="m57.069 121.05v-18"/>
  <path d="m57.069 103.05h106.5"/>
  <path d="m163.57 103.05v18"/>
  <path d="m163.57 121.05h-106.5"/>
 </g>
 <g transform="translate(-202.83 -50.945)" fill="#ff6600">
  <use x="300.29999" y="166" xlink:href="#d"/>
  <use x="306.52399" y="166" xlink:href="#c"/>
  <use x="311.41199" y="166" xlink:href="#b"/>
  <use x="314.52399" y="166" xlink:href="#a"/>
  <use x="321.60001" y="166" xlink:href="#j"/>
 </g>
 <g fill="none" stroke="#000" stroke-linecap="round" stroke-miterlimit="10" stroke-width=".66667">
  <path d="m57.069 103.05v-18"/>
  <path d="m57.069 85.055h106.5"/>
  <path d="m163.57 85.055v18"/>
  <path d="m163.57 103.05h-106.5"/>
 </g>
 <g transform="translate(-202.83 -50.945)" fill="#ff6600">
  <use x="300.29999" y="148" xlink:href="#d"/>
  <use x="306.52399" y="148" xlink:href="#c"/>
  <use x="311.41199" y="148" xlink:href="#b"/>
  <use x="314.52399" y="148" xlink:href="#a"/>
  <use x="321.60001" y="148" xlink:href="#i"/>
 </g>
 <g fill="none" stroke="#000" stroke-linecap="round" stroke-miterlimit="10" stroke-width=".66667">
  <path d="m57.069 85.055v-18"/>
  <path d="m57.069 67.055h106.5"/>
  <path d="m163.57 67.055v18"/>
  <path d="m163.57 85.055h-106.5"/>
 </g>
 <g transform="translate(-202.83 -50.945)" fill="#ff6600">
  <use x="300.29999" y="130" xlink:href="#d"/>
  <use x="306.52399" y="130" xlink:href="#c"/>
  <use x="311.41199" y="130" xlink:href="#b"/>
  <use x="314.52399" y="130" xlink:href="#a"/>
  <use x="321.60001" y="130" xlink:href="#h"/>
 </g>
 <g fill="none" stroke="#000" stroke-linecap="round" stroke-miterlimit="10" stroke-width=".66667">
  <path d="m57.069 67.055v-18"/>
  <path d="m57.069 49.055h106.5"/>
  <path d="m163.57 49.055v18"/>
  <path d="m163.57 67.055h-106.5"/>
 </g>
 <g transform="translate(-202.83 -50.945)" fill="#ff6600">
  <use x="300.29999" y="112" xlink:href="#d"/>
  <use x="306.52399" y="112" xlink:href="#c"/>
  <use x="311.41199" y="112" xlink:href="#b"/>
  <use x="314.52399" y="112" xlink:href="#a"/>
  <use x="321.60001" y="112" xlink:href="#g"/>
 </g>
 <g fill="none" stroke="#000" stroke-linecap="round" stroke-miterlimit="10" stroke-width=".66667">
  <path d="m57.069 49.055v-18"/>
  <path d="m57.069 31.055h106.5"/>
  <path d="m163.57 31.055v18"/>
  <path d="m163.57 49.055h-106.5"/>
 </g>
 <g>
  <g transform="translate(-202.83 -50.945)" fill="#ff6600">
   <use x="300.29999" y="94" xlink:href="#d"/>
   <use x="306.52399" y="94" xlink:href="#c"/>
   <use x="311.41199" y="94" xlink:href="#b"/>
   <use x="314.52399" y="94" xlink:href="#a"/>
   <use x="321.60001" y="94" xlink:href="#m"/>
  </g>
  <g transform="translate(-202.83 -50.945)" fill="#280b0b">
   <use x="312" y="77.800003" xlink:href="#e"/>
   <use x="312" y="71.699997" xlink:href="#e"/>
   <use x="312" y="65.800003" xlink:href="#e"/>
  </g>
  <g transform="translate(-202.83 -50.945)" fill="#2b0000">
   <use x="207.8" y="64.199997" xlink:href="#z"/>
   <use x="212.688" y="64.199997" xlink:href="#y"/>
   <use x="217.576" y="64.199997" xlink:href="#x"/>
   <use x="222.024" y="64.199997" xlink:href="#f"/>
   <use x="226.472" y="64.199997" xlink:href="#w"/>
   <use x="228.696" y="64.199997" xlink:href="#v"/>
   <use x="233.144" y="64.199997" xlink:href="#l"/>
   <use x="237.592" y="64.199997" xlink:href="#u"/>
   <use x="208.5" y="74.199997" xlink:href="#l"/>
   <use x="212.948" y="74.199997" xlink:href="#a"/>
   <use x="217.836" y="74.199997" xlink:href="#a"/>
   <use x="222.724" y="74.199997" xlink:href="#b"/>
   <use x="225.836" y="74.199997" xlink:href="#t"/>
   <use x="230.284" y="74.199997" xlink:href="#f"/>
   <use x="234.73199" y="74.199997" xlink:href="#f"/>
  </g>
  <g transform="translate(-202.83 -50.945)" fill="#007fff">
   <use x="219.39999" y="182.60001" xlink:href="#k"/>
   <use x="219.39999" y="164.60001" xlink:href="#j"/>
   <use x="219.39999" y="146.60001" xlink:href="#i"/>
   <use x="219.39999" y="128.60001" xlink:href="#h"/>
   <use x="219.39999" y="110.6" xlink:href="#g"/>
   <use x="219.39999" y="92.599998" xlink:href="#m"/>
  </g>
 </g>
 <g fill="none" stroke="#000" stroke-linecap="round" stroke-miterlimit="10" stroke-width=".25">
  <path d="m57.069 142.66v17.199"/>
  <path d="m163.57 142.66v17.199"/>
  <path d="m92.37 151.25h-33.098"/>
  <path d="m66.37 149.45-7.1992 1.8008"/>
  <path d="m66.569 150.05-7.2969 1.1992"/>
  <path d="m66.569 150.66-7.3984.5"/>
  <path d="m66.569 151.25h-7.3984"/>
  <path d="m66.569 151.86-7.3984-.5"/>
  <path d="m66.569 152.45-7.2969-1.1992"/>
  <path d="m66.37 153.05-7.1992-1.8008"/>
  <path d="m128.37 151.25h33.102"/>
  <path d="m154.27 153.05 7.1992-1.8008"/>
  <path d="m154.07 152.45 7.3008-1.1992"/>
  <path d="m154.07 151.86 7.4024-.5"/>
  <path d="m154.07 151.25h7.4024"/>
  <path d="m154.07 150.66 7.4024.5"/>
  <path d="m154.07 150.05 7.3008 1.1992"/>
  <path d="m154.27 149.45 7.1992 1.8008"/>
 </g>
 <g transform="translate(-202.83 -50.945)">
  <use x="302.29999" y="205.2" xlink:href="#s"/>
  <use x="306.29999" y="205.2" xlink:href="#r"/>
  <use x="312.70001" y="205.2" xlink:href="#q"/>
  <use x="316.70001" y="205.2" xlink:href="#p"/>
  <use x="318.92401" y="205.2" xlink:href="#o"/>
  <use x="321.14801" y="205.2" xlink:href="#n"/>
 </g>
</svg>
