<svg width="280" height="400" version="1.1" viewBox="0 0 280 400" xmlns="http://www.w3.org/2000/svg">
 <g stroke-width=".14502">
  <path d="m72.064 385-.44724-.0574-.0965-44.041c-.0531-24.223-.0966-56.385-.0966-71.472l-3e-5-27.431-.61632.0745c-.33897.041-1.3668.24165-2.284.44601-.91723.20435-2.0429.39883-2.5015.43218l-.83385.0606v-1.6209l-13.885-.004c-7.6369-.002-14.505-.0649-15.263-.13971-1.691-.16689-3.2811-.56601-4.673-1.1729-4.0161-1.7512-7.6817-5.7748-9.0336-9.9161-.82486-2.5269-.76441 4.055-.81459-88.684-.0254-46.938-.06851-85.473-.09579-85.632-.0487-.28476-.16282-.29003-6.2631-.29003-3.4174 0-6.26-.04644-6.3169-.10318-.11523-.11494-.18092-27.312-.06624-27.423.12727-.12322 21.81-.12344 143.35-.0015 95.659.09602 118.98.15536 119.24.30345l.32201.18407.007 8.807c.004 4.8438-.0373 10.819-.0915 13.279l-.0987 4.4717-.37548.16881c-.26582.11951-2.8913.18999-8.9894.24132l-8.614.07251-.20037.57892c-.11022.31841-.65857 2.8308-1.2186 5.5831-.95981 4.7174-1.8885 9.2154-2.171 10.515-.0694.31904-.22753 1.1674-.35152 1.8852-.12399.71784-.31924 1.6967-.43391 2.1752-.11466.47856-.40223 1.8816-.63904 3.1179-.23681 1.2363-.72532 3.7813-1.0856 5.6556s-.82871 4.413-1.041 5.6415c-.21232 1.2285-.54116 2.762-.73074 3.4079-.53952 1.838-.73477 1.6818 2.1026 1.6818 1.3494 0 2.5566.0396 2.6828.088.20802.0798.22938 2.583.22938 26.88v26.792l-.89137.0932c-.49026.0512-1.7302.0932-2.7553.0932h-1.8639v25.088h5.5106l.0106.4713c.0323 1.4276-.0357 52.388-.0699 52.422-.0225.0225-1.242.0891-2.7099.14794l-2.669.10702-.0742 25.015h5.4993l.049 4.0967c.0843 7.0475-.0519 49.481-.15916 49.592-.0561.0579-1.2749.12317-2.7085.14502l-2.6065.0397-.0323 12.145-.0322 12.145 5.5751-2e-5-.0402 26.856c-.0221 14.771-.0765 26.893-.12083 26.937-.125.12502-72.669.16873-73.652.0444l-.8701-.11005.1086-25.304h-.35502c-.19525 0-.87226.15283-1.5044.33964-1.5568.46-3.7412.88648-4.0107.78304-.12097-.0464-.26258-.31172-.3147-.58954-.0521-.27782-.17457-.53459-.2721-.57058-.0975-.036-14.697-.0422-32.444-.0138s-32.505.0516-32.797.0514h-.53127l.0611 1.9215c.0336 1.0568.0833 6.7619.11048 12.678l.0493 10.756-1.0294.0606c-1.3093.0771-30.46.0809-31.06.004zm30.553-144.55c.001-78.778-.0253-143.26-.0581-143.29-.0327-.0328-6.7742-.0745-14.981-.0927l-14.922-.0332v116.52c0 64.086.0163 128.6.037 143.37l.0376 26.85 29.885-.0896.001-143.23zm146.92 117.53.0375-25.66-72.444 3e-5.082 5.6919c.0451 3.1306.10695 14.697.13741 25.704.0305 11.007.0606 20.012.0671 20.012.007 0 16.228-.0198 36.047-.0439l36.035-.0439zm-79.774-.8624c.33158-1.2081.34563-1.2324.74045-1.2782.21593-.0251.80205.0646 1.3025.19919 1.0918.29364 2.5153.57559 3.5602.70511l.76514.0949-.04-12.836-.0401-12.836 5.5106-.0784.0971-11.456c.0534-6.301.12705-11.734.16364-12.074.0859-.79809.0934-.79635-3.1748-.73535l-2.5818.0482.0852-25.64-1.0227.0951c-.56252.0523-1.5388.25809-2.1696.45736-.63078.19926-1.5425.40365-2.0261.45419l-.87918.0919-.0874-.56339c-.048-.30987-.13525-.72498-.19378-.92246l-.1064-.35907-65.601.01-.0434 38.53-.0434 38.53 65.686-.0732.0995-.36254zm16.604-26.052 1.1796-.0918-.0434-24.105-.57782.008c-.31782.004-1.322.0208-2.2315.0362l-1.6536.0281.0933 5.3294c.0513 2.9312.0939 8.3802.0947 12.109l.001 6.7795.97886-.001c.53838 0 1.5097-.0422 2.1584-.0927zm6.6884-12.049.0371-12.07-.36468-.0915c-.20057-.0503-1.1635-.0354-2.1398.0333l-1.7752.12481-.0371 12.077-.0371 12.077 4.2797-.0802zm5.4688 12.005c.13292-.21507.15485-23.84.0223-24.053-.0891-.14345-.56852-.18224-1.9531-.15805-1.0092.0176-1.9491.0618-2.0887.0983-.23913.0624-.25378.76392-.25378 12.158v12.092h2.0942c1.1616 0 2.132-.0611 2.1791-.13733zm5.6901-11.5c-.0392-6.4007-.1297-11.866-.20117-12.145l-.1299-.50756-1.517-.0436c-.83437-.024-1.7291-.005-1.9883.0428l-.47131.0864v24.205h4.379zm5.6984-.54381v-12.181l-1.994.002c-2.775.003-2.6595-.0513-2.5891 1.2113.0317.56894.0644 6.0103.0726 12.092l.015 11.057h4.4955zm5.7807 12.052c.15425-.0977.17155-.32766.0789-1.0492-.0653-.50819-.12154-5.9162-.12505-12.018l-.006-11.094-.72508-.0484c-.3988-.0266-1.4038-.003-2.2333.0517l-1.5082.10008.0885 12.057c.0487 6.6315.0911 12.074.0943 12.093.0162.10273 4.1678.0133 4.3363-.0933zm5.5724-11.943c-.0424-6.64-.12146-12.122-.17574-12.182-.0543-.06-.99257-.0662-2.0851-.0138l-1.9864.0953-.0252 11.108c-.0213 9.3803-.0163 12.82.0191 13.029.003.0199.97912.0362 2.1683.0362h2.1622zm5.4197 11.961c.1241-.079.16223-1.7272.14501-6.2698-.0129-3.3894.009-8.8055.0491-12.036l.0725-5.8732-.65258-.0489c-.35891-.0269-1.3867-.004-2.284.0506l-1.6314.0994v7.6353c.00013 4.1994.0433 9.642.0959 12.095l.0957 4.4593 1.9706-.002c1.0838-.001 2.0464-.0504 2.139-.10936zm5.7149-8.6257c.006-4.8055.0416-10.195.0802-11.976.0537-2.4815.0273-3.2904-.11316-3.4596-.15536-.18718-.48206-.20576-2.1455-.12194-1.0792.0544-1.9954.13198-2.0359.17247-.0405.0405-.0918 5.4846-.11394 12.098l-.0403 12.024h4.3585l.0102-8.7372zm5.535-.68883c.059-16.147.0802-14.852-.24357-14.914-.15491-.0298-1.1583-.007-2.2297.0501l-1.948.10434.0938 6.8362c.0516 3.7599.12589 7.3583.16504 7.9963.0391.63807.0814 2.6574.0938 4.4874.017 2.4919-.0214 3.3419-.15291 3.3858-.12814.0427-.13285.10995-.0174.24902.10213.12308.10736.22189.0147.27915-.094.0581-.0916.23733.007.52046l.15055.43184h4.0321l.0344-9.4261zm6.0208-2.7191-.0371-12.145h-4.2849l.003 11.529c.002 6.3408.003 11.806.003 12.145v.61632h4.3522l-.0371-12.145zm5.5845-13.492c.0271-.057.0228-11.638-.009-25.735l-.0586-25.632h-72.143l.0334 12.073c.0183 6.64-.008 18.196-.0594 25.68-.051 7.4841-.0681 13.632-.038 13.662.1036.10336 72.225.0555 72.275-.0479zm-79.689-27.131c.0997-.0103.18127-.17383.18127-.36347 0-.8205.75146-.84082 3.3577-.0908.81263.23389 1.7463.46554 2.0749.51481l.59737.0896-.006-12.773-.006-12.773 2.3203-.0154c1.2762-.008 2.4933-.004 2.7047.009.21143.0136.41749-.0287.45792-.0941.0404-.0654.0928-5.7281.11649-12.584l.043-12.465-5.5843-.012.011-12.597.011-12.597-.4026.068c-.22142.0374-1.5652.31926-2.9863.62633-2.8413.614-2.8477.61326-2.8522-.3289-.001-.30241-.0914-.50621-.256-.58006-.13958-.0626-14.969-.0971-32.955-.0767l-32.701.0372.0311 37.885c.0171 20.837.0334 37.95.0363 38.03.003.0963 11.03.13911 32.815.12744 18.045-.01 32.892-.026 32.991-.0363zm17.54-25.527c.13437-.0114.17471-2.652.17548-11.484 0-6.3078.0433-11.843.0951-12.3.14261-1.2604.0767-1.2943-2.3572-1.2105-1.1018.038-2.0359.11067-2.0758.1616-.0399.0509-.0555 5.6847-.0346 12.519l.0379 12.427 1.9924-.0492c1.0958-.0271 2.0709-.0559 2.1668-.0641zm5.5668-10.13c.007-5.643.0236-11.271.0363-12.508l.0231-2.2478h-4.2055v25.015h4.133l.0132-10.26zm5.57-2.3433v-12.531l-2.0247.0334c-1.1136.0184-2.0761.0652-2.139.1041-.0629.0389-.1143 5.6807-.1143 12.537v12.467l2.139-.0402 2.139-.0401zm5.6177 1.5094c-.0209-6.0617-.0861-11.674-.14501-12.471l-.10707-1.4502-3.988-.0806v25.104l2.139-.0402 2.139-.0401zm5.6213 9.5348c.00011-.85741.0434-6.5039.0963-12.548l.0961-10.989-4.5667.0802.0358 9.2086c.0197 5.0647.0237 10.632.009 12.372-.0149 1.7397.0107 3.2243.0571 3.2991.0462.0748 1.0264.13604 2.1782.13604h2.0942v-1.5589zm5.795 1.3777c-.003-.0997.0154-5.7445.0409-12.544l.0463-12.363h-4.2872l-.0228 6.7795c-.0126 3.7287-.015 6.8774-.005 6.9971s.0234 2.7136.0305 5.7644l.0129 5.5469h2.0951c1.5823 0 2.0938-.0444 2.0896-.18127zm5.7336-12.399v-12.508h-4.278v25.096l2.139-.0402 2.139-.0401zm5.3698 12.399c.0372-.0997.0983-4.9777.1359-10.84s.10695-11.427.15421-12.366l.0859-1.7077-4.5857.08.0328 12.322c.018 6.7769.0649 12.405.10421 12.508.10103.26329 3.9745.26786 4.0727.005zm5.7578-12.218c.0585-6.7795.0768-12.408.0408-12.508-.0483-.13359-.61462-.18127-2.153-.18127h-2.0875l-.0797 1.4139c-.0438.77765-.0868 6.4242-.0956 12.548l-.0159 11.134 4.2847-.0803zm5.3976 12.218c.0312-.0997.088-5.7461.12628-12.548l.0696-12.366-4.5397.0798.003.94261c.0135 3.7523.14804 7.3958.27304 7.3958.088 0 .0833.0608-.012.15623-.096.096-.11436.3418-.0476.63784.0598.2649.0622.55675.006.64856-.11579.18736-.0927 2.1562.0705 6.0257.0606 1.4357.10747 4.046.10421 5.8007-.003 1.7547.0241 3.2393.0609 3.2991.0368.0598.91339.10877 1.9481.10877 1.3781 0 1.8964-.0485 1.9378-.18127zm6.1368-12.403.0393-12.511-2.2146.04c-1.6632.0301-2.2109.0852-2.2.22132.008.0997.0243 5.7299.0362 12.512l.0218 12.33 2.139-.0402 2.139-.0401zm-178.76-1.2099c.0697-.11011.1278-.37967.12903-.59901.002-.34186.0616-.39879.41827-.39879.68224 0 2.9055.42408 4.2182.80462.6745.19553 1.2781.35551 1.3413.35551s.13126-32.286.15128-71.747l.0364-71.747 16.306-.0369c8.9686-.0203 16.349.0123 16.401.0725.0517.0602.0465 2.8502-.0116 6.2001-.0581 3.3499-.1295 9.2231-.15866 13.052l-.053 6.9608 65.603.0284.13393-.37675c.0737-.20722.19288-.57253.26489-.8118.11023-.36623.21444-.44206.6587-.47927.29026-.0243 1.2027.12299 2.0276.32735.82491.20434 1.9496.41393 2.4994.46575l.99955.0942-.0923-12.628-.0923-12.628.97797-.33111c.92118-.31191.95271-.33684.54291-.42943-.23928-.0541-.67604-.10601-.97057-.11545-.29454-.009-1.1755-.24346-1.9577-.52007-.78222-.2766-2.7926-.92267-4.4676-1.4357-1.6749-.51305-4.5463-1.4243-6.3807-2.0249s-5.7499-1.8744-8.701-2.8306c-2.9511-.95618-8.0738-2.6214-11.384-3.7006s-6.7686-2.1961-7.6859-2.4822c-.91723-.28604-3.8538-1.2324-6.5258-2.103-2.6719-.87057-5.8369-1.8888-7.0333-2.2628-1.1964-.37395-4.0351-1.2908-6.3082-2.0375-2.2731-.74667-4.5898-1.4948-5.1481-1.6624-.55831-.16767-2.5813-.81382-4.4955-1.4359s-5.1445-1.6658-7.1783-2.3195c-2.0338-.65363-4.9378-1.6011-6.4532-2.1056-1.5154-.50444-3.4405-1.1249-4.278-1.3787-.83747-.25388-2.7299-.87052-4.2055-1.3703-1.4756-.4998-3.368-1.1188-4.2055-1.3756-1.8431-.56512-15.851-5.1445-18.49-6.0447-1.0369-.35368-2.7009-.90495-3.6979-1.225-.99699-.32008-2.5192-.81089-3.3827-1.0907-1.4905-.48296-1.6447-.5047-3.0454-.42945-.81143.04358-7.4138.11838-14.672.1662-7.2581.04783-13.229.11952-13.269.15932-.15815.15779-.16114 169.05-.003 170.9.20919 2.4536.98048 4.6164 2.3666 6.6362.67716.98677 2.3965 2.7343 3.364 3.4191 1.9912 1.4095 4.569 2.4588 6.5183 2.6532.56278.0562 7.3767.0943 15.142.0848 11.836-.0145 14.139-.0497 14.246-.21752zm184.38-28.307c.002-8.5488-.0154-19.91-.0393-25.247l-.0435-9.7032-5.3263.0956c-2.9295.0525-19.216.0957-36.191.0959h-30.865l.1209 1.7764c.13222 1.943.12254 47.941-.0101 48.359-.0783.24658 1.485.25575 36.134.21179l36.216-.046.004-15.543zm-79.89-10.706c.0898-.0715.20601-.39789.25837-.72534l.0952-.59534.68423.0798c.64428.0752 4.4048.85461 5.0347 1.0436.28821.0865.29035.008.34124-12.573l.0512-12.66 5.4807.104v-8.5354c0-4.6945.0433-10.346.0958-12.56l.0955-4.0242h-5.887l.0903-1.3414c.0497-.73777.10112-6.4968.11431-12.798l.024-11.456-.49321.0482c-.27129.0265-1.2437.24329-2.1609.48173-.91724.23843-2.0177.44514-2.4454.45935-.79089.0263-.89995-.0399-1.0925-.663-.0744-.24071-1.7693-.25378-32.929-.25378-18.068 0-32.889-.0163-32.936-.0362s-.0959 17.11-.10876 38.067l-.0235 38.103 32.484.0366c17.866.0201 32.614.0123 32.774-.0174.15952-.0297.36346-.1125.45321-.18401zm17.657-25.444c.24969-.0958.26053-.52737.22527-8.962-.0204-4.8737-.0223-10.46-.004-12.414l.0329-3.5529h-4.4429l.0525 12.399c.0289 6.8194.0758 12.438.1042 12.486.0738.12503 3.7173.16461 4.0321.0438zm5.671-12.498.0433-12.511-4.2475.08-.036 12.326c-.0198 6.7795-.005 12.41.0332 12.512.0528.14101.55839.17566 2.1166.14502l2.0472-.0403zm5.4884 12.475c.0599-.0985.17036-22.902.11804-24.363l-.0221-.61633h-4.3505v25.088h2.0942c1.1518 0 2.1239-.0489 2.1603-.10876zm5.6791-11.928c0-6.5801-.0519-12.209-.11533-12.508l-.11533-.54382h-4.0473v25.096l4.278-.0802zm5.59 12c.004-.0199.044-5.6647.0893-12.544l.0824-12.508-2.3008-2e-5-2.3008-5e-5.0387 12.218c.0213 6.7197.0715 12.365.11152 12.544.0714.32.1133.32629 2.1728.32629 1.155 0 2.1031-.0163 2.1069-.0363zm5.7213-.0747c.0941-.0691.16158-4.4757.19215-12.546l.0471-12.439-4.4448.0802.0355 12.326c.0195 6.7795.0664 12.408.10421 12.508.0503.13263.58554.18067 1.9947.17905 1.0593-.001 1.9913-.0502 2.071-.10876zm5.7583-12.433-.0423-12.471h-4.2658l.0194.65258c.0106.35892.027 5.9891.0363 12.512l.0169 11.859 4.278-.0802zm5.5477 2.5269c.0301-5.4695.10182-11.098.15943-12.508l.10475-2.5631h-4.7267l.0828 12.29c.0456 6.7596.12853 12.406.18439 12.548.0916.23246.29904.25374 2.1211.21753l2.0195-.0401zm5.6207.84478c.0177-5.0448.0341-10.673.0363-12.508l.004-3.3354-4.2367-.08-.0919.7651c-.0506.42079-.0925 6.0673-.0932 12.548l-.001 11.783h4.3505l.0323-9.1723zm5.4793 1.8852c.001-7.4666.1-15.281.21409-16.894l.0641-.90636h-4.6296l-.0125.54382c-.007.2991 0 2.632.0149 5.1844.0267 4.5241.0431 5.1762.20937 8.3384.0874 1.6618.11233 9.1445.0336 10.079-.0812.96339-.12725.94261 2.0905.94261h2.0147l.001-7.2871zm5.9944 7.077c.0443-.11558.0854-5.7604.0913-12.544l.0107-12.334h-2.2666c-2.0072 0-2.2565.0263-2.1786.22939.0484.12617.088 5.7709.088 12.544v12.315h2.0872c1.6889 0 2.1026-.0401 2.1679-.21013zm-29.955-26.183h35.751l-.0929-8.3022c-.0511-4.5662-.0937-16.133-.0947-25.704l-.002-17.402-21.644.0322c-11.904.0177-28.193.034-36.198.0362l-14.555.004.11863.83385c.0652.45861.0987 12.051.0744 25.762l-.0442 24.928.46798-.0936c.25737-.0515 16.556-.0936 36.219-.0936zm-18.257-52.622c.46597-.13058.25526-.28371-1.2156-.8835-.63808-.26019-2.5958-1.1265-4.3505-1.9251-1.7547-.79862-3.7451-1.6981-4.423-1.9988-.67795-.30074-1.9392-.87999-2.8028-1.2872-.86357-.40722-1.5987-.74041-1.6336-.74041-.0349 0-.9598-.43074-2.0553-.95722-1.0955-.52647-3.1664-1.4666-4.6021-2.0892-1.4357-.62258-3.5147-1.5622-4.6201-2.0881s-2.0294-.95614-2.0533-.95614c-.0826 0-6.2361-2.7233-7.5383-3.3361-.71783-.33783-2.7082-1.2526-4.423-2.0328-4.9852-2.2681-10.307-4.7059-13.124-6.0117-1.4357-.66551-4.1112-1.895-5.9457-2.7321-1.8345-.83717-4.5753-2.0905-6.0907-2.7851-1.5154-.69463-2.8965-1.3169-3.0692-1.3828-.17261-.0659-1.6735-.74868-3.3354-1.5172-5.3948-2.4949-6.0386-2.7894-8.0971-3.7036-1.1166-.49588-2.0955-.95016-2.1752-1.0095-.0798-.05934-1.1891-.57818-2.4653-1.153-1.2762-.5748-2.6792-1.216-3.1179-1.4249l-.79759-.37981-6.5143.0441c-3.5829.02426-6.6394.09039-6.7923.14693-.22805.08437-.2427.13208-.0816.26579.24572.20392 2.7246 1.2322 5.4848 2.2752.75771.28631 1.5082.58116 1.6677.65522.29333.13618.82397.35101 8.7735 3.5517 2.4326.97947 5.3692 2.1767 6.5258 2.6606 2.5938 1.0852 5.4288 2.2073 5.5768 2.2073.0608 0 .77227.28448 1.5811.63219 1.5964.68626 3.3302 1.3923 8.3589 3.4039 1.7946.71789 4.4701 1.7908 5.9457 2.3842 1.4756.59346 3.7596 1.5091 5.0756 2.0348 1.316.52571 2.8822 1.1591 3.4804 1.4075.59819.24838 2.2296.9017 3.6254 1.4518 1.3958.5501 3.0925 1.2346 3.7704 1.521.67795.28645 2.6357 1.0754 4.3505 1.7532 1.7148.67777 3.2484 1.292 3.4079 1.365.82459.37723 4.9096 2.0303 6.8158 2.7581 1.1964.45682 4.9487 1.9554 8.3385 3.3301 3.3898 1.3748 6.9789 2.8214 7.9759 3.2148 2.025.79896 2.8535 1.1446 4.1469 1.7299 3.2271 1.4605 5.1834 1.9482 6.4223 1.601zm6.0714.0343c.38924-.10431.42608-.32255.0725-.42959-.44662-.13519-2.9266-1.3631-5.8369-2.89-3.9116-2.0522-8.0247-4.2226-9.0635-4.7828-.47855-.25803-2.0447-1.0746-3.4804-1.8146-1.4357-.73998-4.5354-2.3708-6.8883-3.624-2.3529-1.2532-5.3874-2.8507-6.7433-3.55-4.0032-2.0646-5.7429-2.982-6.7433-3.5562-.51843-.29753-1.7583-.95356-2.7553-1.4579-.99698-.50429-2.5543-1.3286-3.4608-1.8317-.90642-.50315-1.681-.91482-1.7214-.91482-.087 0-6.5842-3.4544-9.6821-5.1478-1.1964-.65395-3.1215-1.6797-4.278-2.2793-2.8616-1.4838-7.1602-3.7582-9.7886-5.1793-1.1964-.64682-3.0888-1.632-4.2055-2.1894l-2.0302-1.0134-1.0334.13991c-1.1245.15225-3.9711.20254-9.0229.15942-1.7823-.01521-3.2788.01073-3.3257.05757-.0469.04688-.0175.15294.0652.23567.15893.15892 2.4995 1.2688 5.9935 2.8419 1.1565.52071 2.7138 1.234 3.4606 1.5851.74684.3511 1.3774.63835 1.4012.63835s.87049.39154 1.8815.8701 1.8633.8701 1.894.8701c.0307 0 1.3138.59303 2.8513 1.3178 1.5375.72481 3.9375 1.8279 5.3333 2.4514 1.3958.62344 3.3209 1.502 4.278 1.9524.95711.4504 1.8707.87719 2.0302.94839 1.1312.50491 4.1269 1.8735 5.1481 2.352.67796.31761 2.1462.98798 3.2629 1.4897 2.9545 1.3275 3.4999 1.5781 6.356 2.9201 1.422.66819 2.608 1.2149 2.6354 1.2149.0274 0 .7451.32629 1.5949.72509.84979.39879 1.5765.72508 1.6148.72508.0674 0 2.3617 1.0528 5.0559 2.3201.71783.33765 2.1716.99775 3.2305 1.4669 1.059.46915 2.6904 1.2192 3.6254 1.6667 2.9275 1.4012 4.2369 1.9995 10.184 4.6534 5.2558 2.3456 7.5577 3.4005 10.441 4.785 3.6898 1.7717 4.5455 2.1218 5.4381 2.2248 1.1948.13786 1.8268.15178 2.2115.0487zm6.0367-.036c.22215-.0873.0752-.22434-.79759-.74383-.58845-.35027-2.5382-1.557-4.3328-2.6816s-4.1438-2.5885-5.2206-3.2532c-1.0768-.66464-2.6429-1.6481-3.4804-2.1855-.83747-.53736-3.872-2.4448-6.7433-4.2388-4.9056-3.065-6.3291-3.9612-10.079-6.3458-.83747-.5326-2.5015-1.5906-3.6979-2.3512s-3.6762-2.3174-5.5106-3.4596c-1.8345-1.1422-4.771-2.9975-6.5258-4.1229-1.7547-1.1254-4.4955-2.8524-6.0907-3.8379-1.5952-.98549-3.5529-2.2026-4.3505-2.7046-5.4555-3.4341-7.1356-4.4568-7.4864-4.5575-.21941-.06292-1.4634-.06649-2.7645-.008-1.301.05857-4.4041.10179-6.8957.09606-3.4684-.008-4.5463.03153-4.5989.16863-.0378.09848.0757.25495.25216.34771.1765.09277 1.1692.62382 2.2061 1.1801 1.0369.5563 2.4073 1.2895 3.0454 1.6294.63807.33989 2.6284 1.4007 4.423 2.3573 3.9773 2.1202 7.7766 4.1312 10.006 5.2963.91723.4793 2.8423 1.5038 4.278 2.2766 1.4357.77282 4.5028 2.403 6.8158 3.6226 2.313 1.2196 5.3801 2.8535 6.8158 3.6308 1.4357.77734 3.6544 1.9529 4.9306 2.6124 1.2761.65946 2.9402 1.5395 3.6979 1.9556.75771.41612 2.2913 1.2324 3.4079 1.8141s4.1511 2.1804 6.7433 3.5528c2.5922 1.3724 5.8224 3.0691 7.1783 3.7704 1.3559.7013 3.5094 1.8423 4.7856 2.5356 1.2762.69328 2.8097 1.513 3.4079 1.8215.5982.30854 1.5118.82032 2.0302 1.1373.79728.48742 1.1103.59112 2.0302.67256 1.5129.13395 2.2026.13743 2.5201.0128zm6.1809-.0642c0-.1054-.99518-.94785-2.2115-1.8721-4.1739-3.1717-4.9681-3.7822-5.6194-4.3196-.35892-.29614-2.3271-1.8361-4.3738-3.422-2.0467-1.586-4.5198-3.5035-5.4958-4.2612-.97601-.75772-2.3742-1.8345-3.1072-2.3928-1.1153-.84958-5.1852-3.9901-12.203-9.4168-.72868-.56341-1.8322-1.416-2.4524-1.8945-.62013-.47855-2.83-2.2032-4.9108-3.8324-2.0808-1.6293-4.6643-3.6349-5.7411-4.4569s-2.545-1.9568-3.2629-2.5217c-.71784-.56488-1.6494-1.287-2.0701-1.6048l-.76496-.57767-3.2592.02575c-1.7926.01421-3.2592.08376-3.2592.15466 0 .07187-1.748.13162-3.9517.13505-4.5983.0071-4.4593.0023-4.4593.15643 0 .06548.27734.29095.61632.50105.33897.21012 2.2655 1.4345 4.2812 2.7209 5.4939 3.5061 7.0698 4.5022 12.142 7.6747 4.1344 2.586 6.699 4.2042 13.559 8.5558 1.0768.68303 2.7082 1.7157 3.6254 2.2948.91723.5791 2.9728 1.8798 4.568 2.8905s5.8696 3.6964 9.4986 5.9683c7.5522 4.728 9.9794 6.2666 12.834 8.1356l2.0302 1.3292 1.3777.0849c2.4774.15267 2.6103.14986 2.6103-.055zm5.7521.0466c.11977 0 .19146-.0789.15933-.17527-.0321-.0964-5.6451-5.7901-12.473-12.653-6.8282-6.8626-15.829-15.919-20.002-20.126l-7.5873-7.6486-15.903.21541 1.5708 1.1511c.86395.63308 2.3539 1.7789 3.311 2.5462s2.6538 2.0939 3.7704 2.948c1.1166.85409 3.0216 2.3186 4.2333 3.2545 1.2117.93588 4.0178 3.1028 6.2357 4.8155 2.2179 1.7126 4.9136 3.8049 5.9903 4.6494 1.0768.84457 3.426 2.6708 5.2206 4.0583 1.7946 1.3875 4.8943 3.7927 6.8883 5.345 4.5382 3.5328 4.8823 3.7984 7.5409 5.8202 4.6538 3.5391 7.1783 5.5284 7.1783 5.6562 0 .12062 2.9934.27911 3.456.18298.10623-.0221.29112-.0401.41088-.0401zm-35.887-.26073c.16622-.16622.05-.20785-1.0987-.39355-.30932-.05-1.1903-.3085-1.9577-.57442-8.1328-2.8181-15.046-5.2583-18.29-6.456-1.5553-.57425-4.0024-1.4575-5.4381-1.9628-1.4357-.50528-3.426-1.2224-4.423-1.5935-2.0756-.77265-5.5739-2.0217-7.9034-2.8218-.87735-.30136-2.6783-.94606-4.0021-1.4327-1.3238-.48663-3.9994-1.4344-5.9457-2.1061-1.9463-.6717-5.1702-1.8193-7.1642-2.5503s-4.3432-1.5783-5.2206-1.8829c-1.5988-.55516-6.4927-2.2928-10.296-3.6557-1.1166-.40013-2.5849-.91365-3.2629-1.1411-.67795-.2275-1.7873-.61667-2.4653-.86482s-1.9859-.70307-2.9066-1.0109c-.92068-.30786-2.4869-.90193-3.4804-1.3202-1.5199-.63979-7.0826-2.6196-9.6312-3.4278-.3954-.12538-.80791-.31699-.91671-.42577-.10879-.10879-.36165-.1978-.56192-.1978s-.82539-.20244-1.3891-.44988c-1.1755-.51594-3.6165-1.3986-5.6219-2.0328-.75771-.23964-1.5734-.52909-1.8127-.64325-.23927-.11414-.79396-.33476-1.2326-.49023-.43867-.15547-1.5154-.55533-2.3928-.88855-.87735-.33323-2.1825-.78305-2.9003-.99957-.71783-.21654-1.5336-.49593-1.8127-.62089-.43952-.19673-1.3119-.22158-6.507-.18539-4.7688.03322-6.0236.08095-6.1174.23266-.17776.28761-.0898.34958 1.0548.74327.96951.33345 1.6417.54557 4.5362 1.4313 2.2448.68697 4.3197 1.3488 6.5258 2.0815 3.1338 1.0408 5.8272 1.9135 9.2086 2.9837 1.5553.49224 3.5456 1.1411 4.423 1.4419 1.6835.57715 2.2913.77264 5.4381 1.7492 1.0768.33414 3.0997.98785 4.4955 1.4527 1.3958.46483 3.7124 1.2106 5.1481 1.6573 1.4357.44668 5.5795 1.7864 9.2086 2.9772 8.2899 2.7202 12.926 4.2286 16.532 5.3792 1.5553.49624 4.5571 1.4711 6.6708 2.1663 3.7185 1.2231 13.593 4.4603 22.55 7.3925 3.7839 1.2387 10.943 3.5679 14.067 4.5762.55831.18024 2.3855.76338 4.0605 1.2959 1.6749.53247 4.0568 1.3163 5.2931 1.7419 1.2363.42561 2.4762.84223 2.7553.92584.62341.18673 2.5672.11709 2.784-.0997zm5.627.13096c.52673-.14651.36336-.35569-.41469-.53092-1.1287-.25421-5.5148-1.8974-9.664-3.6204-1.2762-.52994-2.6466-1.0814-3.0454-1.2254-1.0775-.38906-7.6006-3.0356-8.0354-3.2601-.20657-.10666-1.1913-.50327-2.1883-.88134-.99699-.37809-2.9547-1.175-4.3505-1.771-1.3958-.59597-3.1251-1.3026-3.8429-1.5702s-1.7598-.65629-2.3155-.86366c-1.4655-.54686-8.2117-3.2255-11.751-4.6659-1.6749-.68163-5.101-2.0415-7.6134-3.0219s-4.8943-1.9254-5.2931-2.0999c-.39879-.17452-2.487-1.0228-4.6405-1.885-2.1535-.86219-4.307-1.7431-4.7856-1.9575-.47855-.21442-1.8163-.74807-2.9728-1.1859s-3.0164-1.1783-4.133-1.6456c-1.1166-.46723-3.8248-1.5654-6.0182-2.4405-2.1934-.87503-4.9016-1.9564-6.0182-2.403-1.1166-.44662-2.5523-1.011-3.1904-1.2542-1.35-.51449-1.8951-.7378-4.6405-1.9012-1.1166-.47316-2.6704-1.119-3.4529-1.4352l-1.4226-.57492-6.5812.01421c-7.7294.01669-7.7211.01421-4.2776 1.2341 1.0679.37829 5.7679 2.0609 8.701 3.1151 1.0768.38696 2.4145.87841 2.9728 1.0921.94684.36238 6.2558 2.2269 8.0484 2.8266.43868.14676 1.4828.53605 2.3203.86511.83747.32904 3.1867 1.1722 5.2206 1.8736 2.0339.70143 5.101 1.7981 6.8158 2.4371s3.6399 1.3387 4.278 1.5549c1.5095.5115 4.6572 1.6416 6.6708 2.395.87735.32827 2.1825.79649 2.9003 1.0405 2.7361.92992 4.2786 1.4797 6.4532 2.2998 1.2363.46625 3.2266 1.1904 4.423 1.6093s3.5783 1.2738 5.2931 1.9c1.7148.62614 4.3904 1.5949 5.9457 2.1528 1.5553.55787 4.1503 1.5026 5.7667 2.0995 1.6164.59686 3.9657 1.4382 5.2206 1.8696s3.5868 1.2543 5.182 1.8287c1.5952.57438 3.716 1.326 4.713 1.6703.99699.34427 2.9221 1.0445 4.278 1.556 1.3559.51153 3.3546 1.2312 4.4416 1.5993 1.087.3681 2.751.97338 3.6979 1.345 4.6227 1.8145 6.0403 2.1667 7.3048 1.815zm36.316-.32669c-.12983-.25105-.5765-.91994-.99262-1.4864-.95998-1.3069-1.8659-2.6065-3.3463-4.8004-2.1519-3.1891-4.5174-6.6419-6.4744-9.4507-1.0654-1.529-2.9621-4.2698-4.215-6.0907-1.2529-1.8209-2.5972-3.7676-2.9875-4.3259-1.7172-2.457-2.7528-3.9635-4.6853-6.8158-2.6008-3.8387-4.3964-6.4355-4.7284-6.8382l-.25763-.31247-16.474.15994 7.7293 7.7095c4.2511 4.2402 13.298 13.334 20.104 20.209l12.375 12.499h4.1889zm6.1743.19543c0-.14357-.0598-.32303-.13292-.3988-.15293-.15852-1.8103-4.3272-2.4475-6.156-.23622-.67795-.83561-2.1789-1.332-3.3354-.4964-1.1565-1.2521-3.049-1.6793-4.2055-.42725-1.1565-1.0801-2.8206-1.4507-3.6979-.37063-.87735-.76865-1.8517-.88449-2.1652-.11583-.31351-.33104-.83557-.47825-1.1601-.14719-.32456-.80153-2.0258-1.4541-3.7805-.65254-1.7547-1.5331-4.0115-1.9569-5.0152-.68956-1.6333-1.266-3.1433-2.9221-7.6547-.27431-.74723-.59-1.5351-.70155-1.7508-.43525-.8417-.0119-.80439-8.6788-.76502-4.3907.01996-8.0008.05389-8.0223.07542-.0386.0386.17729.35036 2.4965 3.605.64433.90424 1.9599 2.7861 2.9235 4.1819.96358 1.3958 2.0482 2.962 2.4103 3.4804.36207.51844 1.3018 1.8888 2.0883 3.0454.7865 1.1565 2.0187 2.9511 2.7382 3.988.71951 1.0369 1.929 2.7988 2.6877 3.9154.7587 1.1166 2.0585 2.9903 2.8885 4.1637 1.3763 1.9458 2.6501 3.7835 6.3616 9.1778.71338 1.0369 1.7352 2.5215 2.2708 3.2991l.97377 1.4139h2.1509c1.9746 0 2.1509-.0214 2.1509-.26103zm5.8721-1.0804c-.0525-.73777-.28104-3.4623-.50798-6.0544-.22695-2.5922-.45355-5.2351-.50357-5.8732-.1001-1.2772-.58271-5.1378-.78165-6.2529-.0695-.38934-.13807-1.0847-.15247-1.5452-.0279-.89122-.28883-3.4146-.64829-6.2685-.12055-.95711-.28683-2.817-.3695-4.133-.27905-4.4418-.70353-8.2713-.96027-8.6631-.22024-.33612-.29607-.3558-1.0566-.2741-.45061.04841-4.0659.09557-8.0339.10482-3.968.0093-7.2146.07278-7.2146.14122 0 .1337.47686 1.3808.80029 2.0929.10866.23928.78505 1.936 1.5031 3.7704.71801 1.8345 1.5448 3.9227 1.8372 4.6405.29245.71783.95689 2.3493 1.4765 3.6254.51964 1.2761 1.0616 2.6466 1.2044 3.0454.14277.39879.53317 1.3776.86756 2.1752.78489 1.8722 2.0231 5.0434 2.0254 5.187.002.11701 1.2292 3.3173 2.5436 6.6319.42697 1.0768 1.1419 2.904 1.5888 4.0605.44687 1.1565.92882 2.3638 1.071 2.6828.14219.31903.41671.95418.61003 1.4114l.35149.83138 4.4448.004-.0953-1.3414zm6.2315.79759c.0548-.29909.28863-1.3351.51971-2.3023.44187-1.8494 1.0803-5.3226 1.3162-7.1601.14743-1.1487 1.0593-5.4258 2.0096-9.4261.31263-1.316.74134-3.339.95269-4.4955.21136-1.1565.40987-2.1447.44115-2.1959.0313-.0513.0672-.85054.27604-1.7402.38695-1.6484.61522-2.9969 1.0936-5.49.13146-.6851.45235-1.9505.63997-2.8278.18761-.87735.45161-2.1078.58668-2.7343.15943-.73957.19601-1.1887.10424-1.2805-.22263-.22263-16.302-.15566-16.456.06855-.1264.18381-.11435.34926.23987 3.2936.11994.99699.28032 2.5632.35638 3.4804.1261 1.5205.56772 6.0233 1.344 13.704.16122 1.5952.38361 3.8139.4942 4.9306.11058 1.1166.30119 2.9438.42355 4.0605.12237 1.1166.28851 2.9438.36922 4.0605.14742 2.0398.52936 5.6634.66111 6.272.0695.32115.10568.32629 2.2995.32629h2.2288zm-209.42-41.364c.11992-.11028.19352-24.027.0743-24.147-.03505-.03507-5.6398-.08092-12.455-.10192l-12.391-.03817.02747 8.6259c.01511 4.7442.03142 10.269.03625 12.278l.0088 3.6521 12.29-.0798c6.7596-.0439 12.344-.12918 12.409-.18952zm235.75-12.107v-12.33l-117.05.03783c-64.38.02081-117.07.05598-117.09.07813-.08036.08035-.07982 24.304.00058 24.434.0503.08138 45.863.12906 117.12.12189l117.03-.01175v-12.33z"/>
  <path d="m196.22 284.74c-.29999-.0582-.57553-.13588-.61234-.17267-.0868-.0869-.11202-8.8355-.0257-8.9218.0361-.0361 1.1126-.0686 2.3923-.0722 2.1812-.006 2.3649.0148 2.9388.33538.79378.44339 1.1606.95507 1.2471 1.7393.0566.51391-.001.73632-.30597 1.1831-.20665.30264-.37572.62265-.37572.71111 0 .0885.26103.40184.58006.69637.49606.45796.58007.62196.58007 1.1324 0 1.3708-.89548 2.7968-2.0618 3.2832-.57473.23972-3.2875.29311-4.3568.0858zm3.7456-1.0883c.97542-.40755 1.2544-1.9517.51289-2.8385-.41465-.4959-.43386-.50199-1.5589-.49559-1.7352.01-1.6919-.0326-1.6209 1.5902.0331.75626.12706 1.442.20888 1.5238.13996.13995 1.1207.38148 1.6915.41657.14214.009.48709-.0796.76656-.19641zm.15599-4.7854c.3781-.26485.55291-1.2241.31728-1.7412-.0937-.20564-.32943-.4138-.52387-.46259-.39272-.0986-2.2702.028-2.4973.16833-.16624.10275-.19395 1.6598-.0338 1.8996.17004.25459.47857.32436 1.4882.33658.61252.007 1.0535-.0634 1.2495-.20071zm4.9097 5.9094c-.79905-.19228-1.5834-1.5424-1.4967-2.5762.0536-.63809.0365-.62598 1.8592-1.3198 1.6314-.62104 1.7684-.71775 1.7113-1.2088-.0656-.56412-.73869-.57779-1.5677-.0319-.6513.42891-.86432.50389-1.34.47169-.6126-.0415-.11668-1.0194.73807-1.4555 1.3226-.67475 2.7142-.51181 3.5524.41591.64093.70942.70043 1.0369.64693 3.5602l-.043 2.0302-.71985-.0383c-.39592-.0211-.7842-.10263-.86285-.18127-.17432-.17433-.66506-.19002-.66506-.0213 0 .33023-1.056.53698-1.8127.3549zm1.8682-1.383c.27766-.43738.45785-2.0735.24298-2.2063-.23051-.14246-1.404.45982-1.748.89715-.38487.48929-.36659.84759.0653 1.2795.4644.46439 1.1547.4786 1.4397.0297zm3.6626-.57342c-.0507-1.0605-.10195-2.4828-.11387-3.1608l-.0216-1.2326.63776.01c.35076.005.93141.0305 1.2903.0557.35892.0252.8522-.0377 1.0962-.13993.76599-.32082 1.4096-.0906 2.1209.75858l.62582.7471v4.8044h-1.7402l-.0398-2.5272c-.0246-1.5637-.10049-2.6003-.19902-2.7191-.28233-.34018-1.1926-.23524-1.5849.18271-.34089.36322-.35194.44572-.36399 2.7191l-.0125 2.3445-1.603.0858-.0922-1.9281zm7.2535-.50111c-.0524-1.3288-.0953-3.3448-.0953-4.48 0-2.3293-.0469-2.2401 1.1784-2.2401h.7196l-.0159 2.284c-.0176 2.5273.0172 2.6013.80072 1.7026.75146-.86191 1.369-1.2313 2.0584-1.2313.90574 0 .82192.33297-.35184 1.3978l-.98133.89022.47123.65617c.25916.36089.47122.71381.47122.78428 0 .0704.29366.57521.65258 1.1217.90755 1.3818.85857 1.6379-.28058 1.4671-.58496-.0877-.66791-.16229-1.3741-1.2354-1.2604-1.9153-1.5066-1.906-1.4922.0563l.009 1.2426h-1.6749l-.0953-2.4159zm12.152-.91945c.0734-2.3158.0588-3.3354-.0478-3.3354-.0844 0-.46217.19577-.83947.43505-.75608.47948-1.2767.5564-1.4103.20834-.15901-.41438.31634-1.0216 1.5198-1.9413 1.3299-1.0164 2.3972-1.4867 2.6104-1.1502.0698.11019.12788 2.207.12909 4.6596l.002 4.4593h-2.0697l.1057-3.3354z" fill="#f60"/>
  <path d="m195.58 362.56c-.34998-.0733-.67627-.17378-.72508-.22333-.0935-.0949-.0684-8.7604.0257-8.8545.03-.03.8323-.095 1.7828-.14443 2.8212-.14666 4.1435.28406 4.6588 1.5175.27317.65375.16706 1.5384-.23594 1.9674-.42489.45228-.37793.71786.20563 1.163.48804.37225.50756.42329.50756 1.327 0 1.4366-.57125 2.4894-1.6677 3.0734-.51303.27328-3.5272.38845-4.5518.17392zm3.8678-1.238c.84539-.59214 1.0149-1.9452.33847-2.7023-.38174-.42725-.50608-.47287-1.4311-.52514-1.5512-.0877-1.6312-.008-1.6312 1.6284 0 1.3986.0675 1.5766.65257 1.7204.65849.16185 1.759.0974 2.0713-.12139zm.0936-4.6421c.15483-.15485.22788-.4978.22788-1.07 0-.80094-.0215-.85106-.43962-1.0242-.52471-.21734-2.2132-.1187-2.5346.14809-.2531.21004-.29675 1.4624-.066 1.8936.13011.24312.31232.2805 1.3673.2805.91317 0 1.2741-.0569 1.4451-.22788zm28.932 5.7003c-1.1328-.7634-1.7321-2.204-1.7294-4.1574.004-2.6647 1.0542-4.6533 2.5788-4.882.88521-.13274 1.5084.21586 2.2431 1.2548.70478.99665.85012 1.5763.86597 3.454.0152 1.804-.15952 2.481-.88652 3.4343-.91976 1.206-2.101 1.5506-3.0719.89632zm1.3803-.92199c.54342-.20852.65907-.81173.65907-3.4375 0-1.3898-.0418-2.7359-.0929-2.9914-.16529-.82645-1.0969-.89482-1.5289-.11223-.21093.38208-.34523 3.9235-.19453 5.1296.0713.57085.20478.91829.44497 1.1585.38004.38005.38065.38027.71231.253zm-26.22.6924c-.52039-.54331-.81899-1.3428-.81899-2.1928 0-.71659.008-.72974.44169-.72974.24293 0 .74815-.16315 1.1227-.36254.37458-.1994.85635-.36255 1.0706-.36255.21427 0 .49204-.10245.61726-.22766.27147-.27148.43824-.85478.3057-1.0692-.22146-.35833-1.2424-.0692-2.0912.59234-.1902.14823-.50017.26952-.68882.26952-.52916 0-.44684-.59221.16774-1.2068.48674-.48675 1.4093-.82344 2.2564-.82344.48182 0 1.2038.36779 1.8075.92077l.5735.52532.0867 2.4311c.0477 1.3371.0658 2.4709.0401 2.5197-.0256.0487-1.0537.0914-2.2845.0948-2.2359.006-2.2383.006-2.6065-.37865zm2.4668-.97947c.29999-.45784.52903-1.9562.32957-2.156-.17438-.17466-.97013.2366-1.6548.85524-.41046.37086-.47086.4996-.36157.77062.1328.32934.93487.90573 1.2618.90673.0979 0 .28913-.16919.42505-.37662zm3.778 1.3019c-.0567-.0567-.103-1.5048-.103-3.218v-3.115l1.1135.0941c.65842.0557 1.4437.0268 1.9215-.0707 1.0889-.22211 1.6812.0268 2.305.96845l.46072.69556v4.7497l-1.8127-.0864-.0725-2.6828-.0725-2.6828-.5351-.0445c-.2943-.0245-.72817.0554-.96417.17739-.38254.19782-.44036.31901-.533 1.1172-.0571.49242-.0801 1.6198-.0509 2.5054l.053 1.6101-.80334.0426c-.44184.0234-.8497-.004-.90636-.0604zm7.2206-.084c-.0377-.10355-.0532-2.146-.0344-4.5388l.0341-4.3505 1.8127-.0864v2.2547c0 1.6862.0449 2.2547.17818 2.2547.098 0 .50584-.36347.90635-.8077.77538-.86008 1.5877-1.2098 2.1326-.91817.49001.26224.33529.59852-.53436 1.1615-.31905.20653-.67238.54796-.78518.75874-.22888.42766-.22383.44264.64084 1.9084.72268 1.225 1.232 2.2122 1.232 2.388 0 .212-1.2009.18667-1.4899-.0314-.13211-.0997-.58725-.70333-1.0114-1.3414-1.0279-1.5463-1.1938-1.5263-1.2064.14501l-.01 1.3052-.89838.0432c-.63659.0306-.91834-.0116-.96689-.14501zm-22.025-156.98c-.40554-.0605-.41445-.0803-.32628-.72361.0499-.36379.0907-2.4072.0907-4.541v-3.8796l1.4139-.0992c1.9758-.13866 3.6988.0963 4.3503.59313.93524.71333 1.1755 1.9543.54406 2.8102-.47528.64419-.45924.78158.14501 1.2425.49352.37644.50756.41476.50756 1.3866 0 1.6402-.74269 2.8164-1.9985 3.1652-.51604.14332-3.8555.17566-4.7267.0458zm4.683-1.3326c.41627-.41627.54259-1.7243.23009-2.3828-.13538-.2853-.38201-.56186-.54804-.61456-.36836-.11691-2.3806-.10469-2.5753.0157-.0771.0476-.14016.7321-.14016 1.521 0 1.717.0104 1.7281 1.6314 1.7344.91828.004 1.1748-.0465 1.402-.2737zm-.21596-4.5903c.27511-.27511.31394-1.6583.0539-1.9184-.11011-.11011-.66363-.17402-1.5072-.17402-1.0819 0-1.3497.0432-1.4212.22939-.13446.3504-.10488 1.3026.0534 1.7189.13643.35882.18485.37199 1.3673.37199.92108 0 1.2826-.0567 1.4538-.22788zm4.7681 5.9326c-.47732-.10064-1.1903-.90676-1.3602-1.538-.0827-.30723-.13055-.83058-.10626-1.163.043-.58863.0603-.60713.66202-.70914.3398-.0576.7966-.19703 1.0151-.30982.21849-.11281.68962-.29556 1.0469-.40611.4783-.14797.68495-.30174.78337-.58284.33944-.96946-.50552-1.1544-1.5682-.34325-.71314.54435-1.3391.65745-1.4882.26889-.0636-.16584.13359-.45348.64634-.94261l.73793-.70394h2.2167l.62426.61632c.34336.33898.69038.74684.77117.90636.0808.15952.17061 1.3015.19963 2.5378l.0527 2.2478-.90635.0432c-.56255.0268-.90635-.0145-.90635-.10876 0-.18725-.47157-.20072-.65983-.0189-.16844.16273-1.3246.29798-1.7608.20601zm1.8759-1.6536c.13907-.28429.29478-.82266.346-1.1964.0894-.65206.0786-.67949-.26736-.67949-.36606 0-1.2742.58241-1.757 1.1268-.30584.34488-.17734.72786.37522 1.1183.51719.36541 1.0124.22511 1.3031-.36923zm21.391 1.642c-.55576-.0288-.97886-.11664-.97886-.20323 0-.45505 1.341-2.6089 2.5441-4.0862.75776-.93046 1.4416-1.8597 1.5197-2.0651.0781-.20532.10052-.63231.0499-.94884-.15502-.96942-.81737-1.1062-2.0333-.41997-.77387.43675-1.6865.57541-1.8668.28365-.1714-.27731.32637-.80192 1.2054-1.2705.67478-.35964 1.0479-.46335 1.6672-.46335.74713 0 .84638.0436 1.5606.68574.80308.72202 1.2904 1.5742 1.2957 2.2659.006.70791-1.0075 2.4074-2.1478 3.6036-.58571.61439-1.0284 1.1763-.98364 1.2486.0447.0724.653.17794 1.3517.23463.69873.0567 1.3531.1717 1.4541.25555.10103.0839.1837.34025.1837.56975v.4173l-1.9215-.0284c-1.0568-.0156-2.362-.0512-2.9003-.0791zm-17.713-.26686c-.0484-.12617-.088-1.5248-.088-3.1081 0-3.2761-.0561-3.1443 1.2588-2.9567.38439.0549.82941.0897.98892.0774.15952-.0123.6895-.0596 1.1777-.1051.83961-.0783.91536-.0585 1.3978.3651.87571.7689.97735 1.1531.97735 3.6946v2.2621h-1.8852v-5.4015l-.80496.0668c-1.2689.10523-1.2873.14708-1.2929 2.9423l-.005 2.3924h-.81814c-.61243 0-.84047-.0577-.90635-.22938zm7.2581-2.1866c-.0524-1.3288-.0953-3.3518-.0953-4.4955 0-1.9309.0193-2.0796.26979-2.0796.14839 0 .57257-.0415.94261-.0922l.67282-.0922v2.34c0 1.287.043 2.34.0956 2.34.0525 0 .50135-.42418.99732-.94261.87535-.91498.92309-.94261 1.6291-.94261.85738 0 1.1511.34988.60872.72509-.77311.5348-1.5905 1.3656-1.5905 1.6165 0 .15095.16314.5329.36254.84876s.36254.60591.36254.64455c0 .0386.29366.55394.65257 1.1451.35892.59117.65258 1.1482.65258 1.2378 0 .22655-1.3995.21038-1.5885-.0184-.0824-.0997-.48468-.6922-.89403-1.3167-.77657-1.1847-1.0782-1.4372-1.3104-1.0972-.13776.20169-.0572 1.9288.1104 2.3655.0748.19495-.0533.22969-.84721.22969h-.93534zm-21.812-76.578-.4713-.0585v-8.9347l.54381-.0899c.2991-.0494 1.3507-.0906 2.3369-.0915 1.6556-.001 1.8459.0272 2.4817.37321.75877.41298 1.3088 1.2091 1.3076 1.8927 0 .22843-.16152.67634-.35802.99538-.46531.75546-.45497.95518.0675 1.3052.59865.40096.74852.914.56192 1.9235-.084.45431-.23893.99046-.34433 1.1915-.28653.54639-1.0946 1.2477-1.652 1.4336-.4609.15377-3.3995.19288-4.4739.0596zm4.4955-1.4949c.33226-.36241.3988-.56583.3988-1.2192 0-.63439-.0725-.87039-.37982-1.2356l-.37982-.45139-2.6482.083-.1272.89323c-.07.49128-.083 1.1883-.0289 1.549l.0983.65583.75395.14381c1.1464.21868 1.8443.0923 2.3128-.41872zm-.26413-4.4287c.34913-.34913.30912-1.6839-.0605-2.0184-.24499-.22172-.44345-.24656-1.319-.16519-1.4292.13282-1.583.23771-1.583 1.0791 0 .38773.0985.82829.22575 1.01.20077.28664.35204.3223 1.3673.3223.84442 0 1.2009-.0593 1.3694-.22787zm4.301 5.6544c-.25324-.21311-.58811-.63768-.74412-.94351-.28246-.55365-.37555-1.524-.1727-1.8003.0586-.0798.66123-.36032 1.3392-.62337 1.7365-.67373 2.1916-.92007 2.3223-1.2572.3033-.78227-.80638-.8109-1.9545-.0504-1.0505.69579-1.8509.27581-1.0697-.56129.57547-.61668 1.4008-.95177 2.3638-.95977 1.0777-.009 1.3865.1498 1.9943 1.0252l.47677.68665.0974 4.713h-.77784c-.83362 0-1.3563-.35049-1.1857-.79506.17485-.45563-.0999-.19763-.3447.32376-.24582.52344-.2859.54542-1.0697.58674-.70553.0372-.87586-.009-1.2748-.34453zm2.2748-1.1137c.39549-.42097.67443-1.9781.37494-2.093-.38716-.14856-.98942.12939-1.5972.73716-.6989.69889-.71813 1.1119-.0682 1.4651.5481.29784.93909.26475 1.2904-.10925zm3.8907 1.3259c-.0348-.11033-.10002-1.5572-.145-3.2153-.0933-3.4413-.14483-3.3048 1.138-3.0177.64361.14403.9049.13262 1.6396-.0716.83527-.23223.8986-.23089 1.4307.0302.30622.15025.75376.55595.99451.90154l.43776.62834v4.689l-1.8127.0864v-2.5882c0-1.8197-.0517-2.6399-.17402-2.7622-.0957-.0957-.44989-.17402-.78707-.17402-.91858 0-1.1482.37538-1.2591 2.0581-.0489.7424-.034 1.774.0332 2.2924.0672.51844.0784.99093.0248 1.05-.0535.0591-.40339.14932-.77746.20059-.51378.0704-.69556.0442-.74333-.10737zm7.5849.0603-.37605-.0582-.10093-4.4341c-.0555-2.4387-.0821-4.4497-.059-4.4689.0231-.0191.4527-.0796.95474-.13445l.91281-.0997-.0203 2.266c-.0112 1.2463.0203 2.3066.07 2.3563.0497.0497.4987-.31441.99782-.80909s1.1016-.95508 1.3388-1.0231c.94652-.27147 1.4636.42824.70432.95314-.65217.45087-1.5084 1.2312-1.5084 1.3747 0 .0758.15585.34555.34631.59944.19048.2539.51892.78792.72986 1.1867.21094.39879.58498.99598.83122 1.3271.24624.3311.40338.67371.34921.76134-.13541.21912-1.483.20153-1.6795-.0219-.0877-.0997-.49809-.70005-.91207-1.3341-.41398-.63407-.83386-1.1778-.93307-1.2082-.31468-.0965-.50352.7071-.40559 1.726.088.9152.0767.9643-.24095 1.0494-.18327.0491-.39848.0804-.47824.0695-.0797-.0109-.31423-.0459-.52106-.078zm10.894-.0597c-.64728-.25832-1.8894-1.155-1.8894-1.3639 0-.25378.44994-.50577.89683-.50226.18469.001.62755.20029.98415.44189 1.3396.90759 2.252.31807 2.252-1.455 0-1.2443-.239-1.5657-1.211-1.6287-.87342-.0566-.92491-.35178-.15403-.88294.67466-.46483 1.0381-1.1986.9741-1.9664-.0402-.48234-.0868-.53366-.52241-.57551-.32192-.031-.69841.083-1.1518.34874-.66332.38873-1.539.50164-1.8076.23307-.18362-.18362.36444-.80379 1.1635-1.3166.5771-.3703.85318-.45193 1.5287-.45193.76672 0 .8706.0426 1.4849.6088 1.217 1.1218 1.3685 1.8571.56569 2.7457-.64416.713-.65402 1.0759-.0362 1.3342.6092.25465.82826.53017.93256 1.1729.17196 1.0596-.90833 2.7272-2.088 3.2233-.53795.2262-1.4031.24187-1.922.0348z" fill="#f60"/>
  <path d="m86.752 274.38.0498-4.0603-1.2824-.0421c-1.2635-.0415-1.283-.0477-1.3265-.42238-.0283-.24415.0385-.41196.18674-.46884.36356-.13952 5.7557-.29326 6.3533-.18117.44226.083.53741.16233.53741.44824 0 .47436-.19045.55966-1.4502.6495l-1.0876.0776-.029 3.988-.029 3.988-1.9722.0838zm-.11223-9.6557c-1.5056-.68083-2.4128-2.0414-2.5653-3.8476-.17588-2.0822.4631-3.5906 1.9388-4.5768 1.0586-.70751 2.0469-.89693 3.0818-.59065.86441.25582 2.2478 1.2119 2.2478 1.5534 0 .41907-1.0249.34114-1.8696-.14218-1.1575-.66223-2.2764-.53775-3.0141.33534-.67898.80362-.90493 3.0374-.46151 4.5627.53398 1.8368 1.6753 2.2183 3.725 1.2449 1.5575-.73965 2.3671-.52701 1.4073.3696-1.1509 1.0751-3.346 1.6086-4.4901 1.0913zm-1.3514-13.51-.68883-.0643v-9.1202h1.1239c.61813 0 2.0538-.0431 3.1904-.0951l2.0665-.0945v1.2778l-1.616-.0496c-.88878-.0273-1.903-.007-2.2539.046l-.6379.0957.0422 1.1141.0422 1.1141 4.133.0804v1.1522l-1.0514.001c-.57826 0-1.4919.0426-2.0302.0935l-.97886.0924v3.2861l4.568.0798.0454.4713.0454.47131h-1.0606c-.58332 0-1.7784.0257-2.6558.0564-.87735.0306-1.9052.0268-2.284-.009zm-.14502-13.635c-.2349-.0614-.25378-.40528-.25378-4.6237v-4.5574h2.0302v8.1209h4.0605v.97255l-1.1095.0938c-1.2187.10302-4.3251.099-4.7274-.006zm-.14708-13.636-.40084-.0606.0383-4.5219.0383-4.5219 3.0961-.0725c1.7029-.0399 3.1447-.0399 3.2042 0 .0594.0399.0804.30091.0466.58006l-.0614.50756-1.9028-.0447c-2.6994-.0634-2.5912-.11649-2.5398 1.2454l.0423 1.1196 4.1493.0806-.0888 1.2246-2.0823.0403c-2.0724.0401-2.0819.0419-1.996.36254.0475.17722.0873.92584.0884 1.6636l.002 1.3414h4.4955v.97168l-1.3274.0942c-1.394.0989-4.119.0934-4.8016-.01zm1.1851-13.726c-.93652-.33475-1.7993-1.0069-1.7993-1.4018 0-.55837.87389-.56901 1.9317-.0236 1.0982.56628 1.784.68242 2.338.39594.49375-.25533.77128-.6795.6505-.99425-.045-.11734-.48528-.38729-.97834-.59987-2.3538-1.0149-3.5793-2.2396-3.5793-3.5772 0-1.7532 1.2207-2.8814 3.1178-2.8814 1.4275 0 2.7721.81718 2.6585 1.6158-.0737.51807-.48772.49442-1.6067-.0918-.80221-.42023-1.1194-.51484-1.492-.44494-.57344.10757-.83064.3873-.76725.83446.0375.26456.35757.48545 1.5349 1.0593.84206.41047 1.748.97678 2.0879 1.3052.60041.58013 1.1285 1.511 1.1345 1.9998.0102.82339-1.5738 2.5737-2.5825 2.8539-.72337.20092-2.0152.17676-2.6482-.0495z" fill="#0f0"/>
  <path d="m147.78 21.623c-.0798-.02915-.32327-.09227-.54116-.14029-1.0819-.23839-2.1422-1.8395-2.1408-3.2324.001-.98417.21228-1.4499.95319-2.1018.92485-.8137 1.384-1.0334 2.1431-1.0252 1.0028.01073 1.7441.56681 2.3741 1.7808.26907.51843.55113 1.0046.6268 1.0804.0757.07577.13759.24721.13759.38099 0 .2024-.10929.2309-.6514.16978-.35828-.04039-.73351-.0086-.83385.07057-.10035.07919-.66178.18654-1.2476.23855-1.3304.11812-1.6176.26304-1.6176.81643 0 .55022.66968.93859 1.3865.80412.44098-.08273 1.1075-.67418 1.2536-1.1124.0825-.2475.80268.24996.92645.63996.15832.49878-1.0927 1.4455-2.1214 1.6054-.27639.04297-.5678.05427-.64756.02512zm1.2933-4.0818c.30041-.11527.29418-.76015-.0106-1.097-.39089-.43193-1.3576-.35739-1.8356.14154-.3794.39601-.48914.75062-.29299.94676.12087.12087 1.8288.12779 2.1392.0087zm4.7974 4.0145c-1.0755-.26571-2.0548-1.2084-1.9309-1.8585.0777-.40766.64468-.39935.91513.01334.32766.50009 1.0759.81897 1.9216.81897.75143 0 1.197-.28625 1.197-.76904 0-.28935-.80895-.73563-1.1183-.61693-.33413.12822-1.9754-.70504-2.413-1.225-.57661-.68528-.5242-1.3294.16542-2.0329.30229-.30838.73071-.62953.95205-.71368.49358-.18767 1.5488-.19901 2.0153-.02166.58736.22331 1.4136 1.129 1.4136 1.5495 0 .34238-.0403.371-.3988.28344-.21934-.05357-.63874-.26199-.93201-.46315-.75656-.51896-1.5921-.60842-1.9877-.21281-.16878.16877-.30687.36673-.30687.43989 0 .17488.98535.53516 2.2388.81859 1.355.30638 1.471.38621 1.7403 1.1969.20525.61792.20819.75996.0248 1.1978-.49 1.1697-2.1512 1.9276-3.4963 1.5953zm-36.472-.20982c0-.44816 2.9364-8.7337 3.1545-8.901.35077-.26905 1.4008-.22572 1.7569.07251.45561.3816 3.4633 8.589 3.265 8.9098-.0871.14097-.78312.15138-1.7019.02544l-.67179-.09207.184-1.565-1.8695.04075-1.8694.04073-.0433.7446c-.0408.70272-.0684.74964-.48943.83385-.81628.16326-1.7151.10583-1.7151-.10959zm5.3656-2.8322c0-.27122-1.1632-3.8458-1.294-3.9766-.0858-.08576-.22936.18149-.38476.71602-.13636.46906-.43415 1.3098-.66174 1.8683-.63392 1.5555-.65449 1.523.96284 1.523.75771 0 1.3777-.0588 1.3777-.13069zm5.135 2.8796c-.16536-.06117-.48511-.32948-.71055-.59624-1.0691-1.265-1.3188-3.0105-.60489-4.2287.46693-.79678 1.417-1.4091 2.3491-1.5142.57949-.06531.68316-.02721 1.0791.39665l.43802.46891v-3.5243l1.9577.08576v8.991l-2.104.01617c-1.1572.0088-2.2392-.03389-2.4046-.09506zm2.1693-1.083c.29254-.29254.45986-1.3536.42037-2.666-.0386-1.2836-.25298-1.6102-1.0569-1.6102-1.2075 0-1.8044 1.1483-1.3836 2.6618.46354 1.6673.5746 1.8337 1.2237 1.8337.32166 0 .67417-.09706.79638-.21926zm4.9105.94349c-1.3195-.80244-1.9373-3.3227-1.1537-4.7062.45853-.80953 1.365-1.408 2.2636-1.4943.66681-.06407.76704-.03158 1.1815.38286.24908.24907.49043.45286.53636.45286.0459 0 .0441-.78309-.004-1.7402l-.0875-1.7402h2.0201l-.0766 9.0635-2.1256.02104c-1.814.01797-2.1884-.01714-2.554-.23942zm2.5239-1.1955c.17648-.34009.24818-.8615.25751-1.8729.0119-1.2928-.0144-1.4307-.33863-1.7765-.37373-.3985-.97388-.49065-1.4692-.22557-1.0905.5836-.96986 3.9068.15305 4.2171.82422.22776 1.1419.14996 1.3972-.34221zm3.4815 1.3748c-.0424-.06862-.0371-1.512-.0392-3.2488l-.004-3.1973 1.8059.05673c2.181.06849 2.5003.14764 2.2185.67411-.11654.21779-.36589.3211-.9517.39429-.43657.05454-1.2757.07657-1.3558.17314-.0812.09784-.0118 1.3898.0611 2.7557l.12968 2.4311-.89372.04285c-.49155.02357-.92841-.01334-.97083-.08192zm19.055-.11717c-.84826-.36796-1.4566-.91144-1.4566-1.3013 0-.19534.0816-.36238.18127-.37121.49996-.04427.93489.06819 1.1964.30934.65069.60006 1.7141.74808 2.251.31332.27185-.22012.29863-.31353.16274-.56744-.16808-.31406-1.0194-.684-1.9062-.82831-.30162-.04907-.79345-.32766-1.2122-.68661-.66583-.57079-.70037-.63545-.62795-1.1755.0907-.67594.6194-1.2838 1.4783-1.6996.81685-.39545 1.664-.36952 2.5471.07796.69071.35001 1.3564 1.1242 1.2425 1.4451-.0895.25224-.96833.08182-1.8855-.36564-.48695-.23757-.98749-.43195-1.1123-.43195-.30164 0-.57498.28713-.57498.60396 0 .32476.35441.51211 1.6456.86991 2.2027.6104 2.7064 1.3074 1.9776 2.7361-.56912 1.1155-2.552 1.6596-3.9067 1.0719z" fill="#0ff"/>
 </g>
</svg>
