<svg width="320" height="170" version="1.1" viewBox="0 0 320 170" xmlns="http://www.w3.org/2000/svg" xmlns:xlink="http://www.w3.org/1999/xlink">
 <defs>
  <g id="ad">
   <path d="m1.625-5.8281c-.92188 1.3906-1.3125 2.4688-1.3125 3.7031 0 1.25.39062 2.3281 1.3125 3.7188h.79688c-.85938-1.6406-1.125-2.5312-1.125-3.7188 0-1.1719.28125-2.0781 1.125-3.7031z"/>
  </g>
  <g id="a">
   <path d="m1.6562-4.3125h-1.125v4.3125h1.125zm0-1.5156h-1.125v1h1.125z"/>
  </g>
  <g id="e">
   <path d="m.48438-4.3125v4.3125h1.1094v-2.5938c0-.53125.29688-.84375.78125-.84375.375 0 .59375.21875.59375.5625v2.875h1.125v-2.5938c0-.53125.29688-.84375.76562-.84375.375 0 .60938.21875.60938.5625v2.875h1.125v-3.0625c0-.82812-.51562-1.3281-1.375-1.3281-.5625 0-.9375.1875-1.2656.64062-.20312-.40625-.64062-.64062-1.1719-.64062-.5 0-.82812.15625-1.1875.60938v-.53125z"/>
  </g>
  <g id="w">
   <path d="m1.5781-4.3125h-1.1094v6.0625h1.1094v-2.2656c.28125.48438.65625.70312 1.2031.70312 1.0469 0 1.8125-.96875 1.8125-2.2812 0-.60938-.17188-1.2188-.46875-1.625-.28125-.40625-.82812-.67188-1.3438-.67188-.54688 0-.92188.23438-1.2031.70312zm.95312.85938c.5625 0 .9375.54688.9375 1.375 0 .79688-.375 1.3281-.9375 1.3281-.57812 0-.95312-.53125-.95312-1.3438s.375-1.3594.95312-1.3594z"/>
  </g>
  <g id="p">
   <path d="m1.6562-5.8281h-1.125v5.8281h1.125z"/>
  </g>
  <g id="c">
   <path d="m4.1875-1.8125c.015625-.09375.015625-.125.015625-.1875 0-.4375-.0625-.82812-.17188-1.1406-.28125-.78125-.98438-1.25-1.8594-1.25-1.2344 0-2 .89062-2 2.3438 0 1.3906.75 2.2344 1.9844 2.2344.96875 0 1.75-.54688 2-1.4062h-1.1094c-.14062.34375-.45312.54688-.85938.54688-.3125 0-.57812-.14062-.73438-.375-.09375-.15625-.14062-.35938-.15625-.76562zm-2.875-.73438c.078125-.67188.34375-.98438.84375-.98438.51562 0 .8125.34375.875.98438z"/>
  </g>
  <g id="h">
   <path d="m.5-4.3125v4.3125h1.125v-2.5938c0-.51562.34375-.84375.90625-.84375.48438 0 .71875.26562.71875.78125v2.6562h1.125v-2.8906c0-.96875-.53125-1.5-1.4531-1.5-.57812 0-.98438.20312-1.2969.6875v-.60938z"/>
  </g>
  <g id="b">
   <path d="m2.4062-4.2344h-.625v-1.1562h-1.125v1.1562h-.54688v.75h.54688v2.6562c0 .67188.375 1.0156 1.1094 1.0156.25 0 .4375-.03125.64062-.09375v-.78125c-.10938.015625-.17188.03125-.25.03125-.29688 0-.375-.09375-.375-.48438v-2.3438h.625z"/>
  </g>
  <g id="o">
   <path d="m3.2344 0h1.125v-5.8281h-1.125v2.0625c-.28125-.42188-.64062-.625-1.1875-.625-1.0312 0-1.8125.98438-1.8125 2.2969 0 .57812.17188 1.1719.46875 1.5938.28125.42188.8125.6875 1.3438.6875.54688 0 .90625-.20312 1.1875-.625zm-.9375-3.4531c.5625 0 .9375.54688.9375 1.375 0 .78125-.375 1.3281-.9375 1.3281s-.9375-.54688-.9375-1.3438c0-.8125.375-1.3594.9375-1.3594z"/>
  </g>
  <g id="ac">
   <path d="m4.9062 0 1.2188-4.3125h-1.1562l-.65625 3.0156-.65625-3.0156h-1.1094l-.65625 3.0156-.6875-3.0156h-1.1562l1.2031 4.3125h1.1562l.6875-3.0469.65625 3.0469z"/>
  </g>
  <g id="ab">
   <path d="m.53125-5.8281v5.8281h1.125v-2.5938c0-.5.35938-.84375.85938-.84375.25 0 .4375.078125.5625.26562.10938.14062.125.26562.125.53125v2.6406h1.125v-2.8906c0-.54688-.14062-.92188-.4375-1.1719-.25-.20312-.60938-.32812-.96875-.32812-.54688 0-.95312.21875-1.2656.6875v-2.125z"/>
  </g>
  <g id="g">
   <path d="m4.1719-2.7031c-.078125-1.0625-.76562-1.6875-1.8594-1.6875-1.2969 0-2.0469.84375-2.0469 2.3125 0 1.4375.75 2.2656 2.0312 2.2656 1.0469 0 1.7812-.65625 1.875-1.6875h-1.0625c-.14062.5625-.35938.78125-.8125.78125-.5625 0-.90625-.5-.90625-1.3594 0-.40625.078125-.78125.21875-1.0469.125-.23438.375-.35938.6875-.35938.46875 0 .67188.21875.8125.78125z"/>
  </g>
  <g id="l">
   <path d="m.5-4.3125v4.3125h1.125v-2.2969c0-.65625.32812-.98438.98438-.98438.125 0 .20312.015625.34375.03125v-1.1406h-.125c-.51562 0-.95312.32812-1.2031.92188v-.84375z"/>
  </g>
  <g id="f">
   <path d="m2.4062-4.3906c-1.3125 0-2.125.875-2.125 2.2812 0 1.4219.8125 2.2969 2.1406 2.2969 1.3125 0 2.125-.875 2.125-2.2656 0-1.4531-.78125-2.3125-2.1406-2.3125zm.015625.90625c.60938 0 1.0156.54688 1.0156 1.3906 0 .8125-.42188 1.375-1.0156 1.375-.60938 0-1.0156-.54688-1.0156-1.3906 0-.82812.40625-1.375 1.0156-1.375z"/>
  </g>
  <g id="aa">
   <path d="m.96875 1.5938c.92188-1.3906 1.3125-2.4688 1.3125-3.7031 0-1.25-.39062-2.3281-1.3125-3.7188h-.79688c.85938 1.6406 1.125 2.5312 1.125 3.7188 0 1.1719-.26562 2.0781-1.125 3.7031z"/>
  </g>
  <g id="z">
   <path d="m4.1875-.14062c-.1875-.17188-.25-.3125-.25-.51562v-2.4062c0-.875-.59375-1.3281-1.7656-1.3281s-1.7812.5-1.8594 1.5h1.0938c.046875-.45312.23438-.59375.78125-.59375.4375 0 .65625.14062.65625.42188 0 .15625-.078125.26562-.20312.34375-.14062.078125-.14062.078125-.70312.17188l-.4375.078125c-.85938.14062-1.2812.57812-1.2812 1.3594 0 .76562.53125 1.2969 1.3125 1.2969.48438 0 .92188-.20312 1.3125-.625 0 .23438.03125.3125.125.4375h1.2188zm-1.3438-1.5938c0 .64062-.32812 1.0156-.89062 1.0156-.375 0-.60938-.20312-.60938-.51562 0-.34375.17188-.5.64062-.59375l.39062-.078125c.28125-.046875.34375-.0625.46875-.14062z"/>
  </g>
  <g id="q">
   <path d="m4.0469-2.9219c-.015625-.92188-.73438-1.4688-1.8906-1.4688-1.0938 0-1.7656.54688-1.7656 1.4375 0 .29688.078125.53125.23438.70312.15625.15625.28125.21875.70312.35938l1.3281.42188c.28125.078125.39062.17188.39062.34375 0 .26562-.3125.42188-.84375.42188-.29688 0-.51562-.046875-.65625-.14062-.125-.09375-.17188-.1875-.21875-.40625h-1.0938c.03125.95312.71875 1.4375 2.0312 1.4375.60938 0 1.0625-.125 1.375-.39062.32812-.25.51562-.65625.51562-1.0781 0-.5625-.28125-.92188-.84375-1.0938l-1.4219-.40625c-.3125-.09375-.39062-.15625-.39062-.32812 0-.25.26562-.40625.65625-.40625.53125 0 .79688.20312.79688.59375z"/>
  </g>
  <g id="y">
   <path d="m4.3281 0v-4.3125h-1.125v2.7031c0 .5-.34375.84375-.90625.84375-.46875 0-.71875-.26562-.71875-.78125v-2.7656h-1.1094v3c0 .95312.51562 1.5 1.4375 1.5.59375 0 .98438-.21875 1.2969-.70312v.51562z"/>
  </g>
  <g id="x">
   <path d="m3.2031-4.3125v.65625c-.3125-.5-.65625-.73438-1.1094-.73438-.39062 0-.8125.1875-1.1094.5-.4375.45312-.65625 1.0781-.65625 1.8281 0 1.3281.70312 2.25 1.7344 2.25.46875 0 .75-.15625 1.1406-.625v.57812c0 .51562-.375.89062-.90625.89062-.39062 0-.64062-.1875-.73438-.51562h-1.1406c0 .34375.125.57812.42188.8125.34375.28125.8125.42188 1.4219.42188 1.25 0 2-.60938 2-1.6094v-4.4531zm-.90625.85938c.53125 0 .92188.57812.92188 1.375s-.375 1.3281-.9375 1.3281c-.48438 0-.82812-.53125-.82812-1.3281 0-.8125.34375-1.375.84375-1.375z"/>
  </g>
  <g id="ap">
   <path d="m6.9844-5.2188h-1.3438l-2.6875 3.9375-.4375-3.9375h-1.4375v.125c.39062.015625.57812.10938.57812.29688 0 .0625-.03125.1875-.078125.32812-.015625.03125-.03125.10938-.0625.23438l-.03125.09375-.84375 2.9688c-.25.82812-.375 1-.78125 1.0469v.125h1.5781v-.125c-.40625-.03125-.5625-.125-.5625-.35938 0-.078125.03125-.28125.0625-.42188l.95312-3.4688.48438 4.375h.14062l3.0156-4.4844-1.0312 3.75c-.125.4375-.29688.54688-.8125.60938v.125h2.1875v-.125c-.54688-.046875-.625-.09375-.625-.34375 0-.14062.015625-.25.09375-.48438l.98438-3.5469c.14062-.48438.1875-.53125.65625-.59375z"/>
  </g>
  <g id="k">
   <path d="m1.7812-.90625c-.20312.26562-.25.32812-.32812.40625-.14062.125-.26562.21875-.32812.21875s-.14062-.0625-.14062-.125c0-.078125.03125-.20312.09375-.35938l.03125-.14062.015625-.015625v-.015625l.70312-2.5781-.03125-.015625c-.8125.15625-.96875.17188-1.2812.20312v.125c.4375.015625.51562.03125.51562.1875 0 .078125-.03125.20312-.078125.35938l-.39062 1.4219c-.125.46875-.17188.70312-.17188.85938 0 .29688.125.46875.375.46875.375 0 .65625-.25 1.1094-.92188zm-.0625-4.3281c-.21875 0-.375.17188-.375.42188 0 .26562.14062.42188.375.42188.20312 0 .39062-.17188.39062-.40625s-.1875-.4375-.39062-.4375z"/>
  </g>
  <g id="s">
   <path d="m2.7969-.84375c-.4375.46875-.75.64062-1.1406.64062-.45312 0-.73438-.32812-.73438-.90625 0-.6875.28125-1.4062.73438-1.8594.23438-.25.54688-.39062.875-.39062.1875 0 .29688.0625.29688.15625 0 .046875-.015625.078125-.046875.15625-.0625.10938-.078125.15625-.078125.23438 0 .1875.125.29688.3125.29688.21875 0 .39062-.14062.39062-.35938 0-.375-.35938-.65625-.84375-.65625-1.2031 0-2.3281 1.1719-2.3281 2.4219 0 .75.4375 1.2031 1.1875 1.2031.59375 0 1.0156-.25 1.5-.85938z"/>
  </g>
  <g id="d">
   <path d="m.96875 0c.42188-1.375.54688-1.7031.92188-2.3125.26562-.45312.48438-.70312.625-.70312.046875 0 .078125.046875.125.125.0625.125.125.17188.28125.17188.25 0 .375-.14062.375-.40625 0-.23438-.15625-.40625-.375-.40625-.1875 0-.40625.125-.60938.34375-.32812.34375-.65625.79688-.78125 1.125l-.10938.28125.42188-1.7344-.015625-.015625c-.59375.10938-.65625.125-1.25.21875v.14062c.1875-.03125.21875-.046875.28125-.046875.17188 0 .28125.078125.28125.23438 0 .10938 0 .10938-.125.64062l-.65625 2.3438z"/>
  </g>
  <g id="j">
   <path d="m2.5938-3.5312c-.34375 0-.65625.09375-.98438.26562-.8125.46875-1.3906 1.3906-1.3906 2.2344 0 .6875.4375 1.125 1.1719 1.125.53125 0 1.0469-.23438 1.5-.70312.53125-.51562.85938-1.1875.85938-1.7969 0-.67188-.46875-1.125-1.1562-1.125zm-.09375.17188c.34375 0 .57812.29688.57812.75 0 .59375-.26562 1.3906-.625 1.9062-.29688.42188-.59375.625-.9375.625-.375 0-.625-.29688-.625-.73438 0-.59375.23438-1.2969.625-1.8594.3125-.45312.64062-.6875.98438-.6875z"/>
  </g>
  <g id="n">
   <path d="m3.6875-.9375c-.4375.54688-.53125.64062-.65625.64062-.078125 0-.14062-.0625-.14062-.14062 0-.0625.03125-.20312.125-.5l.45312-1.6406c.03125-.17188.0625-.34375.0625-.46875 0-.29688-.21875-.48438-.51562-.48438-.51562 0-1.0312.48438-1.8438 1.7656l.53125-1.75-.015625-.015625c-.4375.09375-.60938.125-1.2969.25v.125c.40625.015625.5.0625.5.21875 0 .046875 0 .09375-.015625.14062l-.76562 2.7969h.60938c.375-1.2656.4375-1.4375.79688-1.9844.46875-.73438.89062-1.1406 1.1875-1.1406.10938 0 .1875.09375.1875.23438 0 .09375-.046875.35938-.10938.60938l-.35938 1.3281c-.10938.40625-.125.51562-.125.59375 0 .29688.10938.4375.375.4375.35938 0 .5625-.17188 1.125-.90625z"/>
  </g>
  <g id="r">
   <path d="m2.375-3.4219h-.64062l.21875-.82812v-.046875c0-.046875-.015625-.078125-.0625-.078125s-.0625.015625-.10938.078125c-.3125.40625-.8125.8125-1.0625.875-.20312.0625-.26562.125-.26562.20312 0 .015625 0 .03125.015625.046875h.59375l-.57812 2.2031c-.015625.078125-.03125.10938-.046875.17188-.078125.26562-.14062.51562-.14062.59375 0 .15625.17188.29688.39062.29688.35938 0 .625-.23438 1.125-.96875l-.09375-.0625c-.40625.5-.53125.64062-.65625.64062-.078125 0-.125-.0625-.125-.17188l.015625-.03125.70312-2.6719h.67188z"/>
  </g>
  <g id="m">
   <path d="m1.8281-.98438c-.53125.67188-.59375.73438-.76562.73438-.078125 0-.125-.046875-.125-.15625 0-.0625.03125-.15625.078125-.3125 0-.03125.015625-.046875.015625-.0625v-.015625l1.2031-4.625-.046875-.046875c-.46875.10938-.78125.17188-1.25.21875v.125c.39062 0 .54688.046875.54688.1875 0 .03125 0 .078125-.015625.14062l-1.1094 4.2344c-.015625.078125-.03125.14062-.03125.20312 0 .29688.14062.45312.39062.45312.42188 0 .6875-.23438 1.2031-1z"/>
  </g>
  <g id="i">
   <path d="m2.8594-.875c-.57812.46875-.8125.60938-1.1719.60938-.45312 0-.75-.29688-.75-.73438 0-.125.015625-.23438.09375-.48438l.21875-.03125c1.2031-.17188 2.0469-.78125 2.0469-1.4688 0-.32812-.23438-.54688-.64062-.54688-1.1562 0-2.4062 1.3125-2.4062 2.5156 0 .65625.4375 1.1094 1.0469 1.1094.57812 0 1.1875-.32812 1.6562-.875zm-1.6406-1.1406c.26562-.71875.85938-1.3281 1.2656-1.3281.17188 0 .28125.125.28125.3125 0 .25-.15625.53125-.39062.78125-.29688.28125-.60938.42188-1.2969.59375z"/>
  </g>
  <g id="ao">
   <path d="m5.2188-3.7188.29688-1.5938h-.17188c-.0625.125-.14062.17188-.29688.17188-.078125 0-.17188-.015625-.32812-.046875-.35938-.09375-.67188-.14062-.9375-.14062-1.7188 0-3.25 1.5938-3.25 3.3906 0 1.2188.85938 2.0781 2.0781 2.0781.82812 0 1.4688-.34375 2.1875-1.1875l-.14062-.10938c-.71875.70312-1.1719.9375-1.8281.9375-.89062 0-1.4062-.59375-1.4062-1.6406 0-.95312.39062-1.9219 1.0156-2.5625.375-.39062.875-.625 1.4062-.625.73438 0 1.1406.4375 1.2344 1.2969z"/>
  </g>
  <g id="an">
   <path d="m1.1719-5.0938c.45312.046875.5625.125.5625.32812 0 .125-.03125.26562-.14062.64062l-.9375 3.4062c-.14062.48438-.20312.53125-.65625.59375v.125h1.9531v-.125c-.5-.078125-.53125-.09375-.53125-.375 0-.09375.015625-.15625.09375-.45312l.42188-1.5469c.20312.046875.40625.0625.73438.0625.65625 0 1.2031-.14062 1.5312-.39062.40625-.29688.64062-.73438.64062-1.2031 0-.76562-.60938-1.1875-1.6875-1.1875h-1.9844zm1.4062.32812c.046875-.15625.14062-.21875.35938-.21875.3125 0 .625.078125.78125.1875.20312.15625.29688.39062.29688.76562 0 .51562-.1875.89062-.53125 1.0938-.25.14062-.5625.20312-1.0625.20312-.14062 0-.1875 0-.40625-.046875z"/>
  </g>
  <g id="am">
   <path d="m6.125-5.2188h-1.5938v.125c.42188.03125.5625.125.5625.35938 0 .14062-.20312.9375-.59375 2.2969l-.09375.39062c-.35938 1.3125-.875 1.8594-1.75 1.8594-.67188 0-1.125-.375-1.125-.9375 0-.28125.23438-1.1406.82812-3.25.15625-.54688.28125-.65625.84375-.71875v-.125h-2.1875v.125c.53125.046875.625.09375.625.32812 0 .09375-.03125.21875-.0625.35938l-.42188 1.5312c-.23438.875-.34375 1.375-.34375 1.7031 0 .76562.73438 1.3125 1.75 1.3125 1.0469 0 1.7031-.5625 2.0625-1.7656l.65625-2.2812c.3125-1.0312.34375-1.0781.84375-1.1875z"/>
  </g>
  <g id="al">
   <path d="m.17188-3.2188c.078125-.015625.14062-.015625.23438-.015625.3125 0 .39062.14062.5.875.09375.5625.1875 1.7344.1875 2.2188 0 .23438 0 .28125.0625.28125.20312 0 .9375-.8125 1.7656-1.9844.28125-.39062.48438-.90625.48438-1.2188 0-.25-.20312-.46875-.45312-.46875-.17188 0-.29688.10938-.29688.28125 0 .125.0625.21875.20312.34375.09375.09375.14062.15625.14062.25 0 .375-.51562 1.25-1.0938 1.8438l-.25.25c-.0625-1.125-.10938-1.5469-.20312-2.1406-.17188-.8125-.17188-.82812-.23438-.82812-.046875 0-.09375.015625-.15625.03125-.14062.03125-.625.125-.89062.17188z"/>
  </g>
  <g id="ak">
   <path d="m.28125-1.1719-.15625 1.2812h.125c.078125-.14062.10938-.17188.20312-.17188.078125 0 .23438.03125.39062.078125.1875.046875.29688.078125.4375.078125.67188 0 1.1562-.4375 1.1562-1.0469 0-.3125-.17188-.65625-.54688-1.125-.3125-.375-.4375-.625-.4375-.84375 0-.26562.17188-.42188.45312-.42188.40625 0 .65625.29688.73438.92188h.125l.15625-1.1094h-.10938c-.0625.10938-.10938.14062-.23438.14062-.0625 0-.14062-.015625-.29688-.0625-.1875-.0625-.3125-.078125-.4375-.078125-.59375 0-.96875.34375-.96875.89062 0 .25.17188.59375.5 1.0312.3125.40625.45312.6875.45312.90625 0 .375-.25.625-.59375.625-.45312 0-.6875-.32812-.8125-1.0938z"/>
  </g>
  <g id="aj">
   <path d="m.875-5.1406c.48438.015625.53125.03125.53125.21875 0 .0625-.015625.15625-.078125.34375l-.046875.14062-.015625.0625-1.0781 4v.03125c0 .1875.60938.4375 1.0625.4375 1.2031 0 2.5312-1.3906 2.5312-2.6562 0-.5625-.39062-.96875-.92188-.96875-.5625 0-.98438.32812-1.5469 1.2188.40625-1.5.46875-1.7344.82812-3.1094l-.03125-.046875c-.40625.078125-.64062.10938-1.2344.1875zm1.6719 2c.34375 0 .5625.26562.5625.6875 0 .53125-.40625 1.3906-.89062 1.8906-.29688.29688-.64062.46875-.98438.46875-.25 0-.35938-.09375-.35938-.28125 0-.46875.23438-1.2344.57812-1.8438s.70312-.92188 1.0938-.92188z"/>
  </g>
  <g id="ai">
   <path d="m.45312-3.2188.17188-.015625c.1875 0 .34375.09375.34375.21875 0 .10938-.28125 1.2188-.5625 2.2656-.1875.6875-.34375 1.2812-.46875 1.7969-.078125.35938-.1875.45312-.53125.46875v.125h1.6406v-.125c-.39062 0-.51562-.0625-.51562-.23438 0-.10938.125-.71875.29688-1.3281.20312.10938.34375.14062.53125.14062 1.1562 0 2.3906-1.3438 2.3906-2.625 0-.625-.34375-1-.92188-1-.51562 0-.90625.26562-1.3594.92188l.23438-.8125c0-.046875.015625-.0625.015625-.0625 0-.03125-.015625-.046875-.046875-.046875h-.015625l-1.2188.17188zm2.0781.03125c.34375.015625.5.23438.5.6875 0 .54688-.23438 1.2188-.57812 1.7188-.32812.48438-.71875.71875-1.1406.71875-.21875 0-.375-.125-.375-.29688 0-.26562.28125-1.3125.51562-1.9062.21875-.54688.6875-.9375 1.0781-.92188z"/>
  </g>
  <g id="ah">
   <path d="m3.7812-3.2344h-.5c-.015625 0-.0625-.015625-.125-.0625-.21875-.15625-.46875-.23438-.78125-.23438-.89062 0-1.6094.625-1.6094 1.375 0 .40625.17188.65625.64062.85938-.48438.32812-.625.48438-.625.67188 0 .10938.0625.20312.21875.3125-.79688.51562-.9375.6875-.9375 1.0469 0 .54688.53125.90625 1.3438.90625 1 0 1.6719-.46875 1.6719-1.1562 0-.51562-.375-.85938-1.1406-1.0625-.35938-.078125-.5625-.21875-.5625-.32812 0-.125.1875-.32812.28125-.32812h.0625c.078125.015625.15625.03125.25.03125.73438 0 1.4844-.65625 1.4844-1.2812 0-.125-.03125-.26562-.078125-.4375h.40625zm-2.5938 3.0156s.015625 0 .03125.015625c.03125 0 .10938.03125.23438.0625.85938.28125 1.1406.5 1.1406.85938 0 .4375-.45312.75-1.0781.75-.64062 0-1.0156-.29688-1.0156-.8125 0-.1875.046875-.32812.1875-.48438.10938-.14062.4375-.39062.5-.39062zm1.1875-3.1406c.28125 0 .4375.20312.4375.57812 0 .28125-.09375.625-.25.90625-.17188.32812-.42188.5-.6875.5-.3125 0-.48438-.21875-.48438-.59375 0-.75.45312-1.3906.98438-1.3906z"/>
  </g>
  <g id="v">
   <path d="m3.7188-.875-.23438.21875c-.25.25-.34375.32812-.40625.32812s-.125-.046875-.125-.10938c0-.15625.34375-1.5312.71875-2.9062.03125-.078125.03125-.09375.046875-.15625l-.0625-.03125-.48438.0625-.015625.015625-.09375.39062c-.0625-.29688-.29688-.46875-.64062-.46875-1.0625 0-2.2812 1.4531-2.2812 2.7344 0 .5625.29688.89062.8125.89062.5625 0 .90625-.26562 1.6094-1.2656-.17188.65625-.1875.71875-.1875.92188 0 .23438.09375.32812.32812.32812.3125 0 .5-.15625 1.1094-.875zm-1.25-2.4844c.28125.015625.45312.21875.45312.5 0 .67188-.40625 1.6094-.95312 2.2031-.1875.21875-.46875.35938-.70312.35938-.28125 0-.45312-.23438-.45312-.59375 0-.45312.29688-1.2656.64062-1.7656.32812-.46875.6875-.71875 1.0156-.70312z"/>
  </g>
  <g id="u">
   <path d="m5.5156-.9375c-.03125.046875-.078125.078125-.10938.125-.14062.17188-.20312.25-.21875.26562-.17188.1875-.25.25-.35938.25-.0625 0-.09375-.046875-.09375-.14062 0-.03125.03125-.15625.078125-.35938l.54688-2c0-.046875.015625-.17188.015625-.23438 0-.28125-.20312-.5-.46875-.5-.15625 0-.3125.0625-.5.17188-.39062.26562-.71875.64062-1.2812 1.5312.21875-.625.32812-1.0625.32812-1.2188 0-.29688-.1875-.48438-.46875-.48438-.48438 0-1.0469.53125-1.7812 1.6875l.46875-1.6719-.03125-.015625c-.42188.09375-.59375.125-1.2656.25v.125c.35938.015625.35938.015625.4375.046875.03125.015625.0625.078125.0625.14062 0 .09375-.1875.82812-.46875 1.8281-.17188.60938-.20312.73438-.3125 1.1406h.60938c.375-1.2656.5-1.5625.76562-1.9844.45312-.6875.9375-1.125 1.2031-1.125.10938 0 .15625.0625.15625.20312 0 .09375-.23438 1.0469-.5625 2.1719-.0625.23438-.09375.34375-.1875.73438h.59375c.3125-1.25.48438-1.6562.89062-2.2188.39062-.54688.79688-.89062 1.0156-.89062.09375 0 .17188.0625.17188.17188 0 .03125-.015625.10938-.0625.28125l-.46875 1.8281c-.078125.3125-.09375.45312-.09375.53125 0 .23438.10938.375.3125.375.375 0 .73438-.26562 1.1562-.85938l.03125-.0625z"/>
  </g>
  <g id="ag">
   <path d="m3.7188-.9375c-.4375.53125-.53125.64062-.65625.64062-.078125 0-.125-.078125-.125-.15625s.125-.57812.26562-1c.23438-.73438.375-1.3438.375-1.5312 0-.32812-.20312-.54688-.51562-.54688-.53125 0-1.0938.51562-1.8438 1.6875l.96875-3.5781-.046875-.046875c-.48438.10938-.78125.17188-1.25.21875v.125h.20312c.1875-.015625.32812.078125.32812.20312 0 .10938-.03125.29688-.10938.53125-.015625.015625-.046875.125-.078125.29688l-1.0781 4.0938h.59375c.32812-1.2344.42188-1.5.75-1.9844.40625-.64062.95312-1.1406 1.2344-1.1406.125 0 .21875.09375.21875.20312 0 .03125-.015625.14062-.046875.26562l-.4375 1.6562c-.10938.39062-.17188.64062-.17188.73438 0 .20312.14062.34375.35938.34375.40625 0 .6875-.21875 1.1719-.92188z"/>
  </g>
  <g id="t">
   <path d="m3.7031-.89062c-.4375.5-.51562.57812-.65625.57812-.078125 0-.14062-.078125-.14062-.17188 0-.125.25-1.0625.51562-1.9688.1875-.64062.34375-1.2188.79688-2.9688l-.046875-.046875c-.40625.09375-.70312.14062-1.2188.1875v.14062c.4375.015625.5.03125.5.20312 0 .10938-.015625.14062-.125.5625l-.35938 1.3125c-.0625-.34375-.20312-.46875-.51562-.46875-1.0312 0-2.3281 1.5-2.3281 2.7031 0 .57812.3125.92188.82812.92188.54688 0 .90625-.26562 1.4531-1.0625-.09375.40625-.10938.53125-.10938.71875 0 .20312.14062.35938.32812.35938.34375 0 .76562-.32812 1.1719-.92188zm-1.2188-2.4531c.25.015625.35938.17188.35938.45312 0 1.2188-.82812 2.5938-1.5625 2.5938-.28125 0-.46875-.20312-.46875-.53125 0-.65625.40625-1.5938.9375-2.1406.21875-.23438.51562-.39062.73438-.375z"/>
  </g>
  <g id="af">
   <path d="m1.2656 1.4062c-.29688-.82812-.375-1.3125-.375-2.0938 0-.95312.21875-2.1094.59375-3 .26562-.625.51562-1 1.0312-1.5469l-.09375-.125c-1.0469.95312-1.4531 1.4844-1.7969 2.3125-.20312.5-.28125.98438-.28125 1.6094 0 .60938.09375 1.2188.26562 1.7656.10938.32812.23438.59375.51562 1.125z"/>
  </g>
  <g id="ae">
   <path d="m.23438 1.4375c.98438-.85938 1.3906-1.375 1.75-2.25.23438-.53125.32812-1.0312.32812-1.625 0-.45312-.0625-.96875-.17188-1.4375-.14062-.54688-.26562-.84375-.625-1.4844l-.14062.046875c.26562.65625.39062 1.2969.39062 2.0938 0 1.0156-.28125 2.3125-.67188 3.1719-.23438.51562-.48438.85938-.96875 1.3594z"/>
  </g>
 </defs>
 <g transform="translate(-128.79 -50.196)" fill="#ffff00">
  <use x="212.3" y="107.8" xlink:href="#ad"/>
  <use x="214.964" y="107.8" xlink:href="#a"/>
  <use x="217.188" y="107.8" xlink:href="#e"/>
  <use x="224.3" y="107.8" xlink:href="#w"/>
  <use x="229.188" y="107.8" xlink:href="#p"/>
  <use x="231.412" y="107.8" xlink:href="#c"/>
  <use x="235.86" y="107.8" xlink:href="#e"/>
  <use x="242.972" y="107.8" xlink:href="#c"/>
  <use x="247.42" y="107.8" xlink:href="#h"/>
  <use x="252.308" y="107.8" xlink:href="#b"/>
  <use x="254.972" y="107.8" xlink:href="#c"/>
  <use x="259.42001" y="107.8" xlink:href="#o"/>
  <use x="266.5" y="107.8" xlink:href="#ac"/>
  <use x="272.724" y="107.8" xlink:href="#a"/>
  <use x="274.948" y="107.8" xlink:href="#b"/>
  <use x="277.612" y="107.8" xlink:href="#ab"/>
  <use x="284.60001" y="107.8" xlink:href="#e"/>
  <use x="291.71201" y="107.8" xlink:href="#a"/>
  <use x="293.936" y="107.8" xlink:href="#g"/>
  <use x="298.384" y="107.8" xlink:href="#l"/>
  <use x="301.496" y="107.8" xlink:href="#f"/>
  <use x="306.384" y="107.8" xlink:href="#g"/>
  <use x="310.832" y="107.8" xlink:href="#f"/>
  <use x="315.72" y="107.8" xlink:href="#o"/>
  <use x="320.608" y="107.8" xlink:href="#c"/>
  <use x="325.056" y="107.8" xlink:href="#aa"/>
 </g>
 <g fill="none" stroke="#000" stroke-linecap="round" stroke-miterlimit="10">
  <path d="m98.014 20.003h-64.801"/>
  <path d="m33.214 20.003v144"/>
  <path d="m33.214 164h216"/>
  <path d="m249.21 164v-144"/>
  <path d="m249.21 20.003h-64.801"/>
 </g>
 <g transform="translate(-128.79 -50.196)" fill="#ff6600">
  <use x="229.3" y="73.199997" xlink:href="#e"/>
  <use x="236.412" y="73.199997" xlink:href="#z"/>
  <use x="240.86" y="73.199997" xlink:href="#g"/>
  <use x="245.308" y="73.199997" xlink:href="#l"/>
  <use x="248.42" y="73.199997" xlink:href="#f"/>
  <use x="255.59999" y="73.199997" xlink:href="#a"/>
  <use x="257.82401" y="73.199997" xlink:href="#h"/>
  <use x="262.71201" y="73.199997" xlink:href="#q"/>
  <use x="267.16" y="73.199997" xlink:href="#b"/>
  <use x="269.82401" y="73.199997" xlink:href="#l"/>
  <use x="272.936" y="73.199997" xlink:href="#y"/>
  <use x="277.82401" y="73.199997" xlink:href="#g"/>
  <use x="282.272" y="73.199997" xlink:href="#b"/>
  <use x="284.936" y="73.199997" xlink:href="#a"/>
  <use x="287.16" y="73.199997" xlink:href="#f"/>
  <use x="292.048" y="73.199997" xlink:href="#h"/>
  <use x="299.09998" y="73.199997" xlink:href="#q"/>
  <use x="303.54797" y="73.199997" xlink:href="#c"/>
  <use x="307.99597" y="73.199997" xlink:href="#b"/>
 </g>
 <g transform="translate(-128.79 -50.196)" fill="#00ff00">
  <use x="210.39999" y="179.8" xlink:href="#ad"/>
  <use x="213.064" y="179.8" xlink:href="#a"/>
  <use x="215.28799" y="179.8" xlink:href="#e"/>
  <use x="222.39999" y="179.8" xlink:href="#w"/>
  <use x="227.28799" y="179.8" xlink:href="#p"/>
  <use x="229.51199" y="179.8" xlink:href="#c"/>
  <use x="233.96001" y="179.8" xlink:href="#e"/>
  <use x="241.07201" y="179.8" xlink:href="#c"/>
  <use x="245.52" y="179.8" xlink:href="#h"/>
  <use x="250.408" y="179.8" xlink:href="#b"/>
  <use x="253.07201" y="179.8" xlink:href="#c"/>
  <use x="257.51999" y="179.8" xlink:href="#o"/>
  <use x="264.60001" y="179.8" xlink:href="#ac"/>
  <use x="270.82401" y="179.8" xlink:href="#a"/>
  <use x="273.048" y="179.8" xlink:href="#b"/>
  <use x="275.71201" y="179.8" xlink:href="#ab"/>
  <use x="282.70001" y="179.8" xlink:href="#o"/>
  <use x="287.58801" y="179.8" xlink:href="#a"/>
  <use x="289.81201" y="179.8" xlink:href="#x"/>
  <use x="294.70001" y="179.8" xlink:href="#a"/>
  <use x="296.92401" y="179.8" xlink:href="#b"/>
  <use x="299.58801" y="179.8" xlink:href="#z"/>
  <use x="304.03601" y="179.8" xlink:href="#p"/>
  <use x="308.39999" y="179.8" xlink:href="#p"/>
  <use x="310.62399" y="179.8" xlink:href="#f"/>
  <use x="315.51199" y="179.8" xlink:href="#x"/>
  <use x="320.39999" y="179.8" xlink:href="#a"/>
  <use x="322.62399" y="179.8" xlink:href="#g"/>
  <use x="327.07199" y="179.8" xlink:href="#aa"/>
 </g>
 <g fill="none" stroke="#000" stroke-linecap="round" stroke-miterlimit="10" stroke-width=".66667">
  <path d="m98.014 92.003h-3.6016"/>
  <path d="m90.315 92.003h-3.6016"/>
  <path d="m82.612 92.003h-3.5976"/>
  <path d="m75.014 92.003h-3.6016"/>
  <path d="m67.413 92.003h-3.5977"/>
  <path d="m59.714 92.003h-3.6016"/>
  <path d="m52.014 92.003h-3.6016"/>
  <path d="m44.413 92.003h-3.5977"/>
  <path d="m36.815 92.003h-3.6016"/>
  <path d="m184.41 92.003h3.6016"/>
  <path d="m191.11 92.003h3.6016"/>
  <path d="m198.01 92.003h3.5976"/>
  <path d="m204.71 92.003h3.6016"/>
  <path d="m211.61 92.003h3.6016"/>
  <path d="m218.32 92.003h3.5977"/>
  <path d="m225.21 92.003h3.6016"/>
  <path d="m231.91 92.003h3.6016"/>
  <path d="m238.82 92.003h3.5977"/>
  <path d="m245.61 92.003h3.6016"/>
 </g>
 <g transform="translate(-128.79 -50.196)" fill="#007fff">
  <use x="230.5" y="145.2" xlink:href="#e"/>
  <use x="237.612" y="145.2" xlink:href="#a"/>
  <use x="239.836" y="145.2" xlink:href="#g"/>
  <use x="244.284" y="145.2" xlink:href="#l"/>
  <use x="247.396" y="145.2" xlink:href="#f"/>
  <use x="254.49998" y="145.2" xlink:href="#a"/>
  <use x="256.724" y="145.2" xlink:href="#h"/>
  <use x="261.612" y="145.2" xlink:href="#q"/>
  <use x="266.06" y="145.2" xlink:href="#b"/>
  <use x="268.724" y="145.2" xlink:href="#l"/>
  <use x="271.836" y="145.2" xlink:href="#y"/>
  <use x="276.724" y="145.2" xlink:href="#g"/>
  <use x="281.172" y="145.2" xlink:href="#b"/>
  <use x="283.836" y="145.2" xlink:href="#a"/>
  <use x="286.06" y="145.2" xlink:href="#f"/>
  <use x="290.948" y="145.2" xlink:href="#h"/>
  <use x="297.99997" y="145.2" xlink:href="#q"/>
  <use x="302.448" y="145.2" xlink:href="#c"/>
  <use x="306.896" y="145.2" xlink:href="#b"/>
 </g>
 <g fill="none" stroke="#000" stroke-linecap="round" stroke-miterlimit="10">
  <path d="m274.41 12.804-21.699 6.1016" stroke-width=".25"/>
  <g stroke-width=".85">
   <path d="m259.01 15.304-6.4024 3.6992"/>
   <path d="m259.32 15.804-6.6016 3.1016"/>
   <path d="m259.61 16.406-6.8984 2.5"/>
   <path d="m259.71 16.906-7.1016 2"/>
   <path d="m259.91 17.503-7.1992 1.4023"/>
   <path d="m260.01 18.105-7.3008.80078"/>
   <path d="m260.01 18.703-7.4024.20312"/>
  </g>
  <path d="m274.41 84.804-21.699 6.1016" stroke-width=".25"/>
  <g stroke-width=".85">
   <path d="m259.01 87.304-6.4024 3.6992"/>
   <path d="m259.32 87.804-6.6016 3.1016"/>
   <path d="m259.61 88.406-6.8984 2.5"/>
   <path d="m259.71 88.906-7.1016 2"/>
   <path d="m259.91 89.503-7.1992 1.4023"/>
   <path d="m260.01 90.105-7.3008.80078"/>
   <path d="m260.01 90.703-7.4024.20312"/>
  </g>
  <g stroke-width=".25">
   <path d="m256.41 95.605c0-1.9883-1.6094-3.6016-3.5977-3.6016"/>
   <path d="m256.41 95.605v28.801"/>
   <path d="m256.41 124.41c0 1.9883 1.6133 3.5977 3.6016 3.5977"/>
   <path d="m260.01 128c-1.9883 0-3.6016 1.6133-3.6016 3.6016"/>
   <path d="m256.41 131.6v28.801"/>
   <path d="m252.82 164c1.9883 0 3.5977-1.6094 3.5977-3.5977"/>
   <path d="m29.612 20.003c-1.9883 0-3.5977 1.6133-3.5977 3.6016"/>
   <path d="m26.014 23.605v64.801"/>
   <path d="m22.413 92.003c1.9883 0 3.6016-1.6094 3.6016-3.5977"/>
   <path d="m26.014 95.605c0-1.9883-1.6133-3.6016-3.6016-3.6016"/>
   <path d="m26.014 95.605v64.801"/>
   <path d="m26.014 160.41c0 1.9883 1.6094 3.5977 3.5977 3.5977"/>
  </g>
 </g>
 <g transform="translate(-128.79 -50.196)">
  <use x="392.39999" y="179.8" xlink:href="#ap"/>
  <use x="399.064" y="179.8" xlink:href="#k"/>
  <use x="401.28799" y="179.8" xlink:href="#s"/>
  <use x="404.84" y="179.8" xlink:href="#d"/>
  <use x="407.952" y="179.8" xlink:href="#j"/>
  <use x="411.952" y="179.8" xlink:href="#s"/>
  <use x="415.504" y="179.8" xlink:href="#j"/>
  <use x="419.504" y="179.8" xlink:href="#n"/>
  <use x="423.504" y="179.8" xlink:href="#r"/>
  <use x="425.728" y="179.8" xlink:href="#d"/>
  <use x="428.84" y="179.8" xlink:href="#j"/>
  <use x="432.84" y="179.8" xlink:href="#m"/>
  <use x="435.064" y="179.8" xlink:href="#m"/>
  <use x="437.28799" y="179.8" xlink:href="#i"/>
  <use x="440.84" y="179.8" xlink:href="#d"/>
  <use x="131.5" y="143.8" xlink:href="#ao"/>
  <use x="136.836" y="143.8" xlink:href="#an"/>
  <use x="141.724" y="143.8" xlink:href="#am"/>
  <use x="406" y="60.099998" xlink:href="#al"/>
  <use x="409.552" y="60.099998" xlink:href="#k"/>
  <use x="411.776" y="60.099998" xlink:href="#ak"/>
  <use x="414.888" y="60.099998" xlink:href="#k"/>
  <use x="417.112" y="60.099998" xlink:href="#aj"/>
  <use x="421.112" y="60.099998" xlink:href="#m"/>
  <use x="423.336" y="60.099998" xlink:href="#i"/>
  <use x="429.10001" y="60.099998" xlink:href="#r"/>
  <use x="431.32401" y="60.099998" xlink:href="#j"/>
  <use x="406" y="69.099998" xlink:href="#ai"/>
  <use x="410" y="69.099998" xlink:href="#d"/>
  <use x="413.112" y="69.099998" xlink:href="#j"/>
  <use x="417.112" y="69.099998" xlink:href="#ah"/>
  <use x="421.112" y="69.099998" xlink:href="#d"/>
  <use x="424.224" y="69.099998" xlink:href="#v"/>
  <use x="428.224" y="69.099998" xlink:href="#u"/>
  <use x="434" y="69.099998" xlink:href="#u"/>
  <use x="439.776" y="69.099998" xlink:href="#i"/>
  <use x="443.328" y="69.099998" xlink:href="#d"/>
  <use x="406" y="132.10001" xlink:href="#ag"/>
  <use x="410" y="132.10001" xlink:href="#k"/>
  <use x="412.224" y="132.10001" xlink:href="#t"/>
  <use x="416.224" y="132.10001" xlink:href="#t"/>
  <use x="420.224" y="132.10001" xlink:href="#i"/>
  <use x="423.776" y="132.10001" xlink:href="#n"/>
  <use x="406" y="141.10001" xlink:href="#af"/>
  <use x="408.664" y="141.10001" xlink:href="#k"/>
  <use x="410.888" y="141.10001" xlink:href="#n"/>
  <use x="414.888" y="141.10001" xlink:href="#r"/>
  <use x="417.112" y="141.10001" xlink:href="#i"/>
  <use x="420.664" y="141.10001" xlink:href="#d"/>
  <use x="423.776" y="141.10001" xlink:href="#n"/>
  <use x="427.776" y="141.10001" xlink:href="#v"/>
  <use x="431.776" y="141.10001" xlink:href="#m"/>
  <use x="434" y="141.10001" xlink:href="#ae"/>
 </g>
</svg>
