<svg width="270" height="200" version="1.1" viewBox="0 0 270 200" xmlns="http://www.w3.org/2000/svg" xmlns:xlink="http://www.w3.org/1999/xlink">
 <defs>
  <g id="i">
   <path d="m4.1719-2.7031c-.078125-1.0625-.76562-1.6875-1.8594-1.6875-1.2969 0-2.0469.84375-2.0469 2.3125 0 1.4375.75 2.2656 2.0312 2.2656 1.0469 0 1.7812-.65625 1.875-1.6875h-1.0625c-.14062.5625-.35938.78125-.8125.78125-.5625 0-.90625-.5-.90625-1.3594 0-.40625.078125-.78125.21875-1.0469.125-.23438.375-.35938.6875-.35938.46875 0 .67188.21875.8125.78125z"/>
  </g>
  <g id="f">
   <path d="m.53125-5.8281v5.8281h1.125v-2.5938c0-.5.35938-.84375.85938-.84375.25 0 .4375.078125.5625.26562.10938.14062.125.26562.125.53125v2.6406h1.125v-2.8906c0-.54688-.14062-.92188-.4375-1.1719-.25-.20312-.60938-.32812-.96875-.32812-.54688 0-.95312.21875-1.2656.6875v-2.125z"/>
  </g>
  <g id="e">
   <path d="m4.3281 0v-4.3125h-1.125v2.7031c0 .5-.34375.84375-.90625.84375-.46875 0-.71875-.26562-.71875-.78125v-2.7656h-1.1094v3c0 .95312.51562 1.5 1.4375 1.5.59375 0 .98438-.21875 1.2969-.70312v.51562z"/>
  </g>
  <g id="b">
   <path d="m.5-4.3125v4.3125h1.125v-2.5938c0-.51562.34375-.84375.90625-.84375.48438 0 .71875.26562.71875.78125v2.6562h1.125v-2.8906c0-.96875-.53125-1.5-1.4531-1.5-.57812 0-.98438.20312-1.2969.6875v-.60938z"/>
  </g>
  <g id="h">
   <path d="m1.5938-2.6406v-3.1875h-1.125v5.8281h1.125v-1.4219l.45312-.48438 1.0312 1.9062h1.3125l-1.5781-2.6875 1.4688-1.625h-1.2656z"/>
  </g>
  <g id="z">
   <path d="m1.9062-3.9062v3.9062h1.125v-5.6719h-.75c-.17188.67188-.76562 1.0156-1.7344 1.0156v.75z"/>
  </g>
  <g id="y">
   <path d="m4.0938-1h-2.4062c.15625-.29688.32812-.46875 1.1562-1.0781.98438-.71875 1.2812-1.1406 1.2812-1.9062 0-1.1094-.76562-1.8125-1.9531-1.8125-1.1719 0-1.8594.70312-1.8594 1.9062v.1875h1.0781v-.17188c0-.64062.29688-1 .8125-1 .5 0 .79688.34375.79688.90625 0 .625-.1875.85938-1.4531 1.7656-.96875.65625-1.2656 1.1406-1.3125 2.2031h3.8594z"/>
  </g>
  <g id="x">
   <path d="m1.7344-2.5312c.4375 0 .45312 0 .65625.046875.375.10938.625.4375.625.85938 0 .5-.35938.84375-.84375.84375-.53125 0-.8125-.29688-.85938-.875h-1.0781c0 1.125.73438 1.8438 1.9062 1.8438 1.2188 0 1.9844-.71875 1.9844-1.8125 0-.67188-.28125-1.1094-.92188-1.4219.51562-.32812.73438-.6875.73438-1.2031 0-.9375-.70312-1.5469-1.7969-1.5469-.82812 0-1.4531.35938-1.7031.98438-.09375.26562-.14062.45312-.14062.92188h1.0469c.015625-.29688.03125-.45312.09375-.59375.09375-.25.35938-.40625.6875-.40625.4375 0 .70312.28125.70312.75 0 .57812-.32812.85938-1 .85938h-.09375z"/>
  </g>
  <g id="s">
   <path d="m4.1719-2.1875h-.59375v-3.4844h-1.3125l-2.0781 3.4688v.95312h2.2812v1.25h1.1094v-1.25h.59375zm-1.7031 0h-1.4844l1.4844-2.4219z"/>
  </g>
  <g id="ap">
   <path d="m4.0625-4.3906c-.0625-.35938-.14062-.54688-.28125-.75-.29688-.40625-.8125-.65625-1.4219-.65625-.71875 0-1.2812.3125-1.625.89062-.34375.54688-.48438 1.1719-.48438 2.2031 0 .98438.125 1.5938.40625 2.0469.32812.53125.92188.84375 1.5938.84375 1.1406 0 1.9062-.84375 1.9062-2.0781 0-1.0938-.67188-1.8438-1.6562-1.8438-.45312 0-.76562.14062-1.125.5l.015625-.125c.015625-.51562.03125-.6875.10938-.90625.15625-.42188.42188-.625.8125-.625.375 0 .5625.14062.70312.5zm-1.8438 1.5469c.53125 0 .875.39062.875 1.0312 0 .59375-.375 1.0312-.875 1.0312s-.85938-.40625-.85938-1.0156c0-.625.35938-1.0469.85938-1.0469z"/>
  </g>
  <g id="u">
   <path d="m.46875-5.8281v5.8281h1.125v-.4375c.26562.42188.64062.625 1.1875.625 1.0312 0 1.8125-.98438 1.8125-2.2969 0-.57812-.17188-1.1719-.45312-1.5938-.29688-.42188-.82812-.6875-1.3594-.6875-.54688 0-.92188.20312-1.1875.625v-2.0625zm2.0625 2.375c.5625 0 .95312.5625.95312 1.3594s-.39062 1.3438-.95312 1.3438-.9375-.53125-.9375-1.375c0-.78125.375-1.3281.9375-1.3281z"/>
  </g>
  <g id="m">
   <path d="m1.6562-4.3125h-1.125v4.3125h1.125zm0-1.5156h-1.125v1h1.125z"/>
  </g>
  <g id="g">
   <path d="m2.4062-4.2344h-.625v-1.1562h-1.125v1.1562h-.54688v.75h.54688v2.6562c0 .67188.375 1.0156 1.1094 1.0156.25 0 .4375-.03125.64062-.09375v-.78125c-.10938.015625-.17188.03125-.25.03125-.29688 0-.375-.09375-.375-.48438v-2.3438h.625z"/>
  </g>
  <g id="l">
   <path d="m4.0469-2.9219c-.015625-.92188-.73438-1.4688-1.8906-1.4688-1.0938 0-1.7656.54688-1.7656 1.4375 0 .29688.078125.53125.23438.70312.15625.15625.28125.21875.70312.35938l1.3281.42188c.28125.078125.39062.17188.39062.34375 0 .26562-.3125.42188-.84375.42188-.29688 0-.51562-.046875-.65625-.14062-.125-.09375-.17188-.1875-.21875-.40625h-1.0938c.03125.95312.71875 1.4375 2.0312 1.4375.60938 0 1.0625-.125 1.375-.39062.32812-.25.51562-.65625.51562-1.0781 0-.5625-.28125-.92188-.84375-1.0938l-1.4219-.40625c-.3125-.09375-.39062-.15625-.39062-.32812 0-.25.26562-.40625.65625-.40625.53125 0 .79688.20312.79688.59375z"/>
  </g>
  <g id="ae">
   <path d="m2.4062-4.3906c-1.3125 0-2.125.875-2.125 2.2812 0 1.4219.8125 2.2969 2.1406 2.2969 1.3125 0 2.125-.875 2.125-2.2656 0-1.4531-.78125-2.3125-2.1406-2.3125zm.015625.90625c.60938 0 1.0156.54688 1.0156 1.3906 0 .8125-.42188 1.375-1.0156 1.375-.60938 0-1.0156-.54688-1.0156-1.3906 0-.82812.40625-1.375 1.0156-1.375z"/>
  </g>
  <g id="o">
   <path d="m2.5-4.2344h-.65625v-.42188c0-.21875.09375-.32812.29688-.32812.10938 0 .21875 0 .32812.015625v-.84375c-.25-.015625-.48438-.015625-.64062-.015625-.75 0-1.1094.34375-1.1094 1.0781v.51562h-.60938v.75h.60938v3.4844h1.125v-3.4844h.65625z"/>
  </g>
  <g id="j">
   <path d="m3.2344 0h1.125v-5.8281h-1.125v2.0625c-.28125-.42188-.64062-.625-1.1875-.625-1.0312 0-1.8125.98438-1.8125 2.2969 0 .57812.17188 1.1719.46875 1.5938.28125.42188.8125.6875 1.3438.6875.54688 0 .90625-.20312 1.1875-.625zm-.9375-3.4531c.5625 0 .9375.54688.9375 1.375 0 .78125-.375 1.3281-.9375 1.3281s-.9375-.54688-.9375-1.3438c0-.8125.375-1.3594.9375-1.3594z"/>
  </g>
  <g id="c">
   <path d="m4.1875-.14062c-.1875-.17188-.25-.3125-.25-.51562v-2.4062c0-.875-.59375-1.3281-1.7656-1.3281s-1.7812.5-1.8594 1.5h1.0938c.046875-.45312.23438-.59375.78125-.59375.4375 0 .65625.14062.65625.42188 0 .15625-.078125.26562-.20312.34375-.14062.078125-.14062.078125-.70312.17188l-.4375.078125c-.85938.14062-1.2812.57812-1.2812 1.3594 0 .76562.53125 1.2969 1.3125 1.2969.48438 0 .92188-.20312 1.3125-.625 0 .23438.03125.3125.125.4375h1.2188zm-1.3438-1.5938c0 .64062-.32812 1.0156-.89062 1.0156-.375 0-.60938-.20312-.60938-.51562 0-.34375.17188-.5.64062-.59375l.39062-.078125c.28125-.046875.34375-.0625.46875-.14062z"/>
  </g>
  <g id="a">
   <path d="m4.1875-1.8125c.015625-.09375.015625-.125.015625-.1875 0-.4375-.0625-.82812-.17188-1.1406-.28125-.78125-.98438-1.25-1.8594-1.25-1.2344 0-2 .89062-2 2.3438 0 1.3906.75 2.2344 1.9844 2.2344.96875 0 1.75-.54688 2-1.4062h-1.1094c-.14062.34375-.45312.54688-.85938.54688-.3125 0-.57812-.14062-.73438-.375-.09375-.15625-.14062-.35938-.15625-.76562zm-2.875-.73438c.078125-.67188.34375-.98438.84375-.98438.51562 0 .8125.34375.875.98438z"/>
  </g>
  <g id="d">
   <path d="m.5-4.3125v4.3125h1.125v-2.2969c0-.65625.32812-.98438.98438-.98438.125 0 .20312.015625.34375.03125v-1.1406h-.125c-.51562 0-.95312.32812-1.2031.92188v-.84375z"/>
  </g>
  <g id="t">
   <path d="m.48438-4.3125v4.3125h1.1094v-2.5938c0-.53125.29688-.84375.78125-.84375.375 0 .59375.21875.59375.5625v2.875h1.125v-2.5938c0-.53125.29688-.84375.76562-.84375.375 0 .60938.21875.60938.5625v2.875h1.125v-3.0625c0-.82812-.51562-1.3281-1.375-1.3281-.5625 0-.9375.1875-1.2656.64062-.20312-.40625-.64062-.64062-1.1719-.64062-.5 0-.82812.15625-1.1875.60938v-.53125z"/>
  </g>
  <g id="k">
   <path d="m1.6562-5.8281h-1.125v5.8281h1.125z"/>
  </g>
  <g id="ad">
   <path d="m1.5781-4.3125h-1.1094v6.0625h1.1094v-2.2656c.28125.48438.65625.70312 1.2031.70312 1.0469 0 1.8125-.96875 1.8125-2.2812 0-.60938-.17188-1.2188-.46875-1.625-.28125-.40625-.82812-.67188-1.3438-.67188-.54688 0-.92188.23438-1.2031.70312zm.95312.85938c.5625 0 .9375.54688.9375 1.375 0 .79688-.375 1.3281-.9375 1.3281-.57812 0-.95312-.53125-.95312-1.3438s.375-1.3594.95312-1.3594z"/>
  </g>
  <g id="ac">
   <path d="m2.8438-2.1719 1.4062-2.1406h-1.3438l-.70312 1.2969-.70312-1.2969h-1.3438l1.4062 2.1406-1.4375 2.1719h1.3438l.73438-1.3438.73438 1.3438h1.3438z"/>
  </g>
  <g id="ab">
   <path d="m3.2031-4.3125v.65625c-.3125-.5-.65625-.73438-1.1094-.73438-.39062 0-.8125.1875-1.1094.5-.4375.45312-.65625 1.0781-.65625 1.8281 0 1.3281.70312 2.25 1.7344 2.25.46875 0 .75-.15625 1.1406-.625v.57812c0 .51562-.375.89062-.90625.89062-.39062 0-.64062-.1875-.73438-.51562h-1.1406c0 .34375.125.57812.42188.8125.34375.28125.8125.42188 1.4219.42188 1.25 0 2-.60938 2-1.6094v-4.4531zm-.90625.85938c.53125 0 .92188.57812.92188 1.375s-.375 1.3281-.9375 1.3281c-.48438 0-.82812-.53125-.82812-1.3281 0-.8125.34375-1.375.84375-1.375z"/>
  </g>
  <g id="aa">
   <path d="m4.9062 0 1.2188-4.3125h-1.1562l-.65625 3.0156-.65625-3.0156h-1.1094l-.65625 3.0156-.6875-3.0156h-1.1562l1.2031 4.3125h1.1562l.6875-3.0469.65625 3.0469z"/>
  </g>
  <g id="ao">
   <path d="m.45312-3.2188.17188-.015625c.1875 0 .34375.09375.34375.21875 0 .10938-.28125 1.2188-.5625 2.2656-.1875.6875-.34375 1.2812-.46875 1.7969-.078125.35938-.1875.45312-.53125.46875v.125h1.6406v-.125c-.39062 0-.51562-.0625-.51562-.23438 0-.10938.125-.71875.29688-1.3281.20312.10938.34375.14062.53125.14062 1.1562 0 2.3906-1.3438 2.3906-2.625 0-.625-.34375-1-.92188-1-.51562 0-.90625.26562-1.3594.92188l.23438-.8125c0-.046875.015625-.0625.015625-.0625 0-.03125-.015625-.046875-.046875-.046875h-.015625l-1.2188.17188zm2.0781.03125c.34375.015625.5.23438.5.6875 0 .54688-.23438 1.2188-.57812 1.7188-.32812.48438-.71875.71875-1.1406.71875-.21875 0-.375-.125-.375-.29688 0-.26562.28125-1.3125.51562-1.9062.21875-.54688.6875-.9375 1.0781-.92188z"/>
  </g>
  <g id="r">
   <path d="m3.7188-.875-.23438.21875c-.25.25-.34375.32812-.40625.32812s-.125-.046875-.125-.10938c0-.15625.34375-1.5312.71875-2.9062.03125-.078125.03125-.09375.046875-.15625l-.0625-.03125-.48438.0625-.015625.015625-.09375.39062c-.0625-.29688-.29688-.46875-.64062-.46875-1.0625 0-2.2812 1.4531-2.2812 2.7344 0 .5625.29688.89062.8125.89062.5625 0 .90625-.26562 1.6094-1.2656-.17188.65625-.1875.71875-.1875.92188 0 .23438.09375.32812.32812.32812.3125 0 .5-.15625 1.1094-.875zm-1.25-2.4844c.28125.015625.45312.21875.45312.5 0 .67188-.40625 1.6094-.95312 2.2031-.1875.21875-.46875.35938-.70312.35938-.28125 0-.45312-.23438-.45312-.59375 0-.45312.29688-1.2656.64062-1.7656.32812-.46875.6875-.71875 1.0156-.70312z"/>
  </g>
  <g id="w">
   <path d="m.96875 0c.42188-1.375.54688-1.7031.92188-2.3125.26562-.45312.48438-.70312.625-.70312.046875 0 .078125.046875.125.125.0625.125.125.17188.28125.17188.25 0 .375-.14062.375-.40625 0-.23438-.15625-.40625-.375-.40625-.1875 0-.40625.125-.60938.34375-.32812.34375-.65625.79688-.78125 1.125l-.10938.28125.42188-1.7344-.015625-.015625c-.59375.10938-.65625.125-1.25.21875v.14062c.1875-.03125.21875-.046875.28125-.046875.17188 0 .28125.078125.28125.23438 0 .10938 0 .10938-.125.64062l-.65625 2.3438z"/>
  </g>
  <g id="q">
   <path d="m1.8281-.98438c-.53125.67188-.59375.73438-.76562.73438-.078125 0-.125-.046875-.125-.15625 0-.0625.03125-.15625.078125-.3125 0-.03125.015625-.046875.015625-.0625v-.015625l1.2031-4.625-.046875-.046875c-.46875.10938-.78125.17188-1.25.21875v.125c.39062 0 .54688.046875.54688.1875 0 .03125 0 .078125-.015625.14062l-1.1094 4.2344c-.015625.078125-.03125.14062-.03125.20312 0 .29688.14062.45312.39062.45312.42188 0 .6875-.23438 1.2031-1z"/>
  </g>
  <g id="n">
   <path d="m2.8594-.875c-.57812.46875-.8125.60938-1.1719.60938-.45312 0-.75-.29688-.75-.73438 0-.125.015625-.23438.09375-.48438l.21875-.03125c1.2031-.17188 2.0469-.78125 2.0469-1.4688 0-.32812-.23438-.54688-.64062-.54688-1.1562 0-2.4062 1.3125-2.4062 2.5156 0 .65625.4375 1.1094 1.0469 1.1094.57812 0 1.1875-.32812 1.6562-.875zm-1.6406-1.1406c.26562-.71875.85938-1.3281 1.2656-1.3281.17188 0 .28125.125.28125.3125 0 .25-.15625.53125-.39062.78125-.29688.28125-.60938.42188-1.2969.59375z"/>
  </g>
  <g id="p">
   <path d="m1.7812-.90625c-.20312.26562-.25.32812-.32812.40625-.14062.125-.26562.21875-.32812.21875s-.14062-.0625-.14062-.125c0-.078125.03125-.20312.09375-.35938l.03125-.14062.015625-.015625v-.015625l.70312-2.5781-.03125-.015625c-.8125.15625-.96875.17188-1.2812.20312v.125c.4375.015625.51562.03125.51562.1875 0 .078125-.03125.20312-.078125.35938l-.39062 1.4219c-.125.46875-.17188.70312-.17188.85938 0 .29688.125.46875.375.46875.375 0 .65625-.25 1.1094-.92188zm-.0625-4.3281c-.21875 0-.375.17188-.375.42188 0 .26562.14062.42188.375.42188.20312 0 .39062-.17188.39062-.40625s-.1875-.4375-.39062-.4375z"/>
  </g>
  <g id="ag">
   <path d="m3.6875-.9375c-.4375.54688-.53125.64062-.65625.64062-.078125 0-.14062-.0625-.14062-.14062 0-.0625.03125-.20312.125-.5l.45312-1.6406c.03125-.17188.0625-.34375.0625-.46875 0-.29688-.21875-.48438-.51562-.48438-.51562 0-1.0312.48438-1.8438 1.7656l.53125-1.75-.015625-.015625c-.4375.09375-.60938.125-1.2969.25v.125c.40625.015625.5.0625.5.21875 0 .046875 0 .09375-.015625.14062l-.76562 2.7969h.60938c.375-1.2656.4375-1.4375.79688-1.9844.46875-.73438.89062-1.1406 1.1875-1.1406.10938 0 .1875.09375.1875.23438 0 .09375-.046875.35938-.10938.60938l-.35938 1.3281c-.10938.40625-.125.51562-.125.59375 0 .29688.10938.4375.375.4375.35938 0 .5625-.17188 1.125-.90625z"/>
  </g>
  <g id="v">
   <path d="m2.375-3.4219h-.64062l.21875-.82812v-.046875c0-.046875-.015625-.078125-.0625-.078125s-.0625.015625-.10938.078125c-.3125.40625-.8125.8125-1.0625.875-.20312.0625-.26562.125-.26562.20312 0 .015625 0 .03125.015625.046875h.59375l-.57812 2.2031c-.015625.078125-.03125.10938-.046875.17188-.078125.26562-.14062.51562-.14062.59375 0 .15625.17188.29688.39062.29688.35938 0 .625-.23438 1.125-.96875l-.09375-.0625c-.40625.5-.53125.64062-.65625.64062-.078125 0-.125-.0625-.125-.17188l.015625-.03125.70312-2.6719h.67188z"/>
  </g>
  <g id="af">
   <path d="m.28125-3.1719h.71875l-.70312 3.3594c-.17188.85938-.4375 1.2969-.78125 1.2969-.09375 0-.15625-.046875-.15625-.125 0-.03125.015625-.046875.03125-.09375.03125-.046875.046875-.078125.046875-.125 0-.17188-.15625-.29688-.3125-.29688-.17188 0-.29688.14062-.29688.32812 0 .28125.26562.48438.625.48438.71875 0 1.2656-.78125 1.6094-2.2656l.5625-2.5625h.875l.046875-.25h-.85938c.23438-1.2656.53125-1.8281.96875-1.8281.125 0 .1875.046875.1875.10938 0 .015625-.015625.03125-.03125.0625-.046875.0625-.046875.10938-.046875.17188 0 .1875.10938.32812.29688.32812.17188 0 .32812-.15625.32812-.32812 0-.29688-.29688-.51562-.6875-.51562s-.70312.17188-.98438.54688c-.25.3125-.40625.6875-.64062 1.4531h-.73438z"/>
  </g>
  <g id="an">
   <path d="m2.7969-.84375c-.4375.46875-.75.64062-1.1406.64062-.45312 0-.73438-.32812-.73438-.90625 0-.6875.28125-1.4062.73438-1.8594.23438-.25.54688-.39062.875-.39062.1875 0 .29688.0625.29688.15625 0 .046875-.015625.078125-.046875.15625-.0625.10938-.078125.15625-.078125.23438 0 .1875.125.29688.3125.29688.21875 0 .39062-.14062.39062-.35938 0-.375-.35938-.65625-.84375-.65625-1.2031 0-2.3281 1.1719-2.3281 2.4219 0 .75.4375 1.2031 1.1875 1.2031.59375 0 1.0156-.25 1.5-.85938z"/>
  </g>
  <g id="am">
   <path d="m.39062 0h2.2344v-.125h-.14062c-.39062 0-.54688-.0625-.54688-.25 0-.078125.015625-.1875.09375-.42188.015625-.046875.03125-.09375.046875-.17188l1.1406-4.1562c.046875-.14062.046875-.1875.046875-.23438 0-.03125-.015625-.046875-.03125-.046875 0 0-.21875.03125-.65625.125l-.71875.14062c-.015625.015625-.078125.015625-.17188.03125v.125l.45312-.015625c.1875-.015625.3125.09375.3125.25 0 .046875-.015625.10938-.0625.26562l-1.1094 3.9375c-.09375.29688-.25.375-.89062.4375z"/>
  </g>
  <g id="al">
   <path d="m4.1562-5.4844c-1.0625.125-1.6094.3125-2.2969.82812-1 .75-1.625 1.875-1.625 3.0312 0 1.0156.57812 1.6875 1.4688 1.6875 1.0781 0 1.9844-1.0156 1.9844-2.2344 0-.8125-.5625-1.4062-1.3594-1.4062-.21875 0-.48438.0625-.70312.17188l-.03125-.015625c.54688-1.0156 1.6406-1.8281 2.5781-1.9375zm-2.0781 2.2031c.54688 0 .89062.39062.89062 1.0156 0 .53125-.1875 1.1719-.48438 1.5781-.23438.375-.51562.53125-.85938.53125-.48438 0-.78125-.39062-.78125-1.0469 0-.54688.17188-1.2031.375-1.5625.21875-.35938.48438-.51562.85938-.51562z"/>
  </g>
  <g id="ak">
   <path d="m.875-5.1406c.48438.015625.53125.03125.53125.21875 0 .0625-.015625.15625-.078125.34375l-.046875.14062-.015625.0625-1.0781 4v.03125c0 .1875.60938.4375 1.0625.4375 1.2031 0 2.5312-1.3906 2.5312-2.6562 0-.5625-.39062-.96875-.92188-.96875-.5625 0-.98438.32812-1.5469 1.2188.40625-1.5.46875-1.7344.82812-3.1094l-.03125-.046875c-.40625.078125-.64062.10938-1.2344.1875zm1.6719 2c.34375 0 .5625.26562.5625.6875 0 .53125-.40625 1.3906-.89062 1.8906-.29688.29688-.64062.46875-.98438.46875-.25 0-.35938-.09375-.35938-.28125 0-.46875.23438-1.2344.57812-1.8438s.70312-.92188 1.0938-.92188z"/>
  </g>
  <g id="aj">
   <path d="m.28125-1.1719-.15625 1.2812h.125c.078125-.14062.10938-.17188.20312-.17188.078125 0 .23438.03125.39062.078125.1875.046875.29688.078125.4375.078125.67188 0 1.1562-.4375 1.1562-1.0469 0-.3125-.17188-.65625-.54688-1.125-.3125-.375-.4375-.625-.4375-.84375 0-.26562.17188-.42188.45312-.42188.40625 0 .65625.29688.73438.92188h.125l.15625-1.1094h-.10938c-.0625.10938-.10938.14062-.23438.14062-.0625 0-.14062-.015625-.29688-.0625-.1875-.0625-.3125-.078125-.4375-.078125-.59375 0-.96875.34375-.96875.89062 0 .25.17188.59375.5 1.0312.3125.40625.45312.6875.45312.90625 0 .375-.25.625-.59375.625-.45312 0-.6875-.32812-.8125-1.0938z"/>
  </g>
  <g id="ai">
   <path d="m.125-3.2188.15625-.015625c.28125.015625.32812.03125.39062.1875.09375.26562.23438 1.3594.26562 2.1094l.03125.70312c.015625.3125.03125.375.10938.375s.21875-.20312.5-.75c.046875-.09375.20312-.35938.45312-.79688l.70312-1.2344.23438 2.5469c.015625.21875.03125.23438.09375.23438s.14062-.0625.35938-.34375c0 0 .03125-.046875.0625-.078125 1.0938-1.3125 1.7031-2.3125 1.7031-2.8281 0-.25-.17188-.42188-.42188-.42188-.20312 0-.3125.10938-.3125.28125 0 .09375.046875.17188.17188.28125.125.125.17188.20312.17188.3125 0 .34375-.26562.76562-1.3125 2.0625l-.26562-2.8125c0-.09375-.015625-.10938-.0625-.10938-.03125 0-.0625.015625-.09375.078125l-1.5469 2.4219c-.015625-.54688-.10938-1.3906-.20312-1.9375-.078125-.51562-.09375-.57812-.1875-.57812-.046875 0-.14062.03125-.25.0625 0 0-.28125.0625-.53125.09375-.046875 0-.125.015625-.21875.03125z"/>
  </g>
  <g id="ah">
   <path d="m3.7031-.89062c-.4375.5-.51562.57812-.65625.57812-.078125 0-.14062-.078125-.14062-.17188 0-.125.25-1.0625.51562-1.9688.1875-.64062.34375-1.2188.79688-2.9688l-.046875-.046875c-.40625.09375-.70312.14062-1.2188.1875v.14062c.4375.015625.5.03125.5.20312 0 .10938-.015625.14062-.125.5625l-.35938 1.3125c-.0625-.34375-.20312-.46875-.51562-.46875-1.0312 0-2.3281 1.5-2.3281 2.7031 0 .57812.3125.92188.82812.92188.54688 0 .90625-.26562 1.4531-1.0625-.09375.40625-.10938.53125-.10938.71875 0 .20312.14062.35938.32812.35938.34375 0 .76562-.32812 1.1719-.92188zm-1.2188-2.4531c.25.015625.35938.17188.35938.45312 0 1.2188-.82812 2.5938-1.5625 2.5938-.28125 0-.46875-.20312-.46875-.53125 0-.65625.40625-1.5938.9375-2.1406.21875-.23438.51562-.39062.73438-.375z"/>
  </g>
 </defs>
 <g fill="none" stroke="#000" stroke-linecap="round" stroke-miterlimit="10" stroke-width=".66667">
  <path d="m10.019 32.077v-12.902"/>
  <path d="m10.019 19.175h63"/>
  <path d="m73.019 19.175v12.902"/>
  <path d="m73.019 32.077h-63"/>
 </g>
 <g transform="translate(-151.98 -54.025)" fill="#ff6600">
  <use x="178.3" y="82.699997" xlink:href="#i"/>
  <use x="182.748" y="82.699997" xlink:href="#f"/>
  <use x="187.636" y="82.699997" xlink:href="#e"/>
  <use x="192.524" y="82.699997" xlink:href="#b"/>
  <use x="197.412" y="82.699997" xlink:href="#h"/>
  <use x="204.2" y="82.699997" xlink:href="#z"/>
 </g>
 <g fill="none" stroke="#000" stroke-linecap="round" stroke-miterlimit="10" stroke-width=".66667">
  <path d="m73.019 32.077v-12.902"/>
  <path d="m73.019 19.175h63"/>
  <path d="m136.02 19.175v12.902"/>
  <path d="m136.02 32.077h-63"/>
 </g>
 <g transform="translate(-151.98 -54.025)" fill="#ff6600">
  <use x="241.2" y="82.699997" xlink:href="#i"/>
  <use x="245.64799" y="82.699997" xlink:href="#f"/>
  <use x="250.536" y="82.699997" xlink:href="#e"/>
  <use x="255.424" y="82.699997" xlink:href="#b"/>
  <use x="260.31201" y="82.699997" xlink:href="#h"/>
  <use x="267.10001" y="82.699997" xlink:href="#y"/>
 </g>
 <g fill="none" stroke="#000" stroke-linecap="round" stroke-miterlimit="10" stroke-width=".66667">
  <path d="m136.02 32.077v-12.902"/>
  <path d="m136.02 19.175h63"/>
  <path d="m199.02 19.175v12.902"/>
  <path d="m199.02 32.077h-63"/>
 </g>
 <g transform="translate(-151.98 -54.025)" fill="#ff6600">
  <use x="304.29999" y="82.699997" xlink:href="#i"/>
  <use x="308.74799" y="82.699997" xlink:href="#f"/>
  <use x="313.63599" y="82.699997" xlink:href="#e"/>
  <use x="318.52399" y="82.699997" xlink:href="#b"/>
  <use x="323.41199" y="82.699997" xlink:href="#h"/>
  <use x="330.19998" y="82.699997" xlink:href="#x"/>
 </g>
 <g fill="none" stroke="#000" stroke-linecap="round" stroke-miterlimit="10" stroke-width=".66667">
  <path d="m199.02 32.077v-12.902"/>
  <path d="m199.02 19.175h63"/>
  <path d="m262.02 19.175v12.902"/>
  <path d="m262.02 32.077h-63"/>
 </g>
 <g transform="translate(-151.98 -54.025)" fill="#ff6600">
  <use x="367.20001" y="82.699997" xlink:href="#i"/>
  <use x="371.64801" y="82.699997" xlink:href="#f"/>
  <use x="376.53601" y="82.699997" xlink:href="#e"/>
  <use x="381.42401" y="82.699997" xlink:href="#b"/>
  <use x="386.31201" y="82.699997" xlink:href="#h"/>
  <use x="393.10001" y="82.699997" xlink:href="#s"/>
 </g>
 <g transform="translate(-151.98 -54.025)" fill="#007fff">
  <use x="228.2" y="67.599998" xlink:href="#ap"/>
  <use x="232.64799" y="67.599998" xlink:href="#s"/>
  <use x="239.39999" y="67.599998" xlink:href="#u"/>
  <use x="244.28799" y="67.599998" xlink:href="#m"/>
  <use x="246.51199" y="67.599998" xlink:href="#g"/>
  <use x="249.17599" y="67.599998" xlink:href="#l"/>
  <use x="255.8" y="67.599998" xlink:href="#ae"/>
  <use x="260.68799" y="67.599998" xlink:href="#o"/>
  <use x="265.5" y="67.599998" xlink:href="#j"/>
  <use x="270.388" y="67.599998" xlink:href="#c"/>
  <use x="274.836" y="67.599998" xlink:href="#g"/>
  <use x="277.5" y="67.599998" xlink:href="#c"/>
  <use x="284.20001" y="67.599998" xlink:href="#g"/>
  <use x="286.86401" y="67.599998" xlink:href="#ae"/>
  <use x="293.89999" y="67.599998" xlink:href="#u"/>
  <use x="298.78799" y="67.599998" xlink:href="#a"/>
  <use x="305.5" y="67.599998" xlink:href="#g"/>
  <use x="308.164" y="67.599998" xlink:href="#d"/>
  <use x="311.276" y="67.599998" xlink:href="#c"/>
  <use x="315.724" y="67.599998" xlink:href="#b"/>
  <use x="320.612" y="67.599998" xlink:href="#l"/>
  <use x="325.06" y="67.599998" xlink:href="#o"/>
  <use x="327.724" y="67.599998" xlink:href="#a"/>
  <use x="332.172" y="67.599998" xlink:href="#d"/>
  <use x="335.284" y="67.599998" xlink:href="#d"/>
  <use x="338.396" y="67.599998" xlink:href="#a"/>
  <use x="342.84399" y="67.599998" xlink:href="#j"/>
 </g>
 <g fill="none" stroke="#000" stroke-linecap="round" stroke-miterlimit="10" stroke-width=".66667">
  <path d="m82.019 86.077v-18"/>
  <path d="m82.019 68.077h108"/>
  <path d="m190.02 68.077v18"/>
  <path d="m190.02 86.077h-108"/>
 </g>
 <g transform="translate(-151.98 -54.025)" fill="#00ff00">
  <use x="245.5" y="132.7" xlink:href="#t"/>
  <use x="252.612" y="132.7" xlink:href="#e"/>
  <use x="257.5" y="132.7" xlink:href="#k"/>
  <use x="259.724" y="132.7" xlink:href="#g"/>
  <use x="262.388" y="132.7" xlink:href="#m"/>
  <use x="264.612" y="132.7" xlink:href="#ad"/>
  <use x="269.5" y="132.7" xlink:href="#k"/>
  <use x="271.724" y="132.7" xlink:href="#a"/>
  <use x="276.172" y="132.7" xlink:href="#ac"/>
  <use x="280.62" y="132.7" xlink:href="#m"/>
  <use x="282.84399" y="132.7" xlink:href="#b"/>
  <use x="287.73199" y="132.7" xlink:href="#ab"/>
  <use x="294.80002" y="132.7" xlink:href="#f"/>
  <use x="299.68802" y="132.7" xlink:href="#c"/>
  <use x="304.13602" y="132.7" xlink:href="#d"/>
  <use x="307.24802" y="132.7" xlink:href="#j"/>
  <use x="312.13602" y="132.7" xlink:href="#aa"/>
  <use x="318.36002" y="132.7" xlink:href="#c"/>
  <use x="322.80801" y="132.7" xlink:href="#d"/>
  <use x="325.92001" y="132.7" xlink:href="#a"/>
 </g>
 <g fill="none" stroke="#000" stroke-linecap="round" stroke-miterlimit="10" stroke-width=".66667">
  <path d="m82.019 132.87v-18"/>
  <path d="m82.019 114.87h108"/>
  <path d="m190.02 114.87v18"/>
  <path d="m190.02 132.87h-108"/>
 </g>
 <g transform="translate(-151.98 -54.025)" fill="#00ff00">
  <use x="240.8" y="181" xlink:href="#j"/>
  <use x="245.688" y="181" xlink:href="#a"/>
  <use x="250.136" y="181" xlink:href="#t"/>
  <use x="257.24799" y="181" xlink:href="#e"/>
  <use x="262.13599" y="181" xlink:href="#k"/>
  <use x="264.35999" y="181" xlink:href="#g"/>
  <use x="267.02399" y="181" xlink:href="#m"/>
  <use x="269.24799" y="181" xlink:href="#ad"/>
  <use x="274.13599" y="181" xlink:href="#k"/>
  <use x="276.35999" y="181" xlink:href="#a"/>
  <use x="280.80801" y="181" xlink:href="#ac"/>
  <use x="285.25601" y="181" xlink:href="#m"/>
  <use x="287.48001" y="181" xlink:href="#b"/>
  <use x="292.36801" y="181" xlink:href="#ab"/>
  <use x="299.5" y="181" xlink:href="#f"/>
  <use x="304.388" y="181" xlink:href="#c"/>
  <use x="308.836" y="181" xlink:href="#d"/>
  <use x="311.948" y="181" xlink:href="#j"/>
  <use x="316.836" y="181" xlink:href="#aa"/>
  <use x="323.06" y="181" xlink:href="#c"/>
  <use x="327.508" y="181" xlink:href="#d"/>
  <use x="330.62" y="181" xlink:href="#a"/>
 </g>
 <g fill="none" stroke="#000" stroke-linecap="round" stroke-miterlimit="10">
  <g stroke-width=".5">
   <path d="m98.019 86.077v28.797"/>
   <path d="m103.02 86.077v28.797"/>
   <path d="m108.12 86.077v28.797"/>
   <path d="m113.22 86.077v28.797"/>
   <path d="m118.22 86.077v28.797"/>
   <path d="m123.32 86.077v28.797"/>
   <path d="m128.42 86.077v28.797"/>
   <path d="m133.42 86.077v28.797"/>
   <path d="m138.52 86.077v28.797"/>
   <path d="m143.52 86.077v28.797"/>
   <path d="m148.62 86.077v28.797"/>
   <path d="m153.72 86.077v28.797"/>
   <path d="m158.72 86.077v28.797"/>
   <path d="m163.82 86.077v28.797"/>
   <path d="m168.92 86.077v28.797"/>
   <path d="m173.92 86.077v28.797"/>
  </g>
  <g stroke-width=".66667">
   <path d="m10.019 181.87v-12.898"/>
   <path d="m10.019 168.87h63"/>
   <path d="m73.019 168.87v12.902"/>
   <path d="m73.019 181.87h-63"/>
  </g>
 </g>
 <g transform="translate(-151.98 -54.025)" fill="#ff6600">
  <use x="178.3" y="232.39999" xlink:href="#i"/>
  <use x="182.748" y="232.39999" xlink:href="#f"/>
  <use x="187.636" y="232.39999" xlink:href="#e"/>
  <use x="192.524" y="232.39999" xlink:href="#b"/>
  <use x="197.412" y="232.39999" xlink:href="#h"/>
  <use x="204.2" y="232.39999" xlink:href="#z"/>
 </g>
 <g fill="none" stroke="#000" stroke-linecap="round" stroke-miterlimit="10" stroke-width=".66667">
  <path d="m73.019 181.87v-12.898"/>
  <path d="m73.019 168.87h63"/>
  <path d="m136.02 168.87v12.902"/>
  <path d="m136.02 181.87h-63"/>
 </g>
 <g transform="translate(-151.98 -54.025)" fill="#ff6600">
  <use x="241.2" y="232.39999" xlink:href="#i"/>
  <use x="245.64799" y="232.39999" xlink:href="#f"/>
  <use x="250.536" y="232.39999" xlink:href="#e"/>
  <use x="255.424" y="232.39999" xlink:href="#b"/>
  <use x="260.31201" y="232.39999" xlink:href="#h"/>
  <use x="267.10001" y="232.39999" xlink:href="#y"/>
 </g>
 <g fill="none" stroke="#000" stroke-linecap="round" stroke-miterlimit="10" stroke-width=".66667">
  <path d="m136.02 181.87v-12.898"/>
  <path d="m136.02 168.87h63"/>
  <path d="m199.02 168.87v12.902"/>
  <path d="m199.02 181.87h-63"/>
 </g>
 <g transform="translate(-151.98 -54.025)" fill="#ff6600">
  <use x="304.29999" y="232.39999" xlink:href="#i"/>
  <use x="308.74799" y="232.39999" xlink:href="#f"/>
  <use x="313.63599" y="232.39999" xlink:href="#e"/>
  <use x="318.52399" y="232.39999" xlink:href="#b"/>
  <use x="323.41199" y="232.39999" xlink:href="#h"/>
  <use x="330.19998" y="232.39999" xlink:href="#x"/>
 </g>
 <g fill="none" stroke="#000" stroke-linecap="round" stroke-miterlimit="10" stroke-width=".66667">
  <path d="m199.02 181.87v-12.898"/>
  <path d="m199.02 168.87h63"/>
  <path d="m262.02 168.87v12.902"/>
  <path d="m262.02 181.87h-63"/>
 </g>
 <g transform="translate(-151.98 -54.025)" fill="#ff6600">
  <use x="367.20001" y="232.39999" xlink:href="#i"/>
  <use x="371.64801" y="232.39999" xlink:href="#f"/>
  <use x="376.53601" y="232.39999" xlink:href="#e"/>
  <use x="381.42401" y="232.39999" xlink:href="#b"/>
  <use x="386.31201" y="232.39999" xlink:href="#h"/>
  <use x="393.10001" y="232.39999" xlink:href="#s"/>
 </g>
 <g transform="translate(-151.98 -54.025)" fill="#007fff">
  <use x="228.3" y="247.60001" xlink:href="#j"/>
  <use x="233.188" y="247.60001" xlink:href="#c"/>
  <use x="237.636" y="247.60001" xlink:href="#g"/>
  <use x="240.3" y="247.60001" xlink:href="#c"/>
  <use x="247" y="247.60001" xlink:href="#d"/>
  <use x="250.112" y="247.60001" xlink:href="#a"/>
  <use x="254.56" y="247.60001" xlink:href="#c"/>
  <use x="259.008" y="247.60001" xlink:href="#l"/>
  <use x="263.45599" y="247.60001" xlink:href="#l"/>
  <use x="267.90399" y="247.60001" xlink:href="#a"/>
  <use x="272.35199" y="247.60001" xlink:href="#t"/>
  <use x="279.46399" y="247.60001" xlink:href="#u"/>
  <use x="284.35199" y="247.60001" xlink:href="#k"/>
  <use x="286.57599" y="247.60001" xlink:href="#a"/>
  <use x="291.02399" y="247.60001" xlink:href="#j"/>
  <use x="298.39999" y="247.60001" xlink:href="#c"/>
  <use x="302.84799" y="247.60001" xlink:href="#o"/>
  <use x="305.51199" y="247.60001" xlink:href="#g"/>
  <use x="308.17599" y="247.60001" xlink:href="#a"/>
  <use x="312.62399" y="247.60001" xlink:href="#d"/>
  <use x="317.89999" y="247.60001" xlink:href="#g"/>
  <use x="320.564" y="247.60001" xlink:href="#d"/>
  <use x="323.67599" y="247.60001" xlink:href="#c"/>
  <use x="328.12399" y="247.60001" xlink:href="#b"/>
  <use x="333.01199" y="247.60001" xlink:href="#l"/>
  <use x="337.45999" y="247.60001" xlink:href="#o"/>
  <use x="340.12399" y="247.60001" xlink:href="#a"/>
  <use x="344.57199" y="247.60001" xlink:href="#d"/>
 </g>
 <g fill="none" stroke="#000" stroke-linecap="round" stroke-miterlimit="10">
  <g stroke-width=".66667">
   <path d="m46.519 34.975 54 31.301"/>
   <path d="m93.32 64.175 7.0977 2"/>
   <path d="m93.519 63.577 6.8984 2.5977"/>
   <path d="m93.82 63.077 6.5977 3.0977"/>
   <path d="m94.019 62.577 6.3984 3.6992"/>
   <path d="m94.32 62.077 6.0977 4.1992"/>
   <path d="m94.718 61.577 5.6992 4.6992"/>
   <path d="m95.121 61.077 5.2969 5.0977"/>
   <path d="m107.32 37.077 16 27.797"/>
   <path d="m118.22 59.577 5.1016 5.2969"/>
   <path d="m118.72 59.276 4.6016 5.6992"/>
   <path d="m119.22 58.874 4.1016 6.1016"/>
   <path d="m119.72 58.475 3.6016 6.3984"/>
   <path d="m120.22 58.175 3.1016 6.6016"/>
   <path d="m120.82 57.975 2.5 6.8984"/>
   <path d="m121.32 57.874 2 7.1016"/>
   <path d="m164.62 37.077-16 27.797"/>
   <path d="m150.62 57.874-2 7.1016"/>
   <path d="m151.12 57.975-2.5 6.8984"/>
   <path d="m151.72 58.175-3.0977 6.6016"/>
   <path d="m152.22 58.475-3.5977 6.3984"/>
   <path d="m152.72 58.874-4.0977 6.1016"/>
   <path d="m153.22 59.276-4.5977 5.6992"/>
   <path d="m153.72 59.577-5.0977 5.2969"/>
   <path d="m225.42 34.975-54 31.301"/>
   <path d="m176.82 61.077-5.3008 5.0977"/>
   <path d="m177.22 61.577-5.6992 4.6992"/>
   <path d="m177.62 62.077-6.1016 4.1992"/>
   <path d="m177.92 62.577-6.3984 3.6992"/>
   <path d="m178.12 63.077-6.6016 3.0977"/>
   <path d="m178.42 63.577-6.8984 2.5977"/>
   <path d="m178.62 64.175-7.1016 2"/>
   <path d="m100.52 134.67-54 31.301"/>
   <path d="m51.82 160.78-5.3008 5.0977"/>
   <path d="m52.121 161.28-5.7031 4.6992"/>
   <path d="m52.519 161.78-6.1016 4.1992"/>
   <path d="m52.917 162.28-6.3984 3.6992"/>
   <path d="m53.218 162.87-6.5977 3.1016"/>
   <path d="m53.417 163.37-6.8984 2.6016"/>
   <path d="m53.621 163.87-7.1016 2"/>
   <path d="m123.42 135.98-16 27.801"/>
   <path d="m109.42 156.67-2 7.1016"/>
   <path d="m110.02 156.98-2.5 6.8984"/>
   <path d="m110.52 157.17-3.1016 6.6016"/>
   <path d="m111.02 157.48-3.6016 6.3984"/>
   <path d="m111.52 157.78-4.1016 6.0977"/>
   <path d="m112.02 158.17-4.6016 5.6992"/>
   <path d="m112.52 158.48-5.1016 5.3008"/>
   <path d="m148.62 135.98 16 27.801"/>
   <path d="m159.42 158.48 5.1016 5.3008"/>
   <path d="m159.92 158.17 4.6016 5.6992"/>
   <path d="m160.42 157.78 4.1016 6.0977"/>
   <path d="m160.92 157.48 3.6016 6.3984"/>
   <path d="m161.42 157.17 3.1016 6.6016"/>
   <path d="m161.92 156.98 2.5 6.8984"/>
   <path d="m162.52 156.67 2 7.1016"/>
   <path d="m171.42 134.67 54 31.301"/>
   <path d="m218.32 163.87 7.0976 2"/>
   <path d="m218.52 163.37 6.8984 2.6016"/>
   <path d="m218.82 162.87 6.5976 3.1016"/>
   <path d="m219.02 162.28 6.3984 3.6992"/>
   <path d="m219.42 161.78 6.1016 4.1992"/>
   <path d="m219.82 161.28 5.6992 4.6992"/>
   <path d="m220.12 160.78 5.2969 5.0977"/>
  </g>
  <g stroke-width=".25">
   <path d="m62.417 100.48h30.203"/>
   <path d="m85.417 102.28 7.2031-1.8008"/>
   <path d="m85.32 101.67 7.3008-1.1992"/>
   <path d="m85.218 101.08 7.4023-.5"/>
   <path d="m85.121 100.48h7.3984"/>
   <path d="m85.218 99.874 7.4023.5"/>
   <path d="m85.32 99.276 7.3008 1.1992"/>
   <path d="m85.417 98.675 7.2031 1.8008"/>
  </g>
 </g>
 <g transform="translate(-151.98 -54.025)">
  <use x="155" y="150.10001" xlink:href="#ao"/>
  <use x="159" y="150.10001" xlink:href="#r"/>
  <use x="163" y="150.10001" xlink:href="#w"/>
  <use x="166.112" y="150.10001" xlink:href="#r"/>
  <use x="170.112" y="150.10001" xlink:href="#q"/>
  <use x="172.336" y="150.10001" xlink:href="#q"/>
  <use x="174.56" y="150.10001" xlink:href="#n"/>
  <use x="178.112" y="150.10001" xlink:href="#q"/>
  <use x="182.60001" y="150.10001" xlink:href="#p"/>
  <use x="184.82401" y="150.10001" xlink:href="#ag"/>
  <use x="188.82401" y="150.10001" xlink:href="#v"/>
  <use x="191.048" y="150.10001" xlink:href="#n"/>
  <use x="194.60001" y="150.10001" xlink:href="#w"/>
  <use x="197.71201" y="150.10001" xlink:href="#af"/>
  <use x="199.936" y="150.10001" xlink:href="#r"/>
  <use x="203.936" y="150.10001" xlink:href="#an"/>
  <use x="207.48801" y="150.10001" xlink:href="#n"/>
  <use x="171.39999" y="162.10001" xlink:href="#am"/>
  <use x="175.39999" y="162.10001" xlink:href="#al"/>
  <use x="181.8" y="162.10001" xlink:href="#ak"/>
  <use x="185.8" y="162.10001" xlink:href="#p"/>
  <use x="188.024" y="162.10001" xlink:href="#v"/>
  <use x="190.248" y="162.10001" xlink:href="#aj"/>
  <use x="195.7" y="162.10001" xlink:href="#ai"/>
  <use x="201.036" y="162.10001" xlink:href="#p"/>
  <use x="203.25999" y="162.10001" xlink:href="#ah"/>
  <use x="207.25999" y="162.10001" xlink:href="#n"/>
 </g>
</svg>
