<svg width="29700" height="11000" fill-rule="evenodd" preserveAspectRatio="xMidYMid" version="1.1" viewBox="0 0 29700 11000" xmlns="http://www.w3.org/2000/svg">
 <g transform="translate(0 -4859.8)">
  <desc>Slide</desc>
  <g>
   <desc>Drawing</desc>
   <g>
    <path d="m500 7783h4641v100h-4641v-50z"/>
    <path d="m5681 7833-675-225v450z"/>
   </g>
  </g>
  <g>
   <desc>Drawing</desc>
   <g>
    <path d="m500 9079h4641v100h-4641v-50z"/>
    <path d="m5681 9129-675-225v450z"/>
   </g>
  </g>
  <g>
   <desc>Drawing</desc>
   <g>
    <path d="m500 10374h4641v100h-4641v-50z"/>
    <path d="m5681 10424-675-225v450z"/>
   </g>
  </g>
  <g>
   <desc>Drawing</desc>
   <g>
    <path d="m500 11669h4641v100h-4641v-50z"/>
    <path d="m5681 11719-675-225v450z"/>
   </g>
  </g>
  <g>
   <desc>Drawing</desc>
   <g>
    <path d="m500 12965h4641v100h-4641v-50z"/>
    <path d="m5681 13015-675-225v450z"/>
   </g>
  </g>
  <g>
   <desc>Drawing</desc>
   <g>
    <g>
     <path fill="#ffffff" d="m17966 10398 5907-5030v10059z"/>
    </g>
    <g>
     <path d="m17934 10436c-11-9-18-23-18-38s7-29 18-38l32 38z"/>
     <path d="m17934 10360 5907-5030 64 76-5907 5030-32-38z"/>
     <path d="m23841 5330c8-8 20-12 32-12 28 0 50 22 50 50h-50z"/>
     <path d="m23923 5368v10059h-100v-10059h50z"/>
     <path d="m23923 15427c0 28-22 50-50 50-12 0-24-4-32-12l32-38z"/>
     <path d="m23841 15465-5907-5029 64-76 5907 5029-32 38z"/>
     <path d="m17966 15427"/>
     <path d="m23874 5368"/>
    </g>
   </g>
  </g>
  <g>
   <desc>Drawing</desc>
   <g>
    <path d="m10864 10170h5865v500h-5865v-250z"/>
    <path d="m17989 10420-1575-525v1050z"/>
   </g>
  </g>
  <g>
   <desc>Drawing</desc>
   <g>
    <g>
     <path fill="#ffffff" d="m11716 10366-5905 5029v-10057z"/>
    </g>
    <g>
     <path d="m11748 10328c11 9 18 23 18 38s-7 29-18 38l-32-38z"/>
     <path d="m11748 10404-5905 5029-64-76 5905-5029 32 38z"/>
     <path d="m5843 15433c-8 8-20 12-32 12-28 0-50-22-50-50h50z"/>
     <path d="m5761 15395v-10057h100v10057h-50z"/>
     <path d="m5761 5338c0-28 22-50 50-50 12 0 24 4 32 12l-32 38z"/>
     <path d="m5843 5300 5905 5028-64 76-5905-5028 32-38z"/>
     <path d="m11716 5338"/>
     <path d="m5811 15396"/>
    </g>
   </g>
  </g>
  <g>
   <desc>Drawing</desc>
   <g>
    <path d="m23819 7779h4641v100h-4641v-50z"/>
    <path d="m29000 7829-675-225v450z"/>
   </g>
  </g>
  <g>
   <desc>Drawing</desc>
   <g>
    <path d="m23819 9075h4641v100h-4641v-50z"/>
    <path d="m29000 9125-675-225v450z"/>
   </g>
  </g>
  <g>
   <desc>Drawing</desc>
   <g>
    <path d="m23819 10370h4641v100h-4641v-50z"/>
    <path d="m29000 10420-675-225v450z"/>
   </g>
  </g>
  <g>
   <desc>Drawing</desc>
   <g>
    <path d="m23819 11666h4641v100h-4641v-50z"/>
    <path d="m29000 11716-675-225v450z"/>
   </g>
  </g>
  <g>
   <desc>Drawing</desc>
   <g>
    <path d="m23819 12961h4641v100h-4641v-50z"/>
    <path d="m29000 13011-675-225v450z"/>
   </g>
  </g>
 </g>
</svg>
