<svg width="370" height="100" version="1.1" viewBox="0 0 370 100" xmlns="http://www.w3.org/2000/svg" xmlns:xlink="http://www.w3.org/1999/xlink">
 <defs>
  <g id="k">
   <path d="m3.2344 0h1.125v-5.8281h-1.125v2.0625c-.28125-.42188-.64062-.625-1.1875-.625-1.0312 0-1.8125.98438-1.8125 2.2969 0 .57812.17188 1.1719.46875 1.5938.28125.42188.8125.6875 1.3438.6875.54688 0 .90625-.20312 1.1875-.625zm-.9375-3.4531c.5625 0 .9375.54688.9375 1.375 0 .78125-.375 1.3281-.9375 1.3281s-.9375-.54688-.9375-1.3438c0-.8125.375-1.3594.9375-1.3594z"/>
  </g>
  <g id="b">
   <path d="m4.1875-.14062c-.1875-.17188-.25-.3125-.25-.51562v-2.4062c0-.875-.59375-1.3281-1.7656-1.3281s-1.7812.5-1.8594 1.5h1.0938c.046875-.45312.23438-.59375.78125-.59375.4375 0 .65625.14062.65625.42188 0 .15625-.078125.26562-.20312.34375-.14062.078125-.14062.078125-.70312.17188l-.4375.078125c-.85938.14062-1.2812.57812-1.2812 1.3594 0 .76562.53125 1.2969 1.3125 1.2969.48438 0 .92188-.20312 1.3125-.625 0 .23438.03125.3125.125.4375h1.2188zm-1.3438-1.5938c0 .64062-.32812 1.0156-.89062 1.0156-.375 0-.60938-.20312-.60938-.51562 0-.34375.17188-.5.64062-.59375l.39062-.078125c.28125-.046875.34375-.0625.46875-.14062z"/>
  </g>
  <g id="j">
   <path d="m2.4062-4.2344h-.625v-1.1562h-1.125v1.1562h-.54688v.75h.54688v2.6562c0 .67188.375 1.0156 1.1094 1.0156.25 0 .4375-.03125.64062-.09375v-.78125c-.10938.015625-.17188.03125-.25.03125-.29688 0-.375-.09375-.375-.48438v-2.3438h.625z"/>
  </g>
  <g id="i">
   <path d="m.46875-5.8281v5.8281h1.125v-.4375c.26562.42188.64062.625 1.1875.625 1.0312 0 1.8125-.98438 1.8125-2.2969 0-.57812-.17188-1.1719-.45312-1.5938-.29688-.42188-.82812-.6875-1.3594-.6875-.54688 0-.92188.20312-1.1875.625v-2.0625zm2.0625 2.375c.5625 0 .95312.5625.95312 1.3594s-.39062 1.3438-.95312 1.3438-.9375-.53125-.9375-1.375c0-.78125.375-1.3281.9375-1.3281z"/>
  </g>
  <g id="h">
   <path d="m4.3281 0v-4.3125h-1.125v2.7031c0 .5-.34375.84375-.90625.84375-.46875 0-.71875-.26562-.71875-.78125v-2.7656h-1.1094v3c0 .95312.51562 1.5 1.4375 1.5.59375 0 .98438-.21875 1.2969-.70312v.51562z"/>
  </g>
  <g id="a">
   <path d="m2.5-4.2344h-.65625v-.42188c0-.21875.09375-.32812.29688-.32812.10938 0 .21875 0 .32812.015625v-.84375c-.25-.015625-.48438-.015625-.64062-.015625-.75 0-1.1094.34375-1.1094 1.0781v.51562h-.60938v.75h.60938v3.4844h1.125v-3.4844h.65625z"/>
  </g>
  <g id="g">
   <path d="m4.1875-1.8125c.015625-.09375.015625-.125.015625-.1875 0-.4375-.0625-.82812-.17188-1.1406-.28125-.78125-.98438-1.25-1.8594-1.25-1.2344 0-2 .89062-2 2.3438 0 1.3906.75 2.2344 1.9844 2.2344.96875 0 1.75-.54688 2-1.4062h-1.1094c-.14062.34375-.45312.54688-.85938.54688-.3125 0-.57812-.14062-.73438-.375-.09375-.15625-.14062-.35938-.15625-.76562zm-2.875-.73438c.078125-.67188.34375-.98438.84375-.98438.51562 0 .8125.34375.875.98438z"/>
  </g>
  <g id="f">
   <path d="m.5-4.3125v4.3125h1.125v-2.2969c0-.65625.32812-.98438.98438-.98438.125 0 .20312.015625.34375.03125v-1.1406h-.125c-.51562 0-.95312.32812-1.2031.92188v-.84375z"/>
  </g>
  <g id="aa">
   <path d="m1.9062-3.9062v3.9062h1.125v-5.6719h-.75c-.17188.67188-.76562 1.0156-1.7344 1.0156v.75z"/>
  </g>
  <g id="ac">
   <path d="m4.0938-1h-2.4062c.15625-.29688.32812-.46875 1.1562-1.0781.98438-.71875 1.2812-1.1406 1.2812-1.9062 0-1.1094-.76562-1.8125-1.9531-1.8125-1.1719 0-1.8594.70312-1.8594 1.9062v.1875h1.0781v-.17188c0-.64062.29688-1 .8125-1 .5 0 .79688.34375.79688.90625 0 .625-.1875.85938-1.4531 1.7656-.96875.65625-1.2656 1.1406-1.3125 2.2031h3.8594z"/>
  </g>
  <g id="ab">
   <path d="m1.7344-2.5312c.4375 0 .45312 0 .65625.046875.375.10938.625.4375.625.85938 0 .5-.35938.84375-.84375.84375-.53125 0-.8125-.29688-.85938-.875h-1.0781c0 1.125.73438 1.8438 1.9062 1.8438 1.2188 0 1.9844-.71875 1.9844-1.8125 0-.67188-.28125-1.1094-.92188-1.4219.51562-.32812.73438-.6875.73438-1.2031 0-.9375-.70312-1.5469-1.7969-1.5469-.82812 0-1.4531.35938-1.7031.98438-.09375.26562-.14062.45312-.14062.92188h1.0469c.015625-.29688.03125-.45312.09375-.59375.09375-.25.35938-.40625.6875-.40625.4375 0 .70312.28125.70312.75 0 .57812-.32812.85938-1 .85938h-.09375z"/>
  </g>
  <g id="n">
   <path d="m1.6094-2.0156h1.2031c.45312 0 .65625.17188.65625.59375v.20312c-.015625.14062-.015625.26562-.015625.34375 0 .48438.03125.625.15625.875h1.125v-.1875c-.15625-.09375-.21875-.20312-.21875-.42188-.03125-1.5-.0625-1.5781-.70312-1.8594.5625-.21875.85938-.625.85938-1.25 0-.40625-.14062-.78125-.39062-1.0312-.23438-.23438-.54688-.35938-.98438-.35938h-2.7344v5.1094h1.0469zm0-.875v-1.3438h1.2656c.29688 0 .42188.03125.5625.14062.125.10938.1875.28125.1875.51562 0 .25-.0625.4375-.1875.54688-.125.09375-.26562.14062-.5625.14062z"/>
  </g>
  <g id="z">
   <path d="m5.1094 0 1.4219-5.1094h-1.125l-.76562 3.8281-.8125-3.8281h-1.0469l-.78125 3.8281-.79688-3.8281h-1.1094l1.4375 5.1094h.95312l.82812-3.9844.85938 3.9844z"/>
  </g>
  <g id="m">
   <path d="m1.6719-3.4219v3.4219h.96875v-4.9688h-.64062c-.15625.59375-.67188.89062-1.5312.89062v.65625z"/>
  </g>
  <g id="y">
   <path d="m3.7031-4.9688h-3.5v.875h2.4688c-.29688.32812-.89062 1.2344-1.0938 1.6719-.34375.71875-.51562 1.3594-.64062 2.4219h.98438c.09375-1.5625.59375-2.7656 1.7812-4.1875z"/>
  </g>
  <g id="x">
   <path d="m3.5781-.875h-2.0938c.125-.26562.28125-.40625 1-.9375.875-.625 1.125-1 1.125-1.6875 0-.95312-.67188-1.5625-1.7031-1.5625s-1.6406.60938-1.6406 1.6562v.17188h.95312v-.15625c0-.5625.26562-.875.70312-.875s.70312.29688.70312.79688c0 .54688-.17188.75-1.2812 1.5312-.82812.57812-1.0938 1.0156-1.1406 1.9375h3.375z"/>
  </g>
  <g id="w">
   <path d="m.26562-1.1562c.015625.76562.67188 1.3281 1.5156 1.3281.64062 0 1.125-.26562 1.4219-.78125.25-.4375.40625-1.1875.40625-1.9844 0-.71875-.10938-1.2812-.34375-1.6562-.3125-.53125-.79688-.8125-1.3906-.8125-1 0-1.6719.70312-1.6719 1.75 0 1.0156.59375 1.7188 1.4844 1.7188.25 0 .48438-.078125.64062-.1875.09375-.0625.14062-.125.29688-.3125 0 .96875-.26562 1.4219-.8125 1.4219-.34375 0-.57812-.1875-.59375-.48438zm1.5781-3.1094c.46875 0 .76562.35938.76562.95312 0 .54688-.29688.90625-.75.90625s-.73438-.35938-.73438-.92188c0-.57812.28125-.9375.71875-.9375z"/>
  </g>
  <g id="v">
   <path d="m3.5469-3.8438c-.046875-.3125-.10938-.46875-.23438-.65625-.26562-.35938-.71875-.5625-1.25-.5625-.625 0-1.125.26562-1.4219.76562-.29688.48438-.42188 1.0312-.42188 1.9375 0 .85938.10938 1.3906.35938 1.7812.29688.46875.8125.73438 1.3906.73438 1 0 1.6719-.73438 1.6719-1.8125 0-.95312-.59375-1.6094-1.4531-1.6094-.40625 0-.67188.10938-.98438.4375l.015625-.10938c0-.45312.03125-.60938.09375-.79688.14062-.35938.375-.54688.71875-.54688.3125 0 .48438.125.60938.4375zm-1.5938 1.3594c.45312 0 .75.34375.75.89062 0 .53125-.32812.92188-.75.92188-.45312 0-.76562-.375-.76562-.90625s.3125-.90625.76562-.90625z"/>
  </g>
  <g id="l">
   <path d="m3.7188-.875-.23438.21875c-.25.25-.34375.32812-.40625.32812s-.125-.046875-.125-.10938c0-.15625.34375-1.5312.71875-2.9062.03125-.078125.03125-.09375.046875-.15625l-.0625-.03125-.48438.0625-.015625.015625-.09375.39062c-.0625-.29688-.29688-.46875-.64062-.46875-1.0625 0-2.2812 1.4531-2.2812 2.7344 0 .5625.29688.89062.8125.89062.5625 0 .90625-.26562 1.6094-1.2656-.17188.65625-.1875.71875-.1875.92188 0 .23438.09375.32812.32812.32812.3125 0 .5-.15625 1.1094-.875zm-1.25-2.4844c.28125.015625.45312.21875.45312.5 0 .67188-.40625 1.6094-.95312 2.2031-.1875.21875-.46875.35938-.70312.35938-.28125 0-.45312-.23438-.45312-.59375 0-.45312.29688-1.2656.64062-1.7656.32812-.46875.6875-.71875 1.0156-.70312z"/>
  </g>
  <g id="e">
   <path d="m3.7031-.89062c-.4375.5-.51562.57812-.65625.57812-.078125 0-.14062-.078125-.14062-.17188 0-.125.25-1.0625.51562-1.9688.1875-.64062.34375-1.2188.79688-2.9688l-.046875-.046875c-.40625.09375-.70312.14062-1.2188.1875v.14062c.4375.015625.5.03125.5.20312 0 .10938-.015625.14062-.125.5625l-.35938 1.3125c-.0625-.34375-.20312-.46875-.51562-.46875-1.0312 0-2.3281 1.5-2.3281 2.7031 0 .57812.3125.92188.82812.92188.54688 0 .90625-.26562 1.4531-1.0625-.09375.40625-.10938.53125-.10938.71875 0 .20312.14062.35938.32812.35938.34375 0 .76562-.32812 1.1719-.92188zm-1.2188-2.4531c.25.015625.35938.17188.35938.45312 0 1.2188-.82812 2.5938-1.5625 2.5938-.28125 0-.46875-.20312-.46875-.53125 0-.65625.40625-1.5938.9375-2.1406.21875-.23438.51562-.39062.73438-.375z"/>
  </g>
  <g id="s">
   <path d="m.96875 0c.42188-1.375.54688-1.7031.92188-2.3125.26562-.45312.48438-.70312.625-.70312.046875 0 .078125.046875.125.125.0625.125.125.17188.28125.17188.25 0 .375-.14062.375-.40625 0-.23438-.15625-.40625-.375-.40625-.1875 0-.40625.125-.60938.34375-.32812.34375-.65625.79688-.78125 1.125l-.10938.28125.42188-1.7344-.015625-.015625c-.59375.10938-.65625.125-1.25.21875v.14062c.1875-.03125.21875-.046875.28125-.046875.17188 0 .28125.078125.28125.23438 0 .10938 0 .10938-.125.64062l-.65625 2.3438z"/>
  </g>
  <g id="d">
   <path d="m2.8594-.875c-.57812.46875-.8125.60938-1.1719.60938-.45312 0-.75-.29688-.75-.73438 0-.125.015625-.23438.09375-.48438l.21875-.03125c1.2031-.17188 2.0469-.78125 2.0469-1.4688 0-.32812-.23438-.54688-.64062-.54688-1.1562 0-2.4062 1.3125-2.4062 2.5156 0 .65625.4375 1.1094 1.0469 1.1094.57812 0 1.1875-.32812 1.6562-.875zm-1.6406-1.1406c.26562-.71875.85938-1.3281 1.2656-1.3281.17188 0 .28125.125.28125.3125 0 .25-.15625.53125-.39062.78125-.29688.28125-.60938.42188-1.2969.59375z"/>
  </g>
  <g id="c">
   <path d="m.28125-1.1719-.15625 1.2812h.125c.078125-.14062.10938-.17188.20312-.17188.078125 0 .23438.03125.39062.078125.1875.046875.29688.078125.4375.078125.67188 0 1.1562-.4375 1.1562-1.0469 0-.3125-.17188-.65625-.54688-1.125-.3125-.375-.4375-.625-.4375-.84375 0-.26562.17188-.42188.45312-.42188.40625 0 .65625.29688.73438.92188h.125l.15625-1.1094h-.10938c-.0625.10938-.10938.14062-.23438.14062-.0625 0-.14062-.015625-.29688-.0625-.1875-.0625-.3125-.078125-.4375-.078125-.59375 0-.96875.34375-.96875.89062 0 .25.17188.59375.5 1.0312.3125.40625.45312.6875.45312.90625 0 .375-.25.625-.59375.625-.45312 0-.6875-.32812-.8125-1.0938z"/>
  </g>
  <g id="r">
   <path d="m.45312-3.2188.17188-.015625c.1875 0 .34375.09375.34375.21875 0 .10938-.28125 1.2188-.5625 2.2656-.1875.6875-.34375 1.2812-.46875 1.7969-.078125.35938-.1875.45312-.53125.46875v.125h1.6406v-.125c-.39062 0-.51562-.0625-.51562-.23438 0-.10938.125-.71875.29688-1.3281.20312.10938.34375.14062.53125.14062 1.1562 0 2.3906-1.3438 2.3906-2.625 0-.625-.34375-1-.92188-1-.51562 0-.90625.26562-1.3594.92188l.23438-.8125c0-.046875.015625-.0625.015625-.0625 0-.03125-.015625-.046875-.046875-.046875h-.015625l-1.2188.17188zm2.0781.03125c.34375.015625.5.23438.5.6875 0 .54688-.23438 1.2188-.57812 1.7188-.32812.48438-.71875.71875-1.1406.71875-.21875 0-.375-.125-.375-.29688 0-.26562.28125-1.3125.51562-1.9062.21875-.54688.6875-.9375 1.0781-.92188z"/>
  </g>
  <g id="q">
   <path d="m2.375-3.4219h-.64062l.21875-.82812v-.046875c0-.046875-.015625-.078125-.0625-.078125s-.0625.015625-.10938.078125c-.3125.40625-.8125.8125-1.0625.875-.20312.0625-.26562.125-.26562.20312 0 .015625 0 .03125.015625.046875h.59375l-.57812 2.2031c-.015625.078125-.03125.10938-.046875.17188-.078125.26562-.14062.51562-.14062.59375 0 .15625.17188.29688.39062.29688.35938 0 .625-.23438 1.125-.96875l-.09375-.0625c-.40625.5-.53125.64062-.65625.64062-.078125 0-.125-.0625-.125-.17188l.015625-.03125.70312-2.6719h.67188z"/>
  </g>
  <g id="p">
   <path d="m2.5938-3.5312c-.34375 0-.65625.09375-.98438.26562-.8125.46875-1.3906 1.3906-1.3906 2.2344 0 .6875.4375 1.125 1.1719 1.125.53125 0 1.0469-.23438 1.5-.70312.53125-.51562.85938-1.1875.85938-1.7969 0-.67188-.46875-1.125-1.1562-1.125zm-.09375.17188c.34375 0 .57812.29688.57812.75 0 .59375-.26562 1.3906-.625 1.9062-.29688.42188-.59375.625-.9375.625-.375 0-.625-.29688-.625-.73438 0-.59375.23438-1.2969.625-1.8594.3125-.45312.64062-.6875.98438-.6875z"/>
  </g>
  <g id="o">
   <path d="m.17188-3.2188c.078125-.015625.14062-.015625.23438-.015625.3125 0 .39062.14062.5.875.09375.5625.1875 1.7344.1875 2.2188 0 .23438 0 .28125.0625.28125.20312 0 .9375-.8125 1.7656-1.9844.28125-.39062.48438-.90625.48438-1.2188 0-.25-.20312-.46875-.45312-.46875-.17188 0-.29688.10938-.29688.28125 0 .125.0625.21875.20312.34375.09375.09375.14062.15625.14062.25 0 .375-.51562 1.25-1.0938 1.8438l-.25.25c-.0625-1.125-.10938-1.5469-.20312-2.1406-.17188-.8125-.17188-.82812-.23438-.82812-.046875 0-.09375.015625-.15625.03125-.14062.03125-.625.125-.89062.17188z"/>
  </g>
  <g id="u">
   <path d="m1.7812-.90625c-.20312.26562-.25.32812-.32812.40625-.14062.125-.26562.21875-.32812.21875s-.14062-.0625-.14062-.125c0-.078125.03125-.20312.09375-.35938l.03125-.14062.015625-.015625v-.015625l.70312-2.5781-.03125-.015625c-.8125.15625-.96875.17188-1.2812.20312v.125c.4375.015625.51562.03125.51562.1875 0 .078125-.03125.20312-.078125.35938l-.39062 1.4219c-.125.46875-.17188.70312-.17188.85938 0 .29688.125.46875.375.46875.375 0 .65625-.25 1.1094-.92188zm-.0625-4.3281c-.21875 0-.375.17188-.375.42188 0 .26562.14062.42188.375.42188.20312 0 .39062-.17188.39062-.40625s-.1875-.4375-.39062-.4375z"/>
  </g>
  <g id="t">
   <path d="m2.7969-.84375c-.4375.46875-.75.64062-1.1406.64062-.45312 0-.73438-.32812-.73438-.90625 0-.6875.28125-1.4062.73438-1.8594.23438-.25.54688-.39062.875-.39062.1875 0 .29688.0625.29688.15625 0 .046875-.015625.078125-.046875.15625-.0625.10938-.078125.15625-.078125.23438 0 .1875.125.29688.3125.29688.21875 0 .39062-.14062.39062-.35938 0-.375-.35938-.65625-.84375-.65625-1.2031 0-2.3281 1.1719-2.3281 2.4219 0 .75.4375 1.2031 1.1875 1.2031.59375 0 1.0156-.25 1.5-.85938z"/>
  </g>
 </defs>
 <g fill="none" stroke="#000" stroke-linecap="round" stroke-miterlimit="10" stroke-width=".66667">
  <path d="m4.7213 88.353v-28.801"/>
  <path d="m4.7213 59.552h108"/>
  <path d="m112.72 59.552v28.801"/>
  <path d="m112.72 88.353h-108"/>
 </g>
 <g transform="translate(-103.28 -48.749)" fill="#ff6600">
  <use x="138" y="125.8" xlink:href="#k"/>
  <use x="142.888" y="125.8" xlink:href="#b"/>
  <use x="147.336" y="125.8" xlink:href="#j"/>
  <use x="150" y="125.8" xlink:href="#b"/>
  <use x="156.7" y="125.8" xlink:href="#i"/>
  <use x="161.588" y="125.8" xlink:href="#h"/>
  <use x="166.476" y="125.8" xlink:href="#a"/>
  <use x="169.14" y="125.8" xlink:href="#a"/>
  <use x="171.804" y="125.8" xlink:href="#g"/>
  <use x="176.252" y="125.8" xlink:href="#f"/>
  <use x="181.5" y="125.8" xlink:href="#aa"/>
 </g>
 <g fill="none" stroke="#000" stroke-linecap="round" stroke-miterlimit="10" stroke-width=".66667">
  <path d="m130.72 88.353v-28.801"/>
  <path d="m130.72 59.552h108"/>
  <path d="m238.72 59.552v28.801"/>
  <path d="m238.72 88.353h-108"/>
 </g>
 <g transform="translate(-103.28 -48.749)" fill="#ff6600">
  <use x="264" y="125.8" xlink:href="#k"/>
  <use x="268.888" y="125.8" xlink:href="#b"/>
  <use x="273.336" y="125.8" xlink:href="#j"/>
  <use x="276" y="125.8" xlink:href="#b"/>
  <use x="282.70001" y="125.8" xlink:href="#i"/>
  <use x="287.58801" y="125.8" xlink:href="#h"/>
  <use x="292.47601" y="125.8" xlink:href="#a"/>
  <use x="295.14001" y="125.8" xlink:href="#a"/>
  <use x="297.80399" y="125.8" xlink:href="#g"/>
  <use x="302.25201" y="125.8" xlink:href="#f"/>
  <use x="307.5" y="125.8" xlink:href="#ac"/>
 </g>
 <g fill="none" stroke="#000" stroke-linecap="round" stroke-miterlimit="10" stroke-width=".66667">
  <path d="m256.72 88.353v-28.801"/>
  <path d="m256.72 59.552h108"/>
  <path d="m364.72 59.552v28.801"/>
  <path d="m364.72 88.353h-108"/>
 </g>
 <g transform="translate(-103.28 -48.749)" fill="#ff6600">
  <use x="390" y="125.8" xlink:href="#k"/>
  <use x="394.888" y="125.8" xlink:href="#b"/>
  <use x="399.336" y="125.8" xlink:href="#j"/>
  <use x="402" y="125.8" xlink:href="#b"/>
  <use x="408.70001" y="125.8" xlink:href="#i"/>
  <use x="413.58801" y="125.8" xlink:href="#h"/>
  <use x="418.47601" y="125.8" xlink:href="#a"/>
  <use x="421.14001" y="125.8" xlink:href="#a"/>
  <use x="423.80399" y="125.8" xlink:href="#g"/>
  <use x="428.25201" y="125.8" xlink:href="#f"/>
  <use x="433.49997" y="125.8" xlink:href="#ab"/>
 </g>
 <g fill="none" stroke="#000" stroke-linecap="round" stroke-miterlimit="10">
  <g stroke-width=".66667">
   <path d="m163.12 23.552v-9.3008"/>
   <path d="m163.12 14.251h43.203"/>
   <path d="m206.32 14.251v9.3008"/>
   <path d="m206.32 23.552h-43.203"/>
   <path d="m98.323 23.552v-9.3008"/>
   <path d="m98.323 14.251h43.199"/>
   <path d="m141.52 14.251v9.3008"/>
   <path d="m141.52 23.552h-43.199"/>
   <path d="m227.92 23.552v-9.3008"/>
   <path d="m227.92 14.251h43.199"/>
   <path d="m271.12 14.251v9.3008"/>
   <path d="m271.12 23.552h-43.199"/>
  </g>
  <g stroke-width=".41667">
   <path d="m119.92 14.251v9.3008"/>
   <path d="m184.72 14.251v9.3008"/>
   <path d="m249.52 14.251v9.3008"/>
  </g>
  <g stroke-width=".66667">
   <path d="m98.323 23.552v-9.3008"/>
   <path d="m98.323 14.251h10.797"/>
   <path d="m109.12 14.251v9.3008"/>
   <path d="m109.12 23.552h-10.797"/>
   <path d="m109.12 23.552v-9.3008"/>
   <path d="m109.12 14.251h10.801"/>
   <path d="m119.92 14.251v9.3008"/>
   <path d="m119.92 23.552h-10.801"/>
   <path d="m119.92 23.552v-9.3008"/>
   <path d="m119.92 14.251h10.801"/>
   <path d="m130.72 14.251v9.3008"/>
   <path d="m130.72 23.552h-10.801"/>
   <path d="m130.72 23.552v-9.3008"/>
   <path d="m130.72 14.251h10.801"/>
   <path d="m141.52 14.251v9.3008"/>
   <path d="m141.52 23.552h-10.801"/>
   <path d="m163.12 23.552v-9.3008"/>
   <path d="m163.12 14.251h10.801"/>
   <path d="m173.92 14.251v9.3008"/>
   <path d="m173.92 23.552h-10.801"/>
   <path d="m173.92 23.552v-9.3008"/>
   <path d="m173.92 14.251h10.801"/>
   <path d="m184.72 14.251v9.3008"/>
   <path d="m184.72 23.552h-10.801"/>
   <path d="m184.72 23.552v-9.3008"/>
   <path d="m184.72 14.251h10.801"/>
   <path d="m195.52 14.251v9.3008"/>
   <path d="m195.52 23.552h-10.801"/>
   <path d="m195.52 23.552v-9.3008"/>
   <path d="m195.52 14.251h10.801"/>
   <path d="m206.32 14.251v9.3008"/>
   <path d="m206.32 23.552h-10.801"/>
   <path d="m227.92 23.552v-9.3008"/>
   <path d="m227.92 14.251h10.801"/>
   <path d="m238.72 14.251v9.3008"/>
   <path d="m238.72 23.552h-10.801"/>
   <path d="m238.72 23.552v-9.3008"/>
   <path d="m238.72 14.251h10.801"/>
   <path d="m249.52 14.251v9.3008"/>
   <path d="m249.52 23.552h-10.801"/>
   <path d="m249.52 23.552v-9.3008"/>
   <path d="m249.52 14.251h10.801"/>
   <path d="m260.32 14.251v9.3008"/>
   <path d="m260.32 23.552h-10.801"/>
  </g>
 </g>
 <g transform="translate(-103.28 -48.749)" fill="#00ff00">
  <use x="204.5" y="70.099998" xlink:href="#n"/>
  <use x="268.50003" y="70.099998" xlink:href="#z"/>
  <use x="334.10004" y="70.099998" xlink:href="#n"/>
  <use x="213.89999" y="70.099998" xlink:href="#m"/>
  <use x="217.79201" y="70.099998" xlink:href="#y"/>
  <use x="278.69998" y="70.099998" xlink:href="#x"/>
  <use x="282.59198" y="70.099998" xlink:href="#w"/>
  <use x="343.49997" y="70.099998" xlink:href="#v"/>
  <use x="347.39197" y="70.099998" xlink:href="#m"/>
 </g>
 <g fill="none" stroke="#000" stroke-linecap="round" stroke-miterlimit="10">
  <path d="m262.92 21.251 2.6016-4.6016" stroke-width=".83333"/>
  <path d="m265.72 16.552 2.6016 4.5977" stroke-width=".83333"/>
  <path d="m125.32 18.853c0-.05469-.0469-.10156-.10156-.10156-.0547 0-.10157.04687-.10157.10156 0 .05469.0469.09766.10157.09766.0547 0 .10156-.04297.10156-.09766" stroke-width=".66667"/>
  <path d="m126.62 18.853c0-.77344-.625-1.4023-1.3984-1.4023-.77344 0-1.3984.62891-1.3984 1.4023 0 .76953.625 1.3984 1.3984 1.3984.77343 0 1.3984-.62891 1.3984-1.3984"/>
  <path d="m136.12 18.853c0-.05469-.043-.10156-.0976-.10156-.0547 0-.10157.04687-.10157.10156 0 .05469.0469.09766.10157.09766.0547 0 .0976-.04297.0976-.09766" stroke-width=".66667"/>
  <path d="m137.42 18.853c0-.77344-.625-1.4023-1.3984-1.4023-.77344 0-1.4024.62891-1.4024 1.4023 0 .76953.62891 1.3984 1.4024 1.3984.77343 0 1.3984-.62891 1.3984-1.3984"/>
  <path d="m190.12 18.853c0-.05469-.043-.10156-.0976-.10156-.0547 0-.10157.04687-.10157.10156 0 .05469.0469.09766.10157.09766.0547 0 .0976-.04297.0976-.09766" stroke-width=".66667"/>
  <path d="m191.42 18.853c0-.77344-.625-1.4023-1.3984-1.4023-.77344 0-1.4024.62891-1.4024 1.4023 0 .76953.62891 1.3984 1.4024 1.3984.77343 0 1.3984-.62891 1.3984-1.3984"/>
  <path d="m200.92 18.853c0-.05469-.043-.10156-.0977-.10156s-.10156.04687-.10156.10156c0 .05469.0469.09766.10156.09766.0547 0 .0977-.04297.0977-.09766" stroke-width=".66667"/>
  <path d="m202.22 18.853c0-.77344-.62891-1.4023-1.3984-1.4023-.77344 0-1.4024.62891-1.4024 1.4023 0 .76953.62891 1.3984 1.4024 1.3984.76953 0 1.3984-.62891 1.3984-1.3984"/>
  <path d="m254.92 18.853c0-.05469-.043-.10156-.0976-.10156-.0547 0-.10156.04687-.10156.10156 0 .05469.0469.09766.10156.09766.0547 0 .0976-.04297.0976-.09766" stroke-width=".66667"/>
  <path d="m256.22 18.853c0-.77344-.62891-1.4023-1.3984-1.4023-.77344 0-1.4024.62891-1.4024 1.4023 0 .76953.62891 1.3984 1.4024 1.3984.76953 0 1.3984-.62891 1.3984-1.3984"/>
  <g stroke-width=".66667">
   <path d="m136.12 18.853h27"/>
   <path d="m155.92 20.65 7.1992-1.7969"/>
   <path d="m155.72 20.15 7.3008-1.1992"/>
   <path d="m155.62 19.451 7.4024-.5"/>
   <path d="m155.62 18.853h7.4024"/>
   <path d="m155.62 18.353 7.4024.5"/>
   <path d="m155.72 17.65 7.3008 1.2031"/>
   <path d="m155.92 17.052 7.1992 1.8008"/>
   <path d="m200.92 18.853h27"/>
   <path d="m220.72 20.65 7.1992-1.7969"/>
   <path d="m220.52 20.15 7.3008-1.1992"/>
   <path d="m220.42 19.451 7.4024-.5"/>
   <path d="m220.42 18.853h7.4024"/>
   <path d="m220.42 18.353 7.4024.5"/>
   <path d="m220.52 17.65 7.3008 1.2031"/>
   <path d="m220.72 17.052 7.1992 1.8008"/>
   <path d="m125.32 18.853v17.199"/>
   <path d="m119.92 41.552c2.9844 0 5.4024-2.418 5.4024-5.4023"/>
   <path d="m119.92 41.552h-99"/>
   <path d="m20.921 41.552c-2.9805 0-5.3984 2.418-5.3984 5.3984"/>
   <path d="m15.522 46.951v12.602"/>
   <path d="m13.721 52.353 1.8008 7.1992"/>
   <path d="m14.221 52.251 1.1992 7.3008"/>
   <path d="m14.921 52.15.5 7.4023"/>
   <path d="m15.522 52.15v7.4023"/>
   <path d="m16.022 52.15-.5 7.4023"/>
   <path d="m16.721 52.251-1.1992 7.3008"/>
   <path d="m17.323 52.353-1.8008 7.1992"/>
   <path d="m190.12 18.853v17.199"/>
   <path d="m184.72 41.552c2.9805 0 5.3984-2.418 5.3984-5.4023"/>
   <path d="m184.72 41.552h-37.801"/>
   <path d="m146.92 41.552c-2.9805 0-5.3984 2.418-5.3984 5.3984"/>
   <path d="m141.52 46.951v12.602"/>
   <path d="m139.72 52.353 1.8008 7.1992"/>
   <path d="m140.22 52.251 1.1992 7.3008"/>
   <path d="m140.92 52.15.5 7.4023"/>
   <path d="m141.52 52.15v7.4023"/>
   <path d="m142.02 52.15-.5 7.4023"/>
   <path d="m142.72 52.251-1.1992 7.3008"/>
   <path d="m143.32 52.353-1.8008 7.1992"/>
   <path d="m254.92 18.853v17.199"/>
   <path d="m254.92 36.15c0 2.9844 2.418 5.4023 5.4024 5.4023"/>
   <path d="m260.32 41.552h1.7969"/>
   <path d="m267.52 46.951c0-2.9805-2.418-5.3984-5.4024-5.3984"/>
   <path d="m267.52 46.951v12.602"/>
   <path d="m265.72 52.353 1.8008 7.1992"/>
   <path d="m266.22 52.251 1.1992 7.3008"/>
   <path d="m266.92 52.15.5 7.4023"/>
   <path d="m267.52 52.15v7.4023"/>
   <path d="m268.02 52.15-.5 7.4023"/>
   <path d="m268.72 52.251-1.1992 7.3008"/>
   <path d="m269.32 52.353-1.8008 7.1992"/>
  </g>
  <g stroke-width=".25">
   <path d="m69.522 18.853h25.199"/>
   <path d="m87.522 20.65 7.1992-1.7969"/>
   <path d="m87.323 20.15 7.2969-1.1992"/>
   <path d="m87.221 19.451 7.3984-.5"/>
   <path d="m87.221 18.853h7.3984"/>
   <path d="m87.221 18.353 7.3984.5"/>
   <path d="m87.323 17.65 7.2969 1.2031"/>
   <path d="m87.522 17.052 7.1992 1.8008"/>
  </g>
 </g>
 <g transform="translate(-103.28 -48.749)">
  <use x="118.5" y="64.699997" xlink:href="#l"/>
  <use x="122.5" y="64.699997" xlink:href="#e"/>
  <use x="126.5" y="64.699997" xlink:href="#e"/>
  <use x="130.5" y="64.699997" xlink:href="#s"/>
  <use x="133.612" y="64.699997" xlink:href="#d"/>
  <use x="137.164" y="64.699997" xlink:href="#c"/>
  <use x="140.276" y="64.699997" xlink:href="#c"/>
  <use x="145.7" y="64.699997" xlink:href="#r"/>
  <use x="149.7" y="64.699997" xlink:href="#l"/>
  <use x="153.7" y="64.699997" xlink:href="#c"/>
  <use x="156.812" y="64.699997" xlink:href="#c"/>
  <use x="159.924" y="64.699997" xlink:href="#d"/>
  <use x="163.476" y="64.699997" xlink:href="#e"/>
  <use x="138.60001" y="73.699997" xlink:href="#q"/>
  <use x="140.82401" y="73.699997" xlink:href="#p"/>
  <use x="147.2" y="73.699997" xlink:href="#e"/>
  <use x="151.2" y="73.699997" xlink:href="#d"/>
  <use x="154.752" y="73.699997" xlink:href="#o"/>
  <use x="158.304" y="73.699997" xlink:href="#u"/>
  <use x="160.528" y="73.699997" xlink:href="#t"/>
  <use x="164.08" y="73.699997" xlink:href="#d"/>
 </g>
</svg>
