<svg width="295" height="50" version="1.1" viewBox="0 0 295 50" xmlns="http://www.w3.org/2000/svg" xmlns:xlink="http://www.w3.org/1999/xlink">
 <defs>
  <g id="j">
   <path d="m2.4062-4.3906c-1.3125 0-2.125.875-2.125 2.2812 0 1.4219.8125 2.2969 2.1406 2.2969 1.3125 0 2.125-.875 2.125-2.2656 0-1.4531-.78125-2.3125-2.1406-2.3125zm.015625.90625c.60938 0 1.0156.54688 1.0156 1.3906 0 .8125-.42188 1.375-1.0156 1.375-.60938 0-1.0156-.54688-1.0156-1.3906 0-.82812.40625-1.375 1.0156-1.375z"/>
  </g>
  <g id="h">
   <path d="m1.5781-4.3125h-1.1094v6.0625h1.1094v-2.2656c.28125.48438.65625.70312 1.2031.70312 1.0469 0 1.8125-.96875 1.8125-2.2812 0-.60938-.17188-1.2188-.46875-1.625-.28125-.40625-.82812-.67188-1.3438-.67188-.54688 0-.92188.23438-1.2031.70312zm.95312.85938c.5625 0 .9375.54688.9375 1.375 0 .79688-.375 1.3281-.9375 1.3281-.57812 0-.95312-.53125-.95312-1.3438s.375-1.3594.95312-1.3594z"/>
  </g>
  <g id="a">
   <path d="m4.1875-1.8125c.015625-.09375.015625-.125.015625-.1875 0-.4375-.0625-.82812-.17188-1.1406-.28125-.78125-.98438-1.25-1.8594-1.25-1.2344 0-2 .89062-2 2.3438 0 1.3906.75 2.2344 1.9844 2.2344.96875 0 1.75-.54688 2-1.4062h-1.1094c-.14062.34375-.45312.54688-.85938.54688-.3125 0-.57812-.14062-.73438-.375-.09375-.15625-.14062-.35938-.15625-.76562zm-2.875-.73438c.078125-.67188.34375-.98438.84375-.98438.51562 0 .8125.34375.875.98438z"/>
  </g>
  <g id="f">
   <path d="m.5-4.3125v4.3125h1.125v-2.2969c0-.65625.32812-.98438.98438-.98438.125 0 .20312.015625.34375.03125v-1.1406h-.125c-.51562 0-.95312.32812-1.2031.92188v-.84375z"/>
  </g>
  <g id="b">
   <path d="m4.1875-.14062c-.1875-.17188-.25-.3125-.25-.51562v-2.4062c0-.875-.59375-1.3281-1.7656-1.3281s-1.7812.5-1.8594 1.5h1.0938c.046875-.45312.23438-.59375.78125-.59375.4375 0 .65625.14062.65625.42188 0 .15625-.078125.26562-.20312.34375-.14062.078125-.14062.078125-.70312.17188l-.4375.078125c-.85938.14062-1.2812.57812-1.2812 1.3594 0 .76562.53125 1.2969 1.3125 1.2969.48438 0 .92188-.20312 1.3125-.625 0 .23438.03125.3125.125.4375h1.2188zm-1.3438-1.5938c0 .64062-.32812 1.0156-.89062 1.0156-.375 0-.60938-.20312-.60938-.51562 0-.34375.17188-.5.64062-.59375l.39062-.078125c.28125-.046875.34375-.0625.46875-.14062z"/>
  </g>
  <g id="c">
   <path d="m2.4062-4.2344h-.625v-1.1562h-1.125v1.1562h-.54688v.75h.54688v2.6562c0 .67188.375 1.0156 1.1094 1.0156.25 0 .4375-.03125.64062-.09375v-.78125c-.10938.015625-.17188.03125-.25.03125-.29688 0-.375-.09375-.375-.48438v-2.3438h.625z"/>
  </g>
  <g id="p">
   <path d="m1.6562-4.3125h-1.125v4.3125h1.125zm0-1.5156h-1.125v1h1.125z"/>
  </g>
  <g id="o">
   <path d="m.5-4.3125v4.3125h1.125v-2.5938c0-.51562.34375-.84375.90625-.84375.48438 0 .71875.26562.71875.78125v2.6562h1.125v-2.8906c0-.96875-.53125-1.5-1.4531-1.5-.57812 0-.98438.20312-1.2969.6875v-.60938z"/>
  </g>
  <g id="e">
   <path d="m3.2031-4.3125v.65625c-.3125-.5-.65625-.73438-1.1094-.73438-.39062 0-.8125.1875-1.1094.5-.4375.45312-.65625 1.0781-.65625 1.8281 0 1.3281.70312 2.25 1.7344 2.25.46875 0 .75-.15625 1.1406-.625v.57812c0 .51562-.375.89062-.90625.89062-.39062 0-.64062-.1875-.73438-.51562h-1.1406c0 .34375.125.57812.42188.8125.34375.28125.8125.42188 1.4219.42188 1.25 0 2-.60938 2-1.6094v-4.4531zm-.90625.85938c.53125 0 .92188.57812.92188 1.375s-.375 1.3281-.9375 1.3281c-.48438 0-.82812-.53125-.82812-1.3281 0-.8125.34375-1.375.84375-1.375z"/>
  </g>
  <g id="d">
   <path d="m4.0469-2.9219c-.015625-.92188-.73438-1.4688-1.8906-1.4688-1.0938 0-1.7656.54688-1.7656 1.4375 0 .29688.078125.53125.23438.70312.15625.15625.28125.21875.70312.35938l1.3281.42188c.28125.078125.39062.17188.39062.34375 0 .26562-.3125.42188-.84375.42188-.29688 0-.51562-.046875-.65625-.14062-.125-.09375-.17188-.1875-.21875-.40625h-1.0938c.03125.95312.71875 1.4375 2.0312 1.4375.60938 0 1.0625-.125 1.375-.39062.32812-.25.51562-.65625.51562-1.0781 0-.5625-.28125-.92188-.84375-1.0938l-1.4219-.40625c-.3125-.09375-.39062-.15625-.39062-.32812 0-.25.26562-.40625.65625-.40625.53125 0 .79688.20312.79688.59375z"/>
  </g>
  <g id="t">
   <path d="m3.1562-4.3125-.90625 3.1406-.95312-3.1406h-1.2188l1.6094 4.4844c0 .45312-.28125.75-.70312.75-.09375 0-.15625-.015625-.29688-.046875v.84375c.17188.03125.26562.03125.40625.03125.28125 0 .60938-.046875.79688-.14062.3125-.125.45312-.29688.64062-.8125l1.7656-5.1094z"/>
  </g>
  <g id="i">
   <path d="m.48438-4.3125v4.3125h1.1094v-2.5938c0-.53125.29688-.84375.78125-.84375.375 0 .59375.21875.59375.5625v2.875h1.125v-2.5938c0-.53125.29688-.84375.76562-.84375.375 0 .60938.21875.60938.5625v2.875h1.125v-3.0625c0-.82812-.51562-1.3281-1.375-1.3281-.5625 0-.9375.1875-1.2656.64062-.20312-.40625-.64062-.64062-1.1719-.64062-.5 0-.82812.15625-1.1875.60938v-.53125z"/>
  </g>
  <g id="s">
   <path d="m.46875-5.8281v5.8281h1.125v-.4375c.26562.42188.64062.625 1.1875.625 1.0312 0 1.8125-.98438 1.8125-2.2969 0-.57812-.17188-1.1719-.45312-1.5938-.29688-.42188-.82812-.6875-1.3594-.6875-.54688 0-.92188.20312-1.1875.625v-2.0625zm2.0625 2.375c.5625 0 .95312.5625.95312 1.3594s-.39062 1.3438-.95312 1.3438-.9375-.53125-.9375-1.375c0-.78125.375-1.3281.9375-1.3281z"/>
  </g>
  <g id="r">
   <path d="m1.6562-5.8281h-1.125v5.8281h1.125z"/>
  </g>
  <g id="q">
   <path d="m2.5-4.2344h-.65625v-.42188c0-.21875.09375-.32812.29688-.32812.10938 0 .21875 0 .32812.015625v-.84375c-.25-.015625-.48438-.015625-.64062-.015625-.75 0-1.1094.34375-1.1094 1.0781v.51562h-.60938v.75h.60938v3.4844h1.125v-3.4844h.65625z"/>
  </g>
  <g id="g">
   <path d="m5.5156-.9375c-.03125.046875-.078125.078125-.10938.125-.14062.17188-.20312.25-.21875.26562-.17188.1875-.25.25-.35938.25-.0625 0-.09375-.046875-.09375-.14062 0-.03125.03125-.15625.078125-.35938l.54688-2c0-.046875.015625-.17188.015625-.23438 0-.28125-.20312-.5-.46875-.5-.15625 0-.3125.0625-.5.17188-.39062.26562-.71875.64062-1.2812 1.5312.21875-.625.32812-1.0625.32812-1.2188 0-.29688-.1875-.48438-.46875-.48438-.48438 0-1.0469.53125-1.7812 1.6875l.46875-1.6719-.03125-.015625c-.42188.09375-.59375.125-1.2656.25v.125c.35938.015625.35938.015625.4375.046875.03125.015625.0625.078125.0625.14062 0 .09375-.1875.82812-.46875 1.8281-.17188.60938-.20312.73438-.3125 1.1406h.60938c.375-1.2656.5-1.5625.76562-1.9844.45312-.6875.9375-1.125 1.2031-1.125.10938 0 .15625.0625.15625.20312 0 .09375-.23438 1.0469-.5625 2.1719-.0625.23438-.09375.34375-.1875.73438h.59375c.3125-1.25.48438-1.6562.89062-2.2188.39062-.54688.79688-.89062 1.0156-.89062.09375 0 .17188.0625.17188.17188 0 .03125-.015625.10938-.0625.28125l-.46875 1.8281c-.078125.3125-.09375.45312-.09375.53125 0 .23438.10938.375.3125.375.375 0 .73438-.26562 1.1562-.85938l.03125-.0625z"/>
  </g>
  <g id="n">
   <path d="m2.8594-.875c-.57812.46875-.8125.60938-1.1719.60938-.45312 0-.75-.29688-.75-.73438 0-.125.015625-.23438.09375-.48438l.21875-.03125c1.2031-.17188 2.0469-.78125 2.0469-1.4688 0-.32812-.23438-.54688-.64062-.54688-1.1562 0-2.4062 1.3125-2.4062 2.5156 0 .65625.4375 1.1094 1.0469 1.1094.57812 0 1.1875-.32812 1.6562-.875zm-1.6406-1.1406c.26562-.71875.85938-1.3281 1.2656-1.3281.17188 0 .28125.125.28125.3125 0 .25-.15625.53125-.39062.78125-.29688.28125-.60938.42188-1.2969.59375z"/>
  </g>
  <g id="m">
   <path d="m2.5938-3.5312c-.34375 0-.65625.09375-.98438.26562-.8125.46875-1.3906 1.3906-1.3906 2.2344 0 .6875.4375 1.125 1.1719 1.125.53125 0 1.0469-.23438 1.5-.70312.53125-.51562.85938-1.1875.85938-1.7969 0-.67188-.46875-1.125-1.1562-1.125zm-.09375.17188c.34375 0 .57812.29688.57812.75 0 .59375-.26562 1.3906-.625 1.9062-.29688.42188-.59375.625-.9375.625-.375 0-.625-.29688-.625-.73438 0-.59375.23438-1.2969.625-1.8594.3125-.45312.64062-.6875.98438-.6875z"/>
  </g>
  <g id="l">
   <path d="m.96875 0c.42188-1.375.54688-1.7031.92188-2.3125.26562-.45312.48438-.70312.625-.70312.046875 0 .078125.046875.125.125.0625.125.125.17188.28125.17188.25 0 .375-.14062.375-.40625 0-.23438-.15625-.40625-.375-.40625-.1875 0-.40625.125-.60938.34375-.32812.34375-.65625.79688-.78125 1.125l-.10938.28125.42188-1.7344-.015625-.015625c-.59375.10938-.65625.125-1.25.21875v.14062c.1875-.03125.21875-.046875.28125-.046875.17188 0 .28125.078125.28125.23438 0 .10938 0 .10938-.125.64062l-.65625 2.3438z"/>
  </g>
  <g id="k">
   <path d="m.125-3.2031c.09375-.015625.15625-.03125.25-.03125.32812 0 .46875.125.64062.5625.20312.59375.625 2.2969.625 2.6094 0 .125-.0625.25-.17188.40625-.21875.29688-.40625.51562-.5.625-.17188.17188-.25.23438-.35938.23438-.0625 0-.10938-.015625-.1875-.078125-.125-.09375-.20312-.14062-.29688-.14062-.1875 0-.3125.14062-.3125.3125 0 .20312.15625.34375.40625.34375.51562 0 1.5469-1.1875 2.4219-2.7812.54688-.98438.76562-1.5625.76562-1.9531 0-.23438-.20312-.4375-.4375-.4375-.1875 0-.3125.125-.3125.29688 0 .125.0625.20312.21875.3125.15625.09375.21875.15625.21875.28125 0 .3125-.29688.92188-.98438 2.0625l-.15625-.92188c-.125-.71875-.5625-2.0312-.6875-2.0312h-.03125c-.015625.015625-.046875.015625-.078125.015625-.0625 0-.35938.046875-.78125.125-.03125.015625-.14062.03125-.25.046875z"/>
  </g>
 </defs>
 <g fill="none" stroke="#000" stroke-linecap="round" stroke-miterlimit="10" stroke-width=".66667">
  <path d="m3.3467 46.589v-21.598"/>
  <path d="m3.3467 24.991h50.398"/>
  <path d="m53.745 46.589h-50.398"/>
 </g>
 <g transform="translate(-140.65 -60.31)" fill="#00ff00">
  <use x="151" y="94.599998" xlink:href="#j"/>
  <use x="155.888" y="94.599998" xlink:href="#h"/>
  <use x="160.776" y="94.599998" xlink:href="#a"/>
  <use x="165.224" y="94.599998" xlink:href="#f"/>
  <use x="168.336" y="94.599998" xlink:href="#b"/>
  <use x="172.784" y="94.599998" xlink:href="#c"/>
  <use x="175.448" y="94.599998" xlink:href="#p"/>
  <use x="177.672" y="94.599998" xlink:href="#o"/>
  <use x="182.56" y="94.599998" xlink:href="#e"/>
  <use x="155.39999" y="103.6" xlink:href="#d"/>
  <use x="159.84801" y="103.6" xlink:href="#t"/>
  <use x="164.29601" y="103.6" xlink:href="#d"/>
  <use x="168.744" y="103.6" xlink:href="#c"/>
  <use x="171.408" y="103.6" xlink:href="#a"/>
  <use x="175.856" y="103.6" xlink:href="#i"/>
 </g>
 <g fill="none" stroke="#000" stroke-linecap="round" stroke-miterlimit="10" stroke-width=".66667">
  <path d="m53.745 46.589v-21.598"/>
  <path d="m53.745 24.991h28.801"/>
  <path d="m82.546 46.589h-28.801"/>
 </g>
 <g transform="translate(-140.65 -60.31)" fill="#007fff">
  <use x="199.39999" y="94.599998" xlink:href="#h"/>
  <use x="204.28799" y="94.599998" xlink:href="#b"/>
  <use x="208.73599" y="94.599998" xlink:href="#e"/>
  <use x="213.62399" y="94.599998" xlink:href="#a"/>
  <use x="197.2" y="103.6" xlink:href="#c"/>
  <use x="199.864" y="103.6" xlink:href="#b"/>
  <use x="204.312" y="103.6" xlink:href="#s"/>
  <use x="209.2" y="103.6" xlink:href="#r"/>
  <use x="211.424" y="103.6" xlink:href="#a"/>
  <use x="215.87199" y="103.6" xlink:href="#d"/>
 </g>
 <g fill="none" stroke="#000" stroke-linecap="round" stroke-miterlimit="10" stroke-width=".66667">
  <path d="m82.546 46.589v-21.598"/>
  <path d="m82.546 24.991h208.8"/>
  <path d="m291.35 24.991v21.598"/>
  <path d="m291.35 46.589h-208.8"/>
 </g>
 <g transform="translate(-140.65 -60.31)" fill="#ff6600">
  <use x="301.10001" y="99.800003" xlink:href="#q"/>
  <use x="303.76401" y="99.800003" xlink:href="#f"/>
  <use x="306.87601" y="99.800003" xlink:href="#b"/>
  <use x="311.32401" y="99.800003" xlink:href="#i"/>
  <use x="318.436" y="99.800003" xlink:href="#a"/>
  <use x="325.10001" y="99.800003" xlink:href="#d"/>
  <use x="329.548" y="99.800003" xlink:href="#c"/>
  <use x="332.21201" y="99.800003" xlink:href="#j"/>
  <use x="337.10001" y="99.800003" xlink:href="#f"/>
  <use x="340.21201" y="99.800003" xlink:href="#b"/>
  <use x="344.66" y="99.800003" xlink:href="#e"/>
  <use x="349.548" y="99.800003" xlink:href="#a"/>
 </g>
 <g fill="none" stroke="#000" stroke-linecap="round" stroke-miterlimit="10">
  <g stroke-width=".41667">
   <path d="m3.3467 22.792v-20.102"/>
   <path d="m291.35 22.792v-20.102"/>
   <path d="m130.05 12.69h-123.8"/>
  </g>
  <g stroke-width=".817">
   <path d="m13.347 10.89-7.1992 1.8008"/>
   <path d="m13.546 11.491-7.3008 1.1992"/>
   <path d="m13.546 12.19-7.3984.5"/>
   <path d="m13.546 12.69h-7.3984"/>
   <path d="m13.546 13.292-7.3984-.5"/>
   <path d="m13.546 13.991-7.3008-1.1992"/>
   <path d="m13.347 14.491-7.1992-1.8008"/>
  </g>
  <path d="m164.55 12.69h123.8" stroke-width=".41667"/>
  <g stroke-width=".817">
   <path d="m281.25 14.491 7.2031-1.8008"/>
   <path d="m281.05 13.991 7.3008-1.1992"/>
   <path d="m281.05 13.292 7.4023-.5"/>
   <path d="m281.05 12.69h7.4023"/>
   <path d="m281.05 12.19 7.4023.5"/>
   <path d="m281.05 11.491 7.3008 1.1992"/>
   <path d="m281.25 10.89 7.2031 1.8008"/>
  </g>
 </g>
 <g transform="translate(-140.65 -60.31)">
  <use x="275.20001" y="74.599998" xlink:href="#g"/>
  <use x="280.97601" y="74.599998" xlink:href="#n"/>
  <use x="284.52802" y="74.599998" xlink:href="#g"/>
  <use x="290.30399" y="74.599998" xlink:href="#m"/>
  <use x="294.30399" y="74.599998" xlink:href="#l"/>
  <use x="297.41599" y="74.599998" xlink:href="#k"/>
 </g>
</svg>
