<svg width="160" height="230" version="1.1" viewBox="0 0 160 230" xmlns="http://www.w3.org/2000/svg" xmlns:xlink="http://www.w3.org/1999/xlink">
 <defs>
  <g id="m">
   <path d="m1.5781-4.3125h-1.1094v6.0625h1.1094v-2.2656c.28125.48438.65625.70312 1.2031.70312 1.0469 0 1.8125-.96875 1.8125-2.2812 0-.60938-.17188-1.2188-.46875-1.625-.28125-.40625-.82812-.67188-1.3438-.67188-.54688 0-.92188.23438-1.2031.70312zm.95312.85938c.5625 0 .9375.54688.9375 1.375 0 .79688-.375 1.3281-.9375 1.3281-.57812 0-.95312-.53125-.95312-1.3438s.375-1.3594.95312-1.3594z"/>
  </g>
  <g id="r">
   <path d="m.53125-5.8281v5.8281h1.125v-2.5938c0-.5.35938-.84375.85938-.84375.25 0 .4375.078125.5625.26562.10938.14062.125.26562.125.53125v2.6406h1.125v-2.8906c0-.54688-.14062-.92188-.4375-1.1719-.25-.20312-.60938-.32812-.96875-.32812-.54688 0-.95312.21875-1.2656.6875v-2.125z"/>
  </g>
  <g id="h">
   <path d="m3.1562-4.3125-.90625 3.1406-.95312-3.1406h-1.2188l1.6094 4.4844c0 .45312-.28125.75-.70312.75-.09375 0-.15625-.015625-.29688-.046875v.84375c.17188.03125.26562.03125.40625.03125.28125 0 .60938-.046875.79688-.14062.3125-.125.45312-.29688.64062-.8125l1.7656-5.1094z"/>
  </g>
  <g id="g">
   <path d="m4.0469-2.9219c-.015625-.92188-.73438-1.4688-1.8906-1.4688-1.0938 0-1.7656.54688-1.7656 1.4375 0 .29688.078125.53125.23438.70312.15625.15625.28125.21875.70312.35938l1.3281.42188c.28125.078125.39062.17188.39062.34375 0 .26562-.3125.42188-.84375.42188-.29688 0-.51562-.046875-.65625-.14062-.125-.09375-.17188-.1875-.21875-.40625h-1.0938c.03125.95312.71875 1.4375 2.0312 1.4375.60938 0 1.0625-.125 1.375-.39062.32812-.25.51562-.65625.51562-1.0781 0-.5625-.28125-.92188-.84375-1.0938l-1.4219-.40625c-.3125-.09375-.39062-.15625-.39062-.32812 0-.25.26562-.40625.65625-.40625.53125 0 .79688.20312.79688.59375z"/>
  </g>
  <g id="c">
   <path d="m1.6562-4.3125h-1.125v4.3125h1.125zm0-1.5156h-1.125v1h1.125z"/>
  </g>
  <g id="n">
   <path d="m4.1719-2.7031c-.078125-1.0625-.76562-1.6875-1.8594-1.6875-1.2969 0-2.0469.84375-2.0469 2.3125 0 1.4375.75 2.2656 2.0312 2.2656 1.0469 0 1.7812-.65625 1.875-1.6875h-1.0625c-.14062.5625-.35938.78125-.8125.78125-.5625 0-.90625-.5-.90625-1.3594 0-.40625.078125-.78125.21875-1.0469.125-.23438.375-.35938.6875-.35938.46875 0 .67188.21875.8125.78125z"/>
  </g>
  <g id="b">
   <path d="m4.1875-.14062c-.1875-.17188-.25-.3125-.25-.51562v-2.4062c0-.875-.59375-1.3281-1.7656-1.3281s-1.7812.5-1.8594 1.5h1.0938c.046875-.45312.23438-.59375.78125-.59375.4375 0 .65625.14062.65625.42188 0 .15625-.078125.26562-.20312.34375-.14062.078125-.14062.078125-.70312.17188l-.4375.078125c-.85938.14062-1.2812.57812-1.2812 1.3594 0 .76562.53125 1.2969 1.3125 1.2969.48438 0 .92188-.20312 1.3125-.625 0 .23438.03125.3125.125.4375h1.2188zm-1.3438-1.5938c0 .64062-.32812 1.0156-.89062 1.0156-.375 0-.60938-.20312-.60938-.51562 0-.34375.17188-.5.64062-.59375l.39062-.078125c.28125-.046875.34375-.0625.46875-.14062z"/>
  </g>
  <g id="f">
   <path d="m1.6562-5.8281h-1.125v5.8281h1.125z"/>
  </g>
  <g id="d">
   <path d="m.48438-4.3125v4.3125h1.1094v-2.5938c0-.53125.29688-.84375.78125-.84375.375 0 .59375.21875.59375.5625v2.875h1.125v-2.5938c0-.53125.29688-.84375.76562-.84375.375 0 .60938.21875.60938.5625v2.875h1.125v-3.0625c0-.82812-.51562-1.3281-1.375-1.3281-.5625 0-.9375.1875-1.2656.64062-.20312-.40625-.64062-.64062-1.1719-.64062-.5 0-.82812.15625-1.1875.60938v-.53125z"/>
  </g>
  <g id="a">
   <path d="m4.1875-1.8125c.015625-.09375.015625-.125.015625-.1875 0-.4375-.0625-.82812-.17188-1.1406-.28125-.78125-.98438-1.25-1.8594-1.25-1.2344 0-2 .89062-2 2.3438 0 1.3906.75 2.2344 1.9844 2.2344.96875 0 1.75-.54688 2-1.4062h-1.1094c-.14062.34375-.45312.54688-.85938.54688-.3125 0-.57812-.14062-.73438-.375-.09375-.15625-.14062-.35938-.15625-.76562zm-2.875-.73438c.078125-.67188.34375-.98438.84375-.98438.51562 0 .8125.34375.875.98438z"/>
  </g>
  <g id="l">
   <path d="m2.4062-4.3906c-1.3125 0-2.125.875-2.125 2.2812 0 1.4219.8125 2.2969 2.1406 2.2969 1.3125 0 2.125-.875 2.125-2.2656 0-1.4531-.78125-2.3125-2.1406-2.3125zm.015625.90625c.60938 0 1.0156.54688 1.0156 1.3906 0 .8125-.42188 1.375-1.0156 1.375-.60938 0-1.0156-.54688-1.0156-1.3906 0-.82812.40625-1.375 1.0156-1.375z"/>
  </g>
  <g id="k">
   <path d="m.5-4.3125v4.3125h1.125v-2.2969c0-.65625.32812-.98438.98438-.98438.125 0 .20312.015625.34375.03125v-1.1406h-.125c-.51562 0-.95312.32812-1.2031.92188v-.84375z"/>
  </g>
  <g id="e">
   <path d="m3.2344 0h1.125v-5.8281h-1.125v2.0625c-.28125-.42188-.64062-.625-1.1875-.625-1.0312 0-1.8125.98438-1.8125 2.2969 0 .57812.17188 1.1719.46875 1.5938.28125.42188.8125.6875 1.3438.6875.54688 0 .90625-.20312 1.1875-.625zm-.9375-3.4531c.5625 0 .9375.54688.9375 1.375 0 .78125-.375 1.3281-.9375 1.3281s-.9375-.54688-.9375-1.3438c0-.8125.375-1.3594.9375-1.3594z"/>
  </g>
  <g id="v">
   <path d="m2.7969 0 1.4844-4.3125h-1.1719l-.875 3.1562-.9375-3.1562h-1.1875l1.5156 4.3125z"/>
  </g>
  <g id="u">
   <path d="m.5-4.3125v4.3125h1.125v-2.5938c0-.51562.34375-.84375.90625-.84375.48438 0 .71875.26562.71875.78125v2.6562h1.125v-2.8906c0-.96875-.53125-1.5-1.4531-1.5-.57812 0-.98438.20312-1.2969.6875v-.60938z"/>
  </g>
  <g id="j">
   <path d="m2.4062-4.2344h-.625v-1.1562h-1.125v1.1562h-.54688v.75h.54688v2.6562c0 .67188.375 1.0156 1.1094 1.0156.25 0 .4375-.03125.64062-.09375v-.78125c-.10938.015625-.17188.03125-.25.03125-.29688 0-.375-.09375-.375-.48438v-2.3438h.625z"/>
  </g>
  <g id="t">
   <path d="m2.5-4.2344h-.65625v-.42188c0-.21875.09375-.32812.29688-.32812.10938 0 .21875 0 .32812.015625v-.84375c-.25-.015625-.48438-.015625-.64062-.015625-.75 0-1.1094.34375-1.1094 1.0781v.51562h-.60938v.75h.60938v3.4844h1.125v-3.4844h.65625z"/>
  </g>
  <g id="s">
   <path d="m4.0938 0h1.1875v-5.8281h-1.1875v3.9688l-2.3125-3.9688h-1.2344v5.8281h1.2031v-4.0312z"/>
  </g>
  <g id="i">
   <path d="m2.1875-5.7969c-.60938 0-1.125.26562-1.4688.73438-.32812.4375-.48438 1.1562-.48438 2.2656 0 1 .125 1.7031.39062 2.1406.34375.54688.89062.84375 1.5625.84375.60938 0 1.1094-.25 1.4688-.71875.3125-.4375.48438-1.1719.48438-2.2344 0-1.0469-.125-1.75-.40625-2.1875-.32812-.54688-.89062-.84375-1.5469-.84375zm0 .90625c.28125 0 .51562.15625.65625.45312.10938.25.17188.85938.17188 1.6406 0 .64062-.0625 1.2656-.14062 1.5-.125.34375-.375.51562-.6875.51562-.29688 0-.53125-.14062-.65625-.4375-.10938-.23438-.17188-.82812-.17188-1.5938 0-.67188.046875-1.3125.14062-1.5469.10938-.34375.35938-.53125.6875-.53125z"/>
  </g>
  <g id="q">
   <path d="m3.2031-4.3125v.65625c-.3125-.5-.65625-.73438-1.1094-.73438-.39062 0-.8125.1875-1.1094.5-.4375.45312-.65625 1.0781-.65625 1.8281 0 1.3281.70312 2.25 1.7344 2.25.46875 0 .75-.15625 1.1406-.625v.57812c0 .51562-.375.89062-.90625.89062-.39062 0-.64062-.1875-.73438-.51562h-1.1406c0 .34375.125.57812.42188.8125.34375.28125.8125.42188 1.4219.42188 1.25 0 2-.60938 2-1.6094v-4.4531zm-.90625.85938c.53125 0 .92188.57812.92188 1.375s-.375 1.3281-.9375 1.3281c-.48438 0-.82812-.53125-.82812-1.3281 0-.8125.34375-1.375.84375-1.375z"/>
  </g>
  <g id="p">
   <path d="m.46875-5.8281v5.8281h1.125v-.4375c.26562.42188.64062.625 1.1875.625 1.0312 0 1.8125-.98438 1.8125-2.2969 0-.57812-.17188-1.1719-.45312-1.5938-.29688-.42188-.82812-.6875-1.3594-.6875-.54688 0-.92188.20312-1.1875.625v-2.0625zm2.0625 2.375c.5625 0 .95312.5625.95312 1.3594s-.39062 1.3438-.95312 1.3438-.9375-.53125-.9375-1.375c0-.78125.375-1.3281.9375-1.3281z"/>
  </g>
  <g id="o">
   <path d="m1.8125-2.0781h1.4844c1.0781 0 1.7656-.76562 1.7656-1.9531 0-1.1562-.65625-1.7969-1.875-1.7969h-2.5781v5.8281h1.2031zm0-1v-1.75h1.1094c.64062 0 .9375.28125.9375.875s-.29688.875-.9375.875z"/>
  </g>
 </defs>
 <g fill="none" stroke="#000" stroke-linecap="round" stroke-miterlimit="10" stroke-width=".66667">
  <path d="m102.03 222.49v-198"/>
  <path d="m102.03 24.49h36"/>
  <path d="m138.03 24.49v198"/>
  <path d="m138.03 222.49h-36"/>
 </g>
 <g transform="translate(-212.97 -48.51)" fill="#ff6600">
  <use x="300.20001" y="60.099998" xlink:href="#m"/>
  <use x="305.08801" y="60.099998" xlink:href="#r"/>
  <use x="309.97601" y="60.099998" xlink:href="#h"/>
  <use x="314.42401" y="60.099998" xlink:href="#g"/>
  <use x="318.87201" y="60.099998" xlink:href="#c"/>
  <use x="321.09601" y="60.099998" xlink:href="#n"/>
  <use x="325.54401" y="60.099998" xlink:href="#b"/>
  <use x="329.992" y="60.099998" xlink:href="#f"/>
  <use x="334.60001" y="60.099998" xlink:href="#d"/>
  <use x="341.71201" y="60.099998" xlink:href="#a"/>
  <use x="346.16" y="60.099998" xlink:href="#d"/>
  <use x="353.272" y="60.099998" xlink:href="#l"/>
  <use x="358.16" y="60.099998" xlink:href="#k"/>
  <use x="361.272" y="60.099998" xlink:href="#h"/>
  <use x="296.29999" y="69.099998" xlink:href="#e"/>
  <use x="301.18799" y="69.099998" xlink:href="#c"/>
  <use x="303.41199" y="69.099998" xlink:href="#v"/>
  <use x="307.85999" y="69.099998" xlink:href="#c"/>
  <use x="310.08401" y="69.099998" xlink:href="#e"/>
  <use x="314.97198" y="69.099998" xlink:href="#a"/>
  <use x="319.42001" y="69.099998" xlink:href="#e"/>
  <use x="326.60001" y="69.099998" xlink:href="#c"/>
  <use x="328.82401" y="69.099998" xlink:href="#u"/>
  <use x="333.71201" y="69.099998" xlink:href="#j"/>
  <use x="336.37601" y="69.099998" xlink:href="#l"/>
  <use x="343.39999" y="69.099998" xlink:href="#t"/>
  <use x="346.064" y="69.099998" xlink:href="#k"/>
  <use x="349.17599" y="69.099998" xlink:href="#b"/>
  <use x="353.62399" y="69.099998" xlink:href="#d"/>
  <use x="360.73599" y="69.099998" xlink:href="#a"/>
  <use x="365.18399" y="69.099998" xlink:href="#g"/>
 </g>
 <g fill="none" stroke="#000" stroke-linecap="round" stroke-miterlimit="10" stroke-width=".5">
  <path d="m102.03 34.49h36"/>
  <path d="m102.03 44.29h36"/>
  <path d="m102.03 54.29h36"/>
  <path d="m102.03 64.091h36"/>
  <path d="m102.03 73.99h36"/>
  <path d="m102.03 83.888h36"/>
  <path d="m102.03 93.79h36"/>
  <path d="m102.03 103.69h36"/>
  <path d="m102.03 113.59h36"/>
  <path d="m102.03 123.49h36"/>
  <path d="m102.03 133.39h36"/>
  <path d="m102.03 143.29h36"/>
  <path d="m102.03 153.19h36"/>
  <path d="m102.03 163.09h36"/>
  <path d="m102.03 172.99h36"/>
  <path d="m102.03 182.89h36"/>
  <path d="m102.03 192.79h36"/>
  <path d="m102.03 202.69h36"/>
  <path d="m102.03 212.59h36"/>
 </g>
 <g transform="translate(-212.97 -48.51)" fill="#007fff">
  <use x="354.60001" y="81.099998" xlink:href="#s"/>
  <use x="354.60001" y="269.79999" xlink:href="#i"/>
 </g>
 <g fill="none" stroke="#000" stroke-linecap="round" stroke-miterlimit="10" stroke-width=".66667">
  <path d="m12.032 172.99v-99"/>
  <path d="m12.032 73.99h25.199"/>
  <path d="m37.232 73.99v99"/>
  <path d="m37.232 172.99h-25.199"/>
 </g>
 <g transform="translate(-212.97 -48.51)" fill="#00ff00">
  <use x="228.2" y="111" xlink:href="#m"/>
  <use x="233.088" y="111" xlink:href="#b"/>
  <use x="237.536" y="111" xlink:href="#q"/>
  <use x="242.424" y="111" xlink:href="#a"/>
  <use x="228.3" y="120" xlink:href="#j"/>
  <use x="230.964" y="120" xlink:href="#b"/>
  <use x="235.412" y="120" xlink:href="#p"/>
  <use x="240.3" y="120" xlink:href="#f"/>
  <use x="242.524" y="120" xlink:href="#a"/>
 </g>
 <g fill="none" stroke="#000" stroke-linecap="round" stroke-miterlimit="10" stroke-width=".66667">
  <path d="m12.032 83.888h25.199"/>
  <path d="m12.032 93.79h25.199"/>
  <path d="m12.032 103.69h25.199"/>
  <path d="m12.032 113.59h25.199"/>
  <path d="m12.032 123.49h25.199"/>
  <path d="m12.032 133.39h25.199"/>
  <path d="m12.032 143.29h25.199"/>
  <path d="m12.032 153.19h25.199"/>
  <path d="m12.032 163.09h25.199"/>
 </g>
 <g transform="translate(-212.97 -48.51)" fill="#00ffff">
  <use x="216" y="130.60001" xlink:href="#o"/>
  <use x="216.89999" y="220.2" xlink:href="#i"/>
 </g>
 <g fill="none" stroke="#000" stroke-linecap="round" stroke-miterlimit="10">
  <path d="m24.634 78.99c0-.05469-.04687-.10156-.10156-.10156-.05469 0-.10156.04687-.10156.10156 0 .05469.04687.10156.10156.10156.05469 0 .10156-.04687.10156-.10156" stroke-width=".66667"/>
  <path d="m25.931 78.99c0-.77344-.625-1.3984-1.3984-1.3984-.77344 0-1.3984.625-1.3984 1.3984 0 .77344.625 1.3984 1.3984 1.3984.77344 0 1.3984-.625 1.3984-1.3984"/>
  <g stroke-width=".66667">
   <path d="m24.634 78.99c25.199 0 25.199 0 38.699 9.8984 13.5 9.9023 13.5 9.9023 38.699 9.9023"/>
   <path d="m94.833 100.59 7.1992-1.8008"/>
   <path d="m94.634 99.99 7.2969-1.1992"/>
   <path d="m94.532 99.388 7.3984-.5"/>
   <path d="m94.532 98.79h7.3984"/>
   <path d="m94.532 98.189 7.3984.5"/>
   <path d="m94.634 97.49 7.2969 1.1992"/>
   <path d="m94.833 96.99 7.1992 1.8008"/>
   <path d="m24.634 88.888c0-.05469-.04687-.09766-.10156-.09766-.05469 0-.10156.04297-.10156.09766s.04687.10156.10156.10156c.05469 0 .10156-.04687.10156-.10156"/>
  </g>
  <path d="m25.931 88.888c0-.76953-.625-1.3984-1.3984-1.3984-.77344 0-1.3984.62891-1.3984 1.3984 0 .77344.625 1.4023 1.3984 1.4023.77344 0 1.3984-.62891 1.3984-1.4023"/>
  <g stroke-width=".66667">
   <path d="m24.634 88.888c25.199 0 25.199 0 38.699-9.8984 13.5-9.8984 13.5-9.8984 38.699-9.8984"/>
   <path d="m94.833 70.888 7.1992-1.7969"/>
   <path d="m94.634 70.29 7.2969-1.1992"/>
   <path d="m94.532 69.689 7.3984-.5"/>
   <path d="m94.532 69.091h7.3984"/>
   <path d="m94.532 68.49 7.3984.5"/>
   <path d="m94.634 67.888 7.2969 1.2031"/>
   <path d="m94.833 67.29 7.1992 1.8008"/>
   <path d="m24.634 98.79c0-.05469-.04687-.10156-.10156-.10156-.05469 0-.10156.04687-.10156.10156 0 .05469.04687.09766.10156.09766.05469 0 .10156-.04297.10156-.09766"/>
  </g>
  <path d="m25.931 98.79c0-.77344-.625-1.4023-1.3984-1.4023-.77344 0-1.3984.62891-1.3984 1.4023 0 .77344.625 1.3984 1.3984 1.3984.77344 0 1.3984-.625 1.3984-1.3984"/>
  <g stroke-width=".66667">
   <path d="m24.634 98.79c25.199 0 25.199 0 38.699 4.8984 13.5 5 13.5 5 38.699 5"/>
   <path d="m94.833 110.49 7.1992-1.8008"/>
   <path d="m94.634 109.89 7.2969-1.1992"/>
   <path d="m94.532 109.29 7.3984-.5"/>
   <path d="m94.532 108.69h7.3984"/>
   <path d="m94.532 108.09 7.3984.5"/>
   <path d="m94.634 107.49 7.2969 1.1992"/>
   <path d="m94.833 106.89 7.1992 1.8008"/>
   <path d="m24.634 108.69c0-.0547-.04687-.0977-.10156-.0977-.05469 0-.10156.043-.10156.0977s.04687.10156.10156.10156c.05469 0 .10156-.0469.10156-.10156"/>
  </g>
  <path d="m25.931 108.69c0-.77344-.625-1.3984-1.3984-1.3984-.77344 0-1.3984.625-1.3984 1.3984s.625 1.4023 1.3984 1.4023c.77344 0 1.3984-.6289 1.3984-1.4023"/>
  <g stroke-width=".66667">
   <path d="m24.634 108.69c25.199 0 25.199 0 38.699 4.9023 13.5 4.8984 13.5 4.8984 38.699 4.8984"/>
   <path d="m94.833 120.39 7.1992-1.7969"/>
   <path d="m94.634 119.79 7.2969-1.1992"/>
   <path d="m94.532 119.19 7.3984-.5"/>
   <path d="m94.532 118.59h7.3984"/>
   <path d="m94.532 117.99 7.3984.5"/>
   <path d="m94.634 117.29 7.2969 1.1992"/>
   <path d="m94.833 116.79 7.1992 1.8008"/>
   <path d="m22.634 121.49 2-5.8984"/>
   <path d="m24.634 115.59 2 5.8984"/>
   <path d="m22.634 131.49 2-5.8984"/>
   <path d="m24.634 125.49 2 5.8984"/>
   <path d="m24.634 138.39c0-.0547-.04687-.0977-.10156-.0977-.05469 0-.10156.043-.10156.0977s.04687.10156.10156.10156c.05469 0 .10156-.0469.10156-.10156"/>
  </g>
  <path d="m25.931 138.39c0-.76953-.625-1.3984-1.3984-1.3984-.77344 0-1.3984.62891-1.3984 1.3984 0 .77344.625 1.4023 1.3984 1.4023.77344 0 1.3984-.6289 1.3984-1.4023"/>
  <g stroke-width=".66667">
   <path d="m24.634 138.39c25.199 0 25.199 0 38.699 4.9023 13.5 5 13.5 5 38.699 5"/>
   <path d="m94.833 150.09 7.1992-1.8008"/>
   <path d="m94.634 149.49 7.2969-1.1992"/>
   <path d="m94.532 148.89 7.3984-.5"/>
   <path d="m94.532 148.29h7.3984"/>
   <path d="m94.532 147.69 7.3984.5"/>
   <path d="m94.634 147.09 7.2969 1.1992"/>
   <path d="m94.833 146.49 7.1992 1.8008"/>
   <path d="m24.634 148.29c0-.0547-.04687-.10156-.10156-.10156-.05469 0-.10156.0469-.10156.10156 0 .0547.04687.0977.10156.0977.05469 0 .10156-.043.10156-.0977"/>
  </g>
  <path d="m25.931 148.29c0-.77343-.625-1.4023-1.3984-1.4023-.77344 0-1.3984.62891-1.3984 1.4023 0 .77344.625 1.3984 1.3984 1.3984.77344 0 1.3984-.625 1.3984-1.3984"/>
  <g stroke-width=".66667">
   <path d="m24.634 148.29c25.199 0 25.199 0 38.699 19.801 13.5 19.797 13.5 19.797 38.699 19.797"/>
   <path d="m94.833 189.69 7.1992-1.8008"/>
   <path d="m94.634 189.09 7.2969-1.2031"/>
   <path d="m94.532 188.49 7.3984-.5"/>
   <path d="m94.532 187.89h7.3984"/>
   <path d="m94.532 187.29 7.3984.5"/>
   <path d="m94.634 186.69 7.2969 1.1992"/>
   <path d="m94.833 186.09 7.1992 1.7969"/>
   <path d="m22.634 161.09 2-5.9023"/>
   <path d="m24.634 155.19 2 5.9023"/>
   <path d="m24.634 168.09c0-.0547-.04687-.10156-.10156-.10156-.05469 0-.10156.0469-.10156.10156 0 .0547.04687.0977.10156.0977.05469 0 .10156-.043.10156-.0977"/>
  </g>
  <path d="m25.931 168.09c0-.77343-.625-1.4023-1.3984-1.4023-.77344 0-1.3984.62891-1.3984 1.4023 0 .76954.625 1.3984 1.3984 1.3984.77344 0 1.3984-.6289 1.3984-1.3984"/>
  <g stroke-width=".66667">
   <path d="m24.634 168.09c25.199 0 25.199 0 38.699 14.797 13.5 14.902 13.5 14.902 38.699 14.902"/>
   <path d="m94.833 199.59 7.1992-1.8008"/>
   <path d="m94.634 198.99 7.2969-1.1992"/>
   <path d="m94.532 198.39 7.3984-.5"/>
   <path d="m94.532 197.79h7.3984"/>
   <path d="m94.532 197.19 7.3984.5"/>
   <path d="m94.634 196.49 7.2969 1.1992"/>
   <path d="m94.833 195.99 7.1992 1.8008"/>
  </g>
 </g>
</svg>
