<svg width="105" height="135" version="1.1" viewBox="0 0 105 135" xmlns="http://www.w3.org/2000/svg" xmlns:xlink="http://www.w3.org/1999/xlink">
 <defs>
  <g id="n">
   <path d="m4.1875-.14062c-.1875-.17188-.25-.3125-.25-.51562v-2.4062c0-.875-.59375-1.3281-1.7656-1.3281s-1.7812.5-1.8594 1.5h1.0938c.046875-.45312.23438-.59375.78125-.59375.4375 0 .65625.14062.65625.42188 0 .15625-.078125.26562-.20312.34375-.14062.078125-.14062.078125-.70312.17188l-.4375.078125c-.85938.14062-1.2812.57812-1.2812 1.3594 0 .76562.53125 1.2969 1.3125 1.2969.48438 0 .92188-.20312 1.3125-.625 0 .23438.03125.3125.125.4375h1.2188zm-1.3438-1.5938c0 .64062-.32812 1.0156-.89062 1.0156-.375 0-.60938-.20312-.60938-.51562 0-.34375.17188-.5.64062-.59375l.39062-.078125c.28125-.046875.34375-.0625.46875-.14062z"/>
  </g>
  <g id="l">
   <path d="m3.2344 0h1.125v-5.8281h-1.125v2.0625c-.28125-.42188-.64062-.625-1.1875-.625-1.0312 0-1.8125.98438-1.8125 2.2969 0 .57812.17188 1.1719.46875 1.5938.28125.42188.8125.6875 1.3438.6875.54688 0 .90625-.20312 1.1875-.625zm-.9375-3.4531c.5625 0 .9375.54688.9375 1.375 0 .78125-.375 1.3281-.9375 1.3281s-.9375-.54688-.9375-1.3438c0-.8125.375-1.3594.9375-1.3594z"/>
  </g>
  <g id="u">
   <path d="m.5-4.3125v4.3125h1.125v-2.2969c0-.65625.32812-.98438.98438-.98438.125 0 .20312.015625.34375.03125v-1.1406h-.125c-.51562 0-.95312.32812-1.2031.92188v-.84375z"/>
  </g>
  <g id="k">
   <path d="m4.1875-1.8125c.015625-.09375.015625-.125.015625-.1875 0-.4375-.0625-.82812-.17188-1.1406-.28125-.78125-.98438-1.25-1.8594-1.25-1.2344 0-2 .89062-2 2.3438 0 1.3906.75 2.2344 1.9844 2.2344.96875 0 1.75-.54688 2-1.4062h-1.1094c-.14062.34375-.45312.54688-.85938.54688-.3125 0-.57812-.14062-.73438-.375-.09375-.15625-.14062-.35938-.15625-.76562zm-2.875-.73438c.078125-.67188.34375-.98438.84375-.98438.51562 0 .8125.34375.875.98438z"/>
  </g>
  <g id="h">
   <path d="m4.0469-2.9219c-.015625-.92188-.73438-1.4688-1.8906-1.4688-1.0938 0-1.7656.54688-1.7656 1.4375 0 .29688.078125.53125.23438.70312.15625.15625.28125.21875.70312.35938l1.3281.42188c.28125.078125.39062.17188.39062.34375 0 .26562-.3125.42188-.84375.42188-.29688 0-.51562-.046875-.65625-.14062-.125-.09375-.17188-.1875-.21875-.40625h-1.0938c.03125.95312.71875 1.4375 2.0312 1.4375.60938 0 1.0625-.125 1.375-.39062.32812-.25.51562-.65625.51562-1.0781 0-.5625-.28125-.92188-.84375-1.0938l-1.4219-.40625c-.3125-.09375-.39062-.15625-.39062-.32812 0-.25.26562-.40625.65625-.40625.53125 0 .79688.20312.79688.59375z"/>
  </g>
  <g id="t">
   <path d="m1.5781-4.3125h-1.1094v6.0625h1.1094v-2.2656c.28125.48438.65625.70312 1.2031.70312 1.0469 0 1.8125-.96875 1.8125-2.2812 0-.60938-.17188-1.2188-.46875-1.625-.28125-.40625-.82812-.67188-1.3438-.67188-.54688 0-.92188.23438-1.2031.70312zm.95312.85938c.5625 0 .9375.54688.9375 1.375 0 .79688-.375 1.3281-.9375 1.3281-.57812 0-.95312-.53125-.95312-1.3438s.375-1.3594.95312-1.3594z"/>
  </g>
  <g id="s">
   <path d="m4.1719-2.7031c-.078125-1.0625-.76562-1.6875-1.8594-1.6875-1.2969 0-2.0469.84375-2.0469 2.3125 0 1.4375.75 2.2656 2.0312 2.2656 1.0469 0 1.7812-.65625 1.875-1.6875h-1.0625c-.14062.5625-.35938.78125-.8125.78125-.5625 0-.90625-.5-.90625-1.3594 0-.40625.078125-.78125.21875-1.0469.125-.23438.375-.35938.6875-.35938.46875 0 .67188.21875.8125.78125z"/>
  </g>
  <g id="g">
   <path d="m1.7188-1.1719h-1.2031v1.1719h1.2031z"/>
  </g>
  <g id="r">
   <path d="m2.1875-5.7969c-.60938 0-1.125.26562-1.4688.73438-.32812.4375-.48438 1.1562-.48438 2.2656 0 1 .125 1.7031.39062 2.1406.34375.54688.89062.84375 1.5625.84375.60938 0 1.1094-.25 1.4688-.71875.3125-.4375.48438-1.1719.48438-2.2344 0-1.0469-.125-1.75-.40625-2.1875-.32812-.54688-.89062-.84375-1.5469-.84375zm0 .90625c.28125 0 .51562.15625.65625.45312.10938.25.17188.85938.17188 1.6406 0 .64062-.0625 1.2656-.14062 1.5-.125.34375-.375.51562-.6875.51562-.29688 0-.53125-.14062-.65625-.4375-.10938-.23438-.17188-.82812-.17188-1.5938 0-.67188.046875-1.3125.14062-1.5469.10938-.34375.35938-.53125.6875-.53125z"/>
  </g>
  <g id="b">
   <path d="m1.7969-1.9531.59375-.625 1.9062 2.5781h1.4375l-2.5781-3.3125 2.3281-2.5156h-1.4062l-2.2812 2.5625v-2.5625h-1.2031v5.8281h1.2031z"/>
  </g>
  <g id="j">
   <path d="m4.4531-2.4844h-4.5312v.82812h4.5312z"/>
  </g>
  <g id="i">
   <path d="m1.9062-3.9062v3.9062h1.125v-5.6719h-.75c-.17188.67188-.76562 1.0156-1.7344 1.0156v.75z"/>
  </g>
  <g id="m">
   <path d="m4.0938-1h-2.4062c.15625-.29688.32812-.46875 1.1562-1.0781.98438-.71875 1.2812-1.1406 1.2812-1.9062 0-1.1094-.76562-1.8125-1.9531-1.8125-1.1719 0-1.8594.70312-1.8594 1.9062v.1875h1.0781v-.17188c0-.64062.29688-1 .8125-1 .5 0 .79688.34375.79688.90625 0 .625-.1875.85938-1.4531 1.7656-.96875.65625-1.2656 1.1406-1.3125 2.2031h3.8594z"/>
  </g>
  <g id="v">
   <path d="m1.7344-2.5312c.4375 0 .45312 0 .65625.046875.375.10938.625.4375.625.85938 0 .5-.35938.84375-.84375.84375-.53125 0-.8125-.29688-.85938-.875h-1.0781c0 1.125.73438 1.8438 1.9062 1.8438 1.2188 0 1.9844-.71875 1.9844-1.8125 0-.67188-.28125-1.1094-.92188-1.4219.51562-.32812.73438-.6875.73438-1.2031 0-.9375-.70312-1.5469-1.7969-1.5469-.82812 0-1.4531.35938-1.7031.98438-.09375.26562-.14062.45312-.14062.92188h1.0469c.015625-.29688.03125-.45312.09375-.59375.09375-.25.35938-.40625.6875-.40625.4375 0 .70312.28125.70312.75 0 .57812-.32812.85938-1 .85938h-.09375z"/>
  </g>
  <g id="a">
   <path d="m.875-.70312c-.20312 0-.39062.17188-.39062.40625 0 .20312.1875.375.39062.375s.39062-.17188.39062-.375c0-.21875-.1875-.40625-.39062-.40625z"/>
  </g>
  <g id="f">
   <path d="m1.1719-5.0938c.45312.046875.5625.125.5625.32812 0 .125-.03125.26562-.14062.64062l-.9375 3.4062c-.14062.48438-.20312.53125-.65625.59375v.125h1.9531v-.125c-.5-.078125-.53125-.09375-.53125-.375 0-.09375.015625-.15625.09375-.45312l.42188-1.5469c.20312.046875.40625.0625.73438.0625.65625 0 1.2031-.14062 1.5312-.39062.40625-.29688.64062-.73438.64062-1.2031 0-.76562-.60938-1.1875-1.6875-1.1875h-1.9844zm1.4062.32812c.046875-.15625.14062-.21875.35938-.21875.3125 0 .625.078125.78125.1875.20312.15625.29688.39062.29688.76562 0 .51562-.1875.89062-.53125 1.0938-.25.14062-.5625.20312-1.0625.20312-.14062 0-.1875 0-.40625-.046875z"/>
  </g>
  <g id="e">
   <path d="m3.7188-.875-.23438.21875c-.25.25-.34375.32812-.40625.32812s-.125-.046875-.125-.10938c0-.15625.34375-1.5312.71875-2.9062.03125-.078125.03125-.09375.046875-.15625l-.0625-.03125-.48438.0625-.015625.015625-.09375.39062c-.0625-.29688-.29688-.46875-.64062-.46875-1.0625 0-2.2812 1.4531-2.2812 2.7344 0 .5625.29688.89062.8125.89062.5625 0 .90625-.26562 1.6094-1.2656-.17188.65625-.1875.71875-.1875.92188 0 .23438.09375.32812.32812.32812.3125 0 .5-.15625 1.1094-.875zm-1.25-2.4844c.28125.015625.45312.21875.45312.5 0 .67188-.40625 1.6094-.95312 2.2031-.1875.21875-.46875.35938-.70312.35938-.28125 0-.45312-.23438-.45312-.59375 0-.45312.29688-1.2656.64062-1.7656.32812-.46875.6875-.71875 1.0156-.70312z"/>
  </g>
  <g id="d">
   <path d="m3.7812-3.2344h-.5c-.015625 0-.0625-.015625-.125-.0625-.21875-.15625-.46875-.23438-.78125-.23438-.89062 0-1.6094.625-1.6094 1.375 0 .40625.17188.65625.64062.85938-.48438.32812-.625.48438-.625.67188 0 .10938.0625.20312.21875.3125-.79688.51562-.9375.6875-.9375 1.0469 0 .54688.53125.90625 1.3438.90625 1 0 1.6719-.46875 1.6719-1.1562 0-.51562-.375-.85938-1.1406-1.0625-.35938-.078125-.5625-.21875-.5625-.32812 0-.125.1875-.32812.28125-.32812h.0625c.078125.015625.15625.03125.25.03125.73438 0 1.4844-.65625 1.4844-1.2812 0-.125-.03125-.26562-.078125-.4375h.40625zm-2.5938 3.0156s.015625 0 .03125.015625c.03125 0 .10938.03125.23438.0625.85938.28125 1.1406.5 1.1406.85938 0 .4375-.45312.75-1.0781.75-.64062 0-1.0156-.29688-1.0156-.8125 0-.1875.046875-.32812.1875-.48438.10938-.14062.4375-.39062.5-.39062zm1.1875-3.1406c.28125 0 .4375.20312.4375.57812 0 .28125-.09375.625-.25.90625-.17188.32812-.42188.5-.6875.5-.3125 0-.48438-.21875-.48438-.59375 0-.75.45312-1.3906.98438-1.3906z"/>
  </g>
  <g id="c">
   <path d="m2.8594-.875c-.57812.46875-.8125.60938-1.1719.60938-.45312 0-.75-.29688-.75-.73438 0-.125.015625-.23438.09375-.48438l.21875-.03125c1.2031-.17188 2.0469-.78125 2.0469-1.4688 0-.32812-.23438-.54688-.64062-.54688-1.1562 0-2.4062 1.3125-2.4062 2.5156 0 .65625.4375 1.1094 1.0469 1.1094.57812 0 1.1875-.32812 1.6562-.875zm-1.6406-1.1406c.26562-.71875.85938-1.3281 1.2656-1.3281.17188 0 .28125.125.28125.3125 0 .25-.15625.53125-.39062.78125-.29688.28125-.60938.42188-1.2969.59375z"/>
  </g>
  <g id="q">
   <path d="m2.7344-5.4062c-1.2656 0-2.4844 1.8281-2.4844 3.7031 0 1.0625.51562 1.7656 1.2969 1.7656.34375 0 .67188-.125 1.0156-.375.8125-.59375 1.4062-1.9219 1.4062-3.0781 0-1.25-.46875-2.0156-1.2344-2.0156zm-.046875.21875c.42188 0 .65625.375.65625 1.0156 0 1.0625-.3125 2.3906-.78125 3.2031-.29688.53125-.625.79688-1 .79688-.42188 0-.67188-.39062-.67188-1.0781 0-.85938.40625-2.4375.82812-3.1719.29688-.51562.59375-.76562.96875-.76562z"/>
  </g>
  <g id="p">
   <path d="m.39062 0h2.2344v-.125h-.14062c-.39062 0-.54688-.0625-.54688-.25 0-.078125.015625-.1875.09375-.42188.015625-.046875.03125-.09375.046875-.17188l1.1406-4.1562c.046875-.14062.046875-.1875.046875-.23438 0-.03125-.015625-.046875-.03125-.046875 0 0-.21875.03125-.65625.125l-.71875.14062c-.015625.015625-.078125.015625-.17188.03125v.125l.45312-.015625c.1875-.015625.3125.09375.3125.25 0 .046875-.015625.10938-.0625.26562l-1.1094 3.9375c-.09375.29688-.25.375-.89062.4375z"/>
  </g>
  <g id="o">
   <path d="m3.2031-1.1094c-.1875.39062-.34375.48438-.79688.5h-1.5156v-.03125l1.5312-1.5469c.9375-.9375 1.1875-1.3281 1.1875-1.875 0-.75-.5625-1.3438-1.2969-1.3438-.28125 0-.57812.078125-.8125.20312-.40625.23438-.625.5-.85938 1.0781l.17188.046875c.29688-.51562.64062-.75 1.1094-.75.57812 0 1 .42188 1 .98438 0 .15625-.015625.3125-.0625.42188-.20312.4375-.5625.9375-1.0781 1.5l-1.6875 1.7812v.14062h2.8438l.40625-1.0625z"/>
  </g>
 </defs>
 <g fill="none" stroke="#000" stroke-linecap="round" stroke-miterlimit="10" stroke-width=".66667">
  <path d="m28.199 4.3215v108"/>
  <path d="m28.199 112.32h36"/>
  <path d="m64.199 112.32v-108"/>
 </g>
 <g>
  <g transform="translate(-241.8 -58.679)" fill="#ff6600">
   <use x="272.60001" y="179.60001" xlink:href="#n"/>
   <use x="277.048" y="179.60001" xlink:href="#l"/>
   <use x="281.936" y="179.60001" xlink:href="#l"/>
   <use x="286.82401" y="179.60001" xlink:href="#u"/>
   <use x="289.936" y="179.60001" xlink:href="#k"/>
   <use x="294.384" y="179.60001" xlink:href="#h"/>
   <use x="298.832" y="179.60001" xlink:href="#h"/>
   <use x="276.60001" y="188.60001" xlink:href="#h"/>
   <use x="281.048" y="188.60001" xlink:href="#t"/>
   <use x="285.936" y="188.60001" xlink:href="#n"/>
   <use x="290.384" y="188.60001" xlink:href="#s"/>
   <use x="294.832" y="188.60001" xlink:href="#k"/>
  </g>
  <g transform="translate(-241.8 -58.679)" fill="#000000">
   <use x="286.89999" y="77.5" xlink:href="#g"/>
   <use x="286.89999" y="72.5" xlink:href="#g"/>
   <use x="286.89999" y="67.400002" xlink:href="#g"/>
   <use x="272.60001" y="142.5" xlink:href="#a"/>
   <use x="276.20001" y="142.5" xlink:href="#a"/>
   <use x="279.80002" y="142.5" xlink:href="#a"/>
   <use x="283.39999" y="142.5" xlink:href="#a"/>
   <use x="287" y="142.5" xlink:href="#a"/>
   <use x="290.60001" y="142.5" xlink:href="#a"/>
   <use x="294.20001" y="142.5" xlink:href="#a"/>
   <use x="297.80002" y="142.5" xlink:href="#a"/>
   <use x="301.40002" y="142.5" xlink:href="#a"/>
   <use x="272.60001" y="113.7" xlink:href="#a"/>
   <use x="276.20001" y="113.7" xlink:href="#a"/>
   <use x="279.80002" y="113.7" xlink:href="#a"/>
   <use x="283.39999" y="113.7" xlink:href="#a"/>
   <use x="287" y="113.7" xlink:href="#a"/>
   <use x="290.60001" y="113.7" xlink:href="#a"/>
   <use x="294.20001" y="113.7" xlink:href="#a"/>
   <use x="297.80002" y="113.7" xlink:href="#a"/>
   <use x="301.40002" y="113.7" xlink:href="#a"/>
   <use x="272.60001" y="84.900002" xlink:href="#a"/>
   <use x="276.20001" y="84.900002" xlink:href="#a"/>
   <use x="279.80002" y="84.900002" xlink:href="#a"/>
   <use x="283.39999" y="84.900002" xlink:href="#a"/>
   <use x="287" y="84.900002" xlink:href="#a"/>
   <use x="290.60001" y="84.900002" xlink:href="#a"/>
   <use x="294.20001" y="84.900002" xlink:href="#a"/>
   <use x="297.80002" y="84.900002" xlink:href="#a"/>
   <use x="301.40002" y="84.900002" xlink:href="#a"/>
  </g>
  <g transform="translate(-241.8 -58.679)" fill="#007fff">
   <use x="261.89999" y="169" xlink:href="#r"/>
   <use x="250.39999" y="150.2" xlink:href="#b"/>
   <use x="256.79999" y="150.2" xlink:href="#j"/>
   <use x="261.89999" y="150.2" xlink:href="#i"/>
  </g>
  <g transform="translate(-241.8 -58.679)" fill="#00ffff">
   <use x="260.60001" y="140.2" xlink:href="#b"/>
   <use x="245.3" y="121.4" xlink:href="#m"/>
   <use x="250.40001" y="121.4" xlink:href="#b"/>
   <use x="256.79999" y="121.4" xlink:href="#j"/>
   <use x="261.89999" y="121.4" xlink:href="#i"/>
  </g>
  <g transform="translate(-241.8 -58.679)" fill="#00ff00">
   <use x="255.5" y="111.4" xlink:href="#m"/>
   <use x="260.60001" y="111.4" xlink:href="#b"/>
   <use x="245.3" y="92.599998" xlink:href="#v"/>
   <use x="250.40001" y="92.599998" xlink:href="#b"/>
   <use x="256.79999" y="92.599998" xlink:href="#j"/>
   <use x="261.89999" y="92.599998" xlink:href="#i"/>
  </g>
 </g>
 <g fill="none" stroke="#000" stroke-linecap="round" stroke-miterlimit="10" stroke-width=".66667">
  <path d="m71.399 87.122c0-1.9883-1.6094-3.6016-3.5976-3.6016"/>
  <path d="m71.399 87.122v7.1992"/>
  <path d="m71.399 94.321c0 1.9883 1.6133 3.6016 3.6016 3.6016"/>
  <path d="m75 97.923c-1.9883 0-3.6016 1.6094-3.6016 3.5977"/>
  <path d="m71.399 101.52v7.1992"/>
  <path d="m67.801 112.32c1.9883 0 3.5976-1.6133 3.5976-3.6016"/>
  <path d="m71.399 58.321c0-1.9883-1.6094-3.6016-3.5976-3.6016"/>
  <path d="m71.399 58.321v7.1992"/>
  <path d="m71.399 65.521c0 1.9883 1.6133 3.6016 3.6016 3.6016"/>
  <path d="m75 69.122c-1.9883 0-3.6016 1.6094-3.6016 3.5977"/>
  <path d="m71.399 72.72v7.2031"/>
  <path d="m67.801 83.521c1.9883 0 3.5976-1.6094 3.5976-3.5977"/>
  <path d="m71.399 29.521c0-1.9883-1.6094-3.5977-3.5976-3.5977"/>
  <path d="m71.399 29.521v7.1992"/>
  <path d="m71.399 36.72c0 1.9883 1.6133 3.6016 3.6016 3.6016"/>
  <path d="m75 40.321c-1.9883 0-3.6016 1.6133-3.6016 3.6016"/>
  <path d="m71.399 43.923v7.1992"/>
  <path d="m67.801 54.72c1.9883 0 3.5976-1.6094 3.5976-3.5977"/>
 </g>
 <g transform="translate(-241.8 -58.679)">
  <use x="320.39999" y="158.2" xlink:href="#f"/>
  <use x="325.28799" y="158.2" xlink:href="#e"/>
  <use x="329.28799" y="158.2" xlink:href="#d"/>
  <use x="333.28799" y="158.2" xlink:href="#c"/>
  <use x="339.20001" y="158.2" xlink:href="#q"/>
  <use x="320.39999" y="129.39999" xlink:href="#f"/>
  <use x="325.28799" y="129.39999" xlink:href="#e"/>
  <use x="329.28799" y="129.39999" xlink:href="#d"/>
  <use x="333.28799" y="129.39999" xlink:href="#c"/>
  <use x="339.20001" y="129.39999" xlink:href="#p"/>
  <use x="320.39999" y="100.6" xlink:href="#f"/>
  <use x="325.28799" y="100.6" xlink:href="#e"/>
  <use x="329.28799" y="100.6" xlink:href="#d"/>
  <use x="333.28799" y="100.6" xlink:href="#c"/>
  <use x="339.20001" y="100.6" xlink:href="#o"/>
 </g>
</svg>
