<svg width="230" height="200" version="1.1" viewBox="0 0 230 200" xmlns="http://www.w3.org/2000/svg" xmlns:xlink="http://www.w3.org/1999/xlink">
 <defs>
  <g id="s">
   <path d="m5.4531-3.8594c-.03125-.5-.14062-.82812-.39062-1.1562-.45312-.57812-1.1719-.90625-2.0312-.90625-1.6562 0-2.6719 1.1719-2.6719 3.0625 0 1.875 1.0156 3.0469 2.625 3.0469 1.4688 0 2.4219-.84375 2.5-2.1719h-1.1719c-.078125.73438-.54688 1.1562-1.2812 1.1562-.9375 0-1.4844-.75-1.4844-2.0156 0-1.2969.57812-2.0625 1.5156-2.0625.70312 0 1.0938.34375 1.25 1.0469z"/>
  </g>
  <g id="p">
   <path d="m1.8125-2.0781h1.4844c1.0781 0 1.7656-.76562 1.7656-1.9531 0-1.1562-.65625-1.7969-1.875-1.7969h-2.5781v5.8281h1.2031zm0-1v-1.75h1.1094c.64062 0 .9375.28125.9375.875s-.29688.875-.9375.875z"/>
  </g>
  <g id="o">
   <path d="m4.0312-5.8281v3.9531c0 .70312-.35938 1.0312-1.1094 1.0312s-1.1094-.32812-1.1094-1.0312v-3.9531h-1.2031v3.9531c0 .65625.17188 1.1094.5625 1.4688.42188.375 1.0469.59375 1.75.59375s1.3125-.21875 1.7344-.59375c.40625-.35938.57812-.8125.57812-1.4688v-3.9531z"/>
  </g>
  <g id="f">
   <path d="m2.4062-4.2344h-.625v-1.1562h-1.125v1.1562h-.54688v.75h.54688v2.6562c0 .67188.375 1.0156 1.1094 1.0156.25 0 .4375-.03125.64062-.09375v-.78125c-.10938.015625-.17188.03125-.25.03125-.29688 0-.375-.09375-.375-.48438v-2.3438h.625z"/>
  </g>
  <g id="e">
   <path d="m.5-4.3125v4.3125h1.125v-2.2969c0-.65625.32812-.98438.98438-.98438.125 0 .20312.015625.34375.03125v-1.1406h-.125c-.51562 0-.95312.32812-1.2031.92188v-.84375z"/>
  </g>
  <g id="c">
   <path d="m1.6562-4.3125h-1.125v4.3125h1.125zm0-1.5156h-1.125v1h1.125z"/>
  </g>
  <g id="d">
   <path d="m3.2031-4.3125v.65625c-.3125-.5-.65625-.73438-1.1094-.73438-.39062 0-.8125.1875-1.1094.5-.4375.45312-.65625 1.0781-.65625 1.8281 0 1.3281.70312 2.25 1.7344 2.25.46875 0 .75-.15625 1.1406-.625v.57812c0 .51562-.375.89062-.90625.89062-.39062 0-.64062-.1875-.73438-.51562h-1.1406c0 .34375.125.57812.42188.8125.34375.28125.8125.42188 1.4219.42188 1.25 0 2-.60938 2-1.6094v-4.4531zm-.90625.85938c.53125 0 .92188.57812.92188 1.375s-.375 1.3281-.9375 1.3281c-.48438 0-.82812-.53125-.82812-1.3281 0-.8125.34375-1.375.84375-1.375z"/>
  </g>
  <g id="g">
   <path d="m2.4062-4.3906c-1.3125 0-2.125.875-2.125 2.2812 0 1.4219.8125 2.2969 2.1406 2.2969 1.3125 0 2.125-.875 2.125-2.2656 0-1.4531-.78125-2.3125-2.1406-2.3125zm.015625.90625c.60938 0 1.0156.54688 1.0156 1.3906 0 .8125-.42188 1.375-1.0156 1.375-.60938 0-1.0156-.54688-1.0156-1.3906 0-.82812.40625-1.375 1.0156-1.375z"/>
  </g>
  <g id="b">
   <path d="m.5-4.3125v4.3125h1.125v-2.5938c0-.51562.34375-.84375.90625-.84375.48438 0 .71875.26562.71875.78125v2.6562h1.125v-2.8906c0-.96875-.53125-1.5-1.4531-1.5-.57812 0-.98438.20312-1.2969.6875v-.60938z"/>
  </g>
  <g id="j">
   <path d="m.48438-4.3125v4.3125h1.1094v-2.5938c0-.53125.29688-.84375.78125-.84375.375 0 .59375.21875.59375.5625v2.875h1.125v-2.5938c0-.53125.29688-.84375.76562-.84375.375 0 .60938.21875.60938.5625v2.875h1.125v-3.0625c0-.82812-.51562-1.3281-1.375-1.3281-.5625 0-.9375.1875-1.2656.64062-.20312-.40625-.64062-.64062-1.1719-.64062-.5 0-.82812.15625-1.1875.60938v-.53125z"/>
  </g>
  <g id="a">
   <path d="m4.1875-1.8125c.015625-.09375.015625-.125.015625-.1875 0-.4375-.0625-.82812-.17188-1.1406-.28125-.78125-.98438-1.25-1.8594-1.25-1.2344 0-2 .89062-2 2.3438 0 1.3906.75 2.2344 1.9844 2.2344.96875 0 1.75-.54688 2-1.4062h-1.1094c-.14062.34375-.45312.54688-.85938.54688-.3125 0-.57812-.14062-.73438-.375-.09375-.15625-.14062-.35938-.15625-.76562zm-2.875-.73438c.078125-.67188.34375-.98438.84375-.98438.51562 0 .8125.34375.875.98438z"/>
  </g>
  <g id="n">
   <path d="m3.1562-4.3125-.90625 3.1406-.95312-3.1406h-1.2188l1.6094 4.4844c0 .45312-.28125.75-.70312.75-.09375 0-.15625-.015625-.29688-.046875v.84375c.17188.03125.26562.03125.40625.03125.28125 0 .60938-.046875.79688-.14062.3125-.125.45312-.29688.64062-.8125l1.7656-5.1094z"/>
  </g>
  <g id="m">
   <path d="m4.1875-.14062c-.1875-.17188-.25-.3125-.25-.51562v-2.4062c0-.875-.59375-1.3281-1.7656-1.3281s-1.7812.5-1.8594 1.5h1.0938c.046875-.45312.23438-.59375.78125-.59375.4375 0 .65625.14062.65625.42188 0 .15625-.078125.26562-.20312.34375-.14062.078125-.14062.078125-.70312.17188l-.4375.078125c-.85938.14062-1.2812.57812-1.2812 1.3594 0 .76562.53125 1.2969 1.3125 1.2969.48438 0 .92188-.20312 1.3125-.625 0 .23438.03125.3125.125.4375h1.2188zm-1.3438-1.5938c0 .64062-.32812 1.0156-.89062 1.0156-.375 0-.60938-.20312-.60938-.51562 0-.34375.17188-.5.64062-.59375l.39062-.078125c.28125-.046875.34375-.0625.46875-.14062z"/>
  </g>
  <g id="l">
   <path d="m1.5781-4.3125h-1.1094v6.0625h1.1094v-2.2656c.28125.48438.65625.70312 1.2031.70312 1.0469 0 1.8125-.96875 1.8125-2.2812 0-.60938-.17188-1.2188-.46875-1.625-.28125-.40625-.82812-.67188-1.3438-.67188-.54688 0-.92188.23438-1.2031.70312zm.95312.85938c.5625 0 .9375.54688.9375 1.375 0 .79688-.375 1.3281-.9375 1.3281-.57812 0-.95312-.53125-.95312-1.3438s.375-1.3594.95312-1.3594z"/>
  </g>
  <g id="i">
   <path d="m.53125-5.8281v5.8281h1.125v-2.5938c0-.5.35938-.84375.85938-.84375.25 0 .4375.078125.5625.26562.10938.14062.125.26562.125.53125v2.6406h1.125v-2.8906c0-.54688-.14062-.92188-.4375-1.1719-.25-.20312-.60938-.32812-.96875-.32812-.54688 0-.95312.21875-1.2656.6875v-2.125z"/>
  </g>
  <g id="h">
   <path d="m4.1719-2.7031c-.078125-1.0625-.76562-1.6875-1.8594-1.6875-1.2969 0-2.0469.84375-2.0469 2.3125 0 1.4375.75 2.2656 2.0312 2.2656 1.0469 0 1.7812-.65625 1.875-1.6875h-1.0625c-.14062.5625-.35938.78125-.8125.78125-.5625 0-.90625-.5-.90625-1.3594 0-.40625.078125-.78125.21875-1.0469.125-.23438.375-.35938.6875-.35938.46875 0 .67188.21875.8125.78125z"/>
  </g>
  <g id="k">
   <path d="m4.0469-2.9219c-.015625-.92188-.73438-1.4688-1.8906-1.4688-1.0938 0-1.7656.54688-1.7656 1.4375 0 .29688.078125.53125.23438.70312.15625.15625.28125.21875.70312.35938l1.3281.42188c.28125.078125.39062.17188.39062.34375 0 .26562-.3125.42188-.84375.42188-.29688 0-.51562-.046875-.65625-.14062-.125-.09375-.17188-.1875-.21875-.40625h-1.0938c.03125.95312.71875 1.4375 2.0312 1.4375.60938 0 1.0625-.125 1.375-.39062.32812-.25.51562-.65625.51562-1.0781 0-.5625-.28125-.92188-.84375-1.0938l-1.4219-.40625c-.3125-.09375-.39062-.15625-.39062-.32812 0-.25.26562-.40625.65625-.40625.53125 0 .79688.20312.79688.59375z"/>
  </g>
  <g id="r">
   <path d="m3.2344-4.3125v.625c-.26562-.46875-.67188-.70312-1.2031-.70312-1.0469 0-1.8125.96875-1.8125 2.2969 0 .60938.1875 1.2188.46875 1.6094.28125.40625.82812.67188 1.3438.67188.53125 0 .9375-.23438 1.2031-.70312v2.2656h1.125v-6.0625zm-.95312.85938c.57812 0 .95312.54688.95312 1.375 0 .79688-.39062 1.3281-.95312 1.3281-.54688 0-.9375-.53125-.9375-1.3438s.39062-1.3594.9375-1.3594z"/>
  </g>
  <g id="q">
   <path d="m4.3281 0v-4.3125h-1.125v2.7031c0 .5-.34375.84375-.90625.84375-.46875 0-.71875-.26562-.71875-.78125v-2.7656h-1.1094v3c0 .95312.51562 1.5 1.4375 1.5.59375 0 .98438-.21875 1.2969-.70312v.51562z"/>
  </g>
 </defs>
 <g fill="none" stroke="#000" stroke-linecap="round" stroke-miterlimit="10" stroke-width=".66667">
  <path d="m7.2378 194.13v-180"/>
  <path d="m7.2378 14.127h216"/>
  <path d="m223.24 14.127v180"/>
  <path d="m223.24 194.13h-216"/>
 </g>
 <g transform="translate(-172.76 -54.572)" fill="#ff6600">
  <use x="279.5" y="64.599998" xlink:href="#s"/>
  <use x="285.276" y="64.599998" xlink:href="#p"/>
  <use x="290.612" y="64.599998" xlink:href="#o"/>
 </g>
 <g fill="none" stroke="#000" stroke-linecap="round" stroke-miterlimit="10" stroke-width=".66667">
  <path d="m44.238 99.127h141.8"/>
  <path d="m186.14 99.127v-5"/>
  <path d="m186.14 94.03 10 10"/>
  <path d="m196.24 104.13-10 10"/>
  <path d="m186.14 114.23v-5"/>
  <path d="m186.14 109.23h-141.8"/>
  <path d="m44.238 109.23v5"/>
  <path d="m44.238 114.23-10-10"/>
  <path d="m34.238 104.13 10-10"/>
  <path d="m44.238 94.03v5"/>
  <path d="m129.64 82.53v-30.203"/>
  <path d="m129.64 52.326h30.203"/>
  <path d="m159.84 52.326v30.203"/>
  <path d="m159.84 82.53h-30.203"/>
  <path d="m144.74 82.53v16.5"/>
  <path d="m79.238 82.53v-21.602"/>
  <path d="m79.238 60.928h21.602"/>
  <path d="m100.84 60.928v21.602"/>
  <path d="m100.84 82.53h-21.602"/>
  <path d="m90.039 82.53v16.5"/>
  <path d="m104.44 145.23v-21.602"/>
  <path d="m104.44 123.63h21.602"/>
  <path d="m126.04 123.63v21.602"/>
  <path d="m126.04 145.23h-21.602"/>
  <path d="m115.24 123.63v-14.398"/>
  <path d="m55.437 145.23v-21.602"/>
  <path d="m55.437 123.63h21.602"/>
  <path d="m77.039 123.63v21.602"/>
  <path d="m77.039 145.23h-21.602"/>
  <path d="m66.238 123.63v-14.398"/>
  <path d="m147.64 156.03v-32.402"/>
  <path d="m147.64 123.63h32.402"/>
  <path d="m180.04 123.63v32.402"/>
  <path d="m180.04 156.03h-32.402"/>
  <path d="m163.84 123.63v-14.398"/>
 </g>
 <g>
  <g transform="translate(-172.76 -54.572)" fill="#007fff">
   <use x="238.2" y="99.699997" xlink:href="#f"/>
   <use x="240.864" y="99.699997" xlink:href="#e"/>
   <use x="243.976" y="99.699997" xlink:href="#c"/>
   <use x="246.2" y="99.699997" xlink:href="#d"/>
   <use x="251.088" y="99.699997" xlink:href="#g"/>
   <use x="255.976" y="99.699997" xlink:href="#b"/>
   <use x="260.86401" y="99.699997" xlink:href="#g"/>
   <use x="265.75201" y="99.699997" xlink:href="#j"/>
   <use x="272.86401" y="99.699997" xlink:href="#a"/>
   <use x="277.31201" y="99.699997" xlink:href="#f"/>
   <use x="279.97601" y="99.699997" xlink:href="#e"/>
   <use x="283.08801" y="99.699997" xlink:href="#n"/>
   <use x="249.89999" y="108.7" xlink:href="#a"/>
   <use x="254.34801" y="108.7" xlink:href="#b"/>
   <use x="259.23599" y="108.7" xlink:href="#d"/>
   <use x="264.12399" y="108.7" xlink:href="#c"/>
   <use x="266.34799" y="108.7" xlink:href="#b"/>
   <use x="271.23599" y="108.7" xlink:href="#a"/>
  </g>
  <g transform="translate(-172.76 -54.572)" fill="#ffcc00">
   <use x="300.79999" y="91" xlink:href="#d"/>
   <use x="305.68799" y="91" xlink:href="#e"/>
   <use x="308.79999" y="91" xlink:href="#m"/>
   <use x="313.24799" y="91" xlink:href="#l"/>
   <use x="318.13599" y="91" xlink:href="#i"/>
   <use x="323.02399" y="91" xlink:href="#c"/>
   <use x="325.24799" y="91" xlink:href="#h"/>
   <use x="329.69601" y="91" xlink:href="#k"/>
   <use x="304.60001" y="100" xlink:href="#a"/>
   <use x="309.048" y="100" xlink:href="#b"/>
   <use x="313.936" y="100" xlink:href="#d"/>
   <use x="318.82401" y="100" xlink:href="#c"/>
   <use x="321.048" y="100" xlink:href="#b"/>
   <use x="325.936" y="100" xlink:href="#a"/>
  </g>
  <g transform="translate(-172.76 -54.572)" fill="#ff0000">
   <use x="229" y="212.7" xlink:href="#g"/>
   <use x="233.888" y="212.7" xlink:href="#f"/>
   <use x="236.552" y="212.7" xlink:href="#i"/>
   <use x="241.44" y="212.7" xlink:href="#a"/>
   <use x="245.888" y="212.7" xlink:href="#e"/>
   <use x="215.2" y="221.7" xlink:href="#h"/>
   <use x="219.64799" y="221.7" xlink:href="#g"/>
   <use x="224.536" y="221.7" xlink:href="#j"/>
   <use x="231.64799" y="221.7" xlink:href="#l"/>
   <use x="236.536" y="221.7" xlink:href="#g"/>
   <use x="241.424" y="221.7" xlink:href="#b"/>
   <use x="246.312" y="221.7" xlink:href="#a"/>
   <use x="250.75999" y="221.7" xlink:href="#b"/>
   <use x="255.64799" y="221.7" xlink:href="#f"/>
   <use x="258.31201" y="221.7" xlink:href="#k"/>
  </g>
  <g transform="translate(-172.76 -54.572)" fill="#ff00ff">
   <use x="277.10001" y="212.7" xlink:href="#r"/>
   <use x="281.98801" y="212.7" xlink:href="#q"/>
   <use x="286.87601" y="212.7" xlink:href="#a"/>
   <use x="291.32401" y="212.7" xlink:href="#e"/>
   <use x="294.436" y="212.7" xlink:href="#n"/>
   <use x="275.10001" y="221.7" xlink:href="#a"/>
   <use x="279.548" y="221.7" xlink:href="#b"/>
   <use x="284.436" y="221.7" xlink:href="#d"/>
   <use x="289.32401" y="221.7" xlink:href="#c"/>
   <use x="291.548" y="221.7" xlink:href="#b"/>
   <use x="296.436" y="221.7" xlink:href="#a"/>
  </g>
  <g transform="translate(-172.76 -54.572)" fill="#00ffff">
   <use x="317.5" y="223.5" xlink:href="#m"/>
   <use x="321.948" y="223.5" xlink:href="#e"/>
   <use x="325.06" y="223.5" xlink:href="#c"/>
   <use x="327.284" y="223.5" xlink:href="#f"/>
   <use x="329.948" y="223.5" xlink:href="#i"/>
   <use x="334.836" y="223.5" xlink:href="#j"/>
   <use x="341.948" y="223.5" xlink:href="#a"/>
   <use x="346.396" y="223.5" xlink:href="#f"/>
   <use x="349.06" y="223.5" xlink:href="#c"/>
   <use x="351.284" y="223.5" xlink:href="#h"/>
   <use x="323.70001" y="232.5" xlink:href="#a"/>
   <use x="328.14801" y="232.5" xlink:href="#b"/>
   <use x="333.03601" y="232.5" xlink:href="#d"/>
   <use x="337.92401" y="232.5" xlink:href="#c"/>
   <use x="340.14801" y="232.5" xlink:href="#b"/>
   <use x="345.03601" y="232.5" xlink:href="#a"/>
  </g>
 </g>
</svg>
