<svg width="265" height="185" version="1.1" viewBox="0 0 265 185" xmlns="http://www.w3.org/2000/svg" xmlns:xlink="http://www.w3.org/1999/xlink">
 <defs>
  <g id="h">
   <path d="m4.1719-2.7031c-.078125-1.0625-.76562-1.6875-1.8594-1.6875-1.2969 0-2.0469.84375-2.0469 2.3125 0 1.4375.75 2.2656 2.0312 2.2656 1.0469 0 1.7812-.65625 1.875-1.6875h-1.0625c-.14062.5625-.35938.78125-.8125.78125-.5625 0-.90625-.5-.90625-1.3594 0-.40625.078125-.78125.21875-1.0469.125-.23438.375-.35938.6875-.35938.46875 0 .67188.21875.8125.78125z"/>
  </g>
  <g id="f">
   <path d="m2.4062-4.3906c-1.3125 0-2.125.875-2.125 2.2812 0 1.4219.8125 2.2969 2.1406 2.2969 1.3125 0 2.125-.875 2.125-2.2656 0-1.4531-.78125-2.3125-2.1406-2.3125zm.015625.90625c.60938 0 1.0156.54688 1.0156 1.3906 0 .8125-.42188 1.375-1.0156 1.375-.60938 0-1.0156-.54688-1.0156-1.3906 0-.82812.40625-1.375 1.0156-1.375z"/>
  </g>
  <g id="b">
   <path d="m.5-4.3125v4.3125h1.125v-2.5938c0-.51562.34375-.84375.90625-.84375.48438 0 .71875.26562.71875.78125v2.6562h1.125v-2.8906c0-.96875-.53125-1.5-1.4531-1.5-.57812 0-.98438.20312-1.2969.6875v-.60938z"/>
  </g>
  <g id="d">
   <path d="m2.4062-4.2344h-.625v-1.1562h-1.125v1.1562h-.54688v.75h.54688v2.6562c0 .67188.375 1.0156 1.1094 1.0156.25 0 .4375-.03125.64062-.09375v-.78125c-.10938.015625-.17188.03125-.25.03125-.29688 0-.375-.09375-.375-.48438v-2.3438h.625z"/>
  </g>
  <g id="c">
   <path d="m.5-4.3125v4.3125h1.125v-2.2969c0-.65625.32812-.98438.98438-.98438.125 0 .20312.015625.34375.03125v-1.1406h-.125c-.51562 0-.95312.32812-1.2031.92188v-.84375z"/>
  </g>
  <g id="e">
   <path d="m1.6562-5.8281h-1.125v5.8281h1.125z"/>
  </g>
  <g id="a">
   <path d="m4.1875-1.8125c.015625-.09375.015625-.125.015625-.1875 0-.4375-.0625-.82812-.17188-1.1406-.28125-.78125-.98438-1.25-1.8594-1.25-1.2344 0-2 .89062-2 2.3438 0 1.3906.75 2.2344 1.9844 2.2344.96875 0 1.75-.54688 2-1.4062h-1.1094c-.14062.34375-.45312.54688-.85938.54688-.3125 0-.57812-.14062-.73438-.375-.09375-.15625-.14062-.35938-.15625-.76562zm-2.875-.73438c.078125-.67188.34375-.98438.84375-.98438.51562 0 .8125.34375.875.98438z"/>
  </g>
  <g id="j">
   <path d="m1.6562-4.3125h-1.125v4.3125h1.125zm0-1.5156h-1.125v1h1.125z"/>
  </g>
  <g id="g">
   <path d="m4.1875-.14062c-.1875-.17188-.25-.3125-.25-.51562v-2.4062c0-.875-.59375-1.3281-1.7656-1.3281s-1.7812.5-1.8594 1.5h1.0938c.046875-.45312.23438-.59375.78125-.59375.4375 0 .65625.14062.65625.42188 0 .15625-.078125.26562-.20312.34375-.14062.078125-.14062.078125-.70312.17188l-.4375.078125c-.85938.14062-1.2812.57812-1.2812 1.3594 0 .76562.53125 1.2969 1.3125 1.2969.48438 0 .92188-.20312 1.3125-.625 0 .23438.03125.3125.125.4375h1.2188zm-1.3438-1.5938c0 .64062-.32812 1.0156-.89062 1.0156-.375 0-.60938-.20312-.60938-.51562 0-.34375.17188-.5.64062-.59375l.39062-.078125c.28125-.046875.34375-.0625.46875-.14062z"/>
  </g>
  <g id="ab">
   <path d="m1.625-5.8281c-.92188 1.3906-1.3125 2.4688-1.3125 3.7031 0 1.25.39062 2.3281 1.3125 3.7188h.79688c-.85938-1.6406-1.125-2.5312-1.125-3.7188 0-1.1719.28125-2.0781 1.125-3.7031z"/>
  </g>
  <g id="o">
   <path d="m4.0469-2.9219c-.015625-.92188-.73438-1.4688-1.8906-1.4688-1.0938 0-1.7656.54688-1.7656 1.4375 0 .29688.078125.53125.23438.70312.15625.15625.28125.21875.70312.35938l1.3281.42188c.28125.078125.39062.17188.39062.34375 0 .26562-.3125.42188-.84375.42188-.29688 0-.51562-.046875-.65625-.14062-.125-.09375-.17188-.1875-.21875-.40625h-1.0938c.03125.95312.71875 1.4375 2.0312 1.4375.60938 0 1.0625-.125 1.375-.39062.32812-.25.51562-.65625.51562-1.0781 0-.5625-.28125-.92188-.84375-1.0938l-1.4219-.40625c-.3125-.09375-.39062-.15625-.39062-.32812 0-.25.26562-.40625.65625-.40625.53125 0 .79688.20312.79688.59375z"/>
  </g>
  <g id="aa">
   <path d="m.96875 1.5938c.92188-1.3906 1.3125-2.4688 1.3125-3.7031 0-1.25-.39062-2.3281-1.3125-3.7188h-.79688c.85938 1.6406 1.125 2.5312 1.125 3.7188 0 1.1719-.26562 2.0781-1.125 3.7031z"/>
  </g>
  <g id="z">
   <path d="m4.0156-1.1719.375 1.1719h1.2344l-2.0156-5.8281h-1.3281l-2.0781 5.8281h1.2344l.39062-1.1719zm-.32812-1h-1.5312l.76562-2.2812z"/>
  </g>
  <g id="y">
   <path d="m1.8438-5.8281h-1.2031v5.8281h3.9844v-1h-2.7812z"/>
  </g>
  <g id="x">
   <path d="m4.0312-5.8281v3.9531c0 .70312-.35938 1.0312-1.1094 1.0312s-1.1094-.32812-1.1094-1.0312v-3.9531h-1.2031v3.9531c0 .65625.17188 1.1094.5625 1.4688.42188.375 1.0469.59375 1.75.59375s1.3125-.21875 1.7344-.59375c.40625-.35938.57812-.8125.57812-1.4688v-3.9531z"/>
  </g>
  <g id="w">
   <path d="m3.2031-4.3125v.65625c-.3125-.5-.65625-.73438-1.1094-.73438-.39062 0-.8125.1875-1.1094.5-.4375.45312-.65625 1.0781-.65625 1.8281 0 1.3281.70312 2.25 1.7344 2.25.46875 0 .75-.15625 1.1406-.625v.57812c0 .51562-.375.89062-.90625.89062-.39062 0-.64062-.1875-.73438-.51562h-1.1406c0 .34375.125.57812.42188.8125.34375.28125.8125.42188 1.4219.42188 1.25 0 2-.60938 2-1.6094v-4.4531zm-.90625.85938c.53125 0 .92188.57812.92188 1.375s-.375 1.3281-.9375 1.3281c-.48438 0-.82812-.53125-.82812-1.3281 0-.8125.34375-1.375.84375-1.375z"/>
  </g>
  <g id="v">
   <path d="m2.8438-2.1719 1.4062-2.1406h-1.3438l-.70312 1.2969-.70312-1.2969h-1.3438l1.4062 2.1406-1.4375 2.1719h1.3438l.73438-1.3438.73438 1.3438h1.3438z"/>
  </g>
  <g id="u">
   <path d="m2.5-4.2344h-.65625v-.42188c0-.21875.09375-.32812.29688-.32812.10938 0 .21875 0 .32812.015625v-.84375c-.25-.015625-.48438-.015625-.64062-.015625-.75 0-1.1094.34375-1.1094 1.0781v.51562h-.60938v.75h.60938v3.4844h1.125v-3.4844h.65625z"/>
  </g>
  <g id="k">
   <path d="m3.2656-1.3125c-.39062.60938-.73438.84375-1.2344.84375-.46875 0-.8125-.23438-1.0469-.6875-.14062-.3125-.1875-.5625-.20312-1.0625h2.4531c-.0625-.51562-.14062-.75-.34375-1-.23438-.29688-.60938-.46875-1.0156-.46875s-.78125.15625-1.0781.42188c-.375.32812-.59375.89062-.59375 1.5469 0 1.1094.57812 1.7969 1.5 1.7969.75 0 1.3594-.46875 1.6875-1.3281zm-2.4688-1.1562c.078125-.625.35938-.92188.84375-.92188s.67188.21875.78125.92188z"/>
  </g>
  <g id="s">
   <path d="m2.2188 0h1.6094v-.125c-.25 0-.40625-.125-.65625-.46875l-1.0156-1.5781.65625-.95312c.15625-.21875.39062-.34375.65625-.35938v-.10938h-1.2656v.10938c.23438.015625.3125.0625.3125.1875 0 .09375-.09375.26562-.29688.51562-.03125.046875-.125.1875-.23438.34375l-.0625-.09375c-.125-.1875-.1875-.28125-.20312-.3125-.15625-.25-.21875-.375-.21875-.45312 0-.125.10938-.17188.34375-.1875v-.10938h-1.6562v.10938h.078125c.23438 0 .35938.10938.60938.48438l.75 1.1562-.90625 1.3125c-.23438.32812-.3125.39062-.57812.40625v.125h1.1562v-.125c-.23438 0-.32812-.03125-.32812-.14062 0-.046875.0625-.15625.17188-.32812l.625-.98438.73438 1.125c.03125.046875.046875.078125.046875.14062 0 .14062-.0625.17188-.32812.1875z"/>
  </g>
  <g id="n">
   <path d="m2.0469-3.5938h-.8125v-.9375c0-.078125-.015625-.09375-.0625-.09375-.45312.67188-.70312.9375-.9375 1.0781-.078125.046875-.125.09375-.125.14062 0 .03125 0 .046875.03125.0625h.42188v2.4062c0 .67188.23438 1.0156.70312 1.0156.39062 0 .70312-.1875.96875-.60938l-.10938-.078125c-.17188.20312-.29688.26562-.48438.26562-.28125 0-.40625-.20312-.40625-.71875v-2.2812h.8125z"/>
  </g>
  <g id="r">
   <path d="m.046875 0h1.9062v-.125c-.53125-.015625-.65625-.125-.67188-.59375v-1.7969c0-.26562.32812-.65625.5625-.65625.046875 0 .10938.03125.20312.10938.125.125.21875.17188.32812.17188.1875 0 .3125-.14062.3125-.35938 0-.26562-.17188-.4375-.45312-.4375-.32812 0-.54688.1875-.95312.76562v-.73438l-.046875-.03125c-.4375.1875-.73438.29688-1.1719.4375v.125c.10938-.015625.17188-.03125.28125-.03125.1875 0 .26562.125.26562.48438v2c-.015625.42188-.0625.46875-.5625.54688z"/>
  </g>
  <g id="i">
   <path d="m.14062 0h1.7031v-.125c-.40625-.015625-.53125-.125-.53125-.40625v-2.25c.39062-.35938.5625-.45312.82812-.45312.39062 0 .57812.25.57812.76562v1.6719c-.015625.53125-.10938.65625-.5.67188v.125h1.6562v-.125c-.39062-.03125-.46875-.125-.48438-.51562v-1.8438c0-.75-.34375-1.2031-.9375-1.2031-.375 0-.625.14062-1.1719.65625v-.625l-.046875-.03125c-.42188.15625-.6875.25-1.1094.375v.125c.0625-.015625.125-.03125.21875-.03125.21875 0 .29688.125.29688.51562v1.9844c-.015625.46875-.09375.57812-.5.59375z"/>
  </g>
  <g id="q">
   <path d="m3.5312-.53125c-.125.10938-.23438.15625-.34375.15625-.1875 0-.25-.10938-.25-.46875v-1.5625c0-.40625-.03125-.64062-.15625-.82812-.17188-.29688-.51562-.45312-.98438-.45312-.75 0-1.3438.40625-1.3438.90625 0 .1875.14062.34375.34375.34375.1875 0 .35938-.15625.35938-.34375 0-.03125-.015625-.0625-.015625-.125-.015625-.0625-.03125-.14062-.03125-.1875 0-.21875.26562-.39062.57812-.39062.39062 0 .60938.23438.60938.65625v.48438c-1.2188.5-1.375.5625-1.7188.875-.17188.15625-.28125.42188-.28125.6875 0 .51562.34375.85938.84375.85938.34375 0 .67188-.17188 1.1562-.57812.046875.42188.1875.57812.51562.57812.28125 0 .4375-.09375.71875-.39062zm-1.2344-.45312c0 .23438-.046875.32812-.20312.42188-.20312.10938-.42188.17188-.59375.17188-.28125 0-.5-.26562-.5-.60938v-.03125c.015625-.48438.35938-.78125 1.2969-1.1094z"/>
  </g>
  <g id="p">
   <path d="m.17188 0h1.8906v-.125c-.51562-.015625-.59375-.09375-.60938-.54688v-4.7812l-.03125-.015625c-.40625.14062-.70312.21875-1.2656.35938v.125h.046875c.078125 0 .1875-.015625.25-.015625.25 0 .32812.10938.32812.48438v3.8125c0 .4375-.125.54688-.60938.57812z"/>
  </g>
  <g id="m">
   <path d="m3.1875-1.25c-.39062.5625-.67188.75-1.125.75-.75 0-1.25-.64062-1.25-1.5625 0-.82812.4375-1.3906 1.0938-1.3906.28125 0 .39062.078125.46875.39062l.046875.17188c.0625.23438.20312.375.39062.375.20312 0 .375-.15625.375-.34375 0-.4375-.5625-.82812-1.2344-.82812-.39062 0-.79688.17188-1.125.45312-.40625.35938-.625.89062-.625 1.5312 0 1.0469.625 1.7812 1.5156 1.7812.35938 0 .6875-.125.96875-.375.21875-.1875.375-.40625.60938-.875z"/>
  </g>
  <g id="l">
   <path d="m2-3.6875c-1.0469 0-1.7656.78125-1.7656 1.875s.73438 1.8906 1.75 1.8906c1 0 1.7812-.84375 1.7812-1.9531 0-1.0469-.73438-1.8125-1.7656-1.8125zm-.10938.23438c.67188 0 1.1562.76562 1.1562 1.8594 0 .90625-.35938 1.4531-.96875 1.4531-.3125 0-.60938-.20312-.78125-.51562-.21875-.42188-.34375-.96875-.34375-1.5469 0-.75.35938-1.25.9375-1.25z"/>
  </g>
  <g id="t">
   <path d="m.125 0h1.9062v-.125c-.53125-.03125-.59375-.10938-.59375-.6875v-2.8438l-.03125-.03125-1.25.45312v.10938h.0625c.09375-.015625.20312-.03125.28125-.03125.1875 0 .26562.125.26562.48438v1.8594c-.015625.59375-.09375.67188-.64062.6875zm.90625-5.4688c-.21875 0-.40625.1875-.40625.40625 0 .23438.17188.42188.40625.42188s.40625-.1875.40625-.42188c0-.21875-.1875-.40625-.40625-.40625z"/>
  </g>
 </defs>
 <g fill="none" stroke="#000" stroke-linecap="round" stroke-miterlimit="10">
  <g stroke-width=".91667">
   <path d="m2.9736 172.64v-169.2"/>
   <path d="m2.9736 3.4431h259.2"/>
   <path d="m262.18 3.4431v169.2"/>
   <path d="m262.18 172.64h-259.2"/>
  </g>
  <g stroke-width=".66667">
   <path d="m106.58 102.04v-43.203"/>
   <path d="m106.58 58.842h51.801"/>
   <path d="m158.47 58.842v43.203"/>
   <path d="m158.47 102.04h-51.797"/>
  </g>
 </g>
 <g transform="translate(-155.42 -59.557)" fill="#ff6600">
  <use x="269.60001" y="141.60001" xlink:href="#h"/>
  <use x="274.048" y="141.60001" xlink:href="#f"/>
  <use x="278.936" y="141.60001" xlink:href="#b"/>
  <use x="283.82401" y="141.60001" xlink:href="#d"/>
  <use x="286.48801" y="141.60001" xlink:href="#c"/>
  <use x="289.60001" y="141.60001" xlink:href="#f"/>
  <use x="294.48801" y="141.60001" xlink:href="#e"/>
  <use x="296.71201" y="141.60001" xlink:href="#e"/>
  <use x="298.936" y="141.60001" xlink:href="#a"/>
  <use x="303.384" y="141.60001" xlink:href="#c"/>
 </g>
 <g transform="translate(-155.42 -59.557)" fill="#007fff">
  <use x="237.60001" y="87.400002" xlink:href="#j"/>
  <use x="239.82401" y="87.400002" xlink:href="#b"/>
  <use x="244.71201" y="87.400002" xlink:href="#d"/>
  <use x="247.37601" y="87.400002" xlink:href="#a"/>
  <use x="251.82401" y="87.400002" xlink:href="#c"/>
  <use x="254.936" y="87.400002" xlink:href="#b"/>
  <use x="259.82401" y="87.400002" xlink:href="#g"/>
  <use x="264.272" y="87.400002" xlink:href="#e"/>
  <use x="268.70001" y="87.400002" xlink:href="#j"/>
  <use x="270.92401" y="87.400002" xlink:href="#b"/>
  <use x="275.81201" y="87.400002" xlink:href="#d"/>
  <use x="278.47601" y="87.400002" xlink:href="#a"/>
  <use x="282.92401" y="87.400002" xlink:href="#c"/>
  <use x="286.03601" y="87.400002" xlink:href="#h"/>
  <use x="290.48401" y="87.400002" xlink:href="#f"/>
  <use x="295.37201" y="87.400002" xlink:href="#b"/>
  <use x="300.26001" y="87.400002" xlink:href="#b"/>
  <use x="305.14801" y="87.400002" xlink:href="#a"/>
  <use x="309.59601" y="87.400002" xlink:href="#h"/>
  <use x="314.04401" y="87.400002" xlink:href="#d"/>
  <use x="316.70801" y="87.400002" xlink:href="#j"/>
  <use x="318.93201" y="87.400002" xlink:href="#f"/>
  <use x="323.82001" y="87.400002" xlink:href="#b"/>
  <use x="328.70801" y="87.400002" xlink:href="#ab"/>
  <use x="331.37201" y="87.400002" xlink:href="#o"/>
  <use x="335.82001" y="87.400002" xlink:href="#aa"/>
 </g>
 <g fill="none" stroke="#000" stroke-linecap="round" stroke-miterlimit="10" stroke-width=".66667">
  <path d="m29.177 19.642h206.6"/>
  <path d="m235.88 19.642v-5.0977"/>
  <path d="m235.88 14.443 10.398 10.398"/>
  <path d="m246.27 24.842-10.398 10.402"/>
  <path d="m235.88 35.244v-5.1016"/>
  <path d="m235.88 30.045h-206.6"/>
  <path d="m29.177 30.045v5.0977"/>
  <path d="m29.177 35.244-10.402-10.402"/>
  <path d="m18.774 24.842 10.402-10.398"/>
  <path d="m29.177 14.443v5.1016"/>
  <path d="m29.177 102.04v-43.203"/>
  <path d="m29.177 58.842h43.199"/>
  <path d="m72.376 58.842v43.203"/>
  <path d="m72.376 102.04h-43.199"/>
 </g>
 <g transform="translate(-155.42 -59.557)" fill="#00ff00">
  <use x="198" y="143" xlink:href="#z"/>
  <use x="203.776" y="143" xlink:href="#y"/>
  <use x="208.664" y="143" xlink:href="#x"/>
 </g>
 <g fill="none" stroke="#000" stroke-linecap="round" stroke-miterlimit="10" stroke-width=".66667">
  <path d="m192.68 102.04v-43.203"/>
  <path d="m192.68 58.842h43.199"/>
  <path d="m235.88 58.842v43.203"/>
  <path d="m235.88 102.04h-43.199"/>
 </g>
 <g transform="translate(-155.42 -59.557)" fill="#ffcc00">
  <use x="360.60001" y="138.5" xlink:href="#e"/>
  <use x="362.82401" y="138.5" xlink:href="#f"/>
  <use x="367.71201" y="138.5" xlink:href="#h"/>
  <use x="372.16" y="138.5" xlink:href="#g"/>
  <use x="376.608" y="138.5" xlink:href="#e"/>
  <use x="355.20001" y="147.5" xlink:href="#o"/>
  <use x="359.64801" y="147.5" xlink:href="#d"/>
  <use x="362.31201" y="147.5" xlink:href="#f"/>
  <use x="367.20001" y="147.5" xlink:href="#c"/>
  <use x="370.31201" y="147.5" xlink:href="#g"/>
  <use x="374.76001" y="147.5" xlink:href="#w"/>
  <use x="379.64801" y="147.5" xlink:href="#a"/>
 </g>
 <g fill="none" stroke="#000" stroke-linecap="round" stroke-miterlimit="10" stroke-width=".66667">
  <path d="m29.177 152.44v-21.602"/>
  <path d="m29.177 130.84h206.6"/>
  <path d="m235.88 130.84v21.602"/>
  <path d="m235.88 152.44h-206.6"/>
 </g>
 <g transform="translate(-155.42 -59.557)" fill="#00ffff">
  <use x="254.8" y="204.2" xlink:href="#a"/>
  <use x="259.24799" y="204.2" xlink:href="#v"/>
  <use x="263.69601" y="204.2" xlink:href="#d"/>
  <use x="266.35999" y="204.2" xlink:href="#a"/>
  <use x="270.80801" y="204.2" xlink:href="#c"/>
  <use x="273.92001" y="204.2" xlink:href="#b"/>
  <use x="278.80801" y="204.2" xlink:href="#g"/>
  <use x="283.25601" y="204.2" xlink:href="#e"/>
  <use x="287.79999" y="204.2" xlink:href="#j"/>
  <use x="290.02399" y="204.2" xlink:href="#b"/>
  <use x="294.91199" y="204.2" xlink:href="#d"/>
  <use x="297.57599" y="204.2" xlink:href="#a"/>
  <use x="302.02399" y="204.2" xlink:href="#c"/>
  <use x="305.13599" y="204.2" xlink:href="#u"/>
  <use x="307.79999" y="204.2" xlink:href="#g"/>
  <use x="312.24799" y="204.2" xlink:href="#h"/>
  <use x="316.69601" y="204.2" xlink:href="#a"/>
 </g>
 <g fill="none" stroke="#000" stroke-linecap="round" stroke-miterlimit="10">
  <g stroke-width=".83333">
   <path d="m48.974 51.642 1.8008 7.1992"/>
   <path d="m49.575 51.443 1.1992 7.3008"/>
   <path d="m50.274 51.443.5 7.3984"/>
   <path d="m50.774 51.443v7.3984"/>
   <path d="m51.376 51.443-.5 7.3984"/>
   <path d="m52.075 51.443-1.1992 7.3008"/>
   <path d="m52.575 51.642-1.8008 7.1992"/>
   <path d="m50.774 58.842v-28.797"/>
   <path d="m52.575 37.244-1.8008-7.1992"/>
   <path d="m52.075 37.342-1.1992-7.2969"/>
   <path d="m51.376 37.443-.5-7.3984"/>
   <path d="m50.774 37.443v-7.3984"/>
   <path d="m50.274 37.443.5-7.3984"/>
   <path d="m49.575 37.342 1.1992-7.2969"/>
   <path d="m48.974 37.244 1.8008-7.1992"/>
   <path d="m212.47 51.642 1.8008 7.1992"/>
   <path d="m212.97 51.443 1.2031 7.3008"/>
   <path d="m213.68 51.443.5 7.3984"/>
   <path d="m214.27 51.443v7.3984"/>
   <path d="m214.77 51.443-.5 7.3984"/>
   <path d="m215.47 51.443-1.1992 7.3008"/>
   <path d="m216.08 51.642-1.8008 7.1992"/>
   <path d="m214.27 58.842v-28.797"/>
   <path d="m216.08 37.244-1.8008-7.1992"/>
   <path d="m215.47 37.342-1.1992-7.2969"/>
   <path d="m214.77 37.443-.5-7.3984"/>
   <path d="m214.27 37.443v-7.3984"/>
   <path d="m213.68 37.443.5-7.3984"/>
   <path d="m212.97 37.342 1.2031-7.2969"/>
   <path d="m212.47 37.244 1.8008-7.1992"/>
   <path d="m52.575 109.24-1.8008-7.1992"/>
   <path d="m52.075 109.34-1.1992-7.2969"/>
   <path d="m51.376 109.44-.5-7.3984"/>
   <path d="m50.774 109.44v-7.3984"/>
   <path d="m50.274 109.44.5-7.3984"/>
   <path d="m49.575 109.34 1.1992-7.2969"/>
   <path d="m48.974 109.24 1.8008-7.1992"/>
   <path d="m50.774 102.04v28.797"/>
   <path d="m48.974 123.64 1.8008 7.1992"/>
   <path d="m49.575 123.44 1.1992 7.3008"/>
   <path d="m50.274 123.44.5 7.3984"/>
   <path d="m50.774 123.44v7.3984"/>
   <path d="m51.376 123.44-.5 7.3984"/>
   <path d="m52.075 123.44-1.1992 7.3008"/>
   <path d="m52.575 123.64-1.8008 7.1992"/>
   <path d="m134.38 109.24-1.8008-7.1992"/>
   <path d="m133.77 109.34-1.1992-7.2969"/>
   <path d="m133.08 109.44-.5-7.3984"/>
   <path d="m132.58 109.44v-7.3984"/>
   <path d="m131.97 109.44.5-7.3984"/>
   <path d="m131.27 109.34 1.1992-7.2969"/>
   <path d="m130.77 109.24 1.8008-7.1992"/>
   <path d="m132.58 102.04v28.797"/>
   <path d="m130.77 123.64 1.8008 7.1992"/>
   <path d="m131.27 123.44 1.1992 7.3008"/>
   <path d="m131.97 123.44.5 7.3984"/>
   <path d="m132.58 123.44v7.3984"/>
   <path d="m133.08 123.44-.5 7.3984"/>
   <path d="m133.77 123.44-1.1992 7.3008"/>
   <path d="m134.38 123.64-1.8008 7.1992"/>
   <path d="m216.08 109.24-1.8008-7.1992"/>
   <path d="m215.47 109.34-1.1992-7.2969"/>
   <path d="m214.77 109.44-.5-7.3984"/>
   <path d="m214.27 109.44v-7.3984"/>
   <path d="m213.68 109.44.5-7.3984"/>
   <path d="m212.97 109.34 1.2031-7.2969"/>
   <path d="m212.47 109.24 1.8008-7.1992"/>
   <path d="m214.27 102.04v28.797"/>
   <path d="m212.47 123.64 1.8008 7.1992"/>
   <path d="m212.97 123.44 1.2031 7.3008"/>
   <path d="m213.68 123.44.5 7.3984"/>
   <path d="m214.27 123.44v7.3984"/>
   <path d="m214.77 123.44-.5 7.3984"/>
   <path d="m215.47 123.44-1.1992 7.3008"/>
   <path d="m216.08 123.64-1.8008 7.1992"/>
   <path d="m134.38 159.64-1.8008-7.1992"/>
   <path d="m133.77 159.74-1.1992-7.3008"/>
   <path d="m133.08 159.84-.5-7.3984"/>
   <path d="m132.58 159.84v-7.3984"/>
   <path d="m131.97 159.84.5-7.3984"/>
   <path d="m131.27 159.74 1.1992-7.3008"/>
   <path d="m130.77 159.64 1.8008-7.1992"/>
   <path d="m132.58 152.44v31.602"/>
   <path d="m130.77 176.94 1.8008 7.1992"/>
   <path d="m131.27 176.74 1.1992 7.3008"/>
   <path d="m131.97 176.74.5 7.3984"/>
   <path d="m132.58 176.74v7.3984"/>
   <path d="m133.08 176.74-.5 7.3984"/>
   <path d="m133.77 176.74-1.1992 7.3008"/>
   <path d="m134.38 176.94-1.8008 7.1992"/>
  </g>
  <g stroke-width=".41667">
   <path d="m130.77 51.642 1.8008 7.1992"/>
   <path d="m131.27 51.443 1.1992 7.3008"/>
   <path d="m131.97 51.443.5 7.3984"/>
   <path d="m132.58 51.443v7.3984"/>
   <path d="m133.08 51.443-.5 7.3984"/>
   <path d="m133.77 51.443-1.1992 7.3008"/>
   <path d="m134.38 51.642-1.8008 7.1992"/>
   <path d="m132.58 58.842v-28.797"/>
   <path d="m134.38 37.244-1.8008-7.1992"/>
   <path d="m133.77 37.342-1.1992-7.2969"/>
   <path d="m133.08 37.443-.5-7.3984"/>
   <path d="m132.58 37.443v-7.3984"/>
   <path d="m131.97 37.443.5-7.3984"/>
   <path d="m131.27 37.342 1.1992-7.2969"/>
   <path d="m130.77 37.244 1.8008-7.1992"/>
   <path d="m99.376 82.244 7.1992-1.8008"/>
   <path d="m99.274 81.642 7.3008-1.1992"/>
   <path d="m99.177 81.045 7.3984-.5"/>
   <path d="m99.177 80.443h7.3984"/>
   <path d="m99.177 79.842 7.3984.5"/>
   <path d="m99.274 79.244 7.3008 1.1992"/>
   <path d="m99.376 78.642 7.1992 1.8008"/>
   <path d="m106.58 80.443h-34.199"/>
   <path d="m79.575 78.642-7.1992 1.8008"/>
   <path d="m79.774 79.244-7.3008 1.1992"/>
   <path d="m79.774 79.842-7.3984.5"/>
   <path d="m79.774 80.443h-7.3984"/>
   <path d="m79.774 81.045-7.3984-.5"/>
   <path d="m79.774 81.642-7.3008-1.1992"/>
   <path d="m79.575 82.244-7.1992-1.8008"/>
   <path d="m165.68 78.642-7.2031 1.8008"/>
   <path d="m165.77 79.244-7.3008 1.1992"/>
   <path d="m165.88 79.842-7.4024.5"/>
   <path d="m165.88 80.443h-7.4024"/>
   <path d="m165.88 81.045-7.4024-.5"/>
   <path d="m165.77 81.642-7.3008-1.1992"/>
   <path d="m165.68 82.244-7.2031-1.8008"/>
   <path d="m158.47 80.443h34.203"/>
   <path d="m185.47 82.244 7.2031-1.8008"/>
   <path d="m185.27 81.642 7.3008-1.1992"/>
   <path d="m185.27 81.045 7.4024-.5"/>
   <path d="m185.27 80.443h7.4024"/>
   <path d="m185.27 79.842 7.4024.5"/>
   <path d="m185.27 79.244 7.3008 1.1992"/>
   <path d="m185.47 78.642 7.2031 1.8008"/>
  </g>
  <path d="m159.18 162.54h-23" stroke-width=".25"/>
  <g stroke-width=".85">
   <path d="m143.38 160.74-7.1992 1.8008"/>
   <path d="m143.47 161.24-7.2969 1.1992"/>
   <path d="m143.58 161.94-7.3984.5"/>
   <path d="m143.58 162.54h-7.3984"/>
   <path d="m143.58 163.04-7.3984-.5"/>
   <path d="m143.47 163.74-7.2969-1.1992"/>
   <path d="m143.38 164.34-7.1992-1.7969"/>
  </g>
 </g>
 <g transform="translate(-155.42 -59.557)">
  <use x="318.20001" y="223.7" xlink:href="#k"/>
  <use x="321.75201" y="223.7" xlink:href="#s"/>
  <use x="325.75201" y="223.7" xlink:href="#n"/>
  <use x="327.97601" y="223.7" xlink:href="#k"/>
  <use x="331.52802" y="223.7" xlink:href="#r"/>
  <use x="334.19199" y="223.7" xlink:href="#i"/>
  <use x="338.19199" y="223.7" xlink:href="#q"/>
  <use x="341.74399" y="223.7" xlink:href="#p"/>
  <use x="346.10001" y="223.7" xlink:href="#m"/>
  <use x="349.65201" y="223.7" xlink:href="#l"/>
  <use x="353.65201" y="223.7" xlink:href="#i"/>
  <use x="357.65201" y="223.7" xlink:href="#i"/>
  <use x="361.65201" y="223.7" xlink:href="#k"/>
  <use x="365.20401" y="223.7" xlink:href="#m"/>
  <use x="368.75601" y="223.7" xlink:href="#n"/>
  <use x="370.98001" y="223.7" xlink:href="#t"/>
  <use x="373.20401" y="223.7" xlink:href="#l"/>
  <use x="377.20401" y="223.7" xlink:href="#i"/>
 </g>
</svg>
