<svg width="355" height="115" version="1.1" viewBox="0 0 355 115" xmlns="http://www.w3.org/2000/svg" xmlns:xlink="http://www.w3.org/1999/xlink">
 <defs>
  <g id="e">
   <path d="m2.4062-4.2344h-.625v-1.1562h-1.125v1.1562h-.54688v.75h.54688v2.6562c0 .67188.375 1.0156 1.1094 1.0156.25 0 .4375-.03125.64062-.09375v-.78125c-.10938.015625-.17188.03125-.25.03125-.29688 0-.375-.09375-.375-.48438v-2.3438h.625z"/>
  </g>
  <g id="a">
   <path d="m4.1875-.14062c-.1875-.17188-.25-.3125-.25-.51562v-2.4062c0-.875-.59375-1.3281-1.7656-1.3281s-1.7812.5-1.8594 1.5h1.0938c.046875-.45312.23438-.59375.78125-.59375.4375 0 .65625.14062.65625.42188 0 .15625-.078125.26562-.20312.34375-.14062.078125-.14062.078125-.70312.17188l-.4375.078125c-.85938.14062-1.2812.57812-1.2812 1.3594 0 .76562.53125 1.2969 1.3125 1.2969.48438 0 .92188-.20312 1.3125-.625 0 .23438.03125.3125.125.4375h1.2188zm-1.3438-1.5938c0 .64062-.32812 1.0156-.89062 1.0156-.375 0-.60938-.20312-.60938-.51562 0-.34375.17188-.5.64062-.59375l.39062-.078125c.28125-.046875.34375-.0625.46875-.14062z"/>
  </g>
  <g id="j">
   <path d="m3.2031-4.3125v.65625c-.3125-.5-.65625-.73438-1.1094-.73438-.39062 0-.8125.1875-1.1094.5-.4375.45312-.65625 1.0781-.65625 1.8281 0 1.3281.70312 2.25 1.7344 2.25.46875 0 .75-.15625 1.1406-.625v.57812c0 .51562-.375.89062-.90625.89062-.39062 0-.64062-.1875-.73438-.51562h-1.1406c0 .34375.125.57812.42188.8125.34375.28125.8125.42188 1.4219.42188 1.25 0 2-.60938 2-1.6094v-4.4531zm-.90625.85938c.53125 0 .92188.57812.92188 1.375s-.375 1.3281-.9375 1.3281c-.48438 0-.82812-.53125-.82812-1.3281 0-.8125.34375-1.375.84375-1.375z"/>
  </g>
  <g id="i">
   <path d="m2.7969 0 1.4844-4.3125h-1.1719l-.875 3.1562-.9375-3.1562h-1.1875l1.5156 4.3125z"/>
  </g>
  <g id="c">
   <path d="m1.6562-5.8281h-1.125v5.8281h1.125z"/>
  </g>
  <g id="h">
   <path d="m4.3281 0v-4.3125h-1.125v2.7031c0 .5-.34375.84375-.90625.84375-.46875 0-.71875-.26562-.71875-.78125v-2.7656h-1.1094v3c0 .95312.51562 1.5 1.4375 1.5.59375 0 .98438-.21875 1.2969-.70312v.51562z"/>
  </g>
  <g id="b">
   <path d="m4.1875-1.8125c.015625-.09375.015625-.125.015625-.1875 0-.4375-.0625-.82812-.17188-1.1406-.28125-.78125-.98438-1.25-1.8594-1.25-1.2344 0-2 .89062-2 2.3438 0 1.3906.75 2.2344 1.9844 2.2344.96875 0 1.75-.54688 2-1.4062h-1.1094c-.14062.34375-.45312.54688-.85938.54688-.3125 0-.57812-.14062-.73438-.375-.09375-.15625-.14062-.35938-.15625-.76562zm-2.875-.73438c.078125-.67188.34375-.98438.84375-.98438.51562 0 .8125.34375.875.98438z"/>
  </g>
  <g id="g">
   <path d="m1.7344-2.5312c.4375 0 .45312 0 .65625.046875.375.10938.625.4375.625.85938 0 .5-.35938.84375-.84375.84375-.53125 0-.8125-.29688-.85938-.875h-1.0781c0 1.125.73438 1.8438 1.9062 1.8438 1.2188 0 1.9844-.71875 1.9844-1.8125 0-.67188-.28125-1.1094-.92188-1.4219.51562-.32812.73438-.6875.73438-1.2031 0-.9375-.70312-1.5469-1.7969-1.5469-.82812 0-1.4531.35938-1.7031.98438-.09375.26562-.14062.45312-.14062.92188h1.0469c.015625-.29688.03125-.45312.09375-.59375.09375-.25.35938-.40625.6875-.40625.4375 0 .70312.28125.70312.75 0 .57812-.32812.85938-1 .85938h-.09375z"/>
  </g>
  <g id="f">
   <path d="m4.0938-1h-2.4062c.15625-.29688.32812-.46875 1.1562-1.0781.98438-.71875 1.2812-1.1406 1.2812-1.9062 0-1.1094-.76562-1.8125-1.9531-1.8125-1.1719 0-1.8594.70312-1.8594 1.9062v.1875h1.0781v-.17188c0-.64062.29688-1 .8125-1 .5 0 .79688.34375.79688.90625 0 .625-.1875.85938-1.4531 1.7656-.96875.65625-1.2656 1.1406-1.3125 2.2031h3.8594z"/>
  </g>
  <g id="l">
   <path d="m1.9062-3.9062v3.9062h1.125v-5.6719h-.75c-.17188.67188-.76562 1.0156-1.7344 1.0156v.75z"/>
  </g>
  <g id="k">
   <path d="m2.1875-5.7969c-.60938 0-1.125.26562-1.4688.73438-.32812.4375-.48438 1.1562-.48438 2.2656 0 1 .125 1.7031.39062 2.1406.34375.54688.89062.84375 1.5625.84375.60938 0 1.1094-.25 1.4688-.71875.3125-.4375.48438-1.1719.48438-2.2344 0-1.0469-.125-1.75-.40625-2.1875-.32812-.54688-.89062-.84375-1.5469-.84375zm0 .90625c.28125 0 .51562.15625.65625.45312.10938.25.17188.85938.17188 1.6406 0 .64062-.0625 1.2656-.14062 1.5-.125.34375-.375.51562-.6875.51562-.29688 0-.53125-.14062-.65625-.4375-.10938-.23438-.17188-.82812-.17188-1.5938 0-.67188.046875-1.3125.14062-1.5469.10938-.34375.35938-.53125.6875-.53125z"/>
  </g>
  <g id="t">
   <path d="m4.0625-2.6406v2.6406h1.1875v-5.8281h-1.2031v2.1875h-2.2969v-2.1875h-1.2031v5.8281h1.2031v-2.6406z"/>
  </g>
  <g id="d">
   <path d="m.5-4.3125v4.3125h1.125v-2.2969c0-.65625.32812-.98438.98438-.98438.125 0 .20312.015625.34375.03125v-1.1406h-.125c-.51562 0-.95312.32812-1.2031.92188v-.84375z"/>
  </g>
  <g id="s">
   <path d="m3.2344 0h1.125v-5.8281h-1.125v2.0625c-.28125-.42188-.64062-.625-1.1875-.625-1.0312 0-1.8125.98438-1.8125 2.2969 0 .57812.17188 1.1719.46875 1.5938.28125.42188.8125.6875 1.3438.6875.54688 0 .90625-.20312 1.1875-.625zm-.9375-3.4531c.5625 0 .9375.54688.9375 1.375 0 .78125-.375 1.3281-.9375 1.3281s-.9375-.54688-.9375-1.3438c0-.8125.375-1.3594.9375-1.3594z"/>
  </g>
  <g id="r">
   <path d="m4.9062 0 1.2188-4.3125h-1.1562l-.65625 3.0156-.65625-3.0156h-1.1094l-.65625 3.0156-.6875-3.0156h-1.1562l1.2031 4.3125h1.1562l.6875-3.0469.65625 3.0469z"/>
  </g>
  <g id="q">
   <path d="m1.7969-2.5156h2.5469v-1h-2.5469v-1.3125h2.8906v-1h-4.0938v5.8281h1.2031z"/>
  </g>
  <g id="p">
   <path d="m2.4062-4.3906c-1.3125 0-2.125.875-2.125 2.2812 0 1.4219.8125 2.2969 2.1406 2.2969 1.3125 0 2.125-.875 2.125-2.2656 0-1.4531-.78125-2.3125-2.1406-2.3125zm.015625.90625c.60938 0 1.0156.54688 1.0156 1.3906 0 .8125-.42188 1.375-1.0156 1.375-.60938 0-1.0156-.54688-1.0156-1.3906 0-.82812.40625-1.375 1.0156-1.375z"/>
  </g>
  <g id="o">
   <path d="m1.8125-2.0781h1.4844c1.0781 0 1.7656-.76562 1.7656-1.9531 0-1.1562-.65625-1.7969-1.875-1.7969h-2.5781v5.8281h1.2031zm0-1v-1.75h1.1094c.64062 0 .9375.28125.9375.875s-.29688.875-.9375.875z"/>
  </g>
  <g id="n">
   <path d="m3.0781-4.8281h1.7031v-1h-4.6719v1h1.7656v4.8281h1.2031z"/>
  </g>
  <g id="m">
   <path d="m4.0469-2.9219c-.015625-.92188-.73438-1.4688-1.8906-1.4688-1.0938 0-1.7656.54688-1.7656 1.4375 0 .29688.078125.53125.23438.70312.15625.15625.28125.21875.70312.35938l1.3281.42188c.28125.078125.39062.17188.39062.34375 0 .26562-.3125.42188-.84375.42188-.29688 0-.51562-.046875-.65625-.14062-.125-.09375-.17188-.1875-.21875-.40625h-1.0938c.03125.95312.71875 1.4375 2.0312 1.4375.60938 0 1.0625-.125 1.375-.39062.32812-.25.51562-.65625.51562-1.0781 0-.5625-.28125-.92188-.84375-1.0938l-1.4219-.40625c-.3125-.09375-.39062-.15625-.39062-.32812 0-.25.26562-.40625.65625-.40625.53125 0 .79688.20312.79688.59375z"/>
  </g>
 </defs>
 <g fill="none" stroke="#000" stroke-linecap="round" stroke-miterlimit="10" stroke-width=".66667">
  <path d="m4.4218 110.07v-46"/>
  <path d="m4.4218 63.964h126"/>
  <path d="m130.42 63.964v46"/>
  <path d="m130.42 110.07h-126"/>
  <path d="m72.82 63.964v46"/>
  <path d="m4.4218 75.464h126"/>
  <path d="m4.4218 86.964h126"/>
  <path d="m4.4218 98.566h126"/>
  <path d="m216.82 110.07v-46"/>
  <path d="m216.82 63.964h126"/>
  <path d="m342.82 63.964v46"/>
  <path d="m342.82 110.07h-126"/>
  <path d="m285.22 63.964v46"/>
  <path d="m216.82 75.464h126"/>
  <path d="m216.82 86.964h126"/>
  <path d="m216.82 98.566h126"/>
 </g>
 <g>
  <g transform="translate(-114.38 -61.036)" fill="#ff00ff">
   <use x="147" y="121.2" xlink:href="#e"/>
   <use x="149.664" y="121.2" xlink:href="#a"/>
   <use x="154.112" y="121.2" xlink:href="#j"/>
   <use x="359.39999" y="121.2" xlink:href="#e"/>
   <use x="362.064" y="121.2" xlink:href="#a"/>
   <use x="366.51199" y="121.2" xlink:href="#j"/>
  </g>
  <g transform="translate(-114.38 -61.036)" fill="#007fff">
   <use x="205.7" y="121.2" xlink:href="#i"/>
   <use x="210.14799" y="121.2" xlink:href="#a"/>
   <use x="214.59599" y="121.2" xlink:href="#c"/>
   <use x="216.82001" y="121.2" xlink:href="#h"/>
   <use x="221.70799" y="121.2" xlink:href="#b"/>
   <use x="418.10001" y="121.2" xlink:href="#i"/>
   <use x="422.548" y="121.2" xlink:href="#a"/>
   <use x="426.996" y="121.2" xlink:href="#c"/>
   <use x="429.22" y="121.2" xlink:href="#h"/>
   <use x="434.108" y="121.2" xlink:href="#b"/>
  </g>
  <g transform="translate(-114.38 -61.036)" fill="#f00">
   <use x="249.8" y="132.7" fill="#ff0000" xlink:href="#g"/>
  </g>
  <g transform="translate(-114.38 -61.036)" fill="#f60">
   <use x="249.8" y="144.2" fill="#ff6600" xlink:href="#f"/>
  </g>
  <g transform="translate(-114.38 -61.036)" fill="#fc0">
   <use x="249.8" y="155.8" fill="#ffcc00" xlink:href="#l"/>
  </g>
  <g transform="translate(-114.38 -61.036)" fill="#0f0">
   <use x="249.8" y="167.3" fill="#00ff00" xlink:href="#k"/>
  </g>
  <g transform="translate(-114.38 -61.036)" fill="#f00">
   <use x="462.20001" y="132.7" fill="#ff0000" xlink:href="#g"/>
  </g>
  <g transform="translate(-114.38 -61.036)" fill="#f60">
   <use x="462.20001" y="144.2" fill="#ff6600" xlink:href="#f"/>
  </g>
  <g transform="translate(-114.38 -61.036)" fill="#fc0">
   <use x="462.20001" y="155.8" fill="#ffcc00" xlink:href="#l"/>
  </g>
  <g transform="translate(-114.38 -61.036)" fill="#0f0">
   <use x="462.20001" y="167.3" fill="#00ff00" xlink:href="#k"/>
  </g>
 </g>
 <g fill="none" stroke="#000" stroke-linecap="round" stroke-miterlimit="10" stroke-width=".66667">
  <path d="m116.02 27.964v-23"/>
  <path d="m116.02 4.9644h115.2"/>
  <path d="m231.22 4.9644v23"/>
  <path d="m231.22 27.964h-115.2"/>
  <path d="m202.42 27.964 18 36"/>
  <path d="m215.52 58.363 4.8008 5.6016"/>
  <path d="m216.02 57.964 4.3008 5.8984"/>
  <path d="m216.52 57.664 3.8008 6.3008"/>
  <path d="m217.02 57.363 3.3008 6.6016"/>
  <path d="m217.62 57.066 2.6992 6.8984"/>
  <path d="m218.22 56.863 2.0977 7"/>
  <path d="m218.82 56.664 1.5 7.1992"/>
  <path d="m144.82 27.964-18 36"/>
  <path d="m128.32 56.664-1.5 7.1992"/>
  <path d="m128.92 56.863-2.1016 7"/>
  <path d="m129.52 57.066-2.6992 6.8984"/>
  <path d="m130.12 57.363-3.3008 6.6016"/>
  <path d="m130.62 57.664-3.8008 6.3008"/>
  <path d="m131.12 57.964-4.3008 5.8984"/>
  <path d="m131.62 58.363-4.8008 5.6016"/>
 </g>
 <g transform="translate(-114.38 -61.036)" fill="#ff6600">
  <use x="237.39999" y="80.5" xlink:href="#t"/>
  <use x="243.17599" y="80.5" xlink:href="#a"/>
  <use x="247.62399" y="80.5" xlink:href="#d"/>
  <use x="250.73599" y="80.5" xlink:href="#s"/>
  <use x="255.62399" y="80.5" xlink:href="#r"/>
  <use x="261.84799" y="80.5" xlink:href="#a"/>
  <use x="266.29599" y="80.5" xlink:href="#d"/>
  <use x="269.40799" y="80.5" xlink:href="#b"/>
  <use x="276.20001" y="80.5" xlink:href="#q"/>
  <use x="281.08801" y="80.5" xlink:href="#p"/>
  <use x="285.97601" y="80.5" xlink:href="#d"/>
  <use x="291.30002" y="80.5" xlink:href="#o"/>
  <use x="296.63602" y="80.5" xlink:href="#a"/>
  <use x="301.08401" y="80.5" xlink:href="#d"/>
  <use x="304.19601" y="80.5" xlink:href="#a"/>
  <use x="308.64401" y="80.5" xlink:href="#c"/>
  <use x="310.86801" y="80.5" xlink:href="#c"/>
  <use x="313.09201" y="80.5" xlink:href="#b"/>
  <use x="317.54001" y="80.5" xlink:href="#c"/>
  <use x="322.10001" y="80.5" xlink:href="#n"/>
  <use x="326.98801" y="80.5" xlink:href="#b"/>
  <use x="331.436" y="80.5" xlink:href="#m"/>
  <use x="335.884" y="80.5" xlink:href="#e"/>
 </g>
</svg>
