<svg width="340" height="110" version="1.1" viewBox="0 0 340 110" xmlns="http://www.w3.org/2000/svg" xmlns:xlink="http://www.w3.org/1999/xlink">
 <defs>
  <g id="i">
   <path d="m4.1719-2.7031c-.078125-1.0625-.76562-1.6875-1.8594-1.6875-1.2969 0-2.0469.84375-2.0469 2.3125 0 1.4375.75 2.2656 2.0312 2.2656 1.0469 0 1.7812-.65625 1.875-1.6875h-1.0625c-.14062.5625-.35938.78125-.8125.78125-.5625 0-.90625-.5-.90625-1.3594 0-.40625.078125-.78125.21875-1.0469.125-.23438.375-.35938.6875-.35938.46875 0 .67188.21875.8125.78125z"/>
  </g>
  <g id="g">
   <path d="m1.6562-4.3125h-1.125v4.3125h1.125zm0-1.5156h-1.125v1h1.125z"/>
  </g>
  <g id="l">
   <path d="m.5-4.3125v4.3125h1.125v-2.2969c0-.65625.32812-.98438.98438-.98438.125 0 .20312.015625.34375.03125v-1.1406h-.125c-.51562 0-.95312.32812-1.2031.92188v-.84375z"/>
  </g>
  <g id="ad">
   <path d="m4.3281 0v-4.3125h-1.125v2.7031c0 .5-.34375.84375-.90625.84375-.46875 0-.71875-.26562-.71875-.78125v-2.7656h-1.1094v3c0 .95312.51562 1.5 1.4375 1.5.59375 0 .98438-.21875 1.2969-.70312v.51562z"/>
  </g>
  <g id="r">
   <path d="m2.4062-4.2344h-.625v-1.1562h-1.125v1.1562h-.54688v.75h.54688v2.6562c0 .67188.375 1.0156 1.1094 1.0156.25 0 .4375-.03125.64062-.09375v-.78125c-.10938.015625-.17188.03125-.25.03125-.29688 0-.375-.09375-.375-.48438v-2.3438h.625z"/>
  </g>
  <g id="ac">
   <path d="m.46875-5.8281v5.8281h1.125v-.4375c.26562.42188.64062.625 1.1875.625 1.0312 0 1.8125-.98438 1.8125-2.2969 0-.57812-.17188-1.1719-.45312-1.5938-.29688-.42188-.82812-.6875-1.3594-.6875-.54688 0-.92188.20312-1.1875.625v-2.0625zm2.0625 2.375c.5625 0 .95312.5625.95312 1.3594s-.39062 1.3438-.95312 1.3438-.9375-.53125-.9375-1.375c0-.78125.375-1.3281.9375-1.3281z"/>
  </g>
  <g id="ab">
   <path d="m2.4062-4.3906c-1.3125 0-2.125.875-2.125 2.2812 0 1.4219.8125 2.2969 2.1406 2.2969 1.3125 0 2.125-.875 2.125-2.2656 0-1.4531-.78125-2.3125-2.1406-2.3125zm.015625.90625c.60938 0 1.0156.54688 1.0156 1.3906 0 .8125-.42188 1.375-1.0156 1.375-.60938 0-1.0156-.54688-1.0156-1.3906 0-.82812.40625-1.375 1.0156-1.375z"/>
  </g>
  <g id="q">
   <path d="m4.1875-.14062c-.1875-.17188-.25-.3125-.25-.51562v-2.4062c0-.875-.59375-1.3281-1.7656-1.3281s-1.7812.5-1.8594 1.5h1.0938c.046875-.45312.23438-.59375.78125-.59375.4375 0 .65625.14062.65625.42188 0 .15625-.078125.26562-.20312.34375-.14062.078125-.14062.078125-.70312.17188l-.4375.078125c-.85938.14062-1.2812.57812-1.2812 1.3594 0 .76562.53125 1.2969 1.3125 1.2969.48438 0 .92188-.20312 1.3125-.625 0 .23438.03125.3125.125.4375h1.2188zm-1.3438-1.5938c0 .64062-.32812 1.0156-.89062 1.0156-.375 0-.60938-.20312-.60938-.51562 0-.34375.17188-.5.64062-.59375l.39062-.078125c.28125-.046875.34375-.0625.46875-.14062z"/>
  </g>
  <g id="p">
   <path d="m3.2344 0h1.125v-5.8281h-1.125v2.0625c-.28125-.42188-.64062-.625-1.1875-.625-1.0312 0-1.8125.98438-1.8125 2.2969 0 .57812.17188 1.1719.46875 1.5938.28125.42188.8125.6875 1.3438.6875.54688 0 .90625-.20312 1.1875-.625zm-.9375-3.4531c.5625 0 .9375.54688.9375 1.375 0 .78125-.375 1.3281-.9375 1.3281s-.9375-.54688-.9375-1.3438c0-.8125.375-1.3594.9375-1.3594z"/>
  </g>
  <g id="ai">
   <path d="m1.625-5.8281c-.92188 1.3906-1.3125 2.4688-1.3125 3.7031 0 1.25.39062 2.3281 1.3125 3.7188h.79688c-.85938-1.6406-1.125-2.5312-1.125-3.7188 0-1.1719.28125-2.0781 1.125-3.7031z"/>
  </g>
  <g id="h">
   <path d="m4.1875-1.8125c.015625-.09375.015625-.125.015625-.1875 0-.4375-.0625-.82812-.17188-1.1406-.28125-.78125-.98438-1.25-1.8594-1.25-1.2344 0-2 .89062-2 2.3438 0 1.3906.75 2.2344 1.9844 2.2344.96875 0 1.75-.54688 2-1.4062h-1.1094c-.14062.34375-.45312.54688-.85938.54688-.3125 0-.57812-.14062-.73438-.375-.09375-.15625-.14062-.35938-.15625-.76562zm-2.875-.73438c.078125-.67188.34375-.98438.84375-.98438.51562 0 .8125.34375.875.98438z"/>
  </g>
  <g id="ah">
   <path d="m2.7969 0 1.4844-4.3125h-1.1719l-.875 3.1562-.9375-3.1562h-1.1875l1.5156 4.3125z"/>
  </g>
  <g id="ag">
   <path d="m.5-4.3125v4.3125h1.125v-2.5938c0-.51562.34375-.84375.90625-.84375.48438 0 .71875.26562.71875.78125v2.6562h1.125v-2.8906c0-.96875-.53125-1.5-1.4531-1.5-.57812 0-.98438.20312-1.2969.6875v-.60938z"/>
  </g>
  <g id="af">
   <path d="m2.5-4.2344h-.65625v-.42188c0-.21875.09375-.32812.29688-.32812.10938 0 .21875 0 .32812.015625v-.84375c-.25-.015625-.48438-.015625-.64062-.015625-.75 0-1.1094.34375-1.1094 1.0781v.51562h-.60938v.75h.60938v3.4844h1.125v-3.4844h.65625z"/>
  </g>
  <g id="ae">
   <path d="m.96875 1.5938c.92188-1.3906 1.3125-2.4688 1.3125-3.7031 0-1.25-.39062-2.3281-1.3125-3.7188h-.79688c.85938 1.6406 1.125 2.5312 1.125 3.7188 0 1.1719-.26562 2.0781-1.125 3.7031z"/>
  </g>
  <g id="aa">
   <path d="m5.5156-.9375c-.03125.046875-.078125.078125-.10938.125-.14062.17188-.20312.25-.21875.26562-.17188.1875-.25.25-.35938.25-.0625 0-.09375-.046875-.09375-.14062 0-.03125.03125-.15625.078125-.35938l.54688-2c0-.046875.015625-.17188.015625-.23438 0-.28125-.20312-.5-.46875-.5-.15625 0-.3125.0625-.5.17188-.39062.26562-.71875.64062-1.2812 1.5312.21875-.625.32812-1.0625.32812-1.2188 0-.29688-.1875-.48438-.46875-.48438-.48438 0-1.0469.53125-1.7812 1.6875l.46875-1.6719-.03125-.015625c-.42188.09375-.59375.125-1.2656.25v.125c.35938.015625.35938.015625.4375.046875.03125.015625.0625.078125.0625.14062 0 .09375-.1875.82812-.46875 1.8281-.17188.60938-.20312.73438-.3125 1.1406h.60938c.375-1.2656.5-1.5625.76562-1.9844.45312-.6875.9375-1.125 1.2031-1.125.10938 0 .15625.0625.15625.20312 0 .09375-.23438 1.0469-.5625 2.1719-.0625.23438-.09375.34375-.1875.73438h.59375c.3125-1.25.48438-1.6562.89062-2.2188.39062-.54688.79688-.89062 1.0156-.89062.09375 0 .17188.0625.17188.17188 0 .03125-.015625.10938-.0625.28125l-.46875 1.8281c-.078125.3125-.09375.45312-.09375.53125 0 .23438.10938.375.3125.375.375 0 .73438-.26562 1.1562-.85938l.03125-.0625z"/>
  </g>
  <g id="b">
   <path d="m2.5938-3.5312c-.34375 0-.65625.09375-.98438.26562-.8125.46875-1.3906 1.3906-1.3906 2.2344 0 .6875.4375 1.125 1.1719 1.125.53125 0 1.0469-.23438 1.5-.70312.53125-.51562.85938-1.1875.85938-1.7969 0-.67188-.46875-1.125-1.1562-1.125zm-.09375.17188c.34375 0 .57812.29688.57812.75 0 .59375-.26562 1.3906-.625 1.9062-.29688.42188-.59375.625-.9375.625-.375 0-.625-.29688-.625-.73438 0-.59375.23438-1.2969.625-1.8594.3125-.45312.64062-.6875.98438-.6875z"/>
  </g>
  <g id="c">
   <path d="m2.375-3.4219h-.64062l.21875-.82812v-.046875c0-.046875-.015625-.078125-.0625-.078125s-.0625.015625-.10938.078125c-.3125.40625-.8125.8125-1.0625.875-.20312.0625-.26562.125-.26562.20312 0 .015625 0 .03125.015625.046875h.59375l-.57812 2.2031c-.015625.078125-.03125.10938-.046875.17188-.078125.26562-.14062.51562-.14062.59375 0 .15625.17188.29688.39062.29688.35938 0 .625-.23438 1.125-.96875l-.09375-.0625c-.40625.5-.53125.64062-.65625.64062-.078125 0-.125-.0625-.125-.17188l.015625-.03125.70312-2.6719h.67188z"/>
  </g>
  <g id="t">
   <path d="m3.7188-.9375c-.4375.53125-.53125.64062-.65625.64062-.078125 0-.125-.078125-.125-.15625s.125-.57812.26562-1c.23438-.73438.375-1.3438.375-1.5312 0-.32812-.20312-.54688-.51562-.54688-.53125 0-1.0938.51562-1.8438 1.6875l.96875-3.5781-.046875-.046875c-.48438.10938-.78125.17188-1.25.21875v.125h.20312c.1875-.015625.32812.078125.32812.20312 0 .10938-.03125.29688-.10938.53125-.015625.015625-.046875.125-.078125.29688l-1.0781 4.0938h.59375c.32812-1.2344.42188-1.5.75-1.9844.40625-.64062.95312-1.1406 1.2344-1.1406.125 0 .21875.09375.21875.20312 0 .03125-.015625.14062-.046875.26562l-.4375 1.6562c-.10938.39062-.17188.64062-.17188.73438 0 .20312.14062.34375.35938.34375.40625 0 .6875-.21875 1.1719-.92188z"/>
  </g>
  <g id="a">
   <path d="m2.8594-.875c-.57812.46875-.8125.60938-1.1719.60938-.45312 0-.75-.29688-.75-.73438 0-.125.015625-.23438.09375-.48438l.21875-.03125c1.2031-.17188 2.0469-.78125 2.0469-1.4688 0-.32812-.23438-.54688-.64062-.54688-1.1562 0-2.4062 1.3125-2.4062 2.5156 0 .65625.4375 1.1094 1.0469 1.1094.57812 0 1.1875-.32812 1.6562-.875zm-1.6406-1.1406c.26562-.71875.85938-1.3281 1.2656-1.3281.17188 0 .28125.125.28125.3125 0 .25-.15625.53125-.39062.78125-.29688.28125-.60938.42188-1.2969.59375z"/>
  </g>
  <g id="k">
   <path d="m.96875 0c.42188-1.375.54688-1.7031.92188-2.3125.26562-.45312.48438-.70312.625-.70312.046875 0 .078125.046875.125.125.0625.125.125.17188.28125.17188.25 0 .375-.14062.375-.40625 0-.23438-.15625-.40625-.375-.40625-.1875 0-.40625.125-.60938.34375-.32812.34375-.65625.79688-.78125 1.125l-.10938.28125.42188-1.7344-.015625-.015625c-.59375.10938-.65625.125-1.25.21875v.14062c.1875-.03125.21875-.046875.28125-.046875.17188 0 .28125.078125.28125.23438 0 .10938 0 .10938-.125.64062l-.65625 2.3438z"/>
  </g>
  <g id="s">
   <path d="m.875-5.1406c.48438.015625.53125.03125.53125.21875 0 .0625-.015625.15625-.078125.34375l-.046875.14062-.015625.0625-1.0781 4v.03125c0 .1875.60938.4375 1.0625.4375 1.2031 0 2.5312-1.3906 2.5312-2.6562 0-.5625-.39062-.96875-.92188-.96875-.5625 0-.98438.32812-1.5469 1.2188.40625-1.5.46875-1.7344.82812-3.1094l-.03125-.046875c-.40625.078125-.64062.10938-1.2344.1875zm1.6719 2c.34375 0 .5625.26562.5625.6875 0 .53125-.40625 1.3906-.89062 1.8906-.29688.29688-.64062.46875-.98438.46875-.25 0-.35938-.09375-.35938-.28125 0-.46875.23438-1.2344.57812-1.8438s.70312-.92188 1.0938-.92188z"/>
  </g>
  <g id="m">
   <path d="m3.7188-.875-.23438.21875c-.25.25-.34375.32812-.40625.32812s-.125-.046875-.125-.10938c0-.15625.34375-1.5312.71875-2.9062.03125-.078125.03125-.09375.046875-.15625l-.0625-.03125-.48438.0625-.015625.015625-.09375.39062c-.0625-.29688-.29688-.46875-.64062-.46875-1.0625 0-2.2812 1.4531-2.2812 2.7344 0 .5625.29688.89062.8125.89062.5625 0 .90625-.26562 1.6094-1.2656-.17188.65625-.1875.71875-.1875.92188 0 .23438.09375.32812.32812.32812.3125 0 .5-.15625 1.1094-.875zm-1.25-2.4844c.28125.015625.45312.21875.45312.5 0 .67188-.40625 1.6094-.95312 2.2031-.1875.21875-.46875.35938-.70312.35938-.28125 0-.45312-.23438-.45312-.59375 0-.45312.29688-1.2656.64062-1.7656.32812-.46875.6875-.71875 1.0156-.70312z"/>
  </g>
  <g id="j">
   <path d="m3.7031-.89062c-.4375.5-.51562.57812-.65625.57812-.078125 0-.14062-.078125-.14062-.17188 0-.125.25-1.0625.51562-1.9688.1875-.64062.34375-1.2188.79688-2.9688l-.046875-.046875c-.40625.09375-.70312.14062-1.2188.1875v.14062c.4375.015625.5.03125.5.20312 0 .10938-.015625.14062-.125.5625l-.35938 1.3125c-.0625-.34375-.20312-.46875-.51562-.46875-1.0312 0-2.3281 1.5-2.3281 2.7031 0 .57812.3125.92188.82812.92188.54688 0 .90625-.26562 1.4531-1.0625-.09375.40625-.10938.53125-.10938.71875 0 .20312.14062.35938.32812.35938.34375 0 .76562-.32812 1.1719-.92188zm-1.2188-2.4531c.25.015625.35938.17188.35938.45312 0 1.2188-.82812 2.5938-1.5625 2.5938-.28125 0-.46875-.20312-.46875-.53125 0-.65625.40625-1.5938.9375-2.1406.21875-.23438.51562-.39062.73438-.375z"/>
  </g>
  <g id="z">
   <path d="m1.2656 1.4062c-.29688-.82812-.375-1.3125-.375-2.0938 0-.95312.21875-2.1094.59375-3 .26562-.625.51562-1 1.0312-1.5469l-.09375-.125c-1.0469.95312-1.4531 1.4844-1.7969 2.3125-.20312.5-.28125.98438-.28125 1.6094 0 .60938.09375 1.2188.26562 1.7656.10938.32812.23438.59375.51562 1.125z"/>
  </g>
  <g id="o">
   <path d="m.28125-1.1719-.15625 1.2812h.125c.078125-.14062.10938-.17188.20312-.17188.078125 0 .23438.03125.39062.078125.1875.046875.29688.078125.4375.078125.67188 0 1.1562-.4375 1.1562-1.0469 0-.3125-.17188-.65625-.54688-1.125-.3125-.375-.4375-.625-.4375-.84375 0-.26562.17188-.42188.45312-.42188.40625 0 .65625.29688.73438.92188h.125l.15625-1.1094h-.10938c-.0625.10938-.10938.14062-.23438.14062-.0625 0-.14062-.015625-.29688-.0625-.1875-.0625-.3125-.078125-.4375-.078125-.59375 0-.96875.34375-.96875.89062 0 .25.17188.59375.5 1.0312.3125.40625.45312.6875.45312.90625 0 .375-.25.625-.59375.625-.45312 0-.6875-.32812-.8125-1.0938z"/>
  </g>
  <g id="f">
   <path d="m1.7812-.90625c-.20312.26562-.25.32812-.32812.40625-.14062.125-.26562.21875-.32812.21875s-.14062-.0625-.14062-.125c0-.078125.03125-.20312.09375-.35938l.03125-.14062.015625-.015625v-.015625l.70312-2.5781-.03125-.015625c-.8125.15625-.96875.17188-1.2812.20312v.125c.4375.015625.51562.03125.51562.1875 0 .078125-.03125.20312-.078125.35938l-.39062 1.4219c-.125.46875-.17188.70312-.17188.85938 0 .29688.125.46875.375.46875.375 0 .65625-.25 1.1094-.92188zm-.0625-4.3281c-.21875 0-.375.17188-.375.42188 0 .26562.14062.42188.375.42188.20312 0 .39062-.17188.39062-.40625s-.1875-.4375-.39062-.4375z"/>
  </g>
  <g id="n">
   <path d="m.17188-3.2188c.078125-.015625.14062-.015625.23438-.015625.3125 0 .39062.14062.5.875.09375.5625.1875 1.7344.1875 2.2188 0 .23438 0 .28125.0625.28125.20312 0 .9375-.8125 1.7656-1.9844.28125-.39062.48438-.90625.48438-1.2188 0-.25-.20312-.46875-.45312-.46875-.17188 0-.29688.10938-.29688.28125 0 .125.0625.21875.20312.34375.09375.09375.14062.15625.14062.25 0 .375-.51562 1.25-1.0938 1.8438l-.25.25c-.0625-1.125-.10938-1.5469-.20312-2.1406-.17188-.8125-.17188-.82812-.23438-.82812-.046875 0-.09375.015625-.15625.03125-.14062.03125-.625.125-.89062.17188z"/>
  </g>
  <g id="y">
   <path d="m.125-3.2188.15625-.015625c.28125.015625.32812.03125.39062.1875.09375.26562.23438 1.3594.26562 2.1094l.03125.70312c.015625.3125.03125.375.10938.375s.21875-.20312.5-.75c.046875-.09375.20312-.35938.45312-.79688l.70312-1.2344.23438 2.5469c.015625.21875.03125.23438.09375.23438s.14062-.0625.35938-.34375c0 0 .03125-.046875.0625-.078125 1.0938-1.3125 1.7031-2.3125 1.7031-2.8281 0-.25-.17188-.42188-.42188-.42188-.20312 0-.3125.10938-.3125.28125 0 .09375.046875.17188.17188.28125.125.125.17188.20312.17188.3125 0 .34375-.26562.76562-1.3125 2.0625l-.26562-2.8125c0-.09375-.015625-.10938-.0625-.10938-.03125 0-.0625.015625-.09375.078125l-1.5469 2.4219c-.015625-.54688-.10938-1.3906-.20312-1.9375-.078125-.51562-.09375-.57812-.1875-.57812-.046875 0-.14062.03125-.25.0625 0 0-.28125.0625-.53125.09375-.046875 0-.125.015625-.21875.03125z"/>
  </g>
  <g id="x">
   <path d="m.23438 1.4375c.98438-.85938 1.3906-1.375 1.75-2.25.23438-.53125.32812-1.0312.32812-1.625 0-.45312-.0625-.96875-.17188-1.4375-.14062-.54688-.26562-.84375-.625-1.4844l-.14062.046875c.26562.65625.39062 1.2969.39062 2.0938 0 1.0156-.28125 2.3125-.67188 3.1719-.23438.51562-.48438.85938-.96875 1.3594z"/>
  </g>
  <g id="e">
   <path d="m2.7969-.84375c-.4375.46875-.75.64062-1.1406.64062-.45312 0-.73438-.32812-.73438-.90625 0-.6875.28125-1.4062.73438-1.8594.23438-.25.54688-.39062.875-.39062.1875 0 .29688.0625.29688.15625 0 .046875-.015625.078125-.046875.15625-.0625.10938-.078125.15625-.078125.23438 0 .1875.125.29688.3125.29688.21875 0 .39062-.14062.39062-.35938 0-.375-.35938-.65625-.84375-.65625-1.2031 0-2.3281 1.1719-2.3281 2.4219 0 .75.4375 1.2031 1.1875 1.2031.59375 0 1.0156-.25 1.5-.85938z"/>
  </g>
  <g id="w">
   <path d="m3.3125-.875c-.28125.5-.34375.54688-.48438.54688-.17188 0-.32812-.26562-.64062-1.0312-.046875-.10938-.15625-.39062-.29688-.70312 1.1875-1.0469 1.4062-1.2031 1.7969-1.2344v-.125h-1.4688v.125c.34375.015625.4375.046875.4375.14062 0 .17188-.39062.54688-1.1406 1.125-.10938.09375-.23438.17188-.34375.26562l.96875-3.6562-.046875-.046875c-.48438.10938-.79688.17188-1.25.21875v.125c.39062 0 .54688.046875.54688.20312-.015625.14062-.078125.35938-.17188.71875-.03125.10938-.0625.20312-.078125.26562l-.015625.078125-1.0156 3.8594h.60938l.375-1.4375.34375-.26562c.125.35938.32812.85938.46875 1.1406.26562.5.40625.65625.64062.65625.3125 0 .51562-.20312.89062-.875z"/>
  </g>
  <g id="v">
   <path d="m3.2188-.89062c-.0625.078125-.10938.125-.17188.21875-.1875.23438-.28125.3125-.39062.3125s-.17188-.09375-.23438-.32812c-.015625-.078125-.015625-.09375-.03125-.125-.20312-.8125-.28125-1.1719-.28125-1.2969.35938-.625.64062-.96875.78125-.96875.046875 0 .125.015625.1875.0625.09375.0625.15625.078125.21875.078125.17188 0 .28125-.125.28125-.29688s-.14062-.29688-.32812-.29688c-.35938 0-.65625.29688-1.2031 1.1406l-.09375-.4375c-.10938-.54688-.20312-.70312-.42188-.70312-.17188 0-.4375.0625-.9375.23438-.046875.015625-.046875.015625-.078125.03125l.03125.125c.3125-.078125.35938-.09375.4375-.09375.20312 0 .25.078125.375.54688l.21875.98438-.65625.9375c-.15625.25-.3125.39062-.40625.39062-.046875 0-.125-.03125-.20312-.078125-.10938-.046875-.1875-.078125-.25-.078125-.17188 0-.28125.125-.28125.28125 0 .20312.15625.34375.40625.34375s.34375-.078125.73438-.5625c.21875-.26562.39062-.5.71875-.9375l.25.95312c.09375.42188.20312.54688.46875.54688.29688 0 .5-.20312.96875-.92188z"/>
  </g>
  <g id="d">
   <path d="m3.6875-.9375c-.4375.54688-.53125.64062-.65625.64062-.078125 0-.14062-.0625-.14062-.14062 0-.0625.03125-.20312.125-.5l.45312-1.6406c.03125-.17188.0625-.34375.0625-.46875 0-.29688-.21875-.48438-.51562-.48438-.51562 0-1.0312.48438-1.8438 1.7656l.53125-1.75-.015625-.015625c-.4375.09375-.60938.125-1.2969.25v.125c.40625.015625.5.0625.5.21875 0 .046875 0 .09375-.015625.14062l-.76562 2.7969h.60938c.375-1.2656.4375-1.4375.79688-1.9844.46875-.73438.89062-1.1406 1.1875-1.1406.10938 0 .1875.09375.1875.23438 0 .09375-.046875.35938-.10938.60938l-.35938 1.3281c-.10938.40625-.125.51562-.125.59375 0 .29688.10938.4375.375.4375.35938 0 .5625-.17188 1.125-.90625z"/>
  </g>
  <g id="u">
   <path d="m1.8281-.98438c-.53125.67188-.59375.73438-.76562.73438-.078125 0-.125-.046875-.125-.15625 0-.0625.03125-.15625.078125-.3125 0-.03125.015625-.046875.015625-.0625v-.015625l1.2031-4.625-.046875-.046875c-.46875.10938-.78125.17188-1.25.21875v.125c.39062 0 .54688.046875.54688.1875 0 .03125 0 .078125-.015625.14062l-1.1094 4.2344c-.015625.078125-.03125.14062-.03125.20312 0 .29688.14062.45312.39062.45312.42188 0 .6875-.23438 1.2031-1z"/>
  </g>
 </defs>
 <g stroke="#000203" stroke-linecap="round" stroke-miterlimit="10" stroke-width=".66667">
  <path d="m6.9983 99.045h288"/>
  <path d="m6.9983 99.244h288"/>
  <path d="m6.9983 99.444h288"/>
  <path d="m6.9983 99.643h288"/>
  <path d="m6.9983 99.846h288"/>
  <path d="m6.9983 100.05h288"/>
  <path d="m6.9983 100.14h288"/>
  <path d="m6.9983 100.35h288"/>
  <path d="m6.9983 100.55h288"/>
  <path d="m6.9983 100.74h288"/>
  <path d="m6.9983 100.85h288"/>
  <path d="m6.9983 101.05h288"/>
  <path d="m6.9983 101.24h288"/>
  <path d="m6.9983 101.44h288"/>
  <path d="m6.9983 101.64h288"/>
  <path d="m6.9983 101.85h288"/>
  <path d="m6.9983 101.94h288"/>
  <path d="m6.9983 102.14h288"/>
  <path d="m6.9983 102.35h288"/>
  <path d="m6.9983 102.55h288"/>
  <path d="m6.9983 102.64h288"/>
  <path d="m6.9983 102.85h288"/>
  <path d="m6.9983 103.05h288"/>
  <path d="m6.9983 103.24h288"/>
  <path d="m6.9983 103.44h288"/>
  <path d="m6.9983 103.64h288"/>
  <path d="m6.9983 103.74h288"/>
  <path d="m6.9983 103.94h288"/>
  <path d="m6.9983 104.14h288"/>
  <path d="m219.4 99.045v-8.6016"/>
  <path d="m219.4 90.444h57.598"/>
  <path d="m277 90.444v8.6016"/>
  <path d="m277 99.045h-57.598"/>
 </g>
 <g transform="translate(-120.4 -56.756)" fill="#ff6600">
  <use x="319.20001" y="87.099998" xlink:href="#i"/>
  <use x="323.64801" y="87.099998" xlink:href="#g"/>
  <use x="325.87201" y="87.099998" xlink:href="#l"/>
  <use x="328.98401" y="87.099998" xlink:href="#i"/>
  <use x="333.43201" y="87.099998" xlink:href="#ad"/>
  <use x="338.32001" y="87.099998" xlink:href="#g"/>
  <use x="340.54401" y="87.099998" xlink:href="#r"/>
  <use x="345.39999" y="87.099998" xlink:href="#ac"/>
  <use x="350.28799" y="87.099998" xlink:href="#ab"/>
  <use x="355.17599" y="87.099998" xlink:href="#q"/>
  <use x="359.62399" y="87.099998" xlink:href="#l"/>
  <use x="362.73599" y="87.099998" xlink:href="#p"/>
  <use x="310.5" y="96.099998" xlink:href="#ai"/>
  <use x="313.164" y="96.099998" xlink:href="#p"/>
  <use x="318.052" y="96.099998" xlink:href="#h"/>
  <use x="322.5" y="96.099998" xlink:href="#ah"/>
  <use x="326.948" y="96.099998" xlink:href="#g"/>
  <use x="329.172" y="96.099998" xlink:href="#i"/>
  <use x="333.62" y="96.099998" xlink:href="#h"/>
  <use x="340.39999" y="96.099998" xlink:href="#g"/>
  <use x="342.62399" y="96.099998" xlink:href="#ag"/>
  <use x="347.51199" y="96.099998" xlink:href="#r"/>
  <use x="350.17599" y="96.099998" xlink:href="#h"/>
  <use x="354.62399" y="96.099998" xlink:href="#l"/>
  <use x="357.73602" y="96.099998" xlink:href="#af"/>
  <use x="360.39999" y="96.099998" xlink:href="#q"/>
  <use x="364.84802" y="96.099998" xlink:href="#i"/>
  <use x="369.29602" y="96.099998" xlink:href="#h"/>
  <use x="373.74402" y="96.099998" xlink:href="#ae"/>
 </g>
 <g>
  <g stroke="#000203" stroke-linecap="round" stroke-miterlimit="10">
   <g stroke-width=".66667">
    <path d="m295 60.244v-54"/>
    <path d="m295 6.2443h-144"/>
    <path d="m151 6.2443v54"/>
    <path d="m151 60.244h74.102"/>
    <path d="m225.2 60.244v8.6016"/>
    <path d="m225.2 68.846h46"/>
    <path d="m271.2 68.846v-8.6016"/>
    <path d="m271.2 60.244h23.699"/>
   </g>
   <g stroke-width="1.0833">
    <path d="m295 19.846h28.801"/>
    <path d="m316.6 21.643 7.1992-1.7969"/>
    <path d="m316.4 21.143 7.3008-1.1992"/>
    <path d="m316.4 20.444 7.3984-.5"/>
    <path d="m316.4 19.846h7.3984"/>
    <path d="m316.4 19.346 7.3984.5"/>
    <path d="m316.4 18.643 7.3008 1.2031"/>
    <path d="m316.6 18.045 7.1992 1.8008"/>
   </g>
   <g stroke-width=".83333">
    <path d="m228.8 68.846v-8.6016"/>
    <path d="m231.3 68.846v-8.6016"/>
    <path d="m233.9 68.846v-8.6016"/>
    <path d="m236.5 68.846v-8.6016"/>
    <path d="m239.1 68.846v-8.6016"/>
    <path d="m241.7 68.846v-8.6016"/>
    <path d="m244.3 68.846v-8.6016"/>
    <path d="m246.9 68.846v-8.6016"/>
    <path d="m249.5 68.846v-8.6016"/>
    <path d="m252.1 68.846v-8.6016"/>
    <path d="m254.7 68.846v-8.6016"/>
    <path d="m257.3 68.846v-8.6016"/>
    <path d="m259.9 68.846v-8.6016"/>
    <path d="m262.4 68.846v-8.6016"/>
    <path d="m265 68.846v-8.6016"/>
    <path d="m267.6 68.846v-8.6016"/>
   </g>
   <g stroke-width=".66667">
    <path d="m225.2 71.744v15.801"/>
    <path d="m223.4 80.346 1.8008 7.1992"/>
    <path d="m223.9 80.244 1.1992 7.3008"/>
    <path d="m224.6 80.143.5 7.4023"/>
    <path d="m225.2 80.143v7.4023"/>
    <path d="m225.7 80.143-.5 7.4023"/>
    <path d="m226.4 80.244-1.1992 7.3008"/>
    <path d="m227 80.346-1.7969 7.1992"/>
    <path d="m271.2 71.744v15.801"/>
    <path d="m269.4 80.346 1.8008 7.1992"/>
    <path d="m270 80.244 1.2031 7.3008"/>
    <path d="m270.7 80.143.5 7.4023"/>
    <path d="m271.2 80.143v7.4023"/>
    <path d="m271.8 80.143-.5 7.4023"/>
    <path d="m272.5 80.244-1.1992 7.3008"/>
    <path d="m273 80.346-1.7969 7.1992"/>
   </g>
   <path d="m68.201 70.244 25.199 25.199" stroke-width=".25"/>
   <g stroke-width=".75">
    <path d="m87.1 91.643 6.3008 3.8008"/>
    <path d="m87.299 91.143 6 4.3008"/>
    <path d="m87.701 90.643 5.5977 4.8008"/>
    <path d="m88.1 90.244 5.1992 5.1992"/>
    <path d="m88.6 89.744 4.8008 5.6016"/>
    <path d="m89.1 89.444 4.3008 6"/>
    <path d="m89.6 89.143 3.8008 6.3008"/>
   </g>
   <path d="m194.2 89.346 21.598 5.3984" stroke-width=".25"/>
   <g stroke-width=".75">
    <path d="m208.4 94.744h7.3984"/>
    <path d="m208.4 94.143 7.3984.5"/>
    <path d="m208.4 93.545 7.3008 1.1992"/>
    <path d="m208.6 92.944 7.1992 1.8008"/>
    <path d="m208.7 92.346 7 2.2969"/>
    <path d="m209 91.846 6.8008 2.8984"/>
    <path d="m209.2 91.244 6.5 3.5"/>
   </g>
   <path d="m316.6 48.643v-25.199" stroke-width=".25"/>
   <g stroke-width=".75">
    <path d="m318.4 30.643-1.8008-7.1992"/>
    <path d="m317.8 30.846-1.1992-7.3008"/>
    <path d="m317.2 30.846-.5-7.4023"/>
    <path d="m316.6 30.846v-7.4023"/>
    <path d="m316 30.846.5-7.4023"/>
    <path d="m315.4 30.846 1.1992-7.3008"/>
    <path d="m314.8 30.643 1.8008-7.1992"/>
   </g>
  </g>
  <g transform="translate(-120.4 -56.756)">
   <use x="166.60001" y="115.5" xlink:href="#aa"/>
   <use x="172.37601" y="115.5" xlink:href="#b"/>
   <use x="176.37601" y="115.5" xlink:href="#c"/>
   <use x="178.60001" y="115.5" xlink:href="#t"/>
   <use x="182.60001" y="115.5" xlink:href="#a"/>
   <use x="186.15199" y="115.5" xlink:href="#k"/>
   <use x="191.60001" y="115.5" xlink:href="#s"/>
   <use x="195.60001" y="115.5" xlink:href="#b"/>
   <use x="199.60001" y="115.5" xlink:href="#m"/>
   <use x="203.60001" y="115.5" xlink:href="#k"/>
   <use x="206.71201" y="115.5" xlink:href="#j"/>
   <use x="171.10001" y="124.5" xlink:href="#z"/>
   <use x="173.76401" y="124.5" xlink:href="#o"/>
   <use x="176.87601" y="124.5" xlink:href="#f"/>
   <use x="179.10001" y="124.5" xlink:href="#j"/>
   <use x="183.10001" y="124.5" xlink:href="#a"/>
   <use x="188.89999" y="124.5" xlink:href="#n"/>
   <use x="192.452" y="124.5" xlink:href="#f"/>
   <use x="194.67599" y="124.5" xlink:href="#a"/>
   <use x="198.228" y="124.5" xlink:href="#y"/>
   <use x="203.564" y="124.5" xlink:href="#x"/>
   <use x="291.20001" y="147.7" xlink:href="#o"/>
   <use x="294.31201" y="147.7" xlink:href="#b"/>
   <use x="298.31201" y="147.7" xlink:href="#e"/>
   <use x="301.86401" y="147.7" xlink:href="#w"/>
   <use x="305.41599" y="147.7" xlink:href="#a"/>
   <use x="308.96799" y="147.7" xlink:href="#c"/>
   <use x="424" y="111.7" xlink:href="#a"/>
   <use x="427.552" y="111.7" xlink:href="#v"/>
   <use x="431.104" y="111.7" xlink:href="#c"/>
   <use x="433.328" y="111.7" xlink:href="#a"/>
   <use x="436.88" y="111.7" xlink:href="#k"/>
   <use x="439.992" y="111.7" xlink:href="#d"/>
   <use x="443.992" y="111.7" xlink:href="#m"/>
   <use x="447.992" y="111.7" xlink:href="#u"/>
   <use x="419.60001" y="120.7" xlink:href="#e"/>
   <use x="423.15201" y="120.7" xlink:href="#b"/>
   <use x="427.15201" y="120.7" xlink:href="#d"/>
   <use x="431.15201" y="120.7" xlink:href="#d"/>
   <use x="435.15201" y="120.7" xlink:href="#a"/>
   <use x="438.70401" y="120.7" xlink:href="#e"/>
   <use x="442.25601" y="120.7" xlink:href="#c"/>
   <use x="444.48001" y="120.7" xlink:href="#f"/>
   <use x="446.70401" y="120.7" xlink:href="#b"/>
   <use x="450.70401" y="120.7" xlink:href="#d"/>
   <use x="422.60001" y="129.7" xlink:href="#c"/>
   <use x="424.82401" y="129.7" xlink:href="#b"/>
   <use x="431.19998" y="129.7" xlink:href="#j"/>
   <use x="435.19998" y="129.7" xlink:href="#a"/>
   <use x="438.75198" y="129.7" xlink:href="#n"/>
   <use x="442.30399" y="129.7" xlink:href="#f"/>
   <use x="444.52798" y="129.7" xlink:href="#e"/>
   <use x="448.07999" y="129.7" xlink:href="#a"/>
  </g>
 </g>
</svg>
