<svg width="370" height="200" version="1.1" viewBox="0 0 370 200" xmlns="http://www.w3.org/2000/svg" xmlns:xlink="http://www.w3.org/1999/xlink">
 <defs>
  <g id="l">
   <path d="m4.1719-2.7031c-.078125-1.0625-.76562-1.6875-1.8594-1.6875-1.2969 0-2.0469.84375-2.0469 2.3125 0 1.4375.75 2.2656 2.0312 2.2656 1.0469 0 1.7812-.65625 1.875-1.6875h-1.0625c-.14062.5625-.35938.78125-.8125.78125-.5625 0-.90625-.5-.90625-1.3594 0-.40625.078125-.78125.21875-1.0469.125-.23438.375-.35938.6875-.35938.46875 0 .67188.21875.8125.78125z"/>
  </g>
  <g id="k">
   <path d="m1.5781-4.3125h-1.1094v6.0625h1.1094v-2.2656c.28125.48438.65625.70312 1.2031.70312 1.0469 0 1.8125-.96875 1.8125-2.2812 0-.60938-.17188-1.2188-.46875-1.625-.28125-.40625-.82812-.67188-1.3438-.67188-.54688 0-.92188.23438-1.2031.70312zm.95312.85938c.5625 0 .9375.54688.9375 1.375 0 .79688-.375 1.3281-.9375 1.3281-.57812 0-.95312-.53125-.95312-1.3438s.375-1.3594.95312-1.3594z"/>
  </g>
  <g id="i">
   <path d="m4.3281 0v-4.3125h-1.125v2.7031c0 .5-.34375.84375-.90625.84375-.46875 0-.71875-.26562-.71875-.78125v-2.7656h-1.1094v3c0 .95312.51562 1.5 1.4375 1.5.59375 0 .98438-.21875 1.2969-.70312v.51562z"/>
  </g>
  <g id="h">
   <path d="m.48438-4.3125v4.3125h1.1094v-2.5938c0-.53125.29688-.84375.78125-.84375.375 0 .59375.21875.59375.5625v2.875h1.125v-2.5938c0-.53125.29688-.84375.76562-.84375.375 0 .60938.21875.60938.5625v2.875h1.125v-3.0625c0-.82812-.51562-1.3281-1.375-1.3281-.5625 0-.9375.1875-1.2656.64062-.20312-.40625-.64062-.64062-1.1719-.64062-.5 0-.82812.15625-1.1875.60938v-.53125z"/>
  </g>
  <g id="b">
   <path d="m4.1875-1.8125c.015625-.09375.015625-.125.015625-.1875 0-.4375-.0625-.82812-.17188-1.1406-.28125-.78125-.98438-1.25-1.8594-1.25-1.2344 0-2 .89062-2 2.3438 0 1.3906.75 2.2344 1.9844 2.2344.96875 0 1.75-.54688 2-1.4062h-1.1094c-.14062.34375-.45312.54688-.85938.54688-.3125 0-.57812-.14062-.73438-.375-.09375-.15625-.14062-.35938-.15625-.76562zm-2.875-.73438c.078125-.67188.34375-.98438.84375-.98438.51562 0 .8125.34375.875.98438z"/>
  </g>
  <g id="c">
   <path d="m2.4062-4.3906c-1.3125 0-2.125.875-2.125 2.2812 0 1.4219.8125 2.2969 2.1406 2.2969 1.3125 0 2.125-.875 2.125-2.2656 0-1.4531-.78125-2.3125-2.1406-2.3125zm.015625.90625c.60938 0 1.0156.54688 1.0156 1.3906 0 .8125-.42188 1.375-1.0156 1.375-.60938 0-1.0156-.54688-1.0156-1.3906 0-.82812.40625-1.375 1.0156-1.375z"/>
  </g>
  <g id="a">
   <path d="m.5-4.3125v4.3125h1.125v-2.2969c0-.65625.32812-.98438.98438-.98438.125 0 .20312.015625.34375.03125v-1.1406h-.125c-.51562 0-.95312.32812-1.2031.92188v-.84375z"/>
  </g>
  <g id="m">
   <path d="m3.1562-4.3125-.90625 3.1406-.95312-3.1406h-1.2188l1.6094 4.4844c0 .45312-.28125.75-.70312.75-.09375 0-.15625-.015625-.29688-.046875v.84375c.17188.03125.26562.03125.40625.03125.28125 0 .60938-.046875.79688-.14062.3125-.125.45312-.29688.64062-.8125l1.7656-5.1094z"/>
  </g>
  <g id="r">
   <path d="m1.9062-3.9062v3.9062h1.125v-5.6719h-.75c-.17188.67188-.76562 1.0156-1.7344 1.0156v.75z"/>
  </g>
  <g id="u">
   <path d="m4.0938-1h-2.4062c.15625-.29688.32812-.46875 1.1562-1.0781.98438-.71875 1.2812-1.1406 1.2812-1.9062 0-1.1094-.76562-1.8125-1.9531-1.8125-1.1719 0-1.8594.70312-1.8594 1.9062v.1875h1.0781v-.17188c0-.64062.29688-1 .8125-1 .5 0 .79688.34375.79688.90625 0 .625-.1875.85938-1.4531 1.7656-.96875.65625-1.2656 1.1406-1.3125 2.2031h3.8594z"/>
  </g>
  <g id="t">
   <path d="m1.7344-2.5312c.4375 0 .45312 0 .65625.046875.375.10938.625.4375.625.85938 0 .5-.35938.84375-.84375.84375-.53125 0-.8125-.29688-.85938-.875h-1.0781c0 1.125.73438 1.8438 1.9062 1.8438 1.2188 0 1.9844-.71875 1.9844-1.8125 0-.67188-.28125-1.1094-.92188-1.4219.51562-.32812.73438-.6875.73438-1.2031 0-.9375-.70312-1.5469-1.7969-1.5469-.82812 0-1.4531.35938-1.7031.98438-.09375.26562-.14062.45312-.14062.92188h1.0469c.015625-.29688.03125-.45312.09375-.59375.09375-.25.35938-.40625.6875-.40625.4375 0 .70312.28125.70312.75 0 .57812-.32812.85938-1 .85938h-.09375z"/>
  </g>
  <g id="q">
   <path d="m4.1719-2.1875h-.59375v-3.4844h-1.3125l-2.0781 3.4688v.95312h2.2812v1.25h1.1094v-1.25h.59375zm-1.7031 0h-1.4844l1.4844-2.4219z"/>
  </g>
  <g id="p">
   <path d="m3.9062-5.6719h-3.0312l-.5 3.1562h1.0156c.10938-.28125.375-.42188.71875-.42188.5625 0 .90625.40625.90625 1.0938 0 .65625-.34375 1.0625-.90625 1.0625-.5 0-.76562-.25-.79688-.70312h-1.0938c.015625 1 .76562 1.6719 1.875 1.6719 1.2031 0 2.0469-.82812 2.0469-2.0625 0-1.1719-.71875-1.9531-1.7656-1.9531-.39062 0-.65625.09375-.98438.34375l.17188-1.1875h2.3438z"/>
  </g>
  <g id="d">
   <path d="m1.6562-4.3125h-1.125v4.3125h1.125zm0-1.5156h-1.125v1h1.125z"/>
  </g>
  <g id="o">
   <path d="m4.1875-.14062c-.1875-.17188-.25-.3125-.25-.51562v-2.4062c0-.875-.59375-1.3281-1.7656-1.3281s-1.7812.5-1.8594 1.5h1.0938c.046875-.45312.23438-.59375.78125-.59375.4375 0 .65625.14062.65625.42188 0 .15625-.078125.26562-.20312.34375-.14062.078125-.14062.078125-.70312.17188l-.4375.078125c-.85938.14062-1.2812.57812-1.2812 1.3594 0 .76562.53125 1.2969 1.3125 1.2969.48438 0 .92188-.20312 1.3125-.625 0 .23438.03125.3125.125.4375h1.2188zm-1.3438-1.5938c0 .64062-.32812 1.0156-.89062 1.0156-.375 0-.60938-.20312-.60938-.51562 0-.34375.17188-.5.64062-.59375l.39062-.078125c.28125-.046875.34375-.0625.46875-.14062z"/>
  </g>
  <g id="g">
   <path d="m2.4062-4.2344h-.625v-1.1562h-1.125v1.1562h-.54688v.75h.54688v2.6562c0 .67188.375 1.0156 1.1094 1.0156.25 0 .4375-.03125.64062-.09375v-.78125c-.10938.015625-.17188.03125-.25.03125-.29688 0-.375-.09375-.375-.48438v-2.3438h.625z"/>
  </g>
  <g id="n">
   <path d="m1.6562-5.8281h-1.125v5.8281h1.125z"/>
  </g>
  <g id="f">
   <path d="m.5-4.3125v4.3125h1.125v-2.5938c0-.51562.34375-.84375.90625-.84375.48438 0 .71875.26562.71875.78125v2.6562h1.125v-2.8906c0-.96875-.53125-1.5-1.4531-1.5-.57812 0-.98438.20312-1.2969.6875v-.60938z"/>
  </g>
  <g id="e">
   <path d="m4.0469-2.9219c-.015625-.92188-.73438-1.4688-1.8906-1.4688-1.0938 0-1.7656.54688-1.7656 1.4375 0 .29688.078125.53125.23438.70312.15625.15625.28125.21875.70312.35938l1.3281.42188c.28125.078125.39062.17188.39062.34375 0 .26562-.3125.42188-.84375.42188-.29688 0-.51562-.046875-.65625-.14062-.125-.09375-.17188-.1875-.21875-.40625h-1.0938c.03125.95312.71875 1.4375 2.0312 1.4375.60938 0 1.0625-.125 1.375-.39062.32812-.25.51562-.65625.51562-1.0781 0-.5625-.28125-.92188-.84375-1.0938l-1.4219-.40625c-.3125-.09375-.39062-.15625-.39062-.32812 0-.25.26562-.40625.65625-.40625.53125 0 .79688.20312.79688.59375z"/>
  </g>
  <g id="j">
   <path d="m3.2031-4.3125v.65625c-.3125-.5-.65625-.73438-1.1094-.73438-.39062 0-.8125.1875-1.1094.5-.4375.45312-.65625 1.0781-.65625 1.8281 0 1.3281.70312 2.25 1.7344 2.25.46875 0 .75-.15625 1.1406-.625v.57812c0 .51562-.375.89062-.90625.89062-.39062 0-.64062-.1875-.73438-.51562h-1.1406c0 .34375.125.57812.42188.8125.34375.28125.8125.42188 1.4219.42188 1.25 0 2-.60938 2-1.6094v-4.4531zm-.90625.85938c.53125 0 .92188.57812.92188 1.375s-.375 1.3281-.9375 1.3281c-.48438 0-.82812-.53125-.82812-1.3281 0-.8125.34375-1.375.84375-1.375z"/>
  </g>
  <g id="s">
   <path d="m2.3906-2.7344h-2.1875v1.0781h2.1875z"/>
  </g>
 </defs>
 <g fill="none" stroke="#000203" stroke-linecap="round" stroke-miterlimit="10" stroke-width=".66667">
  <path d="m5.3713 193.68v-180"/>
  <path d="m5.3713 13.678h144"/>
  <path d="m149.37 13.678v180"/>
  <path d="m149.37 193.68h-144"/>
 </g>
 <g transform="translate(-102.63 -59.521)" fill="#007fff">
  <use x="172.89999" y="67.599998" xlink:href="#l"/>
  <use x="177.34801" y="67.599998" xlink:href="#k"/>
  <use x="182.23599" y="67.599998" xlink:href="#i"/>
 </g>
 <g fill="none" stroke="#000203" stroke-linecap="round" stroke-miterlimit="10" stroke-width=".66667">
  <path d="m221.37 193.68v-180"/>
  <path d="m221.37 13.678h144"/>
  <path d="m365.37 13.678v180"/>
  <path d="m365.37 193.68h-144"/>
 </g>
 <g transform="translate(-102.63 -59.521)" fill="#00ffff">
  <use x="380.39999" y="67.599998" xlink:href="#h"/>
  <use x="387.51199" y="67.599998" xlink:href="#b"/>
  <use x="391.95999" y="67.599998" xlink:href="#h"/>
  <use x="399.07199" y="67.599998" xlink:href="#c"/>
  <use x="403.95999" y="67.599998" xlink:href="#a"/>
  <use x="407.07199" y="67.599998" xlink:href="#m"/>
 </g>
 <g fill="none" stroke="#000203" stroke-linecap="round" stroke-miterlimit="10" stroke-width=".66667">
  <path d="m257.37 56.878v-14.398"/>
  <path d="m257.37 42.479h72"/>
  <path d="m329.37 42.479v14.398"/>
  <path d="m329.37 56.878h-72"/>
 </g>
 <g transform="translate(-102.63 -59.521)" fill="#00ff00">
  <use x="357.10001" y="97.800003" xlink:href="#n"/>
  <use x="359.32401" y="97.800003" xlink:href="#c"/>
  <use x="364.21201" y="97.800003" xlink:href="#l"/>
  <use x="368.66" y="97.800003" xlink:href="#o"/>
  <use x="373.108" y="97.800003" xlink:href="#g"/>
  <use x="375.772" y="97.800003" xlink:href="#d"/>
  <use x="377.996" y="97.800003" xlink:href="#c"/>
  <use x="382.884" y="97.800003" xlink:href="#f"/>
  <use x="387.772" y="97.800003" xlink:href="#e"/>
  <use x="394.5" y="97.800003" xlink:href="#d"/>
  <use x="396.724" y="97.800003" xlink:href="#f"/>
  <use x="403.79999" y="97.800003" xlink:href="#h"/>
  <use x="410.91199" y="97.800003" xlink:href="#b"/>
  <use x="415.35999" y="97.800003" xlink:href="#h"/>
  <use x="422.47198" y="97.800003" xlink:href="#c"/>
  <use x="427.35999" y="97.800003" xlink:href="#a"/>
  <use x="430.47198" y="97.800003" xlink:href="#m"/>
 </g>
 <g fill="none" stroke="#000203" stroke-linecap="round" stroke-miterlimit="10" stroke-width=".66667">
  <path d="m257.37 92.878v-14.398"/>
  <path d="m257.37 78.479h72"/>
  <path d="m329.37 78.479v14.398"/>
  <path d="m329.37 92.878h-72"/>
  <path d="m257.37 128.88v-14.398"/>
  <path d="m257.37 114.48h72"/>
  <path d="m329.37 114.48v14.398"/>
  <path d="m329.37 128.88h-72"/>
  <path d="m257.37 164.88v-14.398"/>
  <path d="m257.37 150.48h72"/>
  <path d="m329.37 150.48v14.398"/>
  <path d="m329.37 164.88h-72"/>
  <path d="m32.371 79.678v-18"/>
  <path d="m32.371 61.678h90"/>
  <path d="m122.37 61.678v18"/>
  <path d="m122.37 79.678h-90"/>
 </g>
 <g transform="translate(-102.63 -59.521)" fill="#ff6600">
  <use x="143.60001" y="115.6" xlink:href="#d"/>
  <use x="145.82401" y="115.6" xlink:href="#f"/>
  <use x="150.71201" y="115.6" xlink:href="#e"/>
  <use x="155.16" y="115.6" xlink:href="#g"/>
  <use x="157.82401" y="115.6" xlink:href="#a"/>
  <use x="160.936" y="115.6" xlink:href="#i"/>
  <use x="165.82401" y="115.6" xlink:href="#l"/>
  <use x="170.272" y="115.6" xlink:href="#g"/>
  <use x="172.936" y="115.6" xlink:href="#d"/>
  <use x="175.16" y="115.6" xlink:href="#c"/>
  <use x="180.048" y="115.6" xlink:href="#f"/>
  <use x="187.10001" y="115.6" xlink:href="#a"/>
  <use x="190.21201" y="115.6" xlink:href="#b"/>
  <use x="194.66" y="115.6" xlink:href="#j"/>
  <use x="199.548" y="115.6" xlink:href="#d"/>
  <use x="201.772" y="115.6" xlink:href="#e"/>
  <use x="206.22" y="115.6" xlink:href="#g"/>
  <use x="208.884" y="115.6" xlink:href="#b"/>
  <use x="213.332" y="115.6" xlink:href="#a"/>
 </g>
 <g fill="none" stroke="#000203" stroke-linecap="round" stroke-miterlimit="10" stroke-width=".66667">
  <path d="m32.371 145.58v-18"/>
  <path d="m32.371 127.58h90"/>
  <path d="m122.37 127.58v18"/>
  <path d="m122.37 145.58h-90"/>
 </g>
 <g transform="translate(-102.63 -59.521)" fill="#ffcc00">
  <use x="132.8" y="216.8" xlink:href="#j"/>
  <use x="137.688" y="216.8" xlink:href="#b"/>
  <use x="142.136" y="216.8" xlink:href="#f"/>
  <use x="147.024" y="216.8" xlink:href="#b"/>
  <use x="151.472" y="216.8" xlink:href="#a"/>
  <use x="154.584" y="216.8" xlink:href="#o"/>
  <use x="159.032" y="216.8" xlink:href="#n"/>
  <use x="161.256" y="216.8" xlink:href="#s"/>
  <use x="163.92" y="216.8" xlink:href="#k"/>
  <use x="168.808" y="216.8" xlink:href="#i"/>
  <use x="173.696" y="216.8" xlink:href="#a"/>
  <use x="176.808" y="216.8" xlink:href="#k"/>
  <use x="181.696" y="216.8" xlink:href="#c"/>
  <use x="186.584" y="216.8" xlink:href="#e"/>
  <use x="191.032" y="216.8" xlink:href="#b"/>
  <use x="197.89999" y="216.8" xlink:href="#a"/>
  <use x="201.01199" y="216.8" xlink:href="#b"/>
  <use x="205.45999" y="216.8" xlink:href="#j"/>
  <use x="210.34799" y="216.8" xlink:href="#d"/>
  <use x="212.57199" y="216.8" xlink:href="#e"/>
  <use x="217.01999" y="216.8" xlink:href="#g"/>
  <use x="219.68399" y="216.8" xlink:href="#b"/>
  <use x="224.13199" y="216.8" xlink:href="#a"/>
 </g>
 <path d="m105.52 70.678c0-3.1758-2.5742-5.75-5.75-5.75-3.1719 0-5.75 2.5742-5.75 5.75s2.5781 5.75 5.75 5.75c3.1758 0 5.75-2.5742 5.75-5.75" fill="none" stroke="#000203" stroke-linecap="round" stroke-miterlimit="10" stroke-width=".66667"/>
 <g transform="translate(-102.63 -59.521)" fill="#007fff">
  <use x="200.2" y="133.2" fill="#ff00ff" xlink:href="#r"/>
 </g>
 <g fill="none" stroke="#000203" stroke-linecap="round" stroke-miterlimit="10" stroke-width=".66667">
  <path d="m54.871 79.678v48"/>
  <path d="m52.973 120.38 1.7969 7.2031"/>
  <path d="m53.672 120.38 1.1992 7.3008"/>
  <path d="m54.172 120.28.5 7.3984"/>
  <path d="m54.871 120.18v7.4023"/>
  <path d="m55.473 120.28-.5 7.3984"/>
  <path d="m55.973 120.38-1.2031 7.3008"/>
  <path d="m56.672 120.38-1.8008 7.2031"/>
  <path d="m71.321 103.68c0-3.1758-2.5742-5.75-5.75-5.75-3.1758 0-5.75 2.5742-5.75 5.75 0 3.1758 2.5742 5.75 5.75 5.75 3.1758 0 5.75-2.5742 5.75-5.75"/>
 </g>
 <g transform="translate(-102.63 -59.521)" fill="#f0f">
  <use x="166" y="166.2" fill="#ff00ff" xlink:href="#u"/>
 </g>
 <g fill="none" stroke="#000203" stroke-linecap="round" stroke-miterlimit="10">
  <g stroke-width=".66667">
   <path d="m77.371 79.678v48"/>
   <path d="m75.571 120.38 1.8008 7.2031"/>
   <path d="m76.071 120.38 1.1992 7.3008"/>
   <path d="m76.77 120.28.5 7.3984"/>
   <path d="m77.371 120.18v7.4023"/>
   <path d="m77.871 120.28-.5 7.3984"/>
   <path d="m78.571 120.38-1.1992 7.3008"/>
   <path d="m79.172 120.38-1.8008 7.2031"/>
   <path d="m77.973 136.58c0-.38672-.31641-.70313-.70312-.70313-.38281 0-.69922.31641-.69922.70313 0 .38281.31641.69922.69922.69922.38672 0 .70312-.31641.70312-.69922"/>
  </g>
  <path d="m77.321 136.58c0-.0273-.02344-.0508-.05078-.0508s-.04687.0234-.04687.0508c0 .0273.01953.0469.04687.0469s.05078-.0195.05078-.0469" stroke-width="1.6667"/>
  <path d="m77.973 136.58c0-.38672-.31641-.70313-.70312-.70313-.38281 0-.69922.31641-.69922.70313 0 .38281.31641.69922.69922.69922.38672 0 .70312-.31641.70312-.69922" stroke-width="1.6667"/>
  <g stroke-width=".66667">
   <path d="m77.371 136.58h45"/>
   <path d="m122.37 136.58 135 21"/>
   <path d="m249.87 158.28 7.3984-.60156"/>
   <path d="m249.87 157.68h7.3984"/>
   <path d="m249.87 157.08 7.3984.5"/>
   <path d="m249.97 156.48 7.2969 1.1016"/>
   <path d="m250.17 155.88 7.1992 1.7031"/>
   <path d="m250.27 155.28 7 2.3008"/>
   <path d="m250.47 154.78 6.7969 2.8008"/>
   <path d="m93.821 103.68c0-3.1758-2.5742-5.75-5.75-5.75-3.1758 0-5.75 2.5742-5.75 5.75 0 3.1758 2.5742 5.75 5.75 5.75 3.1758 0 5.75-2.5742 5.75-5.75"/>
  </g>
 </g>
 <g transform="translate(-102.63 -59.521)" fill="#f0f">
  <use x="188.60001" y="166.2" fill="#ff00ff" xlink:href="#q"/>
 </g>
 <path d="m195.52 136.28c0-3.1758-2.5742-5.75-5.75-5.75-3.1719 0-5.75 2.5742-5.75 5.75s2.5781 5.75 5.75 5.75c3.1758 0 5.75-2.5742 5.75-5.75" fill="none" stroke="#000203" stroke-linecap="round" stroke-miterlimit="10" stroke-width=".66667"/>
 <g transform="translate(-102.63 -59.521)" fill="#f0f">
  <use x="290.20001" y="198.89999" fill="#ff00ff" xlink:href="#q"/>
 </g>
 <g fill="none" stroke="#000203" stroke-linecap="round" stroke-miterlimit="10" stroke-width=".66667">
  <path d="m122.37 67.678 135-18"/>
  <path d="m250.37 52.378 6.8984-2.6992"/>
  <path d="m250.17 51.78 7.0977-2.1016"/>
  <path d="m250.07 51.178 7.1992-1.5"/>
  <path d="m249.97 50.678 7.2969-1"/>
  <path d="m249.87 49.979 7.3984-.30078"/>
  <path d="m249.87 49.378 7.3984.20312"/>
  <path d="m249.97 48.78 7.2969.80078"/>
  <path d="m195.52 47.878c0-3.1719-2.5742-5.75-5.75-5.75-3.1719 0-5.75 2.5781-5.75 5.75 0 3.1758 2.5781 5.75 5.75 5.75 3.1758 0 5.75-2.5742 5.75-5.75"/>
 </g>
 <g transform="translate(-102.63 -59.521)" fill="#f0f">
  <use x="290.20001" y="110.4" fill="#ff00ff" xlink:href="#t"/>
 </g>
 <g fill="none" stroke="#000203" stroke-linecap="round" stroke-miterlimit="10" stroke-width=".66667">
  <path d="m122.37 73.581 135 12"/>
  <path d="m249.97 86.78 7.2969-1.1016"/>
  <path d="m249.87 86.178 7.3984-.5"/>
  <path d="m249.87 85.581h7.3984"/>
  <path d="m249.87 84.979 7.3984.60156"/>
  <path d="m249.97 84.378 7.2969 1.2031"/>
  <path d="m250.17 83.78 7.1992 1.8008"/>
  <path d="m250.37 83.178 6.8984 2.4023"/>
  <path d="m195.52 90.479c0-3.1758-2.5742-5.75-5.75-5.75-3.1719 0-5.75 2.5742-5.75 5.75 0 3.1758 2.5781 5.75 5.75 5.75 3.1758 0 5.75-2.5742 5.75-5.75"/>
 </g>
 <g transform="translate(-102.63 -59.521)" fill="#f0f">
  <use x="290.20001" y="153" fill="#ff00ff" xlink:href="#p"/>
 </g>
 <g fill="none" stroke="#000203" stroke-linecap="round" stroke-miterlimit="10">
  <path d="m293.97 85.678c0-.38672-.31641-.69922-.70312-.69922-.38282 0-.69922.3125-.69922.69922s.3164.69922.69922.69922c.38671 0 .70312-.3125.70312-.69922" stroke-width=".66667"/>
  <path d="m293.32 85.678c0-.02734-.0234-.05078-.0508-.05078s-.0469.02344-.0469.05078.0195.05078.0469.05078c.0273 0 .0508-.02344.0508-.05078" stroke-width="1.6667"/>
  <path d="m293.97 85.678c0-.38672-.31641-.69922-.70312-.69922-.38282 0-.69922.3125-.69922.69922s.3164.69922.69922.69922c.38671 0 .70312-.3125.70312-.69922" stroke-width="1.6667"/>
  <g stroke-width=".66667">
   <path d="m293.37 85.678v14.402"/>
   <path d="m289.77 103.68c1.9883 0 3.6016-1.6094 3.6016-3.5977"/>
   <path d="m289.77 103.68h-43.898"/>
   <path d="m245.77 103.68c-1.9883 0-3.5977 1.6133-3.5977 3.6016"/>
   <path d="m242.17 107.28v10.801"/>
   <path d="m242.17 118.08c0 1.9883 1.6094 3.5977 3.5977 3.5977"/>
   <path d="m245.77 121.68h11.5"/>
   <path d="m250.17 123.48 7.1992-1.8008"/>
   <path d="m249.97 122.88 7.2969-1.1992"/>
   <path d="m249.87 122.18 7.3984-.5"/>
   <path d="m249.87 121.68h7.3984"/>
   <path d="m249.87 121.08 7.3984.5"/>
   <path d="m249.97 120.38 7.2969 1.2031"/>
   <path d="m250.17 119.88 7.1992 1.8008"/>
   <path d="m237.12 112.68c0-3.1758-2.5742-5.75-5.75-5.75s-5.75 2.5742-5.75 5.75c0 3.1758 2.5742 5.75 5.75 5.75s5.75-2.5742 5.75-5.75"/>
  </g>
 </g>
 <g transform="translate(-102.63 -59.521)" fill="#f0f">
  <use x="331.79999" y="175.2" fill="#ff00ff" xlink:href="#p"/>
 </g>
</svg>
