<svg width="180" height="200" version="1.1" viewBox="0 0 180 200" xmlns="http://www.w3.org/2000/svg" xmlns:xlink="http://www.w3.org/1999/xlink">
 <defs>
  <g id="j">
   <path d="m1.5781-4.3125h-1.1094v6.0625h1.1094v-2.2656c.28125.48438.65625.70312 1.2031.70312 1.0469 0 1.8125-.96875 1.8125-2.2812 0-.60938-.17188-1.2188-.46875-1.625-.28125-.40625-.82812-.67188-1.3438-.67188-.54688 0-.92188.23438-1.2031.70312zm.95312.85938c.5625 0 .9375.54688.9375 1.375 0 .79688-.375 1.3281-.9375 1.3281-.57812 0-.95312-.53125-.95312-1.3438s.375-1.3594.95312-1.3594z"/>
  </g>
  <g id="w">
   <path d="m.53125-5.8281v5.8281h1.125v-2.5938c0-.5.35938-.84375.85938-.84375.25 0 .4375.078125.5625.26562.10938.14062.125.26562.125.53125v2.6406h1.125v-2.8906c0-.54688-.14062-.92188-.4375-1.1719-.25-.20312-.60938-.32812-.96875-.32812-.54688 0-.95312.21875-1.2656.6875v-2.125z"/>
  </g>
  <g id="s">
   <path d="m3.1562-4.3125-.90625 3.1406-.95312-3.1406h-1.2188l1.6094 4.4844c0 .45312-.28125.75-.70312.75-.09375 0-.15625-.015625-.29688-.046875v.84375c.17188.03125.26562.03125.40625.03125.28125 0 .60938-.046875.79688-.14062.3125-.125.45312-.29688.64062-.8125l1.7656-5.1094z"/>
  </g>
  <g id="f">
   <path d="m4.0469-2.9219c-.015625-.92188-.73438-1.4688-1.8906-1.4688-1.0938 0-1.7656.54688-1.7656 1.4375 0 .29688.078125.53125.23438.70312.15625.15625.28125.21875.70312.35938l1.3281.42188c.28125.078125.39062.17188.39062.34375 0 .26562-.3125.42188-.84375.42188-.29688 0-.51562-.046875-.65625-.14062-.125-.09375-.17188-.1875-.21875-.40625h-1.0938c.03125.95312.71875 1.4375 2.0312 1.4375.60938 0 1.0625-.125 1.375-.39062.32812-.25.51562-.65625.51562-1.0781 0-.5625-.28125-.92188-.84375-1.0938l-1.4219-.40625c-.3125-.09375-.39062-.15625-.39062-.32812 0-.25.26562-.40625.65625-.40625.53125 0 .79688.20312.79688.59375z"/>
  </g>
  <g id="e">
   <path d="m1.6562-4.3125h-1.125v4.3125h1.125zm0-1.5156h-1.125v1h1.125z"/>
  </g>
  <g id="d">
   <path d="m4.1719-2.7031c-.078125-1.0625-.76562-1.6875-1.8594-1.6875-1.2969 0-2.0469.84375-2.0469 2.3125 0 1.4375.75 2.2656 2.0312 2.2656 1.0469 0 1.7812-.65625 1.875-1.6875h-1.0625c-.14062.5625-.35938.78125-.8125.78125-.5625 0-.90625-.5-.90625-1.3594 0-.40625.078125-.78125.21875-1.0469.125-.23438.375-.35938.6875-.35938.46875 0 .67188.21875.8125.78125z"/>
  </g>
  <g id="b">
   <path d="m4.1875-.14062c-.1875-.17188-.25-.3125-.25-.51562v-2.4062c0-.875-.59375-1.3281-1.7656-1.3281s-1.7812.5-1.8594 1.5h1.0938c.046875-.45312.23438-.59375.78125-.59375.4375 0 .65625.14062.65625.42188 0 .15625-.078125.26562-.20312.34375-.14062.078125-.14062.078125-.70312.17188l-.4375.078125c-.85938.14062-1.2812.57812-1.2812 1.3594 0 .76562.53125 1.2969 1.3125 1.2969.48438 0 .92188-.20312 1.3125-.625 0 .23438.03125.3125.125.4375h1.2188zm-1.3438-1.5938c0 .64062-.32812 1.0156-.89062 1.0156-.375 0-.60938-.20312-.60938-.51562 0-.34375.17188-.5.64062-.59375l.39062-.078125c.28125-.046875.34375-.0625.46875-.14062z"/>
  </g>
  <g id="c">
   <path d="m1.6562-5.8281h-1.125v5.8281h1.125z"/>
  </g>
  <g id="r">
   <path d="m.48438-4.3125v4.3125h1.1094v-2.5938c0-.53125.29688-.84375.78125-.84375.375 0 .59375.21875.59375.5625v2.875h1.125v-2.5938c0-.53125.29688-.84375.76562-.84375.375 0 .60938.21875.60938.5625v2.875h1.125v-3.0625c0-.82812-.51562-1.3281-1.375-1.3281-.5625 0-.9375.1875-1.2656.64062-.20312-.40625-.64062-.64062-1.1719-.64062-.5 0-.82812.15625-1.1875.60938v-.53125z"/>
  </g>
  <g id="i">
   <path d="m4.1875-1.8125c.015625-.09375.015625-.125.015625-.1875 0-.4375-.0625-.82812-.17188-1.1406-.28125-.78125-.98438-1.25-1.8594-1.25-1.2344 0-2 .89062-2 2.3438 0 1.3906.75 2.2344 1.9844 2.2344.96875 0 1.75-.54688 2-1.4062h-1.1094c-.14062.34375-.45312.54688-.85938.54688-.3125 0-.57812-.14062-.73438-.375-.09375-.15625-.14062-.35938-.15625-.76562zm-2.875-.73438c.078125-.67188.34375-.98438.84375-.98438.51562 0 .8125.34375.875.98438z"/>
  </g>
  <g id="x">
   <path d="m2.4062-4.3906c-1.3125 0-2.125.875-2.125 2.2812 0 1.4219.8125 2.2969 2.1406 2.2969 1.3125 0 2.125-.875 2.125-2.2656 0-1.4531-.78125-2.3125-2.1406-2.3125zm.015625.90625c.60938 0 1.0156.54688 1.0156 1.3906 0 .8125-.42188 1.375-1.0156 1.375-.60938 0-1.0156-.54688-1.0156-1.3906 0-.82812.40625-1.375 1.0156-1.375z"/>
  </g>
  <g id="h">
   <path d="m.5-4.3125v4.3125h1.125v-2.2969c0-.65625.32812-.98438.98438-.98438.125 0 .20312.015625.34375.03125v-1.1406h-.125c-.51562 0-.95312.32812-1.2031.92188v-.84375z"/>
  </g>
  <g id="g">
   <path d="m2.1875-5.7969c-.60938 0-1.125.26562-1.4688.73438-.32812.4375-.48438 1.1562-.48438 2.2656 0 1 .125 1.7031.39062 2.1406.34375.54688.89062.84375 1.5625.84375.60938 0 1.1094-.25 1.4688-.71875.3125-.4375.48438-1.1719.48438-2.2344 0-1.0469-.125-1.75-.40625-2.1875-.32812-.54688-.89062-.84375-1.5469-.84375zm0 .90625c.28125 0 .51562.15625.65625.45312.10938.25.17188.85938.17188 1.6406 0 .64062-.0625 1.2656-.14062 1.5-.125.34375-.375.51562-.6875.51562-.29688 0-.53125-.14062-.65625-.4375-.10938-.23438-.17188-.82812-.17188-1.5938 0-.67188.046875-1.3125.14062-1.5469.10938-.34375.35938-.53125.6875-.53125z"/>
  </g>
  <g id="o">
   <path d="m4.0938 0h1.1875v-5.8281h-1.1875v3.9688l-2.3125-3.9688h-1.2344v5.8281h1.2031v-4.0312z"/>
  </g>
  <g id="q">
   <path d="m1.6562-5.7188-1.6406 5.8281h.53125l1.6562-5.8281z"/>
  </g>
  <g id="p">
   <path d="m4.1719-2.1875h-.59375v-3.4844h-1.3125l-2.0781 3.4688v.95312h2.2812v1.25h1.1094v-1.25h.59375zm-1.7031 0h-1.4844l1.4844-2.4219z"/>
  </g>
  <g id="u">
   <path d="m4.0938-1h-2.4062c.15625-.29688.32812-.46875 1.1562-1.0781.98438-.71875 1.2812-1.1406 1.2812-1.9062 0-1.1094-.76562-1.8125-1.9531-1.8125-1.1719 0-1.8594.70312-1.8594 1.9062v.1875h1.0781v-.17188c0-.64062.29688-1 .8125-1 .5 0 .79688.34375.79688.90625 0 .625-.1875.85938-1.4531 1.7656-.96875.65625-1.2656 1.1406-1.3125 2.2031h3.8594z"/>
  </g>
  <g id="t">
   <path d="m1.7344-2.5312c.4375 0 .45312 0 .65625.046875.375.10938.625.4375.625.85938 0 .5-.35938.84375-.84375.84375-.53125 0-.8125-.29688-.85938-.875h-1.0781c0 1.125.73438 1.8438 1.9062 1.8438 1.2188 0 1.9844-.71875 1.9844-1.8125 0-.67188-.28125-1.1094-.92188-1.4219.51562-.32812.73438-.6875.73438-1.2031 0-.9375-.70312-1.5469-1.7969-1.5469-.82812 0-1.4531.35938-1.7031.98438-.09375.26562-.14062.45312-.14062.92188h1.0469c.015625-.29688.03125-.45312.09375-.59375.09375-.25.35938-.40625.6875-.40625.4375 0 .70312.28125.70312.75 0 .57812-.32812.85938-1 .85938h-.09375z"/>
  </g>
  <g id="n">
   <path d="m2.7969 0 1.4844-4.3125h-1.1719l-.875 3.1562-.9375-3.1562h-1.1875l1.5156 4.3125z"/>
  </g>
  <g id="m">
   <path d="m2.4062-4.2344h-.625v-1.1562h-1.125v1.1562h-.54688v.75h.54688v2.6562c0 .67188.375 1.0156 1.1094 1.0156.25 0 .4375-.03125.64062-.09375v-.78125c-.10938.015625-.17188.03125-.25.03125-.29688 0-.375-.09375-.375-.48438v-2.3438h.625z"/>
  </g>
  <g id="l">
   <path d="m4.3281 0v-4.3125h-1.125v2.7031c0 .5-.34375.84375-.90625.84375-.46875 0-.71875-.26562-.71875-.78125v-2.7656h-1.1094v3c0 .95312.51562 1.5 1.4375 1.5.59375 0 .98438-.21875 1.2969-.70312v.51562z"/>
  </g>
  <g id="k">
   <path d="m1.7344-4.5469 1.0469 4.5469h1.1875l1.0469-4.5469v4.5469h1.1875v-5.8281h-1.7969l-1.0312 4.6406-1.0625-4.6406h-1.7812v5.8281h1.2031z"/>
  </g>
  <g id="v">
   <path d="m1.9062-3.9062v3.9062h1.125v-5.6719h-.75c-.17188.67188-.76562 1.0156-1.7344 1.0156v.75z"/>
  </g>
  <g id="a">
   <path d="m.625-.5c-.15625 0-.28125.125-.28125.28125s.125.28125.28125.28125.28125-.125.28125-.28125-.125-.28125-.28125-.28125z"/>
  </g>
 </defs>
 <g fill="none" stroke="#000" stroke-linecap="round" stroke-miterlimit="10" stroke-width=".66667">
  <path d="m113.21 182.16v-162"/>
  <path d="m113.21 20.165h40.301"/>
  <path d="m153.51 20.165v162"/>
  <path d="m153.51 182.16h-40.301"/>
 </g>
 <g>
  <g transform="translate(-204.99 -59.035)" fill="#ffcc00">
   <use x="322.29999" y="66.199997" xlink:href="#j"/>
   <use x="327.18799" y="66.199997" xlink:href="#w"/>
   <use x="332.07599" y="66.199997" xlink:href="#s"/>
   <use x="336.52399" y="66.199997" xlink:href="#f"/>
   <use x="340.97198" y="66.199997" xlink:href="#e"/>
   <use x="343.19601" y="66.199997" xlink:href="#d"/>
   <use x="347.64401" y="66.199997" xlink:href="#b"/>
   <use x="352.09201" y="66.199997" xlink:href="#c"/>
   <use x="322.79999" y="75.199997" xlink:href="#r"/>
   <use x="329.91199" y="75.199997" xlink:href="#i"/>
   <use x="334.35999" y="75.199997" xlink:href="#r"/>
   <use x="341.47198" y="75.199997" xlink:href="#x"/>
   <use x="346.35999" y="75.199997" xlink:href="#h"/>
   <use x="349.47198" y="75.199997" xlink:href="#s"/>
  </g>
  <g transform="translate(-204.99 -59.035)" fill="#000000">
   <use x="321.10001" y="200.89999" xlink:href="#a"/>
   <use x="324.70001" y="200.89999" xlink:href="#a"/>
   <use x="328.39999" y="200.89999" xlink:href="#a"/>
   <use x="332.10001" y="200.89999" xlink:href="#a"/>
   <use x="335.79999" y="200.89999" xlink:href="#a"/>
   <use x="339.39999" y="200.89999" xlink:href="#a"/>
   <use x="343" y="200.89999" xlink:href="#a"/>
   <use x="346.70001" y="200.89999" xlink:href="#a"/>
   <use x="350.39999" y="200.89999" xlink:href="#a"/>
   <use x="354" y="200.89999" xlink:href="#a"/>
   <use x="321.10001" y="160.39999" xlink:href="#a"/>
   <use x="324.70001" y="160.39999" xlink:href="#a"/>
   <use x="328.39999" y="160.39999" xlink:href="#a"/>
   <use x="332.10001" y="160.39999" xlink:href="#a"/>
   <use x="335.79999" y="160.39999" xlink:href="#a"/>
   <use x="339.39999" y="160.39999" xlink:href="#a"/>
   <use x="343" y="160.39999" xlink:href="#a"/>
   <use x="346.70001" y="160.39999" xlink:href="#a"/>
   <use x="350.39999" y="160.39999" xlink:href="#a"/>
   <use x="354" y="160.39999" xlink:href="#a"/>
   <use x="321.10001" y="119.9" xlink:href="#a"/>
   <use x="324.70001" y="119.9" xlink:href="#a"/>
   <use x="328.39999" y="119.9" xlink:href="#a"/>
   <use x="332.10001" y="119.9" xlink:href="#a"/>
   <use x="335.79999" y="119.9" xlink:href="#a"/>
   <use x="339.39999" y="119.9" xlink:href="#a"/>
   <use x="343" y="119.9" xlink:href="#a"/>
   <use x="346.70001" y="119.9" xlink:href="#a"/>
   <use x="350.39999" y="119.9" xlink:href="#a"/>
   <use x="354" y="119.9" xlink:href="#a"/>
  </g>
  <g transform="translate(-204.99 -59.035)" fill="#007fff">
   <use x="362.10001" y="239.2" xlink:href="#g"/>
   <use x="362.10001" y="198.7" xlink:href="#o"/>
   <use x="369.20001" y="198.7" xlink:href="#q"/>
   <use x="372.70001" y="198.7" xlink:href="#p"/>
   <use x="362.10001" y="158.2" xlink:href="#o"/>
   <use x="369.20001" y="158.2" xlink:href="#q"/>
   <use x="372.70001" y="158.2" xlink:href="#u"/>
   <use x="362.10001" y="117.7" xlink:href="#t"/>
   <use x="367.89999" y="117.7" xlink:href="#o"/>
   <use x="375" y="117.7" xlink:href="#q"/>
   <use x="378.5" y="117.7" xlink:href="#p"/>
   <use x="362.10001" y="87.199997" xlink:href="#o"/>
  </g>
 </g>
 <g fill="none" stroke="#000" stroke-linecap="round" stroke-miterlimit="10" stroke-width=".66667">
  <path d="m12.409 44.364v-40.398"/>
  <path d="m12.409 3.9653h36"/>
  <path d="m48.409 3.9653v40.398"/>
  <path d="m48.409 44.364h-36"/>
 </g>
 <g transform="translate(-204.99 -59.035)" fill="#00ff00">
  <use x="223.39999" y="75.800003" xlink:href="#n"/>
  <use x="227.84801" y="75.800003" xlink:href="#e"/>
  <use x="230.07201" y="75.800003" xlink:href="#h"/>
  <use x="233.18401" y="75.800003" xlink:href="#m"/>
  <use x="235.84801" y="75.800003" xlink:href="#l"/>
  <use x="240.73599" y="75.800003" xlink:href="#b"/>
  <use x="245.18401" y="75.800003" xlink:href="#c"/>
  <use x="224" y="84.800003" xlink:href="#f"/>
  <use x="228.448" y="84.800003" xlink:href="#j"/>
  <use x="233.336" y="84.800003" xlink:href="#b"/>
  <use x="237.784" y="84.800003" xlink:href="#d"/>
  <use x="242.23199" y="84.800003" xlink:href="#i"/>
  <use x="233.2" y="93.800003" xlink:href="#p"/>
 </g>
 <g transform="translate(-204.99 -59.035)" fill="#007fff">
  <use x="207.2" y="71" xlink:href="#k"/>
  <use x="209.3" y="101.4" fill="#00ffff" xlink:href="#g"/>
 </g>
 <g fill="none" stroke="#000" stroke-linecap="round" stroke-miterlimit="10" stroke-width=".66667">
  <path d="m12.409 95.766v-40.402"/>
  <path d="m12.409 55.165h36"/>
  <path d="m48.409 55.165v40.402"/>
  <path d="m48.409 95.766h-36"/>
 </g>
 <g>
  <g transform="translate(-204.99 -59.035)" fill="#ff6600">
   <use x="223.39999" y="127.1" xlink:href="#n"/>
   <use x="227.84801" y="127.1" xlink:href="#e"/>
   <use x="230.07201" y="127.1" xlink:href="#h"/>
   <use x="233.18401" y="127.1" xlink:href="#m"/>
   <use x="235.84801" y="127.1" xlink:href="#l"/>
   <use x="240.73599" y="127.1" xlink:href="#b"/>
   <use x="245.18401" y="127.1" xlink:href="#c"/>
   <use x="224" y="136.10001" xlink:href="#f"/>
   <use x="228.448" y="136.10001" xlink:href="#j"/>
   <use x="233.336" y="136.10001" xlink:href="#b"/>
   <use x="237.784" y="136.10001" xlink:href="#d"/>
   <use x="242.23199" y="136.10001" xlink:href="#i"/>
   <use x="233.2" y="145.10001" xlink:href="#t"/>
  </g>
  <g transform="translate(-204.99 -59.035)" fill="#007fff">
   <use x="207.2" y="122.3" xlink:href="#k"/>
  </g>
  <g transform="translate(-204.99 -59.035)" fill="#0ff">
   <use x="209.3" y="152.8" fill="#00ffff" xlink:href="#g"/>
  </g>
 </g>
 <g fill="none" stroke="#000" stroke-linecap="round" stroke-miterlimit="10" stroke-width=".66667">
  <path d="m12.409 146.97v-40.398"/>
  <path d="m12.409 106.57h36"/>
  <path d="m48.409 106.57v40.398"/>
  <path d="m48.409 146.97h-36"/>
 </g>
 <g>
  <g transform="translate(-204.99 -59.035)" fill="#ff00ff">
   <use x="223.39999" y="178.39999" xlink:href="#n"/>
   <use x="227.84801" y="178.39999" xlink:href="#e"/>
   <use x="230.07201" y="178.39999" xlink:href="#h"/>
   <use x="233.18401" y="178.39999" xlink:href="#m"/>
   <use x="235.84801" y="178.39999" xlink:href="#l"/>
   <use x="240.73599" y="178.39999" xlink:href="#b"/>
   <use x="245.18401" y="178.39999" xlink:href="#c"/>
   <use x="224" y="187.39999" xlink:href="#f"/>
   <use x="228.448" y="187.39999" xlink:href="#j"/>
   <use x="233.336" y="187.39999" xlink:href="#b"/>
   <use x="237.784" y="187.39999" xlink:href="#d"/>
   <use x="242.23199" y="187.39999" xlink:href="#i"/>
   <use x="233.2" y="196.39999" xlink:href="#u"/>
  </g>
  <g transform="translate(-204.99 -59.035)" fill="#007fff">
   <use x="207.2" y="173.60001" xlink:href="#k"/>
  </g>
  <g transform="translate(-204.99 -59.035)" fill="#0ff">
   <use x="209.3" y="204" fill="#00ffff" xlink:href="#g"/>
  </g>
 </g>
 <g fill="none" stroke="#000" stroke-linecap="round" stroke-miterlimit="10" stroke-width=".66667">
  <path d="m12.409 198.36v-40.398"/>
  <path d="m12.409 157.77h36"/>
  <path d="m48.409 157.77v40.398"/>
  <path d="m48.409 198.36h-36"/>
 </g>
 <g transform="translate(-204.99 -59.035)" fill="#007fff">
  <use x="223.39999" y="229.7" xlink:href="#n"/>
  <use x="227.84801" y="229.7" xlink:href="#e"/>
  <use x="230.07201" y="229.7" xlink:href="#h"/>
  <use x="233.18401" y="229.7" xlink:href="#m"/>
  <use x="235.84801" y="229.7" xlink:href="#l"/>
  <use x="240.73599" y="229.7" xlink:href="#b"/>
  <use x="245.18401" y="229.7" xlink:href="#c"/>
  <use x="224" y="238.7" xlink:href="#f"/>
  <use x="228.448" y="238.7" xlink:href="#j"/>
  <use x="233.336" y="238.7" xlink:href="#b"/>
  <use x="237.784" y="238.7" xlink:href="#d"/>
  <use x="242.23199" y="238.7" xlink:href="#i"/>
  <use x="233.2" y="247.7" xlink:href="#v"/>
  <use x="207.2" y="224.89999" xlink:href="#k"/>
 </g>
 <g transform="translate(-204.99 -59.035)" fill="#0ff">
  <use x="209.3" y="255.39999" fill="#00ffff" xlink:href="#g"/>
 </g>
 <g fill="none" stroke="#000" stroke-linecap="round" stroke-miterlimit="10" stroke-width=".58333">
  <path d="m51.909 156.97 58.5-14.602"/>
  <path d="m103.81 145.86 6.5-3.5"/>
  <path d="m103.61 145.27 6.7969-2.9024"/>
  <path d="m103.41 144.66 7-2.3008"/>
  <path d="m103.21 144.07 7.1992-1.8008"/>
  <path d="m103.01 143.57 7.3008-1.2031"/>
  <path d="m103.01 142.97 7.3984-.5"/>
  <path d="m103.01 142.27h7.3984"/>
  <path d="m51.909 197.47 58.5-14.602"/>
  <path d="m103.81 186.27 6.5-3.5"/>
  <path d="m103.61 185.77 6.7969-2.9024"/>
  <path d="m103.41 185.16 7-2.3008"/>
  <path d="m103.21 184.66 7.1992-1.8008"/>
  <path d="m103.01 183.97 7.3008-1.1992"/>
  <path d="m103.01 183.36 7.3984-.5"/>
  <path d="m103.01 182.86h7.3984"/>
  <path d="m52.01 106.27 58.301-4.8008"/>
  <path d="m103.31 103.77 7-2.3008"/>
  <path d="m103.11 103.16 7.1992-1.8008"/>
  <path d="m103.01 102.57 7.3008-1.2031"/>
  <path d="m102.91 101.97 7.4023-.60156"/>
  <path d="m102.91 101.36h7.4023"/>
  <path d="m102.91 100.77 7.4023.5"/>
  <path d="m103.01 100.16 7.3008 1.1992"/>
  <path d="m52.01 146.66 58.301-4.8008"/>
  <path d="m103.31 144.27 7-2.3008"/>
  <path d="m103.11 143.66 7.1992-1.8008"/>
  <path d="m103.01 143.07 7.3008-1.2031"/>
  <path d="m102.91 142.47 7.4023-.60156"/>
  <path d="m102.91 141.86h7.4023"/>
  <path d="m102.91 141.27 7.4023.5"/>
  <path d="m103.01 140.66 7.3008 1.1992"/>
  <path d="m52.01 55.567 58.301 4.7969"/>
  <path d="m103.01 61.567 7.3008-1.2031"/>
  <path d="m102.91 60.965 7.4023-.5"/>
  <path d="m102.91 60.364h7.4023"/>
  <path d="m102.91 59.766 7.4023.59766"/>
  <path d="m103.01 59.165 7.3008 1.1992"/>
  <path d="m103.11 58.567 7.1992 1.7969"/>
  <path d="m103.31 57.965 7 2.3008"/>
  <path d="m52.01 95.965 58.301 4.8008"/>
  <path d="m103.01 102.07 7.3008-1.2031"/>
  <path d="m102.91 101.47 7.4023-.5"/>
  <path d="m102.91 100.86h7.4023"/>
  <path d="m102.91 100.27 7.4023.59765"/>
  <path d="m103.01 99.665 7.3008 1.1992"/>
  <path d="m103.11 99.067 7.1992 1.7969"/>
  <path d="m103.31 98.465 7 2.3008"/>
  <path d="m51.909 4.7661 58.5 14.598"/>
  <path d="m103.01 19.364h7.3984"/>
  <path d="m103.01 18.864 7.3984.5"/>
  <path d="m103.01 18.266 7.3008 1.1992"/>
  <path d="m103.21 17.567 7.1992 1.7969"/>
  <path d="m103.41 17.067 7 2.2969"/>
  <path d="m103.61 16.465 6.7969 2.8984"/>
  <path d="m103.81 15.965 6.5 3.5"/>
  <path d="m51.909 45.364 58.5 14.602"/>
  <path d="m103.01 59.965h7.3984"/>
  <path d="m103.01 59.266 7.3984.5"/>
  <path d="m103.01 58.665 7.3008 1.1992"/>
  <path d="m103.21 58.165 7.1992 1.8008"/>
  <path d="m103.41 57.567 7 2.2969"/>
  <path d="m103.61 56.965 6.7969 2.8984"/>
  <path d="m103.81 56.364 6.5 3.5"/>
 </g>
</svg>
