<svg width="190" height="170" version="1.1" viewBox="0 0 190 170" xmlns="http://www.w3.org/2000/svg" xmlns:xlink="http://www.w3.org/1999/xlink">
 <defs>
  <g id="g">
   <path d="m.48438-4.3125v4.3125h1.1094v-2.5938c0-.53125.29688-.84375.78125-.84375.375 0 .59375.21875.59375.5625v2.875h1.125v-2.5938c0-.53125.29688-.84375.76562-.84375.375 0 .60938.21875.60938.5625v2.875h1.125v-3.0625c0-.82812-.51562-1.3281-1.375-1.3281-.5625 0-.9375.1875-1.2656.64062-.20312-.40625-.64062-.64062-1.1719-.64062-.5 0-.82812.15625-1.1875.60938v-.53125z"/>
  </g>
  <g id="i">
   <path d="m4.1875-1.8125c.015625-.09375.015625-.125.015625-.1875 0-.4375-.0625-.82812-.17188-1.1406-.28125-.78125-.98438-1.25-1.8594-1.25-1.2344 0-2 .89062-2 2.3438 0 1.3906.75 2.2344 1.9844 2.2344.96875 0 1.75-.54688 2-1.4062h-1.1094c-.14062.34375-.45312.54688-.85938.54688-.3125 0-.57812-.14062-.73438-.375-.09375-.15625-.14062-.35938-.15625-.76562zm-2.875-.73438c.078125-.67188.34375-.98438.84375-.98438.51562 0 .8125.34375.875.98438z"/>
  </g>
  <g id="r">
   <path d="m2.4062-4.3906c-1.3125 0-2.125.875-2.125 2.2812 0 1.4219.8125 2.2969 2.1406 2.2969 1.3125 0 2.125-.875 2.125-2.2656 0-1.4531-.78125-2.3125-2.1406-2.3125zm.015625.90625c.60938 0 1.0156.54688 1.0156 1.3906 0 .8125-.42188 1.375-1.0156 1.375-.60938 0-1.0156-.54688-1.0156-1.3906 0-.82812.40625-1.375 1.0156-1.375z"/>
  </g>
  <g id="f">
   <path d="m.5-4.3125v4.3125h1.125v-2.2969c0-.65625.32812-.98438.98438-.98438.125 0 .20312.015625.34375.03125v-1.1406h-.125c-.51562 0-.95312.32812-1.2031.92188v-.84375z"/>
  </g>
  <g id="q">
   <path d="m3.1562-4.3125-.90625 3.1406-.95312-3.1406h-1.2188l1.6094 4.4844c0 .45312-.28125.75-.70312.75-.09375 0-.15625-.015625-.29688-.046875v.84375c.17188.03125.26562.03125.40625.03125.28125 0 .60938-.046875.79688-.14062.3125-.125.45312-.29688.64062-.8125l1.7656-5.1094z"/>
  </g>
  <g id="ac">
   <path d="m1.9062-3.9062v3.9062h1.125v-5.6719h-.75c-.17188.67188-.76562 1.0156-1.7344 1.0156v.75z"/>
  </g>
  <g id="ab">
   <path d="m4.0938-1h-2.4062c.15625-.29688.32812-.46875 1.1562-1.0781.98438-.71875 1.2812-1.1406 1.2812-1.9062 0-1.1094-.76562-1.8125-1.9531-1.8125-1.1719 0-1.8594.70312-1.8594 1.9062v.1875h1.0781v-.17188c0-.64062.29688-1 .8125-1 .5 0 .79688.34375.79688.90625 0 .625-.1875.85938-1.4531 1.7656-.96875.65625-1.2656 1.1406-1.3125 2.2031h3.8594z"/>
  </g>
  <g id="aa">
   <path d="m3.1719 0 2-5.8281h-1.2031l-1.2656 4.3906-1.2969-4.3906h-1.2188l1.9688 5.8281z"/>
  </g>
  <g id="z">
   <path d="m1.6562-4.3125h-1.125v4.3125h1.125zm0-1.5156h-1.125v1h1.125z"/>
  </g>
  <g id="ak">
   <path d="m2.4062-4.2344h-.625v-1.1562h-1.125v1.1562h-.54688v.75h.54688v2.6562c0 .67188.375 1.0156 1.1094 1.0156.25 0 .4375-.03125.64062-.09375v-.78125c-.10938.015625-.17188.03125-.25.03125-.29688 0-.375-.09375-.375-.48438v-2.3438h.625z"/>
  </g>
  <g id="aj">
   <path d="m4.3281 0v-4.3125h-1.125v2.7031c0 .5-.34375.84375-.90625.84375-.46875 0-.71875-.26562-.71875-.78125v-2.7656h-1.1094v3c0 .95312.51562 1.5 1.4375 1.5.59375 0 .98438-.21875 1.2969-.70312v.51562z"/>
  </g>
  <g id="ai">
   <path d="m4.1875-.14062c-.1875-.17188-.25-.3125-.25-.51562v-2.4062c0-.875-.59375-1.3281-1.7656-1.3281s-1.7812.5-1.8594 1.5h1.0938c.046875-.45312.23438-.59375.78125-.59375.4375 0 .65625.14062.65625.42188 0 .15625-.078125.26562-.20312.34375-.14062.078125-.14062.078125-.70312.17188l-.4375.078125c-.85938.14062-1.2812.57812-1.2812 1.3594 0 .76562.53125 1.2969 1.3125 1.2969.48438 0 .92188-.20312 1.3125-.625 0 .23438.03125.3125.125.4375h1.2188zm-1.3438-1.5938c0 .64062-.32812 1.0156-.89062 1.0156-.375 0-.60938-.20312-.60938-.51562 0-.34375.17188-.5.64062-.59375l.39062-.078125c.28125-.046875.34375-.0625.46875-.14062z"/>
  </g>
  <g id="ah">
   <path d="m1.6562-5.8281h-1.125v5.8281h1.125z"/>
  </g>
  <g id="ag">
   <path d="m4.0156-1.1719.375 1.1719h1.2344l-2.0156-5.8281h-1.3281l-2.0781 5.8281h1.2344l.39062-1.1719zm-.32812-1h-1.5312l.76562-2.2812z"/>
  </g>
  <g id="t">
   <path d="m3.2344 0h1.125v-5.8281h-1.125v2.0625c-.28125-.42188-.64062-.625-1.1875-.625-1.0312 0-1.8125.98438-1.8125 2.2969 0 .57812.17188 1.1719.46875 1.5938.28125.42188.8125.6875 1.3438.6875.54688 0 .90625-.20312 1.1875-.625zm-.9375-3.4531c.5625 0 .9375.54688.9375 1.375 0 .78125-.375 1.3281-.9375 1.3281s-.9375-.54688-.9375-1.3438c0-.8125.375-1.3594.9375-1.3594z"/>
  </g>
  <g id="s">
   <path d="m4.0469-2.9219c-.015625-.92188-.73438-1.4688-1.8906-1.4688-1.0938 0-1.7656.54688-1.7656 1.4375 0 .29688.078125.53125.23438.70312.15625.15625.28125.21875.70312.35938l1.3281.42188c.28125.078125.39062.17188.39062.34375 0 .26562-.3125.42188-.84375.42188-.29688 0-.51562-.046875-.65625-.14062-.125-.09375-.17188-.1875-.21875-.40625h-1.0938c.03125.95312.71875 1.4375 2.0312 1.4375.60938 0 1.0625-.125 1.375-.39062.32812-.25.51562-.65625.51562-1.0781 0-.5625-.28125-.92188-.84375-1.0938l-1.4219-.40625c-.3125-.09375-.39062-.15625-.39062-.32812 0-.25.26562-.40625.65625-.40625.53125 0 .79688.20312.79688.59375z"/>
  </g>
  <g id="b">
   <path d="m2.1875-5.7969c-.60938 0-1.125.26562-1.4688.73438-.32812.4375-.48438 1.1562-.48438 2.2656 0 1 .125 1.7031.39062 2.1406.34375.54688.89062.84375 1.5625.84375.60938 0 1.1094-.25 1.4688-.71875.3125-.4375.48438-1.1719.48438-2.2344 0-1.0469-.125-1.75-.40625-2.1875-.32812-.54688-.89062-.84375-1.5469-.84375zm0 .90625c.28125 0 .51562.15625.65625.45312.10938.25.17188.85938.17188 1.6406 0 .64062-.0625 1.2656-.14062 1.5-.125.34375-.375.51562-.6875.51562-.29688 0-.53125-.14062-.65625-.4375-.10938-.23438-.17188-.82812-.17188-1.5938 0-.67188.046875-1.3125.14062-1.5469.10938-.34375.35938-.53125.6875-.53125z"/>
  </g>
  <g id="j">
   <path d="m2.8438-2.1719 1.4062-2.1406h-1.3438l-.70312 1.2969-.70312-1.2969h-1.3438l1.4062 2.1406-1.4375 2.1719h1.3438l.73438-1.3438.73438 1.3438h1.3438z"/>
  </g>
  <g id="af">
   <path d="m1.7344-2.5312c.4375 0 .45312 0 .65625.046875.375.10938.625.4375.625.85938 0 .5-.35938.84375-.84375.84375-.53125 0-.8125-.29688-.85938-.875h-1.0781c0 1.125.73438 1.8438 1.9062 1.8438 1.2188 0 1.9844-.71875 1.9844-1.8125 0-.67188-.28125-1.1094-.92188-1.4219.51562-.32812.73438-.6875.73438-1.2031 0-.9375-.70312-1.5469-1.7969-1.5469-.82812 0-1.4531.35938-1.7031.98438-.09375.26562-.14062.45312-.14062.92188h1.0469c.015625-.29688.03125-.45312.09375-.59375.09375-.25.35938-.40625.6875-.40625.4375 0 .70312.28125.70312.75 0 .57812-.32812.85938-1 .85938h-.09375z"/>
  </g>
  <g id="a">
   <path d="m2.5-4.2344h-.65625v-.42188c0-.21875.09375-.32812.29688-.32812.10938 0 .21875 0 .32812.015625v-.84375c-.25-.015625-.48438-.015625-.64062-.015625-.75 0-1.1094.34375-1.1094 1.0781v.51562h-.60938v.75h.60938v3.4844h1.125v-3.4844h.65625z"/>
  </g>
  <g id="ae">
   <path d="m4.1719-2.1875h-.59375v-3.4844h-1.3125l-2.0781 3.4688v.95312h2.2812v1.25h1.1094v-1.25h.59375zm-1.7031 0h-1.4844l1.4844-2.4219z"/>
  </g>
  <g id="ad">
   <path d="m4.2188-5.6719h-3.9844v1h2.8281c-.34375.375-1.0312 1.4062-1.25 1.8906-.39062.82812-.59375 1.5781-.75 2.7812h1.125c.10938-1.7969.6875-3.1719 2.0312-4.7969z"/>
  </g>
  <g id="y">
   <path d="m1.1719-5.0938c.45312.046875.5625.125.5625.32812 0 .125-.03125.26562-.14062.64062l-.9375 3.4062c-.14062.48438-.20312.53125-.65625.59375v.125h1.9531v-.125c-.5-.078125-.53125-.09375-.53125-.375 0-.09375.015625-.15625.09375-.45312l.42188-1.5469c.20312.046875.40625.0625.73438.0625.65625 0 1.2031-.14062 1.5312-.39062.40625-.29688.64062-.73438.64062-1.2031 0-.76562-.60938-1.1875-1.6875-1.1875h-1.9844zm1.4062.32812c.046875-.15625.14062-.21875.35938-.21875.3125 0 .625.078125.78125.1875.20312.15625.29688.39062.29688.76562 0 .51562-.1875.89062-.53125 1.0938-.25.14062-.5625.20312-1.0625.20312-.14062 0-.1875 0-.40625-.046875z"/>
  </g>
  <g id="h">
   <path d="m.96875 0c.42188-1.375.54688-1.7031.92188-2.3125.26562-.45312.48438-.70312.625-.70312.046875 0 .078125.046875.125.125.0625.125.125.17188.28125.17188.25 0 .375-.14062.375-.40625 0-.23438-.15625-.40625-.375-.40625-.1875 0-.40625.125-.60938.34375-.32812.34375-.65625.79688-.78125 1.125l-.10938.28125.42188-1.7344-.015625-.015625c-.59375.10938-.65625.125-1.25.21875v.14062c.1875-.03125.21875-.046875.28125-.046875.17188 0 .28125.078125.28125.23438 0 .10938 0 .10938-.125.64062l-.65625 2.3438z"/>
  </g>
  <g id="e">
   <path d="m2.5938-3.5312c-.34375 0-.65625.09375-.98438.26562-.8125.46875-1.3906 1.3906-1.3906 2.2344 0 .6875.4375 1.125 1.1719 1.125.53125 0 1.0469-.23438 1.5-.70312.53125-.51562.85938-1.1875.85938-1.7969 0-.67188-.46875-1.125-1.1562-1.125zm-.09375.17188c.34375 0 .57812.29688.57812.75 0 .59375-.26562 1.3906-.625 1.9062-.29688.42188-.59375.625-.9375.625-.375 0-.625-.29688-.625-.73438 0-.59375.23438-1.2969.625-1.8594.3125-.45312.64062-.6875.98438-.6875z"/>
  </g>
  <g id="m">
   <path d="m2.7969-.84375c-.4375.46875-.75.64062-1.1406.64062-.45312 0-.73438-.32812-.73438-.90625 0-.6875.28125-1.4062.73438-1.8594.23438-.25.54688-.39062.875-.39062.1875 0 .29688.0625.29688.15625 0 .046875-.015625.078125-.046875.15625-.0625.10938-.078125.15625-.078125.23438 0 .1875.125.29688.3125.29688.21875 0 .39062-.14062.39062-.35938 0-.375-.35938-.65625-.84375-.65625-1.2031 0-2.3281 1.1719-2.3281 2.4219 0 .75.4375 1.2031 1.1875 1.2031.59375 0 1.0156-.25 1.5-.85938z"/>
  </g>
  <g id="d">
   <path d="m2.8594-.875c-.57812.46875-.8125.60938-1.1719.60938-.45312 0-.75-.29688-.75-.73438 0-.125.015625-.23438.09375-.48438l.21875-.03125c1.2031-.17188 2.0469-.78125 2.0469-1.4688 0-.32812-.23438-.54688-.64062-.54688-1.1562 0-2.4062 1.3125-2.4062 2.5156 0 .65625.4375 1.1094 1.0469 1.1094.57812 0 1.1875-.32812 1.6562-.875zm-1.6406-1.1406c.26562-.71875.85938-1.3281 1.2656-1.3281.17188 0 .28125.125.28125.3125 0 .25-.15625.53125-.39062.78125-.29688.28125-.60938.42188-1.2969.59375z"/>
  </g>
  <g id="c">
   <path d="m.28125-1.1719-.15625 1.2812h.125c.078125-.14062.10938-.17188.20312-.17188.078125 0 .23438.03125.39062.078125.1875.046875.29688.078125.4375.078125.67188 0 1.1562-.4375 1.1562-1.0469 0-.3125-.17188-.65625-.54688-1.125-.3125-.375-.4375-.625-.4375-.84375 0-.26562.17188-.42188.45312-.42188.40625 0 .65625.29688.73438.92188h.125l.15625-1.1094h-.10938c-.0625.10938-.10938.14062-.23438.14062-.0625 0-.14062-.015625-.29688-.0625-.1875-.0625-.3125-.078125-.4375-.078125-.59375 0-.96875.34375-.96875.89062 0 .25.17188.59375.5 1.0312.3125.40625.45312.6875.45312.90625 0 .375-.25.625-.59375.625-.45312 0-.6875-.32812-.8125-1.0938z"/>
  </g>
  <g id="u">
   <path d="m3.7188-.875-.23438.21875c-.25.25-.34375.32812-.40625.32812s-.125-.046875-.125-.10938c0-.15625.34375-1.5312.71875-2.9062.03125-.078125.03125-.09375.046875-.15625l-.0625-.03125-.48438.0625-.015625.015625-.09375.39062c-.0625-.29688-.29688-.46875-.64062-.46875-1.0625 0-2.2812 1.4531-2.2812 2.7344 0 .5625.29688.89062.8125.89062.5625 0 .90625-.26562 1.6094-1.2656-.17188.65625-.1875.71875-.1875.92188 0 .23438.09375.32812.32812.32812.3125 0 .5-.15625 1.1094-.875zm-1.25-2.4844c.28125.015625.45312.21875.45312.5 0 .67188-.40625 1.6094-.95312 2.2031-.1875.21875-.46875.35938-.70312.35938-.28125 0-.45312-.23438-.45312-.59375 0-.45312.29688-1.2656.64062-1.7656.32812-.46875.6875-.71875 1.0156-.70312z"/>
  </g>
  <g id="l">
   <path d="m1.7812-.90625c-.20312.26562-.25.32812-.32812.40625-.14062.125-.26562.21875-.32812.21875s-.14062-.0625-.14062-.125c0-.078125.03125-.20312.09375-.35938l.03125-.14062.015625-.015625v-.015625l.70312-2.5781-.03125-.015625c-.8125.15625-.96875.17188-1.2812.20312v.125c.4375.015625.51562.03125.51562.1875 0 .078125-.03125.20312-.078125.35938l-.39062 1.4219c-.125.46875-.17188.70312-.17188.85938 0 .29688.125.46875.375.46875.375 0 .65625-.25 1.1094-.92188zm-.0625-4.3281c-.21875 0-.375.17188-.375.42188 0 .26562.14062.42188.375.42188.20312 0 .39062-.17188.39062-.40625s-.1875-.4375-.39062-.4375z"/>
  </g>
  <g id="k">
   <path d="m3.6875-.9375c-.4375.54688-.53125.64062-.65625.64062-.078125 0-.14062-.0625-.14062-.14062 0-.0625.03125-.20312.125-.5l.45312-1.6406c.03125-.17188.0625-.34375.0625-.46875 0-.29688-.21875-.48438-.51562-.48438-.51562 0-1.0312.48438-1.8438 1.7656l.53125-1.75-.015625-.015625c-.4375.09375-.60938.125-1.2969.25v.125c.40625.015625.5.0625.5.21875 0 .046875 0 .09375-.015625.14062l-.76562 2.7969h.60938c.375-1.2656.4375-1.4375.79688-1.9844.46875-.73438.89062-1.1406 1.1875-1.1406.10938 0 .1875.09375.1875.23438 0 .09375-.046875.35938-.10938.60938l-.35938 1.3281c-.10938.40625-.125.51562-.125.59375 0 .29688.10938.4375.375.4375.35938 0 .5625-.17188 1.125-.90625z"/>
  </g>
  <g id="p">
   <path d="m3.7812-3.2344h-.5c-.015625 0-.0625-.015625-.125-.0625-.21875-.15625-.46875-.23438-.78125-.23438-.89062 0-1.6094.625-1.6094 1.375 0 .40625.17188.65625.64062.85938-.48438.32812-.625.48438-.625.67188 0 .10938.0625.20312.21875.3125-.79688.51562-.9375.6875-.9375 1.0469 0 .54688.53125.90625 1.3438.90625 1 0 1.6719-.46875 1.6719-1.1562 0-.51562-.375-.85938-1.1406-1.0625-.35938-.078125-.5625-.21875-.5625-.32812 0-.125.1875-.32812.28125-.32812h.0625c.078125.015625.15625.03125.25.03125.73438 0 1.4844-.65625 1.4844-1.2812 0-.125-.03125-.26562-.078125-.4375h.40625zm-2.5938 3.0156s.015625 0 .03125.015625c.03125 0 .10938.03125.23438.0625.85938.28125 1.1406.5 1.1406.85938 0 .4375-.45312.75-1.0781.75-.64062 0-1.0156-.29688-1.0156-.8125 0-.1875.046875-.32812.1875-.48438.10938-.14062.4375-.39062.5-.39062zm1.1875-3.1406c.28125 0 .4375.20312.4375.57812 0 .28125-.09375.625-.25.90625-.17188.32812-.42188.5-.6875.5-.3125 0-.48438-.21875-.48438-.59375 0-.75.45312-1.3906.98438-1.3906z"/>
  </g>
  <g id="x">
   <path d="m1.8281-.98438c-.53125.67188-.59375.73438-.76562.73438-.078125 0-.125-.046875-.125-.15625 0-.0625.03125-.15625.078125-.3125 0-.03125.015625-.046875.015625-.0625v-.015625l1.2031-4.625-.046875-.046875c-.46875.10938-.78125.17188-1.25.21875v.125c.39062 0 .54688.046875.54688.1875 0 .03125 0 .078125-.015625.14062l-1.1094 4.2344c-.015625.078125-.03125.14062-.03125.20312 0 .29688.14062.45312.39062.45312.42188 0 .6875-.23438 1.2031-1z"/>
  </g>
  <g id="w">
   <path d="m2.375-3.4219h-.64062l.21875-.82812v-.046875c0-.046875-.015625-.078125-.0625-.078125s-.0625.015625-.10938.078125c-.3125.40625-.8125.8125-1.0625.875-.20312.0625-.26562.125-.26562.20312 0 .015625 0 .03125.015625.046875h.59375l-.57812 2.2031c-.015625.078125-.03125.10938-.046875.17188-.078125.26562-.14062.51562-.14062.59375 0 .15625.17188.29688.39062.29688.35938 0 .625-.23438 1.125-.96875l-.09375-.0625c-.40625.5-.53125.64062-.65625.64062-.078125 0-.125-.0625-.125-.17188l.015625-.03125.70312-2.6719h.67188z"/>
  </g>
  <g id="o">
   <path d="m3.6875-.9375c-.42188.53125-.53125.64062-.65625.64062-.0625 0-.09375-.0625-.09375-.14062 0-.046875 0-.046875.15625-.625l.625-2.3906h-.59375c-.42188 1.1875-.51562 1.375-.875 1.9531-.48438.75-.875 1.1562-1.125 1.1562-.10938 0-.17188-.078125-.17188-.1875v-.078125l.73438-2.9062-.03125-.015625c-.45312.10938-.75.15625-1.1875.21875v.10938c.3125.015625.3125.015625.39062.046875.046875.015625.078125.09375.078125.14062 0 .078125-.03125.26562-.10938.54688l-.29688 1.125c-.14062.59375-.1875.84375-.1875.98438 0 .29688.14062.45312.42188.45312.5625 0 .98438-.4375 1.9062-1.9844-.23438.85938-.35938 1.4062-.35938 1.5781 0 .25.14062.39062.39062.39062.375 0 .54688-.15625 1.0938-.9375z"/>
  </g>
  <g id="n">
   <path d="m5.5156-.9375c-.03125.046875-.078125.078125-.10938.125-.14062.17188-.20312.25-.21875.26562-.17188.1875-.25.25-.35938.25-.0625 0-.09375-.046875-.09375-.14062 0-.03125.03125-.15625.078125-.35938l.54688-2c0-.046875.015625-.17188.015625-.23438 0-.28125-.20312-.5-.46875-.5-.15625 0-.3125.0625-.5.17188-.39062.26562-.71875.64062-1.2812 1.5312.21875-.625.32812-1.0625.32812-1.2188 0-.29688-.1875-.48438-.46875-.48438-.48438 0-1.0469.53125-1.7812 1.6875l.46875-1.6719-.03125-.015625c-.42188.09375-.59375.125-1.2656.25v.125c.35938.015625.35938.015625.4375.046875.03125.015625.0625.078125.0625.14062 0 .09375-.1875.82812-.46875 1.8281-.17188.60938-.20312.73438-.3125 1.1406h.60938c.375-1.2656.5-1.5625.76562-1.9844.45312-.6875.9375-1.125 1.2031-1.125.10938 0 .15625.0625.15625.20312 0 .09375-.23438 1.0469-.5625 2.1719-.0625.23438-.09375.34375-.1875.73438h.59375c.3125-1.25.48438-1.6562.89062-2.2188.39062-.54688.79688-.89062 1.0156-.89062.09375 0 .17188.0625.17188.17188 0 .03125-.015625.10938-.0625.28125l-.46875 1.8281c-.078125.3125-.09375.45312-.09375.53125 0 .23438.10938.375.3125.375.375 0 .73438-.26562 1.1562-.85938l.03125-.0625z"/>
  </g>
  <g id="v">
   <path d="m.125-3.2031c.09375-.015625.15625-.03125.25-.03125.32812 0 .46875.125.64062.5625.20312.59375.625 2.2969.625 2.6094 0 .125-.0625.25-.17188.40625-.21875.29688-.40625.51562-.5.625-.17188.17188-.25.23438-.35938.23438-.0625 0-.10938-.015625-.1875-.078125-.125-.09375-.20312-.14062-.29688-.14062-.1875 0-.3125.14062-.3125.3125 0 .20312.15625.34375.40625.34375.51562 0 1.5469-1.1875 2.4219-2.7812.54688-.98438.76562-1.5625.76562-1.9531 0-.23438-.20312-.4375-.4375-.4375-.1875 0-.3125.125-.3125.29688 0 .125.0625.20312.21875.3125.15625.09375.21875.15625.21875.28125 0 .3125-.29688.92188-.98438 2.0625l-.15625-.92188c-.125-.71875-.5625-2.0312-.6875-2.0312h-.03125c-.015625.015625-.046875.015625-.078125.015625-.0625 0-.35938.046875-.78125.125-.03125.015625-.14062.03125-.25.046875z"/>
  </g>
 </defs>
 <g fill="none" stroke="#000" stroke-linecap="round" stroke-miterlimit="10">
  <path d="m69.927 164.15v-72" stroke-width=".66667"/>
  <path d="m116.72 92.149v72" stroke-width=".667"/>
  <path d="m116.72 164.15h-46.797" stroke-width=".667"/>
 </g>
 <g transform="translate(-194.67 -56.652)" fill="#ff6600">
  <use x="269.10001" y="186.39999" xlink:href="#g"/>
  <use x="276.21201" y="186.39999" xlink:href="#i"/>
  <use x="280.66" y="186.39999" xlink:href="#g"/>
  <use x="287.772" y="186.39999" xlink:href="#r"/>
  <use x="292.66" y="186.39999" xlink:href="#f"/>
  <use x="295.772" y="186.39999" xlink:href="#q"/>
  <use x="302.5" y="186.39999" xlink:href="#ac"/>
 </g>
 <g fill="none" stroke="#000" stroke-linecap="round" stroke-miterlimit="10">
  <path d="m69.927 92.149v-72" stroke-width=".66667"/>
  <path d="m69.927 20.149h46.797" stroke-width=".66667"/>
  <path d="m116.72 20.149v72" stroke-width=".667"/>
  <path d="m116.72 92.149h-46.797" stroke-width=".66667"/>
 </g>
 <g>
  <g transform="translate(-194.67 -56.652)" fill="#ff6600">
   <use x="269.10001" y="114.4" xlink:href="#g"/>
   <use x="276.21201" y="114.4" xlink:href="#i"/>
   <use x="280.66" y="114.4" xlink:href="#g"/>
   <use x="287.772" y="114.4" xlink:href="#r"/>
   <use x="292.66" y="114.4" xlink:href="#f"/>
   <use x="295.772" y="114.4" xlink:href="#q"/>
   <use x="302.5" y="114.4" xlink:href="#ab"/>
  </g>
  <g transform="translate(-194.67 -56.652)" fill="#007fff">
   <use x="198.10001" y="67.599998" xlink:href="#aa"/>
   <use x="203.436" y="67.599998" xlink:href="#z"/>
   <use x="205.66" y="67.599998" xlink:href="#f"/>
   <use x="208.772" y="67.599998" xlink:href="#ak"/>
   <use x="211.436" y="67.599998" xlink:href="#aj"/>
   <use x="216.32401" y="67.599998" xlink:href="#ai"/>
   <use x="220.772" y="67.599998" xlink:href="#ah"/>
   <use x="225.2" y="67.599998" xlink:href="#ag"/>
   <use x="230.976" y="67.599998" xlink:href="#t"/>
   <use x="235.864" y="67.599998" xlink:href="#t"/>
   <use x="240.752" y="67.599998" xlink:href="#f"/>
   <use x="243.864" y="67.599998" xlink:href="#i"/>
   <use x="248.312" y="67.599998" xlink:href="#s"/>
   <use x="252.75999" y="67.599998" xlink:href="#s"/>
  </g>
  <g transform="translate(-194.67 -56.652)" fill="#ff00ff">
   <use x="254.7" y="218.8" xlink:href="#b"/>
   <use x="209.7" y="156.10001" xlink:href="#b"/>
   <use x="214.7" y="156.10001" xlink:href="#j"/>
   <use x="219.7" y="156.10001" xlink:href="#af"/>
   <use x="225.7" y="156.10001" xlink:href="#a"/>
   <use x="230.70001" y="156.10001" xlink:href="#a"/>
   <use x="235.70001" y="156.10001" xlink:href="#a"/>
   <use x="240.70003" y="156.10001" xlink:href="#a"/>
   <use x="245.70003" y="156.10001" xlink:href="#a"/>
   <use x="250.70004" y="156.10001" xlink:href="#a"/>
   <use x="255.70004" y="156.10001" xlink:href="#a"/>
  </g>
  <g transform="translate(-194.67 -56.652)" fill="#00ff00">
   <use x="209.7" y="146.8" xlink:href="#b"/>
   <use x="214.7" y="146.8" xlink:href="#j"/>
   <use x="219.7" y="146.8" xlink:href="#ae"/>
   <use x="224.7" y="146.8" xlink:href="#b"/>
   <use x="229.7" y="146.8" xlink:href="#b"/>
   <use x="234.7" y="146.8" xlink:href="#b"/>
   <use x="239.7" y="146.8" xlink:href="#b"/>
   <use x="244.7" y="146.8" xlink:href="#b"/>
   <use x="249.7" y="146.8" xlink:href="#b"/>
   <use x="254.7" y="146.8" xlink:href="#b"/>
   <use x="209.7" y="84.099998" xlink:href="#b"/>
   <use x="214.7" y="84.099998" xlink:href="#j"/>
   <use x="219.7" y="84.099998" xlink:href="#ad"/>
   <use x="225.7" y="84.099998" xlink:href="#a"/>
   <use x="230.70001" y="84.099998" xlink:href="#a"/>
   <use x="235.70001" y="84.099998" xlink:href="#a"/>
   <use x="240.70003" y="84.099998" xlink:href="#a"/>
   <use x="245.70003" y="84.099998" xlink:href="#a"/>
   <use x="250.70004" y="84.099998" xlink:href="#a"/>
   <use x="255.70004" y="84.099998" xlink:href="#a"/>
  </g>
 </g>
 <g fill="none" stroke="#000" stroke-linecap="round" stroke-miterlimit="10" stroke-width=".667">
  <path d="m123.93 23.746c0-1.9883-1.6133-3.5977-3.6016-3.5977"/>
  <path d="m123.93 23.746v64.801"/>
  <path d="m123.93 88.547c0 1.9883 1.6094 3.6016 3.5977 3.6016"/>
  <path d="m127.52 92.149c-1.9883 0-3.5977 1.6094-3.5977 3.5977"/>
  <path d="m123.93 95.746v64.801"/>
  <path d="m120.33 164.15c1.9883 0 3.6016-1.6133 3.6016-3.6016"/>
 </g>
 <g transform="translate(-194.67 -56.652)">
  <use x="325.79999" y="138.39999" xlink:href="#y"/>
  <use x="330.68799" y="138.39999" xlink:href="#h"/>
  <use x="333.79999" y="138.39999" xlink:href="#e"/>
  <use x="337.79999" y="138.39999" xlink:href="#m"/>
  <use x="341.35199" y="138.39999" xlink:href="#d"/>
  <use x="344.90399" y="138.39999" xlink:href="#c"/>
  <use x="348.01599" y="138.39999" xlink:href="#c"/>
  <use x="351.12799" y="138.39999" xlink:href="#e"/>
  <use x="355.12799" y="138.39999" xlink:href="#h"/>
  <use x="360.5" y="138.39999" xlink:href="#c"/>
  <use x="363.612" y="138.39999" xlink:href="#d"/>
  <use x="367.164" y="138.39999" xlink:href="#d"/>
  <use x="370.716" y="138.39999" xlink:href="#c"/>
  <use x="376.10001" y="138.39999" xlink:href="#u"/>
  <use x="325.79999" y="150.39999" xlink:href="#c"/>
  <use x="328.91199" y="150.39999" xlink:href="#l"/>
  <use x="331.13599" y="150.39999" xlink:href="#k"/>
  <use x="335.13599" y="150.39999" xlink:href="#p"/>
  <use x="339.13599" y="150.39999" xlink:href="#x"/>
  <use x="341.35999" y="150.39999" xlink:href="#d"/>
  <use x="347.19998" y="150.39999" xlink:href="#m"/>
  <use x="350.75198" y="150.39999" xlink:href="#e"/>
  <use x="354.75198" y="150.39999" xlink:href="#k"/>
  <use x="358.75198" y="150.39999" xlink:href="#w"/>
  <use x="360.97598" y="150.39999" xlink:href="#l"/>
  <use x="363.19998" y="150.39999" xlink:href="#p"/>
  <use x="367.19998" y="150.39999" xlink:href="#o"/>
  <use x="371.19998" y="150.39999" xlink:href="#e"/>
  <use x="375.19998" y="150.39999" xlink:href="#o"/>
  <use x="379.19998" y="150.39999" xlink:href="#c"/>
  <use x="325.79999" y="162.39999" xlink:href="#n"/>
  <use x="331.57599" y="162.39999" xlink:href="#d"/>
  <use x="335.12799" y="162.39999" xlink:href="#n"/>
  <use x="340.90399" y="162.39999" xlink:href="#e"/>
  <use x="344.90399" y="162.39999" xlink:href="#h"/>
  <use x="348.01599" y="162.39999" xlink:href="#v"/>
 </g>
</svg>
