<?xml version="1.0" encoding="UTF-8"?><svg xmlns="http://www.w3.org/2000/svg" xmlns:xlink="http://www.w3.org/1999/xlink" fill-opacity="1" color-rendering="auto" color-interpolation="auto" text-rendering="auto" stroke="black" stroke-linecap="square" width="785" stroke-miterlimit="10" shape-rendering="auto" stroke-opacity="1" fill="black" stroke-dasharray="none" font-weight="normal" stroke-width="1" height="765" font-family="'Dialog'" font-style="normal" stroke-linejoin="miter" font-size="12px" stroke-dashoffset="0" image-rendering="auto">
  <!--Generated by ySVG 2.5-->
  <defs id="genericDefs"/>
  <g>
    <defs id="defs1">
      <clipPath clipPathUnits="userSpaceOnUse" id="clipPath1">
        <path d="M0 0 L785 0 L785 765 L0 765 L0 0 Z"/>
      </clipPath>
      <clipPath clipPathUnits="userSpaceOnUse" id="clipPath2">
        <path d="M-19.5621 -18 L1280.5621 -18 L1280.5621 1249 L-19.5621 1249 L-19.5621 -18 Z"/>
      </clipPath>
      <clipPath clipPathUnits="userSpaceOnUse" id="clipPath3">
        <path d="M-20.0621 -18.7324 L1280.0621 -18.7324 L1280.0621 1248.2676 L-20.0621 1248.2676 L-20.0621 -18.7324 Z"/>
      </clipPath>
      <clipPath clipPathUnits="userSpaceOnUse" id="clipPath4">
        <path d="M-0 -0 L-0 24.0001 L24 24.0001 L24 -0 Z"/>
      </clipPath>
      <clipPath clipPathUnits="userSpaceOnUse" id="clipPath5">
        <path d="M-20.3121 -18.083 L1279.8121 -18.083 L1279.8121 1248.917 L-20.3121 1248.917 L-20.3121 -18.083 Z"/>
      </clipPath>
      <clipPath clipPathUnits="userSpaceOnUse" id="clipPath6">
        <path d="M-0 0 L-0 24 L24 24 L24 0 Z"/>
      </clipPath>
      <clipPath clipPathUnits="userSpaceOnUse" id="clipPath7">
        <path d="M-20.0621 -18.5159 L1280.0621 -18.5159 L1280.0621 1248.4841 L-20.0621 1248.4841 L-20.0621 -18.5159 Z"/>
      </clipPath>
      <clipPath clipPathUnits="userSpaceOnUse" id="clipPath8">
        <path d="M-20.1871 -18.2994 L1279.9371 -18.2994 L1279.9371 1248.7006 L-20.1871 1248.7006 L-20.1871 -18.2994 Z"/>
      </clipPath>
      <clipPath clipPathUnits="userSpaceOnUse" id="clipPath9">
        <path d="M0.0001 0 L0.0001 24 L24 24 L24 0 Z"/>
      </clipPath>
      <clipPath clipPathUnits="userSpaceOnUse" id="clipPath10">
        <path d="M-19.9371 -18.8218 L1280.1871 -18.8218 L1280.1871 1248.1782 L-19.9371 1248.1782 L-19.9371 -18.8218 Z"/>
      </clipPath>
      <clipPath clipPathUnits="userSpaceOnUse" id="clipPath11">
        <path d="M-0 -0 L-0 24 L24 24 L24 -0 Z"/>
      </clipPath>
      <clipPath clipPathUnits="userSpaceOnUse" id="clipPath12">
        <path d="M-19.9371 -18.9112 L1280.1871 -18.9112 L1280.1871 1248.0887 L-19.9371 1248.0887 L-19.9371 -18.9112 Z"/>
      </clipPath>
      <clipPath clipPathUnits="userSpaceOnUse" id="clipPath13">
        <path d="M-0 0.0001 L-0 24 L24 24 L24 0.0001 Z"/>
      </clipPath>
      <clipPath clipPathUnits="userSpaceOnUse" id="clipPath14">
        <path d="M-20.0621 -18.1653 L1280.0621 -18.1653 L1280.0621 1248.8347 L-20.0621 1248.8347 L-20.0621 -18.1653 Z"/>
      </clipPath>
      <clipPath clipPathUnits="userSpaceOnUse" id="clipPath15">
        <path d="M0 -0 L0 24 L24 24 L24 -0 Z"/>
      </clipPath>
      <clipPath clipPathUnits="userSpaceOnUse" id="clipPath16">
        <path d="M-20.0621 -18.7771 L1280.0621 -18.7771 L1280.0621 1248.2229 L-20.0621 1248.2229 L-20.0621 -18.7771 Z"/>
      </clipPath>
      <clipPath clipPathUnits="userSpaceOnUse" id="clipPath17">
        <path d="M-20.0621 -18.2994 L1280.0621 -18.2994 L1280.0621 1248.7006 L-20.0621 1248.7006 L-20.0621 -18.2994 Z"/>
      </clipPath>
      <clipPath clipPathUnits="userSpaceOnUse" id="clipPath18">
        <path d="M-20.2496 -18.2547 L1279.8746 -18.2547 L1279.8746 1248.7452 L-20.2496 1248.7452 L-20.2496 -18.2547 Z"/>
      </clipPath>
      <clipPath clipPathUnits="userSpaceOnUse" id="clipPath19">
        <path d="M0 -0 L0 24.0001 L24 24.0001 L24 -0 Z"/>
      </clipPath>
      <clipPath clipPathUnits="userSpaceOnUse" id="clipPath20">
        <path d="M-19.5621 -18.5606 L1280.5621 -18.5606 L1280.5621 1248.4393 L-19.5621 1248.4393 L-19.5621 -18.5606 Z"/>
      </clipPath>
      <clipPath clipPathUnits="userSpaceOnUse" id="clipPath21">
        <path d="M-19.9996 -18.2547 L1280.1246 -18.2547 L1280.1246 1248.7452 L-19.9996 1248.7452 L-19.9996 -18.2547 Z"/>
      </clipPath>
      <clipPath clipPathUnits="userSpaceOnUse" id="clipPath22">
        <path d="M-20.1246 -18.7771 L1279.9996 -18.7771 L1279.9996 1248.2229 L-20.1246 1248.2229 L-20.1246 -18.7771 Z"/>
      </clipPath>
      <clipPath clipPathUnits="userSpaceOnUse" id="clipPath23">
        <path d="M0 -0 L0 24 L24.0001 24 L24.0001 -0 Z"/>
      </clipPath>
      <clipPath clipPathUnits="userSpaceOnUse" id="clipPath24">
        <path d="M-20.1246 -18.3442 L1279.9996 -18.3442 L1279.9996 1248.6559 L-20.1246 1248.6559 L-20.1246 -18.3442 Z"/>
      </clipPath>
      <clipPath clipPathUnits="userSpaceOnUse" id="clipPath25">
        <path d="M-18.7496 -18.7771 L1281.3746 -18.7771 L1281.3746 1248.2229 L-18.7496 1248.2229 L-18.7496 -18.7771 Z"/>
      </clipPath>
      <clipPath clipPathUnits="userSpaceOnUse" id="clipPath26">
        <path d="M-20.3746 -18.2994 L1279.7496 -18.2994 L1279.7496 1248.7006 L-20.3746 1248.7006 L-20.3746 -18.2994 Z"/>
      </clipPath>
      <clipPath clipPathUnits="userSpaceOnUse" id="clipPath27">
        <path d="M-19.5621 -18.2994 L1280.5621 -18.2994 L1280.5621 1248.7006 L-19.5621 1248.7006 L-19.5621 -18.2994 Z"/>
      </clipPath>
      <clipPath clipPathUnits="userSpaceOnUse" id="clipPath28">
        <path d="M-20.0621 -18.3442 L1280.0621 -18.3442 L1280.0621 1248.6559 L-20.0621 1248.6559 L-20.0621 -18.3442 Z"/>
      </clipPath>
    </defs>
    <g fill="white" stroke="white">
      <path d="M14.4375 745.4375 Q16.1094 745.4375 16.875 746.0938 Q17.6406 746.75 17.6406 747.9531 Q17.6406 748.6562 17.3281 749.2812 Q17.0156 749.8906 16.2656 750.2812 Q15.5156 750.6562 14.2344 750.6562 L13.25 750.6562 L13.25 754 L12.1562 754 L12.1562 745.4375 L14.4375 745.4375 ZM14.3438 746.3594 L13.25 746.3594 L13.25 749.7344 L14.1094 749.7344 Q15.3281 749.7344 15.9219 749.3438 Q16.5312 748.9531 16.5312 748 Q16.5312 747.1719 16 746.7656 Q15.4688 746.3594 14.3438 746.3594 ZM24.8694 750.7656 Q24.8694 752.375 24.0569 753.25 Q23.2444 754.125 21.8694 754.125 Q21.0257 754.125 20.3538 753.7344 Q19.6819 753.3438 19.2913 752.5938 Q18.9163 751.8438 18.9163 750.7656 Q18.9163 749.1719 19.7132 748.3125 Q20.5257 747.4531 21.9007 747.4531 Q22.7913 747.4531 23.4476 747.8438 Q24.1194 748.2344 24.4944 748.9688 Q24.8694 749.7031 24.8694 750.7656 ZM20.0101 750.7656 Q20.0101 751.9062 20.4632 752.5781 Q20.9163 753.25 21.9007 753.25 Q22.8694 753.25 23.3226 752.5781 Q23.7757 751.9062 23.7757 750.7656 Q23.7757 749.625 23.3226 748.9844 Q22.8694 748.3438 21.8851 748.3438 Q20.9007 748.3438 20.4476 748.9844 Q20.0101 749.625 20.0101 750.7656 ZM30.692 750.3594 Q30.5357 749.875 30.4107 749.4062 Q30.3014 748.9219 30.2545 748.6562 L30.2076 748.6562 Q30.1451 748.9219 30.0357 749.4062 Q29.942 749.875 29.7701 750.375 L28.6139 753.9844 L27.4107 753.9844 L25.6451 747.5625 L26.7389 747.5625 L27.6295 750.9844 Q27.7701 751.5 27.8795 752.0312 Q28.0045 752.5625 28.0514 752.9062 L28.0982 752.9062 Q28.1451 752.7031 28.2076 752.4062 Q28.2857 752.1094 28.3639 751.7812 Q28.442 751.4375 28.5357 751.1875 L29.6764 747.5625 L30.817 747.5625 L31.9264 751.1875 Q32.067 751.5938 32.192 752.0781 Q32.317 752.5469 32.3639 752.8906 L32.4107 752.8906 Q32.442 752.5938 32.567 752.0781 Q32.692 751.5469 32.8326 750.9844 L33.7389 747.5625 L34.817 747.5625 L33.0357 753.9844 L31.8014 753.9844 L30.692 750.3594 ZM38.4522 747.4531 Q39.2803 747.4531 39.8741 747.8125 Q40.4678 748.1719 40.7803 748.8281 Q41.1084 749.4688 41.1084 750.3594 L41.1084 750.9844 L36.7022 750.9844 Q36.7334 752.0781 37.2647 752.6562 Q37.7959 753.2188 38.7491 753.2188 Q39.3741 753.2188 39.8428 753.1094 Q40.3116 752.9844 40.8272 752.7812 L40.8272 753.7031 Q40.3272 753.9219 39.8428 754.0156 Q39.3741 754.125 38.7022 754.125 Q37.7959 754.125 37.0928 753.75 Q36.3897 753.375 35.9991 752.6406 Q35.6084 751.9062 35.6084 750.8281 Q35.6084 749.7812 35.9678 749.0312 Q36.3272 748.2656 36.9678 747.8594 Q37.6084 747.4531 38.4522 747.4531 ZM38.4366 748.3125 Q37.6866 748.3125 37.2491 748.7969 Q36.8116 749.2812 36.7334 750.1406 L39.9991 750.1406 Q39.9991 749.3281 39.6241 748.8281 Q39.2491 748.3125 38.4366 748.3125 ZM45.7359 747.4531 Q45.9234 747.4531 46.1265 747.4688 Q46.3452 747.4844 46.5015 747.5156 L46.3609 748.4844 Q46.2046 748.4531 46.0171 748.4375 Q45.8296 748.4062 45.6734 748.4062 Q45.1734 748.4062 44.7359 748.6875 Q44.314 748.9531 44.0484 749.4375 Q43.7984 749.9219 43.7984 750.5625 L43.7984 754 L42.7359 754 L42.7359 747.5625 L43.6109 747.5625 L43.7202 748.75 L43.7671 748.75 Q44.0796 748.2188 44.564 747.8438 Q45.064 747.4531 45.7359 747.4531 ZM50.1763 747.4531 Q51.0044 747.4531 51.5981 747.8125 Q52.1919 748.1719 52.5044 748.8281 Q52.8325 749.4688 52.8325 750.3594 L52.8325 750.9844 L48.4263 750.9844 Q48.4575 752.0781 48.9888 752.6562 Q49.52 753.2188 50.4731 753.2188 Q51.0981 753.2188 51.5669 753.1094 Q52.0356 752.9844 52.5513 752.7812 L52.5513 753.7031 Q52.0513 753.9219 51.5669 754.0156 Q51.0981 754.125 50.4263 754.125 Q49.52 754.125 48.8169 753.75 Q48.1138 753.375 47.7231 752.6406 Q47.3325 751.9062 47.3325 750.8281 Q47.3325 749.7812 47.6919 749.0312 Q48.0513 748.2656 48.6919 747.8594 Q49.3325 747.4531 50.1763 747.4531 ZM50.1606 748.3125 Q49.4106 748.3125 48.9731 748.7969 Q48.5356 749.2812 48.4575 750.1406 L51.7231 750.1406 Q51.7231 749.3281 51.3481 748.8281 Q50.9731 748.3125 50.1606 748.3125 ZM56.7412 754.125 Q55.5381 754.125 54.8193 753.2969 Q54.1006 752.4531 54.1006 750.7969 Q54.1006 749.1406 54.8193 748.2969 Q55.5537 747.4531 56.7568 747.4531 Q57.5068 747.4531 57.9756 747.7344 Q58.4443 748 58.7412 748.3906 L58.8193 748.3906 Q58.8037 748.2344 58.7724 747.9375 Q58.7412 747.625 58.7412 747.4531 L58.7412 744.875 L59.8037 744.875 L59.8037 754 L58.9599 754 L58.8037 753.1406 L58.7412 753.1406 Q58.4599 753.5469 57.9756 753.8438 Q57.5068 754.125 56.7412 754.125 ZM56.9131 753.25 Q57.9287 753.25 58.3349 752.6875 Q58.7568 752.125 58.7568 751 L58.7568 750.8125 Q58.7568 749.6094 58.3662 748.9688 Q57.9756 748.3281 56.8974 748.3281 Q56.0537 748.3281 55.6162 749.0156 Q55.1943 749.6875 55.1943 750.8125 Q55.1943 751.9688 55.6162 752.6094 Q56.0537 753.25 56.9131 753.25 ZM66.0225 747.0938 Q66.0225 747.5156 66.0069 747.875 Q65.9913 748.2188 65.96 748.4219 L66.0225 748.4219 Q66.3038 748.0156 66.7725 747.7344 Q67.2569 747.4531 68.0069 747.4531 Q69.21 747.4531 69.9288 748.2969 Q70.6631 749.125 70.6631 750.7812 Q70.6631 752.4375 69.9288 753.2812 Q69.1944 754.125 68.0069 754.125 Q67.2569 754.125 66.7725 753.8438 Q66.3038 753.5625 66.0225 753.1875 L65.9288 753.1875 L65.7256 754 L64.96 754 L64.96 744.875 L66.0225 744.875 L66.0225 747.0938 ZM67.835 748.3438 Q66.8194 748.3438 66.4131 748.9375 Q66.0225 749.5156 66.0225 750.75 L66.0225 750.7969 Q66.0225 751.9844 66.4131 752.625 Q66.8038 753.25 67.8506 753.25 Q68.7256 753.25 69.1475 752.6094 Q69.5694 751.9688 69.5694 750.7656 Q69.5694 748.3438 67.835 748.3438 ZM71.3401 747.5625 L72.4651 747.5625 L73.8557 751.2344 Q74.0432 751.7031 74.1838 752.1406 Q74.3244 752.5781 74.4026 752.9844 L74.4494 752.9844 Q74.5119 752.6875 74.6682 752.2031 Q74.8244 751.7031 74.9963 751.2188 L76.3088 747.5625 L77.4494 747.5625 L74.6682 754.8906 Q74.3401 755.7969 73.7932 756.3281 Q73.2619 756.875 72.3401 756.875 Q72.0432 756.875 71.8244 756.8438 Q71.6057 756.8125 71.4494 756.7812 L71.4494 755.9375 Q71.5901 755.9688 71.7776 755.9844 Q71.9651 756.0156 72.1682 756.0156 Q72.7151 756.0156 73.0588 755.7031 Q73.4026 755.3906 73.5901 754.875 L73.9338 754.0312 L71.3401 747.5625 ZM80.5801 747.5625 L81.7051 747.5625 L83.0958 751.2344 Q83.2833 751.7031 83.4239 752.1406 Q83.5645 752.5781 83.6426 752.9844 L83.6895 752.9844 Q83.752 752.6875 83.9083 752.2031 Q84.0645 751.7031 84.2364 751.2188 L85.5489 747.5625 L86.6895 747.5625 L83.9083 754.8906 Q83.5801 755.7969 83.0333 756.3281 Q82.502 756.875 81.5801 756.875 Q81.2833 756.875 81.0645 756.8438 Q80.8458 756.8125 80.6895 756.7812 L80.6895 755.9375 Q80.8301 755.9688 81.0176 755.9844 Q81.2051 756.0156 81.4083 756.0156 Q81.9551 756.0156 82.2989 755.7031 Q82.6426 755.3906 82.8301 754.875 L83.1739 754.0312 L80.5801 747.5625 ZM88.9346 754 L87.8408 754 L87.8408 745.4375 L92.6377 745.4375 L92.6377 746.375 L88.9346 746.375 L88.9346 749.4219 L92.4033 749.4219 L92.4033 750.3594 L88.9346 750.3594 L88.9346 754 ZM94.4751 745.1562 Q94.7095 745.1562 94.897 745.3281 Q95.0845 745.4844 95.0845 745.8281 Q95.0845 746.1562 94.897 746.3281 Q94.7095 746.5 94.4751 746.5 Q94.2095 746.5 94.022 746.3281 Q93.8501 746.1562 93.8501 745.8281 Q93.8501 745.4844 94.022 745.3281 Q94.2095 745.1562 94.4751 745.1562 ZM94.9907 747.5625 L94.9907 754 L93.9282 754 L93.9282 747.5625 L94.9907 747.5625 ZM98.0867 754 L97.0242 754 L97.0242 744.875 L98.0867 744.875 L98.0867 754 ZM102.6046 747.4531 Q103.4328 747.4531 104.0265 747.8125 Q104.6203 748.1719 104.9328 748.8281 Q105.2609 749.4688 105.2609 750.3594 L105.2609 750.9844 L100.8546 750.9844 Q100.8859 752.0781 101.4171 752.6562 Q101.9484 753.2188 102.9015 753.2188 Q103.5265 753.2188 103.9953 753.1094 Q104.464 752.9844 104.9796 752.7812 L104.9796 753.7031 Q104.4796 753.9219 103.9953 754.0156 Q103.5265 754.125 102.8546 754.125 Q101.9484 754.125 101.2453 753.75 Q100.5421 753.375 100.1515 752.6406 Q99.7609 751.9062 99.7609 750.8281 Q99.7609 749.7812 100.1203 749.0312 Q100.4796 748.2656 101.1203 747.8594 Q101.7609 747.4531 102.6046 747.4531 ZM102.589 748.3125 Q101.839 748.3125 101.4015 748.7969 Q100.964 749.2812 100.8859 750.1406 L104.1515 750.1406 Q104.1515 749.3281 103.7765 748.8281 Q103.4015 748.3125 102.589 748.3125 ZM111.0758 752.2188 Q111.0758 753.1562 110.3727 753.6406 Q109.6852 754.125 108.5133 754.125 Q107.8414 754.125 107.3571 754.0156 Q106.8727 753.9062 106.4977 753.7188 L106.4977 752.75 Q106.8883 752.9375 107.4196 753.1094 Q107.9664 753.2656 108.5289 753.2656 Q109.3414 753.2656 109.7008 753.0156 Q110.0602 752.75 110.0602 752.3125 Q110.0602 752.0781 109.9196 751.8906 Q109.7946 751.7031 109.4508 751.5156 Q109.1071 751.3125 108.4821 751.0781 Q107.8571 750.8281 107.4039 750.5938 Q106.9664 750.3594 106.7164 750.0312 Q106.4821 749.6875 106.4821 749.1562 Q106.4821 748.3438 107.1383 747.9062 Q107.8102 747.4531 108.9039 747.4531 Q109.4821 747.4531 109.9821 747.5625 Q110.4977 747.6719 110.9508 747.875 L110.5914 748.7188 Q110.1852 748.5469 109.7321 748.4375 Q109.2946 748.3125 108.8258 748.3125 Q108.1696 748.3125 107.8258 748.5312 Q107.4977 748.7344 107.4977 749.0938 Q107.4977 749.3594 107.6539 749.5469 Q107.8102 749.7344 108.1696 749.9062 Q108.5289 750.0781 109.1539 750.3125 Q109.7633 750.5469 110.1852 750.7969 Q110.6227 751.0312 110.8414 751.375 Q111.0758 751.7031 111.0758 752.2188 Z" stroke="none" clip-path="url(#clipPath1)"/>
    </g>
    <g fill="silver" stroke="silver">
      <path d="M13.4375 744.4375 Q15.1094 744.4375 15.875 745.0938 Q16.6406 745.75 16.6406 746.9531 Q16.6406 747.6562 16.3281 748.2812 Q16.0156 748.8906 15.2656 749.2812 Q14.5156 749.6562 13.2344 749.6562 L12.25 749.6562 L12.25 753 L11.1562 753 L11.1562 744.4375 L13.4375 744.4375 ZM13.3438 745.3594 L12.25 745.3594 L12.25 748.7344 L13.1094 748.7344 Q14.3281 748.7344 14.9219 748.3438 Q15.5312 747.9531 15.5312 747 Q15.5312 746.1719 15 745.7656 Q14.4688 745.3594 13.3438 745.3594 ZM23.8694 749.7656 Q23.8694 751.375 23.0569 752.25 Q22.2444 753.125 20.8694 753.125 Q20.0257 753.125 19.3538 752.7344 Q18.6819 752.3438 18.2913 751.5938 Q17.9163 750.8438 17.9163 749.7656 Q17.9163 748.1719 18.7132 747.3125 Q19.5257 746.4531 20.9007 746.4531 Q21.7913 746.4531 22.4476 746.8438 Q23.1194 747.2344 23.4944 747.9688 Q23.8694 748.7031 23.8694 749.7656 ZM19.0101 749.7656 Q19.0101 750.9062 19.4632 751.5781 Q19.9163 752.25 20.9007 752.25 Q21.8694 752.25 22.3226 751.5781 Q22.7757 750.9062 22.7757 749.7656 Q22.7757 748.625 22.3226 747.9844 Q21.8694 747.3438 20.8851 747.3438 Q19.9007 747.3438 19.4476 747.9844 Q19.0101 748.625 19.0101 749.7656 ZM29.692 749.3594 Q29.5357 748.875 29.4107 748.4062 Q29.3014 747.9219 29.2545 747.6562 L29.2076 747.6562 Q29.1451 747.9219 29.0357 748.4062 Q28.942 748.875 28.7701 749.375 L27.6139 752.9844 L26.4107 752.9844 L24.6451 746.5625 L25.7389 746.5625 L26.6295 749.9844 Q26.7701 750.5 26.8795 751.0312 Q27.0045 751.5625 27.0514 751.9062 L27.0982 751.9062 Q27.1451 751.7031 27.2076 751.4062 Q27.2857 751.1094 27.3639 750.7812 Q27.442 750.4375 27.5357 750.1875 L28.6764 746.5625 L29.817 746.5625 L30.9264 750.1875 Q31.067 750.5938 31.192 751.0781 Q31.317 751.5469 31.3639 751.8906 L31.4107 751.8906 Q31.442 751.5938 31.567 751.0781 Q31.692 750.5469 31.8326 749.9844 L32.7389 746.5625 L33.817 746.5625 L32.0357 752.9844 L30.8014 752.9844 L29.692 749.3594 ZM37.4522 746.4531 Q38.2803 746.4531 38.8741 746.8125 Q39.4678 747.1719 39.7803 747.8281 Q40.1084 748.4688 40.1084 749.3594 L40.1084 749.9844 L35.7022 749.9844 Q35.7334 751.0781 36.2647 751.6562 Q36.7959 752.2188 37.7491 752.2188 Q38.3741 752.2188 38.8428 752.1094 Q39.3116 751.9844 39.8272 751.7812 L39.8272 752.7031 Q39.3272 752.9219 38.8428 753.0156 Q38.3741 753.125 37.7022 753.125 Q36.7959 753.125 36.0928 752.75 Q35.3897 752.375 34.9991 751.6406 Q34.6084 750.9062 34.6084 749.8281 Q34.6084 748.7812 34.9678 748.0312 Q35.3272 747.2656 35.9678 746.8594 Q36.6084 746.4531 37.4522 746.4531 ZM37.4366 747.3125 Q36.6866 747.3125 36.2491 747.7969 Q35.8116 748.2812 35.7334 749.1406 L38.9991 749.1406 Q38.9991 748.3281 38.6241 747.8281 Q38.2491 747.3125 37.4366 747.3125 ZM44.7359 746.4531 Q44.9234 746.4531 45.1265 746.4688 Q45.3452 746.4844 45.5015 746.5156 L45.3609 747.4844 Q45.2046 747.4531 45.0171 747.4375 Q44.8296 747.4062 44.6734 747.4062 Q44.1734 747.4062 43.7359 747.6875 Q43.314 747.9531 43.0484 748.4375 Q42.7984 748.9219 42.7984 749.5625 L42.7984 753 L41.7359 753 L41.7359 746.5625 L42.6109 746.5625 L42.7202 747.75 L42.7671 747.75 Q43.0796 747.2188 43.564 746.8438 Q44.064 746.4531 44.7359 746.4531 ZM49.1763 746.4531 Q50.0044 746.4531 50.5981 746.8125 Q51.1919 747.1719 51.5044 747.8281 Q51.8325 748.4688 51.8325 749.3594 L51.8325 749.9844 L47.4263 749.9844 Q47.4575 751.0781 47.9888 751.6562 Q48.52 752.2188 49.4731 752.2188 Q50.0981 752.2188 50.5669 752.1094 Q51.0356 751.9844 51.5513 751.7812 L51.5513 752.7031 Q51.0513 752.9219 50.5669 753.0156 Q50.0981 753.125 49.4263 753.125 Q48.52 753.125 47.8169 752.75 Q47.1138 752.375 46.7231 751.6406 Q46.3325 750.9062 46.3325 749.8281 Q46.3325 748.7812 46.6919 748.0312 Q47.0513 747.2656 47.6919 746.8594 Q48.3325 746.4531 49.1763 746.4531 ZM49.1606 747.3125 Q48.4106 747.3125 47.9731 747.7969 Q47.5356 748.2812 47.4575 749.1406 L50.7231 749.1406 Q50.7231 748.3281 50.3481 747.8281 Q49.9731 747.3125 49.1606 747.3125 ZM55.7412 753.125 Q54.5381 753.125 53.8193 752.2969 Q53.1006 751.4531 53.1006 749.7969 Q53.1006 748.1406 53.8193 747.2969 Q54.5537 746.4531 55.7568 746.4531 Q56.5068 746.4531 56.9756 746.7344 Q57.4443 747 57.7412 747.3906 L57.8193 747.3906 Q57.8037 747.2344 57.7724 746.9375 Q57.7412 746.625 57.7412 746.4531 L57.7412 743.875 L58.8037 743.875 L58.8037 753 L57.9599 753 L57.8037 752.1406 L57.7412 752.1406 Q57.4599 752.5469 56.9756 752.8438 Q56.5068 753.125 55.7412 753.125 ZM55.9131 752.25 Q56.9287 752.25 57.3349 751.6875 Q57.7568 751.125 57.7568 750 L57.7568 749.8125 Q57.7568 748.6094 57.3662 747.9688 Q56.9756 747.3281 55.8974 747.3281 Q55.0537 747.3281 54.6162 748.0156 Q54.1943 748.6875 54.1943 749.8125 Q54.1943 750.9688 54.6162 751.6094 Q55.0537 752.25 55.9131 752.25 ZM65.0225 746.0938 Q65.0225 746.5156 65.0069 746.875 Q64.9913 747.2188 64.96 747.4219 L65.0225 747.4219 Q65.3038 747.0156 65.7725 746.7344 Q66.2569 746.4531 67.0069 746.4531 Q68.21 746.4531 68.9288 747.2969 Q69.6631 748.125 69.6631 749.7812 Q69.6631 751.4375 68.9288 752.2812 Q68.1944 753.125 67.0069 753.125 Q66.2569 753.125 65.7725 752.8438 Q65.3038 752.5625 65.0225 752.1875 L64.9288 752.1875 L64.7256 753 L63.96 753 L63.96 743.875 L65.0225 743.875 L65.0225 746.0938 ZM66.835 747.3438 Q65.8194 747.3438 65.4131 747.9375 Q65.0225 748.5156 65.0225 749.75 L65.0225 749.7969 Q65.0225 750.9844 65.4131 751.625 Q65.8038 752.25 66.8506 752.25 Q67.7256 752.25 68.1475 751.6094 Q68.5694 750.9688 68.5694 749.7656 Q68.5694 747.3438 66.835 747.3438 ZM70.3401 746.5625 L71.4651 746.5625 L72.8557 750.2344 Q73.0432 750.7031 73.1838 751.1406 Q73.3244 751.5781 73.4026 751.9844 L73.4494 751.9844 Q73.5119 751.6875 73.6682 751.2031 Q73.8244 750.7031 73.9963 750.2188 L75.3088 746.5625 L76.4494 746.5625 L73.6682 753.8906 Q73.3401 754.7969 72.7932 755.3281 Q72.2619 755.875 71.3401 755.875 Q71.0432 755.875 70.8244 755.8438 Q70.6057 755.8125 70.4494 755.7812 L70.4494 754.9375 Q70.5901 754.9688 70.7776 754.9844 Q70.9651 755.0156 71.1682 755.0156 Q71.7151 755.0156 72.0588 754.7031 Q72.4026 754.3906 72.5901 753.875 L72.9338 753.0312 L70.3401 746.5625 ZM79.5801 746.5625 L80.7051 746.5625 L82.0958 750.2344 Q82.2833 750.7031 82.4239 751.1406 Q82.5645 751.5781 82.6426 751.9844 L82.6895 751.9844 Q82.752 751.6875 82.9083 751.2031 Q83.0645 750.7031 83.2364 750.2188 L84.5489 746.5625 L85.6895 746.5625 L82.9083 753.8906 Q82.5801 754.7969 82.0333 755.3281 Q81.502 755.875 80.5801 755.875 Q80.2833 755.875 80.0645 755.8438 Q79.8458 755.8125 79.6895 755.7812 L79.6895 754.9375 Q79.8301 754.9688 80.0176 754.9844 Q80.2051 755.0156 80.4083 755.0156 Q80.9551 755.0156 81.2989 754.7031 Q81.6426 754.3906 81.8301 753.875 L82.1739 753.0312 L79.5801 746.5625 ZM87.9346 753 L86.8408 753 L86.8408 744.4375 L91.6377 744.4375 L91.6377 745.375 L87.9346 745.375 L87.9346 748.4219 L91.4033 748.4219 L91.4033 749.3594 L87.9346 749.3594 L87.9346 753 ZM93.4751 744.1562 Q93.7095 744.1562 93.897 744.3281 Q94.0845 744.4844 94.0845 744.8281 Q94.0845 745.1562 93.897 745.3281 Q93.7095 745.5 93.4751 745.5 Q93.2095 745.5 93.022 745.3281 Q92.8501 745.1562 92.8501 744.8281 Q92.8501 744.4844 93.022 744.3281 Q93.2095 744.1562 93.4751 744.1562 ZM93.9907 746.5625 L93.9907 753 L92.9282 753 L92.9282 746.5625 L93.9907 746.5625 ZM97.0867 753 L96.0242 753 L96.0242 743.875 L97.0867 743.875 L97.0867 753 ZM101.6046 746.4531 Q102.4328 746.4531 103.0265 746.8125 Q103.6203 747.1719 103.9328 747.8281 Q104.2609 748.4688 104.2609 749.3594 L104.2609 749.9844 L99.8546 749.9844 Q99.8859 751.0781 100.4171 751.6562 Q100.9484 752.2188 101.9015 752.2188 Q102.5265 752.2188 102.9953 752.1094 Q103.464 751.9844 103.9796 751.7812 L103.9796 752.7031 Q103.4796 752.9219 102.9953 753.0156 Q102.5265 753.125 101.8546 753.125 Q100.9484 753.125 100.2453 752.75 Q99.5421 752.375 99.1515 751.6406 Q98.7609 750.9062 98.7609 749.8281 Q98.7609 748.7812 99.1203 748.0312 Q99.4796 747.2656 100.1203 746.8594 Q100.7609 746.4531 101.6046 746.4531 ZM101.589 747.3125 Q100.839 747.3125 100.4015 747.7969 Q99.964 748.2812 99.8859 749.1406 L103.1515 749.1406 Q103.1515 748.3281 102.7765 747.8281 Q102.4015 747.3125 101.589 747.3125 ZM110.0758 751.2188 Q110.0758 752.1562 109.3727 752.6406 Q108.6852 753.125 107.5133 753.125 Q106.8414 753.125 106.3571 753.0156 Q105.8727 752.9062 105.4977 752.7188 L105.4977 751.75 Q105.8883 751.9375 106.4196 752.1094 Q106.9664 752.2656 107.5289 752.2656 Q108.3414 752.2656 108.7008 752.0156 Q109.0602 751.75 109.0602 751.3125 Q109.0602 751.0781 108.9196 750.8906 Q108.7946 750.7031 108.4508 750.5156 Q108.1071 750.3125 107.4821 750.0781 Q106.8571 749.8281 106.4039 749.5938 Q105.9664 749.3594 105.7164 749.0312 Q105.4821 748.6875 105.4821 748.1562 Q105.4821 747.3438 106.1383 746.9062 Q106.8102 746.4531 107.9039 746.4531 Q108.4821 746.4531 108.9821 746.5625 Q109.4977 746.6719 109.9508 746.875 L109.5914 747.7188 Q109.1852 747.5469 108.7321 747.4375 Q108.2946 747.3125 107.8258 747.3125 Q107.1696 747.3125 106.8258 747.5312 Q106.4977 747.7344 106.4977 748.0938 Q106.4977 748.3594 106.6539 748.5469 Q106.8102 748.7344 107.1696 748.9062 Q107.5289 749.0781 108.1539 749.3125 Q108.7633 749.5469 109.1852 749.7969 Q109.6227 750.0312 109.8414 750.375 Q110.0758 750.7031 110.0758 751.2188 Z" stroke="none" clip-path="url(#clipPath1)"/>
    </g>
    <g fill="rgb(255,255,204)" transform="matrix(0.6038,0,0,0.6038,11.8114,10.8682)" stroke="rgb(255,255,204)">
      <rect x="-3.5" width="207" height="276.0013" y="961.9993" clip-path="url(#clipPath2)" stroke="none"/>
    </g>
    <g fill="gray" stroke-miterlimit="1.45" transform="matrix(0.6038,0,0,0.6038,11.8114,10.8682)" stroke-linecap="butt" stroke="gray">
      <rect fill="none" x="-3.5" width="207" height="276.0013" y="961.9993" clip-path="url(#clipPath2)"/>
    </g>
    <g stroke-miterlimit="1.45" font-size="13px" font-family="'Inter'" transform="matrix(0.6038,0,0,0.6038,11.8114,10.8682)" stroke-linecap="butt">
      <text x="53" xml:space="preserve" y="980.5931" clip-path="url(#clipPath2)" stroke="none">logged_in_user</text>
    </g>
    <g fill="gray" transform="matrix(0.6038,0,0,0.6038,11.8114,10.8682)" stroke="gray">
      <line y2="987" fill="none" x1="-2" clip-path="url(#clipPath2)" x2="202" y1="987"/>
    </g>
    <g stroke-linecap="round" transform="matrix(0.4025,0,0,0.4025,12.1133,609.061)" fill="silver" image-rendering="optimizeQuality" stroke-linejoin="round" stroke="silver" stroke-width="2" stroke-miterlimit="4">
      <path fill="none" d="M12.4 2.7 C13.3 1.8 14.9 1.8 15.8 2.7 L21.3 8.2 C22.2 9.1 22.2 10.7 21.3 11.6 L17.6 15.3 C16.7 16.2 15.1 16.2 14.2 15.3 L8.7 9.8 C7.8 8.9 7.8 7.3 8.7 6.4 Z" clip-path="url(#clipPath4)"/>
    </g>
    <g stroke-linecap="round" transform="matrix(0.4025,0,0,0.4025,12.1133,609.061)" fill="silver" image-rendering="optimizeQuality" stroke-linejoin="round" stroke="silver" stroke-width="2" stroke-miterlimit="4">
      <path fill="none" d="M14 7 L17 10" clip-path="url(#clipPath4)"/>
    </g>
    <g stroke-linecap="round" transform="matrix(0.4025,0,0,0.4025,12.1133,609.061)" fill="silver" image-rendering="optimizeQuality" stroke-linejoin="round" stroke="silver" stroke-width="2" stroke-miterlimit="4">
      <path fill="none" d="M9.4 10.6 L2 18 L2 21 C2 21.6 2.4 22 3 22 L7 22 L7 19 L10 19 L10 16 L12 16 L13.4 14.6" clip-path="url(#clipPath4)"/>
    </g>
    <g stroke-miterlimit="1.45" font-weight="bold" font-family="'Inter'" transform="matrix(0.6038,0,0,0.6038,11.8114,10.8682)" stroke-linecap="butt">
      <text x="22.5" xml:space="preserve" y="1005.3571" clip-path="url(#clipPath2)" stroke="none">student_id</text>
    </g>
    <g stroke-miterlimit="1.45" font-family="'Inter'" transform="matrix(0.6038,0,0,0.6038,11.8114,10.8682)" stroke-linecap="butt">
      <text x="139.5" xml:space="preserve" y="1005.3571" clip-path="url(#clipPath2)" stroke="none">TEXT</text>
      <text x="22.5" xml:space="preserve" y="1025.8794" clip-path="url(#clipPath2)" font-weight="bold" stroke="none">moodle_id</text>
      <text x="139.5" xml:space="preserve" y="1025.8794" clip-path="url(#clipPath2)" stroke="none">TEXT</text>
      <text x="22.5" xml:space="preserve" y="1046.4017" clip-path="url(#clipPath2)" font-weight="bold" stroke="none">password_aes</text>
      <text x="139.5" xml:space="preserve" y="1046.4017" clip-path="url(#clipPath2)" stroke="none">TEXT</text>
      <text x="22.5" xml:space="preserve" y="1066.9242" clip-path="url(#clipPath2)" font-weight="bold" stroke="none">session_valid</text>
      <text x="139.5" xml:space="preserve" y="1066.9242" clip-path="url(#clipPath2)" stroke="none">INTEGER</text>
      <text x="22.5" xml:space="preserve" y="1087.4465" clip-path="url(#clipPath2)" stroke="none">personal_email</text>
      <text x="139.5" xml:space="preserve" y="1087.4465" clip-path="url(#clipPath2)" stroke="none">TEXT</text>
      <text x="22.5" xml:space="preserve" y="1107.9689" clip-path="url(#clipPath2)" stroke="none">university_email</text>
      <text x="139.5" xml:space="preserve" y="1107.9689" clip-path="url(#clipPath2)" stroke="none">TEXT</text>
      <text x="22.5" xml:space="preserve" y="1128.4912" clip-path="url(#clipPath2)" stroke="none">phone</text>
      <text x="139.5" xml:space="preserve" y="1128.4912" clip-path="url(#clipPath2)" stroke="none">TEXT</text>
      <text x="22.5" xml:space="preserve" y="1149.0135" clip-path="url(#clipPath2)" stroke="none">address</text>
      <text x="139.5" xml:space="preserve" y="1149.0135" clip-path="url(#clipPath2)" stroke="none">TEXT</text>
      <text x="22.5" xml:space="preserve" y="1169.5359" clip-path="url(#clipPath2)" stroke="none">birth_date</text>
      <text x="139.5" xml:space="preserve" y="1169.5359" clip-path="url(#clipPath2)" stroke="none">TEXT</text>
      <text x="22.5" xml:space="preserve" y="1190.0583" clip-path="url(#clipPath2)" stroke="none">full_name</text>
      <text x="139.5" xml:space="preserve" y="1190.0583" clip-path="url(#clipPath2)" stroke="none">TEXT</text>
      <text x="22.5" xml:space="preserve" y="1210.5807" clip-path="url(#clipPath2)" stroke="none">avatar_path</text>
      <text x="139.5" xml:space="preserve" y="1210.5807" clip-path="url(#clipPath2)" stroke="none">TEXT</text>
      <text x="22.5" xml:space="preserve" y="1231.103" clip-path="url(#clipPath2)" font-weight="bold" stroke="none">cookies_json_aes</text>
      <text x="139.5" xml:space="preserve" y="1231.103" clip-path="url(#clipPath2)" stroke="none">TEXT</text>
    </g>
    <g fill="rgb(255,255,204)" transform="matrix(0.6038,0,0,0.6038,11.8114,10.8682)" stroke="rgb(255,255,204)">
      <rect x="759.75" width="180.5" height="91.3001" y="954.3499" clip-path="url(#clipPath2)" stroke="none"/>
    </g>
    <g fill="gray" stroke-miterlimit="1.45" transform="matrix(0.6038,0,0,0.6038,11.8114,10.8682)" stroke-linecap="butt" stroke="gray">
      <rect fill="none" x="759.75" width="180.5" height="91.3001" y="954.3499" clip-path="url(#clipPath2)"/>
    </g>
    <g stroke-miterlimit="1.45" font-size="13px" font-family="'Inter'" transform="matrix(0.6038,0,0,0.6038,11.8114,10.8682)" stroke-linecap="butt">
      <text x="805" xml:space="preserve" y="972.9438" clip-path="url(#clipPath2)" stroke="none">mano_callouts</text>
    </g>
    <g fill="gray" transform="matrix(0.6038,0,0,0.6038,11.8114,10.8682)" stroke="gray">
      <line y2="980" fill="none" x1="760" clip-path="url(#clipPath2)" x2="939" y1="980"/>
    </g>
    <g stroke-linecap="round" transform="matrix(0.4025,0,0,0.4025,472.9548,604.4424)" fill="silver" image-rendering="optimizeQuality" stroke-linejoin="round" stroke="silver" stroke-width="2" stroke-miterlimit="4">
      <path fill="none" d="M12.4 2.7 C13.3 1.8 14.9 1.8 15.8 2.7 L21.3 8.2 C22.2 9.1 22.2 10.7 21.3 11.6 L17.6 15.3 C16.7 16.2 15.1 16.2 14.2 15.3 L8.7 9.8 C7.8 8.9 7.8 7.3 8.7 6.4 Z" clip-path="url(#clipPath6)"/>
    </g>
    <g stroke-linecap="round" transform="matrix(0.4025,0,0,0.4025,472.9548,604.4424)" fill="silver" image-rendering="optimizeQuality" stroke-linejoin="round" stroke="silver" stroke-width="2" stroke-miterlimit="4">
      <path fill="none" d="M14 7 L17 10" clip-path="url(#clipPath6)"/>
    </g>
    <g stroke-linecap="round" transform="matrix(0.4025,0,0,0.4025,472.9548,604.4424)" fill="silver" image-rendering="optimizeQuality" stroke-linejoin="round" stroke="silver" stroke-width="2" stroke-miterlimit="4">
      <path fill="none" d="M9.4 10.6 L2 18 L2 21 C2 21.6 2.4 22 3 22 L7 22 L7 19 L10 19 L10 16 L12 16 L13.4 14.6" clip-path="url(#clipPath6)"/>
    </g>
    <g stroke-miterlimit="1.45" font-weight="bold" font-family="'Inter'" transform="matrix(0.6038,0,0,0.6038,11.8114,10.8682)" stroke-linecap="butt">
      <text x="785.75" xml:space="preserve" y="997.7077" clip-path="url(#clipPath2)" stroke="none">absolute_seq</text>
    </g>
    <g stroke-miterlimit="1.45" font-family="'Inter'" transform="matrix(0.6038,0,0,0.6038,11.8114,10.8682)" stroke-linecap="butt">
      <text x="876.25" xml:space="preserve" y="997.7077" clip-path="url(#clipPath2)" stroke="none">INTEGER</text>
      <text x="785.75" xml:space="preserve" y="1018.23" clip-path="url(#clipPath2)" font-weight="bold" stroke="none">type</text>
      <text x="876.25" xml:space="preserve" y="1018.23" clip-path="url(#clipPath2)" stroke="none">TEXT</text>
      <text x="785.75" xml:space="preserve" y="1038.7524" clip-path="url(#clipPath2)" font-weight="bold" stroke="none">contents</text>
      <text x="876.25" xml:space="preserve" y="1038.7524" clip-path="url(#clipPath2)" stroke="none">TEXT</text>
    </g>
    <g fill="rgb(255,255,204)" transform="matrix(0.6038,0,0,0.6038,11.8114,10.8682)" stroke="rgb(255,255,204)">
      <rect x="388.5" width="173" height="214.4342" y="-7.2171" clip-path="url(#clipPath2)" stroke="none"/>
    </g>
    <g fill="gray" stroke-miterlimit="1.45" transform="matrix(0.6038,0,0,0.6038,11.8114,10.8682)" stroke-linecap="butt" stroke="gray">
      <rect fill="none" x="388.5" width="173" height="214.4342" y="-7.2171" clip-path="url(#clipPath2)"/>
    </g>
    <g stroke-miterlimit="1.45" font-size="13px" font-family="'Inter'" transform="matrix(0.6038,0,0,0.6038,11.8114,10.8682)" stroke-linecap="butt">
      <text x="420.5" xml:space="preserve" y="11.3767" clip-path="url(#clipPath2)" stroke="none">mano_employees</text>
    </g>
    <g fill="gray" transform="matrix(0.6038,0,0,0.6038,11.8114,10.8682)" stroke="gray">
      <line y2="18" fill="none" x1="389" clip-path="url(#clipPath2)" x2="560" y1="18"/>
    </g>
    <g stroke-linecap="round" transform="matrix(0.4025,0,0,0.4025,248.7983,23.8592)" fill="silver" image-rendering="optimizeQuality" stroke-linejoin="round" stroke="silver" stroke-width="2" stroke-miterlimit="4">
      <path fill="none" d="M12.4 2.7 C13.3 1.8 14.9 1.8 15.8 2.7 L21.3 8.2 C22.2 9.1 22.2 10.7 21.3 11.6 L17.6 15.3 C16.7 16.2 15.1 16.2 14.2 15.3 L8.7 9.8 C7.8 8.9 7.8 7.3 8.7 6.4 Z" clip-path="url(#clipPath6)"/>
    </g>
    <g stroke-linecap="round" transform="matrix(0.4025,0,0,0.4025,248.7983,23.8592)" fill="silver" image-rendering="optimizeQuality" stroke-linejoin="round" stroke="silver" stroke-width="2" stroke-miterlimit="4">
      <path fill="none" d="M14 7 L17 10" clip-path="url(#clipPath6)"/>
    </g>
    <g stroke-linecap="round" transform="matrix(0.4025,0,0,0.4025,248.7983,23.8592)" fill="silver" image-rendering="optimizeQuality" stroke-linejoin="round" stroke="silver" stroke-width="2" stroke-miterlimit="4">
      <path fill="none" d="M9.4 10.6 L2 18 L2 21 C2 21.6 2.4 22 3 22 L7 22 L7 19 L10 19 L10 16 L12 16 L13.4 14.6" clip-path="url(#clipPath6)"/>
    </g>
    <g stroke-miterlimit="1.45" font-weight="bold" font-family="'Inter'" transform="matrix(0.6038,0,0,0.6038,11.8114,10.8682)" stroke-linecap="butt">
      <text x="414.5" xml:space="preserve" y="36.1406" clip-path="url(#clipPath2)" stroke="none">mano_id</text>
    </g>
    <g stroke-miterlimit="1.45" font-family="'Inter'" transform="matrix(0.6038,0,0,0.6038,11.8114,10.8682)" stroke-linecap="butt">
      <text x="497.5" xml:space="preserve" y="36.1406" clip-path="url(#clipPath2)" stroke="none">INTEGER</text>
      <text x="414.5" xml:space="preserve" y="56.663" clip-path="url(#clipPath2)" font-weight="bold" stroke="none">shortname</text>
      <text x="497.5" xml:space="preserve" y="56.663" clip-path="url(#clipPath2)" stroke="none">TEXT</text>
      <text x="414.5" xml:space="preserve" y="77.1853" clip-path="url(#clipPath2)" stroke="none">avatar_path</text>
      <text x="497.5" xml:space="preserve" y="77.1853" clip-path="url(#clipPath2)" stroke="none">TEXT</text>
      <text x="414.5" xml:space="preserve" y="97.7077" clip-path="url(#clipPath2)" stroke="none">fullname</text>
      <text x="497.5" xml:space="preserve" y="97.7077" clip-path="url(#clipPath2)" stroke="none">TEXT</text>
      <text x="414.5" xml:space="preserve" y="118.23" clip-path="url(#clipPath2)" stroke="none">positions</text>
      <text x="497.5" xml:space="preserve" y="118.23" clip-path="url(#clipPath2)" stroke="none">TEXT</text>
      <text x="414.5" xml:space="preserve" y="138.7524" clip-path="url(#clipPath2)" stroke="none">departments</text>
      <text x="497.5" xml:space="preserve" y="138.7524" clip-path="url(#clipPath2)" stroke="none">TEXT</text>
      <text x="414.5" xml:space="preserve" y="159.2747" clip-path="url(#clipPath2)" stroke="none">phones</text>
      <text x="497.5" xml:space="preserve" y="159.2747" clip-path="url(#clipPath2)" stroke="none">TEXT</text>
      <text x="414.5" xml:space="preserve" y="179.7971" clip-path="url(#clipPath2)" stroke="none">emails</text>
      <text x="497.5" xml:space="preserve" y="179.7971" clip-path="url(#clipPath2)" stroke="none">TEXT</text>
      <text x="414.5" xml:space="preserve" y="200.3195" clip-path="url(#clipPath2)" stroke="none">offices</text>
      <text x="497.5" xml:space="preserve" y="200.3195" clip-path="url(#clipPath2)" stroke="none">TEXT</text>
    </g>
    <g fill="rgb(255,255,204)" transform="matrix(0.6038,0,0,0.6038,11.8114,10.8682)" stroke="rgb(255,255,204)">
      <rect x="979.625" width="290.75" height="152.8672" y="723.5664" clip-path="url(#clipPath2)" stroke="none"/>
    </g>
    <g fill="gray" stroke-miterlimit="1.45" transform="matrix(0.6038,0,0,0.6038,11.8114,10.8682)" stroke-linecap="butt" stroke="gray">
      <rect fill="none" x="979.625" width="290.75" height="152.8672" y="723.5664" clip-path="url(#clipPath2)"/>
    </g>
    <g stroke-miterlimit="1.45" font-size="13px" font-family="'Inter'" transform="matrix(0.6038,0,0,0.6038,11.8114,10.8682)" stroke-linecap="butt">
      <text x="1047" xml:space="preserve" y="742.1602" clip-path="url(#clipPath2)" stroke="none">mano_settlement_grades</text>
    </g>
    <g fill="gray" transform="matrix(0.6038,0,0,0.6038,11.8114,10.8682)" stroke="gray">
      <line y2="749" fill="none" x1="980" clip-path="url(#clipPath2)" x2="1269" y1="749"/>
    </g>
    <g stroke-linecap="round" transform="matrix(0.4025,0,0,0.4025,605.7128,465.0979)" fill="silver" image-rendering="optimizeQuality" stroke-linejoin="round" stroke="silver" stroke-width="2" stroke-miterlimit="4">
      <path fill="none" d="M12.4 2.7 C13.3 1.8 14.9 1.8 15.8 2.7 L21.3 8.2 C22.2 9.1 22.2 10.7 21.3 11.6 L17.6 15.3 C16.7 16.2 15.1 16.2 14.2 15.3 L8.7 9.8 C7.8 8.9 7.8 7.3 8.7 6.4 Z" clip-path="url(#clipPath9)"/>
    </g>
    <g stroke-linecap="round" transform="matrix(0.4025,0,0,0.4025,605.7128,465.0979)" fill="silver" image-rendering="optimizeQuality" stroke-linejoin="round" stroke="silver" stroke-width="2" stroke-miterlimit="4">
      <path fill="none" d="M14 7 L17 10" clip-path="url(#clipPath9)"/>
    </g>
    <g stroke-linecap="round" transform="matrix(0.4025,0,0,0.4025,605.7128,465.0979)" fill="silver" image-rendering="optimizeQuality" stroke-linejoin="round" stroke="silver" stroke-width="2" stroke-miterlimit="4">
      <path fill="none" d="M9.4 10.6 L2 18 L2 21 C2 21.6 2.4 22 3 22 L7 22 L7 19 L10 19 L10 16 L12 16 L13.4 14.6" clip-path="url(#clipPath9)"/>
    </g>
    <g stroke-miterlimit="1.45" font-weight="bold" font-family="'Inter'" transform="matrix(0.6038,0,0,0.6038,11.8114,10.8682)" stroke-linecap="butt">
      <text x="1005.625" xml:space="preserve" y="766.9241" clip-path="url(#clipPath2)" stroke="none">composite_pk_id</text>
    </g>
    <g stroke-miterlimit="1.45" font-family="'Inter'" transform="matrix(0.6038,0,0,0.6038,11.8114,10.8682)" stroke-linecap="butt">
      <text x="1190.375" xml:space="preserve" y="766.9241" clip-path="url(#clipPath2)" stroke="none">TEXT</text>
      <text x="1005.625" xml:space="preserve" y="787.4465" clip-path="url(#clipPath2)" font-weight="bold" stroke="none">composite_settlement_pk_id</text>
      <text x="1190.375" xml:space="preserve" y="787.4465" clip-path="url(#clipPath2)" stroke="none">TEXT</text>
    </g>
    <g stroke-linecap="round" transform="matrix(0.4025,0,0,0.4025,765.5658,477.4891)" fill="silver" image-rendering="optimizeQuality" stroke-linejoin="round" stroke="silver" stroke-width="2" stroke-miterlimit="4">
      <path fill="none" d="M7 7 L17 7 L17 17" clip-path="url(#clipPath11)"/>
    </g>
    <g stroke-linecap="round" transform="matrix(0.4025,0,0,0.4025,765.5658,477.4891)" fill="silver" image-rendering="optimizeQuality" stroke-linejoin="round" stroke="silver" stroke-width="2" stroke-miterlimit="4">
      <path fill="none" d="M7 17 L17 7" clip-path="url(#clipPath11)"/>
    </g>
    <g stroke-miterlimit="1.45" font-weight="bold" font-family="'Inter'" transform="matrix(0.6038,0,0,0.6038,11.8114,10.8682)" stroke-linecap="butt">
      <text x="1005.625" xml:space="preserve" y="807.9689" clip-path="url(#clipPath2)" stroke="none">name</text>
    </g>
    <g stroke-miterlimit="1.45" font-family="'Inter'" transform="matrix(0.6038,0,0,0.6038,11.8114,10.8682)" stroke-linecap="butt">
      <text x="1190.375" xml:space="preserve" y="807.9689" clip-path="url(#clipPath2)" stroke="none">TEXT</text>
      <text x="1005.625" xml:space="preserve" y="828.4912" clip-path="url(#clipPath2)" stroke="none">value</text>
      <text x="1190.375" xml:space="preserve" y="828.4912" clip-path="url(#clipPath2)" stroke="none">INTEGER</text>
      <text x="1005.625" xml:space="preserve" y="849.0135" clip-path="url(#clipPath2)" stroke="none">date</text>
      <text x="1190.375" xml:space="preserve" y="849.0135" clip-path="url(#clipPath2)" stroke="none">TEXT</text>
      <text x="1005.625" xml:space="preserve" y="869.5359" clip-path="url(#clipPath2)" font-weight="bold" stroke="none">grader_id</text>
      <text x="1190.375" xml:space="preserve" y="869.5359" clip-path="url(#clipPath2)" stroke="none">INTEGER</text>
    </g>
    <g stroke-linecap="round" transform="matrix(0.4025,0,0,0.4025,765.5658,527.0537)" fill="silver" image-rendering="optimizeQuality" stroke-linejoin="round" stroke="silver" stroke-width="2" stroke-miterlimit="4">
      <path fill="none" d="M7 7 L17 7 L17 17" clip-path="url(#clipPath13)"/>
    </g>
    <g stroke-linecap="round" transform="matrix(0.4025,0,0,0.4025,765.5658,527.0537)" fill="silver" image-rendering="optimizeQuality" stroke-linejoin="round" stroke="silver" stroke-width="2" stroke-miterlimit="4">
      <path fill="none" d="M7 17 L17 7" clip-path="url(#clipPath13)"/>
    </g>
    <g fill="rgb(255,255,204)" transform="matrix(0.6038,0,0,0.6038,11.8114,10.8682)" stroke="rgb(255,255,204)">
      <rect x="316.5" width="317" height="399.1355" y="250.4323" clip-path="url(#clipPath2)" stroke="none"/>
    </g>
    <g fill="gray" stroke-miterlimit="1.45" transform="matrix(0.6038,0,0,0.6038,11.8114,10.8682)" stroke-linecap="butt" stroke="gray">
      <rect fill="none" x="316.5" width="317" height="399.1355" y="250.4323" clip-path="url(#clipPath2)"/>
    </g>
    <g stroke-miterlimit="1.45" font-size="13px" font-family="'Inter'" transform="matrix(0.6038,0,0,0.6038,11.8114,10.8682)" stroke-linecap="butt">
      <text x="428" xml:space="preserve" y="269.0261" clip-path="url(#clipPath2)" stroke="none">mano_subjects</text>
    </g>
    <g fill="gray" transform="matrix(0.6038,0,0,0.6038,11.8114,10.8682)" stroke="gray">
      <line y2="276" fill="none" x1="317" clip-path="url(#clipPath2)" x2="632" y1="276"/>
    </g>
    <g stroke-linecap="round" transform="matrix(0.4025,0,0,0.4025,205.3256,179.425)" fill="silver" image-rendering="optimizeQuality" stroke-linejoin="round" stroke="silver" stroke-width="2" stroke-miterlimit="4">
      <path fill="none" d="M12.4 2.7 C13.3 1.8 14.9 1.8 15.8 2.7 L21.3 8.2 C22.2 9.1 22.2 10.7 21.3 11.6 L17.6 15.3 C16.7 16.2 15.1 16.2 14.2 15.3 L8.7 9.8 C7.8 8.9 7.8 7.3 8.7 6.4 Z" clip-path="url(#clipPath15)"/>
    </g>
    <g stroke-linecap="round" transform="matrix(0.4025,0,0,0.4025,205.3256,179.425)" fill="silver" image-rendering="optimizeQuality" stroke-linejoin="round" stroke="silver" stroke-width="2" stroke-miterlimit="4">
      <path fill="none" d="M14 7 L17 10" clip-path="url(#clipPath15)"/>
    </g>
    <g stroke-linecap="round" transform="matrix(0.4025,0,0,0.4025,205.3256,179.425)" fill="silver" image-rendering="optimizeQuality" stroke-linejoin="round" stroke="silver" stroke-width="2" stroke-miterlimit="4">
      <path fill="none" d="M9.4 10.6 L2 18 L2 21 C2 21.6 2.4 22 3 22 L7 22 L7 19 L10 19 L10 16 L12 16 L13.4 14.6" clip-path="url(#clipPath15)"/>
    </g>
    <g stroke-miterlimit="1.45" font-weight="bold" font-family="'Inter'" transform="matrix(0.6038,0,0,0.6038,11.8114,10.8682)" stroke-linecap="butt">
      <text x="342.5" xml:space="preserve" y="293.79" clip-path="url(#clipPath2)" stroke="none">composite_pk_id</text>
    </g>
    <g stroke-miterlimit="1.45" font-family="'Inter'" transform="matrix(0.6038,0,0,0.6038,11.8114,10.8682)" stroke-linecap="butt">
      <text x="553.5" xml:space="preserve" y="293.79" clip-path="url(#clipPath2)" stroke="none">TEXT</text>
      <text x="342.5" xml:space="preserve" y="314.3123" clip-path="url(#clipPath2)" font-weight="bold" stroke="none">mod_id</text>
      <text x="553.5" xml:space="preserve" y="314.3123" clip-path="url(#clipPath2)" stroke="none">INTEGER</text>
      <text x="342.5" xml:space="preserve" y="334.8347" clip-path="url(#clipPath2)" font-weight="bold" stroke="none">mod_code</text>
      <text x="553.5" xml:space="preserve" y="334.8347" clip-path="url(#clipPath2)" stroke="none">TEXT</text>
      <text x="342.5" xml:space="preserve" y="355.3571" clip-path="url(#clipPath2)" font-weight="bold" stroke="none">link</text>
      <text x="553.5" xml:space="preserve" y="355.3571" clip-path="url(#clipPath2)" stroke="none">TEXT</text>
      <text x="342.5" xml:space="preserve" y="375.8794" clip-path="url(#clipPath2)" stroke="none">custom_color</text>
      <text x="553.5" xml:space="preserve" y="375.8794" clip-path="url(#clipPath2)" stroke="none">INTEGER</text>
      <text x="342.5" xml:space="preserve" y="396.4018" clip-path="url(#clipPath2)" font-weight="bold" stroke="none">semester_absolute_seq</text>
      <text x="553.5" xml:space="preserve" y="396.4018" clip-path="url(#clipPath2)" stroke="none">INTEGER</text>
    </g>
    <g stroke-linecap="round" transform="matrix(0.4025,0,0,0.4025,381.028,241.3808)" fill="silver" image-rendering="optimizeQuality" stroke-linejoin="round" stroke="silver" stroke-width="2" stroke-miterlimit="4">
      <path fill="none" d="M7 7 L17 7 L17 17" clip-path="url(#clipPath6)"/>
    </g>
    <g stroke-linecap="round" transform="matrix(0.4025,0,0,0.4025,381.028,241.3808)" fill="silver" image-rendering="optimizeQuality" stroke-linejoin="round" stroke="silver" stroke-width="2" stroke-miterlimit="4">
      <path fill="none" d="M7 17 L17 7" clip-path="url(#clipPath6)"/>
    </g>
    <g stroke-miterlimit="1.45" font-weight="bold" font-family="'Inter'" transform="matrix(0.6038,0,0,0.6038,11.8114,10.8682)" stroke-linecap="butt">
      <text x="342.5" xml:space="preserve" y="416.9241" clip-path="url(#clipPath2)" stroke="none">lecturer_id</text>
    </g>
    <g stroke-miterlimit="1.45" font-family="'Inter'" transform="matrix(0.6038,0,0,0.6038,11.8114,10.8682)" stroke-linecap="butt">
      <text x="553.5" xml:space="preserve" y="416.9241" clip-path="url(#clipPath2)" stroke="none">INTEGER</text>
    </g>
    <g stroke-linecap="round" transform="matrix(0.4025,0,0,0.4025,381.028,253.772)" fill="silver" image-rendering="optimizeQuality" stroke-linejoin="round" stroke="silver" stroke-width="2" stroke-miterlimit="4">
      <path fill="none" d="M7 7 L17 7 L17 17" clip-path="url(#clipPath11)"/>
    </g>
    <g stroke-linecap="round" transform="matrix(0.4025,0,0,0.4025,381.028,253.772)" fill="silver" image-rendering="optimizeQuality" stroke-linejoin="round" stroke="silver" stroke-width="2" stroke-miterlimit="4">
      <path fill="none" d="M7 17 L17 7" clip-path="url(#clipPath11)"/>
    </g>
    <g stroke-miterlimit="1.45" font-weight="bold" font-family="'Inter'" transform="matrix(0.6038,0,0,0.6038,11.8114,10.8682)" stroke-linecap="butt">
      <text x="342.5" xml:space="preserve" y="437.4465" clip-path="url(#clipPath2)" stroke="none">name</text>
    </g>
    <g stroke-miterlimit="1.45" font-family="'Inter'" transform="matrix(0.6038,0,0,0.6038,11.8114,10.8682)" stroke-linecap="butt">
      <text x="553.5" xml:space="preserve" y="437.4465" clip-path="url(#clipPath2)" stroke="none">TEXT</text>
      <text x="342.5" xml:space="preserve" y="457.9689" clip-path="url(#clipPath2)" stroke="none">tries</text>
      <text x="553.5" xml:space="preserve" y="457.9689" clip-path="url(#clipPath2)" stroke="none">INTEGER</text>
      <text x="342.5" xml:space="preserve" y="478.4912" clip-path="url(#clipPath2)" stroke="none">hours</text>
      <text x="553.5" xml:space="preserve" y="478.4912" clip-path="url(#clipPath2)" stroke="none">INTEGER</text>
      <text x="342.5" xml:space="preserve" y="499.0136" clip-path="url(#clipPath2)" font-weight="bold" stroke="none">credits</text>
      <text x="553.5" xml:space="preserve" y="499.0136" clip-path="url(#clipPath2)" stroke="none">INTEGER</text>
      <text x="342.5" xml:space="preserve" y="519.5359" clip-path="url(#clipPath2)" stroke="none">final_completion_date</text>
      <text x="553.5" xml:space="preserve" y="519.5359" clip-path="url(#clipPath2)" stroke="none">TEXT</text>
      <text x="342.5" xml:space="preserve" y="540.0583" clip-path="url(#clipPath2)" stroke="none">final_completion_grade</text>
      <text x="553.5" xml:space="preserve" y="540.0583" clip-path="url(#clipPath2)" stroke="none">INTEGER</text>
      <text x="342.5" xml:space="preserve" y="560.5806" clip-path="url(#clipPath2)" stroke="none">final_evaluation_verdict</text>
      <text x="553.5" xml:space="preserve" y="560.5806" clip-path="url(#clipPath2)" stroke="none">TEXT</text>
      <text x="342.5" xml:space="preserve" y="581.103" clip-path="url(#clipPath2)" stroke="none">ta_ga_split_percentage</text>
      <text x="553.5" xml:space="preserve" y="581.103" clip-path="url(#clipPath2)" stroke="none">TEXT</text>
      <text x="342.5" xml:space="preserve" y="601.6254" clip-path="url(#clipPath2)" font-weight="bold" stroke="none">mediate_results_available</text>
      <text x="553.5" xml:space="preserve" y="601.6254" clip-path="url(#clipPath2)" stroke="none">INTEGER</text>
      <text x="342.5" xml:space="preserve" y="622.1477" clip-path="url(#clipPath2)" stroke="none">final_completion_cumulative_score</text>
      <text x="553.5" xml:space="preserve" y="622.1477" clip-path="url(#clipPath2)" stroke="none">TEXT</text>
      <text x="342.5" xml:space="preserve" y="642.6701" clip-path="url(#clipPath2)" stroke="none">final_completion_credit_score</text>
      <text x="553.5" xml:space="preserve" y="642.6701" clip-path="url(#clipPath2)" stroke="none">TEXT</text>
    </g>
    <g fill="rgb(255,255,204)" transform="matrix(0.6038,0,0,0.6038,11.8114,10.8682)" stroke="rgb(255,255,204)">
      <rect x="225.6875" width="248.625" height="234.9566" y="957.5217" clip-path="url(#clipPath2)" stroke="none"/>
    </g>
    <g fill="gray" stroke-miterlimit="1.45" transform="matrix(0.6038,0,0,0.6038,11.8114,10.8682)" stroke-linecap="butt" stroke="gray">
      <rect fill="none" x="225.6875" width="248.625" height="234.9566" y="957.5217" clip-path="url(#clipPath2)"/>
    </g>
    <g stroke-miterlimit="1.45" font-size="13px" font-family="'Inter'" transform="matrix(0.6038,0,0,0.6038,11.8114,10.8682)" stroke-linecap="butt">
      <text x="281" xml:space="preserve" y="976.1155" clip-path="url(#clipPath2)" stroke="none">mano_exam_timetable</text>
    </g>
    <g fill="gray" transform="matrix(0.6038,0,0,0.6038,11.8114,10.8682)" stroke="gray">
      <line y2="983" fill="none" x1="226" clip-path="url(#clipPath2)" x2="473" y1="983"/>
    </g>
    <g stroke-linecap="round" transform="matrix(0.4025,0,0,0.4025,150.494,606.3574)" fill="silver" image-rendering="optimizeQuality" stroke-linejoin="round" stroke="silver" stroke-width="2" stroke-miterlimit="4">
      <path fill="none" d="M12.4 2.7 C13.3 1.8 14.9 1.8 15.8 2.7 L21.3 8.2 C22.2 9.1 22.2 10.7 21.3 11.6 L17.6 15.3 C16.7 16.2 15.1 16.2 14.2 15.3 L8.7 9.8 C7.8 8.9 7.8 7.3 8.7 6.4 Z" clip-path="url(#clipPath19)"/>
    </g>
    <g stroke-linecap="round" transform="matrix(0.4025,0,0,0.4025,150.494,606.3574)" fill="silver" image-rendering="optimizeQuality" stroke-linejoin="round" stroke="silver" stroke-width="2" stroke-miterlimit="4">
      <path fill="none" d="M14 7 L17 10" clip-path="url(#clipPath19)"/>
    </g>
    <g stroke-linecap="round" transform="matrix(0.4025,0,0,0.4025,150.494,606.3574)" fill="silver" image-rendering="optimizeQuality" stroke-linejoin="round" stroke="silver" stroke-width="2" stroke-miterlimit="4">
      <path fill="none" d="M9.4 10.6 L2 18 L2 21 C2 21.6 2.4 22 3 22 L7 22 L7 19 L10 19 L10 16 L12 16 L13.4 14.6" clip-path="url(#clipPath19)"/>
    </g>
    <g stroke-miterlimit="1.45" font-weight="bold" font-family="'Inter'" transform="matrix(0.6038,0,0,0.6038,11.8114,10.8682)" stroke-linecap="butt">
      <text x="251.6875" xml:space="preserve" y="1000.8795" clip-path="url(#clipPath2)" stroke="none">absolute_seq</text>
    </g>
    <g stroke-miterlimit="1.45" font-family="'Inter'" transform="matrix(0.6038,0,0,0.6038,11.8114,10.8682)" stroke-linecap="butt">
      <text x="410.3125" xml:space="preserve" y="1000.8795" clip-path="url(#clipPath2)" stroke="none">INTEGER</text>
      <text x="251.6875" xml:space="preserve" y="1021.4018" clip-path="url(#clipPath2)" font-weight="bold" stroke="none">subject_name</text>
      <text x="410.3125" xml:space="preserve" y="1021.4018" clip-path="url(#clipPath2)" stroke="none">TEXT</text>
      <text x="251.6875" xml:space="preserve" y="1041.9242" clip-path="url(#clipPath2)" font-weight="bold" stroke="none">subject_mod_code</text>
      <text x="410.3125" xml:space="preserve" y="1041.9242" clip-path="url(#clipPath2)" stroke="none">TEXT</text>
      <text x="251.6875" xml:space="preserve" y="1062.4465" clip-path="url(#clipPath2)" font-weight="bold" stroke="none">exam_type</text>
      <text x="410.3125" xml:space="preserve" y="1062.4465" clip-path="url(#clipPath2)" stroke="none">TEXT</text>
      <text x="251.6875" xml:space="preserve" y="1082.9689" clip-path="url(#clipPath2)" font-weight="bold" stroke="none">exam_ms_utc</text>
      <text x="410.3125" xml:space="preserve" y="1082.9689" clip-path="url(#clipPath2)" stroke="none">INTEGER</text>
      <text x="251.6875" xml:space="preserve" y="1103.4912" clip-path="url(#clipPath2)" font-weight="bold" stroke="none">exam_classroom</text>
      <text x="410.3125" xml:space="preserve" y="1103.4912" clip-path="url(#clipPath2)" stroke="none">TEXT</text>
      <text x="251.6875" xml:space="preserve" y="1124.0135" clip-path="url(#clipPath2)" font-weight="bold" stroke="none">exam_lecturer_full_name</text>
      <text x="410.3125" xml:space="preserve" y="1124.0135" clip-path="url(#clipPath2)" stroke="none">TEXT</text>
      <text x="251.6875" xml:space="preserve" y="1144.5359" clip-path="url(#clipPath2)" font-weight="bold" stroke="none">exam_credits</text>
      <text x="410.3125" xml:space="preserve" y="1144.5359" clip-path="url(#clipPath2)" stroke="none">INTEGER</text>
      <text x="251.6875" xml:space="preserve" y="1165.0583" clip-path="url(#clipPath2)" stroke="none">consultation_ms_utc</text>
      <text x="410.3125" xml:space="preserve" y="1165.0583" clip-path="url(#clipPath2)" stroke="none">INTEGER</text>
      <text x="251.6875" xml:space="preserve" y="1185.5807" clip-path="url(#clipPath2)" stroke="none">consultation_classroom</text>
      <text x="410.3125" xml:space="preserve" y="1185.5807" clip-path="url(#clipPath2)" stroke="none">TEXT</text>
    </g>
    <g fill="rgb(255,255,204)" transform="matrix(0.6038,0,0,0.6038,11.8114,10.8682)" stroke="rgb(255,255,204)">
      <rect x="689" width="222" height="132.3448" y="383.8276" clip-path="url(#clipPath2)" stroke="none"/>
    </g>
    <g fill="gray" stroke-miterlimit="1.45" transform="matrix(0.6038,0,0,0.6038,11.8114,10.8682)" stroke-linecap="butt" stroke="gray">
      <rect fill="none" x="689" width="222" height="132.3448" y="383.8276" clip-path="url(#clipPath2)"/>
    </g>
    <g stroke-miterlimit="1.45" font-size="13px" font-family="'Inter'" transform="matrix(0.6038,0,0,0.6038,11.8114,10.8682)" stroke-linecap="butt">
      <text x="747" xml:space="preserve" y="402.4214" clip-path="url(#clipPath2)" stroke="none">mano_semesters</text>
    </g>
    <g fill="gray" transform="matrix(0.6038,0,0,0.6038,11.8114,10.8682)" stroke="gray">
      <line y2="409" fill="none" x1="690" clip-path="url(#clipPath2)" x2="910" y1="409"/>
    </g>
    <g stroke-linecap="round" transform="matrix(0.4025,0,0,0.4025,430.2368,259.9675)" fill="silver" image-rendering="optimizeQuality" stroke-linejoin="round" stroke="silver" stroke-width="2" stroke-miterlimit="4">
      <path fill="none" d="M12.4 2.7 C13.3 1.8 14.9 1.8 15.8 2.7 L21.3 8.2 C22.2 9.1 22.2 10.7 21.3 11.6 L17.6 15.3 C16.7 16.2 15.1 16.2 14.2 15.3 L8.7 9.8 C7.8 8.9 7.8 7.3 8.7 6.4 Z" clip-path="url(#clipPath15)"/>
    </g>
    <g stroke-linecap="round" transform="matrix(0.4025,0,0,0.4025,430.2368,259.9675)" fill="silver" image-rendering="optimizeQuality" stroke-linejoin="round" stroke="silver" stroke-width="2" stroke-miterlimit="4">
      <path fill="none" d="M14 7 L17 10" clip-path="url(#clipPath15)"/>
    </g>
    <g stroke-linecap="round" transform="matrix(0.4025,0,0,0.4025,430.2368,259.9675)" fill="silver" image-rendering="optimizeQuality" stroke-linejoin="round" stroke="silver" stroke-width="2" stroke-miterlimit="4">
      <path fill="none" d="M9.4 10.6 L2 18 L2 21 C2 21.6 2.4 22 3 22 L7 22 L7 19 L10 19 L10 16 L12 16 L13.4 14.6" clip-path="url(#clipPath15)"/>
    </g>
    <g stroke-miterlimit="1.45" font-weight="bold" font-family="'Inter'" transform="matrix(0.6038,0,0,0.6038,11.8114,10.8682)" stroke-linecap="butt">
      <text x="715" xml:space="preserve" y="427.1853" clip-path="url(#clipPath2)" stroke="none">absolute_seq</text>
    </g>
    <g stroke-miterlimit="1.45" font-family="'Inter'" transform="matrix(0.6038,0,0,0.6038,11.8114,10.8682)" stroke-linecap="butt">
      <text x="847" xml:space="preserve" y="427.1853" clip-path="url(#clipPath2)" stroke="none">INTEGER</text>
      <text x="715" xml:space="preserve" y="447.7077" clip-path="url(#clipPath2)" font-weight="bold" stroke="none">group</text>
      <text x="847" xml:space="preserve" y="447.7077" clip-path="url(#clipPath2)" stroke="none">TEXT</text>
      <text x="715" xml:space="preserve" y="468.23" clip-path="url(#clipPath2)" stroke="none">study_program</text>
      <text x="847" xml:space="preserve" y="468.23" clip-path="url(#clipPath2)" stroke="none">TEXT</text>
      <text x="715" xml:space="preserve" y="488.7524" clip-path="url(#clipPath2)" stroke="none">final_total_credits</text>
      <text x="847" xml:space="preserve" y="488.7524" clip-path="url(#clipPath2)" stroke="none">INTEGER</text>
      <text x="715" xml:space="preserve" y="509.2747" clip-path="url(#clipPath2)" stroke="none">final_weighted_grade</text>
      <text x="847" xml:space="preserve" y="509.2747" clip-path="url(#clipPath2)" stroke="none">REAL</text>
    </g>
    <g fill="rgb(255,255,204)" transform="matrix(0.6038,0,0,0.6038,11.8114,10.8682)" stroke="rgb(255,255,204)">
      <rect x="650.4375" width="299.125" height="234.9566" y="682.5217" clip-path="url(#clipPath2)" stroke="none"/>
    </g>
    <g fill="gray" stroke-miterlimit="1.45" transform="matrix(0.6038,0,0,0.6038,11.8114,10.8682)" stroke-linecap="butt" stroke="gray">
      <rect fill="none" x="650.4375" width="299.125" height="234.9566" y="682.5217" clip-path="url(#clipPath2)"/>
    </g>
    <g stroke-miterlimit="1.45" font-size="13px" font-family="'Inter'" transform="matrix(0.6038,0,0,0.6038,11.8114,10.8682)" stroke-linecap="butt">
      <text x="722" xml:space="preserve" y="701.1155" clip-path="url(#clipPath2)" stroke="none">mano_settlement_groups</text>
    </g>
    <g fill="gray" transform="matrix(0.6038,0,0,0.6038,11.8114,10.8682)" stroke="gray">
      <line y2="708" fill="none" x1="651" clip-path="url(#clipPath2)" x2="948" y1="708"/>
    </g>
    <g stroke-linecap="round" transform="matrix(0.4025,0,0,0.4025,406.9532,440.3156)" fill="silver" image-rendering="optimizeQuality" stroke-linejoin="round" stroke="silver" stroke-width="2" stroke-miterlimit="4">
      <path fill="none" d="M12.4 2.7 C13.3 1.8 14.9 1.8 15.8 2.7 L21.3 8.2 C22.2 9.1 22.2 10.7 21.3 11.6 L17.6 15.3 C16.7 16.2 15.1 16.2 14.2 15.3 L8.7 9.8 C7.8 8.9 7.8 7.3 8.7 6.4 Z" clip-path="url(#clipPath6)"/>
    </g>
    <g stroke-linecap="round" transform="matrix(0.4025,0,0,0.4025,406.9532,440.3156)" fill="silver" image-rendering="optimizeQuality" stroke-linejoin="round" stroke="silver" stroke-width="2" stroke-miterlimit="4">
      <path fill="none" d="M14 7 L17 10" clip-path="url(#clipPath6)"/>
    </g>
    <g stroke-linecap="round" transform="matrix(0.4025,0,0,0.4025,406.9532,440.3156)" fill="silver" image-rendering="optimizeQuality" stroke-linejoin="round" stroke="silver" stroke-width="2" stroke-miterlimit="4">
      <path fill="none" d="M9.4 10.6 L2 18 L2 21 C2 21.6 2.4 22 3 22 L7 22 L7 19 L10 19 L10 16 L12 16 L13.4 14.6" clip-path="url(#clipPath6)"/>
    </g>
    <g stroke-miterlimit="1.45" font-weight="bold" font-family="'Inter'" transform="matrix(0.6038,0,0,0.6038,11.8114,10.8682)" stroke-linecap="butt">
      <text x="676.4375" xml:space="preserve" y="725.8795" clip-path="url(#clipPath2)" stroke="none">composite_pk_id</text>
    </g>
    <g stroke-miterlimit="1.45" font-family="'Inter'" transform="matrix(0.6038,0,0,0.6038,11.8114,10.8682)" stroke-linecap="butt">
      <text x="869.5625" xml:space="preserve" y="725.8795" clip-path="url(#clipPath2)" stroke="none">TEXT</text>
      <text x="676.4375" xml:space="preserve" y="746.4018" clip-path="url(#clipPath2)" font-weight="bold" stroke="none">composite_subject_pk_id</text>
      <text x="869.5625" xml:space="preserve" y="746.4018" clip-path="url(#clipPath2)" stroke="none">TEXT</text>
    </g>
    <g stroke-linecap="round" transform="matrix(0.4025,0,0,0.4025,571.8629,452.7068)" fill="silver" image-rendering="optimizeQuality" stroke-linejoin="round" stroke="silver" stroke-width="2" stroke-miterlimit="4">
      <path fill="none" d="M7 7 L17 7 L17 17" clip-path="url(#clipPath23)"/>
    </g>
    <g stroke-linecap="round" transform="matrix(0.4025,0,0,0.4025,571.8629,452.7068)" fill="silver" image-rendering="optimizeQuality" stroke-linejoin="round" stroke="silver" stroke-width="2" stroke-miterlimit="4">
      <path fill="none" d="M7 17 L17 7" clip-path="url(#clipPath23)"/>
    </g>
    <g stroke-miterlimit="1.45" font-weight="bold" font-family="'Inter'" transform="matrix(0.6038,0,0,0.6038,11.8114,10.8682)" stroke-linecap="butt">
      <text x="676.4375" xml:space="preserve" y="766.9241" clip-path="url(#clipPath2)" stroke="none">settlement_type</text>
    </g>
    <g stroke-miterlimit="1.45" font-family="'Inter'" transform="matrix(0.6038,0,0,0.6038,11.8114,10.8682)" stroke-linecap="butt">
      <text x="869.5625" xml:space="preserve" y="766.9241" clip-path="url(#clipPath2)" stroke="none">TEXT</text>
      <text x="676.4375" xml:space="preserve" y="787.4465" clip-path="url(#clipPath2)" font-weight="bold" stroke="none">subject_mod_id</text>
      <text x="869.5625" xml:space="preserve" y="787.4465" clip-path="url(#clipPath2)" stroke="none">INTEGER</text>
      <text x="676.4375" xml:space="preserve" y="807.9689" clip-path="url(#clipPath2)" font-weight="bold" stroke="none">sem_absolute_seq</text>
      <text x="869.5625" xml:space="preserve" y="807.9689" clip-path="url(#clipPath2)" stroke="none">INTEGER</text>
    </g>
    <g stroke-linecap="round" transform="matrix(0.4025,0,0,0.4025,571.8629,489.8803)" fill="silver" image-rendering="optimizeQuality" stroke-linejoin="round" stroke="silver" stroke-width="2" stroke-miterlimit="4">
      <path fill="none" d="M7 7 L17 7 L17 17" clip-path="url(#clipPath23)"/>
    </g>
    <g stroke-linecap="round" transform="matrix(0.4025,0,0,0.4025,571.8629,489.8803)" fill="silver" image-rendering="optimizeQuality" stroke-linejoin="round" stroke="silver" stroke-width="2" stroke-miterlimit="4">
      <path fill="none" d="M7 17 L17 7" clip-path="url(#clipPath23)"/>
    </g>
    <g stroke-miterlimit="1.45" font-weight="bold" font-family="'Inter'" transform="matrix(0.6038,0,0,0.6038,11.8114,10.8682)" stroke-linecap="butt">
      <text x="676.4375" xml:space="preserve" y="828.4912" clip-path="url(#clipPath2)" stroke="none">completed_ratio</text>
    </g>
    <g stroke-miterlimit="1.45" font-family="'Inter'" transform="matrix(0.6038,0,0,0.6038,11.8114,10.8682)" stroke-linecap="butt">
      <text x="869.5625" xml:space="preserve" y="828.4912" clip-path="url(#clipPath2)" stroke="none">TEXT</text>
      <text x="676.4375" xml:space="preserve" y="849.0135" clip-path="url(#clipPath2)" font-weight="bold" stroke="none">final_assessment_percentage</text>
      <text x="869.5625" xml:space="preserve" y="849.0135" clip-path="url(#clipPath2)" stroke="none">INTEGER</text>
      <text x="676.4375" xml:space="preserve" y="869.5359" clip-path="url(#clipPath2)" stroke="none">final_grade</text>
      <text x="869.5625" xml:space="preserve" y="869.5359" clip-path="url(#clipPath2)" stroke="none">REAL</text>
      <text x="676.4375" xml:space="preserve" y="890.0583" clip-path="url(#clipPath2)" stroke="none">final_cumulative_score</text>
      <text x="869.5625" xml:space="preserve" y="890.0583" clip-path="url(#clipPath2)" stroke="none">REAL</text>
      <text x="676.4375" xml:space="preserve" y="910.5806" clip-path="url(#clipPath2)" stroke="none">last_updated</text>
      <text x="869.5625" xml:space="preserve" y="910.5806" clip-path="url(#clipPath2)" stroke="none">TEXT</text>
    </g>
    <g fill="rgb(255,255,204)" transform="matrix(0.6038,0,0,0.6038,11.8114,10.8682)" stroke="rgb(255,255,204)">
      <rect x="-9.8125" width="269.625" height="193.9119" y="353.0441" clip-path="url(#clipPath2)" stroke="none"/>
    </g>
    <g fill="gray" stroke-miterlimit="1.45" transform="matrix(0.6038,0,0,0.6038,11.8114,10.8682)" stroke-linecap="butt" stroke="gray">
      <rect fill="none" x="-9.8125" width="269.625" height="193.9119" y="353.0441" clip-path="url(#clipPath2)"/>
    </g>
    <g stroke-miterlimit="1.45" font-size="13px" font-family="'Inter'" transform="matrix(0.6038,0,0,0.6038,11.8114,10.8682)" stroke-linecap="butt">
      <text x="76" xml:space="preserve" y="371.6379" clip-path="url(#clipPath2)" stroke="none">mano_timetable</text>
    </g>
    <g fill="gray" transform="matrix(0.6038,0,0,0.6038,11.8114,10.8682)" stroke="gray">
      <line y2="378" fill="none" x1="-8" clip-path="url(#clipPath2)" x2="258" y1="378"/>
    </g>
    <g stroke-linecap="round" transform="matrix(0.4025,0,0,0.4025,8.3018,241.3808)" fill="silver" image-rendering="optimizeQuality" stroke-linejoin="round" stroke="silver" stroke-width="2" stroke-miterlimit="4">
      <path fill="none" d="M12.4 2.7 C13.3 1.8 14.9 1.8 15.8 2.7 L21.3 8.2 C22.2 9.1 22.2 10.7 21.3 11.6 L17.6 15.3 C16.7 16.2 15.1 16.2 14.2 15.3 L8.7 9.8 C7.8 8.9 7.8 7.3 8.7 6.4 Z" clip-path="url(#clipPath6)"/>
    </g>
    <g stroke-linecap="round" transform="matrix(0.4025,0,0,0.4025,8.3018,241.3808)" fill="silver" image-rendering="optimizeQuality" stroke-linejoin="round" stroke="silver" stroke-width="2" stroke-miterlimit="4">
      <path fill="none" d="M14 7 L17 10" clip-path="url(#clipPath6)"/>
    </g>
    <g stroke-linecap="round" transform="matrix(0.4025,0,0,0.4025,8.3018,241.3808)" fill="silver" image-rendering="optimizeQuality" stroke-linejoin="round" stroke="silver" stroke-width="2" stroke-miterlimit="4">
      <path fill="none" d="M9.4 10.6 L2 18 L2 21 C2 21.6 2.4 22 3 22 L7 22 L7 19 L10 19 L10 16 L12 16 L13.4 14.6" clip-path="url(#clipPath6)"/>
    </g>
    <g stroke-miterlimit="1.45" font-weight="bold" font-family="'Inter'" transform="matrix(0.6038,0,0,0.6038,11.8114,10.8682)" stroke-linecap="butt">
      <text x="16.1875" xml:space="preserve" y="396.4018" clip-path="url(#clipPath2)" stroke="none">id</text>
    </g>
    <g stroke-miterlimit="1.45" font-family="'Inter'" transform="matrix(0.6038,0,0,0.6038,11.8114,10.8682)" stroke-linecap="butt">
      <text x="179.8125" xml:space="preserve" y="396.4018" clip-path="url(#clipPath2)" stroke="none">INTEGER</text>
      <text x="16.1875" xml:space="preserve" y="416.9241" clip-path="url(#clipPath2)" font-weight="bold" stroke="none">subject_composite_pk_id</text>
      <text x="179.8125" xml:space="preserve" y="416.9241" clip-path="url(#clipPath2)" stroke="none">INTEGER</text>
    </g>
    <g stroke-linecap="round" transform="matrix(0.4025,0,0,0.4025,155.3998,253.772)" fill="silver" image-rendering="optimizeQuality" stroke-linejoin="round" stroke="silver" stroke-width="2" stroke-miterlimit="4">
      <path fill="none" d="M7 7 L17 7 L17 17" clip-path="url(#clipPath11)"/>
    </g>
    <g stroke-linecap="round" transform="matrix(0.4025,0,0,0.4025,155.3998,253.772)" fill="silver" image-rendering="optimizeQuality" stroke-linejoin="round" stroke="silver" stroke-width="2" stroke-miterlimit="4">
      <path fill="none" d="M7 17 L17 7" clip-path="url(#clipPath11)"/>
    </g>
    <g stroke-miterlimit="1.45" font-weight="bold" font-family="'Inter'" transform="matrix(0.6038,0,0,0.6038,11.8114,10.8682)" stroke-linecap="butt">
      <text x="16.1875" xml:space="preserve" y="437.4465" clip-path="url(#clipPath2)" stroke="none">subject_mod_id</text>
    </g>
    <g stroke-miterlimit="1.45" font-family="'Inter'" transform="matrix(0.6038,0,0,0.6038,11.8114,10.8682)" stroke-linecap="butt">
      <text x="179.8125" xml:space="preserve" y="437.4465" clip-path="url(#clipPath2)" stroke="none">INTEGER</text>
      <text x="16.1875" xml:space="preserve" y="457.9689" clip-path="url(#clipPath2)" font-weight="bold" stroke="none">time_from_ms_utc</text>
      <text x="179.8125" xml:space="preserve" y="457.9689" clip-path="url(#clipPath2)" stroke="none">INTEGER</text>
      <text x="16.1875" xml:space="preserve" y="478.4912" clip-path="url(#clipPath2)" font-weight="bold" stroke="none">time_to_ms_utc</text>
      <text x="179.8125" xml:space="preserve" y="478.4912" clip-path="url(#clipPath2)" stroke="none">INTEGER</text>
      <text x="16.1875" xml:space="preserve" y="499.0136" clip-path="url(#clipPath2)" font-weight="bold" stroke="none">type</text>
      <text x="179.8125" xml:space="preserve" y="499.0136" clip-path="url(#clipPath2)" stroke="none">TEXT</text>
      <text x="16.1875" xml:space="preserve" y="519.5359" clip-path="url(#clipPath2)" font-weight="bold" stroke="none">student_group</text>
      <text x="179.8125" xml:space="preserve" y="519.5359" clip-path="url(#clipPath2)" stroke="none">INTEGER</text>
      <text x="16.1875" xml:space="preserve" y="540.0583" clip-path="url(#clipPath2)" font-weight="bold" stroke="none">week</text>
      <text x="179.8125" xml:space="preserve" y="540.0583" clip-path="url(#clipPath2)" stroke="none">TEXT</text>
    </g>
    <g fill="rgb(255,255,204)" transform="matrix(0.6038,0,0,0.6038,11.8114,10.8682)" stroke="rgb(255,255,204)">
      <rect x="520" width="210" height="152.8672" y="973.5664" clip-path="url(#clipPath2)" stroke="none"/>
    </g>
    <g fill="gray" stroke-miterlimit="1.45" transform="matrix(0.6038,0,0,0.6038,11.8114,10.8682)" stroke-linecap="butt" stroke="gray">
      <rect fill="none" x="520" width="210" height="152.8672" y="973.5664" clip-path="url(#clipPath2)"/>
    </g>
    <g stroke-miterlimit="1.45" font-size="13px" font-family="'Inter'" transform="matrix(0.6038,0,0,0.6038,11.8114,10.8682)" stroke-linecap="butt">
      <text x="573.5" xml:space="preserve" y="992.1602" clip-path="url(#clipPath2)" stroke="none">moodle_courses</text>
    </g>
    <g fill="gray" transform="matrix(0.6038,0,0,0.6038,11.8114,10.8682)" stroke="gray">
      <line y2="999" fill="none" x1="521" clip-path="url(#clipPath2)" x2="729" y1="999"/>
    </g>
    <g stroke-linecap="round" transform="matrix(0.4025,0,0,0.4025,328.1965,616.045)" fill="silver" image-rendering="optimizeQuality" stroke-linejoin="round" stroke="silver" stroke-width="2" stroke-miterlimit="4">
      <path fill="none" d="M12.4 2.7 C13.3 1.8 14.9 1.8 15.8 2.7 L21.3 8.2 C22.2 9.1 22.2 10.7 21.3 11.6 L17.6 15.3 C16.7 16.2 15.1 16.2 14.2 15.3 L8.7 9.8 C7.8 8.9 7.8 7.3 8.7 6.4 Z" clip-path="url(#clipPath19)"/>
    </g>
    <g stroke-linecap="round" transform="matrix(0.4025,0,0,0.4025,328.1965,616.045)" fill="silver" image-rendering="optimizeQuality" stroke-linejoin="round" stroke="silver" stroke-width="2" stroke-miterlimit="4">
      <path fill="none" d="M14 7 L17 10" clip-path="url(#clipPath19)"/>
    </g>
    <g stroke-linecap="round" transform="matrix(0.4025,0,0,0.4025,328.1965,616.045)" fill="silver" image-rendering="optimizeQuality" stroke-linejoin="round" stroke="silver" stroke-width="2" stroke-miterlimit="4">
      <path fill="none" d="M9.4 10.6 L2 18 L2 21 C2 21.6 2.4 22 3 22 L7 22 L7 19 L10 19 L10 16 L12 16 L13.4 14.6" clip-path="url(#clipPath19)"/>
    </g>
    <g stroke-miterlimit="1.45" font-weight="bold" font-family="'Inter'" transform="matrix(0.6038,0,0,0.6038,11.8114,10.8682)" stroke-linecap="butt">
      <text x="546" xml:space="preserve" y="1016.9241" clip-path="url(#clipPath2)" stroke="none">moodle_id</text>
    </g>
    <g stroke-miterlimit="1.45" font-family="'Inter'" transform="matrix(0.6038,0,0,0.6038,11.8114,10.8682)" stroke-linecap="butt">
      <text x="666" xml:space="preserve" y="1016.9241" clip-path="url(#clipPath2)" stroke="none">INTEGER</text>
      <text x="546" xml:space="preserve" y="1037.4465" clip-path="url(#clipPath2)" font-weight="bold" stroke="none">title</text>
      <text x="666" xml:space="preserve" y="1037.4465" clip-path="url(#clipPath2)" stroke="none">TEXT</text>
      <text x="546" xml:space="preserve" y="1057.9689" clip-path="url(#clipPath2)" font-weight="bold" stroke="none">description</text>
      <text x="666" xml:space="preserve" y="1057.9689" clip-path="url(#clipPath2)" stroke="none">TEXT</text>
      <text x="546" xml:space="preserve" y="1078.4912" clip-path="url(#clipPath2)" stroke="none">custom_color</text>
      <text x="666" xml:space="preserve" y="1078.4912" clip-path="url(#clipPath2)" stroke="none">INTEGER</text>
      <text x="546" xml:space="preserve" y="1099.0135" clip-path="url(#clipPath2)" font-weight="bold" stroke="none">view_url</text>
      <text x="666" xml:space="preserve" y="1099.0135" clip-path="url(#clipPath2)" stroke="none">TEXT</text>
      <text x="546" xml:space="preserve" y="1119.5359" clip-path="url(#clipPath2)" font-weight="bold" stroke="none">cover_image_path</text>
      <text x="666" xml:space="preserve" y="1119.5359" clip-path="url(#clipPath2)" stroke="none">TEXT</text>
    </g>
    <g fill="rgb(255,255,204)" transform="matrix(0.6038,0,0,0.6038,11.8114,10.8682)" stroke="rgb(255,255,204)">
      <rect x="988.5" width="173" height="70.7777" y="964.6111" clip-path="url(#clipPath2)" stroke="none"/>
    </g>
    <g fill="gray" stroke-miterlimit="1.45" transform="matrix(0.6038,0,0,0.6038,11.8114,10.8682)" stroke-linecap="butt" stroke="gray">
      <rect fill="none" x="988.5" width="173" height="70.7777" y="964.6111" clip-path="url(#clipPath2)"/>
    </g>
    <g stroke-miterlimit="1.45" font-size="13px" font-family="'Inter'" transform="matrix(0.6038,0,0,0.6038,11.8114,10.8682)" stroke-linecap="butt">
      <text x="1016" xml:space="preserve" y="983.205" clip-path="url(#clipPath2)" stroke="none">room_master_table</text>
    </g>
    <g fill="gray" transform="matrix(0.6038,0,0,0.6038,11.8114,10.8682)" stroke="gray">
      <line y2="990" fill="none" x1="989" clip-path="url(#clipPath2)" x2="1160" y1="990"/>
    </g>
    <g stroke-linecap="round" transform="matrix(0.4025,0,0,0.4025,611.0714,610.6379)" fill="silver" image-rendering="optimizeQuality" stroke-linejoin="round" stroke="silver" stroke-width="2" stroke-miterlimit="4">
      <path fill="none" d="M12.4 2.7 C13.3 1.8 14.9 1.8 15.8 2.7 L21.3 8.2 C22.2 9.1 22.2 10.7 21.3 11.6 L17.6 15.3 C16.7 16.2 15.1 16.2 14.2 15.3 L8.7 9.8 C7.8 8.9 7.8 7.3 8.7 6.4 Z" clip-path="url(#clipPath4)"/>
    </g>
    <g stroke-linecap="round" transform="matrix(0.4025,0,0,0.4025,611.0714,610.6379)" fill="silver" image-rendering="optimizeQuality" stroke-linejoin="round" stroke="silver" stroke-width="2" stroke-miterlimit="4">
      <path fill="none" d="M14 7 L17 10" clip-path="url(#clipPath4)"/>
    </g>
    <g stroke-linecap="round" transform="matrix(0.4025,0,0,0.4025,611.0714,610.6379)" fill="silver" image-rendering="optimizeQuality" stroke-linejoin="round" stroke="silver" stroke-width="2" stroke-miterlimit="4">
      <path fill="none" d="M9.4 10.6 L2 18 L2 21 C2 21.6 2.4 22 3 22 L7 22 L7 19 L10 19 L10 16 L12 16 L13.4 14.6" clip-path="url(#clipPath4)"/>
    </g>
    <g stroke-miterlimit="1.45" font-family="'Inter'" transform="matrix(0.6038,0,0,0.6038,11.8114,10.8682)" stroke-linecap="butt">
      <text x="1014.5" xml:space="preserve" y="1007.9689" clip-path="url(#clipPath2)" stroke="none">id</text>
    </g>
    <g stroke-miterlimit="1.45" font-family="'Inter'" transform="matrix(0.6038,0,0,0.6038,11.8114,10.8682)" stroke-linecap="butt">
      <text x="1097.5" xml:space="preserve" y="1007.9689" clip-path="url(#clipPath2)" stroke="none">INTEGER</text>
      <text x="1014.5" xml:space="preserve" y="1028.4912" clip-path="url(#clipPath2)" stroke="none">identity_hash</text>
      <text x="1097.5" xml:space="preserve" y="1028.4912" clip-path="url(#clipPath2)" stroke="none">TEXT</text>
    </g>
    <g fill="gray" stroke-miterlimit="1.45" transform="matrix(0.6038,0,0,0.6038,11.8114,10.8682)" stroke-linecap="butt" stroke="gray">
      <path fill="none" d="M1125 723.5284 L1125 100 L569.5344 100" clip-path="url(#clipPath2)"/>
    </g>
    <g fill="gray" stroke-miterlimit="1.45" transform="matrix(0.6038,0,0,0.6038,11.8114,10.8682)" stroke-linecap="butt" stroke="gray">
      <path d="M561.5344 100 L573.5344 105 L570.5344 100 L573.5344 95 Z" stroke="none" clip-path="url(#clipPath2)"/>
      <path fill="none" d="M475 250.3901 L475 215.2593" clip-path="url(#clipPath2)"/>
      <path d="M475 207.2593 L470 219.2593 L475 216.2593 L480 219.2593 Z" clip-path="url(#clipPath2)" stroke="none"/>
      <path fill="none" d="M800 682.4811 L800 524.213" clip-path="url(#clipPath2)"/>
      <path d="M800 516.213 L795 528.213 L800 525.213 L805 528.213 Z" clip-path="url(#clipPath2)" stroke="none"/>
      <path fill="none" d="M633.5271 450 L680.9729 450" clip-path="url(#clipPath2)"/>
      <path d="M688.9729 450 L676.9729 445 L679.9729 450 L676.9729 455 Z" clip-path="url(#clipPath2)" stroke="none"/>
      <path fill="none" d="M979.5956 800 L957.5919 800" clip-path="url(#clipPath2)"/>
      <path d="M949.5919 800 L961.5919 805 L958.5919 800 L961.5919 795 Z" clip-path="url(#clipPath2)" stroke="none"/>
      <path fill="none" d="M650.3947 800 L475 800 L475 657.6045" clip-path="url(#clipPath2)"/>
      <path d="M475 649.6045 L470 661.6045 L475 658.6045 L480 661.6045 Z" clip-path="url(#clipPath2)" stroke="none"/>
      <path fill="none" d="M259.8402 450 L308.4723 450" clip-path="url(#clipPath2)"/>
      <path d="M316.4723 450 L304.4723 445 L307.4723 450 L304.4723 455 Z" clip-path="url(#clipPath2)" stroke="none"/>
    </g>
  </g>
</svg>
